<svg xmlns="http://www.w3.org/2000/svg" width="70" height="70" viewBox="0 0 70 70">
  <g id="Grupo_1202266" data-name="Grupo 1202266" transform="translate(-621.835 -3716)">
    <circle id="Elipse_12371" data-name="Elipse 12371" cx="35" cy="35" r="35" transform="translate(621.835 3716)" fill="#26c790"/>
    <g id="Grupo_1202265" data-name="Grupo 1202265" transform="translate(627.834 3626.146)">
      <g id="Grupo_1202222" data-name="Grupo 1202222" transform="translate(10.304 131.15)">
        <g id="Grupo_1202221" data-name="Grupo 1202221" transform="translate(0 0)">
          <path id="Trazado_1036406" data-name="Trazado 1036406" d="M104.869,315.581H92.325a.448.448,0,0,0-.448.448v3.584a.447.447,0,0,0,.448.448h12.544a.447.447,0,0,0,.448-.448v-3.584A.448.448,0,0,0,104.869,315.581Zm-.448,3.584H92.773v-2.688h11.648Z" transform="translate(-91.877 -315.581)"/>
        </g>
      </g>
      <g id="Grupo_1202224" data-name="Grupo 1202224" transform="translate(33.6 107.854)">
        <g id="Grupo_1202223" data-name="Grupo 1202223" transform="translate(0 0)">
          <path id="Trazado_1036407" data-name="Trazado 1036407" d="M312.593,107.855H300.049a.448.448,0,0,0,0,.9h12.544a.448.448,0,1,0,0-.9Z" transform="translate(-299.601 -107.855)"/>
        </g>
      </g>
      <g id="Grupo_1202226" data-name="Grupo 1202226" transform="translate(22.848 107.854)">
        <g id="Grupo_1202225" data-name="Grupo 1202225" transform="translate(0 0)">
          <path id="Trazado_1036408" data-name="Trazado 1036408" d="M227.788,107.986a.448.448,0,0,0-.633,0l-23.3,23.3a.448.448,0,1,0,.634.633l23.3-23.3A.448.448,0,0,0,227.788,107.986Z" transform="translate(-203.728 -107.854)"/>
        </g>
      </g>
      <g id="Grupo_1202228" data-name="Grupo 1202228" transform="translate(22.848 111.439)">
        <g id="Grupo_1202227" data-name="Grupo 1202227" transform="translate(0 0)">
          <path id="Trazado_1036409" data-name="Trazado 1036409" d="M227.788,139.951a.448.448,0,0,0-.633,0l-23.3,23.3a.448.448,0,1,0,.633.634l23.3-23.3A.448.448,0,0,0,227.788,139.951Z" transform="translate(-203.728 -139.819)"/>
        </g>
      </g>
      <g id="Grupo_1202230" data-name="Grupo 1202230" transform="translate(10.304 107.854)">
        <g id="Grupo_1202229" data-name="Grupo 1202229" transform="translate(0 0)">
          <path id="Trazado_1036410" data-name="Trazado 1036410" d="M115.937,107.986a.448.448,0,0,0-.634,0l-23.3,23.3a.448.448,0,1,0,.634.633l23.3-23.3A.448.448,0,0,0,115.937,107.986Z" transform="translate(-91.877 -107.854)"/>
        </g>
      </g>
      <g id="Grupo_1202232" data-name="Grupo 1202232" transform="translate(46.143 107.854)">
        <g id="Grupo_1202231" data-name="Grupo 1202231" transform="translate(0 0)">
          <path id="Trazado_1036411" data-name="Trazado 1036411" d="M411.9,107.854a.448.448,0,0,0-.448.448v3.585a.448.448,0,1,0,.9,0V108.3A.448.448,0,0,0,411.9,107.854Z" transform="translate(-411.451 -107.854)"/>
        </g>
      </g>
      <g id="Grupo_1202234" data-name="Grupo 1202234" transform="translate(19.395 123.497)">
        <g id="Grupo_1202233" data-name="Grupo 1202233" transform="translate(0 0)">
          <path id="Trazado_1036412" data-name="Trazado 1036412" d="M184.284,247.922c-.025-.019-2.36-1.781-5.072.933l-6.271,6.271.634.633,6.271-6.272c2.138-2.137,3.821-.91,3.889-.859a.448.448,0,1,0,.55-.707Z" transform="translate(-172.941 -247.342)"/>
        </g>
      </g>
      <g id="Grupo_1202236" data-name="Grupo 1202236" transform="translate(22.4 113.231)">
        <g id="Grupo_1202235" data-name="Grupo 1202235" transform="translate(0 0)">
          <path id="Trazado_1036413" data-name="Trazado 1036413" d="M203.186,155.93a.448.448,0,0,0-.634,0l-2.688,2.688a.448.448,0,1,0,.634.634l2.688-2.688A.448.448,0,0,0,203.186,155.93Z" transform="translate(-199.733 -155.798)"/>
        </g>
      </g>
      <g id="Grupo_1202238" data-name="Grupo 1202238" transform="translate(0 136.526)">
        <g id="Grupo_1202237" data-name="Grupo 1202237" transform="translate(0 0)">
          <path id="Trazado_1036414" data-name="Trazado 1036414" d="M12.993,363.518H.449a.448.448,0,0,0-.448.448v3.584A.447.447,0,0,0,.449,368H12.993a.447.447,0,0,0,.448-.448v-3.584A.448.448,0,0,0,12.993,363.518Zm-.448,3.584H.9v-2.688H12.545Z" transform="translate(-0.001 -363.518)"/>
        </g>
      </g>
      <g id="Grupo_1202240" data-name="Grupo 1202240" transform="translate(23.296 113.228)">
        <g id="Grupo_1202239" data-name="Grupo 1202239">
          <path id="Trazado_1036415" data-name="Trazado 1036415" d="M211.309,155.775h-3.138a.448.448,0,0,0,0,.9h3.138a.448.448,0,1,0,0-.9Z" transform="translate(-207.723 -155.775)"/>
        </g>
      </g>
      <g id="Grupo_1202242" data-name="Grupo 1202242" transform="translate(12.544 136.554)">
        <g id="Grupo_1202241" data-name="Grupo 1202241" transform="translate(0 0)">
          <path id="Trazado_1036416" data-name="Trazado 1036416" d="M116.172,363.9a.448.448,0,0,0-.633,0l-3.556,3.556a.448.448,0,1,0,.633.633l3.556-3.556A.448.448,0,0,0,116.172,363.9Z" transform="translate(-111.851 -363.767)"/>
        </g>
      </g>
      <g id="Grupo_1202244" data-name="Grupo 1202244" transform="translate(0 113.23)">
        <g id="Grupo_1202243" data-name="Grupo 1202243" transform="translate(0 0)">
          <path id="Trazado_1036417" data-name="Trazado 1036417" d="M24.06,155.922a.448.448,0,0,0-.633,0l-23.3,23.3a.448.448,0,1,0,.633.634l23.3-23.3A.448.448,0,0,0,24.06,155.922Z" transform="translate(0 -155.79)"/>
        </g>
      </g>
      <g id="Grupo_1202246" data-name="Grupo 1202246" transform="translate(20.608 136.526)">
        <g id="Grupo_1202245" data-name="Grupo 1202245" transform="translate(0 0)">
          <path id="Trazado_1036418" data-name="Trazado 1036418" d="M196.747,363.518H184.2a.448.448,0,0,0-.448.448v3.584a.447.447,0,0,0,.448.448h12.544a.447.447,0,0,0,.448-.448v-3.584A.448.448,0,0,0,196.747,363.518ZM196.3,367.1H184.651v-2.688H196.3V367.1Z" transform="translate(-183.755 -363.518)"/>
        </g>
      </g>
      <g id="Grupo_1202248" data-name="Grupo 1202248" transform="translate(46.147 113.23)">
        <g id="Grupo_1202247" data-name="Grupo 1202247" transform="translate(0 0)">
          <path id="Trazado_1036419" data-name="Trazado 1036419" d="M422.237,155.791h-10.3a.448.448,0,1,0,0,.9h10.3a.448.448,0,0,0,0-.9Z" transform="translate(-411.49 -155.791)"/>
        </g>
      </g>
      <g id="Grupo_1202250" data-name="Grupo 1202250" transform="translate(33.151 113.23)">
        <g id="Grupo_1202249" data-name="Grupo 1202249" transform="translate(0 0)">
          <path id="Trazado_1036420" data-name="Trazado 1036420" d="M319.665,155.922a.448.448,0,0,0-.633,0l-23.3,23.3a.448.448,0,1,0,.634.634l23.3-23.3A.448.448,0,0,0,319.665,155.922Z" transform="translate(-295.605 -155.79)"/>
        </g>
      </g>
      <g id="Grupo_1202252" data-name="Grupo 1202252" transform="translate(33.151 116.815)">
        <g id="Grupo_1202251" data-name="Grupo 1202251">
          <path id="Trazado_1036421" data-name="Trazado 1036421" d="M319.665,187.887a.448.448,0,0,0-.633,0l-23.3,23.3a.448.448,0,1,0,.634.633l23.3-23.295A.448.448,0,0,0,319.665,187.887Z" transform="translate(-295.605 -187.756)"/>
        </g>
      </g>
      <g id="Grupo_1202254" data-name="Grupo 1202254" transform="translate(56.447 113.23)">
        <g id="Grupo_1202253" data-name="Grupo 1202253" transform="translate(0 0)">
          <path id="Trazado_1036422" data-name="Trazado 1036422" d="M503.777,155.791a.448.448,0,0,0-.448.448v3.585a.448.448,0,1,0,.9,0v-3.585A.448.448,0,0,0,503.777,155.791Z" transform="translate(-503.329 -155.791)"/>
        </g>
      </g>
      <g id="Grupo_1202256" data-name="Grupo 1202256" transform="translate(25.088 132.942)">
        <g id="Grupo_1202255" data-name="Grupo 1202255" transform="translate(0 0)">
          <path id="Trazado_1036423" data-name="Trazado 1036423" d="M228.05,331.692a.448.448,0,0,0-.634,0l-3.584,3.584a.448.448,0,1,0,.633.633l3.584-3.584A.448.448,0,0,0,228.05,331.692Z" transform="translate(-223.701 -331.56)"/>
        </g>
      </g>
      <g id="Grupo_1202258" data-name="Grupo 1202258" transform="translate(29.568 130.254)">
        <g id="Grupo_1202257" data-name="Grupo 1202257" transform="translate(0 0)">
          <path id="Trazado_1036424" data-name="Trazado 1036424" d="M270.685,307.724a.448.448,0,0,0-.634,0l-6.272,6.27a.448.448,0,1,0,.633.633l6.272-6.27A.448.448,0,0,0,270.685,307.724Z" transform="translate(-263.648 -307.592)"/>
        </g>
      </g>
      <g id="Grupo_1202260" data-name="Grupo 1202260" transform="translate(43.755 113.269)">
        <g id="Grupo_1202259" data-name="Grupo 1202259" transform="translate(0 0)">
          <path id="Trazado_1036425" data-name="Trazado 1036425" d="M394.613,156.266a.448.448,0,0,0-.633,0l-3.827,3.827.633.633,3.827-3.826A.448.448,0,0,0,394.613,156.266Z" transform="translate(-390.152 -156.135)"/>
        </g>
      </g>
      <g id="Grupo_1202262" data-name="Grupo 1202262" transform="translate(32.256 107.854)">
        <g id="Grupo_1202261" data-name="Grupo 1202261" transform="translate(0 0)">
          <path id="Trazado_1036426" data-name="Trazado 1036426" d="M292.87,107.986a.448.448,0,0,0-.633,0l-4.481,4.482a.448.448,0,1,0,.633.633l4.481-4.482A.448.448,0,0,0,292.87,107.986Z" transform="translate(-287.624 -107.854)"/>
        </g>
      </g>
      <g id="Grupo_1202264" data-name="Grupo 1202264" transform="translate(32.256 107.854)">
        <g id="Grupo_1202263" data-name="Grupo 1202263" transform="translate(0 0)">
          <path id="Trazado_1036427" data-name="Trazado 1036427" d="M297.348,107.986a.448.448,0,0,0-.633,0l-8.959,8.959a.448.448,0,1,0,.633.634l8.959-8.959A.448.448,0,0,0,297.348,107.986Z" transform="translate(-287.624 -107.854)"/>
        </g>
      </g>
    </g>
  </g>
</svg>
