<svg xmlns="http://www.w3.org/2000/svg" width="70" height="70" viewBox="0 0 70 70">
  <g id="Grupo_1202272" data-name="Grupo 1202272" transform="translate(-620.835 -3827)">
    <circle id="Elipse_12372" data-name="Elipse 12372" cx="35" cy="35" r="35" transform="translate(620.835 3827)" fill="#26c790"/>
    <g id="Grupo_1202271" data-name="Grupo 1202271" transform="translate(635.835 3830.201)">
      <g id="Grupo_1202270" data-name="Grupo 1202270" transform="translate(0 12.799)">
        <g id="Grupo_1202269" data-name="Grupo 1202269" transform="translate(0 0)">
          <path id="Trazado_1036436" data-name="Trazado 1036436" d="M40.42,20.878a.664.664,0,0,0-.046-.227.622.622,0,0,0-.025-.058.662.662,0,0,0-.11-.163c-.008-.009-.014-.019-.022-.027a.672.672,0,0,0-.157-.116L25.913,12.876a.673.673,0,0,0-.62,0L.366,25.673a.668.668,0,0,0-.161.118c-.009.009-.016.02-.024.03a.666.666,0,0,0-.108.16c-.009.019-.018.037-.025.058A.665.665,0,0,0,0,26.27v0H0V43.115a.673.673,0,0,0,.361.6l14.147,7.411a.658.658,0,0,0,.088.033c.018.006.035.015.054.02a.671.671,0,0,0,.17.023h0a.673.673,0,0,0,.281-.068c.008,0,.018,0,.026-.006l24.926-12.8a.674.674,0,0,0,.366-.6V20.878ZM14.147,49.412l-12.8-6.7V27.386l12.8,6.7Zm.677-16.488L2.137,26.279,25.6,14.231l12.687,6.646Zm24.25,4.389L15.495,49.422V34.095L39.074,21.987V37.314Z" transform="translate(0 -12.799)"/>
          <path id="Trazado_1036437" data-name="Trazado 1036437" d="M91.754,126.375a.6.6,0,0,0-.018-.062c-.009-.018-.026-.029-.037-.047a.722.722,0,0,0-.186-.194c-.017-.012-.028-.03-.047-.04l-8.023-4.493a.634.634,0,0,0-.061-.02.685.685,0,0,0-.254-.057.648.648,0,0,0-.13.011.657.657,0,0,0-.128.036.611.611,0,0,0-.065.018l-8.287,4.258a.674.674,0,0,0,0,1.2l8.307,4.345a.674.674,0,0,0,.62,0h0l8-4.11s.006-.006.009-.007a.665.665,0,0,0,.183-.146c.014-.015.024-.031.036-.047a.652.652,0,0,0,.053-.069.636.636,0,0,0,.02-.062.656.656,0,0,0,.042-.13.625.625,0,0,0,0-.25A.663.663,0,0,0,91.754,126.375Zm-9.307,3.235-6.156-3.22,6.156-3.163Zm1.347.024V123.28l5.918,3.315Z" transform="translate(-68.3 -112.884)"/>
          <path id="Trazado_1036438" data-name="Trazado 1036438" d="M229.18,54.068a.657.657,0,0,0-.037-.132c0-.021-.011-.042-.018-.062s-.027-.03-.038-.047a.723.723,0,0,0-.187-.194c-.017-.012-.027-.029-.045-.039L220.831,49.1a.624.624,0,0,0-.061-.019.667.667,0,0,0-.512-.01.634.634,0,0,0-.065.018l-8.286,4.258a.674.674,0,0,0,0,1.2h0l8.307,4.345a.674.674,0,0,0,.62,0l8-4.11s.006-.006.01-.008a.663.663,0,0,0,.182-.145c.014-.016.025-.032.037-.049a.226.226,0,0,0,.071-.129.659.659,0,0,0,.043-.132A.628.628,0,0,0,229.18,54.068Zm-9.345,3.1-6.156-3.22,6.156-3.163Zm1.347.024V50.841l5.918,3.314Z" transform="translate(-194.841 -46.164)"/>
        </g>
      </g>
    </g>
  </g>
</svg>
