<svg xmlns="http://www.w3.org/2000/svg" width="82" height="82" viewBox="0 0 82 82">
  <g id="Grupo_1202285" data-name="Grupo 1202285" transform="translate(0.197)">
    <rect id="Rectángulo_409897" data-name="Rectángulo 409897" width="82" height="82" transform="translate(-0.197)" fill="none"/>
    <g id="Grupo_1202284" data-name="Grupo 1202284" transform="translate(10 5)">
      <path id="Trazado_1036466" data-name="Trazado 1036466" d="M191.116,164.373a1.11,1.11,0,0,0-.4-.014,2.651,2.651,0,0,1-2.345-2.629,1.166,1.166,0,0,0-2.332,0,4.989,4.989,0,0,0,3.668,4.8V167.7a1.166,1.166,0,1,0,2.332,0v-1.1a4.98,4.98,0,0,0-1.02-9.854,2.648,2.648,0,1,1,2.648-2.648,1.166,1.166,0,1,0,2.332,0,4.989,4.989,0,0,0-3.96-4.875v-1.061a1.166,1.166,0,0,0-2.332,0V149.3a4.98,4.98,0,0,0,1.312,9.784,2.646,2.646,0,0,1,.1,5.291Zm0,0" transform="translate(-158.971 -125.571)"/>
      <path id="Trazado_1036467" data-name="Trazado 1036467" d="M104.2,123.4a16.911,16.911,0,1,0,16.911-16.911A16.911,16.911,0,0,0,104.2,123.4Zm16.911-14.579A14.579,14.579,0,1,1,106.528,123.4,14.579,14.579,0,0,1,121.107,108.825Zm0,0" transform="translate(-89.059 -90.968)"/>
      <path id="Trazado_1036468" data-name="Trazado 1036468" d="M55.069,331l-9.136,4.316A7.441,7.441,0,0,0,39.59,331.4l-8.433-.232a8.907,8.907,0,0,1-3.833-.99l-.858-.445a15.136,15.136,0,0,0-14.02.015l.054-1.944a1.166,1.166,0,0,0-1.134-1.2l-9.248-.255a1.166,1.166,0,0,0-1.2,1.134L.361,347.784a1.166,1.166,0,0,0,1.134,1.2l9.248.255h.032A1.166,1.166,0,0,0,11.94,348.1l.027-.971,2.4-1.286a4.121,4.121,0,0,1,3.076-.337l14.347,4.027c.025.007.05.013.076.019a15.357,15.357,0,0,0,3.153.325,15.56,15.56,0,0,0,6.5-1.418,1.085,1.085,0,0,0,.145-.08l20.8-13.455a1.167,1.167,0,0,0,.382-1.553A5.891,5.891,0,0,0,55.069,331ZM2.724,346.683l.494-17.962,6.916.19L9.64,346.874Zm37.745-.305a13.222,13.222,0,0,1-8.086.9l-14.308-4.016a6.448,6.448,0,0,0-4.807.526l-1.228.658L12.37,332.5a12.819,12.819,0,0,1,13.023-.695l.858.445a11.263,11.263,0,0,0,4.841,1.25l8.434.232a5.115,5.115,0,0,1,4.861,4.076l-12.562-.347a1.166,1.166,0,1,0-.064,2.332l13.864.382h.032a1.166,1.166,0,0,0,1.165-1.134,7.4,7.4,0,0,0-.113-1.513l9.37-4.427.027-.013a3.563,3.563,0,0,1,4.029.564Zm0,0" transform="translate(-0.36 -278.781)"/>
      <path id="Trazado_1036469" data-name="Trazado 1036469" d="M214.536,12.245V1.166a1.166,1.166,0,1,0-2.332,0V12.245a1.166,1.166,0,1,0,2.332,0Zm0,0" transform="translate(-181.321)"/>
      <path id="Trazado_1036470" data-name="Trazado 1036470" d="M274.536,46.414V41.166a1.166,1.166,0,1,0-2.332,0v5.248a1.166,1.166,0,1,0,2.332,0Zm0,0" transform="translate(-232.575 -34.169)"/>
      <path id="Trazado_1036471" data-name="Trazado 1036471" d="M154.536,46.414V41.166a1.166,1.166,0,1,0-2.332,0v5.248a1.166,1.166,0,1,0,2.332,0Zm0,0" transform="translate(-130.068 -34.169)"/>
    </g>
  </g>
</svg>
