<svg xmlns="http://www.w3.org/2000/svg" width="80" height="80" viewBox="0 0 80 80">
  <g id="Grupo_1202291" data-name="Grupo 1202291" transform="translate(-768.835 -6837)">
    <rect id="Rectángulo_409950" data-name="Rectángulo 409950" width="80" height="80" transform="translate(768.835 6837)" fill="none"/>
    <g id="Grupo_1202290" data-name="Grupo 1202290" transform="translate(-599.225 5901.6)">
      <path id="Trazado_1036494_-_Contorno" data-name="Trazado 1036494 - Contorno" d="M1420.166,969a.323.323,0,0,1,.23.1l10.973,11.134a.323.323,0,0,1-.23.549h-20.815a.323.323,0,0,1-.242-.536l9.843-11.134a.323.323,0,0,1,.233-.109Zm10.2,11.134L1420.179,969.8l-9.14,10.338Z" transform="translate(-33.83 -15.934)"/>
      <path id="Trazado_1036494_-_Contorno_-_Contorno" data-name="Trazado 1036494 - Contorno - Contorno" d="M1420.166,968.4a.928.928,0,0,1,.657.275l10.972,11.134a.923.923,0,0,1-.657,1.57h-20.815a.923.923,0,0,1-.691-1.534l9.843-11.134a.926.926,0,0,1,.666-.311Zm8.768,11.134-8.731-8.859-7.832,8.859Z" transform="translate(-33.83 -15.934)"/>
      <path id="Rectángulo_409951_-_Contorno" data-name="Rectángulo 409951 - Contorno" d="M-1.677-2h5a.323.323,0,0,1,.323.323v30.95a1.807,1.807,0,0,1-1.807,1.807H-.193a1.8,1.8,0,0,1-1.277-.529A1.8,1.8,0,0,1-2,29.272V-1.677A.323.323,0,0,1-1.677-2ZM3-1.355H-1.355V29.272A1.163,1.163,0,0,0-.193,30.433H1.841A1.163,1.163,0,0,0,3,29.272Z" transform="translate(1375.669 969.023)"/>
      <path id="Rectángulo_409951_-_Contorno_-_Contorno" data-name="Rectángulo 409951 - Contorno - Contorno" d="M-1.677-2.6h5a.924.924,0,0,1,.923.923v30.95a2.407,2.407,0,0,1-2.407,2.407H-.193a2.391,2.391,0,0,1-1.7-.7,2.391,2.391,0,0,1-.7-1.7V-1.677A.924.924,0,0,1-1.677-2.6ZM2.4-.755H-.755V29.272a.562.562,0,0,0,.561.561H1.841a.562.562,0,0,0,.561-.561Z" transform="translate(1375.669 969.023)"/>
      <path id="Rectángulo_409952_-_Contorno" data-name="Rectángulo 409952 - Contorno" d="M-1.677-2h5a.323.323,0,0,1,.323.323v30.95a1.807,1.807,0,0,1-1.807,1.807H-.193a1.8,1.8,0,0,1-1.277-.529A1.8,1.8,0,0,1-2,29.272V-1.677A.323.323,0,0,1-1.677-2ZM3-1.355H-1.355V29.272A1.163,1.163,0,0,0-.193,30.433H1.841A1.163,1.163,0,0,0,3,29.272Z" transform="translate(1402.696 969.104)"/>
      <path id="Rectángulo_409952_-_Contorno_-_Contorno" data-name="Rectángulo 409952 - Contorno - Contorno" d="M-1.677-2.6h5a.924.924,0,0,1,.923.923v30.95a2.407,2.407,0,0,1-2.407,2.407H-.193a2.391,2.391,0,0,1-1.7-.7,2.391,2.391,0,0,1-.7-1.7V-1.677A.924.924,0,0,1-1.677-2.6ZM2.4-.755H-.755V29.272a.562.562,0,0,0,.561.561H1.841a.562.562,0,0,0,.561-.561Z" transform="translate(1402.696 969.104)"/>
      <path id="Rectángulo_409953_-_Contorno" data-name="Rectángulo 409953 - Contorno" d="M-1.677-2h5a.323.323,0,0,1,.323.323v30.95a1.807,1.807,0,0,1-1.807,1.807H-.193a1.8,1.8,0,0,1-1.277-.529A1.8,1.8,0,0,1-2,29.272V-1.677A.323.323,0,0,1-1.677-2ZM3-1.355H-1.355V29.272A1.163,1.163,0,0,0-.193,30.433H1.841A1.163,1.163,0,0,0,3,29.272Z" transform="translate(1436.905 969.104)"/>
      <path id="Rectángulo_409953_-_Contorno_-_Contorno" data-name="Rectángulo 409953 - Contorno - Contorno" d="M-1.677-2.6h5a.924.924,0,0,1,.923.923v30.95a2.407,2.407,0,0,1-2.407,2.407H-.193a2.391,2.391,0,0,1-1.7-.7,2.391,2.391,0,0,1-.7-1.7V-1.677A.924.924,0,0,1-1.677-2.6ZM2.4-.755H-.755V29.272a.562.562,0,0,0,.561.561H1.841a.562.562,0,0,0,.561-.561Z" transform="translate(1436.905 969.104)"/>
      <path id="Trazado_1036495" data-name="Trazado 1036495" d="M1473.041,971.525,1454,952h46.391l15.274,15.9a.912.912,0,0,1-.932,1.5h0a5.75,5.75,0,0,0-5.055.791h0a2.632,2.632,0,0,1-3.069-.019h0a2.038,2.038,0,0,0-3.217-.355l-.172.179a2.687,2.687,0,0,1-3.527.148h0a2.083,2.083,0,0,0-3.174.228l-.159.218a2.366,2.366,0,0,1-2.936.033h0a2.183,2.183,0,0,0-3.472-.229l-.223.257a1.99,1.99,0,0,1-2.846-.033h0a2.746,2.746,0,0,0-3.969,0l-.387.4a1.937,1.937,0,0,1-2.736.061h0a2.755,2.755,0,0,0-4.035.248h0a1.84,1.84,0,0,1-2.392.4Z" transform="translate(-70.731 -1.677)" fill="#fff"/>
      <path id="Trazado_1036495_-_Contorno" data-name="Trazado 1036495 - Contorno" d="M1474.331,972.6a2.436,2.436,0,0,1-1.283-.365l-.323-.2a.6.6,0,0,1-.114-.091l-19.041-19.525a.6.6,0,0,1,.43-1.019h46.391a.6.6,0,0,1,.433.184l15.274,15.9a1.485,1.485,0,0,1,.3,1.633,1.507,1.507,0,0,1-1.38.929,1.559,1.559,0,0,1-.469-.074,5.15,5.15,0,0,0-4.528.708,3.232,3.232,0,0,1-3.769-.023.6.6,0,0,1-.161-.175,1.438,1.438,0,0,0-2.27-.251l-.172.18-.021.021a3.287,3.287,0,0,1-4.314.18.6.6,0,0,1-.055-.049,1.483,1.483,0,0,0-2.26.162l-.159.218a.6.6,0,0,1-.107.113,2.966,2.966,0,0,1-3.68.042.6.6,0,0,1-.134-.145,1.581,1.581,0,0,0-1.324-.712,1.56,1.56,0,0,0-1.194.546l-.223.257-.029.031a2.59,2.59,0,0,1-3.7-.043,2.146,2.146,0,0,0-3.1,0l-.387.4a2.537,2.537,0,0,1-3.584.08,2.155,2.155,0,0,0-3.156.194A2.432,2.432,0,0,1,1474.331,972.6Zm-.912-1.547.261.161a1.239,1.239,0,0,0,1.612-.269,3.355,3.355,0,0,1,4.913-.3,1.337,1.337,0,0,0,1.889-.042l.387-.4a3.346,3.346,0,0,1,4.836,0,1.389,1.389,0,0,0,1.974.037l.207-.239a2.783,2.783,0,0,1,4.362.2,1.75,1.75,0,0,0,1.01.317,1.772,1.772,0,0,0,1.054-.349l.109-.15a2.692,2.692,0,0,1,2.17-1.1,2.66,2.66,0,0,1,1.89.78,2.087,2.087,0,0,0,2.7-.125l.161-.168a2.638,2.638,0,0,1,4.09.345,2.033,2.033,0,0,0,2.283-.045,6.35,6.35,0,0,1,5.583-.874.362.362,0,0,0,.108.018.312.312,0,0,0,.276-.2.287.287,0,0,0-.065-.332l-15.1-15.714h-44.712Z" transform="translate(-70.731 -1.677)"/>
      <path id="Trazado_1036495_-_Contorno-2" data-name="Trazado 1036495 - Contorno" d="M1472.654,970.646a2.16,2.16,0,0,1-1.137-.324l-.323-.2a.325.325,0,0,1-.061-.049l-19.041-19.525a.323.323,0,0,1,.231-.548h46.391a.323.323,0,0,1,.233.1L1514.22,966a1.237,1.237,0,0,1-.876,2.093,1.28,1.28,0,0,1-.386-.061,5.427,5.427,0,0,0-4.771.747,2.955,2.955,0,0,1-3.446-.022.322.322,0,0,1-.086-.094,1.716,1.716,0,0,0-2.708-.3l-.172.18-.011.011a3.008,3.008,0,0,1-3.95.165.3.3,0,0,1-.029-.027,1.745,1.745,0,0,0-1.259-.531,1.778,1.778,0,0,0-.784.183,1.74,1.74,0,0,0-.64.541l-.159.218a.319.319,0,0,1-.058.061,2.688,2.688,0,0,1-3.336.038.32.32,0,0,1-.072-.078,1.835,1.835,0,0,0-.69-.626,1.878,1.878,0,0,0-.865-.211,1.845,1.845,0,0,0-1.4.641l-.222.257-.016.017a2.311,2.311,0,0,1-3.308-.038,2.421,2.421,0,0,0-3.5,0l-.387.4a2.26,2.26,0,0,1-3.192.071,2.432,2.432,0,0,0-3.562.219A2.156,2.156,0,0,1,1472.654,970.646Zm-1.087-1.052.29.179a1.517,1.517,0,0,0,1.973-.329,3.078,3.078,0,0,1,4.507-.277,1.615,1.615,0,0,0,2.28-.051l.387-.4a3.066,3.066,0,0,1,4.435,0,1.667,1.667,0,0,0,2.377.035l.215-.247a2.491,2.491,0,0,1,1.891-.864,2.5,2.5,0,0,1,2.062,1.08,2.025,2.025,0,0,0,1.21.4,2.051,2.051,0,0,0,1.254-.43l.133-.182a2.378,2.378,0,0,1,.875-.74,2.427,2.427,0,0,1,1.07-.249,2.384,2.384,0,0,1,1.706.711,2.365,2.365,0,0,0,3.083-.136l.166-.174a2.337,2.337,0,0,1,1.7-.728,2.38,2.38,0,0,1,1.137.289,2.355,2.355,0,0,1,.849.792,2.31,2.31,0,0,0,2.644-.018,6.072,6.072,0,0,1,5.339-.835.638.638,0,0,0,.191.031.586.586,0,0,0,.531-.368.563.563,0,0,0-.121-.632l-15.179-15.8h-45.488Z" transform="translate(-69.053 0)"/>
      <path id="Trazado_1036495_-_Contorno_-_Contorno" data-name="Trazado 1036495 - Contorno - Contorno" d="M1472.654,971.246a2.759,2.759,0,0,1-1.453-.414l-.323-.2a.931.931,0,0,1-.175-.14l-19.041-19.525a.923.923,0,0,1,.661-1.567h46.391a.928.928,0,0,1,.665.283l15.274,15.9a1.837,1.837,0,0,1-1.309,3.109,1.879,1.879,0,0,1-.567-.089,4.827,4.827,0,0,0-4.244.664,3.555,3.555,0,0,1-4.146-.026.917.917,0,0,1-.247-.269,1.116,1.116,0,0,0-1.761-.195l-.172.18-.031.031a3.608,3.608,0,0,1-4.739.2.9.9,0,0,1-.085-.078,1.149,1.149,0,0,0-.828-.349,1.175,1.175,0,0,0-.518.12,1.145,1.145,0,0,0-.421.357l-.159.218a.916.916,0,0,1-.166.174,3.288,3.288,0,0,1-4.079.045.916.916,0,0,1-.207-.223,1.241,1.241,0,0,0-.466-.423,1.276,1.276,0,0,0-.588-.143,1.246,1.246,0,0,0-.951.435l-.222.256c-.015.018-.03.033-.045.048a2.911,2.911,0,0,1-4.166-.049,1.821,1.821,0,0,0-2.635,0l-.387.4a2.86,2.86,0,0,1-4.039.09,1.832,1.832,0,0,0-2.684.165A2.753,2.753,0,0,1,1472.654,971.246Zm-.709-2.123.227.141a.917.917,0,0,0,1.192-.2,3.678,3.678,0,0,1,5.386-.331,1.014,1.014,0,0,0,1.433-.032l.387-.4a3.666,3.666,0,0,1,5.3.005,1.067,1.067,0,0,0,1.506.037l.2-.228a3.091,3.091,0,0,1,2.345-1.071,3.095,3.095,0,0,1,2.489,1.245,1.431,1.431,0,0,0,.783.231,1.452,1.452,0,0,0,.824-.258l.079-.108a2.972,2.972,0,0,1,1.094-.924,3.031,3.031,0,0,1,1.336-.312,2.981,2.981,0,0,1,2.1.859,1.765,1.765,0,0,0,2.265-.112l.155-.161a2.932,2.932,0,0,1,2.136-.913,2.953,2.953,0,0,1,2.414,1.243,1.71,1.71,0,0,0,1.869-.07,6.672,6.672,0,0,1,5.825-.931l-14.972-15.584h-43.809Z" transform="translate(-69.053 0)"/>
      <path id="Trazado_1036496_-_Contorno" data-name="Trazado 1036496 - Contorno" d="M1383.35,950.5a.323.323,0,0,1,.231.1l3.011,3.089a.323.323,0,0,1,.01.44l-12.37,13.854a.323.323,0,0,1-.241.108h-3.02a1.309,1.309,0,0,1-.993-2.16l13.127-15.315a.323.323,0,0,1,.235-.113Zm2.569,3.422-2.554-2.621-12.9,15.047a.663.663,0,0,0,.5,1.095h2.876Z" transform="translate(0 -0.419)"/>
      <path id="Trazado_1036496_-_Contorno_-_Contorno" data-name="Trazado 1036496 - Contorno - Contorno" d="M1383.35,949.9a.928.928,0,0,1,.66.278l3.011,3.09a.925.925,0,0,1,.027,1.259l-12.37,13.854a.924.924,0,0,1-.688.308h-3.02a1.908,1.908,0,0,1-1.449-3.151l13.127-15.316a.925.925,0,0,1,.671-.322Zm1.749,4.039-1.705-1.75-12.47,14.549a.063.063,0,0,0,.048.1h2.607Z" transform="translate(0 -0.419)"/>
      <path id="Trazado_1036497_-_Contorno" data-name="Trazado 1036497 - Contorno" d="M1418.963,1041.889h-26.14a.323.323,0,0,1-.225-.554l2.824-2.743a.323.323,0,0,1,.225-.091h20.815a.323.323,0,0,1,.239.105l2.5,2.743a.323.323,0,0,1-.239.54Zm-25.345-.645h24.614l-1.913-2.1h-20.542Z" transform="translate(-19.154 -74.22)"/>
      <path id="Trazado_1036497_-_Contorno_-_Contorno" data-name="Trazado 1036497 - Contorno - Contorno" d="M1418.963,1042.489h-26.14a.923.923,0,0,1-.643-1.584l2.824-2.743a.919.919,0,0,1,.643-.261h20.815a.925.925,0,0,1,.682.3l2.5,2.743a.923.923,0,0,1-.682,1.544Zm-23.866-1.845h21.776l-.818-.9h-20.034Z" transform="translate(-19.154 -74.22)"/>
      <path id="Trazado_1036498_-_Contorno" data-name="Trazado 1036498 - Contorno" d="M1462.679,980.779h-4.357a.323.323,0,0,1-.323-.323v-8.713a.322.322,0,0,1,.08-.213l2.123-2.42a.323.323,0,0,1,.48-.006l2.234,2.42a.323.323,0,0,1,.086.219v8.713A.323.323,0,0,1,1462.679,980.779Zm-4.034-.645h3.711v-8.265l-1.9-2.064-1.806,2.059Z" transform="translate(-74.085 -15.934)"/>
      <path id="Trazado_1036498_-_Contorno_-_Contorno" data-name="Trazado 1036498 - Contorno - Contorno" d="M1462.679,981.379h-4.357a.924.924,0,0,1-.923-.923v-8.713a.922.922,0,0,1,.23-.609l2.123-2.42a.922.922,0,0,1,.682-.314h.011a.926.926,0,0,1,.678.3l2.234,2.421a.92.92,0,0,1,.245.626v8.713A.924.924,0,0,1,1462.679,981.379Zm-3.434-1.845h2.511V972.1l-1.294-1.4-1.218,1.388Z" transform="translate(-74.085 -15.934)"/>
      <path id="Línea_751" data-name="Línea 751" d="M15.362,17.218a.241.241,0,0,1-.179-.079L-1.437-1.095a.242.242,0,0,1,.016-.342.242.242,0,0,1,.342.016l16.62,18.234a.242.242,0,0,1-.179.405Z" transform="translate(1392.192 951.661)"/>
      <path id="Línea_751_-_Contorno" data-name="Línea 751 - Contorno" d="M15.362,17.818a.844.844,0,0,1-.622-.275L-1.88-.691A.837.837,0,0,1-2.1-1.3a.837.837,0,0,1,.274-.583.84.84,0,0,1,.567-.22.844.844,0,0,1,.622.275l16.62,18.234a.842.842,0,0,1-.622,1.409Z" transform="translate(1392.192 951.661)"/>
      <path id="Línea_752" data-name="Línea 752" d="M14.878,16.734a.241.241,0,0,1-.179-.079L-1.437-1.1a.242.242,0,0,1,.016-.342.242.242,0,0,1,.342.016l16.136,17.75a.242.242,0,0,1-.179.4Z" transform="translate(1398.808 951.661)"/>
      <path id="Línea_752_-_Contorno" data-name="Línea 752 - Contorno" d="M14.878,17.334a.844.844,0,0,1-.623-.276L-1.881-.692a.843.843,0,0,1,.057-1.189A.84.84,0,0,1-1.258-2.1a.844.844,0,0,1,.623.276L15.5,15.925a.842.842,0,0,1-.623,1.408Z" transform="translate(1398.808 951.661)"/>
      <path id="Línea_753" data-name="Línea 753" d="M15.685,16.572a.241.241,0,0,1-.174-.074L-1.432-1.09a.242.242,0,0,1,.006-.342.242.242,0,0,1,.342.006L15.859,16.162a.242.242,0,0,1-.174.41Z" transform="translate(1404.94 951.661)"/>
      <path id="Línea_753_-_Contorno" data-name="Línea 753 - Contorno" d="M15.685,17.172a.846.846,0,0,1-.606-.258L-1.864-.674a.843.843,0,0,1,.022-1.191A.838.838,0,0,1-1.258-2.1a.846.846,0,0,1,.606.258L16.291,15.746a.842.842,0,0,1-.606,1.426Z" transform="translate(1404.94 951.661)"/>
      <path id="Línea_754" data-name="Línea 754" d="M15.524,16.411a.241.241,0,0,1-.174-.074L-1.432-1.09a.242.242,0,0,1,.006-.342.242.242,0,0,1,.342.006L15.7,16a.242.242,0,0,1-.174.41Z" transform="translate(1411.555 951.661)"/>
      <path id="Línea_754_-_Contorno" data-name="Línea 754 - Contorno" d="M15.524,17.011a.846.846,0,0,1-.607-.258L-1.864-.674a.836.836,0,0,1-.235-.6.836.836,0,0,1,.258-.591A.838.838,0,0,1-1.258-2.1a.846.846,0,0,1,.607.258L16.13,15.585a.842.842,0,0,1-.607,1.426Z" transform="translate(1411.555 951.661)"/>
      <path id="Línea_755" data-name="Línea 755" d="M15.846,16.088a.241.241,0,0,1-.171-.071l-17.1-17.1a.242.242,0,0,1,0-.342.242.242,0,0,1,.342,0l17.1,17.1a.242.242,0,0,1-.171.413Z" transform="translate(1418.171 951.661)"/>
      <path id="Línea_755_-_Contorno" data-name="Línea 755 - Contorno" d="M15.846,16.688a.837.837,0,0,1-.6-.247l-17.1-17.1a.843.843,0,0,1,0-1.191.836.836,0,0,1,.6-.247.837.837,0,0,1,.6.247l17.1,17.1a.842.842,0,0,1-.6,1.437Z" transform="translate(1418.171 951.661)"/>
      <path id="Línea_756" data-name="Línea 756" d="M16.814,16.088a.241.241,0,0,1-.166-.066L-1.424-1.082a.242.242,0,0,1-.009-.342.242.242,0,0,1,.342-.009l18.072,17.1a.242.242,0,0,1-.166.418Z" transform="translate(1424.303 951.661)"/>
      <path id="Línea_756_-_Contorno" data-name="Línea 756 - Contorno" d="M16.814,16.688a.839.839,0,0,1-.579-.23L-1.837-.646a.843.843,0,0,1-.033-1.19A.846.846,0,0,1-1.258-2.1a.839.839,0,0,1,.579.23l18.072,17.1a.842.842,0,0,1,.033,1.19A.846.846,0,0,1,16.814,16.688Z" transform="translate(1424.303 951.661)"/>
    </g>
  </g>
</svg>
