<svg xmlns="http://www.w3.org/2000/svg" width="80" height="80" viewBox="0 0 80 80">
  <g id="Grupo_1202297" data-name="Grupo 1202297" transform="translate(-784.835 -6818)">
    <g id="Grupo_1202303" data-name="Grupo 1202303">
      <rect id="Rectángulo_409950" data-name="Rectángulo 409950" width="80" height="80" transform="translate(784.835 6818)" fill="none"/>
      <g id="Grupo_1202302" data-name="Grupo 1202302" transform="translate(-1874.604 5470.273)">
        <path id="Elipse_12388" data-name="Elipse 12388" d="M23.1-.9a63.773,63.773,0,0,1,16.48,1.92A18.829,18.829,0,0,1,44.8,3.2c1.528,1.012,2.3,2.168,2.3,3.435s-.775,2.423-2.3,3.435a18.829,18.829,0,0,1-5.221,2.184,63.773,63.773,0,0,1-16.48,1.92,63.773,63.773,0,0,1-16.48-1.92A18.829,18.829,0,0,1,1.4,10.073C-.125,9.061-.9,7.905-.9,6.638S-.125,4.215,1.4,3.2A18.829,18.829,0,0,1,6.623,1.02,63.773,63.773,0,0,1,23.1-.9Zm0,12.822a61.5,61.5,0,0,0,15.871-1.836c4.06-1.138,5.877-2.551,5.877-3.448s-1.817-2.31-5.877-3.448A61.5,61.5,0,0,0,23.1,1.355,61.5,61.5,0,0,0,7.232,3.191C3.172,4.328,1.355,5.742,1.355,6.638s1.817,2.31,5.877,3.448A61.5,61.5,0,0,0,23.1,11.922Z" transform="translate(2676.5 1399.333)"/>
        <path id="Elipse_12389" data-name="Elipse 12389" d="M14.215-.9A49.722,49.722,0,0,1,24.346.022a13.737,13.737,0,0,1,3.275,1.073c1.134.586,1.709,1.324,1.709,2.192s-.575,1.606-1.709,2.192a13.737,13.737,0,0,1-3.275,1.073,49.722,49.722,0,0,1-10.132.922A49.722,49.722,0,0,1,4.083,6.552,13.737,13.737,0,0,1,.809,5.479C-.325,4.893-.9,4.155-.9,3.287S-.325,1.681.809,1.095A13.737,13.737,0,0,1,4.083.022,49.722,49.722,0,0,1,14.215-.9Zm12.7,4.187a10.762,10.762,0,0,0-3.723-1.2,50.078,50.078,0,0,0-8.975-.732,50.078,50.078,0,0,0-8.975.732,10.762,10.762,0,0,0-3.723,1.2,10.762,10.762,0,0,0,3.723,1.2,50.078,50.078,0,0,0,8.975.732,50.078,50.078,0,0,0,8.975-.732A10.762,10.762,0,0,0,26.913,3.287Z" transform="translate(2685.825 1366.404)"/>
        <path id="Trazado_1036524" data-name="Trazado 1036524" d="M2699.6,1509.6a63.771,63.771,0,0,1,16.479,1.92,18.832,18.832,0,0,1,5.221,2.184c1.528,1.012,2.3,2.168,2.3,3.435v10.44h-.511c-1.033,1.673-3.625,3.054-7.726,4.112a72.754,72.754,0,0,1-31.531,0c-4.1-1.058-6.693-2.439-7.726-4.112h-.511v-10.44c0-1.267.774-2.423,2.3-3.435a18.832,18.832,0,0,1,5.221-2.184A63.775,63.775,0,0,1,2699.6,1509.6Zm21.748,16.377v-8.839c0-.9-1.817-2.31-5.877-3.448a69.524,69.524,0,0,0-31.742,0c-4.06,1.138-5.877,2.552-5.877,3.448v8.838l.043.137c.1.312.874,1.942,6.5,3.395a70.564,70.564,0,0,0,30.4,0c5.629-1.453,6.4-3.083,6.5-3.395Z" transform="translate(0 -111.167)"/>
        <path id="Trazado_1036525" data-name="Trazado 1036525" d="M2714.92,1440.644a60.86,60.86,0,0,1-12.4-1.127,16.635,16.635,0,0,1-3.961-1.3c-1.3-.673-1.96-1.5-1.96-2.465,0-.027,0-.053,0-.079a1.163,1.163,0,0,1,0-.17l3.205-34.969a1.127,1.127,0,0,1,.121-.415c.447-1.173,2.079-2.021,5.09-2.651a56.587,56.587,0,0,1,19.8,0c3.016.631,4.648,1.48,5.093,2.655a1.126,1.126,0,0,1,.119.41l3.206,34.969a1.163,1.163,0,0,1,0,.17c0,.025,0,.052,0,.079,0,.963-.66,1.792-1.96,2.465a16.633,16.633,0,0,1-3.962,1.3A60.854,60.854,0,0,1,2714.92,1440.644Zm-16.054-4.933c.223.3,1.393,1.068,4.753,1.731a67.871,67.871,0,0,0,22.6,0c3.358-.663,4.529-1.433,4.752-1.731a1.12,1.12,0,0,1,0-.194l-3.169-34.574c-.189-.224-1.187-.837-3.909-1.356a55.354,55.354,0,0,0-17.948,0c-2.726.52-3.722,1.134-3.91,1.357l-3.169,34.575A1.145,1.145,0,0,1,2698.867,1435.711Z" transform="translate(-14.88 -31.096)"/>
        <path id="Trazado_1036526" data-name="Trazado 1036526" d="M2725.94,1367.719l-2.164-.633,2.683-9.177a7.117,7.117,0,0,1,2.768-3.914,7.352,7.352,0,0,1,4.161-1.281h.056a7.355,7.355,0,0,1,4.2,1.345,7.121,7.121,0,0,1,2.708,3.955l2.324,8.425-2.174.6-2.324-8.425a4.887,4.887,0,0,0-1.848-2.722,5.08,5.08,0,0,0-2.9-.923h-.04a5.077,5.077,0,0,0-2.875.879,4.889,4.889,0,0,0-1.89,2.694Z" transform="translate(-34.102 0)"/>
        <path id="Línea_751" data-name="Línea 751" d="M1.355,7.868H-.9V0H1.355Z" transform="translate(2699.229 1361.677)"/>
      </g>
    </g>
  </g>
</svg>
