<svg xmlns="http://www.w3.org/2000/svg" width="63" height="63" viewBox="0 0 63 63">
  <g id="Grupo_1202335" data-name="Grupo 1202335" transform="translate(-1040.835 -9619)">
    <circle id="Elipse_12379" data-name="Elipse 12379" cx="31.5" cy="31.5" r="31.5" transform="translate(1040.835 9619)" fill="#26c790"/>
    <g id="Grupo_1202334" data-name="Grupo 1202334" transform="translate(1054.585 9626)">
      <path id="Trazado_1036539" data-name="Trazado 1036539" d="M365.267,298v-1.335a.71.71,0,0,0-1.419,0V298a.71.71,0,0,0,1.419,0Zm0,0" transform="translate(-338.847 -273.554)"/>
      <path id="Trazado_1036540" data-name="Trazado 1036540" d="M350.375,345.53a.71.71,0,0,0,.71.71h2.04a.71.71,0,1,0,0-1.419h-2.04A.709.709,0,0,0,350.375,345.53Zm0,0" transform="translate(-326.394 -318.718)"/>
      <path id="Trazado_1036541" data-name="Trazado 1036541" d="M161.779,298v-1.335a.71.71,0,0,0-1.419,0V298a.71.71,0,0,0,1.419,0Zm0,0" transform="translate(-150.762 -273.554)"/>
      <path id="Trazado_1036542" data-name="Trazado 1036542" d="M146.891,345.53a.71.71,0,0,0,.71.71h2.04a.71.71,0,1,0,0-1.419H147.6A.709.709,0,0,0,146.891,345.53Zm0,0" transform="translate(-138.313 -318.718)"/>
      <path id="Trazado_1036543" data-name="Trazado 1036543" d="M58.773,232.687h.475c4.115,0,9.19-.023,13.208-1.851a11.44,11.44,0,0,0,5.2-4.526,16.6,16.6,0,0,0,2.036-8.637,30.65,30.65,0,0,0-5.419-18.053.71.71,0,1,0-1.145.839,29.227,29.227,0,0,1,5.144,17.214c0,6.029-2.093,9.912-6.4,11.872-3.789,1.724-8.565,1.722-12.778,1.724h-.317c-5.433,0-12.194,0-16.032-3.973a.71.71,0,0,0-1.021.986C45.977,232.687,53.069,232.687,58.773,232.687Zm0,0" transform="translate(-40.919 -184.241)"/>
      <path id="Trazado_1036544" data-name="Trazado 1036544" d="M16.978,8.669a16.726,16.726,0,0,1,6.736.968,17.813,17.813,0,0,1,6.72,4.466.71.71,0,0,0,1.026-.981,19.4,19.4,0,0,0-5.981-4.3,3.873,3.873,0,0,0-3.877-6.4,3.88,3.88,0,0,0-7.188,0,3.872,3.872,0,0,0-3.869,6.411,19.98,19.98,0,0,0-7.474,6.016C-.683,19.668-2.75,26.269-2.75,33.432A17.126,17.126,0,0,0-1,41.553a.71.71,0,0,0,.626.375.709.709,0,0,0,.335-.084.71.71,0,0,0,.29-.961,15.747,15.747,0,0,1-1.577-7.451c0-6.848,1.961-13.14,5.522-17.716A17.457,17.457,0,0,1,16.978,8.669Zm-4.942-.444A2.456,2.456,0,0,1,14.534,4a.718.718,0,0,0,1.049-.508,2.456,2.456,0,0,1,4.851,0A.716.716,0,0,0,21.483,4a2.456,2.456,0,0,1,2.5,4.223,17.852,17.852,0,0,0-4.439-.939h-.011a18.186,18.186,0,0,0-7.5.944Zm0,0"/>
      <path id="Trazado_1036545" data-name="Trazado 1036545" d="M193.392,298.708a3.631,3.631,0,0,0,3.52,4.314,3.577,3.577,0,0,0,2.33-.858,3.575,3.575,0,0,0,2.329.858,3.661,3.661,0,0,0,3.52-4.314,7.281,7.281,0,0,0-2.458-3.7,4.361,4.361,0,0,0,.98-2.589q0-.09,0-.181a4.375,4.375,0,1,0-7.765,2.77A7.284,7.284,0,0,0,193.392,298.708Zm10.306.273a2.228,2.228,0,0,1-2.127,2.622,2.162,2.162,0,0,1-1.491-.593,1.237,1.237,0,0,0-1.678,0,2.161,2.161,0,0,1-1.491.593,2.21,2.21,0,0,1-2.127-2.623,6.133,6.133,0,0,1,2.143-3.029,4.359,4.359,0,0,0,1.946.641,4.413,4.413,0,0,0,2.68-.641A6.133,6.133,0,0,1,203.7,298.981Zm-7-5.61a14.6,14.6,0,0,0,2.538.219h.018a14.487,14.487,0,0,0,2.736-.255,2.936,2.936,0,0,1-.844,1.164,3,3,0,0,1-1.9.69,3.114,3.114,0,0,1-1.9-.69,2.936,2.936,0,0,1-.844-1.164Zm2.547-4.092a2.96,2.96,0,0,1,2.929,2.565,13.248,13.248,0,0,1-5.859,0A2.96,2.96,0,0,1,199.242,289.278Zm0,0" transform="translate(-181.233 -266.069)"/>
    </g>
  </g>
</svg>
