<svg xmlns="http://www.w3.org/2000/svg" width="63" height="63" viewBox="0 0 63 63">
  <g id="Grupo_1202337" data-name="Grupo 1202337" transform="translate(-620.835 -9756)">
    <circle id="Elipse_12377" data-name="Elipse 12377" cx="31.5" cy="31.5" r="31.5" transform="translate(620.835 9756)" fill="#26c790"/>
    <g id="Grupo_1202336" data-name="Grupo 1202336" transform="translate(632.835 9768)">
      <path id="Trazado_1036546" data-name="Trazado 1036546" d="M42.4,28.188a2.6,2.6,0,0,0,1.624-.748,1.452,1.452,0,0,1,1.019-.422h.946V25.824h-.946a2.615,2.615,0,0,0-1.863.772,1.447,1.447,0,0,1-.9.411,3.97,3.97,0,0,0-1.061-1.833V23.851A1.768,1.768,0,0,1,42.328,22.2,2.956,2.956,0,0,0,44.2,19.443a5.382,5.382,0,0,0-.278-1.709l-.35-1.05-1.132.377.35,1.05A4.207,4.207,0,0,1,43,19.443a1.768,1.768,0,0,1-1.117,1.649,2.956,2.956,0,0,0-1.867,2.758v.516a3.954,3.954,0,0,0-3.053-.052l-.792-.792a1.147,1.147,0,0,1-.333-.8,2.318,2.318,0,0,0-1.288-2.085l-.235-.118-.534,1.068.235.118a1.131,1.131,0,0,1,.629,1.017,2.316,2.316,0,0,0,.683,1.648l.575.575c-.1.081-.191.165-.282.255l-2.132,2.132a3.453,3.453,0,0,1-.635-2v-.1H31.663v.1a4.632,4.632,0,0,0,.976,2.852l-2.6,2.6-.7-1.393a3.2,3.2,0,0,0-2.875-1.777h-.075a2.019,2.019,0,0,1-1.917-1.382l-1.132.378a3.209,3.209,0,0,0,3.049,2.2h.075a2.012,2.012,0,0,1,1.808,1.118l.874,1.749-1.857,1.857L24.619,33l-.235,1.17,1.979.4a3.957,3.957,0,0,0-.644,2.64,2.652,2.652,0,0,0-2.132,2.085,1.447,1.447,0,0,1-1.138,1.138l-1.645.329.235,1.17,1.645-.329a2.638,2.638,0,0,0,2.074-2.074,1.451,1.451,0,0,1,1.276-1.153,3.985,3.985,0,0,0,2.6,2.234,1.41,1.41,0,0,1-.587.837,2.6,2.6,0,0,0-1.161,2.17v.714h1.194V43.61a1.411,1.411,0,0,1,.63-1.176,2.6,2.6,0,0,0,1.113-1.7,3.941,3.941,0,0,0,2.652-1.156l.678-.678.452.452a1.5,1.5,0,0,1,.443,1.07,2.71,2.71,0,0,0,2.707,2.707h.874V41.937h-.874a1.515,1.515,0,0,1-1.513-1.513,2.688,2.688,0,0,0-.793-1.914L34,38.058l2.082-2.082A3.45,3.45,0,0,1,38.4,36.988l.844-.844a4.635,4.635,0,0,0-2.121-1.213l2.492-2.492,1.515.3a1.8,1.8,0,0,1,1.267.968,2.991,2.991,0,0,0,2.69,1.662h.9V34.179h-.9a1.8,1.8,0,0,1-1.623-1,2.987,2.987,0,0,0-2.1-1.6l-.735-.147.61-.61A3.939,3.939,0,0,0,42.4,28.188Zm-2,1.784-8.764,8.764a2.779,2.779,0,0,1-3.93-3.93l8.764-8.764a2.779,2.779,0,0,1,3.93,3.93Z" transform="translate(-7.985 -6.324)"/>
      <path id="Trazado_1036547" data-name="Trazado 1036547" d="M52.79,51a1.79,1.79,0,1,0,1.79,1.79A1.793,1.793,0,0,0,52.79,51Zm0,2.387a.6.6,0,1,1,.6-.6A.6.6,0,0,1,52.79,53.387Z" transform="translate(-20.161 -20.161)"/>
      <path id="Trazado_1036548" data-name="Trazado 1036548" d="M43,42h1.194v1.194H43Z" transform="translate(-16.935 -16.532)"/>
      <path id="Trazado_1036549" data-name="Trazado 1036549" d="M13,45h1.194v1.194H13Z" transform="translate(-4.839 -17.742)"/>
      <path id="Trazado_1036550" data-name="Trazado 1036550" d="M13.615,46.029l.732.732.844-.844-.732-.732a.975.975,0,0,1-.287-.693,2.167,2.167,0,0,0-1.354-2.006,2.945,2.945,0,0,0,.161-.921,2.987,2.987,0,0,0-.061-.6A2.737,2.737,0,0,0,15.3,39.444l-1.068-.534a1.553,1.553,0,0,1-1.4.864h-.471a2.979,2.979,0,0,0-1.757-1.128,1.445,1.445,0,0,1,.4-.837,2.613,2.613,0,0,0,.772-1.863V35H10.591v.946a1.452,1.452,0,0,1-.422,1.019,2.609,2.609,0,0,0-.748,1.615H8.2V36.194H7.01v2.387h-.6A2.964,2.964,0,0,0,4.188,39.6L4.1,39.568a.98.98,0,0,1-.671-.93A2.16,2.16,0,0,0,2.793,37.1l-.732-.732-.844.844.732.732a.975.975,0,0,1,.287.693A2.167,2.167,0,0,0,3.59,40.644a2.945,2.945,0,0,0-.161.921,2.987,2.987,0,0,0,.061.6,2.737,2.737,0,0,0-2.385,1.518l1.068.534a1.553,1.553,0,0,1,1.4-.864h.471A2.979,2.979,0,0,0,5.8,44.483a1.445,1.445,0,0,1-.4.837,2.613,2.613,0,0,0-.772,1.863v.946H5.817v-.946a1.452,1.452,0,0,1,.422-1.019,2.609,2.609,0,0,0,.748-1.615H8.2v2.387H9.4V44.548h.6a2.964,2.964,0,0,0,2.225-1.016l.088.029a.98.98,0,0,1,.671.93,2.16,2.16,0,0,0,.637,1.537ZM9.994,43.355H6.414a1.786,1.786,0,0,1-.6-3.471v1.084H7.01V39.774H9.994a1.79,1.79,0,0,1,0,3.581Z" transform="translate(-0.043 -13.71)"/>
      <path id="Trazado_1036551" data-name="Trazado 1036551" d="M41,11h1.194v1.194H41Z" transform="translate(-16.129 -4.032)"/>
      <path id="Trazado_1036552" data-name="Trazado 1036552" d="M33.809,11.013a1.445,1.445,0,0,1,.837-.4,2.981,2.981,0,0,0,1.129,1.757v.471a1.554,1.554,0,0,1-.864,1.4l.534,1.068a2.738,2.738,0,0,0,1.518-2.385,3.02,3.02,0,0,0,.6.061,2.945,2.945,0,0,0,.921-.161,2.167,2.167,0,0,0,2.006,1.354.975.975,0,0,1,.693.287l.732.732.844-.844-.732-.732a2.16,2.16,0,0,0-1.537-.637.98.98,0,0,1-.93-.67l-.029-.088a2.963,2.963,0,0,0,1.016-2.225V9.4h2.387V8.2H40.548V6.987a2.6,2.6,0,0,0,1.615-.748,1.452,1.452,0,0,1,1.019-.422h.946V4.623h-.946A2.615,2.615,0,0,0,41.32,5.4a1.445,1.445,0,0,1-.837.4,2.979,2.979,0,0,0-1.128-1.756V3.571a1.554,1.554,0,0,1,.864-1.4l-.534-1.068a2.738,2.738,0,0,0-1.518,2.385,2.976,2.976,0,0,0-.6-.061,2.945,2.945,0,0,0-.921.161,2.167,2.167,0,0,0-2.006-1.354.975.975,0,0,1-.693-.287l-.732-.732-.844.844.732.732a2.16,2.16,0,0,0,1.537.637.98.98,0,0,1,.93.671l.029.088a2.964,2.964,0,0,0-1.016,2.225v.6H32.194V8.2h2.387V9.421a2.6,2.6,0,0,0-1.615.748,1.452,1.452,0,0,1-1.019.422H31v1.194h.946a2.615,2.615,0,0,0,1.863-.772Zm5.546-4.6V9.994a1.79,1.79,0,1,1-3.581,0V6.414a1.79,1.79,0,1,1,3.581,0Z" transform="translate(-12.097 -0.043)"/>
      <path id="Trazado_1036553" data-name="Trazado 1036553" d="M9,9h1.194v1.194H9Z" transform="translate(-3.226 -3.226)"/>
      <path id="Trazado_1036554" data-name="Trazado 1036554" d="M13,13h1.194v1.194H13Z" transform="translate(-4.839 -4.839)"/>
      <path id="Trazado_1036555" data-name="Trazado 1036555" d="M2.137,8.583a3.465,3.465,0,0,1,1.852-.951,2.716,2.716,0,0,0,.309.376l.643.643A3.268,3.268,0,0,0,3.821,10.4a2.076,2.076,0,0,1-1.087,1.355l-.093.047.534,1.068.093-.047a3.268,3.268,0,0,0,1.711-2.133A2.068,2.068,0,0,1,5.8,9.509l1.439,1.439c.017.017.038.029.056.046a6.488,6.488,0,0,0-.806,3.134H7.683A5.286,5.286,0,0,1,8.336,11.6a2.682,2.682,0,0,0,.817.138,2.7,2.7,0,0,0,.32-.032v.185a1.639,1.639,0,0,0,1.638,1.638.443.443,0,0,1,.421.3,3.318,3.318,0,0,0,1.676,1.932l.176.088.535-1.067-.177-.088a2.136,2.136,0,0,1-1.078-1.242,1.635,1.635,0,0,0-1.553-1.12.444.444,0,0,1-.444-.444v-.616a2.7,2.7,0,0,0,.757-3.714h.787a1.452,1.452,0,0,1,1.019.422,2.615,2.615,0,0,0,1.863.772h.35V7.565h-.35a1.452,1.452,0,0,1-1.019-.422,2.615,2.615,0,0,0-1.863-.772H10.317L8.46,4.514A4.02,4.02,0,0,0,9.913,2.3l.139-.556L8.894,1.452l-.139.556A2.819,2.819,0,0,1,7.487,3.72a2.638,2.638,0,0,0-2.715.091L4.3,3.336a.666.666,0,0,1-.2-.473A1.865,1.865,0,0,0,2.239,1H1.715V2.194h.525a.67.67,0,0,1,.669.669A1.851,1.851,0,0,0,3.454,4.18l.474.474a2.685,2.685,0,0,0-.423,1.44,2.717,2.717,0,0,0,.039.4A4.676,4.676,0,0,0,1.293,7.739Zm4.075-4a1.5,1.5,0,0,1,1.07.443l2.941,2.941A1.513,1.513,0,0,1,8.083,10.1L5.142,7.163A1.513,1.513,0,0,1,6.212,4.581Z" transform="translate(-0.118)"/>
      <path id="Trazado_1036556" data-name="Trazado 1036556" d="M3.387,29.774A2.387,2.387,0,1,0,1,27.387,2.389,2.389,0,0,0,3.387,29.774Zm0-3.581a1.194,1.194,0,1,1-1.194,1.194A1.195,1.195,0,0,1,3.387,26.194Z" transform="translate(0 -9.677)"/>
      <path id="Trazado_1036557" data-name="Trazado 1036557" d="M10.79,57a1.79,1.79,0,1,0,1.79,1.79A1.793,1.793,0,0,0,10.79,57Zm0,2.387a.6.6,0,1,1,.6-.6A.6.6,0,0,1,10.79,59.387Z" transform="translate(-3.226 -22.581)"/>
      <path id="Trazado_1036558" data-name="Trazado 1036558" d="M26.79,24.581A1.79,1.79,0,1,0,25,22.79,1.793,1.793,0,0,0,26.79,24.581Zm0-2.387a.6.6,0,1,1-.6.6A.6.6,0,0,1,26.79,22.194Z" transform="translate(-9.677 -8.065)"/>
      <path id="Trazado_1036559" data-name="Trazado 1036559" d="M34,50h1.194v1.194H34Z" transform="translate(-13.306 -19.758)"/>
      <path id="Trazado_1036560" data-name="Trazado 1036560" d="M36,46h1.194v1.194H36Z" transform="translate(-14.113 -18.145)"/>
      <path id="Trazado_1036561" data-name="Trazado 1036561" d="M51,36h1.194v1.194H51Z" transform="translate(-20.161 -14.113)"/>
      <path id="Trazado_1036562" data-name="Trazado 1036562" d="M47,34h1.194v1.194H47Z" transform="translate(-18.548 -13.306)"/>
      <path id="Trazado_1036563" data-name="Trazado 1036563" d="M56.79,10.581A1.79,1.79,0,1,0,55,8.79,1.793,1.793,0,0,0,56.79,10.581Zm0-2.387a.6.6,0,1,1-.6.6A.6.6,0,0,1,56.79,8.194Z" transform="translate(-21.774 -2.419)"/>
    </g>
  </g>
</svg>
