<svg xmlns="http://www.w3.org/2000/svg" width="63" height="63" viewBox="0 0 63 63">
  <g id="Grupo_1202338" data-name="Grupo 1202338" transform="translate(-1040.835 -9756)">
    <circle id="Elipse_12380" data-name="Elipse 12380" cx="31.5" cy="31.5" r="31.5" transform="translate(1040.835 9756)" fill="#26c790"/>
    <path id="Trazado_1036564" data-name="Trazado 1036564" d="M30.769,3C21.5,3,14.06,14.274,12.747,25l-2.132.623L9.379,20.566a.793.793,0,0,0-1.39-.307A25.409,25.409,0,0,0,5.84,23.389C.754,32.2,2.8,42.585,10.507,47.032a14.458,14.458,0,0,0,7.275,1.946,16.072,16.072,0,0,0,6.325-1.34A16.9,16.9,0,0,0,30.769,49C41,49,49.01,39.943,49.01,28.379,49.01,16.643,41.042,3,30.769,3ZM11.3,45.658c-7.048-4.069-8.8-13.3-4.086-21.476.311-.538.653-1.075,1.023-1.608L9.271,26.8a.793.793,0,0,0,.993.573l6.577-1.922,1.625,6.657a.793.793,0,0,0,.993.573l6.576-1.922,1.623,6.655a.793.793,0,0,0,.993.574l4.167-1.218c-.275.585-.568,1.147-.878,1.683C27.222,46.632,18.348,49.728,11.3,45.658Zm19.469,1.755a15.191,15.191,0,0,1-4.71-.761,20.184,20.184,0,0,0,7.256-7.4,25.315,25.315,0,0,0,1.635-3.421.793.793,0,0,0-.961-1.05L29,36.238,27.38,29.583a.793.793,0,0,0-.993-.574L19.81,30.931l-1.625-6.657a.793.793,0,0,0-.993-.573l-2.781.813c1.441-9.838,8.12-19.927,16.358-19.927C40,4.586,47.424,17.6,47.424,28.379,47.424,39.231,40.264,47.414,30.769,47.414Z" transform="translate(1046.785 9762)"/>
  </g>
</svg>
