<svg xmlns="http://www.w3.org/2000/svg" width="82" height="82" viewBox="0 0 82 82">
  <g id="Grupo_1202340" data-name="Grupo 1202340" transform="translate(-286.835 -10051)">
    <rect id="Rectángulo_409931" data-name="Rectángulo 409931" width="82" height="82" transform="translate(286.835 10051)" fill="none"/>
    <g id="Grupo_1202339" data-name="Grupo 1202339" transform="translate(293.835 10058)">
      <path id="Trazado_1036565" data-name="Trazado 1036565" d="M65.111,59.689H59.479V44h.1A2.109,2.109,0,0,0,61.69,41.9V39.688a2.109,2.109,0,0,0-2.106-2.106h-.1V6.423h.1A2.108,2.108,0,0,0,61.69,4.317V2.106A2.108,2.108,0,0,0,59.584,0H17.705a1,1,0,0,0,0,2H59.584a.1.1,0,0,1,.1.1V4.317a.1.1,0,0,1-.1.1H8.738a.1.1,0,0,1-.1-.1V2.106a.1.1,0,0,1,.1-.1h4.3a1,1,0,0,0,0-2h-4.3A2.109,2.109,0,0,0,6.632,2.106V4.317A2.109,2.109,0,0,0,8.738,6.423h.1V37.582h-.1a2.108,2.108,0,0,0-2.106,2.106V41.9A2.109,2.109,0,0,0,8.738,44h.1V59.689H3.211A3.215,3.215,0,0,0,0,62.9v3.316a2.109,2.109,0,0,0,2.106,2.106h64.11a2.109,2.109,0,0,0,2.106-2.106V62.9a3.215,3.215,0,0,0-3.212-3.212Zm-10.053-2.42h2.42v2.42h-2.42Zm2.42-2h-2.42V53.077a1,1,0,0,0-2,0v6.612H46.12L44.552,44.008a.01.01,0,0,1,0,0h8.5v4.4a1,1,0,0,0,2,0V44h2.42ZM15.266,59.689V44h8.5v0L22.2,59.689ZM43,48.635H25.319l.353-3.525H42.651ZM26.319,37.582V32.844a4.654,4.654,0,0,0,1.81-.83,2.7,2.7,0,0,1,3.22,0,4.709,4.709,0,0,0,5.622,0,2.7,2.7,0,0,1,3.22,0,4.655,4.655,0,0,0,1.81.83v4.738Zm4.974-8.947c0-2.115,1.528-4.526,2.868-4.526s2.868,2.411,2.868,4.526a2.607,2.607,0,0,1-.252,1.206,4.626,4.626,0,0,0-1.005.572,2.7,2.7,0,0,1-3.22,0,4.627,4.627,0,0,0-1.005-.572,2.6,2.6,0,0,1-.252-1.206ZM44,19.687H46.32a2.108,2.108,0,0,0,2.106-2.106v-.1h9.052v4.63H44Zm2.42-2.106a.1.1,0,0,1-.1.1H22a.1.1,0,0,1-.1-.1V15.37a.1.1,0,0,1,.1-.1H46.32a.1.1,0,0,1,.1.1v2.211ZM22,19.687h2.315v2.42H10.844v-4.63H19.9v.1A2.108,2.108,0,0,0,22,19.687Zm4.317,0H42V30.755a2.682,2.682,0,0,1-.609-.343,4.669,4.669,0,0,0-2.432-.916,5.415,5.415,0,0,0,.069-.863c0-3.019-2.127-6.528-4.87-6.528s-4.87,3.509-4.87,6.528a5.4,5.4,0,0,0,.069.863,4.668,4.668,0,0,0-2.432.916,2.693,2.693,0,0,1-.609.343V19.687ZM42.1,39.583l.352,3.522v0H25.872v0l.352-3.522ZM25.119,50.637H43.2l.353,3.525H24.766ZM44,24.109H57.478v2.42H44Zm13.473-8.634H48.426v-.1a2.108,2.108,0,0,0-2.106-2.106H22A2.108,2.108,0,0,0,19.9,15.37v.1H10.844v-4.63H57.478v4.63ZM10.844,24.109H24.318v2.42H10.844ZM24.566,56.163h19.19l.353,3.525h-19.9ZM59.689,39.688V41.9a.1.1,0,0,1-.1.1H44.352l-.242-2.42H59.584A.1.1,0,0,1,59.689,39.688ZM44,37.582V28.53H57.478v9.052ZM57.478,6.423v2.42H10.844V6.423ZM10.844,28.53H24.318v9.052H10.844ZM8.634,41.9V39.688a.1.1,0,0,1,.1-.1H24.212L23.971,42H8.738a.1.1,0,0,1-.1-.1ZM13.264,44V55.267h-2.42V44Zm-2.42,13.264h2.42v2.42h-2.42Zm55.476,8.947a.1.1,0,0,1-.1.1H2.106a.1.1,0,0,1-.1-.1V62.9a1.211,1.211,0,0,1,1.21-1.21h61.9a1.211,1.211,0,0,1,1.21,1.21Z"/>
    </g>
  </g>
</svg>
