<svg xmlns="http://www.w3.org/2000/svg" xmlns:xlink="http://www.w3.org/1999/xlink" width="290.257" height="230.087" viewBox="0 0 290.257 230.087">
  <defs>
    <filter id="Rect치ngulo_409874" x="0" y="0" width="290.257" height="230.087" filterUnits="userSpaceOnUse">
      <feOffset dy="3" input="SourceAlpha"/>
      <feGaussianBlur stdDeviation="3" result="blur"/>
      <feFlood flood-opacity="0.161"/>
      <feComposite operator="in" in2="blur"/>
      <feComposite in="SourceGraphic"/>
    </filter>
  </defs>
  <g id="Grupo_1202344" data-name="Grupo 1202344" transform="translate(9 6)">
    <g transform="matrix(1, 0, 0, 1, -9, -6)" filter="url(#Rect치ngulo_409874)">
      <rect id="Rect치ngulo_409874-2" data-name="Rect치ngulo 409874" width="272.257" height="212.087" rx="9" transform="translate(9 6)" fill="#ffa622"/>
    </g>
    <g id="Grupo_1202343" data-name="Grupo 1202343" transform="translate(30.193 30)">
      <path id="Trazado_1036566" data-name="Trazado 1036566" d="M.968,218.514,8.491,211.4l-.825-.869a3.092,3.092,0,0,1,4.485-4.257l.833.878,7.489-7.08-.847-.892a3.092,3.092,0,0,1,4.485-4.257l.855.9,7.489-7.08-.868-.915a3.092,3.092,0,0,1,4.485-4.257l.877.924,7.489-7.08-.89-.937a3.092,3.092,0,1,1,4.485-4.257l.9.946,6.557-6.2V120.2l-3.676,1.361a5.138,5.138,0,0,1-6.6-3.033l-2.842-7.672a5.137,5.137,0,0,1,3.033-6.6l22.782-8.438a3.092,3.092,0,0,1,2.147,5.8l-21.8,8.074,2.115,5.711,53.977-19.991-1.274-6.023L83.726,96.653a3.092,3.092,0,1,1-2.147-5.8l20.475-7.583-.542-2.564a3.092,3.092,0,0,1,1.792-3.475l9.481-4.122a3.088,3.088,0,0,1,2.465,0l9.481,4.122a3.092,3.092,0,0,1,1.777,3.544l-.615,2.616,56.327,20.861a5.138,5.138,0,0,1,3.034,6.6l-2.842,7.673a5.128,5.128,0,0,1-6.6,3.033l-3.677-1.362v4.747l35.573,13.176a5.137,5.137,0,0,1,3.034,6.6L207.9,152.4a5.128,5.128,0,0,1-6.6,3.033l-.526-.195v25.63h5.137a5.154,5.154,0,0,1,5.153,5.144v7.42a5.158,5.158,0,0,1-5.153,5.153H185.575V217.67h22.4a3.092,3.092,0,0,1,0,6.183H3.092a3.092,3.092,0,0,1-2.124-5.339Zm113.049-139.2L108.083,81.9,110.7,94.289h6.271L119.9,81.873Zm62.96,36.084,2.115-5.711L124.465,89.457l-1.406,5.974Zm25.487,33.869,2.115-5.711-32.446-12.017v6.495Zm-30.331-4.64V157a3.092,3.092,0,0,1-6.183,0V117.91l-47.082-17.437H108.753L61.672,117.91v62.957h9.855V161.738a3.092,3.092,0,0,1,6.183,0v19.129h26.795V133.241H77.71v14.068a3.092,3.092,0,0,1-6.183,0v-15.1a5.158,5.158,0,0,1,5.153-5.153h28.856a5.158,5.158,0,0,1,5.153,5.153v48.656H165.95v-9.026a3.092,3.092,0,0,1,6.183,0v9.026h22.455v-27.92Zm32.745,42.42H59.786l-5.819,5.35h67.853a3.092,3.092,0,1,1,0,6.183H92.169V217.67h74.855V198.584H136.247a3.092,3.092,0,0,1,0-6.183h68.631ZM79.8,198.584V217.67h6.183V198.584Zm-6.183,0H47.241L26.482,217.67H73.619Zm105.772,0h-6.183V217.67h6.183ZM17.345,217.669,55.488,182.6v-7.118L10.863,217.67h6.482Z" transform="translate(0 -72.854)"/>
      <path id="Trazado_1036567" data-name="Trazado 1036567" d="M165.828,241.98H138.5a5.158,5.158,0,0,1-5.153-5.153V209.5a5.158,5.158,0,0,1,5.153-5.153h27.33a5.158,5.158,0,0,1,5.153,5.153v27.33A5.159,5.159,0,0,1,165.828,241.98ZM164.8,226.253h-9.542V235.8H164.8ZM149.072,235.8v-9.543h-9.543V235.8Zm-9.543-15.727h9.543v-9.542h-9.543Zm15.727-9.542v9.542H164.8v-9.542Z" transform="translate(-14.886 -150.14)"/>
      <path id="Trazado_1036568" data-name="Trazado 1036568" d="M273.585,263.134a3.091,3.091,0,0,1,3.092,3.092v5.09a3.092,3.092,0,1,1-6.183,0v-5.09a3.091,3.091,0,0,1,3.092-3.092Z" transform="translate(-177.118 -184.695)"/>
    </g>
  </g>
</svg>
