<svg xmlns="http://www.w3.org/2000/svg" width="82" height="82" viewBox="0 0 82 82">
  <g id="Grupo_1202349" data-name="Grupo 1202349" transform="translate(-286.835 -10051)">
    <rect id="Rectángulo_409931" data-name="Rectángulo 409931" width="82" height="82" transform="translate(286.835 10051)" fill="none"/>
    <g id="Grupo_1202350" data-name="Grupo 1202350" transform="translate(292.835 10057)">
      <path id="Trazado_1036573" data-name="Trazado 1036573" d="M66.2,14.354,57.451,3.416A1.094,1.094,0,0,0,56.6,3H12.845a1.094,1.094,0,0,0-.853.416L3.241,14.354A1.116,1.116,0,0,0,3,15.032v4.375A1.1,1.1,0,0,0,4.094,20.5H7.375V51.129H5.188a1.1,1.1,0,0,0-1.094,1.094V56.6a1.1,1.1,0,0,0,1.094,1.094H7.375v7.657a1.1,1.1,0,0,0,1.094,1.094h4.375a1.1,1.1,0,0,0,1.094-1.094V62.067H55.5v3.282A1.1,1.1,0,0,0,56.6,66.442h4.375a1.1,1.1,0,0,0,1.094-1.094V57.692h2.188A1.1,1.1,0,0,0,65.349,56.6V52.223a1.1,1.1,0,0,0-1.094-1.094H62.067V20.5h3.282a1.1,1.1,0,0,0,1.094-1.094V15.032A1.069,1.069,0,0,0,66.2,14.354ZM13.37,5.188h42.7l7,8.751H6.369ZM9.563,20.5H33.627V51.129H29.252V39.1A1.1,1.1,0,0,0,28.158,38H15.032A1.1,1.1,0,0,0,13.938,39.1V51.129H9.563Zm17.5,30.627H16.126V40.19H27.064ZM11.751,64.255H9.563V62.067h2.188Zm48.129,0H57.692V62.067h2.188Zm0-4.375H9.563V57.692H59.879ZM63.161,55.5H6.282V53.316H63.161Zm-9.845-4.375H42.378V40.19H53.316Zm6.563,0H55.5V39.1A1.1,1.1,0,0,0,54.41,38H41.284A1.1,1.1,0,0,0,40.19,39.1V51.129H35.815V20.5H59.879ZM5.188,18.314V16.126H64.255v2.188Z"/>
      <path id="Trazado_1036574" data-name="Trazado 1036574" d="M20.375,31.751A4.375,4.375,0,1,0,16,27.375,4.374,4.374,0,0,0,20.375,31.751Zm0-6.563a2.188,2.188,0,1,1-2.188,2.188A2.194,2.194,0,0,1,20.375,25.188Z" transform="translate(1.22 1.877)"/>
      <path id="Trazado_1036575" data-name="Trazado 1036575" d="M44.375,31.751A4.375,4.375,0,1,0,40,27.375,4.374,4.374,0,0,0,44.375,31.751Zm0-6.563a2.188,2.188,0,1,1-2.188,2.188A2.194,2.194,0,0,1,44.375,25.188Z" transform="translate(3.472 1.877)"/>
    </g>
  </g>
</svg>
