<svg xmlns="http://www.w3.org/2000/svg" xmlns:xlink="http://www.w3.org/1999/xlink" width="290.257" height="230.087" viewBox="0 0 290.257 230.087">
  <defs>
    <filter id="Rect치ngulo_409947" x="0" y="0" width="290.257" height="230.087" filterUnits="userSpaceOnUse">
      <feOffset dy="3" input="SourceAlpha"/>
      <feGaussianBlur stdDeviation="3" result="blur"/>
      <feFlood flood-opacity="0.161"/>
      <feComposite operator="in" in2="blur"/>
      <feComposite in="SourceGraphic"/>
    </filter>
  </defs>
  <g id="Grupo_1202346" data-name="Grupo 1202346" transform="translate(-194.835 -12000)">
    <g transform="matrix(1, 0, 0, 1, 194.83, 12000)" filter="url(#Rect치ngulo_409947)">
      <rect id="Rect치ngulo_409947-2" data-name="Rect치ngulo 409947" width="272.257" height="212.087" rx="9" transform="translate(9 6)" fill="#ffa622"/>
    </g>
    <g id="Grupo_1202345" data-name="Grupo 1202345" transform="translate(265.675 12038)">
      <path id="Trazado_1036569" data-name="Trazado 1036569" d="M106.32,182.386a2.172,2.172,0,0,0,2.172-2.172V137.254a2.172,2.172,0,0,0-2.172-2.172H79.066a2.172,2.172,0,0,0-2.172,2.172v42.959a2.172,2.172,0,0,0,2.172,2.172ZM81.239,139.427h22.908v38.615H81.239Z" transform="translate(-54.507 -95.955)"/>
      <path id="Trazado_1036570" data-name="Trazado 1036570" d="M148.927,235.726a2.172,2.172,0,0,0-2.172,2.172v5.811a2.172,2.172,0,1,0,4.345,0V237.9A2.172,2.172,0,0,0,148.927,235.726Z" transform="translate(-104.133 -167.447)"/>
      <path id="Trazado_1036571" data-name="Trazado 1036571" d="M235.279,161.893a2.172,2.172,0,0,0,2.172-2.172V137.805a2.172,2.172,0,0,0-2.172-2.172H208.5a2.172,2.172,0,0,0-2.172,2.172V159.72a2.172,2.172,0,0,0,2.172,2.172Zm-24.6-10.652h9.043v6.308h-9.043Zm13.387,6.308V151.24h9.043v6.308Zm9.043-10.652h-9.043v-6.918h9.043Zm-13.388-6.918V146.9h-9.043v-6.918Z" transform="translate(-146.452 -96.346)"/>
      <path id="Trazado_1036572" data-name="Trazado 1036572" d="M146.2,130.811h-9.664v-10.98a2.172,2.172,0,0,0-2.172-2.172H124.7v-10.98a2.172,2.172,0,0,0-1.747-2.13v-2.823a17.224,17.224,0,0,0,15.029-17.06V72.433h1.322c2.809,0,2.809-4.345,0-4.345h-1.322c-.018-.817-.03-1.636-.03-2.447a10.458,10.458,0,1,0-14.021,9.839V79.4H112.109a2.172,2.172,0,0,0-2.172,2.172c0,.31.016.615.042.918h-4.224a2.172,2.172,0,0,0-2.172,2.172,17.111,17.111,0,0,0,1.354,6.689h-3.921V38.3l2.67,1.465c7.438,4.082,13.631-7.418,6.282-11.45L59.853.809a6.5,6.5,0,0,0-6.282,0L3.46,28.31c-7.374,4.047-1.109,15.505,6.282,11.451l2.67-1.465V50.309c0,2.809,4.345,2.809,4.345,0v-14.4L56.713,13.984,96.669,35.911V91.339H16.757V61.881c0-2.809-4.345-2.809-4.345,0v84.255a2.172,2.172,0,0,0,2.172,2.172H98.842a2.172,2.172,0,0,0,2.172-2.172V110.017l16.531,18.431c1.9,2.117,5.1-.827,3.235-2.9L101.014,103.51V95.7H107.6q.441.526.923,1.016v9.964a2.172,2.172,0,0,0,2.172,2.172h9.664v10.871A2.185,2.185,0,0,0,122.541,122H132.2v10.98a2.172,2.172,0,0,0,2.172,2.172h9.664v8.808H137.3l-9.38-10.458c-1.876-2.091-5.11.81-3.235,2.9l10.027,11.18a2.172,2.172,0,0,0,1.617.722H146.2a2.174,2.174,0,0,0,2.173-2.173V132.983A2.172,2.172,0,0,0,146.2,130.811ZM55.668,9.6,7.651,35.952c-2.477,1.36-4.576-2.475-2.1-3.832l50.112-27.5a2.174,2.174,0,0,1,2.1,0l50.112,27.5c2.544,1.4.264,5.131-2.1,3.832L57.758,9.6a2.173,2.173,0,0,0-2.09,0ZM56.713,121.05l11.262,11.265L56.713,143.581,45.451,132.315Zm-14.334,8.193L31.117,117.977l11.262-11.265,11.262,11.265Zm17.406-11.265,11.262-11.265,11.262,11.265L71.047,129.243Zm17.209-11.463H93.769l-8.388,8.39ZM56.713,114.9l-8.388-8.39H65.1Zm-28.669,0-8.388-8.39H36.432Zm-3.072,3.073L16.757,126.2V109.759Zm3.072,3.073,11.262,11.265L28.044,143.581,16.782,132.315Zm14.334,14.338,8.573,8.576H33.805Zm28.669,0,8.573,8.576H62.474Zm3.072-3.073L85.381,121.05l11.262,11.265L85.381,143.581Zm14.334-14.338,8.216-8.218V126.2Zm8.216-22.294v6.486H16.757V95.683ZM16.757,138.435l5.527,5.528H16.757Zm74.386,5.528,5.527-5.528v5.528Zm30.241-78.323a6.1,6.1,0,0,1,8.653-5.554,7.034,7.034,0,0,0-6.1,6.962v3.567a6.1,6.1,0,0,1-2.551-4.975Zm5.529,18.106a6.5,6.5,0,0,1-12.259,0ZM111.3,86.838a10.845,10.845,0,0,0,20.328-5.263,2.172,2.172,0,0,0-2.172-2.172H128.28V67.048a2.68,2.68,0,0,1,5.361,0V84.665a12.858,12.858,0,0,1-25.531,2.172Zm1.564,13.092a17.065,17.065,0,0,0,5.744,1.8v2.781h-5.744Z" transform="translate(0 0)"/>
    </g>
  </g>
</svg>
