<svg xmlns="http://www.w3.org/2000/svg" xmlns:xlink="http://www.w3.org/1999/xlink" width="313" height="179" viewBox="0 0 313 179">
  <defs>
    <filter id="joven-agricultor-pasar-tiempo-con-sus-cabras-en-la-granja" x="0" y="0" width="313" height="179" filterUnits="userSpaceOnUse">
      <feOffset dy="3" input="SourceAlpha"/>
      <feGaussianBlur stdDeviation="3" result="blur"/>
      <feFlood flood-opacity="0.161"/>
      <feComposite operator="in" in2="blur"/>
      <feComposite in="SourceGraphic"/>
    </filter>
  </defs>
  <g id="Grupo_1202532" data-name="Grupo 1202532" transform="translate(-190.924 -1038)">
    <g transform="matrix(1, 0, 0, 1, 190.92, 1038)" filter="url(#joven-agricultor-pasar-tiempo-con-sus-cabras-en-la-granja)">
      <rect id="joven-agricultor-pasar-tiempo-con-sus-cabras-en-la-granja-2" data-name="joven-agricultor-pasar-tiempo-con-sus-cabras-en-la-granja" width="295" height="161" rx="10" transform="translate(9 6)" fill="#a2b4e2"/>
    </g>
    <g id="Grupo_1202531" data-name="Grupo 1202531" transform="translate(25.347 4.448)">
      <g id="Grupo_1202530" data-name="Grupo 1202530" transform="translate(236.578 1073.021)">
        <g id="Grupo_1188468" data-name="Grupo 1188468" transform="translate(0 0.543)">
          <path id="Rectángulo_402603" data-name="Rectángulo 402603" d="M102.984,0h0a0,0,0,0,1,0,0V103.828a0,0,0,0,1,0,0H0a0,0,0,0,1,0,0v-.844A102.984,102.984,0,0,1,102.984,0Z" fill="#fdaa30"/>
        </g>
        <path id="Trazado_874774" data-name="Trazado 874774" d="M10.968,0c.073,0,.147,0,.22.007a3.689,3.689,0,0,1,2.2.931,3.209,3.209,0,0,1,1.128,2.4A15.248,15.248,0,0,1,14.612,5.5V7.721h4.531A2.855,2.855,0,0,1,21.647,9a3.968,3.968,0,0,1,.636,2.181,3.744,3.744,0,0,1-.662,2.174,2.84,2.84,0,0,1-2.478,1.2H14.612v2.405a18.1,18.1,0,0,1-.094,2.333,2.916,2.916,0,0,1-1.225,2.4,3.693,3.693,0,0,1-4.381,0,2.935,2.935,0,0,1-1.226-2.512V14.555H3.524A3.435,3.435,0,0,1,.757,13.465a3.127,3.127,0,0,1-.734-2.442A4.013,4.013,0,0,1,.994,8.851a3.227,3.227,0,0,1,2.529-1.13H7.685V3.467A3.2,3.2,0,0,1,8.911.678,3.483,3.483,0,0,1,10.968,0Zm8.355,10.508a.661.661,0,0,0-.181-.019h-7.3V5.5a12.008,12.008,0,0,0-.066-1.762L11.752,3.6V3.467a.473.473,0,0,0-.164-.428.94.94,0,0,0-.572-.27l-.047,0a.718.718,0,0,0-.433.152,1.25,1.25,0,0,0-.083.548v7.021H3.524a.473.473,0,0,0-.428.164,1.262,1.262,0,0,0-.323.694.371.371,0,0,0,.1.331,1.283,1.283,0,0,0,.653.111h6.929v7.391c0,.212.044.243.067.26a.931.931,0,0,0,1.164,0c.024-.017.067-.048.067-.26v-.115l.019-.113a14.881,14.881,0,0,0,.074-1.991V11.788h7.3a.757.757,0,0,0,.215-.023,1.011,1.011,0,0,0,.157-.58A1.211,1.211,0,0,0,19.324,10.508Z" transform="translate(34.21 13.783) rotate(-43)" fill="#1944b6"/>
      </g>
      <g id="Grupo_1202529" data-name="Grupo 1202529" transform="translate(286.068 1062.551)">
        <g id="Grupo_1202528" data-name="Grupo 1202528" transform="translate(10.929 0.001)">
          <path id="Trazado_1036860" data-name="Trazado 1036860" d="M382.932,98.743a1.683,1.683,0,1,0-3.366,0v1.126a1.683,1.683,0,1,0,3.366,0Z" transform="translate(-296.835 -75.278)"/>
          <path id="Trazado_1036861" data-name="Trazado 1036861" d="M119.431,24.434q-.052-.03-.107-.057L105.89,17.841A8.243,8.243,0,0,0,97.849,4.833,8.245,8.245,0,0,0,82.1,8.4a8.239,8.239,0,0,0-1.789,15.13c-1.186,4.155-8.04,13.159-13.033,16.353a45.037,45.037,0,0,0-11.975-1.491,1.683,1.683,0,1,0-.067,3.366c4.458.089,8.747.293,12.239,1.281a13.443,13.443,0,0,1,5.132,2.632C75.058,47.9,76.6,51.795,75.48,59c0,.024-.007.049-.01.074-1.287,11.575-11.1,15.057-19.107,14.521-5.366-.359-9.707-2.562-10.882-5.3,3.133-.256,6.737-1.126,9.107-2.968a1.683,1.683,0,1,0-2.066-2.658c-2.193,1.7-6.14,2.324-8.913,2.341-2.692-.427-3.9-2.538-3.981-7.132.729.042,1.45.064,2.158.064a24.572,24.572,0,0,0,11.773-2.555,1.683,1.683,0,0,0-1.65-2.934c-3.046,1.713-7.948,2.441-13.2,1.982q-.275-.277-.536-.567c-3-3.34-5.786-8.985-5.566-14,0-.011,0-.021,0-.031,0-.053,0-.106.006-.159a7.785,7.785,0,0,1,.583-2.831C36.384,40.5,42.01,41.269,47.1,41.542a1.683,1.683,0,1,0,.181-3.362c-4.42-.238-9.255-.851-11.6-3.605a3.1,3.1,0,0,0-3.445-1.207c-1.3.437-2.223,1.785-2.683,3.869-2.825-1.443-5.709-3.1-8.761-5.038-2.148-1.362-3.893-1.694-5.335-1.015-1.887.888-2.373,3.1-2.574,4.682-.064.509-.165,1.119-.283,1.826-.6,3.634-1.487,8.954.656,12.75a13.888,13.888,0,0,0-2.241,9.364,17.363,17.363,0,0,0,5.09,10.65,42.007,42.007,0,0,0,5.22,11.21A25.213,25.213,0,0,0,16.252,95.61,12.581,12.581,0,0,0,32.281,107.7a12.561,12.561,0,0,0,16.477,3.171,12.554,12.554,0,0,0,18.442,0A12.56,12.56,0,0,0,83.675,107.7,12.576,12.576,0,0,0,99.7,95.61a25.4,25.4,0,0,0-5.21-14.125,24.722,24.722,0,0,0,5.431-8.428,1.683,1.683,0,0,0-3.147-1.2C94.26,78.717,85.52,84.633,81.666,86.8c-2.116-2.975-4.857-5.129-8-5.129-3.124,0-6.2,2.2-8.665,6.127-1.959-2.31-4.348-3.881-7.029-3.881s-5.066,1.57-7.024,3.879c-2.467-3.925-5.543-6.125-8.67-6.125-3.715,0-6.873,3.02-9.095,6.846A30.97,30.97,0,0,1,20.724,73.389a79.1,79.1,0,0,0,9.413,4.427A1.683,1.683,0,0,0,31.408,74.7a69.059,69.059,0,0,1-12.83-6.552,13.755,13.755,0,0,1-4.218-8.683A10.875,10.875,0,0,1,15.5,53.244a30.284,30.284,0,0,0,7.313,5.463,1.683,1.683,0,0,0,1.678-2.918,25.23,25.23,0,0,1-7.865-6.357c-2.125-2.628-1.27-7.78-.7-11.189.118-.711.229-1.382.3-1.955.229-1.8.663-2.056.667-2.058.122-.057.768-.031,2.1.812a108.567,108.567,0,0,0,10.248,5.807c.151,5.978,3.47,12.271,7.024,15.9a18.946,18.946,0,0,0,.7,6.162,7.455,7.455,0,0,0,4.95,5.159c.855,4.73,6.544,8.371,14.227,8.885q.894.06,1.792.06c9.685,0,19.5-5.271,20.882-17.53,1.454-9.369-.927-15.457-7.27-18.506,7.586-5.14,11.142-13.818,11.59-15.28,1.371-4.477,3.767-7.714,6.66-9.139a10.406,10.406,0,0,1,11.932,2.827c.017.021.033.042.051.061a8.379,8.379,0,0,1,1.436,2.528,6.865,6.865,0,0,1-.82,6.075l-.016.026c-7.869,13.266-6.6,19.522-5.256,26.145.269,1.327.548,2.7.742,4.132a34.92,34.92,0,0,1,.323,6.456,1.683,1.683,0,1,0,3.362.164,38.272,38.272,0,0,0-.351-7.077c-.208-1.538-.5-2.964-.778-4.345a32.9,32.9,0,0,1-.914-7.418,7.308,7.308,0,0,0,4.13,1.35,6.362,6.362,0,0,0,1.808-.261c3.547-1.049,5.577-4.9,5.432-10.309a17.883,17.883,0,0,0-.64-4.256l8.611-3.374a2.76,2.76,0,0,0,2.068-2.238,2.672,2.672,0,0,0-1.482-2.61ZM92.025,83.8a22.326,22.326,0,0,1,4.307,11.807,9.214,9.214,0,0,1-10.943,9.045,12.509,12.509,0,0,0,.861-4.566,24.754,24.754,0,0,0-2.844-10.4A54.564,54.564,0,0,0,92.025,83.8ZM73.669,85.039c4.661,0,9.214,9.521,9.214,15.048a9.225,9.225,0,0,1-9.214,9.215,9.118,9.118,0,0,1-4.521-1.183c.023-.045.04-.09.06-.136a12.489,12.489,0,0,0,1.347-5.65,25.181,25.181,0,0,0-3.32-11.287c-.036-.066-.072-.133-.11-.2,1.935-3.6,4.4-5.808,6.543-5.808ZM57.975,87.285c4.661,0,9.214,9.521,9.214,15.048a9.211,9.211,0,0,1-18.422,0C48.768,96.806,53.317,87.285,57.975,87.285ZM35.326,91.648c0-.006.008-.011.011-.017.016-.031.03-.062.044-.093,1.759-3.559,4.313-6.5,6.9-6.5,2.149,0,4.614,2.2,6.549,5.808-.025.043-.047.086-.071.129A25.218,25.218,0,0,0,45.4,102.333a12.5,12.5,0,0,0,1.333,5.624c.024.054.044.109.072.162a9.216,9.216,0,0,1-13.733-8.032,20.865,20.865,0,0,1,2.253-8.44Zm-3.641-.1a23.464,23.464,0,0,0-1.978,8.543,12.514,12.514,0,0,0,.861,4.566,9.22,9.22,0,0,1-10.949-9.045A22.268,22.268,0,0,1,23.43,84.48a32.048,32.048,0,0,0,8.255,7.064ZM103.09,15.965A13.766,13.766,0,0,0,88.3,13.535a15.556,15.556,0,0,0-6.618,6.892,4.874,4.874,0,0,1,1.57-8.851,4.734,4.734,0,0,1,.8-.113,1.683,1.683,0,0,0,1.562-2.011L85.6,9.363c0-.014-.006-.028-.009-.042a4.875,4.875,0,0,1,9.51-2.15l.01.047a1.683,1.683,0,0,0,2.306,1.22,4.586,4.586,0,0,1,.761-.24,4.878,4.878,0,0,1,4.913,7.767Zm1.4,28.026c-1.514.448-3.256-.357-4.482-2.018a31.555,31.555,0,0,1,2.086-6.128l4.987-1.954A14.534,14.534,0,0,1,107.51,37C107.611,40.79,106.482,43.4,104.488,43.991Zm-.1-12.659c.28-.5.57-1.006.88-1.529a10.306,10.306,0,0,0,1.446-7.82l9.606,4.674Z" transform="translate(-10.929 -0.001)"/>
        </g>
      </g>
    </g>
  </g>
</svg>
