<svg xmlns="http://www.w3.org/2000/svg" width="82" height="82" viewBox="0 0 82 82">
  <g id="Grupo_1202552" data-name="Grupo 1202552" transform="translate(-601.924 -1716)">
    <rect id="Rectángulo_409878" data-name="Rectángulo 409878" width="82" height="82" transform="translate(601.924 1716)" fill="none"/>
    <g id="Grupo_1202551" data-name="Grupo 1202551" transform="translate(613.899 1727)">
      <g id="Grupo_1202534" data-name="Grupo 1202534" transform="translate(13.462 6.55)">
        <g id="Grupo_1202533" data-name="Grupo 1202533">
          <path id="Trazado_1036862" data-name="Trazado 1036862" d="M145.954,72.465l-.01-.014L134.695,57.967a1.139,1.139,0,0,0-.9-.44h0a1.138,1.138,0,0,0-.9.436L121.6,72.372q-.03.039-.057.08a15.709,15.709,0,1,0,24.409.014ZM133.744,95.78A13.432,13.432,0,0,1,123.383,73.8a1.13,1.13,0,0,0,.088-.123l10.32-13.16,10.327,13.3c.013.019.027.037.042.055A13.432,13.432,0,0,1,133.744,95.78Z" transform="translate(-118.035 -57.527)"/>
        </g>
      </g>
      <g id="Grupo_1202536" data-name="Grupo 1202536" transform="translate(32.117 32.336)">
        <g id="Grupo_1202535" data-name="Grupo 1202535">
          <path id="Trazado_1036863" data-name="Trazado 1036863" d="M289.174,284.032a1.138,1.138,0,0,0-1.369.847,8.818,8.818,0,0,1-5.221,6.115,1.139,1.139,0,1,0,.866,2.106,11.1,11.1,0,0,0,6.571-7.7A1.139,1.139,0,0,0,289.174,284.032Z" transform="translate(-281.878 -284.001)"/>
        </g>
      </g>
      <g id="Grupo_1202538" data-name="Grupo 1202538" transform="translate(38.278 27.748)">
        <g id="Grupo_1202537" data-name="Grupo 1202537">
          <path id="Trazado_1036864" data-name="Trazado 1036864" d="M337.13,243.708a1.139,1.139,0,0,0-1.138,1.138v.023a1.138,1.138,0,1,0,2.277,0v-.023A1.139,1.139,0,0,0,337.13,243.708Z" transform="translate(-335.992 -243.708)"/>
        </g>
      </g>
      <g id="Grupo_1202540" data-name="Grupo 1202540" transform="translate(0.026 0.008)">
        <g id="Grupo_1202539" data-name="Grupo 1202539" transform="translate(0)">
          <path id="Trazado_1036865" data-name="Trazado 1036865" d="M43.15,3.812,41.559,1.056a1.138,1.138,0,0,0-2.077.892A29.15,29.15,0,0,0,.157,31.856,1.138,1.138,0,0,0,1.289,32.89q.053,0,.106,0a1.138,1.138,0,0,0,1.029-1.238A26.871,26.871,0,0,1,39.7,4.489l-.861.5a1.138,1.138,0,1,0,1.138,1.972l2.756-1.591A1.138,1.138,0,0,0,43.15,3.812Z" transform="translate(-0.035 -0.07)"/>
        </g>
      </g>
      <g id="Grupo_1202542" data-name="Grupo 1202542" transform="translate(16.732 24.305)">
        <g id="Grupo_1202541" data-name="Grupo 1202541">
          <path id="Trazado_1036866" data-name="Trazado 1036866" d="M188.082,214.455a1.138,1.138,0,1,0-2.257.3,26.992,26.992,0,0,1-19.28,29.382,26.612,26.612,0,0,1-16.431-.55l1.077-.683a1.139,1.139,0,1,0-1.219-1.923l-2.688,1.7a1.139,1.139,0,0,0-.352,1.57l1.687,2.666a1.138,1.138,0,0,0,2.092-.737,28.794,28.794,0,0,0,8.445,1.271,29.169,29.169,0,0,0,28.926-33Z" transform="translate(-146.755 -213.467)"/>
        </g>
      </g>
      <g id="Grupo_1202544" data-name="Grupo 1202544" transform="translate(0.025 34.611)">
        <g id="Grupo_1202543" data-name="Grupo 1202543" transform="translate(0)">
          <path id="Trazado_1036867" data-name="Trazado 1036867" d="M15.416,312.068l0-.006-5.8-7.63a1.139,1.139,0,0,0-.9-.45h0a1.139,1.139,0,0,0-.9.445l-5.827,7.59c-.014.018-.027.036-.039.054A8.933,8.933,0,0,0,.025,317.6a8.744,8.744,0,0,0,8.652,8.814A8.744,8.744,0,0,0,17.33,317.6,8.937,8.937,0,0,0,15.416,312.068ZM8.677,324.134A6.465,6.465,0,0,1,2.3,317.6a6.645,6.645,0,0,1,1.465-4.169,1.125,1.125,0,0,0,.069-.1L8.7,307l4.88,6.418.035.047a6.651,6.651,0,0,1,1.438,4.135A6.465,6.465,0,0,1,8.677,324.134Z" transform="translate(-0.025 -303.983)"/>
        </g>
      </g>
      <g id="Grupo_1202546" data-name="Grupo 1202546" transform="translate(7.539 47.087)">
        <g id="Grupo_1202545" data-name="Grupo 1202545">
          <path id="Trazado_1036868" data-name="Trazado 1036868" d="M70.913,413.554a1.139,1.139,0,0,0-1.138,1.138,2.663,2.663,0,0,1-2.619,2.7,1.138,1.138,0,1,0,0,2.277,4.942,4.942,0,0,0,4.9-4.976A1.139,1.139,0,0,0,70.913,413.554Z" transform="translate(-66.018 -413.554)"/>
        </g>
      </g>
      <g id="Grupo_1202548" data-name="Grupo 1202548" transform="translate(41.01)">
        <g id="Grupo_1202547" data-name="Grupo 1202547">
          <path id="Trazado_1036869" data-name="Trazado 1036869" d="M375.381,8.085l0-.006-5.8-7.63a1.139,1.139,0,0,0-.9-.45h0a1.139,1.139,0,0,0-.9.445l-5.827,7.59c-.013.017-.026.035-.039.053a8.933,8.933,0,0,0-1.911,5.525,8.654,8.654,0,1,0,17.3,0A8.938,8.938,0,0,0,375.381,8.085Zm-6.738,12.066a6.465,6.465,0,0,1-6.375-6.537,6.647,6.647,0,0,1,1.465-4.169,1.122,1.122,0,0,0,.069-.1l4.864-6.336,4.88,6.418.035.047a6.651,6.651,0,0,1,1.438,4.135A6.465,6.465,0,0,1,368.642,20.151Z" transform="translate(-359.99)"/>
        </g>
      </g>
      <g id="Grupo_1202550" data-name="Grupo 1202550" transform="translate(48.524 12.476)">
        <g id="Grupo_1202549" data-name="Grupo 1202549">
          <path id="Trazado_1036870" data-name="Trazado 1036870" d="M430.878,109.571a1.139,1.139,0,0,0-1.138,1.138,2.663,2.663,0,0,1-2.619,2.7,1.138,1.138,0,1,0,0,2.277,4.942,4.942,0,0,0,4.9-4.976A1.138,1.138,0,0,0,430.878,109.571Z" transform="translate(-425.982 -109.571)"/>
        </g>
      </g>
    </g>
  </g>
</svg>
