<svg xmlns="http://www.w3.org/2000/svg" width="82" height="82" viewBox="0 0 82 82">
  <g id="Grupo_1202554" data-name="Grupo 1202554" transform="translate(-931.924 -1700)">
    <rect id="Rectángulo_409883" data-name="Rectángulo 409883" width="82" height="82" transform="translate(931.924 1700)" fill="none"/>
    <g id="Grupo_1202553" data-name="Grupo 1202553" transform="translate(940.924 1709)">
      <path id="Trazado_1036871" data-name="Trazado 1036871" d="M53.978,15.946,40,7.438V2a1,1,0,0,0-1-1H31a1,1,0,0,0-1,1V7.451a11.361,11.361,0,0,0-5,9.38V20l-6.4-4.8A1,1,0,0,0,18,15H5a1,1,0,0,0-1,1v4a.992.992,0,0,0,.922.984A7.04,7.04,0,0,1,2.2,25.6l-.8.6A1,1,0,0,0,2,28H3a8.007,8.007,0,0,0,7.749-6.048L12.484,26H12a1,1,0,0,0-1,1v4a1,1,0,0,0,1,1h1v1.264a.192.192,0,0,1-.1.171,3.426,3.426,0,0,0,0,6.129.194.194,0,0,1,.106.172,1.239,1.239,0,0,1-.6,1.057l-1.344.806A6.33,6.33,0,0,0,8,47V62a1,1,0,0,0,1,1H26a1,1,0,0,0,1-1v-.026A4.948,4.948,0,0,0,30,63H58a5.006,5.006,0,0,0,5-5V32a18.9,18.9,0,0,0-9.022-16.054ZM32,3h6V7H32ZM25,48v9H10V48Zm2-4H61V56H27Zm-2-7.535a21.326,21.326,0,0,0-2.8-4.506A.986.986,0,0,0,23,31V27a1,1,0,0,0-1-1H21V24.721l4-1.334ZM13,30V28h8v2ZM5,25.659A9.069,9.069,0,0,0,6.937,21H8.913A6.016,6.016,0,0,1,5,25.659Zm6.924-6.053A1,1,0,0,0,11,19H6V17H17.667l6.206,4.655-4.189,1.4A1,1,0,0,0,19,24v2H14.659Zm.167,23.707,1.345-.8A3.251,3.251,0,0,0,15,39.736a2.181,2.181,0,0,0-1.211-1.96,1.427,1.427,0,0,1,0-2.553A2.18,2.18,0,0,0,15,33.264V32h4.559A19.34,19.34,0,0,1,25,45.484V46H10.125a4.324,4.324,0,0,1,1.961-2.687ZM10,61V59H25v2Zm48,0H30a3,3,0,0,1-3-3H61A3,3,0,0,1,58,61Zm3-19H27V16.831A9.348,9.348,0,0,1,31.285,9H38.72l14.218,8.655A16.892,16.892,0,0,1,61,32Z"/>
      <path id="Trazado_1036872" data-name="Trazado 1036872" d="M51.788,19.861l-3.49-2.22A4.1,4.1,0,0,0,42,21.1V28a5.868,5.868,0,0,0,1.707,4.121l6.172,6.172A5.787,5.787,0,0,0,54,40h4a1,1,0,0,0,1-1V33a15.5,15.5,0,0,0-7.212-13.139ZM57,38H54a3.8,3.8,0,0,1-2.707-1.121l-6.172-6.172A3.857,3.857,0,0,1,44,28V21.1a2.1,2.1,0,0,1,3.224-1.77l3.49,2.221A13.508,13.508,0,0,1,57,33Z"/>
      <path id="Trazado_1036873" data-name="Trazado 1036873" d="M35,14c-2.8,0-5,3.075-5,7s2.2,7,5,7,5-3.075,5-7S37.8,14,35,14Zm0,12c-1.626,0-3-2.29-3-5s1.374-5,3-5,3,2.29,3,5S36.626,26,35,26Z"/>
    </g>
  </g>
</svg>
