<svg xmlns="http://www.w3.org/2000/svg" xmlns:xlink="http://www.w3.org/1999/xlink" width="290" height="195" viewBox="0 0 290 195">
  <defs>
    <filter id="joven-agricultor-pasar-tiempo-con-sus-cabras-en-la-granja" x="0" y="0" width="290" height="195" filterUnits="userSpaceOnUse">
      <feOffset dy="3" input="SourceAlpha"/>
      <feGaussianBlur stdDeviation="3" result="blur"/>
      <feFlood flood-opacity="0.161"/>
      <feComposite operator="in" in2="blur"/>
      <feComposite in="SourceGraphic"/>
    </filter>
  </defs>
  <g id="Grupo_1202560" data-name="Grupo 1202560" transform="translate(-213.924 -2183)">
    <g transform="matrix(1, 0, 0, 1, 213.92, 2183)" filter="url(#joven-agricultor-pasar-tiempo-con-sus-cabras-en-la-granja)">
      <rect id="joven-agricultor-pasar-tiempo-con-sus-cabras-en-la-granja-2" data-name="joven-agricultor-pasar-tiempo-con-sus-cabras-en-la-granja" width="272" height="177" rx="10" transform="translate(9 6)" fill="#ffa622"/>
    </g>
    <g id="Grupo_1202559" data-name="Grupo 1202559" transform="translate(252.239 2234.979)">
      <g id="Grupo_1188574" data-name="Grupo 1188574" transform="translate(0)">
        <g id="Grupo_1188465" data-name="Grupo 1188465">
          <path id="Rectángulo_402602" data-name="Rectángulo 402602" d="M107.761,0h0a0,0,0,0,1,0,0V108.645a0,0,0,0,1,0,0H0a0,0,0,0,1,0,0v-.884A107.761,107.761,0,0,1,107.761,0Z" fill="#26c790"/>
        </g>
        <g id="Trazado_1036881" data-name="Trazado 1036881" transform="translate(37.843 4.331)" fill="none">
          <path d="M11.676,23.352A11.676,11.676,0,1,0,0,11.676,11.676,11.676,0,0,0,11.676,23.352Z" stroke="none"/>
          <path d="M 11.67570495605469 17.35151672363281 C 14.80530452728271 17.35151672363281 17.35141563415527 14.80537700653076 17.35141563415527 11.67575740814209 C 17.35141563415527 8.546137809753418 14.80530452728271 5.999997615814209 11.67570495605469 5.999997615814209 C 8.546114921569824 5.999997615814209 6.000004768371582 8.546137809753418 6.000004768371582 11.67575740814209 C 6.000004768371582 14.80537700653076 8.546114921569824 17.35151672363281 11.67570495605469 17.35151672363281 M 11.67570495605469 23.35151672363281 C 5.227395057678223 23.35151672363281 4.956054908689111e-06 18.12409782409668 4.956054908689111e-06 11.67575740814209 C 4.956054908689111e-06 5.227417469024658 5.227395057678223 -2.591857992229052e-06 11.67570495605469 -2.591857992229052e-06 C 18.12402534484863 -2.591857992229052e-06 23.35141563415527 5.227417469024658 23.35141563415527 11.67575740814209 C 23.35141563415527 18.12409782409668 18.12402534484863 23.35151672363281 11.67570495605469 23.35151672363281 Z" stroke="none" fill="#fff"/>
        </g>
      </g>
      <circle id="Elipse_11502" data-name="Elipse 11502" cx="2.774" cy="2.774" r="2.774" transform="translate(10.15 95.045)" fill="#fff"/>
    </g>
    <g id="Grupo_1202557" data-name="Grupo 1202557" transform="translate(286.924 2213)">
      <path id="Trazado_1036877" data-name="Trazado 1036877" d="M96.917,73.313h-3.48l3.433,3.433a6.215,6.215,0,0,1-6.406,10.275v5.235A43.326,43.326,0,0,1,64.19,132.012a9.9,9.9,0,0,1-2.8,7.055l2.178,8.126a6.14,6.14,0,0,0,5.922,4.544H75.2a2.1,2.1,0,0,1,0,4.2H26.742a2.1,2.1,0,0,1,0-4.2,5.744,5.744,0,0,0,5.54-4.251l2.258-8.429A9.9,9.9,0,0,1,31.9,133.97,43.219,43.219,0,0,1,0,92.257V78.414a4.547,4.547,0,0,1,6.716-4A56.33,56.33,0,0,0,33.668,81.3H57.442V77.926a2.1,2.1,0,0,1,4.2,0v4.367l1.867,1.28a1.489,1.489,0,0,0,1.673,0l.754-.518a5.717,5.717,0,0,1,6.429,0l.75.515a1.488,1.488,0,0,0,1.674,0l.752-.516a5.717,5.717,0,0,1,6.429,0l.75.515a1.487,1.487,0,0,0,1.674,0l1.864-1.279V58.942a10.006,10.006,0,0,0-10-9.995A14.638,14.638,0,0,0,61.645,63.568v4.551a2.1,2.1,0,1,1-4.2,0V63.568A18.81,18.81,0,0,1,65.1,48.419a13.617,13.617,0,0,1-6.9-15.6l.506-1.887a3.449,3.449,0,0,1,4.226-2.44l3.95,1.058A2.1,2.1,0,0,1,65.8,33.61l-3.223-.863-.311,1.161a9.4,9.4,0,0,0,6.64,11.5l1.282.344a18.745,18.745,0,0,1,6.078-1.007A14.182,14.182,0,0,1,87.448,50.2a5.3,5.3,0,1,0-1.683-10.307,7.349,7.349,0,0,1-7.925-2.145,5.27,5.27,0,0,0-2.6-1.609,2.1,2.1,0,0,1,1.088-4.06,9.458,9.458,0,0,1,4.665,2.891,3.162,3.162,0,0,0,3.4.95,9.441,9.441,0,0,1,5.923-.085,9.505,9.505,0,0,1-.68,18.328,14.134,14.134,0,0,1,.827,4.777v.975A9.813,9.813,0,0,1,99.676,69.7v.855a2.762,2.762,0,0,1-2.759,2.758ZM55.67,151.737h5.5a10.28,10.28,0,0,1-1.665-3.456l-1.821-6.8a9.877,9.877,0,0,1-3.208.608l1.446,5.395a6.671,6.671,0,0,1-.255,4.251Zm-3.252-14.144a5.747,5.747,0,0,0,7.383-3.982,42.9,42.9,0,0,1-8.7,1.685,9.8,9.8,0,0,1-.521,1.262,5.645,5.645,0,0,0,1.647.966c.066.02.131.043.194.069Zm-2.971,14.144a2.512,2.512,0,0,0,2.417-3.163l-2.014-7.517a10.006,10.006,0,0,1-1.892-1.22,10.059,10.059,0,0,1-1.879,1.216L44.834,145.7a4.8,4.8,0,0,0,4.613,6.037Zm-7.6,0a8.927,8.927,0,0,1-1.077-7.125l.675-2.52a9.834,9.834,0,0,1-3.207-.613l-1.9,7.1a9.889,9.889,0,0,1-1.485,3.163Zm44.41-64.386a5.722,5.722,0,0,1-5.916-.313l-.75-.515a1.488,1.488,0,0,0-1.674,0l-.752.516a5.718,5.718,0,0,1-6.43,0l-.75-.515a1.488,1.488,0,0,0-1.673,0l-.754.518a5.719,5.719,0,0,1-6.427,0L58.892,85.5H33.668A60.545,60.545,0,0,1,4.7,78.1a.3.3,0,0,0-.319.009.343.343,0,0,0-.177.307V92.256a38.908,38.908,0,0,0,29.658,37.879,2.75,2.75,0,0,1,2.1,2.465,5.731,5.731,0,0,0,11.32.756A2.761,2.761,0,0,1,49.8,131.18,39.067,39.067,0,0,0,86.261,92.256Zm4.2-6.21a2.014,2.014,0,0,0,2.011,2.012A2.011,2.011,0,0,0,93.9,79.719l-3.433-3.433Zm0-17.008V69.11h4.977A5.608,5.608,0,0,0,90.464,64.133Z" transform="translate(43.792 -28.373)"/>
      <path id="Trazado_1036878" data-name="Trazado 1036878" d="M148.775,282.533h-3.3a29.92,29.92,0,0,1-17.439-5.559,2.1,2.1,0,0,1,2.436-3.426,25.74,25.74,0,0,0,15,4.782h3.3a13.739,13.739,0,0,0,0-27.477H136.411a9.492,9.492,0,0,0,9.3,11.289,2.1,2.1,0,1,1,0,4.2,13.679,13.679,0,0,1-13.545-15.492h-3.335a16.994,16.994,0,0,0,16.88,18.806h3.068a2.1,2.1,0,1,1,0,4.2h-3.068a21.2,21.2,0,0,1-21.1-23.009h-3.485a1.562,1.562,0,0,0-1.56,1.56,25.764,25.764,0,0,0,4.582,14.718,2.1,2.1,0,1,1-3.458,2.39,29.951,29.951,0,0,1-5.327-17.108,5.77,5.77,0,0,1,5.763-5.763h27.654a17.942,17.942,0,0,1,0,35.884Z" transform="translate(-55.574 -185.486)"/>
      <path id="Trazado_1036879" data-name="Trazado 1036879" d="M300.258,388.469v-.794A2.741,2.741,0,0,1,303,384.937H309.9a.287.287,0,0,0,.286-.286v-.826a7.42,7.42,0,0,1,14.537-2.1h1.445a2.1,2.1,0,0,1,0,4.2h-1.142v2.543a12.4,12.4,0,0,1-7.371,11.325l1.416,2.453h3.462a2.1,2.1,0,0,1,0,4.2h-4.675a2.1,2.1,0,0,1-1.82-1.051l-2.637-4.567a12.477,12.477,0,0,1-1.522,0l-.817,1.415H312.1a2.1,2.1,0,0,1,0,4.2h-4.675a2.1,2.1,0,0,1-1.82-3.152l2.023-3.5A12.4,12.4,0,0,1,300.258,388.469Zm10.83,8.034c.036.006.071.012.106.02a8.23,8.23,0,0,0,2.9,0c.036-.008.071-.014.107-.02a8.2,8.2,0,0,0,6.628-8.035v-4.645a3.217,3.217,0,0,0-6.433,0v.826a4.494,4.494,0,0,1-4.489,4.489h-5.416A8.2,8.2,0,0,0,311.088,396.5Z" transform="translate(-268.942 -278.882)"/>
      <path id="Trazado_1036880" data-name="Trazado 1036880" d="M412.019,388.469v-.794a2.741,2.741,0,0,1,2.738-2.738h6.908a.286.286,0,0,0,.286-.286v-.826a7.42,7.42,0,0,1,14.536-2.1h1.445a2.1,2.1,0,1,1,0,4.2h-1.142v2.543a12.4,12.4,0,0,1-7.371,11.325l1.416,2.453H434.3a2.1,2.1,0,0,1,0,4.2h-4.675a2.1,2.1,0,0,1-1.82-1.051l-2.637-4.567a12.471,12.471,0,0,1-1.522,0l-.817,1.415h1.035a2.1,2.1,0,0,1,0,4.2h-4.675a2.1,2.1,0,0,1-1.82-3.152l2.023-3.5A12.4,12.4,0,0,1,412.019,388.469Zm10.83,8.034c.036.006.071.012.107.02a8.227,8.227,0,0,0,2.895,0c.037-.008.075-.015.112-.021a8.2,8.2,0,0,0,6.625-8.034v-4.645a3.217,3.217,0,1,0-6.433,0v.826a4.494,4.494,0,0,1-4.489,4.489H416.25A8.2,8.2,0,0,0,422.849,396.5Z" transform="translate(-412.019 -278.882)"/>
    </g>
  </g>
</svg>
