<svg xmlns="http://www.w3.org/2000/svg" width="70" height="70" viewBox="0 0 70 70">
  <g id="Grupo_1202563" data-name="Grupo 1202563" transform="translate(-1041.924 -2753)">
    <circle id="Elipse_12373" data-name="Elipse 12373" cx="35" cy="35" r="35" transform="translate(1041.924 2753)" fill="#26c790"/>
    <g id="Grupo_1202562" data-name="Grupo 1202562" transform="translate(1054.932 2766.005)">
      <path id="Trazado_1036883" data-name="Trazado 1036883" d="M97.14,113.275l-.118.118a5.2,5.2,0,0,1-3.706,1.533h-.041a5.2,5.2,0,0,1-3.724-1.591,5.31,5.31,0,0,1,.12-7.419l16.361-16.362a5.348,5.348,0,0,1,3.759-1.576.654.654,0,0,0-.005-1.309h-.005a6.649,6.649,0,0,0-4.674,1.96L88.746,104.99a6.624,6.624,0,0,0-.135,9.255,6.5,6.5,0,0,0,4.653,1.988h.052a6.5,6.5,0,0,0,4.631-1.916l.118-.118a.654.654,0,0,0-.925-.925Z" transform="translate(-79.22 -79.103)"/>
      <path id="Trazado_1036884" data-name="Trazado 1036884" d="M241.173,96.583a5.246,5.246,0,0,1,1.1,8.256l-2.755,2.755a3.1,3.1,0,0,0-4.3,4.3l-7.155,7.156a.654.654,0,1,0,.925.925L243.2,105.765a6.549,6.549,0,0,0-1.381-10.319.654.654,0,1,0-.647,1.138Zm-4.643,12.325a1.8,1.8,0,0,1,2.031-.354l-2.385,2.385A1.8,1.8,0,0,1,236.53,108.908Z" transform="translate(-207.988 -87.036)"/>
      <path id="Trazado_1036885" data-name="Trazado 1036885" d="M212.845,216.378a2.07,2.07,0,0,0-.086,2.89l0,0,.019.02a2.017,2.017,0,0,0,2.85,0l3.656-3.656a2.016,2.016,0,0,0,0-2.85c-.023-.023-.048-.047-.073-.069a2.082,2.082,0,0,0-2.838.131Zm5.489-2.695.028.027a.707.707,0,0,1,0,1l-3.656,3.656a.706.706,0,0,1-1,0l-.014-.014a.759.759,0,0,1,.073-1.052l3.532-3.532a.771.771,0,0,1,1.032-.088Z" transform="translate(-193.697 -193.698)"/>
      <path id="Trazado_1036886" data-name="Trazado 1036886" d="M317.032,120.591a2.015,2.015,0,1,0,2.85,0A2.018,2.018,0,0,0,317.032,120.591Zm1.924,1.924a.706.706,0,1,1,0-1A.7.7,0,0,1,318.957,122.515Z" transform="translate(-288.834 -109.528)"/>
      <path id="Trazado_1036887" data-name="Trazado 1036887" d="M179.857,328a1.832,1.832,0,1,0,1.3.537A1.82,1.82,0,0,0,179.857,328Zm.37,2.2a.524.524,0,1,1,.153-.37A.52.52,0,0,1,180.227,330.2Z" transform="translate(-162.492 -299.38)"/>
      <path id="Trazado_1036888" data-name="Trazado 1036888" d="M273.886,165.049a1.788,1.788,0,1,0-1.265.524A1.776,1.776,0,0,0,273.886,165.049Zm-1.744-1.265a.48.48,0,1,1,.14.339A.477.477,0,0,1,272.142,163.784Z" transform="translate(-247.203 -147.858)"/>
      <path id="Trazado_1036889" data-name="Trazado 1036889" d="M353.5,175.071a.654.654,0,1,0,.655.654.654.654,0,0,0-.655-.654Z" transform="translate(-322.064 -159.793)"/>
      <path id="Trazado_1036890" data-name="Trazado 1036890" d="M324.905,183.077a.654.654,0,0,0-.654-.654h0a.654.654,0,1,0,.655.654Z" transform="translate(-295.363 -166.503)"/>
      <path id="Trazado_1036891" data-name="Trazado 1036891" d="M346.788,205.135a.654.654,0,0,0-.654-.654h0a.654.654,0,1,0,.655.654Z" transform="translate(-315.337 -186.637)"/>
      <path id="Trazado_1036892" data-name="Trazado 1036892" d="M175.153,272.97a.654.654,0,1,0,0-1.309h0a.654.654,0,1,0,0,1.309Z" transform="translate(-159.273 -247.955)"/>
      <path id="Trazado_1036893" data-name="Trazado 1036893" d="M153.883,294.372a.654.654,0,0,0-.654-.654h0a.654.654,0,1,0,.655.654Z" transform="translate(-139.262 -268.088)"/>
      <path id="Trazado_1036894" data-name="Trazado 1036894" d="M182.656,302.379a.654.654,0,1,0,0-1.309h0a.654.654,0,1,0,0,1.309Z" transform="translate(-166.122 -274.798)"/>
      <path id="Trazado_1036895" data-name="Trazado 1036895" d="M134.412,376.336a.654.654,0,1,0,.655.654.654.654,0,0,0-.655-.654Z" transform="translate(-122.088 -343.498)"/>
      <path id="Trazado_1036896" data-name="Trazado 1036896" d="M161.786,382.984a.654.654,0,1,0,0-1.309h0a.654.654,0,0,0,0,1.309Z" transform="translate(-147.072 -348.371)"/>
      <path id="Trazado_1036897" data-name="Trazado 1036897" d="M122.869,317.6a2.014,2.014,0,1,0,0,2.85A2.017,2.017,0,0,0,122.869,317.6Zm-.925,1.924a.706.706,0,1,1,0-1A.7.7,0,0,1,121.944,319.527Z" transform="translate(-109.01 -289.35)"/>
      <path id="Trazado_1036898" data-name="Trazado 1036898" d="M61.6,57.357l2.372-2.372,1.141,1.141a.654.654,0,0,0,.925-.925L64.9,54.06l2.372-2.372,1.141,1.141a.654.654,0,0,0,.925-.925l-1.158-1.158a9.2,9.2,0,0,0,1.761-3.052l1.582.424a.654.654,0,0,0,.339-1.264L70.28,46.43a9.348,9.348,0,0,0,0-3.522l1.584-.424a.654.654,0,0,0-.339-1.264l-1.582.424a9.2,9.2,0,0,0-1.761-3.052l1.158-1.158a.654.654,0,0,0-.925-.925l-1.158,1.157A9.2,9.2,0,0,0,64.2,35.905l.424-1.582a.654.654,0,0,0-1.264-.339l-.424,1.584a9.348,9.348,0,0,0-3.522,0l-.424-1.584a.654.654,0,0,0-1.264.339l.424,1.582A9.2,9.2,0,0,0,55.1,37.666l-1.158-1.158a.654.654,0,0,0-.925.925l1.141,1.141-2.372,2.372-1.141-1.141a.654.654,0,0,0-.925.925l1.141,1.141-2.372,2.372L47.35,43.1a.654.654,0,1,0-.925.925l1.141,1.141-2.372,2.372L44.053,46.4a.654.654,0,0,0-.925.925l1.141,1.141L41.9,50.838,40.756,49.7a.654.654,0,1,0-.925.925l1.141,1.141L38.6,54.136l-1.141-1.141a.654.654,0,0,0-.925.925l1.158,1.158a9.2,9.2,0,0,0-1.761,3.052l-1.582-.424a.654.654,0,1,0-.339,1.264l1.584.424a9.348,9.348,0,0,0,0,3.522l-1.584.424a.654.654,0,1,0,.339,1.264l1.582-.424a9.2,9.2,0,0,0,1.761,3.052L36.533,68.39a.654.654,0,1,0,.925.925l1.158-1.158a9.2,9.2,0,0,0,3.052,1.761L41.244,71.5a.654.654,0,1,0,1.264.339l.424-1.584a9.341,9.341,0,0,0,3.522,0l.424,1.584a.654.654,0,1,0,1.264-.339l-.424-1.582a9.2,9.2,0,0,0,3.052-1.761l1.158,1.158a.654.654,0,1,0,.925-.925l-1.141-1.141,2.372-2.372,1.141,1.141a.654.654,0,0,0,.925-.925L55.01,63.952l2.372-2.372,1.141,1.141a.654.654,0,1,0,.925-.925l-1.141-1.141,2.372-2.372,1.141,1.141a.654.654,0,0,0,.925-.925ZM39.062,66.786a7.973,7.973,0,0,1,0-11.263L55.548,39.038A7.964,7.964,0,0,1,66.81,50.3l-6.594,6.594h0l-9.891,9.891a7.973,7.973,0,0,1-11.263,0Z" transform="translate(-30.598 -30.573)"/>
      <path id="Trazado_1036899" data-name="Trazado 1036899" d="M5.841,68.406A4.2,4.2,0,0,0,8.17,63.181a1.445,1.445,0,0,1,.01-.961,1.463,1.463,0,0,1,.618-.747,4.2,4.2,0,1,0-6.145-2.229,1.445,1.445,0,0,1-.01.961,1.463,1.463,0,0,1-.618.747,4.2,4.2,0,0,0,.464,7.424A4.237,4.237,0,0,0,5.841,68.406ZM3.02,67.18A2.889,2.889,0,0,1,2.7,62.072a2.776,2.776,0,0,0,1.17-1.42,2.758,2.758,0,0,0,.018-1.834,2.893,2.893,0,0,1,2.732-3.827,2.89,2.89,0,0,1,1.5,5.362,2.756,2.756,0,0,0-1.188,3.254,2.854,2.854,0,0,1-.018,1.924A2.92,2.92,0,0,1,3.02,67.18Z" transform="translate(0 -48.994)"/>
      <path id="Trazado_1036900" data-name="Trazado 1036900" d="M389.181,329.194a4.123,4.123,0,0,0-2.084-1.781,1.4,1.4,0,0,1-.7-.6,1.413,1.413,0,0,1-.169-.921,4.115,4.115,0,1,0-5.545,3.209,1.4,1.4,0,0,1,.7.6,1.413,1.413,0,0,1,.169.921,4.121,4.121,0,0,0,.86,3.21.654.654,0,0,0,1.019-.821,2.741,2.741,0,0,1-.163-.225,2.8,2.8,0,0,1-.424-1.963,2.706,2.706,0,0,0-1.7-2.948,2.806,2.806,0,0,1-.216-5.142,2.805,2.805,0,0,1,4,2.953,2.707,2.707,0,0,0,1.7,2.948,2.806,2.806,0,0,1,.216,5.142,2.728,2.728,0,0,1-1.247.28h-.008a.654.654,0,0,0-.007,1.309h.047a4.113,4.113,0,0,0,3.552-6.17Z" transform="translate(-345.06 -293.119)"/>
      <path id="Trazado_1036901" data-name="Trazado 1036901" d="M446.46,416.381a1.7,1.7,0,0,0,.754-.173,1.759,1.759,0,0,0-.132-3.224,3.719,3.719,0,0,1-.655-.33,1.091,1.091,0,0,0-1.676.968,3.77,3.77,0,0,1-.041.735,1.735,1.735,0,0,0,.266,1.231,1.783,1.783,0,0,0,1.484.793Zm-.387-1.507a.434.434,0,0,1-.07-.316,5.065,5.065,0,0,0,.057-.6,4.985,4.985,0,0,0,.552.252.435.435,0,0,1,.226.194.442.442,0,0,1,.04.357.447.447,0,0,1-.239.276A.47.47,0,0,1,446.073,414.874Z" transform="translate(-405.89 -376.491)"/>
      <path id="Trazado_1036902" data-name="Trazado 1036902" d="M408.253,348.976a1.782,1.782,0,0,0-1.484-.793,1.7,1.7,0,0,0-.754.173,1.759,1.759,0,0,0,.132,3.224,3.72,3.72,0,0,1,.655.329,1.091,1.091,0,0,0,1.676-.968,3.781,3.781,0,0,1,.041-.735A1.735,1.735,0,0,0,408.253,348.976ZM407.17,351h0Zm.056-.99a5.079,5.079,0,0,0-.057.6,5,5,0,0,0-.552-.252.435.435,0,0,1-.226-.194.442.442,0,0,1-.04-.357.447.447,0,0,1,.239-.276.4.4,0,0,1,.179-.04.467.467,0,0,1,.387.2A.436.436,0,0,1,407.226,350.006Z" transform="translate(-369.684 -317.801)"/>
      <path id="Trazado_1036903" data-name="Trazado 1036903" d="M30.952,154.58a1.784,1.784,0,0,0,.011-1.2,3.806,3.806,0,0,1-.177-.764,1.1,1.1,0,0,0-1.84-.67,3.861,3.861,0,0,1-.629.474,1.782,1.782,0,0,0-.792,1.022,1.824,1.824,0,0,0,.989,2.169c.04.018.082.035.123.05A1.8,1.8,0,0,0,30.952,154.58Zm-1.23-.448a.49.49,0,0,1-.676.282.5.5,0,0,1-.269-.592A.486.486,0,0,1,29,153.54a5.155,5.155,0,0,0,.554-.387,5.111,5.111,0,0,0,.177.652A.48.48,0,0,1,29.722,154.133Z" transform="translate(-25.055 -138.414)"/>
      <path id="Trazado_1036904" data-name="Trazado 1036904" d="M55.479,84.288a1.1,1.1,0,0,0,1.84.67h0a3.863,3.863,0,0,1,.629-.474,1.783,1.783,0,0,0,.792-1.022,1.824,1.824,0,0,0-.989-2.169c-.04-.018-.081-.034-.122-.05a1.808,1.808,0,0,0-2.315,1.079,1.783,1.783,0,0,0-.011,1.2A3.813,3.813,0,0,1,55.479,84.288Zm1.064-1.518a.494.494,0,0,1,.637-.3.531.531,0,0,1,.308.608.486.486,0,0,1-.218.283,5.157,5.157,0,0,0-.554.387,5.1,5.1,0,0,0-.177-.652A.48.48,0,0,1,56.543,82.77Z" transform="translate(-50.387 -74.051)"/>
      <path id="Trazado_1036905" data-name="Trazado 1036905" d="M116.6,4.715a4.205,4.205,0,0,0,.052.425,4.122,4.122,0,0,0,1,2.045.654.654,0,0,0,.973-.876,2.825,2.825,0,0,1,2.7-4.647,2.707,2.707,0,0,0,1.619,4.511,2.8,2.8,0,0,1-1.724,1.03,2.847,2.847,0,0,1-.372.041.654.654,0,0,0,.028,1.308,4.575,4.575,0,0,0,.571-.06,4.132,4.132,0,0,0,1.652-7.453A4.1,4.1,0,0,0,120,.353a4.15,4.15,0,0,0-1.115.364,2.392,2.392,0,1,0-2.289,4Zm6.909.159a1.395,1.395,0,0,1-.924-2.572,2.829,2.829,0,0,1,.924,2.572Zm-6.51-3.544a1.084,1.084,0,0,1,.8.172,4.143,4.143,0,0,0-1.076,1.873,1.082,1.082,0,0,1,.275-2.045Z" transform="translate(-104.774)"/>
      <path id="Trazado_1036906" data-name="Trazado 1036906" d="M325.977,404a1.962,1.962,0,1,0,1.962,1.962A1.964,1.964,0,0,0,325.977,404Zm0,2.614a.653.653,0,1,1,.653-.653A.654.654,0,0,1,325.977,406.615Z" transform="translate(-295.745 -368.749)"/>
      <path id="Trazado_1036907" data-name="Trazado 1036907" d="M268.989,447.058a2.833,2.833,0,1,0,2.833,2.833A2.836,2.836,0,0,0,268.989,447.058Zm0,4.357a1.524,1.524,0,1,1,1.524-1.524,1.526,1.526,0,0,1-1.524,1.524Z" transform="translate(-242.934 -408.049)"/>
    </g>
  </g>
</svg>
