<svg xmlns="http://www.w3.org/2000/svg" width="70" height="70" viewBox="0 0 70 70">
  <g id="Grupo_1202565" data-name="Grupo 1202565" transform="translate(-620.924 -2907)">
    <circle id="Elipse_12372" data-name="Elipse 12372" cx="35" cy="35" r="35" transform="translate(620.924 2907)" fill="#26c790"/>
    <g id="Grupo_1202564" data-name="Grupo 1202564" transform="translate(632.924 2925)">
      <path id="Trazado_1036908" data-name="Trazado 1036908" d="M41.34,1.531H34.45a6.9,6.9,0,0,0-6.89,6.89v3.828H26.029v4.593h1.486a6.9,6.9,0,0,1-6.845,6.124H19.139a6.9,6.9,0,0,1-6.845-6.124H13.78V12.249H12.249V4.593H13.78V0H0V4.593H1.531v7.656H0v4.593H1.55a17.639,17.639,0,0,0,10.7,15.438,13.03,13.03,0,0,1,3.1,3.943,5.008,5.008,0,0,1-.522,2.933c-.567,1.558-1.21,3.322-.153,4.906a3.4,3.4,0,0,0,2.866,1.755,3.743,3.743,0,0,0,3-1.755c.655-.985.421-2.285.153-3.79-.427-2.373-.86-4.823,1.731-6.674.449-.044.893-.11,1.332-.188,1.059.465,1.571,1.048,1.51,1.737a2.324,2.324,0,0,0,.952,2.241,2.234,2.234,0,0,0,1.23.36,2.407,2.407,0,0,0,1.136-.285,2.45,2.45,0,0,0,1.269-2.245c0-.353-.017-.689-.035-1.016a6.21,6.21,0,0,1,.579-3.457,17.609,17.609,0,0,0,7.859-13.9h1.55V12.249H38.278v-.766a.766.766,0,0,1,.766-.766h2.3v1.531h4.593V0H41.34Zm-39.809,0H12.249V3.062H1.531ZM3.062,4.593h7.656v7.656H3.062ZM1.531,13.78H12.249v1.531H1.531ZM19.186,40.542c.2,1.132.4,2.2.082,2.67a2.235,2.235,0,0,1-1.728,1.072,1.991,1.991,0,0,1-1.592-1.072c-.625-.937-.166-2.2.319-3.532a6.062,6.062,0,0,0,.536-3.941,8.637,8.637,0,0,0-1.56-2.494,17.584,17.584,0,0,0,3.9.44H20.1C18.351,35.9,18.822,38.521,19.186,40.542Zm9.11-6.261c.017.3.033.613.033.935a.932.932,0,0,1-.465.9.8.8,0,0,1-.8,0,.862.862,0,0,1-.273-.828,2.81,2.81,0,0,0-.977-2.365A17.484,17.484,0,0,0,28.4,31.9a8.979,8.979,0,0,0-.105,2.383ZM20.67,32.154H19.139c-.348,0-.689-.029-1.033-.05l-1.057-2.642,3.963-1.977-.684-1.37-4.251,2.122-2.72-1.364-.684,1.37,2.8,1.4.9,2.255A16.1,16.1,0,0,1,3.08,16.842h7.672A8.433,8.433,0,0,0,19.139,24.5H20.67a8.433,8.433,0,0,0,8.387-7.656h7.672A16.1,16.1,0,0,1,20.67,32.154ZM38.278,15.311H27.56V13.78H38.278Zm.766-6.124a2.3,2.3,0,0,0-2.3,2.3v.766H29.091V8.421A5.366,5.366,0,0,1,34.45,3.062h6.89V9.187ZM44.4,1.531v9.187H42.871V1.531Zm0,0"/>
      <path id="Trazado_1036909" data-name="Trazado 1036909" d="M320,51.828v1.531h1.531V51.828a2.3,2.3,0,0,1,2.3-2.3h1.531V48h-1.531A3.832,3.832,0,0,0,320,51.828Zm0,0" transform="translate(-289.378 -43.407)"/>
      <path id="Trazado_1036910" data-name="Trazado 1036910" d="M80,64h1.531v4.593H80Zm0,0" transform="translate(-72.344 -57.876)"/>
      <path id="Trazado_1036911" data-name="Trazado 1036911" d="M80,192h1.531v1.531H80Zm0,0" transform="translate(-72.344 -173.627)"/>
      <path id="Trazado_1036912" data-name="Trazado 1036912" d="M392,48h1.531v1.531H392Zm0,0" transform="translate(-354.488 -43.407)"/>
    </g>
  </g>
</svg>
