<svg xmlns="http://www.w3.org/2000/svg" width="70" height="70" viewBox="0 0 70 70">
  <g id="Grupo_1202568" data-name="Grupo 1202568" transform="translate(-1040.924 -2907)">
    <circle id="Elipse_12375" data-name="Elipse 12375" cx="35" cy="35" r="35" transform="translate(1040.924 2907)" fill="#26c790"/>
    <g id="Grupo_1202567" data-name="Grupo 1202567" transform="translate(1045.441 2919.644)">
      <g id="Grupo_1202566" data-name="Grupo 1202566" transform="translate(13.916 4.039)">
        <path id="Trazado_1036913" data-name="Trazado 1036913" d="M217.888,196.424v7.12l-5.157-7.468a.642.642,0,0,0-1.171.365v9.014a.642.642,0,0,0,1.285,0V198.5l4.924,7.13a.771.771,0,0,0,.865.332.813.813,0,0,0,.54-.813v-8.727a.642.642,0,0,0-1.285,0Z" transform="translate(-198.967 -183.053)"/>
        <path id="Trazado_1036914" data-name="Trazado 1036914" d="M68.322,47.161a.642.642,0,0,0-.642.642v1.558H65.812V47.8a.642.642,0,0,0-1.285,0v4.556a.642.642,0,1,0,1.285,0V50.646H67.68v1.714a.642.642,0,1,0,1.285,0V47.8A.642.642,0,0,0,68.322,47.161Z" transform="translate(-64.527 -47.161)"/>
        <path id="Trazado_1036915" data-name="Trazado 1036915" d="M68.322,402.491a.642.642,0,0,0,.642-.642v-4.556a.642.642,0,1,0-1.285,0v1.558H65.812v-1.558a.642.642,0,1,0-1.285,0v4.556a.642.642,0,0,0,1.285,0v-1.714H67.68v1.714A.642.642,0,0,0,68.322,402.491Z" transform="translate(-64.527 -366.717)"/>
        <path id="Trazado_1036916" data-name="Trazado 1036916" d="M399.462,396.65a.642.642,0,0,0-.642.642v1.558h-1.868v-1.558a.642.642,0,1,0-1.285,0v4.556a.642.642,0,0,0,1.285,0v-1.714h1.868v1.714a.642.642,0,0,0,1.285,0v-4.556A.642.642,0,0,0,399.462,396.65Z" transform="translate(-367.306 -366.717)"/>
      </g>
      <path id="Trazado_1036917" data-name="Trazado 1036917" d="M44.5,29.933a6.932,6.932,0,0,0-4.7,1.837L37.58,29.247A10.312,10.312,0,0,0,39.106,16.52a.642.642,0,1,0-1.094.674,9.04,9.04,0,1,1-1.827-2.135.642.642,0,0,0,.835-.976,10.308,10.308,0,0,0-13-.324L21.7,11.128a6.972,6.972,0,1,0-.861.952l2.209,2.525a10.3,10.3,0,0,0,0,14.642L20.844,31.77a6.908,6.908,0,0,0-4.709-1.837h0a6.96,6.96,0,1,0,4.6,12.187.642.642,0,0,0-.849-.965,5.675,5.675,0,1,1-3.746-9.937h0a5.679,5.679,0,0,1,5.294,7.721.642.642,0,0,0,1.2.463,6.968,6.968,0,0,0-.918-6.675l2.308-2.633a10.3,10.3,0,0,0,12.6,0l2.31,2.636a6.957,6.957,0,1,0,5.573-2.8Zm-28.361-17.3A5.675,5.675,0,1,1,21.809,6.96a5.681,5.681,0,0,1-5.675,5.675ZM44.5,42.567a5.675,5.675,0,1,1,5.675-5.675A5.681,5.681,0,0,1,44.5,42.567Z" transform="translate(0 0)"/>
    </g>
  </g>
</svg>
