<svg xmlns="http://www.w3.org/2000/svg" xmlns:xlink="http://www.w3.org/1999/xlink" width="313" height="257.248" viewBox="0 0 313 257.248">
  <defs>
    <filter id="joven-agricultor-pasar-tiempo-con-sus-cabras-en-la-granja" x="0" y="0" width="313" height="257.248" filterUnits="userSpaceOnUse">
      <feOffset dy="3" input="SourceAlpha"/>
      <feGaussianBlur stdDeviation="3" result="blur"/>
      <feFlood flood-opacity="0.161"/>
      <feComposite operator="in" in2="blur"/>
      <feComposite in="SourceGraphic"/>
    </filter>
  </defs>
  <g id="Grupo_1202605" data-name="Grupo 1202605" transform="translate(-295.924 -5757)">
    <g transform="matrix(1, 0, 0, 1, 295.92, 5757)" filter="url(#joven-agricultor-pasar-tiempo-con-sus-cabras-en-la-granja)">
      <rect id="joven-agricultor-pasar-tiempo-con-sus-cabras-en-la-granja-2" data-name="joven-agricultor-pasar-tiempo-con-sus-cabras-en-la-granja" width="295" height="239.248" rx="10" transform="translate(9 6)" fill="#a2b4e2"/>
    </g>
    <g id="Grupo_1202604" data-name="Grupo 1202604" transform="translate(308.591 5720.372)">
      <g id="Grupo_1202590" data-name="Grupo 1202590" transform="translate(17.333 53.628)">
        <circle id="Elipse_12461" data-name="Elipse 12461" cx="68.178" cy="68.178" r="68.178" transform="translate(110.693 43.46)" fill="#d0d9f1"/>
        <circle id="Elipse_12462" data-name="Elipse 12462" cx="77.184" cy="77.184" r="77.184" transform="translate(16.498 7.36)" fill="#d0d9f1"/>
        <g id="Grupo_1202573" data-name="Grupo 1202573" transform="translate(114.867)">
          <g id="Grupo_1202572" data-name="Grupo 1202572">
            <line id="Línea_756" data-name="Línea 756" y1="125.447" transform="translate(35.033 16.948)" fill="none" stroke="#3d8e6d" stroke-linecap="round" stroke-linejoin="round" stroke-width="2"/>
            <path id="Trazado_1036918" data-name="Trazado 1036918" d="M290.832,145.063s3.36-22.038,25.285-22.038" transform="translate(-255.799 -84.99)" fill="none" stroke="#3d8e6d" stroke-linecap="round" stroke-linejoin="round" stroke-width="2"/>
            <path id="Trazado_1036919" data-name="Trazado 1036919" d="M286.419,53.628s-12.041,14.335,0,32.875C298.461,67.963,286.419,53.628,286.419,53.628Z" transform="translate(-251.386 -53.628)" fill="#5c7e2a"/>
            <path id="Trazado_1036920" data-name="Trazado 1036920" d="M336.272,111.124s-15.932-6.732-26.544,10.305C329.056,126.843,336.272,111.124,336.272,111.124Z" transform="translate(-264.338 -79.019)" fill="#5c7e2a"/>
            <g id="Grupo_1202569" data-name="Grupo 1202569" transform="translate(0 22.3)">
              <path id="Trazado_1036921" data-name="Trazado 1036921" d="M273.339,124.116s-2.1-23.061-21.216-23.061" transform="translate(-238.306 -97.361)" fill="none" stroke="#3d8e6d" stroke-linecap="round" stroke-linejoin="round" stroke-width="2"/>
              <path id="Trazado_1036922" data-name="Trazado 1036922" d="M254.547,103.472s-9.147-14.679-27.634-6.865C239.595,112.165,254.547,103.472,254.547,103.472Z" transform="translate(-226.913 -94.316)" fill="#5c7e2a"/>
            </g>
            <g id="Grupo_1202570" data-name="Grupo 1202570" transform="translate(0 44.25)">
              <path id="Trazado_1036923" data-name="Trazado 1036923" d="M273.339,164.164s-2.1-23.061-21.216-23.061" transform="translate(-238.306 -137.41)" fill="none" stroke="#3d8e6d" stroke-linecap="round" stroke-linejoin="round" stroke-width="2"/>
              <path id="Trazado_1036924" data-name="Trazado 1036924" d="M254.547,143.521s-9.147-14.679-27.634-6.864C239.595,152.214,254.547,143.521,254.547,143.521Z" transform="translate(-226.913 -134.365)" fill="#5c7e2a"/>
            </g>
            <g id="Grupo_1202571" data-name="Grupo 1202571" transform="translate(0 66.2)">
              <path id="Trazado_1036925" data-name="Trazado 1036925" d="M273.339,204.213s-2.1-23.061-21.216-23.061" transform="translate(-238.306 -177.458)" fill="none" stroke="#3d8e6d" stroke-linecap="round" stroke-linejoin="round" stroke-width="2"/>
              <path id="Trazado_1036926" data-name="Trazado 1036926" d="M254.547,183.569S245.4,168.89,226.913,176.7C239.595,192.262,254.547,183.569,254.547,183.569Z" transform="translate(-226.913 -174.413)" fill="#5c7e2a"/>
            </g>
          </g>
          <circle id="Elipse_12463" data-name="Elipse 12463" cx="4.282" cy="4.282" r="4.282" transform="translate(35.033 36.307)" fill="#3d8e6d"/>
          <circle id="Elipse_12464" data-name="Elipse 12464" cx="4.282" cy="4.282" r="4.282" transform="translate(24.425 36.307)" fill="#3d8e6d"/>
          <circle id="Elipse_12465" data-name="Elipse 12465" cx="4.282" cy="4.282" r="4.282" transform="translate(24.425 57.636)" fill="#3d8e6d"/>
          <circle id="Elipse_12466" data-name="Elipse 12466" cx="4.282" cy="4.282" r="4.282" transform="translate(35.033 86.414)" fill="#3d8e6d"/>
        </g>
        <g id="Grupo_1202578" data-name="Grupo 1202578" transform="translate(0 21.757)">
          <g id="Grupo_1202577" data-name="Grupo 1202577">
            <line id="Línea_757" data-name="Línea 757" y1="125.447" transform="translate(35.033 16.947)" fill="none" stroke="#3d8e6d" stroke-linecap="round" stroke-linejoin="round" stroke-width="2"/>
            <path id="Trazado_1036927" data-name="Trazado 1036927" d="M81.251,184.759s3.36-22.038,25.285-22.038" transform="translate(-46.219 -124.686)" fill="none" stroke="#3d8e6d" stroke-linecap="round" stroke-linejoin="round" stroke-width="2"/>
            <path id="Trazado_1036928" data-name="Trazado 1036928" d="M76.838,93.325s-12.041,14.335,0,32.875C88.88,107.66,76.838,93.325,76.838,93.325Z" transform="translate(-41.806 -93.325)" fill="#5c7e2a"/>
            <path id="Trazado_1036929" data-name="Trazado 1036929" d="M126.691,150.821s-15.932-6.732-26.544,10.305C119.475,166.54,126.691,150.821,126.691,150.821Z" transform="translate(-54.758 -118.716)" fill="#5c7e2a"/>
            <g id="Grupo_1202574" data-name="Grupo 1202574" transform="translate(0 22.3)">
              <path id="Trazado_1036930" data-name="Trazado 1036930" d="M63.758,163.812s-2.1-23.06-21.215-23.06" transform="translate(-28.726 -137.058)" fill="none" stroke="#3d8e6d" stroke-linecap="round" stroke-linejoin="round" stroke-width="2"/>
              <path id="Trazado_1036931" data-name="Trazado 1036931" d="M44.967,143.169S35.82,128.489,17.333,136.3C30.015,151.862,44.967,143.169,44.967,143.169Z" transform="translate(-17.333 -134.013)" fill="#5c7e2a"/>
            </g>
            <g id="Grupo_1202575" data-name="Grupo 1202575" transform="translate(0 44.25)">
              <path id="Trazado_1036932" data-name="Trazado 1036932" d="M63.758,203.861S61.656,180.8,42.543,180.8" transform="translate(-28.726 -177.106)" fill="none" stroke="#3d8e6d" stroke-linecap="round" stroke-linejoin="round" stroke-width="2"/>
              <path id="Trazado_1036933" data-name="Trazado 1036933" d="M44.967,183.217s-9.146-14.679-27.634-6.865C30.015,191.91,44.967,183.217,44.967,183.217Z" transform="translate(-17.333 -174.061)" fill="#5c7e2a"/>
            </g>
            <g id="Grupo_1202576" data-name="Grupo 1202576" transform="translate(0 66.2)">
              <path id="Trazado_1036934" data-name="Trazado 1036934" d="M63.758,243.909s-2.1-23.06-21.215-23.06" transform="translate(-28.726 -217.155)" fill="none" stroke="#3d8e6d" stroke-linecap="round" stroke-linejoin="round" stroke-width="2"/>
              <path id="Trazado_1036935" data-name="Trazado 1036935" d="M44.967,223.266S35.82,208.586,17.333,216.4C30.015,231.959,44.967,223.266,44.967,223.266Z" transform="translate(-17.333 -214.11)" fill="#5c7e2a"/>
            </g>
          </g>
          <circle id="Elipse_12467" data-name="Elipse 12467" cx="4.282" cy="4.282" r="4.282" transform="translate(35.033 36.307)" fill="#3d8e6d"/>
          <circle id="Elipse_12468" data-name="Elipse 12468" cx="4.282" cy="4.282" r="4.282" transform="translate(24.425 36.307)" fill="#3d8e6d"/>
          <circle id="Elipse_12469" data-name="Elipse 12469" cx="4.282" cy="4.282" r="4.282" transform="translate(24.425 57.635)" fill="#3d8e6d"/>
          <circle id="Elipse_12470" data-name="Elipse 12470" cx="4.282" cy="4.282" r="4.282" transform="translate(35.033 86.414)" fill="#3d8e6d"/>
        </g>
        <g id="Grupo_1202583" data-name="Grupo 1202583" transform="translate(180.526 38.323)">
          <g id="Grupo_1202582" data-name="Grupo 1202582">
            <line id="Línea_758" data-name="Línea 758" y1="125.447" transform="translate(35.033 16.948)" fill="none" stroke="#3d8e6d" stroke-linecap="round" stroke-linejoin="round" stroke-width="2"/>
            <path id="Trazado_1036936" data-name="Trazado 1036936" d="M410.628,214.984s3.359-22.038,25.284-22.038" transform="translate(-375.595 -154.911)" fill="none" stroke="#3d8e6d" stroke-linecap="round" stroke-linejoin="round" stroke-width="2"/>
            <path id="Trazado_1036937" data-name="Trazado 1036937" d="M406.215,123.549s-12.041,14.335,0,32.875C418.257,137.884,406.215,123.549,406.215,123.549Z" transform="translate(-371.182 -123.549)" fill="#5c7e2a"/>
            <path id="Trazado_1036938" data-name="Trazado 1036938" d="M456.068,181.046s-15.932-6.732-26.544,10.305C448.851,196.764,456.068,181.046,456.068,181.046Z" transform="translate(-384.134 -148.94)" fill="#5c7e2a"/>
            <g id="Grupo_1202579" data-name="Grupo 1202579" transform="translate(0 22.3)">
              <path id="Trazado_1036939" data-name="Trazado 1036939" d="M393.135,194.037s-2.1-23.061-21.216-23.061" transform="translate(-358.102 -167.283)" fill="none" stroke="#3d8e6d" stroke-linecap="round" stroke-linejoin="round" stroke-width="2"/>
              <path id="Trazado_1036940" data-name="Trazado 1036940" d="M374.343,173.393s-9.147-14.679-27.634-6.865C359.391,182.086,374.343,173.393,374.343,173.393Z" transform="translate(-346.709 -164.237)" fill="#5c7e2a"/>
            </g>
            <g id="Grupo_1202580" data-name="Grupo 1202580" transform="translate(0 44.25)">
              <path id="Trazado_1036941" data-name="Trazado 1036941" d="M393.135,234.085s-2.1-23.06-21.216-23.06" transform="translate(-358.102 -207.331)" fill="none" stroke="#3d8e6d" stroke-linecap="round" stroke-linejoin="round" stroke-width="2"/>
              <path id="Trazado_1036942" data-name="Trazado 1036942" d="M374.343,213.442s-9.147-14.679-27.634-6.864C359.391,222.135,374.343,213.442,374.343,213.442Z" transform="translate(-346.709 -204.286)" fill="#5c7e2a"/>
            </g>
            <g id="Grupo_1202581" data-name="Grupo 1202581" transform="translate(0 66.2)">
              <path id="Trazado_1036943" data-name="Trazado 1036943" d="M393.135,274.134s-2.1-23.061-21.216-23.061" transform="translate(-358.102 -247.38)" fill="none" stroke="#3d8e6d" stroke-linecap="round" stroke-linejoin="round" stroke-width="2"/>
              <path id="Trazado_1036944" data-name="Trazado 1036944" d="M374.343,253.49s-9.147-14.679-27.634-6.865C359.391,262.183,374.343,253.49,374.343,253.49Z" transform="translate(-346.709 -244.334)" fill="#5c7e2a"/>
            </g>
          </g>
          <circle id="Elipse_12471" data-name="Elipse 12471" cx="4.282" cy="4.282" r="4.282" transform="translate(35.033 36.307)" fill="#3d8e6d"/>
          <circle id="Elipse_12472" data-name="Elipse 12472" cx="4.282" cy="4.282" r="4.282" transform="translate(24.425 36.307)" fill="#3d8e6d"/>
          <circle id="Elipse_12473" data-name="Elipse 12473" cx="4.282" cy="4.282" r="4.282" transform="translate(24.425 57.636)" fill="#3d8e6d"/>
          <circle id="Elipse_12474" data-name="Elipse 12474" cx="4.282" cy="4.282" r="4.282" transform="translate(35.033 86.414)" fill="#3d8e6d"/>
        </g>
        <g id="Grupo_1202589" data-name="Grupo 1202589" transform="translate(38.947 84.626)">
          <g id="Grupo_1202584" data-name="Grupo 1202584" transform="translate(4.806 4.651)">
            <path id="Trazado_1036945" data-name="Trazado 1036945" d="M99.962,216.518h0c-1.546,0-2.8,3.064-2.8,6.845s1.253,6.844,2.8,6.844h85.533V216.518Z" transform="translate(-97.163 -216.518)" fill="#034e51"/>
            <ellipse id="Elipse_12475" data-name="Elipse 12475" cx="2.798" cy="6.845" rx="2.798" ry="6.845" transform="translate(85.533)" fill="#fff" stroke="#231f20" stroke-linecap="round" stroke-linejoin="round" stroke-width="5"/>
          </g>
          <g id="Grupo_1202586" data-name="Grupo 1202586">
            <path id="Trazado_1036946" data-name="Trazado 1036946" d="M175.931,365.284v.021l-.029-.021c-44.085,0-76.043,3.412-79.817,8.713,0,4.809,35.728,20.18,79.817,20.2l.029-.035v.035c44.089-.019,79.817-15.39,79.817-20.2C251.975,368.7,220.016,365.288,175.931,365.284Z" transform="translate(-91.87 -279.096)" fill="#91b3aa"/>
            <path id="Trazado_1036947" data-name="Trazado 1036947" d="M255.331,334.994c-.471,22.195-155.449,22.195-155.921,0l4.261-8.4,35.146-69.276h77.106L251.1,326.645Z" transform="translate(-93.372 -230.305)" fill="#c4d9d4"/>
            <ellipse id="Elipse_12476" data-name="Elipse 12476" cx="38.553" cy="5.909" rx="38.553" ry="5.909" transform="translate(45.445 21.104)" fill="#034e51"/>
            <path id="Trazado_1036948" data-name="Trazado 1036948" d="M255.331,392.114c-.471,22.195-155.449,22.195-155.921,0l4.261-8.4c.323.17.659.34,1,.507,4.441,2.158,10.712,4.015,18.64,5.521,14.341,2.723,33.56,4.225,54.118,4.228s39.777-1.5,54.116-4.228c7.928-1.506,14.2-3.362,18.639-5.521q.467-.226.906-.457Z" transform="translate(-93.372 -287.425)" fill="#91b3aa"/>
            <path id="Trazado_1036949" data-name="Trazado 1036949" d="M255.851,388.18l-3.55-7a24.462,24.462,0,0,1-6.071,3.991c-4.625,2.247-11.092,4.17-19.223,5.714-14.478,2.75-33.848,4.266-54.551,4.27s-40.074-1.52-54.551-4.27c-8.131-1.544-14.6-3.467-19.223-5.714a24.462,24.462,0,0,1-6.071-3.991l-3.55,7a6.174,6.174,0,0,0-.664,2.921,11.856,11.856,0,0,0,3.532,8.032,23.167,23.167,0,0,0,6.753,4.665c4.625,2.246,11.092,4.168,19.223,5.712,14.478,2.751,33.848,4.267,54.551,4.27s40.074-1.518,54.551-4.27c8.131-1.544,14.6-3.466,19.223-5.712a23.167,23.167,0,0,0,6.753-4.665,11.856,11.856,0,0,0,3.532-8.032A6.174,6.174,0,0,0,255.851,388.18Z" transform="translate(-88.393 -286.28)" fill="#c4d9d4"/>
            <path id="Trazado_1036950" data-name="Trazado 1036950" d="M233.552,208.031h0a12.842,12.842,0,0,0-12.843,12.843v15.353c0,2.318,25.685,2.318,25.685,0V220.874A12.842,12.842,0,0,0,233.552,208.031Z" transform="translate(-148.189 -208.031)" fill="#c4d9d4"/>
            <g id="Grupo_1202585" data-name="Grupo 1202585" transform="translate(26.94 44.473)">
              <path id="Trazado_1036951" data-name="Trazado 1036951" d="M141.933,339.6h0a4.381,4.381,0,0,1-3.957-6.261l20.217-42.558a2.816,2.816,0,0,1,2.545-1.609h0a2.817,2.817,0,0,1,2.619,3.855l-17.35,43.805A4.381,4.381,0,0,1,141.933,339.6Z" transform="translate(-137.547 -289.173)" fill="#91b3aa"/>
              <path id="Trazado_1036952" data-name="Trazado 1036952" d="M189.876,339.6h0a4.658,4.658,0,0,1-4.511-5.818l10.895-42.35a3.01,3.01,0,0,1,2.915-2.26h0a3.009,3.009,0,0,1,2.962,3.537l-7.675,43.05A4.657,4.657,0,0,1,189.876,339.6Z" transform="translate(-159.089 -289.173)" fill="#91b3aa"/>
              <path id="Trazado_1036953" data-name="Trazado 1036953" d="M237.724,339.6h0a4.763,4.763,0,0,1-4.759-4.951l1.679-42.516a3.083,3.083,0,0,1,3.08-2.961h0a3.082,3.082,0,0,1,3.08,2.961l1.679,42.516A4.763,4.763,0,0,1,237.724,339.6Z" transform="translate(-180.666 -289.173)" fill="#91b3aa"/>
              <path id="Trazado_1036954" data-name="Trazado 1036954" d="M279.433,339.6h0a4.658,4.658,0,0,1-4.585-3.84l-7.675-43.05a3.009,3.009,0,0,1,2.962-3.537h0a3.01,3.01,0,0,1,2.915,2.26l10.895,42.35A4.658,4.658,0,0,1,279.433,339.6Z" transform="translate(-196.105 -289.173)" fill="#91b3aa"/>
              <path id="Trazado_1036955" data-name="Trazado 1036955" d="M319.922,339.6h0a4.381,4.381,0,0,1-4.073-2.768L298.5,293.028a2.817,2.817,0,0,1,2.619-3.855h0a2.816,2.816,0,0,1,2.544,1.609l20.217,42.558A4.381,4.381,0,0,1,319.922,339.6Z" transform="translate(-210.193 -289.173)" fill="#91b3aa"/>
            </g>
          </g>
          <g id="Grupo_1202588" data-name="Grupo 1202588" transform="translate(83.312 4.651)">
            <g id="Grupo_1202587" data-name="Grupo 1202587">
              <path id="Trazado_1036956" data-name="Trazado 1036956" d="M243.2,216.518h0c-1.545,0-2.8,3.064-2.8,6.845s1.253,6.844,2.8,6.844h80.567V216.518Z" transform="translate(-240.399 -216.518)" fill="#034e51"/>
              <ellipse id="Elipse_12477" data-name="Elipse 12477" cx="2.798" cy="6.845" rx="2.798" ry="6.845" transform="translate(80.567)" fill="#023436"/>
            </g>
          </g>
        </g>
      </g>
      <g id="Grupo_1202593" data-name="Grupo 1202593" transform="translate(19.916 172.359)">
        <path id="Trazado_1036957" data-name="Trazado 1036957" d="M205.43,415.877a1.394,1.394,0,0,1-.977.543.782.782,0,0,1-.447-1.413,3.616,3.616,0,0,1-1.215.731,1.231,1.231,0,0,1-1.3-.334,1.175,1.175,0,0,1-.052-1.218,2.6,2.6,0,0,1,.881-.918,6.946,6.946,0,0,1,4.638-1.2A5.728,5.728,0,0,1,205.43,415.877Z" transform="translate(-103.05 -334.329)" fill="#cb3d0b"/>
        <path id="Trazado_1036958" data-name="Trazado 1036958" d="M126.84,411.34l10.2,14,5.344,1.439h-6.4L124.7,411.34Z" transform="translate(-68.439 -334.015)" fill="#fec132"/>
        <path id="Trazado_1036959" data-name="Trazado 1036959" d="M107.434,411.34l6.357,14,5.344,1.439h-6.4L105.3,411.34Z" transform="translate(-59.669 -334.015)" fill="#fec132"/>
        <circle id="Elipse_12478" data-name="Elipse 12478" cx="8.084" cy="8.084" r="8.084" transform="translate(48.958 62.864)" fill="#023436"/>
        <circle id="Elipse_12479" data-name="Elipse 12479" cx="8.084" cy="8.084" r="8.084" transform="translate(38.682 62.864)" fill="#023436"/>
        <path id="Trazado_1036960" data-name="Trazado 1036960" d="M119.961,334.251l-7.542-14.668s-12.116-17.79-28.353-25.607c-10.687-4.734-34.117-11.927-34.117-11.927a36.322,36.322,0,0,0-19.128-11.4,11.784,11.784,0,0,0-4.684-.245,5.117,5.117,0,0,0-3.709,2.636c-1.161,2.48.511,5.358,2.436,7.305A24.754,24.754,0,0,0,37.212,287.1a14.715,14.715,0,0,0-5.232-.281,4.718,4.718,0,0,0-3.782,2.622A4.331,4.331,0,0,0,29.2,293.9a7.116,7.116,0,0,0,4.292,2,21.176,21.176,0,0,0,4.816-.1,15.187,15.187,0,0,0-4.127,1.525,5.376,5.376,0,0,0-2.672,3.2,4.952,4.952,0,0,0,1.66,4.756,8.143,8.143,0,0,0,4.869,1.835,24.252,24.252,0,0,0,5.271-.407,23.6,23.6,0,0,0-3.877,15.266,21.6,21.6,0,0,0,6.853,13.4c4.79,4.359,11.261,6.31,17.577,7.746a160.645,160.645,0,0,0,48.36,3.475C114.75,342.505,117.437,338.342,119.961,334.251Z" transform="translate(-22.046 -270.257)" fill="#034e51"/>
        <path id="Trazado_1036961" data-name="Trazado 1036961" d="M108.973,361.634a59.705,59.705,0,0,1-7.324-8.419,64.538,64.538,0,0,1-5.123-8.945,69.98,69.98,0,0,1-4.072-10.143,37.817,37.817,0,0,1-1.757-8.887q-2.774-.864-5.613-1.5l-.321-.071a18.708,18.708,0,0,0-7.035-.51,7.619,7.619,0,0,0-5.67,3.813,7.337,7.337,0,0,0,.5,6.746c1.169,2.035,3.712,3.438,5.7,4.687-2.02-.716-4.247-1.355-6.269-.645-2.851,1-4.237,4.571-3.434,7.484s3.319,5.107,6.1,6.284a24.645,24.645,0,0,0,7.2,1.494,5,5,0,0,0-3.951,4.064c-.377,2.639,1.25,5.252,3.442,6.766a19.063,19.063,0,0,0,7.491,2.617,101.912,101.912,0,0,0,23.157,1.578q2.1-.1,4.186-.279A73.9,73.9,0,0,1,108.973,361.634Z" transform="translate(-42.961 -294.093)" fill="#f99700"/>
        <path id="Trazado_1036962" data-name="Trazado 1036962" d="M137.816,366.194a101.7,101.7,0,0,1-18.09,2.464,101.2,101.2,0,0,1-13.779-1.578,19.047,19.047,0,0,1-7.489-2.617c-2.194-1.514-3.82-4.127-3.444-6.766a5,5,0,0,1,3.951-4.064,24.645,24.645,0,0,1-7.2-1.494c-2.783-1.177-5.3-3.371-6.1-6.284s.584-6.485,3.435-7.484c2.022-.71,4.248-.071,6.267.645-1.986-1.249-4.53-2.652-5.7-4.687a7.335,7.335,0,0,1-.5-6.746,6.941,6.941,0,0,1,3.647-3.232,73.714,73.714,0,0,1,43.249,28.507,16.684,16.684,0,0,1,3.294,6.7C139.787,362.037,140.264,365.632,137.816,366.194Z" transform="translate(-50.694 -294.702)" fill="#034e51"/>
        <path id="Trazado_1036963" data-name="Trazado 1036963" d="M195.51,381.869l-16.952-23.783a8.277,8.277,0,0,0-1.8-2.013,2.8,2.8,0,0,0-2.557-.478,2.854,2.854,0,0,0-1.329,3.543,8.3,8.3,0,0,0,2.5,3.283,3.579,3.579,0,0,0-3.4,1.114,3.467,3.467,0,0,0,1.815,5.832,4.029,4.029,0,0,0-3.8,3.478,3.9,3.9,0,0,0,2.958,4.1c-2.348.095-4.224,2.786-4.522,5.117a5.19,5.19,0,0,0,3.524,5.444,10.06,10.06,0,0,0,2.978.285l20.1-.085C195.327,385.839,195.219,383.734,195.51,381.869Z" transform="translate(-88.186 -308.76)" fill="#f99700"/>
        <g id="Grupo_1202591" data-name="Grupo 1202591" transform="translate(103.294 68.021)">
          <path id="Trazado_1036964" data-name="Trazado 1036964" d="M214.9,413.447l-3.438,5.274v-8.129Z" transform="translate(-210.942 -401.697)" fill="#cb3d0b"/>
          <path id="Trazado_1036965" data-name="Trazado 1036965" d="M219.1,405.757a7.255,7.255,0,0,0,2.8,1.834,4.588,4.588,0,0,0,2.85.189,2.674,2.674,0,0,0,1.9-1.994,1.906,1.906,0,0,0-1.443-2.175,2.889,2.889,0,0,0,2.48-2.041,2.57,2.57,0,0,0-4.088-2.733,2.847,2.847,0,0,0,.271-2.923,2.7,2.7,0,0,0-2.4-1.549,3.5,3.5,0,0,0-2.912,1.951,8.616,8.616,0,0,0-.83,3.555C218.136,401.806,218.7,403.82,219.1,405.757Z" transform="translate(-213.776 -394.363)" fill="#cb3d0b"/>
          <circle id="Elipse_12480" data-name="Elipse 12480" cx="4.234" cy="4.234" r="4.234" transform="translate(0 3.962)" fill="#f7f6e2"/>
          <circle id="Elipse_12481" data-name="Elipse 12481" cx="1.108" cy="1.108" r="1.108" transform="translate(3.126 7.088)" fill="#034f4f"/>
        </g>
        <g id="Grupo_1202592" data-name="Grupo 1202592" transform="translate(12.412 7.363)">
          <path id="Trazado_1036966" data-name="Trazado 1036966" d="M86.9,366.26c-2.833-.321-6.032-1.048-7.753-3.539a5.732,5.732,0,0,1,2.032-8.164.468.468,0,0,0,.162-.144c.4.012.8.016,1.193.01a.48.48,0,0,0,0-.959c-4.726.069-10.11-.971-12.712-5.372a6.945,6.945,0,0,1-.248-6.737,5.286,5.286,0,0,1,5.328-2.68l.034,0a8.777,8.777,0,0,0,2.581.985c.6.126.86-.8.255-.925a7.758,7.758,0,0,1-5.84-5.161c-.859-2.578-.272-5.9,2.14-7.434.52-.332.039-1.162-.484-.828-2.687,1.714-3.429,5.141-2.7,8.089a8.323,8.323,0,0,0,2.671,4.294,6.313,6.313,0,0,0-4.379,2.524,7.579,7.579,0,0,0-.706,7.259c1.809,4.63,6.687,6.417,11.34,6.838a6.737,6.737,0,0,0-1.82,8.32c1.611,3.261,5.623,4.2,8.911,4.576C87.517,367.289,87.51,366.329,86.9,366.26Z" transform="translate(-55.167 -302.468)" fill="#023436"/>
          <path id="Trazado_1036967" data-name="Trazado 1036967" d="M133.313,358.4a108.977,108.977,0,0,0-38.377-17.343c-.6-.141-.857.784-.255.925a108.257,108.257,0,0,1,38.148,17.246C133.333,359.583,133.811,358.751,133.313,358.4Z" transform="translate(-67.128 -309.607)" fill="#023436"/>
          <path id="Trazado_1036968" data-name="Trazado 1036968" d="M133.19,372.51a116.2,116.2,0,0,0-31.561-8.221c-.614-.071-.607.889,0,.959a115.372,115.372,0,0,1,31.307,8.187C133.506,373.674,133.752,372.745,133.19,372.51Z" transform="translate(-70.216 -320.113)" fill="#023436"/>
          <path id="Trazado_1036969" data-name="Trazado 1036969" d="M133.964,389.362A100.347,100.347,0,0,0,106.23,387.1c-.615.036-.618.995,0,.959a99.393,99.393,0,0,1,27.479,2.226C134.311,390.422,134.567,389.5,133.964,389.362Z" transform="translate(-72.293 -330.348)" fill="#023436"/>
          <path id="Trazado_1036970" data-name="Trazado 1036970" d="M133.58,319.936a3.472,3.472,0,0,0-4.216,3.072c-.05.617.909.612.959,0a2.5,2.5,0,0,1,3-2.147C133.926,321.006,134.182,320.081,133.58,319.936Z" transform="translate(-82.956 -300.029)" fill="#023436"/>
          <path id="Trazado_1036971" data-name="Trazado 1036971" d="M137.411,346.554a77.263,77.263,0,0,0-36.867-23.194c-1.138-.322-2.286-.611-3.438-.877-.6-.139-.857.785-.255.925a76.331,76.331,0,0,1,38.092,21.855q.914.967,1.79,1.969C137.143,347.7,137.818,347.016,137.411,346.554Z" transform="translate(-68.108 -301.215)" fill="#023436"/>
          <path id="Trazado_1036972" data-name="Trazado 1036972" d="M121.773,316.752a2.85,2.85,0,0,0-4.134,2.353c-.059.615.9.61.959,0a1.875,1.875,0,0,1,2.691-1.525C121.846,317.841,122.333,317.014,121.773,316.752Z" transform="translate(-77.657 -298.496)" fill="#023436"/>
          <path id="Trazado_1036973" data-name="Trazado 1036973" d="M79.078,308.417a2.807,2.807,0,0,0-4.087,3.153c.145.6,1.07.346.925-.255a1.837,1.837,0,0,1,2.677-2.07C79.139,309.538,79.624,308.709,79.078,308.417Z" transform="translate(-58.346 -294.704)" fill="#023436"/>
          <path id="Trazado_1036974" data-name="Trazado 1036974" d="M81.622,297.906a2.383,2.383,0,0,0-3.091,2.891.48.48,0,0,0,.925-.255,1.421,1.421,0,0,1,1.912-1.712C81.95,299.042,82.2,298.115,81.622,297.906Z" transform="translate(-59.945 -290.049)" fill="#023436"/>
          <path id="Trazado_1036975" data-name="Trazado 1036975" d="M60.4,317.956a2.684,2.684,0,0,0-1.7,4.186c.35.5,1.182.026.828-.484a1.733,1.733,0,0,1,1.126-2.778C61.257,318.764,61,317.84,60.4,317.956Z" transform="translate(-50.799 -299.171)" fill="#023436"/>
          <path id="Trazado_1036976" data-name="Trazado 1036976" d="M64.534,304.01a2.428,2.428,0,0,0-2.411,3.592c.288.548,1.116.063.828-.484a1.473,1.473,0,0,1,1.583-2.149C65.147,305.049,65.139,304.088,64.534,304.01Z" transform="translate(-52.437 -292.864)" fill="#023436"/>
          <path id="Trazado_1036977" data-name="Trazado 1036977" d="M62.007,291.477a2.576,2.576,0,0,0-2.931,3.248A.48.48,0,0,0,60,294.47a1.606,1.606,0,0,1,1.751-2.068C62.357,292.49,62.617,291.566,62.007,291.477Z" transform="translate(-51.147 -287.196)" fill="#023436"/>
          <path id="Trazado_1036978" data-name="Trazado 1036978" d="M46.5,283.7a2.383,2.383,0,0,0-1.764,2.8c.123.606,1.048.349.925-.255a1.412,1.412,0,0,1,1.095-1.62C47.363,284.495,47.107,283.57,46.5,283.7Z" transform="translate(-44.692 -283.691)" fill="#023436"/>
          <path id="Trazado_1036979" data-name="Trazado 1036979" d="M200.3,394.258a1.671,1.671,0,0,0-1.731.63,1.641,1.641,0,0,0,.033,1.907c.369.486,1.2.009.828-.484s-.089-1.275.615-1.127C200.649,395.309,200.905,394.385,200.3,394.258Z" transform="translate(-114.101 -333.64)" fill="#034e51"/>
          <path id="Trazado_1036980" data-name="Trazado 1036980" d="M190.813,382.257a2.242,2.242,0,0,0-2.611,2.586c.116.607,1.04.349.925-.255a1.278,1.278,0,0,1,1.431-1.407C191.162,383.305,191.419,382.381,190.813,382.257Z" transform="translate(-109.53 -328.215)" fill="#034e51"/>
          <path id="Trazado_1036981" data-name="Trazado 1036981" d="M187.044,395.68a2.328,2.328,0,0,0-1.552,3.273c.273.555,1.1.069.828-.484a1.362,1.362,0,0,1,.979-1.865C187.9,396.484,187.647,395.559,187.044,395.68Z" transform="translate(-108.218 -334.296)" fill="#034e51"/>
          <path id="Trazado_1036982" data-name="Trazado 1036982" d="M202.055,405.623a1.957,1.957,0,0,0-1.779,2.483c.187.587,1.113.336.925-.255a.987.987,0,0,1,.854-1.269C202.671,406.558,202.673,405.6,202.055,405.623Z" transform="translate(-114.965 -338.794)" fill="#034e51"/>
          <path id="Trazado_1036983" data-name="Trazado 1036983" d="M186.519,370.448a1.927,1.927,0,0,0-2.941,2.281c.232.564,1.16.317.925-.255a.991.991,0,0,1,1.532-1.2C186.533,371.643,187.01,370.81,186.519,370.448Z" transform="translate(-107.393 -322.727)" fill="#034e51"/>
        </g>
      </g>
      <g id="Grupo_1202599" data-name="Grupo 1202599" transform="translate(187.377 159.716)">
        <g id="Grupo_1202597" data-name="Grupo 1202597">
          <g id="Grupo_1202594" data-name="Grupo 1202594" transform="translate(21.055 85.828)">
            <path id="Trazado_1036984" data-name="Trazado 1036984" d="M379.314,407.978l-6.052,19.4L366,426.421l6.029-1.781,5.7-16.853Z" transform="translate(-366 -405.593)" fill="#fec132"/>
            <path id="Trazado_1036985" data-name="Trazado 1036985" d="M381.224,403.785a4.175,4.175,0,0,0,8.295.951C386.871,404.593,383.873,403.928,381.224,403.785Z" transform="translate(-372.871 -403.785)" fill="#b52719"/>
          </g>
          <g id="Grupo_1202595" data-name="Grupo 1202595" transform="translate(35.542 85.163)">
            <path id="Trazado_1036986" data-name="Trazado 1036986" d="M401.237,407.694l5.4,17.755-6.888,2.492,4.532-4.357-4.545-15.329Z" transform="translate(-395.735 -404.887)" fill="#fec132"/>
            <path id="Trazado_1036987" data-name="Trazado 1036987" d="M392.433,405.546a4.175,4.175,0,0,0,7.8-2.974C397.817,403.665,394.851,404.453,392.433,405.546Z" transform="translate(-392.433 -402.572)" fill="#b52719"/>
          </g>
          <g id="Grupo_1202596" data-name="Grupo 1202596">
            <path id="Trazado_1036988" data-name="Trazado 1036988" d="M336.391,299.29,330,327.105s-4.477,10,6.394,17.676c7.719,5.481,20.6,16.58,32.109,12.88s17.95-25.569,18.5-28.816a17.368,17.368,0,0,0,5.32,0,5.95,5.95,0,0,0,2.5-.673,2.606,2.606,0,0,0,1.364-2.1,2.745,2.745,0,0,0-2.425-2.466,8.014,8.014,0,0,0-3.69.565c3.771-2.588,6.217-7.518,5.484-12.033-.326-2-1.435-4.16-3.417-4.6-2.346-.519-4.385,1.563-5.895,3.432-2.9,3.585-5.963,7.251-10.11,9.263s-9.7,1.9-12.81-1.5c-4.916-5.361-11.346-9.908-15.464-15.9-1.269-1.848-2.6-3.9-4.741-4.584C340.907,297.545,338.709,299.29,336.391,299.29Z" transform="translate(-328.262 -270.188)" fill="#cb3d0b"/>
            <path id="Trazado_1036989" data-name="Trazado 1036989" d="M364.122,301.348A56.115,56.115,0,0,0,386.148,320.8a21.565,21.565,0,0,1,5.2,3.066,5.825,5.825,0,0,1,2.071,5.392,4.168,4.168,0,0,1-6.791,2.193,10.647,10.647,0,0,1,2.628,3.353,4.406,4.406,0,0,1-4.35,6.541,11.611,11.611,0,0,1-4.838-1.409,5.6,5.6,0,0,1-2.235,6.965,8.4,8.4,0,0,1-7.8.117,16.159,16.159,0,0,1-5.991-5.367c-4.053-5.59-6.1-12.431-6.916-19.287s-.459-13.791-.1-20.687C359.163,301.569,361.976,301.459,364.122,301.348Z" transform="translate(-340.708 -271.664)" fill="#cb3d0b"/>
            <path id="Trazado_1036990" data-name="Trazado 1036990" d="M357.076,283.847c-.441-1.615-.988-3.244-1.544-4.823-6.029-17.128-10.06-16.382-10.06-16.382h-2.978c-1.143.545-2.363,1.447-3.506,1.993a55.323,55.323,0,0,1-.149,18.883,7.86,7.86,0,0,0-.2,2.625,2.444,2.444,0,0,0,1.512,2.006,2.414,2.414,0,0,0,2.29-.669,4.773,4.773,0,0,0,.968-1.24,1.917,1.917,0,0,0,.785,2.074,2.374,2.374,0,0,0,2.785-.357,3.422,3.422,0,0,0,1.028-2.751,4,4,0,0,0,1.6,2.558,2.7,2.7,0,0,0,2.919.092,1.758,1.758,0,0,0,.5-2.5,5.478,5.478,0,0,0,1.657,1.52,1.912,1.912,0,0,0,2.122-.154C357.553,286.031,357.344,284.826,357.076,283.847Z" transform="translate(-332.559 -254.171)" fill="#f99700"/>
            <path id="Trazado_1036991" data-name="Trazado 1036991" d="M332.859,265.54l-5.274,3.438h8.129Z" transform="translate(-327.584 -255.482)" fill="#cb3d0b"/>
            <path id="Trazado_1036992" data-name="Trazado 1036992" d="M336.066,255.883a7.25,7.25,0,0,1-1.834-2.8,4.588,4.588,0,0,1-.189-2.849,2.671,2.671,0,0,1,1.994-1.9,1.905,1.905,0,0,1,2.175,1.442,2.889,2.889,0,0,1,2.041-2.48,2.57,2.57,0,0,1,2.733,4.088,2.847,2.847,0,0,1,2.923-.271,2.7,2.7,0,0,1,1.549,2.4,3.5,3.5,0,0,1-1.951,2.912,8.608,8.608,0,0,1-3.556.83C340.016,256.849,338,256.281,336.066,255.883Z" transform="translate(-330.435 -247.189)" fill="#cb3d0b"/>
            <circle id="Elipse_12482" data-name="Elipse 12482" cx="4.234" cy="4.234" r="4.234" transform="translate(4.593 5.551)" fill="#f7f6e2"/>
            <circle id="Elipse_12483" data-name="Elipse 12483" cx="1.108" cy="1.108" r="1.108" transform="translate(7.719 8.677)" fill="#034f4f"/>
          </g>
        </g>
        <g id="Grupo_1202598" data-name="Grupo 1202598" transform="translate(4.529 17.308)">
          <path id="Trazado_1036993" data-name="Trazado 1036993" d="M388.592,333.044c-.592-.186-.843.74-.255.925a5.06,5.06,0,0,1,3.414,4.711,4.18,4.18,0,0,1-1.355,3.137,2.6,2.6,0,0,1-3.418.115.475.475,0,0,0-.6-.037c-.466-.063-.8.623-.314.882a5.033,5.033,0,0,1,1.864,6.907c-1.469,2.39-5.23,2.693-7.246.89a.5.5,0,0,0-.76.128.384.384,0,0,0-.172.386c.346,3.442-2.446,6.244-5.6,7.086-3.446.92-6.985-.967-9.35-3.358-2.767-2.8-4.108-6.635-5.048-10.371-1.063-4.225-1.848-8.53-2.745-12.793q-.617-2.928-1.233-5.858c-.127-.605-1.052-.348-.925.255q1.4,6.657,2.8,13.314c.828,3.934,1.592,7.919,3.333,11.573a15.424,15.424,0,0,0,7.042,7.39,9.189,9.189,0,0,0,9.134-.462,7.605,7.605,0,0,0,3.577-6.061,5.686,5.686,0,0,0,7.567-8.351,3.984,3.984,0,0,0,1.823-.324,4.733,4.733,0,0,0,2.517-3.606A5.994,5.994,0,0,0,388.592,333.044Z" transform="translate(-344.43 -299.864)" fill="#b52719"/>
          <path id="Trazado_1036994" data-name="Trazado 1036994" d="M379.226,351.65c-3.722-1.053-5.992-4.441-7.346-7.856-.747-1.886-1.283-3.853-1.859-5.8l-1.939-6.538a.48.48,0,0,0-.925.255q1.009,3.4,2.016,6.8a56.424,56.424,0,0,0,2.11,6.337c1.48,3.435,3.94,6.663,7.686,7.724A.48.48,0,0,0,379.226,351.65Z" transform="translate(-349.987 -302.428)" fill="#b52719"/>
          <path id="Trazado_1036995" data-name="Trazado 1036995" d="M394.222,348.508a16.766,16.766,0,0,1-10.663-13.993c-.053-.612-1.013-.617-.959,0a17.767,17.767,0,0,0,11.367,14.918C394.548,349.648,394.8,348.721,394.222,348.508Z" transform="translate(-356.974 -303.753)" fill="#b52719"/>
          <path id="Trazado_1036996" data-name="Trazado 1036996" d="M404.374,340.678a17.694,17.694,0,0,1-9.174-5.488l-.056-.677c-.051-.612-1.011-.617-.959,0,.03.364-.041.925.214,1.218q.582.669,1.221,1.284a18.623,18.623,0,0,0,2.52,2.006,18.251,18.251,0,0,0,5.981,2.582C404.72,341.745,404.976,340.82,404.374,340.678Z" transform="translate(-362.21 -303.752)" fill="#b52719"/>
          <path id="Trazado_1036997" data-name="Trazado 1036997" d="M343.3,348.773a2.525,2.525,0,0,1-4.567-1.386c-.026-.616-.985-.619-.959,0a3.451,3.451,0,0,0,6.2,2.064C344.355,348.969,343.681,348.285,343.3,348.773Z" transform="translate(-336.718 -309.569)" fill="#b52719"/>
          <path id="Trazado_1036998" data-name="Trazado 1036998" d="M350.814,360.861a2.209,2.209,0,0,1-4.114-.044c-.243-.567-1.069-.078-.828.484a3.158,3.158,0,0,0,5.77.044C351.894,360.785,351.067,360.3,350.814,360.861Z" transform="translate(-340.358 -315.734)" fill="#b52719"/>
          <path id="Trazado_1036999" data-name="Trazado 1036999" d="M339.9,362.565a1.709,1.709,0,0,1-3.094-1.031.48.48,0,0,0-.959,0,2.669,2.669,0,0,0,4.732,1.709C340.963,362.767,340.289,362.084,339.9,362.565Z" transform="translate(-335.847 -315.962)" fill="#b52719"/>
          <path id="Trazado_1037000" data-name="Trazado 1037000" d="M347.873,370.428a1.783,1.783,0,0,1-3.221.66c-.35-.5-1.182-.025-.828.484a2.75,2.75,0,0,0,4.974-.89C348.942,370.081,348.016,369.826,347.873,370.428Z" transform="translate(-339.413 -320.036)" fill="#b52719"/>
          <path id="Trazado_1037001" data-name="Trazado 1037001" d="M358.519,374.8a2.779,2.779,0,0,1-3.627-.093c-.453-.419-1.133.258-.678.679a3.762,3.762,0,0,0,4.983.093C359.669,375.073,358.987,374.4,358.519,374.8Z" transform="translate(-344.079 -322.064)" fill="#b52719"/>
          <path id="Trazado_1037002" data-name="Trazado 1037002" d="M351.964,381.823a2.127,2.127,0,0,1-3.417.1c-.348-.506-1.18-.027-.828.484a3.1,3.1,0,0,0,5.073-.1C353.119,381.78,352.288,381.3,351.964,381.823Z" transform="translate(-341.174 -325.239)" fill="#b52719"/>
          <path id="Trazado_1037003" data-name="Trazado 1037003" d="M365.281,384.131a2.164,2.164,0,0,1-2.879.637.48.48,0,0,0-.484.828,3.143,3.143,0,0,0,4.191-.981C366.454,384.1,365.622,383.619,365.281,384.131Z" transform="translate(-347.525 -326.285)" fill="#b52719"/>
          <path id="Trazado_1037004" data-name="Trazado 1037004" d="M432.017,330.933a.48.48,0,0,0,0,.959,1.494,1.494,0,0,1,1.375,1.778c-.141.6.784.857.925.255A2.469,2.469,0,0,0,432.017,330.933Z" transform="translate(-379.098 -302.343)" fill="#b52719"/>
          <path id="Trazado_1037005" data-name="Trazado 1037005" d="M439.462,326.267c-.58-.218-.829.71-.255.925a2.448,2.448,0,0,1,1.517,2.715c-.117.6.807.862.925.255A3.435,3.435,0,0,0,439.462,326.267Z" transform="translate(-382.41 -300.219)" fill="#b52719"/>
          <path id="Trazado_1037006" data-name="Trazado 1037006" d="M428.719,341.649c-.605-.1-.864.819-.255.925a2.68,2.68,0,0,1,2.212,3c-.1.6.824.864.925.255A3.639,3.639,0,0,0,428.719,341.649Z" transform="translate(-377.545 -307.182)" fill="#b52719"/>
          <path id="Trazado_1037007" data-name="Trazado 1037007" d="M353.564,279.791a1.883,1.883,0,0,1-2.818-.7c-.227-.567-1.155-.32-.925.255a2.846,2.846,0,0,0,4.42,1.125C354.718,280.073,354.035,279.4,353.564,279.791Z" transform="translate(-342.146 -278.769)" fill="#cb3d0b"/>
          <path id="Trazado_1037008" data-name="Trazado 1037008" d="M359.8,288.229a2.177,2.177,0,0,1-3.184-.61.48.48,0,0,0-.828.484,3.134,3.134,0,0,0,4.5.954C360.771,288.688,360.295,287.855,359.8,288.229Z" transform="translate(-344.828 -282.663)" fill="#cb3d0b"/>
          <path id="Trazado_1037009" data-name="Trazado 1037009" d="M348.077,289.482a1.553,1.553,0,0,1-2.066-.975.48.48,0,0,0-.925.255,2.513,2.513,0,0,0,3.246,1.644C348.9,290.184,348.654,289.256,348.077,289.482Z" transform="translate(-340.013 -283.017)" fill="#cb3d0b"/>
          <path id="Trazado_1037010" data-name="Trazado 1037010" d="M354.752,297.2a2.478,2.478,0,0,1-3.629.287c-.443-.431-1.122.247-.679.679a3.451,3.451,0,0,0,5.136-.481C355.943,297.178,355.11,296.7,354.752,297.2Z" transform="translate(-342.378 -287.002)" fill="#cb3d0b"/>
          <path id="Trazado_1037011" data-name="Trazado 1037011" d="M365.511,298.448a1.782,1.782,0,0,1-1.694-.009l-.01-.408a.48.48,0,0,0-.959,0c.008.3-.079.784.158,1.021a2.287,2.287,0,0,0,.974.483,2.753,2.753,0,0,0,2.015-.26C366.543,298.988,366.058,298.16,365.511,298.448Z" transform="translate(-348.045 -287.264)" fill="#cb3d0b"/>
        </g>
      </g>
      <g id="Grupo_1202603" data-name="Grupo 1202603" transform="translate(142.682 256.955)">
        <g id="Grupo_1202601" data-name="Grupo 1202601" transform="translate(0 1.304)">
          <g id="Grupo_1202600" data-name="Grupo 1202600">
            <path id="Trazado_1037012" data-name="Trazado 1037012" d="M251.862,437.611a10.605,10.605,0,0,1-4.216-.867,2.672,2.672,0,1,1,2.128-4.9,5.386,5.386,0,0,0,4.547-.169,14.053,14.053,0,0,0,2.133-1.527,14.482,14.482,0,0,1,4.175-2.613c4.484-1.617,8.911.7,12.144,2.4l.23.121c2.818,1.478,3.872,2.031,7.949,1.088a2.672,2.672,0,1,1,1.2,5.206c-5.719,1.323-8.147.268-11.636-1.562l-.227-.12c-2.485-1.3-5.578-2.922-7.852-2.1a10.206,10.206,0,0,0-2.629,1.742,18.531,18.531,0,0,1-3.006,2.1A10.652,10.652,0,0,1,251.862,437.611Z" transform="translate(-246.037 -426.985)" fill="#662640"/>
          </g>
        </g>
        <g id="Grupo_1202602" data-name="Grupo 1202602" transform="translate(2.726)">
          <path id="Trazado_1037013" data-name="Trazado 1037013" d="M305.227,434.086,305,440.438c-.022.619.937.617.959,0l.229-6.352C306.208,433.467,305.249,433.469,305.227,434.086Z" transform="translate(-275.408 -428.681)" fill="#421429"/>
          <path id="Trazado_1037014" data-name="Trazado 1037014" d="M297.387,438.659l-.768,5.4c-.086.605.838.865.925.255q.385-2.7.768-5.4C298.4,438.309,297.474,438.049,297.387,438.659Z" transform="translate(-271.619 -430.8)" fill="#421429"/>
          <path id="Trazado_1037015" data-name="Trazado 1037015" d="M290.923,429.614l-1.163,4.237a.48.48,0,0,0,.925.255l1.164-4.238A.48.48,0,0,0,290.923,429.614Z" transform="translate(-268.513 -426.716)" fill="#421429"/>
          <path id="Trazado_1037016" data-name="Trazado 1037016" d="M282.169,425.07v3.764a.48.48,0,0,0,.959,0V425.07A.48.48,0,0,0,282.169,425.07Z" transform="translate(-265.091 -424.606)" fill="#421429"/>
          <path id="Trazado_1037017" data-name="Trazado 1037017" d="M276.16,431.508V434.8a.48.48,0,0,0,.959,0v-3.293A.48.48,0,0,0,276.16,431.508Z" transform="translate(-262.376 -427.516)" fill="#421429"/>
          <path id="Trazado_1037018" data-name="Trazado 1037018" d="M266.915,433.632l-1.4-3.534c-.225-.568-1.153-.321-.925.255l1.4,3.534C266.215,434.455,267.143,434.208,266.915,433.632Z" transform="translate(-257.132 -426.943)" fill="#421429"/>
          <path id="Trazado_1037019" data-name="Trazado 1037019" d="M260.968,443.271l-.959-3.759a.48.48,0,0,0-.925.255q.48,1.879.959,3.759A.48.48,0,0,0,260.968,443.271Z" transform="translate(-254.651 -431.188)" fill="#421429"/>
          <path id="Trazado_1037020" data-name="Trazado 1037020" d="M251.466,439.251q-.227,2.353-.453,4.706c-.059.615.9.609.959,0q.227-2.354.453-4.706C252.485,438.636,251.525,438.641,251.466,439.251Z" transform="translate(-251.01 -431.017)" fill="#421429"/>
        </g>
      </g>
    </g>
  </g>
</svg>
