<svg xmlns="http://www.w3.org/2000/svg" width="85.616" height="96.823" viewBox="0 0 85.616 96.823">
  <g id="Grupo_1202609" data-name="Grupo 1202609" transform="translate(-314.924 -7152)">
    <g id="Grupo_1202379" data-name="Grupo 1202379" transform="translate(314.924 7152)">
      <g id="Grupo_1188468" data-name="Grupo 1188468" transform="translate(0 10.505)">
        <path id="Rectángulo_402603" data-name="Rectángulo 402603" d="M0,0H0A85.616,85.616,0,0,1,85.616,85.616v.7a0,0,0,0,1,0,0H0a0,0,0,0,1,0,0V0A0,0,0,0,1,0,0Z" fill="#26c790"/>
      </g>
      <path id="Trazado_874774" data-name="Trazado 874774" d="M9.119,18.631c.06,0,.122,0,.183-.006a3.067,3.067,0,0,0,1.829-.774,2.668,2.668,0,0,0,.938-1.993,12.677,12.677,0,0,0,.079-1.8V12.212h3.767A2.373,2.373,0,0,0,18,11.146a3.3,3.3,0,0,0,.528-1.813,3.113,3.113,0,0,0-.55-1.807,2.361,2.361,0,0,0-2.06-1H12.147v-2a15.044,15.044,0,0,0-.078-1.939A2.424,2.424,0,0,0,11.051.6,3.07,3.07,0,0,0,7.409.6a2.44,2.44,0,0,0-1.02,2.089V6.531H2.929a2.856,2.856,0,0,0-2.3.907,2.6,2.6,0,0,0-.61,2.03,3.337,3.337,0,0,0,.807,1.805,2.683,2.683,0,0,0,2.1.94h3.46v3.536a2.657,2.657,0,0,0,1.02,2.319A2.9,2.9,0,0,0,9.119,18.631ZM16.065,9.9a.55.55,0,0,1-.15.016H9.846v4.147a9.983,9.983,0,0,1-.054,1.465l-.022.112v.114a.393.393,0,0,1-.136.356.781.781,0,0,1-.476.225H9.119a.6.6,0,0,1-.36-.126,1.039,1.039,0,0,1-.069-.456V9.911H2.929a.393.393,0,0,1-.356-.136A1.05,1.05,0,0,1,2.3,9.2a.308.308,0,0,1,.081-.275,1.067,1.067,0,0,1,.543-.092H8.69V2.687c0-.176.036-.2.056-.216a.774.774,0,0,1,.968,0c.02.014.056.04.056.216v.1l.016.094a12.371,12.371,0,0,1,.061,1.655v4.3h6.068a.63.63,0,0,1,.179.019.84.84,0,0,1,.131.482A1.007,1.007,0,0,1,16.065,9.9Z" transform="translate(25.614 26.26) rotate(-137)" fill="#1944b6"/>
    </g>
    <g id="Grupo_1202608" data-name="Grupo 1202608" transform="translate(318.926 7156.318)">
      <path id="Trazado_1037024" data-name="Trazado 1037024" d="M76.359,90.787a13.606,13.606,0,0,0-6.8-5.827,11.5,11.5,0,0,0-2.837-4.677,12.735,12.735,0,0,0-1.106-.99,8.441,8.441,0,0,0,1.272-4.061,4.741,4.741,0,0,0-4.879-4.584,3.651,3.651,0,0,1-3.184-.908,4.73,4.73,0,0,0-6.06.684c-1.223,1.29-1.251,1.3-3.03,1.278a4.943,4.943,0,0,0-3.691,1.612,4.232,4.232,0,0,0-1.1,3.368,8.147,8.147,0,0,0,2.334,4.743c-1.545,1.424-3.263,3.217-4.58,4.639a5.764,5.764,0,0,1-4.216,1.84H28.5a4.942,4.942,0,0,1-2.946-.981c-1.533-1.147-3.924-2.861-6.612-4.516A1.122,1.122,0,1,0,17.76,84.32c2.616,1.61,4.949,3.282,6.444,4.4A7.2,7.2,0,0,0,28.5,90.15h9.987a8.015,8.015,0,0,0,5.862-2.559,64.634,64.634,0,0,1,5.837-5.714,12.91,12.91,0,0,1,7.728-2.932,9.707,9.707,0,0,1,7.218,2.918,9.324,9.324,0,0,1,2.724,7.129,15.118,15.118,0,0,1-2.917,7.876c-.957,1.354-1.975,2.98-3.052,4.7-.849,1.357-1.727,2.756-2.647,4.143a15.714,15.714,0,0,0-4.118,1.861,5.337,5.337,0,0,0-3.96-2.389c-1.181-.063-2.969.331-4.915,2.5-.088-.1-.809-.916-1.068-1.2a15.687,15.687,0,0,0,2.856-8.429,1.122,1.122,0,1,0-2.244-.073,13.409,13.409,0,0,1-2.319,7.028,2.881,2.881,0,0,0-1.382-.4c-1.4-.03-2.717.971-4.452,2.729-1.7-1.718-3.06-2.762-4.453-2.729-1.48.035-2.5,1.186-3.9,2.78l-.255.289a6.788,6.788,0,0,0-4.069-2.466,11.765,11.765,0,0,1-.934-1.55,1.122,1.122,0,1,0-2.008,1c.153.307.323.607.5.9a6.05,6.05,0,0,0-2.363,2c-3.244-1.969-5.752-2.55-7.659-1.775a4,4,0,0,0-1.589,1.169,18.047,18.047,0,0,1-1.076-6.255,25.811,25.811,0,0,0,2.426,1.128,1.122,1.122,0,0,0,.806-2.1,19.949,19.949,0,0,1-3.428-1.761l-.015-.01-.009-.007c-4.545-3.17-5.659-5.883-5.232-7.243.293-.933,1.373-1.514,2.917-1.585a13.827,13.827,0,0,0,4.945,2,1.123,1.123,0,0,0,.208-2.225,12.609,12.609,0,0,1-4.195-1.834c-.023-.015-.046-.029-.069-.042l-.013-.009c-1.282-.721-4.922-3.784-4.793-5.65.014-.207.058-.836,1.509-1.407,1.159-.455,3.55-.506,8.363,1.84a1.123,1.123,0,1,0,.983-2.018C9.716,77.6,6.39,76.971,4.063,77.885c-2.291.9-2.857,2.314-2.928,3.341-.155,2.245,1.963,4.6,3.743,6.136a4.274,4.274,0,0,0-2.645,2.689c-.414,1.317-.673,4.806,5.482,9.323a19.034,19.034,0,0,0,1.333,9.084c-4.778-1.523-7.531-1.5-8.617.062-.82,1.178-.475,2.837,1.022,4.941A3.271,3.271,0,0,0,.47,115.8v.825a3.285,3.285,0,0,0,3.281,3.281H6.686l4.506,9.752a7.948,7.948,0,0,0,7.194,4.6H56.878a7.952,7.952,0,0,0,7.2-4.6,1.122,1.122,0,0,0-2.038-.942,5.7,5.7,0,0,1-5.158,3.3H18.387a5.7,5.7,0,0,1-5.156-3.3l-4.071-8.81H66.107l-1.492,3.229a1.123,1.123,0,1,0,2.038.942l1.928-4.171h2.934a3.285,3.285,0,0,0,3.281-3.281V115.8a3.271,3.271,0,0,0-.983-2.339c1.5-2.1,1.841-3.763,1.022-4.94-1.154-1.657-4.186-1.583-9.528.238a4.241,4.241,0,0,0-3.3-3.19c.608-.946,1.2-1.887,1.775-2.807,1.06-1.694,2.061-3.294,2.982-4.6a20.719,20.719,0,0,0,1.378-2.236c.453.042.89.066,1.307.066a9.2,9.2,0,0,0,6.4-2.467,2.2,2.2,0,0,0,.508-2.739ZM57.869,76.7a15.113,15.113,0,0,0-8.881,3.262,5.867,5.867,0,0,1-1.816-3.548,2.018,2.018,0,0,1,.54-1.6,2.656,2.656,0,0,1,1.991-.869c2.414.032,3.029-.226,4.69-1.979a2.485,2.485,0,0,1,3.185-.36,5.635,5.635,0,0,0,4.5,1.283A2.5,2.5,0,0,1,64.643,75.3a6.061,6.061,0,0,1-.909,2.755A11.99,11.99,0,0,0,57.869,76.7ZM72.55,116.625a1.038,1.038,0,0,1-1.036,1.037H3.752a1.038,1.038,0,0,1-1.036-1.037V115.8a1.038,1.038,0,0,1,1.036-1.037H71.514A1.038,1.038,0,0,1,72.55,115.8v.825Zm-9.314-6.934a1.861,1.861,0,0,0,2.419,1.321c6.4-2.236,7.329-1.221,7.336-1.21.068.1.078.94-1.279,2.722-.066,0-.132-.007-.2-.007,0,0-67.895,0-67.961.007C2.2,110.743,2.206,109.9,2.274,109.8c.007-.011.936-1.026,7.337,1.21a1.861,1.861,0,0,0,1.495-.121,1.911,1.911,0,0,0,.923-1.2,2.4,2.4,0,0,1,1.305-1.816c1.2-.487,3.311.149,5.938,1.792a1.85,1.85,0,0,0,2.536-.551,3.364,3.364,0,0,1,2.421-1.692c1.041-.058,2.2.646,3.357,2.03a1.868,1.868,0,0,0,1.4.674c.977.018,1.395-.592,1.973-1.247.99-1.122,1.771-2.008,2.27-2.02h.012c.792,0,2.491,1.752,3.052,2.33a1.844,1.844,0,0,0,1.333.565h0a1.875,1.875,0,0,0,1.336-.564c.563-.581,2.274-2.347,3.064-2.33.5.012,1.279.9,2.268,2.019q.265.3.559.631a1.863,1.863,0,0,0,2.818-.054c1.156-1.385,2.319-2.086,3.358-2.032a3.364,3.364,0,0,1,2.422,1.693,1.852,1.852,0,0,0,2.533.552c2.629-1.644,4.739-2.28,5.94-1.793a2.4,2.4,0,0,1,1.3,1.813Zm5.893-15.944a14.428,14.428,0,0,0,.941-6.077,11.174,11.174,0,0,1,4.3,4.167A6.952,6.952,0,0,1,69.129,93.747Z" transform="translate(0 -52.944)"/>
      <path id="Trazado_1037025" data-name="Trazado 1037025" d="M390.336,185.54v-.774a1.122,1.122,0,1,0-2.245,0v.774a1.122,1.122,0,1,0,2.245,0Z" transform="translate(-330.005 -150.475)"/>
      <path id="Trazado_1037026" data-name="Trazado 1037026" d="M135.391,18.625l6.637,5.712a2.537,2.537,0,0,0,3.329,0l6.637-5.712a6.8,6.8,0,0,0-8.3-10.738,6.8,6.8,0,0,0-8.3,10.738Zm.984-8.119a4.556,4.556,0,0,1,6.417-.481,1.372,1.372,0,0,0,1.8,0,4.55,4.55,0,0,1,5.936,6.9l-6.637,5.711a.3.3,0,0,1-.4,0l-6.637-5.711a4.556,4.556,0,0,1-.481-6.417Z" transform="translate(-113.121)"/>
    </g>
  </g>
</svg>
