<svg xmlns="http://www.w3.org/2000/svg" width="82" height="82" viewBox="0 0 82 82">
  <g id="Grupo_1202613" data-name="Grupo 1202613" transform="translate(-1082.924 -8213)">
    <rect id="Rectángulo_410118" data-name="Rectángulo 410118" width="82" height="82" transform="translate(1082.924 8213)" fill="none"/>
    <g id="Grupo_1202612" data-name="Grupo 1202612" transform="translate(1078.944 8215.262)">
      <path id="Trazado_1037028" data-name="Trazado 1037028" d="M64.049,32.961C69.643,21.585,73.7,9.032,68.876,5.572S53.466,9.993,44.491,18.954c-1.192-1.658-3.6-3.451-8.428-3.1a1.011,1.011,0,0,0-.214,1.977.674.674,0,0,1,.383.462,4.744,4.744,0,0,1-.7,3.724c-.3.446-.6.912-.89,1.387a10.938,10.938,0,0,0-6.179-.77,1.011,1.011,0,0,0-.12,1.986,1.87,1.87,0,0,1,1.207,1.12,2.344,2.344,0,0,1-.2,2.152C22.154,39.551,17.3,56.006,22.077,64.2l-2.908,4.059a1.012,1.012,0,0,0,.231,1.411l4.691,3.363a1.009,1.009,0,0,0,.589.19,1.059,1.059,0,0,0,.165-.013A1.012,1.012,0,0,0,25.5,72.8l2.908-4.061a12.186,12.186,0,0,0,2.363.224c8.906,0,21.207-8.529,29.661-18.767a2.347,2.347,0,0,1,1.984-.892,1.88,1.88,0,0,1,1.453.786,1.011,1.011,0,0,0,1.842-.751,10.946,10.946,0,0,0-2.719-5.608c.352-.43.693-.859,1.02-1.279a4.8,4.8,0,0,1,3.269-1.87h.039c.419.009.529.164.565.215a1.011,1.011,0,0,0,1.8-.839C68.473,35.259,66,33.554,64.049,32.961ZM44.955,21.329a1.022,1.022,0,0,0,.086-.088c.321-.328.641-.648.962-.967l1.723,1.235A1.012,1.012,0,0,0,48.9,19.864l-1.434-1.027q1.357-1.3,2.686-2.492l.839.6A1.011,1.011,0,1,0,52.173,15.3l-.456-.327C59.023,8.72,65.26,5.468,67.7,7.213s1.362,8.7-2.208,17.629l-.454-.325a1.012,1.012,0,1,0-1.178,1.645l.837.6q-.7,1.639-1.5,3.345l-1.433-1.027a1.012,1.012,0,0,0-1.178,1.645l1.723,1.234c-.2.4-.4.8-.6,1.209a.972.972,0,0,0-.078.153q-.477.94-.982,1.892a1.02,1.02,0,0,0-.155-.138l-2-1.432a1.012,1.012,0,0,0-1.177,1.642l2,1.432a.982.982,0,0,0,.434.165q-1.014,1.854-2.118,3.728a1.008,1.008,0,0,0-.4-.975l-2-1.432a1.013,1.013,0,0,0-1.18,1.647l2,1.432a1,1,0,0,0,1.195-.019l-.292.488a9.162,9.162,0,0,0-1.594.347c-.578.179-1.58.515-2.894,1.033l-.505-.362a1.009,1.009,0,0,0-1.52,1.209c-1.275.562-2.716,1.253-4.281,2.093a1.009,1.009,0,0,0-.421-.856l-2-1.435a1.011,1.011,0,1,0-1.178,1.644l2,1.432c.031.021.065.031.1.049-1.073.615-2.188,1.3-3.329,2.051l-.855-.611a1.01,1.01,0,1,0-1.179,1.641l.259.186a59.985,59.985,0,0,0-6.375,5.219,60.126,60.126,0,0,0,2.889-7.71l.266.191a1.011,1.011,0,1,0,1.179-1.643l-.867-.621c.347-1.326.63-2.6.867-3.811a.916.916,0,0,0,.09.08l2,1.432a1.013,1.013,0,0,0,1.183-1.644l-2-1.432a1.012,1.012,0,0,0-.962-.116c.295-1.753.492-3.357.615-4.743.023,0,.045.01.068.01a1.011,1.011,0,0,0,.589-1.832l-.5-.361c.07-1.438.064-2.5.049-3.072a9.2,9.2,0,0,0-.184-1.614l.368-.434a1.01,1.01,0,0,0,.368,1.134l2,1.432a1.012,1.012,0,0,0,1.178-1.645l-2-1.432a1.007,1.007,0,0,0-1.052-.072q1.414-1.647,2.842-3.2a1,1,0,0,0,.3.352l2,1.432a1.011,1.011,0,0,0,1.178-1.644l-2-1.432a1.019,1.019,0,0,0-.18-.1C43.954,22.362,44.456,21.839,44.955,21.329Zm-7.743,1.81a6.837,6.837,0,0,0,1-5.27,5.824,5.824,0,0,1,4.824,2.556c-1.914,1.973-3.733,3.969-5.38,5.885A6.847,6.847,0,0,0,36.3,24.558c.3-.484.6-.962.909-1.419Zm-6.135,5.8a4.4,4.4,0,0,0,.332-3.982c-.058-.132-.116-.261-.184-.384a6.119,6.119,0,0,1,3.591,1.352,5.785,5.785,0,0,1,1.8,4.24,56.426,56.426,0,0,1-2.089,15.556.966.966,0,0,0-.028.1,56.674,56.674,0,0,1-6.985,15.734c-.448.568-.888,1.156-1.322,1.753.031-7.339,2.671-15.854,4.5-21.727,1.079-3.477,1.86-5.989,1.9-7.421A1.011,1.011,0,0,0,31.6,33.13h-.027a1.011,1.011,0,0,0-1.01.982,39.617,39.617,0,0,1-1.807,6.876c-1.9,6.1-4.649,14.995-4.579,22.749-.016-.023-.034-.043-.049-.066C19.876,57.4,22.925,42.154,31.077,28.942ZM24.45,70.8,21.4,68.611l1.931-2.7a9.122,9.122,0,0,0,1.361,1.228l.008.006c.011.008.021.017.031.025h0a8.978,8.978,0,0,0,1.644.925ZM62.56,47.284a4.4,4.4,0,0,0-3.673,1.607c-9.143,11.074-22.855,20-30.729,17.715,7.37-2.427,14.908-7.895,20.084-11.656a39.394,39.394,0,0,1,5.927-3.922,1.011,1.011,0,1,0-.7-1.9c-1.343.5-3.471,2.043-6.414,4.183-5.02,3.649-12.319,8.947-19.319,11.3A58.254,58.254,0,0,1,52.717,45.2c.025-.01.051-.018.075-.031,1.453-.586,2.557-.956,3.165-1.145a5.785,5.785,0,0,1,4.6.343,6.129,6.129,0,0,1,2.436,2.967,4.236,4.236,0,0,0-.43-.053Zm-.144-6.077c-.333.432-.686.871-1.048,1.311a6.854,6.854,0,0,0-2.1-.723c1.286-2.178,2.592-4.538,3.847-6.989a5.825,5.825,0,0,1,3.971,3.752,6.848,6.848,0,0,0-4.672,2.648Z" transform="translate(0 0)"/>
      <path id="Trazado_1037029" data-name="Trazado 1037029" d="M84.858,20.3l2,1.432a1.011,1.011,0,1,0,1.178-1.644l-2-1.432A1.012,1.012,0,0,0,84.858,20.3Z" transform="translate(-27.641 -5.802)"/>
      <path id="Trazado_1037030" data-name="Trazado 1037030" d="M93.419,26.436l2,1.432A1.012,1.012,0,0,0,96.6,26.224l-2-1.432a1.011,1.011,0,0,0-1.178,1.644Z" transform="translate(-31.247 -8.386)"/>
      <path id="Trazado_1037031" data-name="Trazado 1037031" d="M79.192,28.188l2,1.432a1.012,1.012,0,0,0,1.179-1.645l-2-1.432a1.012,1.012,0,1,0-1.179,1.644Z" transform="translate(-25.241 -9.125)"/>
      <path id="Trazado_1037032" data-name="Trazado 1037032" d="M90.951,34.125l-2-1.432a1.012,1.012,0,0,0-1.178,1.645l2,1.432a1.011,1.011,0,1,0,1.178-1.644Z" transform="translate(-28.872 -11.727)"/>
      <path id="Trazado_1037033" data-name="Trazado 1037033" d="M94.777,15.459l2,1.432a1.012,1.012,0,0,0,1.178-1.645l-2-1.432a1.012,1.012,0,1,0-1.178,1.645Z" transform="translate(-31.812 -3.746)"/>
      <path id="Trazado_1037034" data-name="Trazado 1037034" d="M73.532,36.085l2,1.43a1.011,1.011,0,1,0,1.177-1.644l-2-1.432a1.011,1.011,0,1,0-1.177,1.645Z" transform="translate(-22.852 -12.458)"/>
      <path id="Trazado_1037035" data-name="Trazado 1037035" d="M85.28,42.016l-2-1.432A1.011,1.011,0,1,0,82.1,42.228l2,1.432a1.012,1.012,0,0,0,1.178-1.645Z" transform="translate(-26.47 -15.052)"/>
      <path id="Trazado_1037036" data-name="Trazado 1037036" d="M67.861,43.972l2,1.433a1.011,1.011,0,1,0,1.177-1.645l-2-1.431a1.011,1.011,0,1,0-1.177,1.644Z" transform="translate(-20.45 -15.783)"/>
      <path id="Trazado_1037037" data-name="Trazado 1037037" d="M79.637,49.925l-2-1.432a1.012,1.012,0,0,0-1.178,1.645l2,1.432a1.011,1.011,0,0,0,1.178-1.644Z" transform="translate(-24.096 -18.397)"/>
      <path id="Trazado_1037038" data-name="Trazado 1037038" d="M62.217,51.876l2,1.431a1.011,1.011,0,1,0,1.177-1.644l-2-1.432a1.011,1.011,0,1,0-1.177,1.645Z" transform="translate(-18.075 -19.126)"/>
      <path id="Trazado_1037039" data-name="Trazado 1037039" d="M73.97,57.805l-2-1.432a1.012,1.012,0,1,0-1.179,1.644l2,1.432a1.012,1.012,0,1,0,1.179-1.645Z" transform="translate(-21.695 -21.718)"/>
      <path id="Trazado_1037040" data-name="Trazado 1037040" d="M59.736,59.56l-2-1.432a1.011,1.011,0,0,0-1.178,1.644l2,1.432a1.012,1.012,0,1,0,1.178-1.645Z" transform="translate(-15.687 -22.459)"/>
      <path id="Trazado_1037041" data-name="Trazado 1037041" d="M68.323,65.711l-2-1.432a1.012,1.012,0,0,0-1.178,1.645l2,1.432a1.011,1.011,0,1,0,1.178-1.644Z" transform="translate(-19.32 -25.061)"/>
    </g>
  </g>
</svg>
