<svg xmlns="http://www.w3.org/2000/svg" width="82" height="82" viewBox="0 0 82 82">
  <g id="Grupo_1202615" data-name="Grupo 1202615" transform="translate(3659 3472)">
    <rect id="Rectángulo_410119" data-name="Rectángulo 410119" width="82" height="82" transform="translate(-3659 -3472)" fill="none"/>
    <g id="Grupo_1202614" data-name="Grupo 1202614" transform="translate(-3649.998 -3462.958)">
      <path id="Trazado_1037042" data-name="Trazado 1037042" d="M59,19.986H48.235L59.112,9.108c2.815-2.784-1.477-7.026-4.23-4.239L39.765,19.985H24a1,1,0,0,0,0,2h2.118L27.375,32c-5.581-.388-10.8,8.228-22.641,11.475A1,1,0,0,0,4.067,44.8,22.633,22.633,0,0,0,15.135,56.987a1,1,0,0,0,1.229-.26l3.156-3.878a13.712,13.712,0,0,0-.083,5.3,1,1,0,0,0,.71.774,26.5,26.5,0,0,0,6.593,1.058,1,1,0,0,0,.946-1.323c-1.83-5.359-.411-10.009,1.28-13.933l.21,1.689c0,.008,0,.016,0,.024l.833,6.667a1,1,0,0,0,.992.876H52a1,1,0,0,0,.992-.876l3.891-31.124H59a1,1,0,0,0,0-2ZM56.3,6.279A.994.994,0,0,1,57.7,7.69L31.3,34.09a5.2,5.2,0,0,0-1.51-1.3L56.3,6.279ZM37.765,21.985,29.2,30.545l-1.072-8.56ZM29.237,34.827c1.343,1.037.76,2.785-.647,5.879A7.228,7.228,0,0,1,23.32,35.4c2.473-1.538,4.145-1.933,5.917-.57ZM25.372,57.9A27.267,27.267,0,0,1,21.3,57.17c-.624-4.8,2.179-9.108,2.513-9.6,0,0,0,0,0,0v0a1,1,0,1,0-1.676-1.1l-6.812,8.363a21.946,21.946,0,0,1-2.286-1.475l5.66-5.66a1,1,0,0,0-1.414-1.414l-5.82,5.82a19.992,19.992,0,0,1-2.155-2.27c4.52-2.606,11.98-8.79,12.322-9.074a1,1,0,0,0-1.278-1.537c-.084.069-7.93,6.576-12.244,9a21.205,21.205,0,0,1-1.763-3.133c6.6-2.044,10.761-5.4,15.236-8.533a9.248,9.248,0,0,0,6.159,5.994C25.907,46.577,23.823,51.8,25.372,57.9Zm25.744-5.913H31.881l-.721-5.771c0-.008,0-.016,0-.024l-.616-4.949a12.486,12.486,0,0,0,1.459-5.028l14.23-14.229h8.632Z"/>
      <path id="Trazado_1037043" data-name="Trazado 1037043" d="M49.07,27.615l-3.748,9.371H34a1,1,0,0,0,0,2H46a1,1,0,0,0,.929-.629l4-10a1,1,0,0,0-1.858-.743Z"/>
      <path id="Trazado_1037044" data-name="Trazado 1037044" d="M39,44.986h-.5a.5.5,0,0,1-.5-.5v-.5a1,1,0,0,0-2,0v.5a.5.5,0,0,1-.5.5H35a1,1,0,0,0,0,2h.5a.5.5,0,0,1,.5.5v.5a1,1,0,0,0,2,0v-.5a.5.5,0,0,1,.5-.5H39A1,1,0,0,0,39,44.986Z"/>
      <path id="Trazado_1037045" data-name="Trazado 1037045" d="M12,30.986h.5a.5.5,0,0,1,.5.5v.5a1,1,0,0,0,2,0v-.5a.5.5,0,0,1,.5-.5H16a1,1,0,0,0,0-2h-.5a.5.5,0,0,1-.5-.5v-.5a1,1,0,0,0-2,0v.5a.5.5,0,0,1-.5.5h-.505A1,1,0,0,0,12,30.986Z"/>
    </g>
  </g>
</svg>
