<svg xmlns="http://www.w3.org/2000/svg" width="82" height="82" viewBox="0 0 82 82">
  <g id="Grupo_1202617" data-name="Grupo 1202617" transform="translate(3206 3428)">
    <rect id="Rectángulo_410120" data-name="Rectángulo 410120" width="82" height="82" transform="translate(-3206 -3428)" fill="none"/>
    <g id="Grupo_1202616" data-name="Grupo 1202616" transform="translate(-3214.473 -3422)">
      <path id="Trazado_1037046" data-name="Trazado 1037046" d="M81.317,143.06H74.49V138.7h6.827a1.031,1.031,0,0,0,.931-1.476,8.47,8.47,0,0,0-2.046-2.711,1.031,1.031,0,0,0-1.366,1.545,6.514,6.514,0,0,1,.577.579H73.459a1.031,1.031,0,0,0-1.031,1.031v6.419a1.031,1.031,0,0,0,1.031,1.031H79.41a6.424,6.424,0,0,1-9.481.2,4.457,4.457,0,0,0-4.308-3.6H63.008v-3.383H68.03a1.031,1.031,0,0,0,.9-.536,6.435,6.435,0,0,1,5.644-3.347c.145,0,.29,0,.434.014a1.031,1.031,0,0,0,.136-2.058c-.188-.013-.38-.019-.57-.019a8.5,8.5,0,0,0-7.134,3.883H63.008v-.784A4.516,4.516,0,0,0,55,132.617a4.513,4.513,0,0,0-6.974,0,4.515,4.515,0,0,0-7.692,1.22,4.514,4.514,0,0,0-7.144,2.434H31.376q-.191-.294-.4-.572a1.031,1.031,0,1,0-1.634,1.259,6.463,6.463,0,0,1,.549.839,1.031,1.031,0,0,0,.9.536h2.259v5.1H30.791a1.031,1.031,0,0,0-.9.536,6.429,6.429,0,0,1-10.476,1.157h5.951a1.031,1.031,0,0,0,1.031-1.031v-6.419a1.031,1.031,0,0,0-1.031-1.031H19.411a6.439,6.439,0,0,1,6.367-2.006,1.031,1.031,0,1,0,.491-2,8.505,8.505,0,0,0-9.7,4.6A1.031,1.031,0,0,0,17.5,138.7h6.827v4.357H17.5a1.031,1.031,0,0,0-.931,1.476,8.5,8.5,0,0,0,14.8.957H33.1a4.514,4.514,0,0,0,7.419,2.786,4.512,4.512,0,0,0,6.94,1.407,4.518,4.518,0,0,0,7.783.585,6.783,6.783,0,0,0,3.243.483l-5.375,3.474a6.543,6.543,0,0,0-3,5.517,1.031,1.031,0,0,0,2.063,0,4.489,4.489,0,0,1,2.06-3.784l8.312-5.371a1.031,1.031,0,0,0-.56-1.9H57.266a2.458,2.458,0,0,1-2.456-2.456,2.5,2.5,0,0,1,2.456-2.456h8.355a2.3,2.3,0,0,1,2.227,1.729l1.293,5.061a3.719,3.719,0,0,1-.743,3.291l-7.214,8.662c-1.859,2.1-3.846,4.7-3.726,7.712v12.1a1.031,1.031,0,1,0,2.063,0v-12.1c-.137-2.513,1.81-4.693,3.254-6.4l7.208-8.655a5.786,5.786,0,0,0,1.157-5.122l-.411-1.608a8.491,8.491,0,0,0,11.518-3.915,1.031,1.031,0,0,0-.93-1.475Zm-43.748,4.253a2.458,2.458,0,0,1-2.456-2.456V137.4a2.455,2.455,0,1,1,4.911,0v7.454A2.458,2.458,0,0,1,37.569,147.313Zm6.974,1.378a2.458,2.458,0,0,1-2.456-2.456V135.487a2.456,2.456,0,0,1,4.911,0v10.748A2.458,2.458,0,0,1,44.543,148.69Zm6.974,1.472a2.458,2.458,0,0,1-2.456-2.456v-12.22a2.455,2.455,0,1,1,4.911,0v7.66a4.508,4.508,0,0,0-.327,5.785A2.443,2.443,0,0,1,51.517,150.163Zm4.518-8.274v-6.4a2.456,2.456,0,0,1,4.911,0v6.229H57.267A4.5,4.5,0,0,0,56.035,141.889Z" transform="translate(0 -112.959)"/>
      <path id="Trazado_1037047" data-name="Trazado 1037047" d="M139.09,286.075V277.69a1.031,1.031,0,1,0-2.063,0v8.384A8.837,8.837,0,0,0,139,291.633a6.768,6.768,0,0,1,1.512,4.257v12.1a1.031,1.031,0,1,0,2.063,0v-12.1a8.837,8.837,0,0,0-1.975-5.558A6.769,6.769,0,0,1,139.09,286.075Z" transform="translate(-103.976 -238.615)"/>
      <path id="Trazado_1037048" data-name="Trazado 1037048" d="M249.531,7.118a1.031,1.031,0,0,0,1.031-1.031V1.031a1.031,1.031,0,1,0-2.063,0V6.087A1.031,1.031,0,0,0,249.531,7.118Z" transform="translate(-200.121)"/>
      <path id="Trazado_1037049" data-name="Trazado 1037049" d="M301.33,40.936a1.031,1.031,0,0,0,1.425-.312l1.335-2.083a1.031,1.031,0,0,0-1.737-1.113l-1.335,2.083a1.031,1.031,0,0,0,.312,1.425Z" transform="translate(-245.276 -31.871)"/>
      <path id="Trazado_1037050" data-name="Trazado 1037050" d="M338.277,90.37a1.025,1.025,0,0,0,.416-.088l2.263-1a1.031,1.031,0,1,0-.833-1.887l-2.263,1a1.032,1.032,0,0,0,.417,1.975Z" transform="translate(-276.662 -75.301)"/>
      <path id="Trazado_1037051" data-name="Trazado 1037051" d="M187.932,40.625a1.031,1.031,0,0,0,1.737-1.113l-1.335-2.083a1.031,1.031,0,0,0-1.737,1.113Z" transform="translate(-146.589 -31.872)"/>
      <path id="Trazado_1037052" data-name="Trazado 1037052" d="M143.907,89.284l2.263,1A1.031,1.031,0,0,0,147,88.4l-2.263-1a1.031,1.031,0,1,0-.833,1.887Z" transform="translate(-109.38 -75.303)"/>
    </g>
  </g>
</svg>
