<svg xmlns="http://www.w3.org/2000/svg" xmlns:xlink="http://www.w3.org/1999/xlink" width="203.051" height="199.466" viewBox="0 0 203.051 199.466">
  <defs>
    <filter id="BG" x="0" y="0" width="203.051" height="199.466" filterUnits="userSpaceOnUse">
      <feOffset dy="3" input="SourceAlpha"/>
      <feGaussianBlur stdDeviation="3" result="blur"/>
      <feFlood flood-opacity="0.161"/>
      <feComposite operator="in" in2="blur"/>
      <feComposite in="SourceGraphic"/>
    </filter>
    <clipPath id="clip-path">
      <rect id="Rect치ngulo_409480" data-name="Rect치ngulo 409480" width="138.512" height="94.215" fill="none"/>
    </clipPath>
  </defs>
  <g id="Grupo_1202180" data-name="Grupo 1202180" transform="translate(-1512.171 6653)">
    <g transform="matrix(1, 0, 0, 1, 1512.17, -6653)" filter="url(#BG)">
      <rect id="BG-2" data-name="BG" width="185.051" height="181.466" rx="10" transform="translate(9 6)" fill="#d2f3e8"/>
    </g>
    <g id="Grupo_1201567" data-name="Grupo 1201567" transform="translate(1544.441 -6603.375)">
      <g id="Grupo_1201566" data-name="Grupo 1201566" clip-path="url(#clip-path)">
        <path id="Trazado_1034354" data-name="Trazado 1034354" d="M273.955,61.342a11.314,11.314,0,0,1-2.218-2.92l-.343-.077c-13.547,1.042-28.628-3.106-40.538,4.941a31.131,31.131,0,0,0-13.711,27.545c-.629.016-1.266-.024-1.9,0l.271,4.058c3.5-.723,2.125.89,3.247,3.514a5.266,5.266,0,0,0-1.894.544L218.226,103c.464-.232,1.756-.956,2.166-.7a32.115,32.115,0,0,0,5.409,7.73,42.789,42.789,0,0,0,15.047,5.378l24.18.033a24.062,24.062,0,0,1-.813-4.87h3.518c-1.185-1.942-2.883-3.6-4.1-5.77A32.726,32.726,0,0,1,268,66.482c.085-.1.184-.177.271-.271a27.1,27.1,0,0,1,5.681-4.87m-10.01,9.2h-4.058V66.212h4.058Z" transform="translate(-213.086 -37.194)" fill="#e7aa4c"/>
        <path id="Trazado_1034355" data-name="Trazado 1034355" d="M369.887,159.639c-.34.07-1.61.267-1.639.424l.838,4.168a7.971,7.971,0,0,0,2.153-.534,5.266,5.266,0,0,1,1.894-.544c-1.123-2.624.255-4.237-3.247-3.514" transform="translate(-367.452 -101.946)" fill="#080706"/>
        <path id="Trazado_1034356" data-name="Trazado 1034356" d="M238.492,201.946c7.072,7.572,16.08,9.01,26.1,9.48l13.674-.281a18.317,18.317,0,0,0-.542-3.788l-24.18-.033a42.789,42.789,0,0,1-15.047-5.378" transform="translate(-225.777 -129.103)" fill="#dd7439"/>
        <path id="Trazado_1034357" data-name="Trazado 1034357" d="M302.862,229.028c-5.28-.469-8.822-.958-13.709-3.2-1.2-.552-2.839-1.862-3.744-2.209-.514-.2-.446.26-.347.618,2.837,10.234,11.455,8.937,19.965,8.848.072-1.656-1.255-2.854-2.164-4.058" transform="translate(-269.316 -142.928)" fill="#e4a84b"/>
        <path id="Trazado_1034358" data-name="Trazado 1034358" d="M272.128,238.7c.91,1.2,2.236,2.4,2.164,4.058a39.747,39.747,0,0,0,4.2,0c.3-.041.552.1.4-.4-.917-2.96-4.224-3.432-6.76-3.657" transform="translate(-238.582 -152.597)" fill="#db7338"/>
        <rect id="Rect치ngulo_409479" data-name="Rect치ngulo 409479" width="4.058" height="4.328" transform="translate(46.802 29.017)" fill="#fdf8f2"/>
        <path id="Trazado_1034359" data-name="Trazado 1034359" d="M89.386,125.292c1.2,1.973,1.436,5.882,2.13,8.285,2.983,10.321,11.584,8.569,20.324,8.488-.648-2.393-3.086-3.215-5.14-4.058-.18-.005-.361,0-.541,0-1.979-.046-3.974.033-5.953,0l-.015-1.731c1.883-.576,3.684-1.025,4.84-2.78a11.856,11.856,0,0,0,1.128-2.66v-5h3.787l.044-.486,4.24,1.611a19.9,19.9,0,0,1,.044,3.2c5.275-.028,10.559.044,15.837-.013a29.831,29.831,0,0,0,4.79-.056,15.243,15.243,0,0,0,9.132-5.342c-14.811,3.185-31.716.734-42.21-10.95-.671-.747-1.186-1.566-1.887-2.306-.161-.17-.3-.266-.271-.541a1.792,1.792,0,0,0-.271-.271c-7.547-5.391-6.036-17.444-5.681-25.43H89.655V81.2a32.726,32.726,0,0,0-4.375,38.326c1.221,2.166,2.919,3.829,4.1,5.77" transform="translate(-34.739 -51.908)" fill="#f9f0e0"/>
        <path id="Trazado_1034360" data-name="Trazado 1034360" d="M99.844,199.971a15.243,15.243,0,0,1-9.132,5.342,29.828,29.828,0,0,1-4.79.056c-5.278.057-10.562-.015-15.837.013A8.269,8.269,0,0,1,69,209.169H92.945a19.594,19.594,0,0,0,2.911-.877,13.665,13.665,0,0,0,8.315-9.4c-.272-.249-3.664.937-4.327,1.08" transform="translate(9.451 -127.127)" fill="#f5deb9"/>
        <path id="Trazado_1034361" data-name="Trazado 1034361" d="M84.709,238.312a130.377,130.377,0,0,0-15.018,0c-.4.029-.783-.21-.67.4a11.246,11.246,0,0,0,4.523,3.054c3.172,1.116,9.722.648,13.33.6-.137-1.7-1.527-2.631-2.164-4.058" transform="translate(26.75 -152.212)" fill="#f9f0e0"/>
        <path id="Trazado_1034362" data-name="Trazado 1034362" d="M184.305,204.946h-3.787v5a11.856,11.856,0,0,1-1.128,2.66c-1.157,1.754-2.958,2.2-4.84,2.78l.015,1.731c1.98.031,3.974-.047,5.953,0l.012-4.047c2.764-.11,3.831-1.9,4.056-4.465a8.788,8.788,0,0,0-.28-3.662" transform="translate(-109.098 -131.02)" fill="#f2dcb7"/>
        <path id="Trazado_1034363" data-name="Trazado 1034363" d="M211.5,71.816h3.789c-.012,1.169.012,2.349,0,3.518.785.162.492-.389.618-.856a24.659,24.659,0,0,1,2.629-6.448,14.02,14.02,0,0,1-1.353-1.082,27.1,27.1,0,0,0-5.681,4.87" transform="translate(-156.312 -42.798)" fill="#f9f0e0"/>
        <path id="Trazado_1034364" data-name="Trazado 1034364" d="M159.754,238.7c2.054.843,4.492,1.665,5.14,4.058,1.259-.012,2.527.01,3.786,0-1.112-4.228-5.412-3.952-8.926-4.057" transform="translate(-87.793 -152.597)" fill="#f0dab5"/>
        <path id="Trazado_1034365" data-name="Trazado 1034365" d="M57.628,238.7c.637,1.427,2.027,2.355,2.164,4.058a35.029,35.029,0,0,0,3.657,0c.3-.041.553.1.4-.4-.787-2.543-3.869-3.514-6.219-3.657" transform="translate(53.831 -152.597)" fill="#e2d0b1"/>
        <path id="Trazado_1034366" data-name="Trazado 1034366" d="M220.759,80.443c-.087.093-.185.175-.271.271v4.059h4.059c.012-.269,0-.542,0-.812.014-1.169-.01-2.349,0-3.518Z" transform="translate(-165.571 -51.426)" fill="#fefdfc"/>
        <path id="Trazado_1034367" data-name="Trazado 1034367" d="M138.512,12.515c-1.245-3.992-3.167-6.993-7.121-8.7a12.237,12.237,0,0,0-16.83,7.344l-.5.254a32.319,32.319,0,0,0-5.994-2.939c-.06-2.719.439-5.413-.136-8.117-.99.052-3.262-.694-4.057-.154-.123.083-1.119,2.065-1.5,2.556C98.763,7.4,92.816,6.656,87.71,8.38c-2.335.788-4.426,2.1-6.677,3.06A12.6,12.6,0,0,0,63.594,3.88a13.318,13.318,0,0,0,.522,2.142c.016.024.4-.062.545.185A4.9,4.9,0,0,1,65.2,7.646a8.947,8.947,0,0,1,7.03-.271c2.276.862,5.12,3.759,4.894,6.362-.068.785-2.645,3.114-3.135,3.115-.668,0-1.762-1.885-2.3-2.443-.506-.526-1.222-1.045-1.774-1.619a4.711,4.711,0,0,1-.425-.778c-.818-.477-2.34,2.054-3.231,2.283-.094.611,1.655,2.223,2.184,2.82.872.983,1.78,1.922,2.687,2.877-.527.667-1.895,2.955-2.553,3.082-1.61.311-3.047-.744-4.191-1.63-.19-.147-.543-.185-.785-.42A8.948,8.948,0,0,1,62.5,9.934C62.492,9.69,61.4,8.676,61.14,8.457a7.934,7.934,0,0,0-1.889-1.081c-1.6,2.9-2.969,6.08-2.17,9.466-12.258.69-25.725-2.086-37.158,3.287A35.4,35.4,0,0,0,1.159,42.486L0,47.684v5.952c.719-.018,1.446.026,2.164,0,.629-.022,1.266.017,1.9,0A31.131,31.131,0,0,1,17.77,26.092c11.91-8.047,26.991-3.9,40.538-4.941l.343.077a11.313,11.313,0,0,0,2.218,2.92,14.015,14.015,0,0,0,1.353,1.082,11.67,11.67,0,0,0,4.058,1.626c-5.258,10.052-7.589,21.576-1.624,31.92a1.792,1.792,0,0,1,.271.271c.158.171.293.271.271.541.7.741,1.216,1.56,1.887,2.306,10.494,11.683,27.4,14.135,42.21,10.95.664-.143,4.055-1.329,4.327-1.08a13.665,13.665,0,0,1-8.315,9.4,19.592,19.592,0,0,1-2.911.877H78.454a8.269,8.269,0,0,0,1.082-3.787,19.9,19.9,0,0,0-.044-3.2l-4.24-1.611-.044.486a8.788,8.788,0,0,1,.28,3.662c-.225,2.57-1.292,4.356-4.056,4.465L71.42,86.1c.18,0,.361-.005.541,0,3.514.1,7.814-.172,8.926,4.057-1.259.011-2.527-.01-3.786,0-8.74.081-17.34,1.833-20.324-8.488-.695-2.4-.926-6.312-2.13-8.285H51.129a24.064,24.064,0,0,0,.813,4.87,18.315,18.315,0,0,1,.542,3.788l-13.674.281c-10.015-.47-19.023-1.908-26.1-9.48a32.115,32.115,0,0,1-5.409-7.73c-.41-.259-1.7.465-2.166.7-.66.33-1.744.545-1.518,1.363a35.509,35.509,0,0,0,2.921,4.673c.58.882,1.613,1.756,2.076,2.524C11.106,78.5,11.76,84.5,14.925,88.623c1.686,2.2,6.494,5.592,9.287,5.592h20.7a14.31,14.31,0,0,0-.682-5.675c-.329-.882-.975-1.564-1.211-2.441H54.106a13.88,13.88,0,0,0,7.208,7,18.123,18.123,0,0,0,3.478,1.121h20.7A12.34,12.34,0,0,0,83.594,86.1h6.9c1.795,2.713,3.834,5.25,6.842,6.685a26.608,26.608,0,0,0,3.979,1.431H122.28c.576-6.386-3.754-11.947-10.279-12.308a18.11,18.11,0,0,0,6.081-12.044,37.927,37.927,0,0,0,7.572-4.872c.478-.424,2.2-1.874,1.918-2.425-.042-.082-1.142-1.283-1.234-1.355a5.032,5.032,0,0,0-1.7-.784c-9.4,9-24.343,11.041-36.766,8.549A34.351,34.351,0,0,1,77.372,65C70.349,61.057,65.638,55.275,65.2,46.873c-.783-14.96,11.545-30.914,25.7-35.033,3.1-.9,6.517-.943,9.467-2.3.387-.178,3.38-2.319,3.515-2.163-.349,5.87-3.675,11.9-10.279,11.631-.02,1.349.015,2.71,0,4.059,6.425.3,11.751-4.272,13.409-10.3,1.619-.245,7.45,3.742,8.9,4.892,8.672,6.868,14.761,17.964,14.21,29.21a25.023,25.023,0,0,1-2.726,9.849,10.992,10.992,0,0,1,1.915,1.243,3.891,3.891,0,0,0,1.436.518c.656-.157,1.827-3.153,2.087-3.893,2.639-7.524,1.644-15.311-1.228-22.591-.684-1.732-1.773-3.409-2.293-5.14,4.765-1.077,7.8-4.989,9.2-9.473Zm-5.14-1.353c2.043,4.093.855,9.223-3.518,11.226-3.265,1.5-3.746.29-5.37-2.379.015-.111.21-.138.231-.191a3.667,3.667,0,0,1,.539-.94c.668-.847,3.993-3.666,3.76-4.552-.155-.591-2.131-2.007-2.774-2.335-.668.115-3.368,3.923-4.36,4.6-.319.218-.265.266-.668.126a14.665,14.665,0,0,1-3-2.722,6.264,6.264,0,0,1,.5-2.209c2.365-6.372,11.622-6.709,14.659-.626M33.546,86.1c2.536.225,5.843.7,6.76,3.657.155.5-.093.36-.4.4a39.748,39.748,0,0,1-4.2,0c-8.51.088-17.128,1.386-19.965-8.848-.1-.357-.167-.814.347-.618.905.347,2.541,1.657,3.744,2.209,4.887,2.241,8.429,2.73,13.709,3.2m77.913,0c2.349.143,5.432,1.114,6.219,3.657.155.5-.093.36-.4.4a35.027,35.027,0,0,1-3.657,0c-3.608.046-10.158.514-13.33-.6A11.246,11.246,0,0,1,95.77,86.5c-.113-.612.267-.373.67-.4a130.384,130.384,0,0,1,15.018,0" transform="translate(0 0)" fill="#040303"/>
        <path id="Trazado_1034368" data-name="Trazado 1034368" d="M183.687,16.7l-2.976,2.435c.265.219,1.352,1.233,1.358,1.477a8.948,8.948,0,0,0,1.1,11.089c.242.235.6.273.785.42,1.374-1.3,3.192-2.644,4.058-4.328-.529-.6-2.278-2.209-2.184-2.82.892-.229,2.413-2.76,3.231-2.283a4.713,4.713,0,0,0,.425.778c.552.574,1.268,1.093,1.774,1.619,2.547-2.014,1.689-4.427.541-7.034a8.947,8.947,0,0,0-7.03.271,4.9,4.9,0,0,0-.541-1.438c-.15-.247-.53-.161-.545-.185" transform="translate(-119.571 -10.674)" fill="#e5a94b"/>
        <path id="Trazado_1034369" data-name="Trazado 1034369" d="M73.028,129.946c-5.528,20.3-32.468,24.307-49.778,18.126a34.351,34.351,0,0,0,10.5,3.978c12.422,2.492,27.365.453,36.766-8.549a5.032,5.032,0,0,1,1.7.784l2.976-3.246a10.992,10.992,0,0,0-1.915-1.243A25.023,25.023,0,0,0,76,129.946Z" transform="translate(54.122 -83.074)" fill="#f3ddb8"/>
        <path id="Trazado_1034370" data-name="Trazado 1034370" d="M23.19,63.779c7.514-.724,18.406,2.679,22.725-5.411-.808.03-1.628-.021-2.436,0l.039-3.886c.281-.859,3.189-.281,4.02-.444.241-4.6,1.953-8.732,7.158-9.21,6.006-.551,9.3,3.491,9.345,9.21,1.284.176,3.041-.434,4.058.406v3.923c-.808-.018-1.627.025-2.435,0,3.443,6.977,12.908,5.411,19.478,5.411h2.976c.55-11.246-5.538-22.342-14.21-29.21-1.454-1.151-7.285-5.138-8.9-4.892-1.658,6.025-6.984,10.6-13.409,10.3.016-1.35-.018-2.71,0-4.059.011-.729-.154-3.146.119-3.533a8.816,8.816,0,0,0,6.472-4.89c.11-.206.633-.957.172-1.045-2.951,1.357-6.368,1.4-9.468,2.3-14.157,4.118-26.485,20.072-25.7,35.033" transform="translate(42.008 -16.907)" fill="#e6a94c"/>
        <path id="Trazado_1034371" data-name="Trazado 1034371" d="M55.848,86.535c-.075,1.432.054,2.9,0,4.33-.539.015-1.085-.021-1.625,0-4.319,8.09-15.21,4.687-22.725,5.411.44,8.4,5.151,14.184,12.174,18.126,17.31,6.181,44.25,2.173,49.778-18.126-6.57,0-16.036,1.567-19.478-5.411-.629-.019-1.266.015-1.9,0,.019-1.129-.023-2.266,0-3.4a4.559,4.559,0,0,1,.272-.933c-.041-5.718-3.339-9.76-9.345-9.21-5.2.478-6.916,4.606-7.158,9.21m6.222,20.56v-5.546c0-.355-4.6-4.191-5.021-5.007-.134-.26-.134-.277,0-.537.243-.473,2.445-2.537,2.938-2.408L64.1,97.621l4.328-4.062,2.821,2.813-5.121,5.177v5.546Z" transform="translate(33.698 -49.401)" fill="#faf1e1"/>
        <path id="Trazado_1034372" data-name="Trazado 1034372" d="M20.768,31.867c4.422-.181,8.356-4.276,8.657-8.657-3.037-6.083-12.294-5.746-14.659.626a6.264,6.264,0,0,0-.5,2.209,14.665,14.665,0,0,0,3,2.722c.4.14.35.092.668-.126.992-.678,3.692-4.486,4.36-4.6.643.328,2.619,1.744,2.774,2.335.233.886-3.092,3.7-3.76,4.552a3.668,3.668,0,0,0-.539.94" transform="translate(103.947 -12.048)" fill="#e4a84b"/>
        <path id="Trazado_1034373" data-name="Trazado 1034373" d="M203.857,69.946a24.659,24.659,0,0,0-2.629,6.448c-.126.467.167,1.018-.618.856,0,.27.012.542,0,.812-.355,7.986-1.866,20.039,5.681,25.43-5.965-10.344-3.634-21.868,1.624-31.92a11.67,11.67,0,0,1-4.058-1.626" transform="translate(-141.635 -44.716)" fill="#f3dcb7"/>
        <path id="Trazado_1034374" data-name="Trazado 1034374" d="M102.807,22.6c.461.088-.062.839-.172,1.045a8.815,8.815,0,0,1-6.472,4.89c-.273.387-.108,2.8-.119,3.533,6.6.266,9.93-5.762,10.279-11.631-.136-.156-3.128,1.985-3.515,2.163" transform="translate(-2.44 -13.059)" fill="#dd7539"/>
        <path id="Trazado_1034375" data-name="Trazado 1034375" d="M11.79,39.6c-.021.053-.216.08-.231.191,1.624,2.669,2.105,3.874,5.37,2.379,4.373-2,5.561-7.133,3.518-11.226-.3,4.381-4.235,8.476-8.657,8.657" transform="translate(112.925 -19.784)" fill="#dd7439"/>
        <path id="Trazado_1034376" data-name="Trazado 1034376" d="M170.148,27.48c.537.559,1.632,2.445,2.3,2.443.49,0,3.067-2.33,3.135-3.115.226-2.6-2.618-5.5-4.894-6.362,1.148,2.607,2.006,5.02-.541,7.034" transform="translate(-98.457 -13.071)" fill="#dc7439"/>
        <path id="Trazado_1034377" data-name="Trazado 1034377" d="M186.8,51.774c1.145.887,2.581,1.941,4.191,1.63.659-.127,2.026-2.414,2.553-3.082-.906-.955-1.814-1.894-2.687-2.877-.866,1.685-2.684,3.031-4.058,4.328" transform="translate(-122.416 -30.332)" fill="#dd7439"/>
        <path id="Trazado_1034378" data-name="Trazado 1034378" d="M203.518,164.237c.022-.271-.112-.37-.271-.541-.031.275.109.371.271.541" transform="translate(-138.32 -104.65)" fill="#f3dcb7"/>
        <path id="Trazado_1034379" data-name="Trazado 1034379" d="M79.029,102.855a4.559,4.559,0,0,0-.272.933c-.023,1.132.019,2.268,0,3.4.629.014,1.266-.021,1.9,0,.808.025,1.626-.018,2.435,0v-3.923c-1.017-.84-2.774-.23-4.058-.406" transform="translate(27.019 -65.722)" fill="#0c0905"/>
        <path id="Trazado_1034380" data-name="Trazado 1034380" d="M139.77,102.872c-.831.163-3.739-.416-4.02.444l-.039,3.886c.808-.022,1.629.029,2.436,0,.54-.02,1.086.017,1.625,0,.052-1.435-.076-2.9,0-4.33" transform="translate(-50.224 -65.739)" fill="#090704"/>
        <path id="Trazado_1034381" data-name="Trazado 1034381" d="M98.175,135.956h4.058V130.41l5.121-5.177-2.821-2.813-4.329,4.062-4.112-4.024c-.493-.129-2.694,1.936-2.938,2.408-.134.26-.134.277,0,.537.42.816,5.021,4.652,5.021,5.007Z" transform="translate(-2.407 -78.262)" fill="#070706"/>
      </g>
    </g>
  </g>
</svg>
