<svg xmlns="http://www.w3.org/2000/svg" xmlns:xlink="http://www.w3.org/1999/xlink" width="1048" height="119" viewBox="0 0 1048 119">
  <defs>
    <filter id="Trazado_1037071" x="0" y="0" width="1048" height="119" filterUnits="userSpaceOnUse">
      <feOffset dy="3" input="SourceAlpha"/>
      <feGaussianBlur stdDeviation="3" result="blur"/>
      <feFlood flood-opacity="0.161"/>
      <feComposite operator="in" in2="blur"/>
      <feComposite in="SourceGraphic"/>
    </filter>
    <filter id="Trazado_1037072" x="26.829" y="31" width="118.672" height="57.933" filterUnits="userSpaceOnUse">
      <feOffset dy="3" input="SourceAlpha"/>
      <feGaussianBlur stdDeviation="3" result="blur-2"/>
      <feFlood flood-opacity="0.161"/>
      <feComposite operator="in" in2="blur-2"/>
      <feComposite in="SourceGraphic"/>
    </filter>
    <filter id="Trazado_1037074" x="192.829" y="31" width="131.715" height="57.933" filterUnits="userSpaceOnUse">
      <feOffset dy="3" input="SourceAlpha"/>
      <feGaussianBlur stdDeviation="3" result="blur-3"/>
      <feFlood flood-opacity="0.161"/>
      <feComposite operator="in" in2="blur-3"/>
      <feComposite in="SourceGraphic"/>
    </filter>
    <filter id="Trazado_1037076" x="372.829" y="31" width="123.821" height="57.933" filterUnits="userSpaceOnUse">
      <feOffset dy="3" input="SourceAlpha"/>
      <feGaussianBlur stdDeviation="3" result="blur-4"/>
      <feFlood flood-opacity="0.161"/>
      <feComposite operator="in" in2="blur-4"/>
      <feComposite in="SourceGraphic"/>
    </filter>
    <filter id="Rectángulo_403036" x="543.829" y="31" width="118.672" height="57.933" filterUnits="userSpaceOnUse">
      <feOffset dy="3" input="SourceAlpha"/>
      <feGaussianBlur stdDeviation="3" result="blur-5"/>
      <feFlood flood-opacity="0.161"/>
      <feComposite operator="in" in2="blur-5"/>
      <feComposite in="SourceGraphic"/>
    </filter>
    <filter id="Rectángulo_403036-2" x="710.829" y="31" width="118.672" height="57.933" filterUnits="userSpaceOnUse">
      <feOffset dy="3" input="SourceAlpha"/>
      <feGaussianBlur stdDeviation="3" result="blur-6"/>
      <feFlood flood-opacity="0.161"/>
      <feComposite operator="in" in2="blur-6"/>
      <feComposite in="SourceGraphic"/>
    </filter>
    <filter id="Rectángulo_403036-3" x="876.829" y="21" width="143.631" height="77.933" filterUnits="userSpaceOnUse">
      <feOffset dy="3" input="SourceAlpha"/>
      <feGaussianBlur stdDeviation="3" result="blur-7"/>
      <feFlood flood-opacity="0.161"/>
      <feComposite operator="in" in2="blur-7"/>
      <feComposite in="SourceGraphic"/>
    </filter>
    <filter id="Trazado_1037078" x="142.829" y="33" width="52.203" height="54" filterUnits="userSpaceOnUse">
      <feOffset dy="3" input="SourceAlpha"/>
      <feGaussianBlur stdDeviation="3" result="blur-8"/>
      <feFlood flood-opacity="0.161"/>
      <feComposite operator="in" in2="blur-8"/>
      <feComposite in="SourceGraphic"/>
    </filter>
    <filter id="Trazado_1037079" x="322.829" y="33" width="52.203" height="54" filterUnits="userSpaceOnUse">
      <feOffset dy="3" input="SourceAlpha"/>
      <feGaussianBlur stdDeviation="3" result="blur-9"/>
      <feFlood flood-opacity="0.161"/>
      <feComposite operator="in" in2="blur-9"/>
      <feComposite in="SourceGraphic"/>
    </filter>
    <filter id="Trazado_1037080" x="493.829" y="33" width="52.203" height="54" filterUnits="userSpaceOnUse">
      <feOffset dy="3" input="SourceAlpha"/>
      <feGaussianBlur stdDeviation="3" result="blur-10"/>
      <feFlood flood-opacity="0.161"/>
      <feComposite operator="in" in2="blur-10"/>
      <feComposite in="SourceGraphic"/>
    </filter>
    <filter id="Trazado_1037081" x="660.829" y="33" width="52.203" height="54" filterUnits="userSpaceOnUse">
      <feOffset dy="3" input="SourceAlpha"/>
      <feGaussianBlur stdDeviation="3" result="blur-11"/>
      <feFlood flood-opacity="0.161"/>
      <feComposite operator="in" in2="blur-11"/>
      <feComposite in="SourceGraphic"/>
    </filter>
    <filter id="Trazado_1037082" x="826.829" y="33" width="52.203" height="54" filterUnits="userSpaceOnUse">
      <feOffset dy="3" input="SourceAlpha"/>
      <feGaussianBlur stdDeviation="3" result="blur-12"/>
      <feFlood flood-opacity="0.161"/>
      <feComposite operator="in" in2="blur-12"/>
      <feComposite in="SourceGraphic"/>
    </filter>
  </defs>
  <g id="Grupo_1202355" data-name="Grupo 1202355" transform="translate(-276 -1973.824)">
    <g transform="matrix(1, 0, 0, 1, 276, 1973.82)" filter="url(#Trazado_1037071)">
      <path id="Trazado_1037071-2" data-name="Trazado 1037071" d="M10,0H1020a10,10,0,0,1,10,10V91a10,10,0,0,1-10,10H10A10,10,0,0,1,0,91V10A10,10,0,0,1,10,0Z" transform="translate(9 6)" fill="#d2f3e8"/>
    </g>
    <g transform="matrix(1, 0, 0, 1, 276, 1973.82)" filter="url(#Trazado_1037072)">
      <path id="Trazado_1037072-2" data-name="Trazado 1037072" d="M10,0H90.672a10,10,0,0,1,10,10V29.933a10,10,0,0,1-10,10H10a10,10,0,0,1-10-10V10A10,10,0,0,1,10,0Z" transform="translate(35.83 37)" fill="#fff"/>
    </g>
    <path id="Trazado_1037073" data-name="Trazado 1037073" d="M13.105,12.07h-4.5v3.047h5.281V17H6.261V5.625h7.609v1.9H8.605v2.711h4.5Zm4.086-3.523.07.977a2.951,2.951,0,0,1,2.43-1.133,2.453,2.453,0,0,1,2,.789,3.682,3.682,0,0,1,.672,2.359V17H20.105V11.594a1.465,1.465,0,0,0-.312-1.043,1.4,1.4,0,0,0-1.039-.324,1.553,1.553,0,0,0-1.43.813V17H15.066V8.547Zm9.586-2.078V8.547h1.445V10.2H26.777v4.219a1.007,1.007,0,0,0,.18.672.9.9,0,0,0,.688.2,3.6,3.6,0,0,0,.664-.055v1.711a4.648,4.648,0,0,1-1.367.2,2.156,2.156,0,0,1-2.422-2.4V10.2H23.285V8.547h1.234V6.469Zm7.453,4.2a6.134,6.134,0,0,0-.812-.062,1.654,1.654,0,0,0-1.68.867V17H29.48V8.547h2.133l.063,1.008a2.092,2.092,0,0,1,1.883-1.164,2.366,2.366,0,0,1,.7.1ZM39.98,17a2.507,2.507,0,0,1-.227-.758,2.732,2.732,0,0,1-2.133.914,3,3,0,0,1-2.059-.719,2.312,2.312,0,0,1-.816-1.812,2.389,2.389,0,0,1,1-2.062,4.915,4.915,0,0,1,2.879-.727H39.66v-.484a1.393,1.393,0,0,0-.3-.937,1.183,1.183,0,0,0-.949-.352,1.345,1.345,0,0,0-.895.273.929.929,0,0,0-.324.75H34.933a2.268,2.268,0,0,1,.453-1.359,3,3,0,0,1,1.281-.98,4.669,4.669,0,0,1,1.859-.355,3.689,3.689,0,0,1,2.48.785,2.747,2.747,0,0,1,.918,2.207v3.664a4.041,4.041,0,0,0,.336,1.82V17Zm-1.867-1.57a1.945,1.945,0,0,0,.922-.223,1.462,1.462,0,0,0,.625-.6V13.156h-.844q-1.7,0-1.8,1.172L37,14.461a.9.9,0,0,0,.3.7A1.153,1.153,0,0,0,38.113,15.43Zm5.2-2.719a5.094,5.094,0,0,1,.887-3.148,2.877,2.877,0,0,1,2.426-1.172,2.589,2.589,0,0,1,2.039.922V5h2.266V17H48.886l-.109-.9a2.657,2.657,0,0,1-2.172,1.055A2.869,2.869,0,0,1,44.21,15.98,5.258,5.258,0,0,1,43.308,12.711Zm2.258.168A3.337,3.337,0,0,0,45.98,14.7a1.349,1.349,0,0,0,1.2.634,1.511,1.511,0,0,0,1.477-.884V11.111a1.489,1.489,0,0,0-1.461-.884Q45.566,10.227,45.566,12.879ZM57.574,17a2.507,2.507,0,0,1-.227-.758,2.732,2.732,0,0,1-2.133.914,3,3,0,0,1-2.059-.719,2.312,2.312,0,0,1-.816-1.812,2.389,2.389,0,0,1,1-2.062,4.915,4.915,0,0,1,2.879-.727h1.039v-.484a1.393,1.393,0,0,0-.3-.937A1.183,1.183,0,0,0,56,10.063a1.345,1.345,0,0,0-.895.273.929.929,0,0,0-.324.75H52.527a2.268,2.268,0,0,1,.453-1.359,3,3,0,0,1,1.281-.98,4.669,4.669,0,0,1,1.859-.355,3.689,3.689,0,0,1,2.48.785,2.747,2.747,0,0,1,.918,2.207v3.664a4.041,4.041,0,0,0,.336,1.82V17Zm-1.867-1.57a1.945,1.945,0,0,0,.922-.223,1.462,1.462,0,0,0,.625-.6V13.156H56.41q-1.7,0-1.8,1.172l-.008.133a.9.9,0,0,0,.3.7A1.153,1.153,0,0,0,55.707,15.43Z" transform="translate(329.392 2021.535)" fill="#12263f"/>
    <g transform="matrix(1, 0, 0, 1, 276, 1973.82)" filter="url(#Trazado_1037074)">
      <path id="Trazado_1037074-2" data-name="Trazado 1037074" d="M10,0h93.715a10,10,0,0,1,10,10V29.933a10,10,0,0,1-10,10H10a10,10,0,0,1-10-10V10A10,10,0,0,1,10,0Z" transform="translate(201.83 37)" fill="#fff"/>
    </g>
    <path id="Trazado_1037075" data-name="Trazado 1037075" d="M8.264,12.992V17H5.92V5.625h4.437a5.134,5.134,0,0,1,2.254.469,3.454,3.454,0,0,1,1.5,1.332,3.714,3.714,0,0,1,.523,1.965,3.266,3.266,0,0,1-1.145,2.637,4.767,4.767,0,0,1-3.168.965Zm0-1.9h2.094a2.059,2.059,0,0,0,1.418-.437,1.591,1.591,0,0,0,.488-1.25,1.876,1.876,0,0,0-.492-1.352,1.839,1.839,0,0,0-1.359-.531H8.264Zm11.719,6.063a4.15,4.15,0,0,1-3.027-1.141,4.054,4.054,0,0,1-1.168-3.039v-.219a5.106,5.106,0,0,1,.492-2.277,3.612,3.612,0,0,1,1.395-1.547,3.914,3.914,0,0,1,2.059-.543,3.508,3.508,0,0,1,2.73,1.094,4.444,4.444,0,0,1,1,3.1v.922H18.077a2.1,2.1,0,0,0,.66,1.328,2,2,0,0,0,1.395.5,2.437,2.437,0,0,0,2.039-.945l1.109,1.242A3.389,3.389,0,0,1,21.9,16.754,4.511,4.511,0,0,1,19.983,17.156Zm-.258-6.945a1.411,1.411,0,0,0-1.09.455,2.357,2.357,0,0,0-.535,1.3h3.141v-.181a1.681,1.681,0,0,0-.406-1.165A1.456,1.456,0,0,0,19.725,10.211Zm4.664,2.5a5.094,5.094,0,0,1,.887-3.148A2.877,2.877,0,0,1,27.7,8.391a2.589,2.589,0,0,1,2.039.922V5h2.266V17H29.967l-.109-.9a2.657,2.657,0,0,1-2.172,1.055,2.869,2.869,0,0,1-2.395-1.176A5.258,5.258,0,0,1,24.389,12.711Zm2.258.168a3.337,3.337,0,0,0,.414,1.823,1.349,1.349,0,0,0,1.2.634,1.511,1.511,0,0,0,1.477-.884V11.111a1.489,1.489,0,0,0-1.461-.884Q26.647,10.227,26.647,12.879ZM36.139,17H33.873V8.547h2.266Zm-2.4-10.641a1.112,1.112,0,0,1,.34-.836,1.465,1.465,0,0,1,1.848,0,1.105,1.105,0,0,1,.344.836,1.108,1.108,0,0,1-.348.844,1.448,1.448,0,0,1-1.836,0A1.108,1.108,0,0,1,33.741,6.359ZM40.381,17H38.116V5h2.266Zm6.922-.859a2.831,2.831,0,0,1-2.312,1.016,2.67,2.67,0,0,1-2.074-.781,3.335,3.335,0,0,1-.73-2.289V8.547h2.258v5.467q0,1.322,1.2,1.322a1.63,1.63,0,0,0,1.578-.8V8.547h2.266V17H47.366Zm7.055-1.9,1.57-5.7h2.359L55.436,17H53.28L50.428,8.547h2.359ZM61.663,17H59.4V8.547h2.266Zm-2.4-10.641a1.112,1.112,0,0,1,.34-.836,1.465,1.465,0,0,1,1.848,0,1.105,1.105,0,0,1,.344.836,1.108,1.108,0,0,1-.348.844,1.448,1.448,0,0,1-1.836,0A1.108,1.108,0,0,1,59.264,6.359ZM63.17,12.7a5.013,5.013,0,0,1,.484-2.242A3.546,3.546,0,0,1,65.049,8.93a4.069,4.069,0,0,1,2.113-.539,3.849,3.849,0,0,1,2.793,1.047,4.2,4.2,0,0,1,1.207,2.844l.016.578a4.418,4.418,0,0,1-1.086,3.121,4.209,4.209,0,0,1-5.832,0A4.5,4.5,0,0,1,63.17,12.8Zm2.258.16a3.16,3.16,0,0,0,.453,1.843,1.628,1.628,0,0,0,2.578.008,3.457,3.457,0,0,0,.461-2.015,3.128,3.128,0,0,0-.461-1.831,1.5,1.5,0,0,0-1.3-.649,1.474,1.474,0,0,0-1.281.646A3.516,3.516,0,0,0,65.428,12.856Z" transform="translate(497.829 2020.825)" fill="#12263f"/>
    <g transform="matrix(1, 0, 0, 1, 276, 1973.82)" filter="url(#Trazado_1037076)">
      <path id="Trazado_1037076-2" data-name="Trazado 1037076" d="M10,0H95.821a10,10,0,0,1,10,10V29.933a10,10,0,0,1-10,10H10a10,10,0,0,1-10-10V10A10,10,0,0,1,10,0Z" transform="translate(381.83 37)" fill="#fff"/>
    </g>
    <path id="Trazado_1037077" data-name="Trazado 1037077" d="M5,5.625l2.922,8.25,2.906-8.25h3.078V17H11.559V13.891l.234-5.367L8.723,17H7.114L4.051,8.531l.234,5.359V17H1.942V5.625ZM20.707,17a2.507,2.507,0,0,1-.227-.758,2.732,2.732,0,0,1-2.133.914,3,3,0,0,1-2.059-.719,2.312,2.312,0,0,1-.816-1.812,2.389,2.389,0,0,1,1-2.062,4.915,4.915,0,0,1,2.879-.727h1.039v-.484a1.393,1.393,0,0,0-.3-.937,1.183,1.183,0,0,0-.949-.352,1.345,1.345,0,0,0-.895.273.929.929,0,0,0-.324.75H15.661a2.268,2.268,0,0,1,.453-1.359,3,3,0,0,1,1.281-.98,4.669,4.669,0,0,1,1.859-.355,3.689,3.689,0,0,1,2.48.785,2.747,2.747,0,0,1,.918,2.207v3.664a4.041,4.041,0,0,0,.336,1.82V17ZM18.84,15.43a1.945,1.945,0,0,0,.922-.223,1.462,1.462,0,0,0,.625-.6V13.156h-.844q-1.7,0-1.8,1.172l-.008.133a.9.9,0,0,0,.3.7A1.153,1.153,0,0,0,18.84,15.43Zm8.25-8.961V8.547h1.445V10.2H27.09v4.219a1.007,1.007,0,0,0,.18.672.9.9,0,0,0,.688.2,3.6,3.6,0,0,0,.664-.055v1.711a4.648,4.648,0,0,1-1.367.2,2.156,2.156,0,0,1-2.422-2.4V10.2H23.6V8.547h1.234V6.469Zm6.594,10.688a4.15,4.15,0,0,1-3.027-1.141,4.054,4.054,0,0,1-1.168-3.039v-.219a5.106,5.106,0,0,1,.492-2.277,3.612,3.612,0,0,1,1.395-1.547,3.914,3.914,0,0,1,2.059-.543,3.508,3.508,0,0,1,2.73,1.094,4.444,4.444,0,0,1,1,3.1v.922H31.778a2.1,2.1,0,0,0,.66,1.328,2,2,0,0,0,1.395.5,2.437,2.437,0,0,0,2.039-.945l1.109,1.242a3.389,3.389,0,0,1-1.375,1.121A4.511,4.511,0,0,1,33.684,17.156Zm-.258-6.945a1.411,1.411,0,0,0-1.09.455,2.357,2.357,0,0,0-.535,1.3h3.141v-.181a1.681,1.681,0,0,0-.406-1.165A1.456,1.456,0,0,0,33.426,10.211Zm9.766.453a6.134,6.134,0,0,0-.812-.062,1.654,1.654,0,0,0-1.68.867V17H38.442V8.547h2.133l.063,1.008A2.092,2.092,0,0,1,42.52,8.391a2.366,2.366,0,0,1,.7.1Zm3.164-2.117.07.977a2.951,2.951,0,0,1,2.43-1.133,2.453,2.453,0,0,1,2,.789,3.682,3.682,0,0,1,.672,2.359V17H49.27V11.594a1.465,1.465,0,0,0-.312-1.043,1.4,1.4,0,0,0-1.039-.324,1.553,1.553,0,0,0-1.43.813V17H44.231V8.547ZM55.622,17H53.356V8.547h2.266Zm-2.4-10.641a1.112,1.112,0,0,1,.34-.836,1.465,1.465,0,0,1,1.848,0,1.105,1.105,0,0,1,.344.836,1.108,1.108,0,0,1-.348.844,1.448,1.448,0,0,1-1.836,0A1.108,1.108,0,0,1,53.223,6.359Zm3.906,6.352a5.094,5.094,0,0,1,.887-3.148,2.877,2.877,0,0,1,2.426-1.172,2.589,2.589,0,0,1,2.039.922V5h2.266V17H62.707l-.109-.9a2.657,2.657,0,0,1-2.172,1.055,2.869,2.869,0,0,1-2.395-1.176A5.258,5.258,0,0,1,57.129,12.711Zm2.258.168A3.337,3.337,0,0,0,59.8,14.7a1.349,1.349,0,0,0,1.2.634,1.511,1.511,0,0,0,1.477-.884V11.111a1.489,1.489,0,0,0-1.461-.884Q59.387,10.227,59.387,12.879ZM71.395,17a2.507,2.507,0,0,1-.227-.758,2.732,2.732,0,0,1-2.133.914,3,3,0,0,1-2.059-.719,2.312,2.312,0,0,1-.816-1.812,2.389,2.389,0,0,1,1-2.062,4.915,4.915,0,0,1,2.879-.727h1.039v-.484a1.393,1.393,0,0,0-.3-.937,1.183,1.183,0,0,0-.949-.352,1.345,1.345,0,0,0-.895.273.929.929,0,0,0-.324.75H66.348A2.268,2.268,0,0,1,66.8,9.727a3,3,0,0,1,1.281-.98,4.669,4.669,0,0,1,1.859-.355,3.689,3.689,0,0,1,2.48.785,2.747,2.747,0,0,1,.918,2.207v3.664a4.041,4.041,0,0,0,.336,1.82V17Zm-1.867-1.57a1.945,1.945,0,0,0,.922-.223,1.462,1.462,0,0,0,.625-.6V13.156h-.844q-1.7,0-1.8,1.172l-.008.133a.9.9,0,0,0,.3.7A1.153,1.153,0,0,0,69.528,15.43Zm5.2-2.719a5.094,5.094,0,0,1,.887-3.148,2.877,2.877,0,0,1,2.426-1.172,2.589,2.589,0,0,1,2.039.922V5H82.34V17H80.3l-.109-.9a2.657,2.657,0,0,1-2.172,1.055,2.869,2.869,0,0,1-2.395-1.176A5.258,5.258,0,0,1,74.723,12.711Zm2.258.168a3.337,3.337,0,0,0,.414,1.823,1.349,1.349,0,0,0,1.2.634,1.511,1.511,0,0,0,1.477-.884V11.111a1.489,1.489,0,0,0-1.461-.884Q76.981,10.227,76.981,12.879Z" transform="translate(668.921 2020.824)" fill="#12263f"/>
    <g id="Grupo_1189822" data-name="Grupo 1189822" transform="translate(828.829 2010.824)">
      <g transform="matrix(1, 0, 0, 1, -552.83, -37)" filter="url(#Rectángulo_403036)">
        <rect id="Rectángulo_403036-4" data-name="Rectángulo 403036" width="100.672" height="39.933" rx="10" transform="translate(552.83 37)" fill="#fff"/>
      </g>
      <text id="Engorde" transform="translate(11.093 10)" fill="#12263f" font-size="16" font-family="Roboto-Bold, Roboto" font-weight="700"><tspan x="-29.82" y="17">Engorde</tspan></text>
    </g>
    <g id="Grupo_1189822-2" data-name="Grupo 1189822" transform="translate(995.829 2010.824)">
      <g transform="matrix(1, 0, 0, 1, -719.83, -37)" filter="url(#Rectángulo_403036-2)">
        <rect id="Rectángulo_403036-5" data-name="Rectángulo 403036" width="100.672" height="39.933" rx="10" transform="translate(719.83 37)" fill="#fff"/>
      </g>
      <text id="Almacén" transform="translate(11.093 10)" fill="#12263f" font-size="16" font-family="Roboto-Bold, Roboto" font-weight="700"><tspan x="-31.695" y="17">Almacén</tspan></text>
    </g>
    <g id="Grupo_1189822-3" data-name="Grupo 1189822" transform="translate(1161.829 2000.824)">
      <g transform="matrix(1, 0, 0, 1, -885.83, -27)" filter="url(#Rectángulo_403036-3)">
        <rect id="Rectángulo_403036-6" data-name="Rectángulo 403036" width="125.631" height="59.933" rx="10" transform="translate(885.83 27)" fill="#fff"/>
      </g>
      <text id="Salida_sanitaria" data-name="Salida sanitaria" transform="translate(9.244 10)" fill="#12263f" font-size="16" font-family="Roboto-Bold, Roboto" font-weight="700"><tspan x="-22.246" y="17">Salida </tspan><tspan x="-31.324" y="36">sanitaria</tspan></text>
    </g>
    <g transform="matrix(1, 0, 0, 1, 276, 1973.82)" filter="url(#Trazado_1037078)">
      <path id="Trazado_1037078-2" data-name="Trazado 1037078" d="M17.1,0c9.445,0,17.1,8.059,17.1,18S26.546,36,17.1,36,0,27.941,0,18,7.657,0,17.1,0Z" transform="translate(151.83 39)" fill="#26c790"/>
    </g>
    <g id="Grupo_1189816" data-name="Grupo 1189816" transform="translate(435.686 2025.791)">
      <line id="Línea_660" data-name="Línea 660" x2="16.639" transform="translate(0 5)" fill="none" stroke="#fef7f6" stroke-linecap="round" stroke-width="3"/>
      <line id="Línea_661" data-name="Línea 661" x2="5.546" y2="5" transform="translate(12.942)" fill="none" stroke="#fef7f6" stroke-linecap="round" stroke-width="3"/>
      <line id="Línea_662" data-name="Línea 662" x1="5.546" y2="5" transform="translate(12.942 5)" fill="none" stroke="#fef7f6" stroke-linecap="round" stroke-width="3"/>
    </g>
    <g transform="matrix(1, 0, 0, 1, 276, 1973.82)" filter="url(#Trazado_1037079)">
      <path id="Trazado_1037079-2" data-name="Trazado 1037079" d="M17.1,0c9.445,0,17.1,8.059,17.1,18S26.546,36,17.1,36,0,27.941,0,18,7.657,0,17.1,0Z" transform="translate(331.83 39)" fill="#26c790"/>
    </g>
    <g id="Grupo_1189817" data-name="Grupo 1189817" transform="translate(615.686 2025.791)">
      <line id="Línea_660-2" data-name="Línea 660" x2="16.639" transform="translate(0 5)" fill="none" stroke="#fef7f6" stroke-linecap="round" stroke-width="3"/>
      <line id="Línea_661-2" data-name="Línea 661" x2="5.546" y2="5" transform="translate(12.942)" fill="none" stroke="#fef7f6" stroke-linecap="round" stroke-width="3"/>
      <line id="Línea_662-2" data-name="Línea 662" x1="5.546" y2="5" transform="translate(12.942 5)" fill="none" stroke="#fef7f6" stroke-linecap="round" stroke-width="3"/>
    </g>
    <g transform="matrix(1, 0, 0, 1, 276, 1973.82)" filter="url(#Trazado_1037080)">
      <path id="Trazado_1037080-2" data-name="Trazado 1037080" d="M17.1,0c9.445,0,17.1,8.059,17.1,18S26.546,36,17.1,36,0,27.941,0,18,7.657,0,17.1,0Z" transform="translate(502.83 39)" fill="#26c790"/>
    </g>
    <g id="Grupo_1189817-2" data-name="Grupo 1189817" transform="translate(786.686 2025.791)">
      <line id="Línea_660-3" data-name="Línea 660" x2="16.639" transform="translate(0 5)" fill="none" stroke="#fef7f6" stroke-linecap="round" stroke-width="3"/>
      <line id="Línea_661-3" data-name="Línea 661" x2="5.546" y2="5" transform="translate(12.942)" fill="none" stroke="#fef7f6" stroke-linecap="round" stroke-width="3"/>
      <line id="Línea_662-3" data-name="Línea 662" x1="5.546" y2="5" transform="translate(12.942 5)" fill="none" stroke="#fef7f6" stroke-linecap="round" stroke-width="3"/>
    </g>
    <g transform="matrix(1, 0, 0, 1, 276, 1973.82)" filter="url(#Trazado_1037081)">
      <path id="Trazado_1037081-2" data-name="Trazado 1037081" d="M17.1,0c9.445,0,17.1,8.059,17.1,18S26.546,36,17.1,36,0,27.941,0,18,7.657,0,17.1,0Z" transform="translate(669.83 39)" fill="#26c790"/>
    </g>
    <g id="Grupo_1189817-3" data-name="Grupo 1189817" transform="translate(953.686 2025.791)">
      <line id="Línea_660-4" data-name="Línea 660" x2="16.639" transform="translate(0 5)" fill="none" stroke="#fef7f6" stroke-linecap="round" stroke-width="3"/>
      <line id="Línea_661-4" data-name="Línea 661" x2="5.546" y2="5" transform="translate(12.942)" fill="none" stroke="#fef7f6" stroke-linecap="round" stroke-width="3"/>
      <line id="Línea_662-4" data-name="Línea 662" x1="5.546" y2="5" transform="translate(12.942 5)" fill="none" stroke="#fef7f6" stroke-linecap="round" stroke-width="3"/>
    </g>
    <g transform="matrix(1, 0, 0, 1, 276, 1973.82)" filter="url(#Trazado_1037082)">
      <path id="Trazado_1037082-2" data-name="Trazado 1037082" d="M17.1,0c9.445,0,17.1,8.059,17.1,18S26.546,36,17.1,36,0,27.941,0,18,7.657,0,17.1,0Z" transform="translate(835.83 39)" fill="#26c790"/>
    </g>
    <g id="Grupo_1189817-4" data-name="Grupo 1189817" transform="translate(1119.686 2025.791)">
      <line id="Línea_660-5" data-name="Línea 660" x2="16.639" transform="translate(0 5)" fill="none" stroke="#fef7f6" stroke-linecap="round" stroke-width="3"/>
      <line id="Línea_661-5" data-name="Línea 661" x2="5.546" y2="5" transform="translate(12.942)" fill="none" stroke="#fef7f6" stroke-linecap="round" stroke-width="3"/>
      <line id="Línea_662-5" data-name="Línea 662" x1="5.546" y2="5" transform="translate(12.942 5)" fill="none" stroke="#fef7f6" stroke-linecap="round" stroke-width="3"/>
    </g>
  </g>
</svg>
