<svg xmlns="http://www.w3.org/2000/svg" width="190" height="208.018" viewBox="0 0 190 208.018">
  <g id="Grupo_1202228" data-name="Grupo 1202228" transform="translate(-180.051 -3812)">
    <rect id="Rectángulo_409746" data-name="Rectángulo 409746" width="190" height="208.018" rx="10" transform="translate(180.051 3812)" fill="#fdbab3"/>
    <g id="Grupo_1202227" data-name="Grupo 1202227" transform="translate(201.77 3845)">
      <g id="Grupo_1202226" data-name="Grupo 1202226" transform="translate(3.281 0)">
        <path id="Trazado_1036456" data-name="Trazado 1036456" d="M144.041,48.69a2.089,2.089,0,0,0-2.089-2.089H110.635A30.869,30.869,0,0,0,103.8,39.14a40.193,40.193,0,0,1,7.022-17.323,2.089,2.089,0,0,0-3.42-2.4,44.576,44.576,0,0,0-7.395,17.153,30.669,30.669,0,0,0-12.459-3.945,56.43,56.43,0,0,1,6.44-11.618c6.914-9.545,15.723-15.2,26.186-16.816a.9.9,0,0,1,1.038.576A.888.888,0,0,1,120.89,5.9a62.519,62.519,0,0,0-8.35,7.282,2.089,2.089,0,1,0,3.021,2.885,58.33,58.33,0,0,1,7.791-6.792,5.053,5.053,0,0,0,1.723-6.1A5.062,5.062,0,0,0,119.539.065C108.053,1.836,98.02,8.271,90.524,18.675a59.6,59.6,0,0,0-7.4,13.81H62.2a59.6,59.6,0,0,0-7.4-13.81C47.3,8.271,37.266,1.835,25.781.064a5.063,5.063,0,0,0-5.536,3.111,5.054,5.054,0,0,0,1.722,6.1c7.81,5.7,17.427,15.463,19.546,29.867A30.858,30.858,0,0,0,34.684,46.6H5.37A2.089,2.089,0,0,0,3.281,48.69,26.252,26.252,0,0,0,25.123,74.513L21.779,85.867a31.108,31.108,0,0,0,7.292,30.161,2.089,2.089,0,0,0,3.025-2.882,26.919,26.919,0,0,1-6.31-26.1l9.165-31.122A26.857,26.857,0,0,1,57.584,36.843v44.2a14.988,14.988,0,0,1-4.629,10.741,18.271,18.271,0,0,0-.129,25.971,18.579,18.579,0,0,0,2,1.729c0,.085-.008.169-.008.255a13.133,13.133,0,0,0,13.129,13.129h9.431A13.144,13.144,0,0,0,90.5,119.742c0-.089-.006-.176-.008-.265a18.248,18.248,0,0,0,1.869-27.689,14.988,14.988,0,0,1-4.63-10.742v-44.2a26.856,26.856,0,0,1,22.632,19.082l9.165,31.122a26.758,26.758,0,0,1-8.964,28.537L89.454,132.51a26.852,26.852,0,0,1-33.586,0l-18.088-14.5a2.089,2.089,0,0,0-2.613,3.259l18.088,14.5a31.029,31.029,0,0,0,38.811,0l21.115-16.927A30.92,30.92,0,0,0,123.54,85.867l-3.27-11.1A26.178,26.178,0,0,0,144.041,48.69ZM26.315,70.466A22.065,22.065,0,0,1,7.558,50.779H32.414a31.4,31.4,0,0,0-1.469,3.966ZM24.429,5.9a.889.889,0,0,1-.324-1.131.9.9,0,0,1,1.038-.578c10.46,1.613,19.27,7.271,26.184,16.817a56.459,56.459,0,0,1,6.44,11.618A30.667,30.667,0,0,0,45.311,36.57C42.449,21.822,32.538,11.819,24.429,5.9ZM77.375,128.694H67.944a8.968,8.968,0,0,1-8.685-6.769,18.258,18.258,0,0,0,6.488,1.186H79.573a18.171,18.171,0,0,0,6.485-1.193A8.966,8.966,0,0,1,77.375,128.694ZM89.443,94.774a14.1,14.1,0,0,1-9.87,24.159H74.748v-4.4a12.878,12.878,0,0,0,10.77-12.687,2.089,2.089,0,1,0-4.177,0,8.682,8.682,0,1,1-17.363,0,2.089,2.089,0,1,0-4.177,0,12.878,12.878,0,0,0,10.77,12.687v4.4H65.747a14.1,14.1,0,0,1-9.868-24.161,19.133,19.133,0,0,0,5.883-13.726V36.662h21.8V81.047a19.136,19.136,0,0,0,5.885,13.727Zm29.619-24.113-4.687-15.916a31.405,31.405,0,0,0-1.469-3.966h26.861a22,22,0,0,1-20.7,19.882Z" transform="translate(-3.281 0)"/>
        <ellipse id="Elipse_12381" data-name="Elipse 12381" cx="6.337" cy="9.471" rx="6.337" ry="9.471" transform="translate(30.159 68.892)"/>
        <path id="Trazado_1036457" data-name="Trazado 1036457" d="M359.85,256.845c0-5.222-2.843-9.471-6.337-9.471s-6.337,4.248-6.337,9.471,2.843,9.47,6.337,9.47S359.85,262.067,359.85,256.845Z" transform="translate(-251.404 -178.482)"/>
      </g>
    </g>
  </g>
</svg>
