<svg xmlns="http://www.w3.org/2000/svg" width="82" height="82" viewBox="0 0 82 82">
  <g id="Grupo_1189675" data-name="Grupo 1189675" transform="translate(-768.781 -1963)">
    <rect id="Rectángulo_402627" data-name="Rectángulo 402627" width="82" height="82" transform="translate(768.781 1963)" fill="none"/>
    <g id="Grupo_1188546" data-name="Grupo 1188546" transform="translate(779.672 1973.89)">
      <path id="Trazado_874844" data-name="Trazado 874844" d="M60.138,8.629,52.366.858a3.039,3.039,0,0,0-4.232,0,3.06,3.06,0,0,0-.191,4.423l1.541,1.541-4.456,4.456L41.287,7.538a2.054,2.054,0,0,0-2.9,0l-2.8,2.8a2.1,2.1,0,0,0,.083,2.985L7.088,41.9a2.8,2.8,0,0,0-.251,3.663l.109,3.507a5.11,5.11,0,0,0,.929,2.783l-7.6,7.6a.894.894,0,0,0,1.264,1.264l7.6-7.6a5.11,5.11,0,0,0,2.783.929l3.507.109a2.795,2.795,0,0,0,3.663-.251l22.5-22.5a.893.893,0,1,0-1.264-1.264l-4,4-9.476-9.477L29.223,22.3l2.833,2.833a.894.894,0,1,0,1.264-1.264l-2.833-2.833,2.293-2.293,2.833,2.833a.894.894,0,1,0,1.264-1.264l-2.833-2.833,2.89-2.89,9.477,9.477-3.131,3.131a.893.893,0,0,0,1.264,1.264l3.131-3.131a2.1,2.1,0,0,0,2.985.083l2.8-2.8a2.1,2.1,0,0,0,0-2.9l-3.74-3.74,2.128-2.128a.894.894,0,0,0-1.264-1.264L48.453,14.7l-2.162-2.162,4.456-4.456,4.967,4.967a3,3,0,0,0,4.232,0,3.063,3.063,0,0,0,.191-4.424ZM17.828,52.644a1.007,1.007,0,0,1-1.424,0,.893.893,0,0,0-.6-.261l-3.823-.119a3.358,3.358,0,0,1-3.245-3.245l-.119-3.823a.893.893,0,0,0-.261-.6,1.008,1.008,0,0,1,0-1.424l1.807-1.807,9.477,9.477ZM35.056,35.415,20.9,49.573,11.422,40.1,22.2,29.315l2.833,2.833A.893.893,0,1,0,26.3,30.885l-2.833-2.833,2.112-2.112ZM52.271,21.159a.259.259,0,0,1-.077.187l-2.8,2.8a.265.265,0,0,1-.374,0L36.85,11.974c-.009-.075-.159-.048,0-.374l2.8-2.8c.072.016-.013-.167.374,0L52.194,20.972A.26.26,0,0,1,52.271,21.159Zm6.6-9.561-.191.191a1.207,1.207,0,0,1-1.705,0L49.206,4.017a1.285,1.285,0,0,1,.191-1.9,1.244,1.244,0,0,1,1.7,0l7.772,7.772A1.207,1.207,0,0,1,58.874,11.6Z" transform="translate(-0.017 0)" fill="#12263f"/>
      <path id="Trazado_874845" data-name="Trazado 874845" d="M131.268,116.179a.894.894,0,0,0,1.264-1.264l-2.069-2.069a.894.894,0,1,0-1.264,1.264Z" transform="translate(-113.578 -99.171)" fill="#12263f"/>
      <path id="Trazado_874846" data-name="Trazado 874846" d="M184.66,89.05a.893.893,0,0,0,.893-.894V84.841a.893.893,0,1,0-1.787,0v3.314A.894.894,0,0,0,184.66,89.05Z" transform="translate(-161.875 -73.947)" fill="#12263f"/>
      <path id="Trazado_874847" data-name="Trazado 874847" d="M101.464,168.933h3.315a.894.894,0,1,0,0-1.787h-3.315a.894.894,0,1,0,0,1.787Z" transform="translate(-88.591 -147.233)" fill="#12263f"/>
      <ellipse id="Elipse_11531" data-name="Elipse 11531" cx="0.916" cy="0.916" rx="0.916" ry="0.916" transform="translate(20.882 42.612)" fill="#12263f"/>
      <ellipse id="Elipse_11532" data-name="Elipse 11532" cx="0.916" cy="0.916" rx="0.916" ry="0.916" transform="translate(23.919 39.67)" fill="#12263f"/>
    </g>
  </g>
</svg>
