<svg id="Grupo_1202252" data-name="Grupo 1202252" xmlns="http://www.w3.org/2000/svg" width="100" height="100" viewBox="0 0 100 100">
  <rect id="Rectángulo_409766" data-name="Rectángulo 409766" width="100" height="100" fill="none"/>
  <g id="Layer_32" data-name="Layer 32" transform="translate(5.284 13.677)">
    <path id="Trazado_1036510" data-name="Trazado 1036510" d="M88.65,27.711l.294.586a5.825,5.825,0,0,1-1.091,6.713L86.02,36.842a5.416,5.416,0,0,1-6.83.676L76.13,35.48c-.084-.019-.163-.05-.246-.07l-.624,1.04A12.418,12.418,0,0,0,73.546,41.7a15.222,15.222,0,0,1-6.612,11.222,12.22,12.22,0,0,0-.231,2.3,15.045,15.045,0,0,1-1.578,6.689,12.172,12.172,0,0,0-1.278,5.412v6.8a4.285,4.285,0,0,1-4.285,4.285H57.753a4.261,4.261,0,0,1-1.954-.491,4.247,4.247,0,0,1-1.951.491H52.04A4.3,4.3,0,0,1,47.8,74.737l-1.3-9.06c-.477-3.342-.8-6.726-1-10.114h-4a23.326,23.326,0,0,1-8.856-1.774A11.5,11.5,0,0,1,25.774,60.6l-.95,1.9a9.4,9.4,0,0,0-.971,4.174,9.3,9.3,0,0,0,.48,2.95l.428,1.272a10.208,10.208,0,0,1,.52,3.237A4.285,4.285,0,0,1,21,78.417H18.14a4.234,4.234,0,0,1-1.408-.27,4.2,4.2,0,0,1-1.448.27H12.427a4.285,4.285,0,0,1-4.285-4.285V60.081a47.111,47.111,0,0,1,.912-9.219,26.531,26.531,0,0,0-.067-10.738l-.039-.177A19.442,19.442,0,0,1,10.713,26.8l-1,.2a7.3,7.3,0,0,0-5.856,7.142V49.85H1V34.138A10.165,10.165,0,0,1,9.151,24.2l3.839-.77A17.94,17.94,0,0,1,17.562,19.6a19.022,19.022,0,0,1,11.7-2.481l10.56,1.173A22.7,22.7,0,0,0,50.3,16.98l5.118-1.92a14.366,14.366,0,0,1,5.069-.918h.15c-.077-.166-.171-.319-.24-.488l-.736-1.837a1.428,1.428,0,0,1,.688-1.81l1.578-.788a7.612,7.612,0,0,1,6.69,0l.658.329A8.689,8.689,0,0,1,75.449,7a7.819,7.819,0,0,1,5.176,1.977A15.17,15.17,0,0,1,88.128,7a1.428,1.428,0,0,1,1.428,1.428,10.594,10.594,0,0,1-4.085,8.383,17.36,17.36,0,0,1,.548,2.472A27.519,27.519,0,0,0,88.65,27.711ZM84,34.818l1.833-1.831a2.97,2.97,0,0,0,.556-3.419l-.209-.416a9.076,9.076,0,0,0-4.868,6.218A2.6,2.6,0,0,0,84,34.818ZM60.99,74.132v-6.8a15.045,15.045,0,0,1,1.571-6.689,12.172,12.172,0,0,0,1.285-5.412c0-.233.03-.466.041-.7a15.106,15.106,0,0,1-2.9.807,15.042,15.042,0,0,1-1.571,6.58,12.172,12.172,0,0,0-1.285,5.412v6.8a4.237,4.237,0,0,1-.263,1.428h1.691A1.428,1.428,0,0,0,60.99,74.132Zm-30.936-21.6a23.071,23.071,0,0,1-3.075-2.07,2.8,2.8,0,0,0-4.554,2.187,13.809,13.809,0,0,1-1.264,5.713c.257.023.513.056.771.056a8.594,8.594,0,0,0,8.121-5.886Zm-7.629,21.6a7.309,7.309,0,0,0-.38-2.332l-.429-1.273a12.169,12.169,0,0,1,.644-9.264c-.111,0-.221.014-.334.014a11.523,11.523,0,0,1-2.088-.216L19.124,62.5a9.4,9.4,0,0,0-.984,4.174,9.3,9.3,0,0,0,.48,2.95l.428,1.272a10.208,10.208,0,0,1,.52,3.237,4.237,4.237,0,0,1-.263,1.428H21A1.428,1.428,0,0,0,22.425,74.132ZM11.742,39.35l.037.177a29.384,29.384,0,0,1,.647,6.129c0,.45-.046.9-.067,1.348a7.646,7.646,0,0,0,2.924-6.01A6.228,6.228,0,0,1,18.061,35.8,3.378,3.378,0,0,0,19.568,33a15.168,15.168,0,0,0-3.051-9.09A16.193,16.193,0,0,0,11.742,39.35ZM39.508,21.126l-2.83-.314a18.828,18.828,0,0,1-1.22,2.472,11.292,11.292,0,0,0-1.607,5.8,3.621,3.621,0,0,0,6.182,2.561,24.593,24.593,0,0,1,10.611-6.242,5.785,5.785,0,0,0,4.1-4.444l.561-2.807-4,1.5A25.556,25.556,0,0,1,39.508,21.126ZM70.57,12.295a1.428,1.428,0,0,1-1.648.269l-1.58-.79a4.7,4.7,0,0,0-4.134,0l-.4.2.246.617A6.977,6.977,0,0,0,69.56,17v2.857A9.808,9.808,0,0,1,62.634,17H60.491a11.607,11.607,0,0,0-2.078.189l-.868,4.336a8.63,8.63,0,0,1-6.113,6.63,21.741,21.741,0,0,0-9.376,5.515,6.477,6.477,0,0,1-11.061-4.581,14.14,14.14,0,0,1,2.014-7.273c.259-.429.491-.877.714-1.331l-4.766-.53a16.183,16.183,0,0,0-9.944,2.107c-.07.041-.134.09-.2.131A18.026,18.026,0,0,1,22.425,33a6.228,6.228,0,0,1-2.778,5.192,3.378,3.378,0,0,0-1.507,2.807,10.5,10.5,0,0,1-6.156,9.556c-.049.286-.071.571-.127.857A44.3,44.3,0,0,0,11,60.075V74.132a1.428,1.428,0,0,0,1.428,1.428h2.855a1.428,1.428,0,0,0,1.428-1.428,7.309,7.309,0,0,0-.38-2.332L15.9,70.527a12.152,12.152,0,0,1-.626-3.856,12.284,12.284,0,0,1,1.286-5.451l1.847-3.694a10.954,10.954,0,0,0,1.158-4.875,5.659,5.659,0,0,1,9.194-4.418,20.475,20.475,0,0,0,12.751,4.474h3.842q-.077-2.142-.077-4.285h2.857a119.291,119.291,0,0,0,1.2,16.838l1.3,9.077a1.428,1.428,0,0,0,1.413,1.226h1.808a1.428,1.428,0,0,0,1.428-1.428V67.327a15.044,15.044,0,0,1,1.571-6.689,12.172,12.172,0,0,0,1.285-5.412A15.106,15.106,0,0,1,64.148,43.2l.27-.2,1.714,2.285-.271.2a12.244,12.244,0,0,0-4.516,6.856,12.372,12.372,0,0,0,9.358-10.9,15.306,15.306,0,0,1,2.11-6.462l.319-.527a14.8,14.8,0,0,1-7.6-7.973l-.153-.38,2.654-1.063.151.38a11.985,11.985,0,0,0,8.809,7.322,1.428,1.428,0,0,1,.513.211l1.263.843a11.918,11.918,0,0,1,6.26-7.245c-.194-.49-.363-.987-.531-1.485L82,24.711A6.2,6.2,0,0,1,76.7,18.6a5.366,5.366,0,0,0-.564-2.387,8.224,8.224,0,0,1-.864-3.664V9.874a5.846,5.846,0,0,0-3.991,1.714Zm7.56-1.655v1.905a5.366,5.366,0,0,0,.564,2.387,8.224,8.224,0,0,1,.864,3.664,3.334,3.334,0,0,0,2.848,3.285l1.221.174q-.263-1.173-.436-2.367a14.855,14.855,0,0,0-4.176-8.353,4.959,4.959,0,0,0-.886-.7Zm8.427-.683a12.284,12.284,0,0,0-3.929,1.2,17.786,17.786,0,0,1,1.75,2.828A7.727,7.727,0,0,0,86.557,9.957Z" transform="translate(-1 -7)"/>
    <path id="Trazado_1036511" data-name="Trazado 1036511" d="M34.893,32.141a8.119,8.119,0,0,0-4.518,3,8.988,8.988,0,0,1-7.155,3.571H21.438a4.458,4.458,0,0,1-3.152-7.61l2.882-2.882A17.711,17.711,0,0,1,33.769,23a4.636,4.636,0,0,1,1.124,9.141Zm-1.124-6.285a14.866,14.866,0,0,0-10.581,4.382l-2.882,2.882a1.6,1.6,0,0,0,1.133,2.734h1.783a6.113,6.113,0,0,0,4.869-2.428A11.005,11.005,0,0,1,34.2,29.37a1.78,1.78,0,0,0-.428-3.507Z" transform="translate(27.298 -0.147)"/>
  </g>
</svg>
