<svg id="Grupo_1188542" data-name="Grupo 1188542" xmlns="http://www.w3.org/2000/svg" width="88.101" height="88.823" viewBox="0 0 88.101 88.823">
  <path id="Rectángulo_402596" data-name="Rectángulo 402596" d="M88.1,0h0a0,0,0,0,1,0,0V77.664A11.159,11.159,0,0,1,76.942,88.823H0a0,0,0,0,1,0,0V88.1A88.1,88.1,0,0,1,88.1,0Z" fill="#fdaa30"/>
  <path id="Trazado_874772" data-name="Trazado 874772" d="M11.14,4.843a.925.925,0,0,1,.841.406,1.627,1.627,0,0,1,.261.9,1.49,1.49,0,0,1-.261.87.95.95,0,0,1-.841.377H7.429q0,1.333,0,2.377a10.481,10.481,0,0,1-.058,1.391,1,1,0,0,1-.406.87,1.449,1.449,0,0,1-1.739,0,1,1,0,0,1-.406-.87V7.394H1.342A1.337,1.337,0,0,1,.27,7.017a1.1,1.1,0,0,1-.261-.87,1.657,1.657,0,0,1,.406-.9,1.16,1.16,0,0,1,.928-.406H4.821V1.307A1.2,1.2,0,0,1,5.226.264,1.319,1.319,0,0,1,6.1,0a1.46,1.46,0,0,1,.87.377,1.16,1.16,0,0,1,.406.928,8.449,8.449,0,0,1,.058,1.275q0,.986,0,2.261Z" transform="translate(64.968 74.877) rotate(-43)" fill="#fff"/>
  <g id="Grupo_1188464" data-name="Grupo 1188464" transform="translate(19.695 18.382)">
    <path id="Trazado_874763" data-name="Trazado 874763" d="M247.794,250.682a.652.652,0,0,1-.652.652h-.781a.652.652,0,0,1-.652-.652,4.274,4.274,0,0,1,.728-2.126,5.613,5.613,0,0,1,.513-.686c.206-.24.419-.509.636-.8a6.981,6.981,0,0,0,1.347-3.735,58.472,58.472,0,0,0-.13-7.4.652.652,0,1,1,1.3-.091,59.609,59.609,0,0,1,.132,7.576,8.282,8.282,0,0,1-1.6,4.43c-.235.317-.468.611-.694.874a4.384,4.384,0,0,0-.4.528,4.3,4.3,0,0,0-.393.783A.652.652,0,0,1,247.794,250.682Z" transform="translate(-238.246 -197.861)" fill="#12263f"/>
    <path id="Trazado_874764" data-name="Trazado 874764" d="M105.386,264.441a.652.652,0,0,1-.652.652h-1.352a.652.652,0,0,1-.5-1.073,11.874,11.874,0,0,0,2.273-11.51.652.652,0,0,1,1.249-.374,13.15,13.15,0,0,1-1.7,11.652h.026A.652.652,0,0,1,105.386,264.441Z" transform="translate(-71.692 -211.62)" fill="#12263f"/>
    <path id="Trazado_874765" data-name="Trazado 874765" d="M173.244,180.755c.309.035.624.061.938.079a3.887,3.887,0,0,1,1.584.433.652.652,0,1,1-.6,1.157,2.586,2.586,0,0,0-1.056-.288c-.337-.019-.676-.048-1.008-.085a15.617,15.617,0,0,0-4.619.13c-1.216,1.924-1.4,5.935-1.415,7.613a4.094,4.094,0,0,1-.742,2.326s-.008.008-.012.013v0c-.016.026-.034.051-.053.076a14.078,14.078,0,0,0-1.331,2.305.652.652,0,0,1-.6.388h-3.812a.652.652,0,0,1-.478-1.1,15.97,15.97,0,0,0,1.652-2.231c.019-.03.037-.061.055-.092l.045-.077c.007-.011.015-.021.022-.033a7.006,7.006,0,0,0,.954-3.14,43.768,43.768,0,0,0-.353-9.615c-2.663-1.834-4.242-5.23-4.7-10.1a.652.652,0,1,1,1.3-.121c.338,3.628,1.322,6.334,2.928,8.084a4.024,4.024,0,0,1,.086-1.26.652.652,0,1,1,1.265.316,4.863,4.863,0,0,0,.313,2.447c.007.016.009.034.015.051s.013.035.017.054a41.6,41.6,0,0,1,.427,10.219,8.326,8.326,0,0,1-.655,2.779h.155a.652.652,0,1,1,0,1.3h-.852q-.425.661-.825,1.2h2.025a14.462,14.462,0,0,1,1.295-2.168l.043-.063c0-.005.008-.009.012-.014a2.8,2.8,0,0,0,.494-1.574c.027-2.3.293-6.444,1.769-8.519a11.123,11.123,0,0,0,.757-1.665.652.652,0,0,1,1.238.411c-.007.021-.1.308-.289.739A17.848,17.848,0,0,1,173.244,180.755Z" transform="translate(-149.715 -141.431)" fill="#12263f"/>
    <path id="Trazado_874766" data-name="Trazado 874766" d="M59.83,100.923a.652.652,0,0,1,.73-.223,5.733,5.733,0,0,1,3.7,3.013,5.084,5.084,0,0,1-.068,3.844A.652.652,0,1,1,63.014,107a3.751,3.751,0,0,0,.05-2.78,3.627,3.627,0,0,0-1.521-1.65,5.568,5.568,0,0,1-1.6,5.017.652.652,0,0,1-.795.123c-.057-.033-5.821-3.163-15.214.049l-.035.011a21.123,21.123,0,0,1-4.888.7h-.047a5.143,5.143,0,0,1-3.978-1.874,18.677,18.677,0,0,1-2.9-4.786.652.652,0,0,1,1.209-.489,17.358,17.358,0,0,0,2.691,4.443,3.843,3.843,0,0,0,2.973,1.4H39a20.124,20.124,0,0,0,4.532-.648c8.47-2.889,14.133-.913,15.772-.181a3.929,3.929,0,0,0,.51-4.655A.652.652,0,0,1,59.83,100.923Z" transform="translate(-17.727 -85.232)" fill="#12263f"/>
    <path id="Trazado_874767" data-name="Trazado 874767" d="M44.309,136.424a.652.652,0,0,1,.557.735,6.607,6.607,0,0,1-4.217,5.058,13.626,13.626,0,0,1-1.187,6.018c-1.46,3.62-1,9.052-.739,11.221a4.166,4.166,0,0,1-.53,2.579,15.606,15.606,0,0,0-1.4,3.6v0c-.368,1.348-.54,2.427-.542,2.438a.652.652,0,0,1-.644.55H31.349a.652.652,0,0,1-.553-1,16.93,16.93,0,0,0,1.253-2.414l.006-.012a12.991,12.991,0,0,0-.59-11.66,15.917,15.917,0,0,1-2.242.946,9.642,9.642,0,0,1-6.659-.138,5.638,5.638,0,0,0-1.632-.366.652.652,0,1,1,.107-1.3,6.94,6.94,0,0,1,2.01.454,8.335,8.335,0,0,0,5.758.113,13.083,13.083,0,0,0,2.532-1.135.652.652,0,0,1,.868.17A14.08,14.08,0,0,1,33.6,164.818h.471a.652.652,0,0,1,0,1.3h-.993q-.271.605-.6,1.2h2.575c.091-.467.245-1.193.473-2.025v0a16.659,16.659,0,0,1,1.534-3.918,2.815,2.815,0,0,0,.363-1.766c-.343-2.821-.692-8.116.829-11.878l.009-.021c.016-.035,1.558-3.53,1.011-5.766h0a9.782,9.782,0,0,0-.764-1.967.652.652,0,0,1,1.15-.615,11.758,11.758,0,0,1,.673,1.566,5.284,5.284,0,0,0,3.238-3.948.652.652,0,0,1,.735-.558Z" transform="translate(3.926 -115.157)" fill="#12263f"/>
    <path id="Trazado_874768" data-name="Trazado 874768" d="M226.245,13.135a1.484,1.484,0,0,1,.692,1.433,3.626,3.626,0,0,1-3.377,3.546,5.185,5.185,0,0,1-1.445,3.771,1.484,1.484,0,0,0-.38.852l-.221,1.974a3.38,3.38,0,0,1-.243.932,5.606,5.606,0,0,1-2.709,5.889.652.652,0,0,1-.948-.428q-.072-.318-.151-.6c-.135.107-.264.2-.375.289a5.629,5.629,0,0,1-1.453.8,5.4,5.4,0,0,1-.678.2.634.634,0,0,1-.137.015.655.655,0,0,1-.505-1.067,4.039,4.039,0,0,0,.654-2.331,2.823,2.823,0,0,0-.049-.573,7.044,7.044,0,0,1-.023-2.687,3.416,3.416,0,0,1-.085-.472l-.189-1.875a1.457,1.457,0,0,0-.28-.716,6.582,6.582,0,0,1-1.429-4.162,4.017,4.017,0,0,1-2.35-.571,3.909,3.909,0,0,1-1.659-2.858,1.492,1.492,0,0,1,2.255-1.5,10.43,10.43,0,0,0,2.781,1.262,7.565,7.565,0,0,1,3.463-1.292,6.223,6.223,0,0,0-1.686-3.818,6.33,6.33,0,0,0-3.511-1.689,9.55,9.55,0,0,1,2.354,4.624.652.652,0,0,1-1.278.259,8.139,8.139,0,0,0-3.35-5.122A.652.652,0,0,1,210.262,6h.043a8.6,8.6,0,0,1,6.337,2.225,7.6,7.6,0,0,1,2.072,4.742,6.7,6.7,0,0,1,2.391.734,9.608,9.608,0,0,1,2.542-6.184A6.07,6.07,0,0,0,219.7,9.7a.652.652,0,1,1-1.032-.8c1.461-1.888,3.776-2.845,6.882-2.845h.044a.652.652,0,0,1,.328,1.215,8.241,8.241,0,0,0-3.528,6.862,10.1,10.1,0,0,0,2.276-1A1.465,1.465,0,0,1,226.245,13.135Zm-9.94,16.614a12.321,12.321,0,0,0,1.013-.834.652.652,0,0,1,1.049.217,7.85,7.85,0,0,1,.279.772,3.972,3.972,0,0,0,1.36-2.748,3.372,3.372,0,0,1-3.885-.138c.02.19.047.385.083.586a4.1,4.1,0,0,1,.068.836,6.785,6.785,0,0,1-.195,1.47Q216.191,29.835,216.305,29.75Zm5.719-14.157a.651.651,0,0,1-.535-.114,5.571,5.571,0,0,0-6.977-.024.652.652,0,0,1-.542.143,10.641,10.641,0,0,1-3.5-1.494.172.172,0,0,0-.2,0,.182.182,0,0,0-.084.187,2.681,2.681,0,0,0,1.069,1.956,3.188,3.188,0,0,0,2.278.274.652.652,0,0,1,.8.821c-.5,1.609.569,3.308,1.052,3.964a2.763,2.763,0,0,1,.527,1.359l.189,1.875a2.066,2.066,0,0,0,4.109.023l.221-1.974a2.794,2.794,0,0,1,.727-1.6,3.84,3.84,0,0,0,1.033-3.349.652.652,0,0,1,.632-.81h.025a2.4,2.4,0,0,0,2.783-2.411.184.184,0,0,0-.09-.182.164.164,0,0,0-.183,0A12.191,12.191,0,0,1,222.025,15.592Z" transform="translate(-208.888 -6)" fill="#12263f"/>
    <path id="Trazado_874769" data-name="Trazado 874769" d="M247.692,81.379a.67.67,0,0,1-.127-.011.8.8,0,0,1-.121-.037.621.621,0,0,1-.113-.06.6.6,0,0,1-.1-.082.652.652,0,0,1-.192-.461.674.674,0,0,1,.013-.127.7.7,0,0,1,.037-.122.752.752,0,0,1,.06-.112.683.683,0,0,1,.082-.1.6.6,0,0,1,.1-.08.534.534,0,0,1,.113-.06.644.644,0,0,1,.121-.037.66.66,0,0,1,.589.178.588.588,0,0,1,.081.1.623.623,0,0,1,.06.112.691.691,0,0,1,.037.122.666.666,0,0,1,.011.127.651.651,0,0,1-.652.652Z" transform="translate(-236.505 -68)" fill="#12263f"/>
    <path id="Trazado_874770" data-name="Trazado 874770" d="M271.988,81.378a.652.652,0,0,1-.461-1.112.587.587,0,0,1,.1-.082.657.657,0,0,1,.235-.1.666.666,0,0,1,.254,0,.657.657,0,0,1,.235.1.585.585,0,0,1,.1.082.652.652,0,0,1-.461,1.112Z" transform="translate(-264.76 -67.999)" fill="#12263f"/>
    <path id="Trazado_874771" data-name="Trazado 874771" d="M257.234,109.725l-.718.481a.652.652,0,0,1-.743-.012l-.671-.481a.652.652,0,0,1,.76-1.06l.3.217.342-.229a.652.652,0,1,1,.725,1.084Z" transform="translate(-246.956 -91.816)" fill="#12263f"/>
  </g>
</svg>
