<svg xmlns="http://www.w3.org/2000/svg" width="100" height="100" viewBox="0 0 100 100">
  <g id="Grupo_1202257" data-name="Grupo 1202257" transform="translate(-593.051 -9445)">
    <rect id="Rectángulo_409776" data-name="Rectángulo 409776" width="100" height="100" transform="translate(593.051 9445)" fill="none"/>
    <g id="Grupo_1202256" data-name="Grupo 1202256" transform="translate(607.18 9459)">
      <circle id="Elipse_12389" data-name="Elipse 12389" cx="1.137" cy="1.137" r="1.137" transform="translate(48.782 39.667)"/>
      <circle id="Elipse_12390" data-name="Elipse 12390" cx="1.137" cy="1.137" r="1.137" transform="translate(35.135 23.745)"/>
      <circle id="Elipse_12391" data-name="Elipse 12391" cx="1.137" cy="1.137" r="1.137" transform="translate(12.39 14.647)"/>
      <circle id="Elipse_12392" data-name="Elipse 12392" cx="1.137" cy="1.137" r="1.137" transform="translate(28.312 46.49)"/>
      <circle id="Elipse_12393" data-name="Elipse 12393" cx="1.137" cy="1.137" r="1.137" transform="translate(12.39 41.941)"/>
      <path id="Trazado_1036529" data-name="Trazado 1036529" d="M11,43h2.275v4.549H11Z" transform="translate(1.39 5.765)"/>
      <path id="Trazado_1036530" data-name="Trazado 1036530" d="M43.3,21.471h-.2v2.275h.2a5.226,5.226,0,0,0,1.9-.366,10.286,10.286,0,0,0,8.739,4.915H71.527V26.02H53.933a8,8,0,0,1-6.826-3.864l-.02-.034a5.224,5.224,0,0,0,1.3-2.354l.712-2.845H46.508V15.68a12.031,12.031,0,0,0-2.025-6.69,2.619,2.619,0,0,0-4.8,1.453,8.112,8.112,0,0,1-1.613,4.839l-1.231,1.64h-.1a6.764,6.764,0,0,0-1.348.142l-2.849-6.1A17.257,17.257,0,0,0,6.127,4.782L4.08,6.419l3.334,5.557a12.413,12.413,0,0,0-1.9,2.911L.871,24.952l4.317,7.2,9.527-5.954a1.129,1.129,0,0,1,.6-.173h.6l.784,7.049a4.549,4.549,0,0,0-.9.395,4.491,4.491,0,0,0-2.275-.621,4.554,4.554,0,0,0-4.549,4.549,4.5,4.5,0,0,0,.681,2.363A7.075,7.075,0,0,0,8.3,42a5.488,5.488,0,0,0-4.662,4.113l-.664,2.652H7.841v6.824H1.018V71.51h70.51V55.588H57.88V53.582a11.849,11.849,0,0,0-.5-3.4,7.726,7.726,0,0,0,2.778-5.965H57.88a5.462,5.462,0,0,1-4.656,5.427l-8.577,1.319a10.438,10.438,0,0,1-2.688-7.023v-.158l2.884-1.442a3.424,3.424,0,0,0,1.84-2.491L47,37.969a3.4,3.4,0,0,1,3.366-2.851h.695V36.7a4.542,4.542,0,0,0,2.025,3.785l2.524,1.682,2.524-1.682A4.543,4.543,0,0,0,60.155,36.7v-.753a3.59,3.59,0,0,1,1.137,1.626l.159.477a5.679,5.679,0,0,0,5.394,3.887h4.682V39.667H66.845a3.407,3.407,0,0,1-3.237-2.333l-.159-.477a5.889,5.889,0,0,0-3.77-3.722,4.513,4.513,0,0,0-7.99-.292H50.361a5.667,5.667,0,0,0-5.609,4.751l-.313,1.879a1.139,1.139,0,0,1-.614.83l-1.082.541a5.748,5.748,0,0,1-.785-2.9A7.906,7.906,0,0,0,40.7,33.657a5.848,5.848,0,0,0,3.53-5.363H41.959a3.592,3.592,0,0,1-2.46,3.412l-2.238.746a5.651,5.651,0,0,0-2.75,1.982l-1.194,1.592a3.431,3.431,0,0,1-2.731,1.366,3.356,3.356,0,0,1-1.461-.342l3.4-3.4-1.608-1.608-3.4,3.4a3.356,3.356,0,0,1-.342-1.461V31.706a1.141,1.141,0,0,1,.455-.91l1.708-1.281A6.861,6.861,0,0,0,32.015,24.9l.215-1.722A4.555,4.555,0,0,1,36.743,19.2h1.235l1.913-2.55a10.3,10.3,0,0,0,.925-1.488l3.417,1.3v.478a5.215,5.215,0,0,0-4.43,2.884l2.035,1.018A2.963,2.963,0,0,1,44.5,19.2h1.687l0,.019A2.972,2.972,0,0,1,43.3,21.471ZM64.7,57.863h4.549v4.549H64.7Zm0,6.824h4.549v4.549H64.7Zm-4.549-6.824h2.275V69.235H60.155ZM53.331,35.118a2.275,2.275,0,0,1,4.549,0V36.7A2.27,2.27,0,0,1,56.867,38.6l-1.261.84L54.345,38.6A2.268,2.268,0,0,1,53.331,36.7Zm-23.424-24.3c.206.359.4.726.579,1.1l1.215,2.6L28.08,16.335l-.292-.761a14.262,14.262,0,0,0-1.033-2.129ZM28.619,8.93l-3.182,2.651a14.2,14.2,0,0,0-2.226-2.147l2.126-3.541A15.073,15.073,0,0,1,28.619,8.93ZM23.367,4.756,21.43,7.985a9.272,9.272,0,0,0-1.652-4.422,14.959,14.959,0,0,1,3.589,1.193ZM15.33,3.369,13.788,8l-.035.011-1.92-3.838a15.009,15.009,0,0,1,3.5-.8ZM7.053,6.954l.495-.4A14.986,14.986,0,0,1,9.756,5.1l1.849,3.7a12.571,12.571,0,0,0-2.513,1.555Zm6.474,28.164a2.25,2.25,0,0,1,1.514.593l.761.686.761-.685a2.245,2.245,0,0,1,1.514-.594,2.273,2.273,0,0,1,1.467,4.01,7.021,7.021,0,0,0-8.1-.815,2.274,2.274,0,0,1,2.08-3.195Zm-3.412,9.36a4.81,4.81,0,0,1,9.374-1.521l.919,2.757a8.323,8.323,0,0,0,.867,1.808,4.535,4.535,0,0,0-1.538,2.414l-.844,3.378H24.63L26.9,54.451a2.512,2.512,0,0,1,1.117,1.137H10.116Zm11.692,6.562.139-.552A2.269,2.269,0,0,1,23.764,48.8v2.24ZM5.892,46.49a3.219,3.219,0,0,1,1.953-2.062c0,.016,0,.033,0,.049V46.49ZM5.567,69.235H3.292V57.863H5.567Zm6.824,0H7.841V64.686H12.39Zm0-6.824H7.841V57.863H12.39Zm4.549,6.824H14.665V57.863h2.275Zm6.824,0H19.214V64.686h4.549Zm0-6.824H19.214V57.863h4.549Zm4.549,6.824H26.037V57.863h2.275Zm-.389-16.819-1.886-.943V48.765a4.549,4.549,0,1,1,9.1,0v.6a9.3,9.3,0,0,0,2.38,6.223H30.443a4.786,4.786,0,0,0-2.52-3.172Zm7.212,16.819H30.586V64.686h4.549Zm0-6.824H30.586V57.863h4.549Zm4.549,6.824H37.41V57.863h2.275Zm6.824,0H41.959V64.686h4.549Zm0-6.824H41.959V57.863h4.549Zm4.549,6.824H48.782V57.863h2.275Zm6.824,0H53.331V64.686H57.88Zm0-11.373v4.549H53.331V57.863ZM27.973,27.7l-1.709,1.281A3.429,3.429,0,0,0,24.9,31.706V33.98a5.686,5.686,0,0,0,10.235,3.412l1.2-1.593a3.384,3.384,0,0,1,1.65-1.188l.473-.158a5.66,5.66,0,0,1,1.231,3.525A7.987,7.987,0,0,0,40.7,41.867l-1.018.508v1.564a12.7,12.7,0,0,0,3.745,9.041l.407.407,9.734-1.5a7.813,7.813,0,0,0,1.774-.5,9.6,9.6,0,0,1,.262,2.188v2.007H41.126a7.042,7.042,0,0,1-3.717-6.223v-.6A6.819,6.819,0,0,0,24.161,46.49h-.009a4.687,4.687,0,0,0-.762.064,6,6,0,0,1-.823-1.561l-.919-2.757A7.033,7.033,0,0,0,21,40.872a4.547,4.547,0,0,0-2.025-7.938l-.771-6.94a6.107,6.107,0,0,0,5.5-4.165l-2.157-.72a3.85,3.85,0,0,1-3.655,2.635H15.318a3.41,3.41,0,0,0-1.808.519L5.947,28.99,3.44,24.813,7.582,15.84a10.3,10.3,0,0,1,7.307-5.764l.647-.13,1.894-5.682a7.049,7.049,0,0,1,1.784,4.7v.7l.629.314a11.952,11.952,0,0,1,5.823,6.412l3.681,9.573A4.559,4.559,0,0,1,27.973,27.7Zm2.23-5.842-1.3-3.387,3.762-1.881.605,1.3A6.828,6.828,0,0,0,30.2,21.854Zm11.419-8.822a10.35,10.35,0,0,0,.337-2.59.358.358,0,0,1,.631-.191,9.751,9.751,0,0,1,1.476,3.713Z"/>
    </g>
  </g>
</svg>
