<svg xmlns="http://www.w3.org/2000/svg" width="100" height="100" viewBox="0 0 100 100">
  <g id="Grupo_1202261" data-name="Grupo 1202261" transform="translate(-908.051 -9430)">
    <g id="Grupo_1202260" data-name="Grupo 1202260">
      <rect id="Rectángulo_409777" data-name="Rectángulo 409777" width="100" height="100" transform="translate(908.051 9430)" fill="none"/>
      <g id="Grupo_1202262" data-name="Grupo 1202262" transform="translate(916.105 9438.103)">
        <path id="Trazado_1036531" data-name="Trazado 1036531" d="M118.414,39.3H89.95a1.231,1.231,0,0,0,0,2.462h28.464a1.146,1.146,0,0,1,1.134,1.215l-.859,12.509a1.14,1.14,0,0,1-1.134,1.059H80.643a1.14,1.14,0,0,1-1.134-1.059L78.65,42.981a1.137,1.137,0,0,1,1.134-1.215h3.611a1.231,1.231,0,0,0,0-2.462H79.784a3.633,3.633,0,0,0-3.59,3.845l.859,12.509a3.61,3.61,0,0,0,3.59,3.352h36.912a3.61,3.61,0,0,0,3.59-3.352L122,43.149a3.635,3.635,0,0,0-3.59-3.845Z" transform="translate(-63.64 -32.854)"/>
        <path id="Trazado_1036532" data-name="Trazado 1036532" d="M162.173,67.087a1.231,1.231,0,0,0-1.231,1.231v8.126a1.231,1.231,0,0,0,2.462,0v-1.6l2.574,2.483a1.231,1.231,0,0,0,1.709-1.772l-3.459-3.337,3.149-2.894a1.231,1.231,0,0,0-1.666-1.813L163.4,69.635V68.318A1.231,1.231,0,0,0,162.173,67.087Z" transform="translate(-134.487 -56.077)"/>
        <path id="Trazado_1036533" data-name="Trazado 1036533" d="M215.007,69.548a2.818,2.818,0,0,1,1.583.483,1.231,1.231,0,0,0,1.378-2.04,5.294,5.294,0,1,0-2.961,9.683c2.79,0,4.738-2.177,4.738-5.294a1.231,1.231,0,0,0-1.231-1.231h-2.431a1.231,1.231,0,0,0,0,2.462h1.02a2.093,2.093,0,0,1-2.1,1.6A2.832,2.832,0,0,1,215.007,69.548Z" transform="translate(-175.283 -56.076)"/>
        <path id="Trazado_1036534" data-name="Trazado 1036534" d="M68.776,41.123l2.065-29.266A11.217,11.217,0,0,0,59.791,0H11.127A11.217,11.217,0,0,0,.077,11.857l3.534,50.1a11.115,11.115,0,0,0,11.05,10.3h27.99c5.43,10.928,20.453,15.326,31.025,8.479a1.231,1.231,0,0,0-1.3-2.091C59.7,86.738,42.4,77.118,42.6,62.058A19.53,19.53,0,0,1,62.107,42.55C78.537,42.432,87.7,62.2,77.01,74.645a1.231,1.231,0,0,0,1.88,1.589C89.1,64.5,83.329,45.5,68.776,41.123ZM40.137,62.058q0,.414.015.825H20.7a1.231,1.231,0,1,0,0,2.462H40.382A21.791,21.791,0,0,0,41.544,69.8H14.662a8.645,8.645,0,0,1-8.595-8.01l-3.534-50.1a8.693,8.693,0,0,1,8.595-9.222H59.791a8.694,8.694,0,0,1,8.595,9.222L66.353,40.5C53.01,37.735,39.984,48.407,40.137,62.058Z" transform="translate(0)"/>
        <path id="Trazado_1036535" data-name="Trazado 1036535" d="M328.609,290.367a3.726,3.726,0,0,0-3.722,3.722v13.244a3.723,3.723,0,0,0-4.707,5.764l6,5.18a3.768,3.768,0,0,0,4.867,0l6-5.18c3.942-3.523-1.3-8.417-4.707-5.764V294.089A3.726,3.726,0,0,0,328.609,290.367Zm5.171,18.96a1.26,1.26,0,1,1,1.648,1.908l-6,5.181a1.282,1.282,0,0,1-1.647,0l-6-5.18a1.26,1.26,0,0,1,1.648-1.908l1.876,1.621a1.241,1.241,0,0,0,2.036-.931V294.089a1.26,1.26,0,0,1,2.521,0v15.927a1.241,1.241,0,0,0,2.036.931Z" transform="translate(-266.502 -242.713)"/>
      </g>
    </g>
  </g>
</svg>
