<svg xmlns="http://www.w3.org/2000/svg" width="100" height="100" viewBox="0 0 100 100">
  <g id="Grupo_1202264" data-name="Grupo 1202264" transform="translate(-1223.051 -9445)">
    <rect id="Rectángulo_409778" data-name="Rectángulo 409778" width="100" height="100" transform="translate(1223.051 9445)" fill="none"/>
    <g id="Grupo_1202263" data-name="Grupo 1202263" transform="translate(1233.051 9454.501)">
      <path id="Trazado_1036536" data-name="Trazado 1036536" d="M34.513,234.085l-1.547-1.548a1.566,1.566,0,0,0-2.215,2.215l2.456,2.456a1.566,1.566,0,0,0,2.083.117,5.6,5.6,0,1,1,4.178,9.934,1.566,1.566,0,0,0-1.36,1.36,5.534,5.534,0,0,1-1.6,3.259,5.6,5.6,0,0,1-8.339-7.436,1.566,1.566,0,0,0-.117-2.083L14.286,228.59a1.565,1.565,0,0,0-2.083-.117,5.6,5.6,0,1,1-4.177-9.934,1.565,1.565,0,0,0,1.36-1.36,5.542,5.542,0,0,1,1.6-3.259,5.6,5.6,0,0,1,8.339,7.437,1.566,1.566,0,0,0,.117,2.083l2.455,2.455a1.566,1.566,0,0,0,2.215-2.214l-1.547-1.547A8.729,8.729,0,1,0,6.5,215.649a8.636,8.636,0,0,0-3.945,2.27A8.729,8.729,0,0,0,12.98,231.712l11.953,11.953A8.729,8.729,0,1,0,41,250.148a8.641,8.641,0,0,0,3.945-2.27,8.729,8.729,0,0,0-10.429-13.793Zm0,0" transform="translate(0 -175.982)"/>
      <path id="Trazado_1036537" data-name="Trazado 1036537" d="M313.927,214.987a11.257,11.257,0,0,0-14.787-.973,11.241,11.241,0,0,0-14.789,16.868l11.492,11.492a4.668,4.668,0,0,0,6.592,0l1.317-1.317a1.566,1.566,0,0,0-2.214-2.215l-1.318,1.318a1.531,1.531,0,0,1-2.163,0l-11.492-11.492A8.108,8.108,0,1,1,298.032,217.2a1.566,1.566,0,0,0,2.214,0,8.108,8.108,0,0,1,11.467,11.466l-1.317,1.317a1.566,1.566,0,1,0,2.215,2.214l1.316-1.316a11.24,11.24,0,0,0,0-15.9Zm0,0" transform="translate(-237.05 -178.127)"/>
      <path id="Trazado_1036538" data-name="Trazado 1036538" d="M124.616,29.922a12.662,12.662,0,0,0,5.918,8.133,3.921,3.921,0,0,0,3.99.035A12.6,12.6,0,0,0,140.8,27.224c0-.237-.007-.475-.02-.713a17.7,17.7,0,0,0,8.053-4.619,17.889,17.889,0,0,0,4.611-17.217,5.052,5.052,0,0,0-3.672-3.6,18,18,0,0,0-11.288.758,1.566,1.566,0,1,0,1.185,2.9,14.843,14.843,0,0,1,9.32-.624l.025.007a1.921,1.921,0,0,1,1.4,1.373,14.666,14.666,0,0,1-11.631,18.262,1.566,1.566,0,0,0-1.267,1.821,9.318,9.318,0,0,1,.149,1.658,9.456,9.456,0,0,1-4.713,8.157.793.793,0,0,1-.807-.009l-.023-.013a9.5,9.5,0,0,1-4.6-6.983,1.566,1.566,0,0,0-1.36-1.36,9.5,9.5,0,0,1-6.982-4.6l-.013-.022a.793.793,0,0,1-.009-.807,9.455,9.455,0,0,1,8.156-4.713,9.314,9.314,0,0,1,1.658.149,1.566,1.566,0,0,0,1.821-1.267,14.867,14.867,0,0,1,.875-3.022,1.566,1.566,0,1,0-2.9-1.185,17.982,17.982,0,0,0-.741,2.214q-.357-.021-.714-.021a12.6,12.6,0,0,0-10.867,6.275,3.921,3.921,0,0,0,.035,3.99A12.662,12.662,0,0,0,124.616,29.922Zm0,0" transform="translate(-97.769)"/>
      <path id="Trazado_1036539" data-name="Trazado 1036539" d="M407.022,109.708a4.7,4.7,0,1,0-4.7-4.7A4.7,4.7,0,0,0,407.022,109.708Zm0-6.264a1.566,1.566,0,1,1-1.566,1.566A1.568,1.568,0,0,1,407.022,103.444Zm0,0" transform="translate(-339.328 -84.185)"/>
      <path id="Trazado_1036540" data-name="Trazado 1036540" d="M58.51,56.2a4.7,4.7,0,1,0-4.7-4.7A4.7,4.7,0,0,0,58.51,56.2Zm0-6.264A1.566,1.566,0,1,1,56.944,51.5,1.568,1.568,0,0,1,58.51,49.936Zm0,0" transform="translate(-45.386 -39.055)"/>
      <path id="Trazado_1036541" data-name="Trazado 1036541" d="M425.022,421.828a4.7,4.7,0,1,0,4.7,4.7A4.7,4.7,0,0,0,425.022,421.828Zm0,6.264a1.566,1.566,0,1,1,1.566-1.566A1.568,1.568,0,0,1,425.022,428.092Zm0,0" transform="translate(-354.509 -355.357)"/>
      <path id="Trazado_1036542" data-name="Trazado 1036542" d="M41.879,162.933a1.566,1.566,0,1,0-1.566-1.566h0A1.566,1.566,0,0,0,41.879,162.933Zm0,0" transform="translate(-34 -134.358)"/>
      <path id="Trazado_1036543" data-name="Trazado 1036543" d="M332.328,163.367h0a1.566,1.566,0,1,0,1.566-1.567A1.566,1.566,0,0,0,332.328,163.368Zm0,0" transform="translate(-280.292 -136.045)"/>
      <path id="Trazado_1036544" data-name="Trazado 1036544" d="M429.9,32.929a1.566,1.566,0,1,0-1.566-1.566h0A1.565,1.565,0,0,0,429.9,32.929Zm0,0" transform="translate(-361.263 -24.711)"/>
      <path id="Trazado_1036545" data-name="Trazado 1036545" d="M212.32,289.374h0a1.566,1.566,0,1,0,1.566-1.567A1.566,1.566,0,0,0,212.32,289.376Zm0,0" transform="translate(-179.075 -242.322)"/>
      <path id="Trazado_1036546" data-name="Trazado 1036546" d="M61.882,431.816a1.566,1.566,0,0,0-1.566,1.566h0a1.566,1.566,0,1,0,1.566-1.567Zm0,0" transform="translate(-50.872 -363.781)"/>
      <path id="Trazado_1036547" data-name="Trazado 1036547" d="M333.894,443.816a1.566,1.566,0,0,0-1.566,1.566h0a1.566,1.566,0,1,0,1.566-1.567Zm0,0" transform="translate(-280.292 -373.902)"/>
      <path id="Trazado_1036548" data-name="Trazado 1036548" d="M221.369,33.956a1.563,1.563,0,0,0,1.155-.508h0a1.566,1.566,0,1,0-1.156.509Zm0,0" transform="translate(-185.387 -25.577)"/>
      <path id="Trazado_1036549" data-name="Trazado 1036549" d="M165.632,327.745a1.566,1.566,0,1,0,2.215,0h0A1.566,1.566,0,0,0,165.632,327.745Zm0,0" transform="translate(-139.31 -275.619)"/>
      <path id="Trazado_1036550" data-name="Trazado 1036550" d="M439.824,356.583h0a1.566,1.566,0,1,0-1.054.408A1.566,1.566,0,0,0,439.824,356.582Zm0,0" transform="translate(-368.746 -298.03)"/>
    </g>
  </g>
</svg>
