<svg xmlns="http://www.w3.org/2000/svg" width="100" height="100" viewBox="0 0 100 100">
  <g id="Grupo_1202267" data-name="Grupo 1202267" transform="translate(-278.051 -11435)">
    <rect id="Rectángulo_409788" data-name="Rectángulo 409788" width="100" height="100" transform="translate(278.051 11435)" fill="none"/>
    <g id="Grupo_1202266" data-name="Grupo 1202266" transform="translate(291.904 11450)">
      <path id="Trazado_1036551" data-name="Trazado 1036551" d="M394.774,389.789a1.371,1.371,0,0,0-1.665,2.178l2.342,1.79a1.37,1.37,0,0,0,1.848-.169l4.477-4.943a1.371,1.371,0,0,0-2.032-1.84l-3.63,4.009Z" transform="translate(-337.776 -333.401)"/>
      <path id="Trazado_1036552" data-name="Trazado 1036552" d="M71.55,49.071A1.37,1.37,0,0,0,70.3,47.737c-3.26-.285-7.273-2.475-10.222-5.579a1.371,1.371,0,0,0-.993-.427h0a1.371,1.371,0,0,0-.993.426,20.753,20.753,0,0,1-4.446,3.534,24.745,24.745,0,0,0-10.221-6.836c-.035-.014-.07-.027-.106-.038q-.469-.166-.949-.317c3.395-3.386,5.678-7.835,5.678-11.826V24.52a4.533,4.533,0,0,0-.193-8.4A16.908,16.908,0,0,0,35.71,1.633,2.06,2.06,0,0,0,33.7,0H28.732a2.058,2.058,0,0,0-1.987,1.536A16.951,16.951,0,0,0,14.258,16.125a4.531,4.531,0,0,0-.19,8.4v2.153c0,3.988,2.284,8.438,5.678,11.826q-.466.146-.922.307a1.363,1.363,0,0,0-.174.063A24.737,24.737,0,0,0,7.468,46.878,31.95,31.95,0,0,0,1.5,59.958c-.4,1.828-.708,4.126.539,5.678,1.218,1.516,3.4,1.711,5.159,1.711h8.966a1.371,1.371,0,1,0,0-2.741H7.2c-1.64,0-2.656-.231-3.022-.686-.387-.482-.387-1.616,0-3.369,1.424-6.416,4.907-14.267,13.3-18.232-.258,4.63,2.251,7.657,3.845,9.578A1.371,1.371,0,0,0,23.33,52l7.724-7.512L38.783,52a1.371,1.371,0,0,0,.955.388l.074,0a1.37,1.37,0,0,0,.982-.494c1.592-1.923,4.1-4.951,3.842-9.571a21.849,21.849,0,0,1,6.435,4.623,11.853,11.853,0,0,1-3.2.789,1.371,1.371,0,0,0-1.251,1.333,23,23,0,0,0,2.912,12.52c.019.035.765,1.373,1.929,3.015H28.571a1.371,1.371,0,0,0,0,2.741H53.634c1.652,1.826,3.6,3.38,5.449,3.38,4.459,0,9.506-9.045,9.554-9.136a23.071,23.071,0,0,0,2.912-12.52Zm-26.5-33.243H37.508c-1.426-3.724-1.7-6.8-1.744-11.3A14.171,14.171,0,0,1,45.055,15.828ZM29.416,2.741h3.6c.009,5.305.143,8.9,1.579,13.087H27.84C29.273,11.639,29.408,8.046,29.416,2.741Zm-2.75,1.675c-.045,4.568-.307,7.658-1.742,11.412H17.057A14.355,14.355,0,0,1,26.666,4.417Zm-10.8,14.153h9.169c.081.066.159.074.224,0H46.244a1.792,1.792,0,0,1,0,3.585H15.869a1.792,1.792,0,1,1,0-3.585Zm.94,8.1V24.9H45.3v1.779C45.3,31.9,40.242,38.362,34.47,40.5a8.675,8.675,0,0,1-6.849,0C21.861,38.35,16.809,31.889,16.809,26.674ZM22.5,48.991a9.325,9.325,0,0,1-2.128-7.813q.907-.293,1.877-.531a18.423,18.423,0,0,0,4.418,2.423c.5.185.976.337,1.444.464Zm17.118,0L34,43.532c.462-.125.934-.276,1.425-.458a18.41,18.41,0,0,0,4.439-2.427q.96.234,1.876.53a9.33,9.33,0,0,1-2.125,7.813ZM66.222,60.3c-1.621,3.025-5.417,7.69-7.139,7.69s-5.518-4.665-7.14-7.692a19.8,19.8,0,0,1-2.595-10,17.207,17.207,0,0,0,4.532-1.6,1.368,1.368,0,0,0,.156-.081,23.1,23.1,0,0,0,5.046-3.58,20.617,20.617,0,0,0,9.734,5.264A19.864,19.864,0,0,1,66.222,60.3Z" transform="translate(0 0)"/>
      <path id="Trazado_1036553" data-name="Trazado 1036553" d="M147.345,471.373a1.371,1.371,0,1,0,0,2.741h.008a1.371,1.371,0,0,0-.008-2.741Z" transform="translate(-124.978 -406.767)"/>
    </g>
  </g>
</svg>
