<svg xmlns="http://www.w3.org/2000/svg" width="81.504" height="92.173" viewBox="0 0 81.504 92.173">
  <g id="Grupo_1202265" data-name="Grupo 1202265" transform="translate(-0.5)">
    <g id="Grupo_1188468" data-name="Grupo 1188468" transform="translate(0 10.001)">
      <path id="Trazado_878298" data-name="Trazado 878298" d="M0,0V82.172H81.5V81.5A81.5,81.5,0,0,0,0,0Z" transform="translate(0.5)" fill="#26c790"/>
      <g id="Grupo_1202281" data-name="Grupo 1202281" transform="translate(11.5 14.999)">
        <path id="Trazado_1036612" data-name="Trazado 1036612" d="M195.562,491.992h-.023a1.156,1.156,0,0,0,0,2.312h.023a1.156,1.156,0,1,0,0-2.312Zm0,0" transform="translate(-171.925 -435.151)"/>
        <path id="Trazado_1036613" data-name="Trazado 1036613" d="M156.215,227.151a1.155,1.155,0,0,0,1.155,1.156l16.225.007h0a1.156,1.156,0,0,0,0-2.312L157.371,226A1.158,1.158,0,0,0,156.215,227.151Zm0,0" transform="translate(-138.167 -199.886)"/>
        <path id="Trazado_1036614" data-name="Trazado 1036614" d="M55.477,7.251a4.682,4.682,0,0,0-6.5,2.121L47.23,12.865v-2.8a1.151,1.151,0,0,0-.31-.786l-.007-.009L38.467.361A1.17,1.17,0,0,0,37.621,0H4.482A4.487,4.487,0,0,0,0,4.483V54.666a4.489,4.489,0,0,0,4.482,4.486H19.01a1.156,1.156,0,1,0,0-2.312H4.482a2.175,2.175,0,0,1-2.17-2.175V4.483a2.174,2.174,0,0,1,2.17-2.172h31.99V6.959a4.265,4.265,0,0,0,4.259,4.26h4.187v6.263L35.581,36.129a1.141,1.141,0,0,0-.153-.011l-16.225,0a1.156,1.156,0,0,0,0,2.312l15.777,0-.619,7.7L19.2,46.135a1.156,1.156,0,0,0,0,2.312h0l16.222-.006h0a1.156,1.156,0,0,0,.764-.289l7.415-6.53a1.152,1.152,0,0,0,.269-.35h0l.005-.01,0-.008,1.033-2.062V54.666a2.175,2.175,0,0,1-2.17,2.175H28.219a1.156,1.156,0,1,0,0,2.312H42.748a4.49,4.49,0,0,0,4.482-4.486V34.577L57.672,13.728A4.685,4.685,0,0,0,55.477,7.251ZM40.731,8.908a1.951,1.951,0,0,1-1.948-1.949v-2.9l4.6,4.853Zm-3.922,35.62.426-5.292,3.558,1.784ZM55.6,12.693,42.327,39.2l-4.556-2.284L47.09,18.307l0,0,3.954-7.9a2.407,2.407,0,0,1,3.4-1.089A2.409,2.409,0,0,1,55.6,12.693Zm0,0"/>
        <path id="Trazado_1036615" data-name="Trazado 1036615" d="M68.639,286.247a1.156,1.156,0,0,0-1.612.27l-3.392,4.757-.931-.825a1.156,1.156,0,0,0-1.533,1.73l1.892,1.677a1.155,1.155,0,0,0,1.707-.194l4.138-5.8A1.156,1.156,0,0,0,68.639,286.247Zm0,0" transform="translate(-53.759 -252.986)"/>
        <path id="Trazado_1036616" data-name="Trazado 1036616" d="M68.638,364.508a1.156,1.156,0,0,0-1.612.27l-3.391,4.759-.93-.826a1.156,1.156,0,1,0-1.535,1.728l1.892,1.68a1.157,1.157,0,0,0,.768.291,1.131,1.131,0,0,0,.13-.007,1.153,1.153,0,0,0,.811-.477l4.138-5.806A1.156,1.156,0,0,0,68.638,364.508Zm0,0" transform="translate(-53.759 -322.206)"/>
        <path id="Trazado_1036617" data-name="Trazado 1036617" d="M61.17,213.889l1.892,1.68a1.157,1.157,0,0,0,.768.292,1.142,1.142,0,0,0,.13-.007,1.155,1.155,0,0,0,.811-.478l4.138-5.806a1.156,1.156,0,0,0-1.882-1.342l-3.391,4.758-.93-.825a1.156,1.156,0,1,0-1.534,1.728Zm0,0" transform="translate(-53.759 -183.742)"/>
        <path id="Trazado_1036618" data-name="Trazado 1036618" d="M148.655,50.711h-2.324a2.5,2.5,0,0,0-2.5,2.5v1.3h-1.3a2.5,2.5,0,0,0-2.495,2.5v2.325a2.5,2.5,0,0,0,2.495,2.5h1.3v1.3a2.5,2.5,0,0,0,2.5,2.5h2.324a2.5,2.5,0,0,0,2.5-2.5v-1.3h1.3a2.5,2.5,0,0,0,2.5-2.5V57.008a2.5,2.5,0,0,0-2.5-2.5h-1.3v-1.3A2.5,2.5,0,0,0,148.655,50.711Zm3.8,6.114a.19.19,0,0,1,.186.183v2.325a.191.191,0,0,1-.186.187H150a1.156,1.156,0,0,0-1.156,1.156v2.46a.189.189,0,0,1-.186.187h-2.324a.191.191,0,0,1-.186-.187v-2.46a1.156,1.156,0,0,0-1.156-1.156H142.53a.187.187,0,0,1-.183-.187V57.008a.188.188,0,0,1,.183-.183h2.459a1.156,1.156,0,0,0,1.156-1.156v-2.46a.192.192,0,0,1,.186-.187h2.324a.189.189,0,0,1,.186.187v2.46A1.156,1.156,0,0,0,150,56.825Zm0,0" transform="translate(-123.857 -44.852)"/>
      </g>
    </g>
    <path id="Trazado_874774" data-name="Trazado 874774" d="M8.681,17.737c.058,0,.116,0,.174-.005a2.92,2.92,0,0,0,1.742-.737,2.539,2.539,0,0,0,.893-1.9,12.068,12.068,0,0,0,.075-1.714V11.626H15.15a2.259,2.259,0,0,0,1.982-1.015,3.141,3.141,0,0,0,.5-1.726,2.963,2.963,0,0,0-.524-1.721,2.248,2.248,0,0,0-1.961-.947H11.564v-1.9a14.322,14.322,0,0,0-.074-1.846A2.308,2.308,0,0,0,10.52.57a2.923,2.923,0,0,0-3.467,0,2.323,2.323,0,0,0-.971,1.988V6.217H2.789A2.719,2.719,0,0,0,.6,7.08,2.475,2.475,0,0,0,.019,9.013a3.176,3.176,0,0,0,.768,1.719,2.554,2.554,0,0,0,2,.894H6.082v3.367A2.529,2.529,0,0,0,7.053,17.2,2.757,2.757,0,0,0,8.681,17.737ZM15.293,9.42a.523.523,0,0,1-.143.015H9.374v3.948a9.5,9.5,0,0,1-.052,1.394l-.021.106v.108a.374.374,0,0,1-.13.339.744.744,0,0,1-.453.214H8.681a.568.568,0,0,1-.343-.12.989.989,0,0,1-.066-.434V9.436H2.789a.374.374,0,0,1-.339-.13,1,1,0,0,1-.256-.549A.294.294,0,0,1,2.272,8.5a1.015,1.015,0,0,1,.517-.088H8.272V2.558c0-.168.035-.193.053-.206a.737.737,0,0,1,.921,0c.019.013.053.038.053.206v.091l.015.089a11.777,11.777,0,0,1,.058,1.575V8.408H15.15a.6.6,0,0,1,.17.018.8.8,0,0,1,.124.459A.958.958,0,0,1,15.293,9.42Z" transform="translate(24.384 24.999) rotate(-137)" fill="#1a8a64"/>
  </g>
</svg>
