<svg xmlns="http://www.w3.org/2000/svg" width="100" height="100" viewBox="0 0 100 100">
  <g id="Grupo_1202284" data-name="Grupo 1202284" transform="translate(-278.051 -13804)">
    <rect id="Rectángulo_409800" data-name="Rectángulo 409800" width="100" height="100" transform="translate(278.051 13804)" fill="none"/>
    <g id="_x38_1_Decree" transform="translate(260.841 13806.26)">
      <g id="Grupo_1202283" data-name="Grupo 1202283" transform="translate(30.21 6.74)">
        <g id="Grupo_1202282" data-name="Grupo 1202282" transform="translate(0 0)">
          <path id="Trazado_1036619" data-name="Trazado 1036619" d="M127.257,83.752h33.195a.857.857,0,0,0,0-1.715H127.257a.857.857,0,0,0,0,1.715Z" transform="translate(-110.521 -69.607)"/>
          <path id="Trazado_1036620" data-name="Trazado 1036620" d="M127.257,142.725h33.195a.857.857,0,0,0,0-1.715H127.257a.857.857,0,1,0,0,1.715Z" transform="translate(-110.521 -118.844)"/>
          <path id="Trazado_1036621" data-name="Trazado 1036621" d="M127.257,201.7h33.195a.857.857,0,0,0,0-1.715H127.257a.857.857,0,1,0,0,1.715Z" transform="translate(-110.521 -168.082)"/>
          <path id="Trazado_1036622" data-name="Trazado 1036622" d="M127.257,260.671h33.195a.857.857,0,1,0,0-1.715H127.257a.857.857,0,1,0,0,1.715Z" transform="translate(-110.521 -217.319)"/>
          <path id="Trazado_1036623" data-name="Trazado 1036623" d="M150.178,318.787a.857.857,0,0,0-.857-.857H127.257a.857.857,0,1,0,0,1.715h22.064A.857.857,0,0,0,150.178,318.787Z" transform="translate(-110.521 -266.558)"/>
          <path id="Trazado_1036624" data-name="Trazado 1036624" d="M215.855,335.569A2.271,2.271,0,0,0,213.4,337.7a2.744,2.744,0,0,0,1.514,2.122c.637.441,1.371.888.79,2.163a6.4,6.4,0,0,1-1.4,1.732c-.684.676-1.98,1.744-2.434.893a2.388,2.388,0,0,1,.032-1.245c.437-2.532-.986-3.374-2.265-3.006-1.544.438-1.886,1.783-2.014,3.252a6.757,6.757,0,0,1-.118.912c-.237,1.049-.874,1.491-1.461-.413-.465-1.508-1.308-2.344-2.436-2.29a2.431,2.431,0,0,0-2.077,2.229,8.808,8.808,0,0,1-.28,1.873,1.883,1.883,0,0,1-2.343.563,7.243,7.243,0,0,1-2.564-2.363A.857.857,0,1,0,195,345.187a8.644,8.644,0,0,0,3.251,2.883,3.522,3.522,0,0,0,4.553-1.411,7.59,7.59,0,0,0,.422-2.328c.071-.438.312-.786.471-.794h.006c.184,0,.5.4.7,1.081,1.12,3.645,4.178,2.918,4.772.29a8.145,8.145,0,0,0,.155-1.145c.059-.687.109-1.561.774-1.75.341-.1.181.636.107,1.066a3.563,3.563,0,0,0,.145,2.343c.692,1.294,2.641,2,5.153-.481a7.808,7.808,0,0,0,1.753-2.239c.828-1.816.249-3.164-1.375-4.286-.465-.321-.769-.546-.774-.75,0-.144.312-.4.663-.383a3.441,3.441,0,0,1,1.6.738.857.857,0,0,0,.954-1.425A4.936,4.936,0,0,0,215.855,335.569Z" transform="translate(-167.64 -281.281)"/>
          <path id="Trazado_1036625" data-name="Trazado 1036625" d="M448,396.886a.857.857,0,0,0,.857-.857V383.505a.857.857,0,1,0-1.715,0v12.523A.857.857,0,0,0,448,396.886Z" transform="translate(-378.315 -320.592)"/>
          <path id="Trazado_1036626" data-name="Trazado 1036626" d="M432.53,150.811l-1.511-3.49a3.509,3.509,0,0,0-2.418-2.041v-1.005a.857.857,0,1,0-1.715,0v1.006a3.507,3.507,0,0,0-2.414,2.039l-1.519,3.5v.006a1,1,0,0,0-.067.331c0,.763,0,.031,0,48a4,4,0,0,0,3.993,3.993h1.738a4,4,0,0,0,3.993-3.993v-48A1.507,1.507,0,0,0,432.53,150.811Zm-7.931,1.211h6.295v21.226h-6.3ZM426.045,148a1.85,1.85,0,0,1,3.4,0l1,2.3h-5.4Zm4.849,51.157a2.281,2.281,0,0,1-2.279,2.278h-1.738a2.281,2.281,0,0,1-2.279-2.278v-24.2h6.3v24.2Z" transform="translate(-358.06 -120.856)"/>
          <path id="Trazado_1036627" data-name="Trazado 1036627" d="M84.5,6.74H42.583a5.573,5.573,0,0,0-5.566,5.566v1.241H35.776a5.573,5.573,0,0,0-5.566,5.566V83.471a5.573,5.573,0,0,0,5.566,5.566H77.7a5.573,5.573,0,0,0,5.566-5.566V82.23H84.5a5.573,5.573,0,0,0,5.566-5.566V12.306A5.573,5.573,0,0,0,84.5,6.74ZM81.549,83.471A3.856,3.856,0,0,1,77.7,87.323H35.776a3.856,3.856,0,0,1-3.852-3.852V19.113a3.856,3.856,0,0,1,3.852-3.852h1.241v61.4a5.573,5.573,0,0,0,5.566,5.566H81.549Zm6.807-6.807A3.856,3.856,0,0,1,84.5,80.516H42.583a3.856,3.856,0,0,1-3.852-3.852V12.306a3.856,3.856,0,0,1,3.852-3.852H84.5a3.856,3.856,0,0,1,3.852,3.852V76.664Z" transform="translate(-30.21 -6.74)"/>
        </g>
      </g>
    </g>
  </g>
</svg>
