<svg xmlns="http://www.w3.org/2000/svg" width="100" height="100" viewBox="0 0 100 100">
  <g id="Grupo_1202286" data-name="Grupo 1202286" transform="translate(-278.051 -13804)">
    <rect id="Rectángulo_409800" data-name="Rectángulo 409800" width="100" height="100" transform="translate(278.051 13804)" fill="none"/>
    <g id="Grupo_1202289" data-name="Grupo 1202289" transform="translate(272.548 13811.045)">
      <g id="Grupo_1202289-2" data-name="Grupo 1202289" transform="translate(15.078 0)">
        <path id="Trazado_1036642" data-name="Trazado 1036642" d="M90.462,40.071H88.436V18.29a1.259,1.259,0,0,0-1.3-1.258,1.293,1.293,0,0,0-1.22,1.311V40.071H77.484a1.258,1.258,0,0,0,0,2.517H90.462a2.949,2.949,0,1,1,0,5.9H64.752v-5.9h6.86a1.258,1.258,0,1,0,0-2.517H64.449a2.217,2.217,0,0,0-2.033,1.339h-8.9a2.1,2.1,0,0,0-1.953-1.339H47.883A2.1,2.1,0,0,0,45.93,41.41H40.535V40.33a2.934,2.934,0,0,0-1.423-2.511v-3.2A5.371,5.371,0,0,0,37.567,24.1H33.323V2.517h52.6v9.9a1.259,1.259,0,0,0,1.3,1.258,1.293,1.293,0,0,0,1.22-1.311V2.1a2.1,2.1,0,0,0-2.1-2.1H32.9a2.1,2.1,0,0,0-2.1,2.1v22H27.048A5.37,5.37,0,0,0,25.5,34.614v3.2A2.934,2.934,0,0,0,24.08,40.33V50.745A2.934,2.934,0,0,0,25.5,53.256v3.2a5.371,5.371,0,0,0,1.545,10.514h3.759v4.369H20.97a2.94,2.94,0,0,0-2.936,2.936v2.085h-.02A2.94,2.94,0,0,0,15.078,79.3v4.512a2.1,2.1,0,0,0,2.1,2.1H86.338a2.1,2.1,0,0,0,2.1-2.1V51h2.026a5.466,5.466,0,0,0,0-10.933Zm-36.8,3.856h8.577v3.221H53.658ZM48.3,42.588h2.839v5.9H48.3Zm-7.767,1.339h5.25v3.221h-5.25ZM24.194,29.471a2.857,2.857,0,0,1,2.854-2.854h10.52a2.854,2.854,0,0,1,0,5.708H27.048a2.857,2.857,0,0,1-2.854-2.854Zm2.822,21.694a.42.42,0,0,1-.419-.419V40.33a.42.42,0,0,1,.419-.419H37.6a.42.42,0,0,1,.419.419V50.745a.42.42,0,0,1-.419.419Zm9.58,2.517v2.552H28.019V53.682ZM28.019,37.393V34.842H36.6v2.552Zm-.972,27.065a2.854,2.854,0,1,1,0-5.708h10.52a2.854,2.854,0,0,1,0,5.708ZM47.02,83.394H17.595V79.3a.42.42,0,0,1,.419-.419H25.8a1.258,1.258,0,1,0,0-2.517H20.551V74.28a.42.42,0,0,1,.419-.419H43.644a.42.42,0,0,1,.419.419v2.085H31.677a1.258,1.258,0,1,0,0,2.517H46.6a.42.42,0,0,1,.419.419Zm38.9,0H49.537V79.3A2.94,2.94,0,0,0,46.6,76.365h-.02V74.28a2.94,2.94,0,0,0-2.936-2.936H33.323V66.975h4.244a5.371,5.371,0,0,0,1.545-10.514v-3.2a2.934,2.934,0,0,0,1.423-2.511v-1.08H45.93A2.1,2.1,0,0,0,47.883,51h3.678a2.1,2.1,0,0,0,1.953-1.339h8.9A2.217,2.217,0,0,0,64.45,51H85.919v32.39Z" transform="translate(-15.078 0)"/>
        <path id="Trazado_1036643" data-name="Trazado 1036643" d="M202.872,59.639A13.032,13.032,0,1,0,215.9,46.607a13.047,13.047,0,0,0-13.032,13.032Zm23.548,0A10.516,10.516,0,1,1,215.9,49.124,10.527,10.527,0,0,1,226.42,59.639Z" transform="translate(-171.361 -38.787)"/>
        <path id="Trazado_1036644" data-name="Trazado 1036644" d="M248.492,103.657a1.258,1.258,0,1,0-1.78,1.78l3.871,3.871a1.259,1.259,0,0,0,1.78,0l6-6a1.258,1.258,0,0,0-1.78-1.78l-5.11,5.11Z" transform="translate(-207.538 -84.185)"/>
        <path id="Trazado_1036645" data-name="Trazado 1036645" d="M243.681,328.327a1.258,1.258,0,0,0,1.258,1.258h23.144a1.258,1.258,0,0,0,0-2.517H244.939A1.258,1.258,0,0,0,243.681,328.327Z" transform="translate(-205.323 -272.189)"/>
        <path id="Trazado_1036646" data-name="Trazado 1036646" d="M323.69,363.546H311.758a1.258,1.258,0,0,0,0,2.517H323.69a1.258,1.258,0,1,0,0-2.517Z" transform="translate(-260.93 -302.545)"/>
        <path id="Trazado_1036647" data-name="Trazado 1036647" d="M244.939,366.063h6.849a1.258,1.258,0,0,0,0-2.517h-6.849a1.258,1.258,0,0,0,0,2.517Z" transform="translate(-205.323 -302.545)"/>
        <path id="Trazado_1036648" data-name="Trazado 1036648" d="M268.082,400.023H244.938a1.258,1.258,0,0,0,0,2.517h23.144a1.258,1.258,0,0,0,0-2.517Z" transform="translate(-205.322 -332.901)"/>
        <path id="Trazado_1036649" data-name="Trazado 1036649" d="M352.818,436.5h-6.059a1.258,1.258,0,0,0,0,2.517h6.059a1.258,1.258,0,1,0,0-2.517Z" transform="translate(-290.057 -363.258)"/>
        <path id="Trazado_1036650" data-name="Trazado 1036650" d="M258.165,436.5H244.939a1.258,1.258,0,0,0,0,2.517h13.225a1.258,1.258,0,0,0,0-2.517Z" transform="translate(-205.323 -363.258)"/>
      </g>
    </g>
  </g>
</svg>
