<svg xmlns="http://www.w3.org/2000/svg" width="63" height="63" viewBox="0 0 63 63">
  <g id="Grupo_1202348" data-name="Grupo 1202348" transform="translate(-621.268 -1943)">
    <circle id="Elipse_12372" data-name="Elipse 12372" cx="31.5" cy="31.5" r="31.5" transform="translate(621.268 1943)" fill="#26c790"/>
    <g id="Grupo_1202295" data-name="Grupo 1202295" transform="translate(624.603 1950)">
      <path id="Trazado_1036701" data-name="Trazado 1036701" d="M47.988,20.091c-1.314-.3-3.506-.8-3.752-1.41l-.025-.084v0a17.138,17.138,0,0,0-3.285-6.011c-.324-.526.959-2.412,1.383-3.037a.737.737,0,1,0-1.219-.829c-1.219,1.793-2.24,3.506-1.35,4.742.011.016.023.031.035.045A15.675,15.675,0,0,1,42.8,19.031h0l.028.1c0,.012.007.023.011.035.49,1.374,2.592,1.855,4.816,2.365a19.592,19.592,0,0,1,2.638.724c.641.258.772.46.772.5,0,.08-.151.286-.715.551a17.556,17.556,0,0,1-2.444.814c-2.109.6-4.291,1.222-4.725,2.753,0,.017-.009.034-.013.051-.011.055-.024.11-.036.165l-.007.032c0,.016-.006.032-.009.048-.212,1.389.841,2.4,1.771,3.3,1.046,1.007,1.512,1.55,1.259,2.183-.142.357-.176.441-1.4.057-1.176-.368-2.953-.925-4.546.668a.734.734,0,0,0-.059.066,15.712,15.712,0,0,1-12.432,6.052,15.877,15.877,0,0,1-3.68-.432.732.732,0,0,0-.08-.014c-2.156-.269-3.406,1.494-4.41,2.91-1.135,1.6-1.572,2.009-2.282,1.637-.222-.116-.353-.237-.389-.358-.107-.359.318-1.128.694-1.807.8-1.444,2.009-3.627.071-5.564-.015-.015-.032-.03-.048-.044a15.811,15.811,0,0,1-4.806-6.96q-.008-.024-.018-.047a1.5,1.5,0,0,1-.08-.239c0-.014-.007-.028-.012-.042l-.006-.019-.019-.058-.024-.075c0-.016-.01-.031-.016-.047-.534-1.389-2.378-1.647-4.161-1.9-1.8-.252-3.072-.487-3.072-1.222,0-.175,0-.415.613-.6a9.933,9.933,0,0,1,2.247-.244c1.656-.065,3.533-.139,3.715-1.684,0-.012,0-.025,0-.037l.007-.113c0-.018,0-.035,0-.053,0-1.221-1.328-2.425-3.5-4.288-1.39-1.2-3.295-2.833-3.326-3.664a.265.265,0,0,1,.1-.222c.656-.656,2.164-.339,3.76,0,2.266.476,4.834,1.015,6.632-.782q.021-.021.04-.044a15.892,15.892,0,0,1,6.054-4.4l.033-.015.027-.011.039-.014L21.9,9l.045-.02c1.055-.5,1.477-2.137,1.965-4.032.313-1.215.9-3.477,1.506-3.477.529,0,.972,1.346,1.328,2.427.578,1.754,1.233,3.742,3.006,4.129l.06.01a15.754,15.754,0,0,1,2.668.594l.048.013a1.956,1.956,0,0,0,.464.054c1.451,0,3.185-1.479,5.163-3.165,2.017-1.719,4.526-3.858,5.473-2.912.618.618.31,1.8-1,3.828a.737.737,0,1,0,1.239.8c.759-1.177,2.537-3.935.8-5.669-.892-.892-2.147-.895-3.729-.008A26.066,26.066,0,0,0,37.2,4.416c-1.472,1.255-3.484,2.971-4.3,2.8a17.233,17.233,0,0,0-2.854-.636c-.935-.229-1.445-1.777-1.9-3.144C27.589,1.749,27.013,0,25.417,0c-1.753,0-2.353,2.33-2.934,4.583-.273,1.06-.728,2.827-1.156,3.061l-.027.011-.016.007c-.045.016-.089.034-.136.056a17.372,17.372,0,0,0-6.582,4.777c-1.236,1.21-3.285.779-5.267.363-1.91-.4-3.885-.816-5.105.4a1.736,1.736,0,0,0-.529,1.32c.055,1.473,1.893,3.053,3.838,4.726,1.105.951,2.949,2.536,2.982,3.154l0,.054c-.019.063-.189.144-.431.2a10.54,10.54,0,0,1-1.877.173,10.844,10.844,0,0,0-2.621.308A2.023,2.023,0,0,0,3.9,25.211c0,2.074,2.407,2.411,4.342,2.682,1.221.171,2.739.383,2.983.95l.021.065.011.034a2.953,2.953,0,0,0,.14.419,17.286,17.286,0,0,0,5.219,7.564c1.047,1.068.569,2.145-.34,3.786-.567,1.024-1.1,1.991-.817,2.944a2.1,2.1,0,0,0,1.117,1.24,2.434,2.434,0,0,0,1.134.3,2.342,2.342,0,0,0,1.425-.513,8.383,8.383,0,0,0,1.61-1.875c1.043-1.471,1.818-2.429,2.988-2.3a17.288,17.288,0,0,0,17.542-6.117c.887-.864,1.741-.68,3.034-.275,1.008.316,2.531.793,3.214-.917.648-1.623-.6-2.825-1.606-3.791-.729-.7-1.418-1.364-1.339-1.992v0c.011-.051.022-.1.033-.152.239-.732,2.24-1.3,3.7-1.719,2.175-.619,4.229-1.2,4.229-2.783C52.543,21.134,50.331,20.627,47.988,20.091Z" transform="translate(0)"/>
      <path id="Trazado_1036702" data-name="Trazado 1036702" d="M185.649,151.175a4.146,4.146,0,1,0,4.146,4.146A4.151,4.151,0,0,0,185.649,151.175Zm0,6.818a2.672,2.672,0,1,1,2.672-2.672A2.675,2.675,0,0,1,185.649,157.993Z" transform="translate(-160.365 -136.321)"/>
      <path id="Trazado_1036703" data-name="Trazado 1036703" d="M205.663,297.781a2.658,2.658,0,1,0,2.657,2.658A2.661,2.661,0,0,0,205.663,297.781Zm0,3.841a1.184,1.184,0,1,1,1.184-1.184A1.185,1.185,0,0,1,205.663,301.622Z" transform="translate(-179.755 -268.523)"/>
      <path id="Trazado_1036704" data-name="Trazado 1036704" d="M365.992,366.13a10.862,10.862,0,0,0-1.355,1.163c-.637.606-1.6,1.521-2.1,1.521a5.266,5.266,0,0,0-3.135,1.025,1.218,1.218,0,0,0-.148.113,4.894,4.894,0,0,1-1.242-.2c-1.1-.26-2.469-.584-3.106.471-.686,1.136.482,2.15,1.335,2.89a4.576,4.576,0,0,1,.987,1.023,5.309,5.309,0,1,0,10.3-1.813c-.006-.017-.013-.033-.02-.05a5.757,5.757,0,0,1,.339-2.737c.379-1.442.707-2.687-.026-3.419C367.556,365.849,366.959,365.492,365.992,366.13Zm.434,3.034c-.346,1.315-.7,2.674-.273,3.682a3.835,3.835,0,1,1-7.452,1.278c0-.823-.726-1.454-1.495-2.121a5.479,5.479,0,0,1-1-1.022,4.874,4.874,0,0,1,1.47.208,3.166,3.166,0,0,0,2.37.014.745.745,0,0,0,.069-.05l.048-.038.022-.018.04-.034.034-.024a3.8,3.8,0,0,1,2.279-.751c1.089,0,2.119-.979,3.116-1.927a11.635,11.635,0,0,1,1.14-1A10.192,10.192,0,0,1,366.426,369.163Z" transform="translate(-316.544 -329.834)"/>
      <path id="Trazado_1036705" data-name="Trazado 1036705" d="M125.245,109.99a2.308,2.308,0,0,1,.767.069,2.707,2.707,0,0,0,2.358-.467,2.608,2.608,0,0,0,1.028-2.076v-.04a14.581,14.581,0,1,0-24.345,10.8.737.737,0,0,0,.989-1.092,13.1,13.1,0,1,1,21.882-9.712v.035a1.13,1.13,0,0,1-.452.911,1.243,1.243,0,0,1-1.084.211A3.764,3.764,0,0,0,121.672,112a3.731,3.731,0,0,0,1,2.834,3.779,3.779,0,0,0,2.121,1.143,13.08,13.08,0,0,1-9.977,4.6h-.069a13.054,13.054,0,0,1-6.178-1.6.737.737,0,1,0-.707,1.293,14.532,14.532,0,0,0,6.877,1.776h.076a14.56,14.56,0,0,0,12.135-6.493.737.737,0,0,0-.837-1.111,2.289,2.289,0,0,1-2.973-2.348A2.293,2.293,0,0,1,125.245,109.99Z" transform="translate(-87.083 -83.769)"/>
      <path id="Trazado_1036706" data-name="Trazado 1036706" d="M321.84,183.278a.736.736,0,1,0-.819-.426A.742.742,0,0,0,321.84,183.278Z" transform="translate(-286.12 -163.956)"/>
      <path id="Trazado_1036707" data-name="Trazado 1036707" d="M411.819,435.375a.737.737,0,1,0-.3.914A.744.744,0,0,0,411.819,435.375Z" transform="translate(-366.773 -392.187)"/>
      <path id="Trazado_1036708" data-name="Trazado 1036708" d="M443.387,454.69a.737.737,0,1,0-.236.869A.745.745,0,0,0,443.387,454.69Z" transform="translate(-395.24 -409.606)"/>
      <path id="Trazado_1036709" data-name="Trazado 1036709" d="M169.625,262.727a.737.737,0,1,0,.241.96A.742.742,0,0,0,169.625,262.727Z" transform="translate(-148.622 -236.802)"/>
    </g>
  </g>
</svg>
