<svg xmlns="http://www.w3.org/2000/svg" width="63" height="63" viewBox="0 0 63 63">
  <g id="Grupo_1202347" data-name="Grupo 1202347" transform="translate(-621.268 -2053)">
    <circle id="Elipse_12373" data-name="Elipse 12373" cx="31.5" cy="31.5" r="31.5" transform="translate(621.268 2053)" fill="#26c790"/>
    <g id="Grupo_1202296" data-name="Grupo 1202296" transform="translate(624.768 2056.5)">
      <path id="Trazado_1036710" data-name="Trazado 1036710" d="M23.72,20.53a1.258,1.258,0,0,1-.941-.421c-.032-.035-4.064-4.26-15.016-4.26A1.262,1.262,0,0,1,6.5,14.587V4.762A1.262,1.262,0,0,1,7.762,3.5c2.988,0,23.974,2.379,23.974,11.981a1.262,1.262,0,0,1-2.524,0c0-6.01-14.468-8.972-20.188-9.4v7.265c11.251.322,15.457,4.884,15.637,5.085a1.262,1.262,0,0,1-.941,2.1Z"/>
      <path id="Trazado_1036711" data-name="Trazado 1036711" d="M23.72,43.549a1.258,1.258,0,0,1-.941-.421c-.032-.035-4.064-4.26-15.016-4.26a1.262,1.262,0,1,1,0-2.524c12.2,0,16.712,4.894,16.9,5.1a1.262,1.262,0,0,1-.941,2.1Z" transform="translate(0 -5.216)"/>
      <path id="Trazado_1036712" data-name="Trazado 1036712" d="M33.51,36.66a1.261,1.261,0,0,1-1.141-.721,7.542,7.542,0,0,0-2.842-2.888A1.262,1.262,0,1,1,30.9,30.932a9.959,9.959,0,0,1,3.752,3.925,1.263,1.263,0,0,1-1.139,1.8Z" transform="translate(-3.565 -4.324)"/>
      <path id="Trazado_1036713" data-name="Trazado 1036713" d="M7.762,35.672A1.262,1.262,0,0,1,6.5,34.41V24.585a1.262,1.262,0,0,1,1.262-1.262,38.43,38.43,0,0,0,21.985-6.85A1.262,1.262,0,0,1,31.736,17.5V24.32a6.61,6.61,0,0,1-3.125,5.717A40.929,40.929,0,0,1,7.762,35.672Zm1.262-9.845v7.3a38.313,38.313,0,0,0,18.3-5.263,4.08,4.08,0,0,0,1.887-3.545V19.846A41.16,41.16,0,0,1,9.024,25.827Z" transform="translate(0 -2.024)"/>
      <path id="Trazado_1036714" data-name="Trazado 1036714" d="M7.762,57.249A1.262,1.262,0,0,1,6.5,55.987V46.162A1.262,1.262,0,0,1,7.762,44.9a38.579,38.579,0,0,0,18.562-4.714A1.262,1.262,0,1,1,27.541,42.4,41.039,41.039,0,0,1,9.024,47.4v7.3a47.672,47.672,0,0,0,12.4-2.133c.575-.19,1.127-.39,1.64-.6A1.262,1.262,0,0,1,24,54.314c-.563.226-1.165.445-1.79.651A50.359,50.359,0,0,1,7.762,57.249Z" transform="translate(0 -5.801)"/>
      <path id="Trazado_1036715" data-name="Trazado 1036715" d="M33.177,13.8a1.262,1.262,0,0,1-.425-2.45,29.2,29.2,0,0,0,4.618-2.075c1.463-.951,3.166-.474,4.814-.015a12.446,12.446,0,0,0,2.456.516c1.311.086,3.174-1.522,4.046-2.552a1.262,1.262,0,0,1,1.93,1.626c-.313.372-3.142,3.638-6.133,3.444a14.539,14.539,0,0,1-2.977-.6c-1.107-.309-2.253-.629-2.759-.3A32.143,32.143,0,0,1,33.6,13.723a1.262,1.262,0,0,1-.425.074Z" transform="translate(-4.036 -0.52)"/>
      <path id="Trazado_1036716" data-name="Trazado 1036716" d="M51.589,19.465a1.256,1.256,0,0,1-.738-.239c-.1-.072-2.445-1.77-3.292-2.512-.966-.845-1.712-3.377-2.07-4.81a1.262,1.262,0,0,1,2.448-.612,13.16,13.16,0,0,0,1.3,3.539c.614.536,2.442,1.879,3.093,2.35a1.262,1.262,0,0,1-.741,2.284Z" transform="translate(-6.186 -1.086)"/>
      <path id="Trazado_1036717" data-name="Trazado 1036717" d="M45.188,29.023a1.258,1.258,0,0,1-.867-.345c-2.347-2.222-3.908-1.811-4.1-1.643a3.64,3.64,0,0,1-2.991,1.449,5.129,5.129,0,0,1-3.5-2.146,1.262,1.262,0,0,1,2.053-1.467,2.7,2.7,0,0,0,1.565,1.093c.108,0,.452.019.966-.581a3.247,3.247,0,0,1,2.314-1.01c.993-.055,3.022.2,5.424,2.473a1.262,1.262,0,0,1-.868,2.178Z" transform="translate(-4.288 -3.31)"/>
      <path id="Trazado_1036718" data-name="Trazado 1036718" d="M40.12,26.59a1.26,1.26,0,0,1-1.25-1.1c-.024-.192-.543-4.725,2.89-6.493a1.262,1.262,0,1,1,1.156,2.243c-1.863.959-1.544,3.915-1.541,3.944a1.264,1.264,0,0,1-1.1,1.4,1.28,1.28,0,0,1-.152.009Z" transform="translate(-5.134 -2.438)"/>
      <path id="Trazado_1036719" data-name="Trazado 1036719" d="M38.981,11.351h-.046a1.262,1.262,0,0,1-1.216-1.306,8.705,8.705,0,0,1,1.188-4.281A1.262,1.262,0,1,1,40.92,7.285a6.6,6.6,0,0,0-.679,2.849,1.262,1.262,0,0,1-1.26,1.217Z" transform="translate(-4.958 -0.28)"/>
      <path id="Trazado_1036720" data-name="Trazado 1036720" d="M22.253,14.388a1.256,1.256,0,0,1-.692-.207A11.2,11.2,0,0,0,19,12.956a1.262,1.262,0,0,1,.81-2.39,13.738,13.738,0,0,1,3.137,1.507,1.262,1.262,0,0,1-.695,2.316Z" transform="translate(-1.849 -1.112)"/>
      <path id="Trazado_1036721" data-name="Trazado 1036721" d="M14.44,12.049c-.03,0-.059,0-.089,0-.3-.021-.479-.023-.5-.023a1.262,1.262,0,0,1,0-2.524s.249,0,.674.029a1.262,1.262,0,0,1-.087,2.521Z" transform="translate(-0.968 -0.953)"/>
      <path id="Trazado_1036722" data-name="Trazado 1036722" d="M14.92,31.955a1.262,1.262,0,0,1-.021-2.524,16.568,16.568,0,0,0,6.323-1.4,1.262,1.262,0,1,1,1.217,2.211c-2.95,1.623-7.314,1.711-7.5,1.714H14.92Z" transform="translate(-1.137 -3.871)"/>
      <path id="Trazado_1036723" data-name="Trazado 1036723" d="M12.644,54.918a1.262,1.262,0,0,1-.044-2.523,14.328,14.328,0,0,0,3-.514,1.262,1.262,0,1,1,.693,2.427,16.615,16.615,0,0,1-3.605.609h-.045Z" transform="translate(-0.776 -7.676)"/>
      <path id="Trazado_1036724" data-name="Trazado 1036724" d="M40.7,55.894a12.2,12.2,0,1,1,12.2-12.2A12.211,12.211,0,0,1,40.7,55.894Zm0-21.871A9.674,9.674,0,1,0,50.371,43.7,9.684,9.684,0,0,0,40.7,34.024Z" transform="translate(-3.494 -4.447)"/>
      <path id="Trazado_1036725" data-name="Trazado 1036725" d="M35.917,47.059a1.228,1.228,0,0,1-1.107-.684,3.726,3.726,0,0,1,1.208-4.461.921.921,0,0,0,.127-1.4,1.27,1.27,0,0,1,.264-1.758,1.253,1.253,0,0,1,1.748.235,3.458,3.458,0,0,1-.518,4.854c-.795.666-.626,1.268-.554,1.436a1.281,1.281,0,0,1-.629,1.656,1.3,1.3,0,0,1-.539.119Z" transform="translate(-4.447 -5.559)"/>
      <path id="Trazado_1036726" data-name="Trazado 1036726" d="M49.129,43.626a3.006,3.006,0,0,1-.485-.039,3.245,3.245,0,0,1-2.168-1.462c-.543-.788-1.029-.71-1.215-.64a1.245,1.245,0,0,1-1.662-.607,1.279,1.279,0,0,1,.618-1.689,3.485,3.485,0,0,1,4.337,1.5.847.847,0,0,0,.488.4,1.14,1.14,0,0,0,.692-.2,1.272,1.272,0,0,1,1.755.284,1.252,1.252,0,0,1-.253,1.744,3.767,3.767,0,0,1-2.107.7Z" transform="translate(-5.873 -5.626)"/>
      <path id="Trazado_1036727" data-name="Trazado 1036727" d="M41.762,54.265h-.006A1.254,1.254,0,0,1,40.5,53.024a3.345,3.345,0,0,1,3.353-3.511c1.069-.01,1.2-.666,1.206-.694a1.262,1.262,0,1,1,2.482.453,3.567,3.567,0,0,1-3.664,2.765c-.554.005-.842.336-.854.982a1.27,1.27,0,0,1-1.262,1.248Z" transform="translate(-5.4 -7.033)"/>
    </g>
  </g>
</svg>
