<svg xmlns="http://www.w3.org/2000/svg" width="63" height="63" viewBox="0 0 63 63">
  <g id="Grupo_1202346" data-name="Grupo 1202346" transform="translate(-306.268 -2170)">
    <circle id="Elipse_12375" data-name="Elipse 12375" cx="31.5" cy="31.5" r="31.5" transform="translate(306.268 2170)" fill="#26c790"/>
    <g id="Grupo_1202294" data-name="Grupo 1202294" transform="translate(313.268 2178)">
      <path id="Trazado_1036681" data-name="Trazado 1036681" d="M202.6,138.248a20.11,20.11,0,0,0,0,28.453,3.392,3.392,0,0,0,4.8-4.8,13.352,13.352,0,0,1,0-18.859,3.392,3.392,0,0,0-4.8-4.8Zm3.489,3.489a15.112,15.112,0,0,0-3.559,5.608.921.921,0,0,0-.2-.29.926.926,0,1,0-.162,1.436,15.387,15.387,0,0,0,.162,8.524l-.007-.008a.925.925,0,1,0,0,1.308.923.923,0,0,0,.264-.547,15.107,15.107,0,0,0,3.5,5.445,1.542,1.542,0,0,1-2.18,2.18,18.145,18.145,0,0,1-5.348-12.434.911.911,0,0,0,.2.291.924.924,0,1,0,0-1.308.912.912,0,0,0-.2.3,18.147,18.147,0,0,1,5.352-12.683,1.542,1.542,0,0,1,2.18,2.18Zm0,0" transform="translate(-178.498 -124.555)"/>
      <path id="Trazado_1036682" data-name="Trazado 1036682" d="M116.334,34.408C107.62,36.371,103.52,44.7,103.349,45.053a3.286,3.286,0,0,0,5.919,2.855c.029-.058,2.912-5.827,8.51-7.088a3.279,3.279,0,0,0,1.6-.88h0a3.286,3.286,0,0,0-3.044-5.53Zm1.735,4.222a1.431,1.431,0,0,1-.7.384,13.087,13.087,0,0,0-5.533,2.827.9.9,0,0,0,.021-.19.925.925,0,1,0-.925.925.883.883,0,0,0,.093,0A17.962,17.962,0,0,0,107.6,47.1a1.435,1.435,0,1,1-2.586-1.246,15.038,15.038,0,0,1,.791-1.389.924.924,0,1,0,.918-1.031.917.917,0,0,0-.249.035,18.641,18.641,0,0,1,8.007-6.555.916.916,0,0,0-.059.319A.925.925,0,1,0,116,36.581a.9.9,0,0,0-.169-.132c.3-.087.6-.166.906-.236a1.435,1.435,0,0,1,1.329,2.417Zm0,0" transform="translate(-93.491 -31.151)"/>
      <path id="Trazado_1036683" data-name="Trazado 1036683" d="M41.332,227.659a3.288,3.288,0,0,0,0,4.645,8.083,8.083,0,0,0,11.419,0,3.284,3.284,0,0,0-4.645-4.645,1.508,1.508,0,0,1-2.129,0A3.288,3.288,0,0,0,41.332,227.659Zm8.083,1.309A1.434,1.434,0,0,1,51.443,231a6.232,6.232,0,0,1-8.8,0,1.434,1.434,0,0,1,2.028-2.028,3.358,3.358,0,0,0,4.746,0Zm0,0" transform="translate(-36.636 -205.72)"/>
      <path id="Trazado_1036684" data-name="Trazado 1036684" d="M73.06,73.406a.922.922,0,0,0,.655-.272l.048-.048a.925.925,0,0,0-1.309-1.309l-.05.05a.926.926,0,0,0,.655,1.579Zm0,0" transform="translate(-65.46 -64.89)"/>
      <path id="Trazado_1036685" data-name="Trazado 1036685" d="M40.442,6.937A23.691,23.691,0,0,0,9.8,4.5.925.925,0,1,0,10.883,6,21.833,21.833,0,1,1,5.7,11.311a.925.925,0,1,0-1.524-1.05A23.688,23.688,0,1,0,40.442,6.937Zm0,0" transform="translate(0 0)"/>
      <path id="Trazado_1036686" data-name="Trazado 1036686" d="M138.847,257.971a.926.926,0,1,0-.654-.271A.928.928,0,0,0,138.847,257.971Zm0,0" transform="translate(-125.159 -232.42)"/>
      <path id="Trazado_1036687" data-name="Trazado 1036687" d="M70.524,257.533a.926.926,0,1,0,.655-.271A.931.931,0,0,0,70.524,257.533Zm0,0" transform="translate(-63.753 -233.455)"/>
      <path id="Trazado_1036688" data-name="Trazado 1036688" d="M256.541,401.995a.924.924,0,1,0-.654-.271A.934.934,0,0,0,256.541,401.995Zm0,0" transform="translate(-231.963 -363.116)"/>
      <path id="Trazado_1036689" data-name="Trazado 1036689" d="M148.69,334.781a.926.926,0,1,0-.271.654A.931.931,0,0,0,148.69,334.781Zm0,0" transform="translate(-133.252 -302.961)"/>
      <path id="Trazado_1036690" data-name="Trazado 1036690" d="M69.5,325.091a.926.926,0,1,0,.654-.271A.931.931,0,0,0,69.5,325.091Zm0,0" transform="translate(-62.828 -294.762)"/>
      <path id="Trazado_1036691" data-name="Trazado 1036691" d="M157.163,413.671a.924.924,0,1,0-.655-.271A.933.933,0,0,0,157.163,413.671Zm0,0" transform="translate(-141.781 -373.711)"/>
      <path id="Trazado_1036692" data-name="Trazado 1036692" d="M350.355,77.855a.926.926,0,1,0,.654.271A.931.931,0,0,0,350.355,77.855Zm0,0" transform="translate(-317.095 -70.651)"/>
      <path id="Trazado_1036693" data-name="Trazado 1036693" d="M358.16,151.739a.925.925,0,1,0,.271-.655A.927.927,0,0,0,358.16,151.739Zm0,0" transform="translate(-325.017 -136.857)"/>
      <path id="Trazado_1036694" data-name="Trazado 1036694" d="M346.3,423.369a.925.925,0,1,0,.654-.271A.933.933,0,0,0,346.3,423.369Zm0,0" transform="translate(-314.011 -383.945)"/>
      <path id="Trazado_1036695" data-name="Trazado 1036695" d="M418.119,343.076a.925.925,0,1,0,.654-.271A.934.934,0,0,0,418.119,343.076Zm0,0" transform="translate(-379.181 -311.082)"/>
      <path id="Trazado_1036696" data-name="Trazado 1036696" d="M337.484,286a.926.926,0,1,0,.271-.654A.932.932,0,0,0,337.484,286Zm0,0" transform="translate(-306.255 -258.694)"/>
      <path id="Trazado_1036697" data-name="Trazado 1036697" d="M390.159,272.878a.925.925,0,1,0-.654-.271A.93.93,0,0,0,390.159,272.878Zm0,0" transform="translate(-353.216 -245.947)"/>
      <path id="Trazado_1036698" data-name="Trazado 1036698" d="M409.585,221.409a.924.924,0,1,0-.655-.271A.934.934,0,0,0,409.585,221.409Zm0,0" transform="translate(-370.844 -199.241)"/>
      <path id="Trazado_1036699" data-name="Trazado 1036699" d="M257.374,177.586a.926.926,0,1,0,.654.271A.933.933,0,0,0,257.374,177.586Zm0,0" transform="translate(-232.718 -161.152)"/>
      <path id="Trazado_1036700" data-name="Trazado 1036700" d="M300.41,193.072a4.211,4.211,0,0,0,4.207,4.206,10.881,10.881,0,0,0,10.869-10.868,4.207,4.207,0,0,0-8.413,0,2.458,2.458,0,0,1-2.456,2.456A4.212,4.212,0,0,0,300.41,193.072Zm8.512-6.662a2.356,2.356,0,0,1,4.713,0,9.028,9.028,0,0,1-9.018,9.018,2.356,2.356,0,1,1,0-4.712A4.311,4.311,0,0,0,308.923,186.41Zm0,0" transform="translate(-272.611 -165.342)"/>
    </g>
  </g>
</svg>
