<svg xmlns="http://www.w3.org/2000/svg" width="81.504" height="92.173" viewBox="0 0 81.504 92.173">
  <g id="Grupo_1202353" data-name="Grupo 1202353" transform="translate(-232.505 -3767)">
    <g id="Grupo_1202351" data-name="Grupo 1202351" transform="translate(232.505 3767)">
      <g id="Grupo_1188468" data-name="Grupo 1188468" transform="translate(0 10.001)">
        <path id="Trazado_878298" data-name="Trazado 878298" d="M0,0V82.172H81.5V81.5A81.5,81.5,0,0,0,0,0Z" fill="#fdbab3"/>
      </g>
      <path id="Trazado_874774" data-name="Trazado 874774" d="M8.681,17.737c.058,0,.116,0,.174-.005a2.92,2.92,0,0,0,1.742-.737,2.539,2.539,0,0,0,.893-1.9,12.068,12.068,0,0,0,.075-1.714V11.626H15.15a2.259,2.259,0,0,0,1.982-1.015,3.141,3.141,0,0,0,.5-1.726,2.963,2.963,0,0,0-.524-1.721,2.248,2.248,0,0,0-1.961-.947H11.564v-1.9a14.322,14.322,0,0,0-.074-1.846A2.308,2.308,0,0,0,10.52.57a2.923,2.923,0,0,0-3.467,0,2.323,2.323,0,0,0-.971,1.988V6.217H2.789A2.719,2.719,0,0,0,.6,7.08,2.475,2.475,0,0,0,.019,9.013a3.176,3.176,0,0,0,.768,1.719,2.554,2.554,0,0,0,2,.894H6.082v3.367A2.529,2.529,0,0,0,7.053,17.2,2.757,2.757,0,0,0,8.681,17.737ZM15.293,9.42a.523.523,0,0,1-.143.015H9.374v3.948a9.5,9.5,0,0,1-.052,1.394l-.021.106v.108a.374.374,0,0,1-.13.339.744.744,0,0,1-.453.214H8.681a.568.568,0,0,1-.343-.12.989.989,0,0,1-.066-.434V9.436H2.789a.374.374,0,0,1-.339-.13,1,1,0,0,1-.256-.549A.294.294,0,0,1,2.272,8.5a1.015,1.015,0,0,1,.517-.088H8.272V2.558c0-.168.035-.193.053-.206a.737.737,0,0,1,.921,0c.019.013.053.038.053.206v.091l.015.089a11.777,11.777,0,0,1,.058,1.575V8.408H15.15a.6.6,0,0,1,.17.018.8.8,0,0,1,.124.459A.958.958,0,0,1,15.293,9.42Z" transform="translate(24.384 24.999) rotate(-137)" fill="#1a8a64"/>
    </g>
    <g id="Grupo_1201563" data-name="Grupo 1201563" transform="translate(242.51 3788.397)">
      <g id="Grupo_1202352" data-name="Grupo 1202352" transform="translate(0 0)">
        <path id="Trazado_1034311" data-name="Trazado 1034311" d="M397.45,239.493a43.792,43.792,0,0,0-2.143-6.991c.976.069,1.383.435,2.143-.442Z" transform="translate(-332.924 -195.439)" fill="#f8f8f8"/>
        <path id="Trazado_1034312" data-name="Trazado 1034312" d="M184.232,407.8h-.5a.309.309,0,0,1,.5,0" transform="translate(-154.734 -343.338)" fill="#767676"/>
        <path id="Trazado_1034315" data-name="Trazado 1034315" d="M172.084,316.8c1.49-.419,2.215.9,1.255,1.7-1,.834-3.324.907-4.531.572-.523-.145-1.881-1.029-2.2-1.008a20.389,20.389,0,0,1-2.088,1.008,6.258,6.258,0,0,1-3.5-.091c-2.222-.691-1.669-2.709.224-2.177a5.3,5.3,0,0,0,.956.367,4.583,4.583,0,0,0,3.269-.867c.663-.751-.633-3.746,1.253-3.667,1.721.072.476,2.922,1.132,3.667a4.583,4.583,0,0,0,3.269.867,5.3,5.3,0,0,0,.956-.367" transform="translate(-134.396 -263.296)" fill="#040303"/>
        <path id="Trazado_1034316" data-name="Trazado 1034316" d="M192.836,357.282a12.546,12.546,0,0,1,1.512,0c1.783.119,1.519,1.839.434,2.008-.745.116-2.883.221-3.149-.616-.321-1.01.349-1.335,1.2-1.392" transform="translate(-161.322 -300.881)" fill="#040404"/>
        <path id="Trazado_1034318" data-name="Trazado 1034318" d="M173.286,280.726a1.065,1.065,0,0,1,.911.17,16.522,16.522,0,0,1,2.375,2.542,1.022,1.022,0,0,1-1.535,1.152,28.627,28.627,0,0,1-2.278-2.257,1.027,1.027,0,0,1,.527-1.607" transform="translate(-145.335 -236.395)" fill="#070505"/>
        <path id="Trazado_1034319" data-name="Trazado 1034319" d="M213.58,280.743a1.022,1.022,0,0,1,1.152,1.535,29.31,29.31,0,0,1-2.33,2.33,1.025,1.025,0,0,1-1.417-1.417,16.373,16.373,0,0,1,2.595-2.448" transform="translate(-177.565 -236.412)" fill="#070505"/>
        <path id="Trazado_1034320" data-name="Trazado 1034320" d="M27.986,64.464a64.894,64.894,0,0,1-13.734-2.205c-2.474-.736-4.026-.837-2.52-3.842H7.889a3.386,3.386,0,0,1-.623-.384c-.583-.761.538-2.7.434-3.647H3.731a2.655,2.655,0,0,1-.693-.693v-8C-.837,47.53-.127,44.683.478,42.061A36.74,36.74,0,0,1,2.156,37c-2.442.773-2.3-.676-1.8-2.491.8-2.843,2.628-5.645,3.938-8.283-2.443-.252-.623-2.512.15-3.63.433-.626,1.39-1.574,1.678-2.1a.5.5,0,0,0,.072-.3,7.318,7.318,0,0,1-3.379-7.41c.621-3.653,4.655-8.652,8.217-9.8a8.025,8.025,0,0,1,7.541,1.239,24.344,24.344,0,0,1,27.388,0c2.441-1.6,4.587-2.16,7.447-1.27,4.3,1.338,9.156,7.833,8.311,12.413a7.711,7.711,0,0,1-3.352,4.773l-.024.17c.546.795,1.2,1.5,1.747,2.294.773,1.118,2.593,3.378.15,3.63a51.763,51.763,0,0,1,4.283,9.261v1.134c-.76.878-1.167.511-2.143.442a43.808,43.808,0,0,1,2.143,6.991v1.638c-.8,1.182-1.969.317-3.024,0v8a1.568,1.568,0,0,1-.693.693H56.84c-.1.943,1.018,2.886.434,3.647a3.38,3.38,0,0,1-.623.384H52.808c.625,1.937,1.366,2.413-.817,3.278-4.175,1.655-9.4,2.171-13.861,2.519a11.979,11.979,0,0,0-1.828.251H29.5a.309.309,0,0,0-.5,0c-.333-.013-.675.019-1.008,0M59.738,36.243c-.218-.573-.473-1.391.129-1.824.72-.517,1.3.1,1.954.184.191.024.218.013.187-.187a13.19,13.19,0,0,0-.775-1.872c-.607-1.352-1.371-2.792-2.059-4.115-.364-.7-1.736-2.727-1.713-3.333a.991.991,0,0,1,.464-.808c.23-.129.79-.071.678-.327-.491-.46-1.692-2.561-2.329-2.579a6.288,6.288,0,0,0-.819.311,10.641,10.641,0,0,1-6.3-.064c-.063,1.683,2.93,1.237,2.172,2.992-.392.906-1.742.454-2.386.056-2.606-1.612-2.162-5.009-1.174-7.458-.863.205-2.18,1.294-3.02.69-.753-.541-.123-2.052.09-2.8a49.426,49.426,0,0,1,1.736-4.688,10.944,10.944,0,0,0-3.211,2.458c-.672.786-1.4,2.907-2.647,2.009-.984-.706.2-2.121.7-2.821.235-.33.847-.8.991-1.151.5-1.205.451-2.382,1.228-3.812.161-.3.966-1.225.8-1.476a22.386,22.386,0,0,0-24.337,0c-.161.251.643,1.179.8,1.476.777,1.43.73,2.607,1.228,3.812.334.809,3.134,2.937,1.692,3.972-1.182.847-1.674-.74-2.213-1.435a10.436,10.436,0,0,0-3.645-3.032A49.47,49.47,0,0,1,19.7,15.106c.212.751.842,2.261.09,2.8-.84.6-2.157-.485-3.02-.69.988,2.448,1.432,5.847-1.174,7.458-.643.4-1.994.851-2.386-.056-.758-1.755,2.235-1.309,2.172-2.992a10.275,10.275,0,0,1-7.122-.25c-.2,0-.949.793-1.132,1s-1.118,1.4-1.195,1.578c-.112.257.448.2.678.327a.991.991,0,0,1,.464.808c.024.606-1.349,2.633-1.713,3.333-.688,1.323-1.452,2.763-2.059,4.115a13.191,13.191,0,0,0-.775,1.872c-.031.2,0,.212.187.187.658-.084,1.234-.7,1.954-.184.6.433.347,1.25.129,1.824-.067.175-.325.479-.437.761a25.715,25.715,0,0,0-2.083,6.8c.772-.115,1.643-.836,2.391-.312a1.7,1.7,0,0,1,.38.5v8.378H9.4a1.7,1.7,0,0,1,.5.38c.58.827-.54,2.654-.438,3.651h3.969a1.7,1.7,0,0,1,.5.38c.621.885-.567,2.167-.429,3.138a59.887,59.887,0,0,0,9.645,2.009A79.334,79.334,0,0,0,42.395,61.8a61.742,61.742,0,0,0,8.639-1.881c.138-.972-1.049-2.253-.429-3.138a1.7,1.7,0,0,1,.5-.38h3.969c.1-1-1.018-2.825-.438-3.651a1.7,1.7,0,0,1,.5-.38h4.347V43.991a1.7,1.7,0,0,1,.38-.5c.788-.552,1.688.28,2.518.311a36.409,36.409,0,0,0-1.577-5.288c-.281-.752-.81-1.588-1.069-2.27M19.417,8.777c-1.517-3.568-5.06-5.316-8.7-3.469C8.37,6.5,5.365,10.337,4.858,12.928c-1.044,5.336,6.051,8.655,10.386,6.541.154-.248-.413-1.428-.566-1.731-.362-.718-1.594-2.082-1.568-2.722.08-1.992,3.217-.064,4.167.249.108.036.328.154.376,0a32.154,32.154,0,0,0-2.075-4.854c-.459-.787-1.668-1.92-1.4-2.776.408-1.28,2.63-.126,3.431.236a15.774,15.774,0,0,0,1.8.9M49.3,19.469C53.92,21.6,61.061,18.113,59.549,12.43c-1.2-4.515-7.1-10.155-11.9-6.858a8.421,8.421,0,0,0-2.525,3.019c-.049.169.016.237.185.185.322-.1,1.162-.7,1.618-.9.807-.359,3.022-1.52,3.431-.236.278.872-.85,1.852-1.305,2.614a29.317,29.317,0,0,0-2.165,5.016c.991.1,4.454-2.469,4.543-.251.026.639-1.206,2-1.568,2.722-.153.3-.72,1.484-.566,1.731" transform="translate(0 0)" fill="#030302"/>
        <path id="Trazado_1034324" data-name="Trazado 1034324" d="M129.572,153.012c2.693-.522,2.525,5.2,1.858,6.775-.585,1.379-2.065,1.771-2.939.422-.935-1.444-1.088-6.777,1.081-7.2" transform="translate(-107.666 -128.837)" fill="#040201"/>
        <path id="Trazado_1034325" data-name="Trazado 1034325" d="M257.322,153.012c2.693-.522,2.525,5.2,1.858,6.775-.585,1.379-2.065,1.771-2.939.422-.935-1.444-1.088-6.777,1.081-7.2" transform="translate(-215.257 -128.837)" fill="#040201"/>
      </g>
    </g>
  </g>
</svg>
