<svg id="Grupo_1202158" data-name="Grupo 1202158" xmlns="http://www.w3.org/2000/svg" xmlns:xlink="http://www.w3.org/1999/xlink" width="100" height="100" viewBox="0 0 100 100">
  <defs>
    <clipPath id="clip-path">
      <rect id="Rect치ngulo_409466" data-name="Rect치ngulo 409466" width="70.009" height="52.847" fill="#12263f"/>
    </clipPath>
  </defs>
  <rect id="Rect치ngulo_409766" data-name="Rect치ngulo 409766" width="100" height="100" fill="none"/>
  <g id="Grupo_1201551" data-name="Grupo 1201551" transform="translate(15.21 24.12)">
    <g id="Grupo_1201550" data-name="Grupo 1201550" clip-path="url(#clip-path)">
      <path id="Trazado_1034240" data-name="Trazado 1034240" d="M17.64,10.448c2.629,0,6.225-.284,8.52,1.24,1.538,1.022-.652,1.716-.549,3.134,2.234.244,3.023,2.788,4.974,3.59,1.438-.328.4-9.6,4.21-12.13,3.185-2.112,5.078-.521,7.936.97,3.5-6.721,11.648-1.6,9.973,4.784,2.421-.2,4.718.957,4.784,3.59l.589,0c6.325-4.98,6.655,3.2,3.392,7.171.608.5,4.085-3.154,6.159-.779,2.51,2.874-3.913,5.929-2.97,6.757,5.883-.583,7.661,4.3,1.5,6.489-1.979.7-9.636,1.576-10.18,1.971-.135.1-1.149,2.249-1.7,2.887-5.863,6.832-19.06,10.33-27.747,11.7-3.293.518-11.178,1.578-14.1.685-4.258-1.3-2.507-7.385.419-9.38C2.437,41.394-2.689,30.209,1.415,20.715,1.873,19.655,4,17.254,4,17.029c0-.474-1.4-1-.326-2.82,1.715-2.915,6.155-3.2,9.183-2.969-.465-1.6-.8-3.2-1.4-4.769-.763-1.993-3-3.64-.8-5.6a4.537,4.537,0,0,1,3.917-.71c2.127.652,3.315,8.165,3.062,10.283m-4.4,5.192c-.446,2.54,4.578,7.632,4.827,3.38.11-1.877-1.764-4.991.445-4.9,2.159.088,4,.946,5.891-1.084-1.422-2.03-7.934-.07-8.589-.974-.526-.726.27-1.829.233-2.613-.084-1.778-.927-9.519-3.814-7.395-1.208.889.276,1.828.7,2.936a17.009,17.009,0,0,1,1.519,7.848c-1.244.074-2.54-.12-3.781,0-1.367.138-7.024,1.535-4.735,3.13,3.017,2.1,6.547-.985,7.3-.333m37.47-.813c.749-3.305,1.024-9.2-3.789-8.8-3.242.274-3.436,4.988-4.386,5.21-1.157.271-1.068-2.929-2.74-3.609-6.3-2.564-5.89,6.341-6.81,9.993-.251,1-1.262,2.455-1.314,3.045-.054.615,1.387,3.635,1.5,5.119.168,2.163-.46,3.718-.791,5.771,3.287-1.272,6.547-2.686,5.88-6.874-.173-1.083-2.95-7.013-.9-7.061.761-.018,1.893,4.8,2.183,5.784.129.437.131,1.237.8.582.2-.195,2.037-4.4,2.3-5.073.931-2.371,1.481-4.9,2.312-7.3l1.365.024L43.938,20c.908-.453,6.8-2.335,6.373-.2-.1.508-6.591,1.329-7.371,2.991l-2.983,5.18c3.837-1.248,7.339-3.281,11.517-2.015.483-3.043,4.795-6.772,4.6-9.6-.318-4.553-4.647-.835-5.356-1.537m-37.051,27.9c2.049-.966,3.711-2.564,5.607-3.755,2.679-1.683,7.826-3.921,9.912-5.626,2.784-2.276,2.482-8.178,1.289-11.22-.733-1.87-4.151-5.774-6.049-6.331-1.521-.447-3.228.8-4.784.233-.023,1.005.2,6.166-.647,6.4-3.076.471-6.58-1.6-6.932-4.806-1.058.124-1.886.735-2.993.812-1.148.079-2.877-.575-3.506-.372-1.437.464-3.238,5.469-3.415,6.976C1.329,32.007,3.76,37.479,10.2,40.4c1.506.683,3.677.361,3.462,2.324m47.61-27.087c-1.726-.065-7.19,7.919-7.862,9.664-.712,1.849.684,3.808,2.082,2.478,1.841-1.752,6.3-7.9,6.393-10.372.028-.735.067-1.3-.613-1.77M66.248,23.2c-1.027-1.044-9.982,5.19-10.539,6.754-.162.453.266,1.087.185,1.609.283.284,6.244-3.412,6.961-3.991.616-.5,4.087-3.668,3.393-4.372M39.96,46.7c6.138-2.3,18.006-7.229,14.009-15.809-2.056-4.415-6.526-4.125-10.43-2.513-.153,1.027,2.506,4.745.993,5.169-1.557.436-1.948-3.354-2.591-4.379A126.266,126.266,0,0,0,21.8,39.526l1.415,3.988c-2.394.989-1.71-3.169-3.6-2.632-1.169.332-6.914,4.957-7.5,6.072a2.633,2.633,0,0,0,.713,3.565c1.4,1.107,7.685.4,9.788.164,1.914-.211,15-2.694,15.575-3.561-2.237-6.108.546-6.4,1.767-.418M68.206,30.8c-.328-.491-3.392-.491-4.145-.428-2.529.214-7.629,1.832-7.771,4.771,2.166-.062,10.821-.961,11.754-2.784a2.133,2.133,0,0,0,.162-1.559" transform="translate(0 0)" fill="#12263f"/>
    </g>
  </g>
</svg>
