<svg id="Grupo_1202351" data-name="Grupo 1202351" xmlns="http://www.w3.org/2000/svg" xmlns:xlink="http://www.w3.org/1999/xlink" width="90" height="90" viewBox="0 0 90 90">
  <defs>
    <clipPath id="clip-path">
      <rect id="Rect치ngulo_409695" data-name="Rect치ngulo 409695" width="60.178" height="73.607" fill="none"/>
    </clipPath>
  </defs>
  <rect id="Rect치ngulo_409956" data-name="Rect치ngulo 409956" width="90" height="90" fill="none"/>
  <g id="Grupo_1202090" data-name="Grupo 1202090" transform="translate(15 8)">
    <g id="Grupo_1202089" data-name="Grupo 1202089" clip-path="url(#clip-path)">
      <path id="Trazado_1036194" data-name="Trazado 1036194" d="M14.576,5.38C12.241,5.142,7.982,4.565,8.6,8.195c.3,1.774,3.62,4.762,5.063,5.874,4.352,3.356,9.921,5.441,15.231,6.723-.553,3.3-.582,6.853,1.083,9.853-11.009-1.7-20.242,6.406-24.368,15.92A24.452,24.452,0,0,0,3.489,59.351C-3.2,62.364.6,71.9,7.545,67.941A20.979,20.979,0,0,0,18.4,73.116a29.259,29.259,0,0,0,11.459-.151c3.481-.86,5.08-3.3,1.608-5.642l-.1-.318A10.922,10.922,0,0,0,35.452,63l.232.072a12.02,12.02,0,0,0,5.694,4.013c7.408,2.3,13.4-1.21,6.654-8.011a19.685,19.685,0,0,0,2.438-19.95c2.566-.284,5.812-.5,8.166-1.617,1.927-.914,1.591-2.818,1.365-4.6-.715-5.659-4.26-13.22-8.605-16.968-4.111-3.545-8.926-4.387-14.225-3.487A30.787,30.787,0,0,0,20.856,1.181c-1.936-.574-7.5-2.139-8.9-.347-1.3,1.661,1.659,3.472,2.622,4.546m.77-2.77a28.829,28.829,0,0,1,18.411,9.548c.144.166.939,1.107.844,1.232l-1.541.543a44.435,44.435,0,0,0-5.6-3.8c-3.458-1.969-6.531-2.941-9.793-5.458a16.748,16.748,0,0,1-2.326-2.063M11.032,7.694c8.105.154,15.6,4.263,21.8,9.188,8.608-4.614,16.408-2.117,21.108,6.213a28.289,28.289,0,0,1,3.7,12.02c-.236.377-3.589,1.088-4.214,1.187-6.885,1.09-19.361-.419-21.865-8.241-.981-3.063-.455-6.115.419-9.121C24.3,17.28,15.664,14.429,11.032,7.694M30.75,70.082A26.6,26.6,0,0,1,16,69.97c-18.27-5.528-8.865-30.131,4.436-35.7,3.271-1.369,8.178-1.877,11.552-.624A28.714,28.714,0,0,1,34.863,35.7c3.882,2.365,8.479,3.124,12.962,3.445a18.439,18.439,0,0,1,.466,14.663,25.927,25.927,0,0,1-3.685,5.57c.663.818,1.67,1.4,2.4,2.23.461.525,1.842,2.4,1.435,3.058-4.209,1.73-9.725-.552-11.767-4.592C37.906,55,35.105,48.586,30.236,46.484c-.194-.083-.132-.2-.328.031-.408.479-.532,1.548-.99,2.081a9.885,9.885,0,0,1,5.274,6.568c1.864,8.427-7.288,13.921-14.282,9.546L18.43,66.618A11.979,11.979,0,0,0,26.52,68.7a10.064,10.064,0,0,1,1.958-.286c.334.063,2.529,1.323,2.273,1.665M3.228,62.434c.1-.109.754-.6.87-.515a13.935,13.935,0,0,0,.746,2.106c.334.71.825,1.321,1.1,2.052-.964.214-1.606.541-2.571.031-1.238-.653-1-2.758-.148-3.674" transform="translate(0 0)" fill="#1a1818"/>
      <path id="Trazado_1036195" data-name="Trazado 1036195" d="M34.978,60.241A1.922,1.922,0,1,0,36.9,58.318a1.922,1.922,0,0,0-1.922,1.923m1.406.009a.526.526,0,1,1,.526.526.526.526,0,0,1-.526-.526" transform="translate(8.708 -37.23)" fill="#1a1818"/>
      <path id="Trazado_1036196" data-name="Trazado 1036196" d="M38.81,62.732a.526.526,0,1,0,.526-.526.526.526,0,0,0-.526.526" transform="translate(6.282 -39.712)" fill="#fff"/>
    </g>
  </g>
</svg>
