<svg xmlns="http://www.w3.org/2000/svg" xmlns:xlink="http://www.w3.org/1999/xlink" width="293" height="232" viewBox="0 0 293 232">
  <defs>
    <filter id="Rectángulo_410074" x="0" y="0" width="293" height="232" filterUnits="userSpaceOnUse">
      <feOffset dy="3" input="SourceAlpha"/>
      <feGaussianBlur stdDeviation="3" result="blur"/>
      <feFlood flood-opacity="0.161"/>
      <feComposite operator="in" in2="blur"/>
      <feComposite in="SourceGraphic"/>
    </filter>
  </defs>
  <g id="Grupo_1202632" data-name="Grupo 1202632" transform="translate(-191 -5476.366)">
    <g transform="matrix(1, 0, 0, 1, 191, 5476.37)" filter="url(#Rectángulo_410074)">
      <rect id="Rectángulo_410074-2" data-name="Rectángulo 410074" width="275" height="214" rx="10" transform="translate(9 6)" fill="#1944b6"/>
    </g>
    <g id="Grupo_1202530" data-name="Grupo 1202530" transform="translate(229.379 5505.78)">
      <g id="Grupo_1188468" data-name="Grupo 1188468" transform="translate(0 1.257)">
        <path id="Rectángulo_402603" data-name="Rectángulo 402603" d="M136,0h4.578a0,0,0,0,1,0,0V141.731a0,0,0,0,1,0,0H0a0,0,0,0,1,0,0V136A136,136,0,0,1,136,0Z" fill="#fdaa30"/>
      </g>
      <path id="Trazado_874774" data-name="Trazado 874774" d="M14.972,0c.1,0,.2,0,.3.009a5.036,5.036,0,0,1,3,1.271,4.38,4.38,0,0,1,1.54,3.272,20.815,20.815,0,0,1,.129,2.956V10.54h6.185a3.9,3.9,0,0,1,3.418,1.751,5.417,5.417,0,0,1,.868,2.977,5.111,5.111,0,0,1-.9,2.968,3.877,3.877,0,0,1-3.382,1.634H19.946v3.283a24.7,24.7,0,0,1-.128,3.185,3.981,3.981,0,0,1-1.672,3.273,5.041,5.041,0,0,1-5.981,0,4.007,4.007,0,0,1-1.674-3.43V19.869H4.81A4.689,4.689,0,0,1,1.034,18.38a4.269,4.269,0,0,1-1-3.333,5.478,5.478,0,0,1,1.325-2.964A4.4,4.4,0,0,1,4.81,10.54h5.68V4.733A4.362,4.362,0,0,1,12.165.925,4.755,4.755,0,0,1,14.972,0ZM26.378,14.344a.9.9,0,0,0-.247-.026H16.168V7.509A16.391,16.391,0,0,0,16.078,5.1l-.037-.183V4.733a.646.646,0,0,0-.223-.584,1.283,1.283,0,0,0-.781-.369l-.065,0a.98.98,0,0,0-.591.207,1.706,1.706,0,0,0-.113.748v9.585H4.81a.646.646,0,0,0-.584.223,1.723,1.723,0,0,0-.441.947.506.506,0,0,0,.134.451,1.751,1.751,0,0,0,.892.151h9.458V26.18c0,.289.06.332.092.355a1.271,1.271,0,0,0,1.589,0c.032-.023.092-.066.092-.355v-.156l.026-.154a20.313,20.313,0,0,0,.1-2.717V16.091h9.963a1.034,1.034,0,0,0,.293-.032,1.38,1.38,0,0,0,.215-.792A1.653,1.653,0,0,0,26.378,14.344Z" transform="translate(46.699 19.331) rotate(-43)" fill="#fff"/>
    </g>
    <g id="Grupo_1202630" data-name="Grupo 1202630" transform="translate(24.514 5120.872)">
      <path id="Trazado_1037073" data-name="Trazado 1037073" d="M435.568,423.427a15.264,15.264,0,0,1-1.661,5.8c-.717,1.238-2.17,1.205-3.176,1.978a19.451,19.451,0,0,1-5.051,2.9c-.72.266-.685.807-.77,1.318a39.34,39.34,0,0,0-.08,6.2c0,.628.1,1.365-.65,1.641-.812.3-1.223-.361-1.641-.889-.431-.545-.832-1.113-1.4-1.878a25.513,25.513,0,0,0,.476,7.1,8.732,8.732,0,0,1,.177.936c.052.65.386,1.462-.419,1.811-.827.361-1.342-.354-1.748-.919a16.357,16.357,0,0,1-3-12.982,6.156,6.156,0,0,1,.371-1.5c.887-1.858-.012-2.324-1.711-2.653a13.972,13.972,0,0,0-10.142,2.032c-7.45,4.4-13.251,10.484-18.272,17.418-5.636,7.791-10.082,16.3-14.987,24.536A156.982,156.982,0,0,1,359.2,494.909a34.071,34.071,0,0,1-6.3,6.334c-.6.433-.451.747-.189,1.26,2.077,4.07,4.294,8.083,4.538,12.82a71.593,71.593,0,0,1-.09,12.165c-1.161,9.786,1.48,18.586,6.506,26.838,1.3,2.127,2.7,4.194,3.938,6.356.894,1.559.451,2.3-1.285,2.5a55.238,55.238,0,0,1-9.54.172c-2.633-.154-3.173-.57-3.305-3.2a17.026,17.026,0,0,0-1.45-5.089,83.149,83.149,0,0,1-4.289-16.852c-.782-5.435-3.059-10.347-5.124-15.341a65.888,65.888,0,0,1-4.491-15.542c-.05-.339-.1-.844-.309-.951-.361-.187-.588.3-.827.533a67.806,67.806,0,0,0-11.545,15.423,17.831,17.831,0,0,0-2.122,7.161,19.115,19.115,0,0,1-2.625,7.495,25.613,25.613,0,0,0-2.264,18.845c.536,2.279.782,4.613,1.547,6.86.526,1.539-.167,2.276-1.788,2.212-3.181-.125-6.361-.259-9.537-.466-2.732-.179-3.674-1.407-3.108-4.112a4.46,4.46,0,0,0-.172-3.265c-.573-1.123-.167-2.438.184-3.622a67.277,67.277,0,0,1,2.214-6.924,44.209,44.209,0,0,0,3.133-22.086,69.7,69.7,0,0,1,1.1-19.368c.267-1.5-.286-1.4-1.34-1.278a138.886,138.886,0,0,1-42.9-1.288,122.854,122.854,0,0,1-12.977-3.126,1.119,1.119,0,0,0-1.484.453,33.42,33.42,0,0,0-4.892,8.581c-1.9,5.355-3.617,10.78-5.29,16.212-1.136,3.686-.381,7.427.052,11.136.339,2.884.777,5.756,1.126,8.641a26.25,26.25,0,0,0,3.437,10.827,19.134,19.134,0,0,1,1.577,3.594,1.952,1.952,0,0,0,.952,1.245,6.378,6.378,0,0,1,2.857,3.255c.56,1.3.05,2.2-1.235,2.409a42.327,42.327,0,0,1-9.883.229c-1.494-.11-2.471-2.182-2.184-4.374a1.742,1.742,0,0,0-.568-1.651,15.982,15.982,0,0,1-4.628-9.211c-.974-6.919-3.263-13.515-5.2-20.23-3.622,4.259-4.334,9.422-4.952,14.621a21.164,21.164,0,0,0,1.367,9.584,30.448,30.448,0,0,0,2.812,5.637c1.108,1.858.533,2.745-1.612,2.8-1.99.05-3.983.045-5.97,0-2.924-.065-3.826-1.071-3.562-4a2.791,2.791,0,0,0-.4-1.908c-2.409-3.674-2.025-7.676-1.549-11.771.907-7.784,1.617-15.592,2.411-23.388a18.33,18.33,0,0,1,1.851-5.644c1.928-4.277,3.9-8.536,5.846-12.8a1.785,1.785,0,0,0,.229-1.462c-2.247-6.446-2.942-13.181-3.554-19.916a127.583,127.583,0,0,0-4.541-25.57c-.209-.692-.488-1.133-1.255-1.148a30.958,30.958,0,0,1-5.893-.737,16.5,16.5,0,0,0-7.45-.077,8.889,8.889,0,0,1-3.913-.12c-1.893-.4-2.13-.907-1.106-2.6a15.948,15.948,0,0,1-5.138-.954c-.869-.369-2.222-.535-2.042-1.8.184-1.288,1.529-.765,2.478-1a17.524,17.524,0,0,1-2.112-1.771c-.795-.907-1.485-1.99-.971-3.26.473-1.173,1.671-1.258,2.735-1.348a69.381,69.381,0,0,0,14.648-2.625c3.863-1.181,7.661-2.752,11.846-2.376.565.05.807-.461,1.136-.777,9.148-8.728,19.767-14.521,32.449-16.088a103.634,103.634,0,0,1,28.2.73c9.831,1.475,19.567,3.661,29.515,4.239,12.768.74,25.538,1.051,38.211-1.24,5.6-1.011,10.05-3.993,13.789-8.189a93.551,93.551,0,0,0,6.8-8.312,60.921,60.921,0,0,1,19.958-18.18c.957-.543.971-.971.406-1.8-3.562-5.191-8.792-7.761-14.628-9.4a2.506,2.506,0,0,1-.463-.1c-.658-.336-1.935.09-1.92-.971.017-1.113,1.275-1,2.072-1.161a32.96,32.96,0,0,1,8.962-.351c-.64-.256-1.28-.521-1.923-.772-.515-.2-1.168-.331-1.041-1.076s.814-.69,1.347-.69a23.159,23.159,0,0,1,9.163,1.905,30.524,30.524,0,0,1,12.768,9.714,1.312,1.312,0,0,0,.952.62,15.837,15.837,0,0,1,8.479,4.065c5.054,4.272,8.83,9.577,12.21,15.2,2.909,4.84,5.525,9.861,8.86,14.439C436.017,420.144,435.792,421.763,435.568,423.427Z" transform="translate(0 0)" fill="#fefefe"/>
      <path id="Trazado_1037074" data-name="Trazado 1037074" d="M435.568,423.427a15.264,15.264,0,0,1-1.661,5.8c-.717,1.238-2.17,1.205-3.176,1.978a19.451,19.451,0,0,1-5.051,2.9c-.72.266-.685.807-.77,1.318a39.34,39.34,0,0,0-.08,6.2c0,.628.1,1.365-.65,1.641-.812.3-1.223-.361-1.641-.889-.431-.545-.832-1.113-1.4-1.878a25.513,25.513,0,0,0,.476,7.1,8.732,8.732,0,0,1,.177.936c.052.65.386,1.462-.419,1.811-.827.361-1.342-.354-1.748-.919a16.357,16.357,0,0,1-3-12.982,6.156,6.156,0,0,1,.371-1.5c.887-1.858-.012-2.324-1.711-2.653a13.972,13.972,0,0,0-10.142,2.032c-7.45,4.4-13.251,10.484-18.272,17.418-5.636,7.791-10.082,16.3-14.987,24.536A156.982,156.982,0,0,1,359.2,494.909a34.071,34.071,0,0,1-6.3,6.334c-.6.433-.451.747-.189,1.26,2.077,4.07,4.294,8.083,4.538,12.82a71.593,71.593,0,0,1-.09,12.165c-1.161,9.786,1.48,18.586,6.506,26.838,1.3,2.127,2.7,4.194,3.938,6.356.894,1.559.451,2.3-1.285,2.5a55.238,55.238,0,0,1-9.54.172c-2.633-.154-3.173-.57-3.305-3.2a17.026,17.026,0,0,0-1.45-5.089,83.149,83.149,0,0,1-4.289-16.852c-.782-5.435-3.059-10.347-5.124-15.341a65.888,65.888,0,0,1-4.491-15.542c-.05-.339-.1-.844-.309-.951-.361-.187-.588.3-.827.533a67.806,67.806,0,0,0-11.545,15.423,17.831,17.831,0,0,0-2.122,7.161,19.115,19.115,0,0,1-2.625,7.495,25.613,25.613,0,0,0-2.264,18.845c.536,2.279.782,4.613,1.547,6.86.526,1.539-.167,2.276-1.788,2.212-3.181-.125-6.361-.259-9.537-.466-2.732-.179-3.674-1.407-3.108-4.112a4.46,4.46,0,0,0-.172-3.265c-.573-1.123-.167-2.438.184-3.622a67.277,67.277,0,0,1,2.214-6.924,44.209,44.209,0,0,0,3.133-22.086,69.7,69.7,0,0,1,1.1-19.368c.267-1.5-.286-1.4-1.34-1.278a138.886,138.886,0,0,1-42.9-1.288,122.854,122.854,0,0,1-12.977-3.126,1.119,1.119,0,0,0-1.484.453,33.42,33.42,0,0,0-4.892,8.581c-1.9,5.355-3.617,10.78-5.29,16.212-1.136,3.686-.381,7.427.052,11.136.339,2.884.777,5.756,1.126,8.641a26.25,26.25,0,0,0,3.437,10.827,19.134,19.134,0,0,1,1.577,3.594,1.952,1.952,0,0,0,.952,1.245,6.378,6.378,0,0,1,2.857,3.255c.56,1.3.05,2.2-1.235,2.409a42.327,42.327,0,0,1-9.883.229c-1.494-.11-2.471-2.182-2.184-4.374a1.742,1.742,0,0,0-.568-1.651,15.982,15.982,0,0,1-4.628-9.211c-.974-6.919-3.263-13.515-5.2-20.23-3.622,4.259-4.334,9.422-4.952,14.621a21.164,21.164,0,0,0,1.367,9.584,30.448,30.448,0,0,0,2.812,5.637c1.108,1.858.533,2.745-1.612,2.8-1.99.05-3.983.045-5.97,0-2.924-.065-3.826-1.071-3.562-4a2.791,2.791,0,0,0-.4-1.908c-2.409-3.674-2.025-7.676-1.549-11.771.907-7.784,1.617-15.592,2.411-23.388a18.33,18.33,0,0,1,1.851-5.644c1.928-4.277,3.9-8.536,5.846-12.8a1.785,1.785,0,0,0,.229-1.462c-2.247-6.446-2.942-13.181-3.554-19.916a127.583,127.583,0,0,0-4.541-25.57c-.209-.692-.488-1.133-1.255-1.148a30.958,30.958,0,0,1-5.893-.737,16.5,16.5,0,0,0-7.45-.077,8.889,8.889,0,0,1-3.913-.12c-1.893-.4-2.13-.907-1.106-2.6a15.948,15.948,0,0,1-5.138-.954c-.869-.369-2.222-.535-2.042-1.8.184-1.288,1.529-.765,2.478-1a17.524,17.524,0,0,1-2.112-1.771c-.795-.907-1.485-1.99-.971-3.26.473-1.173,1.671-1.258,2.735-1.348a69.381,69.381,0,0,0,14.648-2.625c3.863-1.181,7.661-2.752,11.846-2.376.565.05.807-.461,1.136-.777,9.148-8.728,19.767-14.521,32.449-16.088a103.634,103.634,0,0,1,28.2.73c9.831,1.475,19.567,3.661,29.515,4.239,12.768.74,25.538,1.051,38.211-1.24,5.6-1.011,10.05-3.993,13.789-8.189a93.551,93.551,0,0,0,6.8-8.312,60.921,60.921,0,0,1,19.958-18.18c.957-.543.971-.971.406-1.8-3.562-5.191-8.792-7.761-14.628-9.4a2.506,2.506,0,0,1-.463-.1c-.658-.336-1.935.09-1.92-.971.017-1.113,1.275-1,2.072-1.161a32.96,32.96,0,0,1,8.962-.351c-.64-.256-1.28-.521-1.923-.772-.515-.2-1.168-.331-1.041-1.076s.814-.69,1.347-.69a23.159,23.159,0,0,1,9.163,1.905,30.524,30.524,0,0,1,12.768,9.714,1.312,1.312,0,0,0,.952.62,15.837,15.837,0,0,1,8.479,4.065c5.054,4.272,8.83,9.577,12.21,15.2,2.909,4.84,5.525,9.861,8.86,14.439C436.017,420.144,435.792,421.763,435.568,423.427Z" transform="translate(0 0)" fill="#110b07"/>
      <path id="Trazado_1037075" data-name="Trazado 1037075" d="M570.6,661.139c1.555-2.412,3.353-4.689,4.154-7.542-3.99,6.695-10.316,11.4-14.842,17.634-.229.139-.363.408-.648.472a4.059,4.059,0,0,1-.475.112c-.15.071-.3.136-.454.2-3.612,1.484-6.4,4.1-9.19,6.7a10.973,10.973,0,0,1-1.489,1.368c-.393.25-.847.564-1.2-.087a5.909,5.909,0,0,1-.037-2.485,68.233,68.233,0,0,0,.1-17.254,9.959,9.959,0,0,0-1.415-4.268.511.511,0,0,1-.114-.208c-.174-2.043-1.838-1.926-3.167-2.034-4.559-.369-9.131-.594-13.661-1.256-9.534-1.393-18.838-3.623-27.6-7.752a51.773,51.773,0,0,1-5.021-2.756c-.367-.225-.788-.41-.91-.892.511-1.825,1.357-3.564,1.377-5.531a52.215,52.215,0,0,1-3.169,6.625,61.375,61.375,0,0,1-3.992,6.222c-1.523,1.988-2.994,4.014-4.488,6.024a12.21,12.21,0,0,0-2.538,2.941c-1.251,1.541-2.465,3.109-3.576,4.759a34.321,34.321,0,0,0-4.257,10.184,108.405,108.405,0,0,0-2.811,12.3,30.969,30.969,0,0,0-.229,6.536,1.1,1.1,0,0,1-.04.367,28.152,28.152,0,0,0-2.544,4.357c-.207.414-.323,1.031-1.042.891a1.186,1.186,0,0,1-.548-.88A108.838,108.838,0,0,1,465,681.641a1.788,1.788,0,0,1,.237-.559,6.458,6.458,0,0,0,1.018-2.641c.616-3.91,1.246-7.819.73-11.8-.275-2.125-1.013-3.908-3.134-4.812a2.852,2.852,0,0,1-.91-2.242c-.989-8.553-1.909-17.113-3.158-25.634-.23-1.571-.563-3.124-.814-4.691a3.147,3.147,0,0,1-.05-1.414.7.7,0,0,1,.68-.375,5.748,5.748,0,0,0,1.339.111c6.116-.242,12.228-.5,18.354-.532a40.427,40.427,0,0,1,22.845,6.858c4.1,2.677,7.949,5.711,12.069,8.356,4.09,2.625,8.377,4.956,13.306,5.212,7.144.371,13.471-1.433,17.748-7.841a74.562,74.562,0,0,0,6.042-11.765c1.1-2.515,2.229-5.016,3.421-7.49a25.68,25.68,0,0,1,7.814-9.489,110.884,110.884,0,0,1,11.98-8.045,44.338,44.338,0,0,0,8.166-5.782,13.776,13.776,0,0,0,4.566-7.909c-.093-1.988,1.251-2.989,2.656-4.023,4.369-3.213,7.385-7.631,10.5-11.958,2.462-3.422,4.984-6.8,7.688-10.034a8.8,8.8,0,0,1,.93-.923,1.673,1.673,0,0,1,.288-.181,10.725,10.725,0,0,0,5.967-4.437,3.08,3.08,0,0,1,.221-.276c.041-.045.084-.087.125-.131a1.193,1.193,0,0,1,.3-.213.376.376,0,0,1,.355.06,1.044,1.044,0,0,1,.168,1.006,42.3,42.3,0,0,0-.99,11.478c.361,6.113,1.92,11.84,5.8,16.746a11.643,11.643,0,0,0,4.128,3.538,8.515,8.515,0,0,0,1.1.451c2.274.7,3.716.082,4.794-2.051,1.728-2.362,1.924-5.139,2.206-7.912a61.252,61.252,0,0,0-.467-13.755c.038-.344-.012-.692.039-1.035a.606.606,0,0,1,.252-.323,4.122,4.122,0,0,1,3.381.2c.4.442.116.887,0,1.328a1.751,1.751,0,0,0,1.06,2.407,7.858,7.858,0,0,0,4.62.508c.7.109,1.054.647,1.424,1.152a8.572,8.572,0,0,0,2.233,2.245c1.233.792,1.744.662,2.387-.621a.759.759,0,0,1,1.455.017c3.068,2.494,5.886,5.2,7.682,8.813,1.335,2.683,2.852,3.271,5.717,2.294l.046-.02c.122-.1.3-.083.405-.217.167-.04.483-.406.409.135a7.461,7.461,0,0,1-1.083,3c-.457.723-1.094.635-1.787.431a26.144,26.144,0,0,1-10.518-6.339c-.694-.651-1.347-1.112-1.526.37a37.362,37.362,0,0,0,4.755,5c.2.191.443.341.628.549.21.235.489.493.341.828-.181.411-.6.328-.945.27a20.85,20.85,0,0,1-2.855-.85,48.623,48.623,0,0,0-6.648-1.875c-4.045-.686-7.341.739-10.251,3.371a28.634,28.634,0,0,0-4.047,4.528,43.33,43.33,0,0,1-3.4,3.985l-.007.007a.294.294,0,0,0-.219.259l-4.571,4.5c-1.032.32-1.477,1.287-2.128,2-1.9,2.084-3.777,4.187-5.675,6.273a69.514,69.514,0,0,0-9.307,13.825A213.857,213.857,0,0,1,590.708,646.2c-3.286,4.565-6.9,8.855-11.746,11.9a30.726,30.726,0,0,1-6.93,3.161C571.557,661.416,571.036,661.647,570.6,661.139Z" transform="translate(-230.276 -157.938)" fill="#ffedd2"/>
      <path id="Trazado_1037076" data-name="Trazado 1037076" d="M376.524,770.919a12.253,12.253,0,0,1-3.577,7.248,40.68,40.68,0,0,1-9.579,7.054,123.433,123.433,0,0,0-11.866,8c-4.979,3.656-7.54,8.913-9.912,14.349-1.939,4.445-3.7,8.981-6.36,13.079a20.149,20.149,0,0,1-24.338,7.893,50.85,50.85,0,0,1-11.234-6.232c-3.25-2.294-6.5-4.6-9.822-6.777a39.634,39.634,0,0,0-22.294-6.26c-5.895,0-11.765.472-17.652.527-.4-.172-.848.031-1.249-.151l-.612.008a.416.416,0,0,1-.646-.2,39.911,39.911,0,0,0-3.194-10.711,6.871,6.871,0,0,1-.71-3.1,3.437,3.437,0,0,0-1.523-2.785c-2.821-2.5-6.261-2.706-9.729-2.893a30.229,30.229,0,0,1-3.215-.16c-.871-.14-1.747-.144-2-1.3-.111-.495-.71-.435-1.138-.447-1.273-.038-2.547,0-3.82-.022-.807-.015-1.488-.086-1.441-1.23.031-.754-.743-.853-1.316-.96a27.3,27.3,0,0,1-5.374-1.576c-.548-.225-1.269-.346-1.315-1.172a72.358,72.358,0,0,0,15.749-3.011c3.514-1.14,7.011-2.384,10.808-1.98.5.054.789-.288,1.115-.581,1.3-1.167,2.607-2.324,3.912-3.484.075-.182.323-.116.408-.284h0c4.068-2.83,8.678-3.806,13.53-4,6.1-.242,12.041.923,17.994,1.956,5.845,1.014,11.748,1.547,17.621,2.324,10.056,1.331,20.041,3.133,30.1,4.447,3.427.448,6.877.678,10.333.884a74.42,74.42,0,0,0,23.041-2.32A65.4,65.4,0,0,0,374.9,769.7c.493-.3.966-.754,1.634-.452A4.286,4.286,0,0,1,376.524,770.919Z" transform="translate(-19.19 -339.83)" fill="#aa6c40"/>
      <path id="Trazado_1037077" data-name="Trazado 1037077" d="M568.526,717.946a67.813,67.813,0,0,1-26.036,9.724,80.922,80.922,0,0,1-20.021.631c-10.978-.952-21.766-3.167-32.673-4.558-10.715-1.366-21.4-2.918-32.083-4.5-7-1.035-13.964-.525-20.376,3.036a3.119,3.119,0,0,1-.675.2,47.023,47.023,0,0,1,9.044-6.359,51.542,51.542,0,0,1,22.226-6.532c11.709-.9,23.219.636,34.706,2.723a162.161,162.161,0,0,0,24.35,2.854c7.318.209,14.633.4,21.937-.117,6.292-.448,12.637-.792,18.445-3.713a1.116,1.116,0,0,1,.823.781C568.785,714.027,569.424,715.945,568.526,717.946Z" transform="translate(-211.253 -288.55)" fill="#7d5132"/>
      <path id="Trazado_1037078" data-name="Trazado 1037078" d="M654.251,1146.229a84.568,84.568,0,0,0,12.018,5.76,105.773,105.773,0,0,0,23.731,5.46c3.943.422,7.9.759,11.861.945,2.3.108,3.779,2.516,4.394,5.379a53.355,53.355,0,0,1,.464,16.366c-.17,1.777-.27,3.56-.4,5.34.048.353-.206.534-.419.738a5.652,5.652,0,0,1-2.738,1.246c-.415.083-.88.186-1.06-.4-.944-9.287,1.342-18.334,2.125-27.517a12.708,12.708,0,0,0-1.655,4.462c-.129.739-.264,1.331-1.318,1.456a140.962,140.962,0,0,1-55-3.911c-1.474-.412-1.466-.748-.588-1.886A66.144,66.144,0,0,0,654.251,1146.229Z" transform="translate(-389.901 -663.07)" fill="#b6a794"/>
      <path id="Trazado_1037079" data-name="Trazado 1037079" d="M415.446,1024.336l.567.22c1.436,6.99,2.2,14.077,3.036,21.152.461,3.891.936,7.781,1.385,11.674.048.419.115.776.524.977a.651.651,0,0,1-.428.372c-1.576.536-1.948,1.036-2.022,2.664a9.169,9.169,0,0,0,.47,3.52,12.464,12.464,0,0,1,.559,5.979,10.943,10.943,0,0,0,.959,5.691,2.842,2.842,0,0,0,1.511,1.437.728.728,0,0,1,.223.309c.413,4.855,1.05,9.682,1.863,14.486a2.572,2.572,0,0,0,.372.7c.356.352-.006.655-.066.979a20.054,20.054,0,0,1-1.553,3.143c-.226.37-.4,1.025-1.113.645a30.708,30.708,0,0,0-.907-3.456c-2.974-7.7-3.585-15.723-3.706-23.876a41.8,41.8,0,0,0-2.814-14.65c-2.236-5.767-2.74-11.988-3.327-18.121-.561-5.857-1.177-11.7-2.263-17.489-.072-.159-.05-.341-.127-.5q-.016-.109-.022-.22c.454-.336.759,0,1.016.277a11.443,11.443,0,0,0,5.442,3.69A.579.579,0,0,1,415.446,1024.336Z" transform="translate(-187.173 -554.725)" fill="#b6a794"/>
      <path id="Trazado_1037080" data-name="Trazado 1037080" d="M1633.659,490.73a8.387,8.387,0,0,0-3.483-.244c-.588-.295-.6-.9-.724-1.419a21.609,21.609,0,0,0-4.777-8.912,19.98,19.98,0,0,0-2.331-2.011,1.388,1.388,0,0,1-.278-.214.9.9,0,0,1-.231-.466c.1-.826.845-.919,1.388-1.258a8.8,8.8,0,0,0,1.142-.565l.007,0c.142-.117.357-.071.486-.218.544-.232,1.086-.47,1.633-.694,2.579-1.054,2.6-1.092,1.624-3.686-.138-.367-.28-.732-.42-1.1a1.429,1.429,0,0,1,1.322-.349,20.867,20.867,0,0,1,13.566,6.434c.42.421.641,1.007,1.145,1.359a2.2,2.2,0,0,1,.584,1.05,29.965,29.965,0,0,1,1.276,8.319,2.156,2.156,0,0,1-.38,1.8l-.291-.006-.177,0a1.379,1.379,0,0,1-.323-.132,8.289,8.289,0,0,0-5.018-1.195,5.026,5.026,0,0,0-3.469,1.641,17.748,17.748,0,0,1-1.945,1.926A.358.358,0,0,1,1633.659,490.73Z" transform="translate(-1227.198 -83.032)" fill="#aa6c40"/>
      <path id="Trazado_1037081" data-name="Trazado 1037081" d="M380.736,1332.313c.587-6.017,1.159-12.035,1.778-18.048a9.458,9.458,0,0,1,.635-2.777c2.2-5.064,4.475-10.1,6.819-15.356a18.874,18.874,0,0,1,1.3,5.3c.869,5.8.784,11.662,1,17.5a3.673,3.673,0,0,1-.892,2.291c-3.079,4.222-4.346,9.059-4.888,14.151-.368.4-.808.274-1.215.124a37.933,37.933,0,0,1-3.735-1.554A1.269,1.269,0,0,1,380.736,1332.313Z" transform="translate(-163.253 -791.568)" fill="#b6a794"/>
      <path id="Trazado_1037082" data-name="Trazado 1037082" d="M236.728,893.162c-2.461-.274-4.166-1.816-5.8-3.469-.33-.333-.543-.8-1.074-.888-.764-2.957-1.51-5.92-2.306-8.868-.187-.693-.029-.919.681-.968a7.15,7.15,0,0,0,3.561-1.126c-8.166.745-15.806-2.7-23.741-.749.333-.892.959-.823,1.423-1.065.421-.22.959-.389.861-.987-.1-.612-.629-.784-1.178-.793a26.647,26.647,0,0,1-5.685-.476c-.374-.087-.739-.211-1.513-.436.7-.044.969-.053,1.238-.079.579-.056,1.158-.193,1.276-.854.113-.627-.313-1.027-.81-1.339-.906-.569-1.85-1.086-2.7-1.727a1.77,1.77,0,0,1-.789-1.97c.248-.647,1.065-.551,1.7-.548,2.1,1.386,4.527,1.837,6.922,2.375.948.213,1.988.316,1.484,1.785-.2.591.374.358.6.362,1.511.026,3.022.008,4.533.017.8,0,1.563.029,1.416,1.2-.088.709.524.419.846.461,3.254.428,6.575.158,9.8.957,2.007.5,3.374,2.015,5.013,3.094a1.523,1.523,0,0,1,.581,1.137c-.173,3.826,2.428,6.829,3.04,10.419.219,1.284.606,2.541.949,3.8C237.154,892.808,237.132,893.05,236.728,893.162Z" transform="translate(-8.455 -423.552)" fill="#7d5132"/>
      <path id="Trazado_1037083" data-name="Trazado 1037083" d="M1031.111,1368.189l.434-.421a38.955,38.955,0,0,0,4.344-3.868,24.066,24.066,0,0,1,7.409-4.871,1.645,1.645,0,0,1,.273-.127l.39-.019c.364.591-.224.864-.459,1.2a41.27,41.27,0,0,0-5.42,9.372,19.5,19.5,0,0,0-1.208,4.221c-.448,3.421-1.951,6.444-3.432,9.484-2.541,5.216-2.754,10.765-2.27,16.4.129,1.5.558,2.988-.017,4.48a15.934,15.934,0,0,1-5.078.187c-1.259-.473-1.5-1.567-1.583-2.7a14.634,14.634,0,0,1,.976-5.731,106.058,106.058,0,0,0,4.245-15.285,93.811,93.811,0,0,0,1.181-10.905A6.168,6.168,0,0,1,1031.111,1368.189Z" transform="translate(-715.128 -845.36)" fill="#aa6c40"/>
      <path id="Trazado_1037084" data-name="Trazado 1037084" d="M1236.755,927.3a23.61,23.61,0,0,0,9.962-4.587c4.631-3.417,8.031-7.967,11.316-12.608,5.978-8.443,10.9-17.529,16.1-26.446a52.052,52.052,0,0,1,6.981-9.168c2-2.151,3.985-4.318,6-6.451.24-.253.439-.889,1.024-.422v0a.572.572,0,0,0-.241.256l.012-.012a.46.46,0,0,0-.241.263l.014-.015a.335.335,0,0,0-.238.267l.015-.019a.35.35,0,0,0-.27.318.1.1,0,0,1-.1.124.289.289,0,0,1-.18.2l-.029.035a.554.554,0,0,1-.2.224c-7.536,8.977-13,19.286-18.883,29.33a154.3,154.3,0,0,1-14.8,21.483,22.758,22.758,0,0,1-17.026,8.351A1.954,1.954,0,0,1,1236.755,927.3Z" transform="translate(-896.429 -424.099)" fill="#fffcf6"/>
      <path id="Trazado_1037085" data-name="Trazado 1037085" d="M1353.2,616.313c.05-2.281.039-4.551-1.158-6.613,5.454-2.98,9.181-7.759,12.97-12.468,1.665-2.069,3.283-4.176,4.923-6.266a15.447,15.447,0,0,1,4.107-.132,1.1,1.1,0,0,1,.93.429c-4.793,5.376-8.651,11.469-13.1,17.106a31.539,31.539,0,0,1-6.357,6.235c-1.232.879-2.3,1.736-2.25,3.4Q1353.234,617.16,1353.2,616.313Z" transform="translate(-995.931 -186.917)" fill="#b6a794"/>
      <path id="Trazado_1037086" data-name="Trazado 1037086" d="M1634.91,740.382a42.757,42.757,0,0,1,4.7-6.222c2.464-2.992,5.352-5.487,9.384-6.111a16.163,16.163,0,0,1,7.381.959c2.149.677,4.283,1.4,6.929,2.271-2.339-2.415-4.773-4.022-5.969-6.7a27.921,27.921,0,0,0,11.15,7.123c-2.971,2.017-5.663,3.851-9.368,2.311a28.009,28.009,0,0,0-6.827-1.643c-3.713-.528-6.838.922-9.9,2.718A83.18,83.18,0,0,0,1634.91,740.382Z" transform="translate(-1238.405 -301.625)" fill="#b6a794"/>
      <path id="Trazado_1037087" data-name="Trazado 1037087" d="M1244.491,1318.177c-1.307-8.562-6.135-15.926-8.231-24.221a54.618,54.618,0,0,1-1.555-7.1c-.089-.775.106-1.049.89-1.127a27.991,27.991,0,0,0,10.276-2.838c1.237-.641,1.014.856,1.484,1.349-.258.265-.584.449-.849.71a33.1,33.1,0,0,1-5.736,2.9c-1.768.79-1.963,1.172-1.59,3.032a25.147,25.147,0,0,0,.853,2.979c2.6,7.81,5.213,15.615,7.085,23.642.141.606.444,1.214.11,1.854C1245.962,1319.782,1245.274,1318.871,1244.491,1318.177Z" transform="translate(-895.328 -780.086)" fill="#b6a794"/>
      <path id="Trazado_1037088" data-name="Trazado 1037088" d="M1014.162,1424.05c.587,2.128.02,4.249-.154,6.346-.643,7.76-2.948,15.132-5.391,22.481-.782,2.352-1.552,4.945.509,7.208a7.427,7.427,0,0,1-2.87-.706,2.341,2.341,0,0,1-1.511-2.772,49.864,49.864,0,0,1,3.22-10.45c2.665-6.628,3.139-13.466,2.407-20.47a3.857,3.857,0,0,1,.007-.474C1011.867,1425.563,1012.994,1424.739,1014.162,1424.05Z" transform="translate(-698.18 -901.221)" fill="#7d5132"/>
      <path id="Trazado_1037089" data-name="Trazado 1037089" d="M375.461,1549.522a1.155,1.155,0,0,0,.825,1.23,24.179,24.179,0,0,0,4.929,1.831,20.966,20.966,0,0,0,1.672,12.1c.306.663.116.957-.574,1.03-.473.051-.947.108-1.416.191-4.029.714-5.961-.7-6.312-4.9C374.263,1557.145,375.088,1553.343,375.461,1549.522Z" transform="translate(-157.978 -1008.777)" fill="#7d5132"/>
      <path id="Trazado_1037090" data-name="Trazado 1037090" d="M1778.151,540.843a44.665,44.665,0,0,0-1.228-10.275c.914.1,1.261.892,1.721,1.488a82.311,82.311,0,0,1,5.246,7.8c3.012,4.991,5.751,10.157,9.4,14.742a6.341,6.341,0,0,1,1.093,2.973c-1.8.4-3.066-.645-4.183-1.729a20.539,20.539,0,0,1-3.548-5.2A25.331,25.331,0,0,0,1778.151,540.843Z" transform="translate(-1360.14 -135.318)" fill="#ffedd2"/>
      <path id="Trazado_1037091" data-name="Trazado 1037091" d="M1482.391,506.616c-1.681-.072-3.387.29-5.037-.3a48.294,48.294,0,0,1,10.75-10.2c1.834-1.322,3.773-2.5,5.671-3.733.337-.219.876-.7,1.039-.005.8,3.425,3.111,3.245,5.7,2.5-.5,1.005-1.915.874-2.373,1.926.086.079.159.17.249.246l-.014-.015c.246.338,1.016.371.63,1.079a.8.8,0,0,1-.584.029c-2.577-.985-4.922-.368-7.157,1.024-1.523.425-2.542,1.58-3.64,2.59-1.255,1.154-2.431,2.394-3.627,3.61a6.392,6.392,0,0,1-1.608,1.21Z" transform="translate(-1103.347 -102.271)" fill="#7d5132"/>
      <path id="Trazado_1037092" data-name="Trazado 1037092" d="M1706.534,593.784a7.409,7.409,0,0,1,10.25-2.936,2.8,2.8,0,0,1,.53.618,1.592,1.592,0,0,1,.227.186l-.019-.011.459.693a45.584,45.584,0,0,1,.539,7.4c-.249.526-.655.48-1.092.287a5.149,5.149,0,0,1-.909-.548c-1.311-.942-2.622-1.88-4.384-1.494a2.248,2.248,0,0,1-.993-.621,11.58,11.58,0,0,0-3.993-2.9A.883.883,0,0,1,1706.534,593.784Z" transform="translate(-1299.802 -186.122)" fill="#7d5132"/>
      <path id="Trazado_1037093" data-name="Trazado 1037093" d="M1785.64,615c-.134-2.132-.277-4.263-.392-6.4a1.685,1.685,0,0,1,.175-1.261c3.125,2.47,5.2,5.751,7.079,9.181a36.48,36.48,0,0,0,3.049,4.971,1,1,0,0,1,.26.62c-.481,3.787.769,5.1,4.419,4.6-2.3,1.488-4.615.888-5.816-1.642-1.954-4.116-5.1-7.141-8.69-9.782A.229.229,0,0,1,1785.64,615Z" transform="translate(-1367.244 -201.131)" fill="#b6a794"/>
      <path id="Trazado_1037094" data-name="Trazado 1037094" d="M1331.931,1557.386c-1.614.525-3.221.021-4.831-.033-1.145-.432-1.461-1.513-1.886-2.478a60.34,60.34,0,0,1-3.493-11.367,12.84,12.84,0,0,1-.7-3.482c.347-.491.775-.25,1.15-.084a14.96,14.96,0,0,1,2.289,1.184,1.208,1.208,0,0,1,.254.263,3,3,0,0,1,.37.87c1.136,4.609,3.566,8.6,6.008,12.586.951,1.552.923,1.763-.729,2.469C1330.9,1557.089,1331.427,1556.813,1331.931,1557.386Z" transform="translate(-969.334 -1000.386)" fill="#aa6c40"/>
      <path id="Trazado_1037095" data-name="Trazado 1037095" d="M500.764,1545.319c1.37-.985,1.589-2.656,2.378-3.987.889.024.785.773.889,1.3q1.181,5.966,2.835,11.816c.414,1.452.935,2.869,1.43,4.3a2.854,2.854,0,0,0,2.532,2.178,6.72,6.72,0,0,1,1.5.367.98.98,0,0,1,.318.214.253.253,0,0,1-.006.346c-.511.064-1.02.167-1.533.187-4,.158-7.3-2.712-8.463-7.529C501.915,1551.469,501.385,1548.383,500.764,1545.319Z" transform="translate(-266.203 -1001.756)" fill="#7d5132"/>
      <path id="Trazado_1037096" data-name="Trazado 1037096" d="M1317.327,1292.944c.171-.312.4-.46.742-.249,4.134,6.395,4.332,13.534,3.935,20.786-.288,5.265-.8,10.535.389,15.764.133.292.217.637-.106.8-.532.268-.816-.2-1.132-.509h0a3.723,3.723,0,0,1-.754-1.724,45.749,45.749,0,0,1-.7-14.917,35.059,35.059,0,0,0-2.264-18.349A1.771,1.771,0,0,1,1317.327,1292.944Z" transform="translate(-966.042 -788.537)" fill="#fefbf5"/>
      <path id="Trazado_1037097" data-name="Trazado 1037097" d="M1306.02,1532.331c1.379,4.84,2.223,9.835,4.258,14.484a11.662,11.662,0,0,0,1.685,3c-3.413.032-3.788-.22-4.852-3.423a78.039,78.039,0,0,1-3.75-15.452l2.6,1.228.1.058Z" transform="translate(-954.197 -992.845)" fill="#7d5132"/>
      <path id="Trazado_1037098" data-name="Trazado 1037098" d="M540.2,1274.858a15.7,15.7,0,0,1,.06-6.581,86.273,86.273,0,0,1,4.955-18.807c1.539-3.805,4.229-6.859,6.811-9.97.43-.518.862-1.034,1.307-1.538.164-.186.374-.374.469.067l-.018.031q-.094.135-.2.261l0-.007a.515.515,0,0,0-.227.315.125.125,0,0,1-.1.156.35.35,0,0,1-.176.209l-.017.025q-.1.134-.207.259c-6.713,8.471-9.1,18.721-11.754,28.839a20.052,20.052,0,0,0-.155,4.5,3.865,3.865,0,0,1,.066,1.381C540.994,1274.5,540.838,1274.927,540.2,1274.858Z" transform="translate(-299.72 -741.529)" fill="#fefbf4"/>
      <path id="Trazado_1037099" data-name="Trazado 1037099" d="M1789.377,545.947c-.85-1.182-1.179-2.615-2.117-3.8-4.45-5.622-7.419-12.2-11.471-18.083a45.867,45.867,0,0,0-3.869-5.117l-.474-.754c-.48-.829-.48-.837,0-1.182a57.007,57.007,0,0,1,8.361,11.235c3.031,4.935,5.689,10.1,9.078,14.815A2.7,2.7,0,0,1,1789.377,545.947Z" transform="translate(-1355.137 -123.696)" fill="#fdfbf4"/>
      <path id="Trazado_1037100" data-name="Trazado 1037100" d="M1067.784,1402.649c-.143-.092-.55-.053-.408-.259.741-1.072.239-2.156.118-3.235-.783-6.991-.111-13.735,3.378-20a19.177,19.177,0,0,0,1.948-5.6,36.219,36.219,0,0,1,6.819-14.568c.352-.47.636-.99.952-1.488l.8-.231c-1.164,1.7-2.34,3.4-3.488,5.11a24.392,24.392,0,0,0-4.279,11.6,15.283,15.283,0,0,1-2.2,6,26.485,26.485,0,0,0-2.426,20.5C1069.314,1401.649,1069.309,1402.552,1067.784,1402.649Z" transform="translate(-751.758 -843.971)" fill="#ebded5"/>
      <path id="Trazado_1037101" data-name="Trazado 1037101" d="M1353.126,1675c-.521.586-1.2.269-1.8.274-2.7.022-5.406.026-8.108-.013-1.327-.019-2.59-2.353-1.913-3.494.32-.54.846-.239,1.293-.2a34.6,34.6,0,0,0,7.241-.021,3.448,3.448,0,0,1,1.344,1.631A3.465,3.465,0,0,0,1353.126,1675Z" transform="translate(-986.564 -1113.293)" fill="#5b4231"/>
      <path id="Trazado_1037102" data-name="Trazado 1037102" d="M540.117,1484.145c1.049-.477.548-1.477.756-2.239.55,4.32,1.181,8.632,1.629,12.962a32.577,32.577,0,0,0,4.36,13.212c.423.726,1.335,1.566.494,2.618a1.52,1.52,0,0,1-1.239-.071l.005.009a1.7,1.7,0,0,1-.536-.908,3.791,3.791,0,0,0-.37-1.006c-3.152-4.835-3.973-10.318-4.5-15.9-.207-2.216-.634-4.409-.9-6.621a2.3,2.3,0,0,1,.254-1.72Z" transform="translate(-299.642 -950.816)" fill="#ede1d8"/>
      <path id="Trazado_1037103" data-name="Trazado 1037103" d="M1785.032,810.61c-2.185-4.074-2.065-8.273-.723-12.558.211-.674.581-.481,1-.381l3.674.883a21.175,21.175,0,0,0-.244,4.465c-.011.5.13,1.044-.386,1.4-.775-.518-.814-2.156-2.089-1.752-1.2.381-.566,1.742-.842,2.64a2.262,2.262,0,0,1-.091.218c-.4,1.246.141,2.5-.052,3.753C1785.209,809.728,1785.455,810.231,1785.032,810.61Z" transform="translate(-1365.64 -364.193)" fill="#a96c40"/>
      <path id="Trazado_1037104" data-name="Trazado 1037104" d="M1018.544,1684.517c-.784.862-1.622.019-2.43.037a50.3,50.3,0,0,1-8.312-.464c-1.862-.268-1.133-1.732-1.04-2.739.122-1.312,1.013-.527,1.585-.37a17.333,17.333,0,0,0,8.136.088c.689.474.743,1.276.982,1.969A2.274,2.274,0,0,0,1018.544,1684.517Z" transform="translate(-699.763 -1121.142)" fill="#594030"/>
      <path id="Trazado_1037105" data-name="Trazado 1037105" d="M557.291,1693.82c-1.137.5-2.334.174-3.5.223-1.739.073-3.485.017-5.227,0a2.066,2.066,0,0,1-1.783-2.684c.193-.546.623-.393.988-.4,1.465-.025,2.931-.01,4.4-.042a4.482,4.482,0,0,0,2.245-.657,3.767,3.767,0,0,1,1.472,1.676A5.371,5.371,0,0,0,557.291,1693.82Z" transform="translate(-305.561 -1129.421)" fill="#5b4232"/>
      <path id="Trazado_1037106" data-name="Trazado 1037106" d="M394.769,1675.762c-1.03,0-2.06-.01-3.089,0-.8.011-1.177-.333-1.385-1.137-.32-1.234-.191-1.806,1.312-1.781a21.922,21.922,0,0,0,3.978-.542c1.258-.215,3.388,1.62,3.356,2.917-.015.623-.465.539-.844.543-1.109.011-2.218,0-3.327,0Z" transform="translate(-171.385 -1114.015)" fill="#4a3629"/>
      <path id="Trazado_1037107" data-name="Trazado 1037107" d="M1610.107,470.852c-2.5,1.037-3.9.221-4.345-2.484-.105-.634.367-.643.688-.749a25.654,25.654,0,0,0,4.171-1.953c1.215.734,1.556,2.015,1.97,3.23.143.42-.2.73-.557.947a17,17,0,0,1-1.693.806l.023-.027C1610.286,470.708,1610.138,470.716,1610.107,470.852Z" transform="translate(-1213.406 -79.684)" fill="#5e4433"/>
      <path id="Trazado_1037108" data-name="Trazado 1037108" d="M1595.9,438.573c-1.307.653-2.626,1.284-3.917,1.966-.859.454-1.254.16-1.91-.552-1.466-1.592-1.139-2.426.745-3.146a10.323,10.323,0,0,0,1.959-1.311C1594.186,436.171,1594.972,437.447,1595.9,438.573Z" transform="translate(-1199.189 -53.851)" fill="#5e4433"/>
      <path id="Trazado_1037109" data-name="Trazado 1037109" d="M1678.328,473.98q0,.591,0,1.182c-3.1-3.214-6.483-5.955-10.979-6.988a28.411,28.411,0,0,0-4.832-.6c-.3-1.014.6-.64.911-.672a13.871,13.871,0,0,1,9.809,2.467A26.971,26.971,0,0,1,1678.328,473.98Z" transform="translate(-1262.015 -80.666)" fill="#ece2d8"/>
      <path id="Trazado_1037110" data-name="Trazado 1037110" d="M1345.028,1549.55c.431-.021,1.106,1,1.238-.291a58.17,58.17,0,0,0,6.76,15.319c.467.732.271.974-.514.973h-1.724c1.943-.683,1.14-1.614.433-2.679A41.05,41.05,0,0,1,1345.028,1549.55Z" transform="translate(-989.915 -1008.552)" fill="#ece0d7"/>
      <path id="Trazado_1037111" data-name="Trazado 1037111" d="M1569.529,418.971c-.63.409-1.253.828-1.89,1.225-1.959,1.221-2.519,1.121-4.038-.567-.465-.517-.076-.651.248-.881.773-.55,1.54-1.107,2.309-1.661A5.814,5.814,0,0,1,1569.529,418.971Z" transform="translate(-1177.095 -38.041)" fill="#5e4433"/>
      <path id="Trazado_1037112" data-name="Trazado 1037112" d="M1540.233,406.985c-1.346.782-2.335,2.3-4.389,1.023-1.706-1.059-1.1-1.39.111-1.987A5.609,5.609,0,0,1,1540.233,406.985Z" transform="translate(-1152.582 -28.452)" fill="#5f4333"/>
      <path id="Trazado_1037113" data-name="Trazado 1037113" d="M1637.915,468.02c2.247-1.664,2.247-1.663.742-4.161-.162-.269-.308-.547-.461-.821.618-.591,1.126-.662,1.461.279a6.712,6.712,0,0,0,.391.732C1641.54,466.994,1641.285,467.467,1637.915,468.02Z" transform="translate(-1240.981 -77.055)" fill="#d5d2ce"/>
      <path id="Trazado_1037114" data-name="Trazado 1037114" d="M1405.5,1674.646a1.31,1.31,0,0,1-1.763-.844c-.44-.9-1.008-1.744-1.521-2.611,1.251-.538,1.708.421,2.185,1.219C1404.821,1673.12,1405.133,1673.9,1405.5,1674.646Z" transform="translate(-1038.933 -1112.939)" fill="#d9d7d2"/>
      <path id="Trazado_1037115" data-name="Trazado 1037115" d="M1818.447,810.351q.011-2.47.022-4.941c0-.443,0-.889.608-.929.266.03.468.132.393.448-.482,2.028-.212,4.1-.328,6.191C1818.7,810.992,1818.6,810.647,1818.447,810.351Z" transform="translate(-1395.735 -370.12)" fill="#e2d5cc"/>
      <path id="Trazado_1037116" data-name="Trazado 1037116" d="M1653.925,444.29c-1.17.308-2.465.74-3.491.022-.906-.634-1.348-1.693.379-2.106C1651.959,442.74,1652.73,443.831,1653.925,444.29Z" transform="translate(-1251.029 -59.573)" fill="#5f4232"/>
      <path id="Trazado_1037117" data-name="Trazado 1037117" d="M1617.641,435.912a11.883,11.883,0,0,1-3.123-3.043c.416-.459.813-.675,1.33-.081.616.707,1.279,1.377,1.952,2.032C1618.284,435.291,1618.128,435.612,1617.641,435.912Z" transform="translate(-1220.925 -51.19)" fill="#d9d7d3"/>
      <path id="Trazado_1037118" data-name="Trazado 1037118" d="M1628.243,418.147c.819-.481,3.736.839,3.951,1.812.1.464-.43.352-.613.568A3.993,3.993,0,0,1,1628.243,418.147Z" transform="translate(-1232.69 -38.863)" fill="#d6d5d1"/>
      <path id="Trazado_1037119" data-name="Trazado 1037119" d="M1547.22,403.555l-4.278-.964c1.428-1.564,2.805,0,4.2.1C1548,402.76,1547.644,403.218,1547.22,403.555Z" transform="translate(-1159.569 -25.021)" fill="#d0d0cc"/>
      <path id="Trazado_1037120" data-name="Trazado 1037120" d="M1078.214,1686.223c-.64.27-1.025.145-1.2-.608-.229-.961-.566-1.9-.856-2.841.7-.346,1.125-.218,1.3.629C1077.652,1684.355,1077.956,1685.284,1078.214,1686.223Z" transform="translate(-759.433 -1122.849)" fill="#d0ccc8"/>
      <path id="Trazado_1037121" data-name="Trazado 1037121" d="M1586.17,418.052l-3.37-1.884c.639-.523,3.772.4,3.892,1.192C1586.722,417.559,1586.355,417.819,1586.17,418.052Z" transform="translate(-1193.736 -37.122)" fill="#d5d4d0"/>
      <path id="Trazado_1037122" data-name="Trazado 1037122" d="M603.707,1693.82a1.015,1.015,0,0,1-1.247-.715,30.363,30.363,0,0,0-1.634-2.844C602.565,1690.839,603.936,1692.532,603.707,1693.82Z" transform="translate(-351.977 -1129.42)" fill="#d4d2ce"/>
      <path id="Trazado_1037123" data-name="Trazado 1037123" d="M1592.9,395.635c.287-.526.672-.575,1.184-.3.941.5,1.9.972,2.852,1.459.995.51.141.589-.187.79A5.5,5.5,0,0,1,1592.9,395.635Z" transform="translate(-1202.39 -19.254)" fill="#d1d2ce"/>
      <path id="Trazado_1037124" data-name="Trazado 1037124" d="M1870.773,721.758c-1.647.846-2.941.539-3.346-.738a.938.938,0,0,1-.014-.675c.18-.289.406-.008.6.085C1868.905,720.857,1869.8,721.287,1870.773,721.758Z" transform="translate(-1437.66 -297.889)" fill="#5a4231"/>
      <path id="Trazado_1037125" data-name="Trazado 1037125" d="M1624.682,418.761c1.15.74,1.9,2.044,3.337,2.379-1.071.5-3.789-.831-3.927-1.944C1624.048,418.833,1624.435,418.843,1624.682,418.761Z" transform="translate(-1229.13 -39.476)" fill="#604232"/>
      <path id="Trazado_1037126" data-name="Trazado 1037126" d="M1589.418,398.427l3.849,1.948c-1.748.728-2.894-.624-4.194-1.3C1588.481,398.768,1589.169,398.589,1589.418,398.427Z" transform="translate(-1198.913 -22.046)" fill="#624232"/>
      <path id="Trazado_1037127" data-name="Trazado 1037127" d="M1661,443.193c-1.614.167-2.253-1.122-3.111-2.085C1659.918,440.315,1660.083,442.312,1661,443.193Z" transform="translate(-1258.099 -58.476)" fill="#d7d6d2"/>
      <path id="Trazado_1037128" data-name="Trazado 1037128" d="M1499.292,399.687a16.519,16.519,0,0,1,5.266-.135C1502.559,400.778,1500.923,399.967,1499.292,399.687Z" transform="translate(-1122.152 -22.882)" fill="#d1d4d0"/>
      <path id="Trazado_1037129" data-name="Trazado 1037129" d="M1795.2,856.337q.007-2.555.017-5.11a1.563,1.563,0,0,1,.067-.316l.213.347q0,.635.009,1.272c.155.582-.042,1.187.117,1.769l.289,3.2.023-.022C1795.4,857.285,1795.384,856.756,1795.2,856.337Z" transform="translate(-1375.808 -409.92)" fill="#cfbfb4"/>
      <path id="Trazado_1037130" data-name="Trazado 1037130" d="M1565.524,386.42c-1.679.7-2.589-.408-3.686-.765A10,10,0,0,1,1565.524,386.42Z" transform="translate(-1175.767 -11.089)" fill="#b4bcb7"/>
      <path id="Trazado_1037131" data-name="Trazado 1037131" d="M1797.112,864.012a3.5,3.5,0,0,1-.118-1.77Q1797.053,863.128,1797.112,864.012Z" transform="translate(-1377.295 -419.633)" fill="#a96c40"/>
      <path id="Trazado_1037132" data-name="Trazado 1037132" d="M583.992,1683.047l1.239.071c-.378.348-.832.245-1.274.211Q583.974,1683.188,583.992,1683.047Z" transform="translate(-337.517 -1123.236)" fill="#aa6c40"/>
      <path id="Trazado_1037133" data-name="Trazado 1037133" d="M408.722,1022.364l.127.5Z" transform="translate(-187.303 -556.891)" fill="#7d5132"/>
      <path id="Trazado_1037134" data-name="Trazado 1037134" d="M434.2,801.45l-.408.284Z" transform="translate(-208.797 -367.521)" fill="#7d5132"/>
      <path id="Trazado_1037135" data-name="Trazado 1037135" d="M1891.122,741.367l-.405.217Z" transform="translate(-1457.686 -316.018)" fill="#b6a794"/>
      <path id="Trazado_1037136" data-name="Trazado 1037136" d="M1636.283,500.6l.256-.23Z" transform="translate(-1239.582 -109.435)" fill="#d5d2ce"/>
      <path id="Trazado_1037137" data-name="Trazado 1037137" d="M1640.087,510.515l-.486.218Z" transform="translate(-1242.426 -118.129)" fill="#7d5132"/>
      <path id="Trazado_1037138" data-name="Trazado 1037138" d="M1598.021,870.566l.241-.263Z" transform="translate(-1206.784 -426.543)" fill="#ffedd2"/>
      <path id="Trazado_1037139" data-name="Trazado 1037139" d="M630.878,1246.838l.207-.26Z" transform="translate(-377.738 -749.09)" fill="#ffedd2"/>
      <path id="Trazado_1037140" data-name="Trazado 1037140" d="M632.446,1245.153l.176-.209Z" transform="translate(-379.082 -747.689)" fill="#ffedd2"/>
      <path id="Trazado_1037141" data-name="Trazado 1037141" d="M634.372,1241.965l.227-.315Z" transform="translate(-380.733 -744.866)" fill="#ffedd2"/>
      <path id="Trazado_1037142" data-name="Trazado 1037142" d="M635.933,1240.133l.2-.261Z" transform="translate(-382.071 -743.342)" fill="#ffedd2"/>
      <path id="Trazado_1037143" data-name="Trazado 1037143" d="M1599.625,868.851l.241-.256Z" transform="translate(-1208.159 -425.079)" fill="#ffedd2"/>
      <path id="Trazado_1037144" data-name="Trazado 1037144" d="M1633.332,835.576l.219-.259Z" transform="translate(-1237.053 -396.553)" fill="#b6a794"/>
      <path id="Trazado_1037145" data-name="Trazado 1037145" d="M1800.193,896.906l.151.082c-.173.127-.152.012-.129-.1Z" transform="translate(-1380.088 -449.328)" fill="#cfbfb4"/>
      <path id="Trazado_1037146" data-name="Trazado 1037146" d="M1591.092,878.705l.2-.224Z" transform="translate(-1200.844 -433.553)" fill="#ffedd2"/>
      <path id="Trazado_1037147" data-name="Trazado 1037147" d="M1592.723,877.063l.18-.2Z" transform="translate(-1202.242 -432.17)" fill="#ffedd2"/>
      <path id="Trazado_1037148" data-name="Trazado 1037148" d="M1594.665,874.094l.27-.317Z" transform="translate(-1203.907 -429.521)" fill="#ffedd2"/>
      <path id="Trazado_1037149" data-name="Trazado 1037149" d="M1596.448,872.3l.238-.267Z" transform="translate(-1205.435 -428.029)" fill="#ffedd2"/>
      <path id="Trazado_1037150" data-name="Trazado 1037150" d="M1342.059,888.42a16.388,16.388,0,0,1,5.628,1.022c2.25.929,2.91,2.515,2.1,4.809a20.174,20.174,0,0,1-2.71,4.62,70.374,70.374,0,0,1-8.48,10.624,6.533,6.533,0,0,1-8.7.891c-1.005-.7-1.63-1.607-1.141-2.846,1.265-3.209,1.6-6.644,2.482-9.943.207-.768.427-1.535.688-2.285C1333.743,890.1,1336.094,888.43,1342.059,888.42Z" transform="translate(-975.821 -442.073)" fill="#aa6c40"/>
      <path id="Trazado_1037151" data-name="Trazado 1037151" d="M1569.85,528.056l-.678-.9c3.863,2.519,6.075,6.2,7.391,10.51.219.717.373,1.454.558,2.181q-.006.127-.012.255c.128.2.007.455.136.657a56.668,56.668,0,0,1,.047,17.855,7.34,7.34,0,0,1-1.943,4.369c-1.093,1.043-2.375.768-3.59.4a7.541,7.541,0,0,1-3.608-2.448,33.81,33.81,0,0,1-8.026-19.778,65.939,65.939,0,0,1-.146-7.027c.038-1.1.572-2.165.259-3.3.068-.572.207-1.09.909-1.166a.516.516,0,0,1,.321.215,4.019,4.019,0,0,1,.223,1.992,62.009,62.009,0,0,0,.687,11.535,32.16,32.16,0,0,0,6.7,15.1c1.153,1.414,2.426,2.638,4.378,2.84.541.056.949,0,1.1-.594a16.052,16.052,0,0,0,1-4.768,60.115,60.115,0,0,0-.859-18.6,20.4,20.4,0,0,0-2.5-5.9,3.477,3.477,0,0,1-.223-.3c-.034-.049-.068-.1-.1-.151-.073-.092-.144-.187-.215-.282-.141-.18-.273-.367-.4-.558C1570.828,529.467,1569.857,529.076,1569.85,528.056Z" transform="translate(-1174.143 -132.397)" fill="#110c08"/>
      <path id="Trazado_1037152" data-name="Trazado 1037152" d="M1553.879,552.351a53.79,53.79,0,0,0,.715,15.552,31.25,31.25,0,0,0,7.362,14.52c1.783,1.95,3.927,3.118,6.7,2.153-.972,2.335-3.055,3.041-5.724,1.92-3.4-1.429-5.423-4.256-7.061-7.331-3.84-7.2-4.424-14.887-3.082-22.825.18-1.065.725-2.1.442-3.23C1553,552.479,1553.328,552.317,1553.879,552.351Z" transform="translate(-1167.449 -153.987)" fill="#b6a794"/>
      <path id="Trazado_1037153" data-name="Trazado 1037153" d="M520.914,1499.929c.732,5.46,1.421,10.927,2.219,16.377a15.366,15.366,0,0,0,1.91,4.976c.818,1.52,1.867,2.969,1.916,4.8-3.211.026-4.036-.524-5.063-3.5a105.323,105.323,0,0,1-4.043-15.962c-.059-.331-.115-.62-.435-.787l.354-.78C518.7,1503.281,519.2,1501.231,520.914,1499.929Z" transform="translate(-280.478 -966.265)" fill="#aa6c40"/>
      <path id="Trazado_1037154" data-name="Trazado 1037154" d="M490.179,1289.684l.493-.061c2.248.682,3.011,2.524,3.279,4.549a38.922,38.922,0,0,1-.915,13.48,3.446,3.446,0,0,1-.905,1.654.3.3,0,0,1-.394-.078c-.74-1.518-.6-3.189-.721-4.788-.35-4.468-.76-8.931-1.09-13.4A1.7,1.7,0,0,1,490.179,1289.684Z" transform="translate(-256.888 -785.989)" fill="#aa6c40"/>
      <path id="Trazado_1037155" data-name="Trazado 1037155" d="M1701.3,617.5a12.838,12.838,0,0,1,5.555,4.073c.058.044.078.088.059.132s-.038.066-.058.066a7.155,7.155,0,0,1-4.3-.069c-2.277-.815-2.63-1.776-1.529-4.167Z" transform="translate(-1294.565 -209.834)" fill="#b6a794"/>
      <path id="Trazado_1037156" data-name="Trazado 1037156" d="M1745.415,644.057a1.045,1.045,0,0,1,0-.2c2.047-1.081,3.312.532,4.8,1.392.435.252.876.495,1.314.742l.084.292c-.254,1.987-1.219,2.423-2.88,1.309A17.891,17.891,0,0,1,1745.415,644.057Z" transform="translate(-1333.127 -232.123)" fill="#aa6d41"/>
      <path id="Trazado_1037157" data-name="Trazado 1037157" d="M1520.01,542.384l-.65.759a1.412,1.412,0,0,1-.087.179,3.153,3.153,0,0,1-.206.254l0,.006a.473.473,0,0,0-.2.259c-1.585,2.183-3.354,4.11-6.239,4.485a74.5,74.5,0,0,1,7.1-6.925,6.248,6.248,0,0,1,1.482-.681c.113.442-.113.645-.511.728C1520.056,541.455,1520.208,542.049,1520.01,542.384Z" transform="translate(-1133.58 -144.021)" fill="#a96d41"/>
      <path id="Trazado_1037158" data-name="Trazado 1037158" d="M464.98,1052.551a1.708,1.708,0,0,1,1.249.151A1.6,1.6,0,0,1,464.98,1052.551Z" transform="translate(-235.528 -582.729)" fill="#b6a794"/>
      <path id="Trazado_1037159" data-name="Trazado 1037159" d="M1680.3,618.472l-.136-.657Z" transform="translate(-1277.198 -210.107)" fill="#aa6c40"/>
      <path id="Trazado_1037160" data-name="Trazado 1037160" d="M1156.609,1359.015l-.273.127Z" transform="translate(-828.166 -845.472)" fill="#ebded5"/>
      <path id="Trazado_1037161" data-name="Trazado 1037161" d="M503.437,1427.5a.971.971,0,0,1,.219-.026l-.186.287-.088-.085Q503.282,1427.55,503.437,1427.5Z" transform="translate(-268.413 -904.158)" fill="#b6a794"/>
      <path id="Trazado_1037162" data-name="Trazado 1037162" d="M1556.317,561.023l.2-.259Z" transform="translate(-1171.035 -161.203)" fill="#b6a794"/>
      <path id="Trazado_1037163" data-name="Trazado 1037163" d="M1557.753,559.2l.206-.254Z" transform="translate(-1172.266 -159.642)" fill="#b6a794"/>
      <path id="Trazado_1037164" data-name="Trazado 1037164" d="M479.037,1309.7q-.024.089-.055.176a1.722,1.722,0,0,1-1.931-1.227,12.187,12.187,0,0,1-1.009-6.833,9.581,9.581,0,0,0-.551-4.9,9.674,9.674,0,0,1-.557-4.444c.146-1.388.759-2.418,2.37-2.421Z" transform="translate(-244.014 -786.355)" fill="#7d5132"/>
      <path id="Trazado_1037165" data-name="Trazado 1037165" d="M1623.181,525.79l-.249-.246Z" transform="translate(-1228.138 -131.012)" fill="#110c08"/>
      <path id="Trazado_1037166" data-name="Trazado 1037166" d="M1782.256,601.452l-.227-.186Z" transform="translate(-1364.517 -195.921)" fill="#110b07"/>
      <path id="Trazado_1037167" data-name="Trazado 1037167" d="M1270.418,1330.11a.527.527,0,0,0-.061-.168c-1.073-5.458-2.767-10.745-4.368-16.061-1.3-4.332-3.031-8.528-4.066-12.947a2.066,2.066,0,0,1,1.443-2.7,41.172,41.172,0,0,0,6.514-3.2,43.45,43.45,0,0,1,3.028,11.2,39.414,39.414,0,0,1-.2,8.663,47.77,47.77,0,0,0,.916,16.022c.051.23.059.469.088.7Z" transform="translate(-918.596 -790.624)" fill="#ffedd2"/>
      <path id="Trazado_1037168" data-name="Trazado 1037168" d="M1569.183,531.231l.511-.728a7.957,7.957,0,0,1,8.077-1.039l1.653,1.984a22.459,22.459,0,0,1,2.978,9.209,74.149,74.149,0,0,1,.225,13.8,50.381,50.381,0,0,1-.574,5.091,4.723,4.723,0,0,1-.688,2.134c-.718.45-1.108-.149-1.505-.529a14.262,14.262,0,0,1-4.365-9.274c-.352-3.676-.123-7.389-.731-11.046a14.757,14.757,0,0,0-3.321-7.656c-.666-.752-1.6-1.179-2.229-1.961Z" transform="translate(-1182.063 -133.804)" fill="#ffedd2"/>
      <path id="Trazado_1037169" data-name="Trazado 1037169" d="M1569.394,545.728c2.864.981,4.064,3.421,5.026,5.958,1.4,3.7,1.331,7.617,1.457,11.5.1,2.973.281,5.936,1.756,8.656a14.28,14.28,0,0,0,3.706,4.438,2.394,2.394,0,0,1,1.653.708c-.357.864-1.083.823-1.807.7a6.383,6.383,0,0,1-3.768-2.345c-4.8-5.571-7.087-12.142-7.818-19.367C1569.254,552.56,1569.48,549.144,1569.394,545.728Z" transform="translate(-1182.244 -148.314)" fill="#b6a794"/>
      <path id="Trazado_1037170" data-name="Trazado 1037170" d="M1643.636,578.367a1.779,1.779,0,0,1-1.653-.708c1.35-5.649,1.352-11.4,1.152-17.146a29.012,29.012,0,0,0-2.8-12.417c-.121-.236-.329-.477-.091-.763l.349.483a.807.807,0,0,0,.151.195l.064.028v.07a.128.128,0,0,1,.111.128c2.55,3.406,3.41,7.363,3.78,11.49a62.083,62.083,0,0,1-.529,17.077A10.936,10.936,0,0,1,1643.636,578.367Z" transform="translate(-1242.888 -149.689)" fill="#fefbf5"/>
      <path id="Trazado_1037171" data-name="Trazado 1037171" d="M1643.5,550.91l-.152-.2Z" transform="translate(-1245.638 -152.589)" fill="#ffedd2"/>
      <path id="Trazado_1037172" data-name="Trazado 1037172" d="M1644.966,552.891a.112.112,0,0,1-.111-.128l.1.028Z" transform="translate(-1246.93 -154.344)" fill="#ffedd2"/>
    </g>
  </g>
</svg>
