<svg xmlns="http://www.w3.org/2000/svg" width="85.616" height="96.823" viewBox="0 0 85.616 96.823">
  <g id="Grupo_1202627" data-name="Grupo 1202627" transform="translate(-313.97 -2024)">
    <g id="Grupo_1202379" data-name="Grupo 1202379" transform="translate(313.97 2024)">
      <g id="Grupo_1188468" data-name="Grupo 1188468" transform="translate(0 10.505)">
        <path id="Rectángulo_402603" data-name="Rectángulo 402603" d="M0,0H0A85.616,85.616,0,0,1,85.616,85.616v.7a0,0,0,0,1,0,0H0a0,0,0,0,1,0,0V0A0,0,0,0,1,0,0Z" fill="#d2f3e8"/>
      </g>
      <path id="Trazado_874774" data-name="Trazado 874774" d="M9.119,18.631c.06,0,.122,0,.183-.006a3.067,3.067,0,0,0,1.829-.774,2.668,2.668,0,0,0,.938-1.993,12.677,12.677,0,0,0,.079-1.8V12.212h3.767A2.373,2.373,0,0,0,18,11.146a3.3,3.3,0,0,0,.528-1.813,3.113,3.113,0,0,0-.55-1.807,2.361,2.361,0,0,0-2.06-1H12.147v-2a15.044,15.044,0,0,0-.078-1.939A2.424,2.424,0,0,0,11.051.6,3.07,3.07,0,0,0,7.409.6a2.44,2.44,0,0,0-1.02,2.089V6.531H2.929a2.856,2.856,0,0,0-2.3.907,2.6,2.6,0,0,0-.61,2.03,3.337,3.337,0,0,0,.807,1.805,2.683,2.683,0,0,0,2.1.94h3.46v3.536a2.657,2.657,0,0,0,1.02,2.319A2.9,2.9,0,0,0,9.119,18.631ZM16.065,9.9a.55.55,0,0,1-.15.016H9.846v4.147a9.983,9.983,0,0,1-.054,1.465l-.022.112v.114a.393.393,0,0,1-.136.356.781.781,0,0,1-.476.225H9.119a.6.6,0,0,1-.36-.126,1.039,1.039,0,0,1-.069-.456V9.911H2.929a.393.393,0,0,1-.356-.136A1.05,1.05,0,0,1,2.3,9.2a.308.308,0,0,1,.081-.275,1.067,1.067,0,0,1,.543-.092H8.69V2.687c0-.176.036-.2.056-.216a.774.774,0,0,1,.968,0c.02.014.056.04.056.216v.1l.016.094a12.371,12.371,0,0,1,.061,1.655v4.3h6.068a.63.63,0,0,1,.179.019.84.84,0,0,1,.131.482A1.007,1.007,0,0,1,16.065,9.9Z" transform="translate(25.614 26.26) rotate(-137)" fill="#1944b6"/>
    </g>
    <g id="Grupo_1202626" data-name="Grupo 1202626" transform="translate(329.775 2043.189)">
      <path id="Trazado_1037063" data-name="Trazado 1037063" d="M69.774,21.778a5.767,5.767,0,0,0-5.313-5.312A14.372,14.372,0,0,0,53.325,20.58,22.353,22.353,0,0,0,51.253,19,33.825,33.825,0,0,1,61.015,7.32a4.076,4.076,0,0,0-2.7-7.312,23.086,23.086,0,0,0-11.626,3.6,1.023,1.023,0,0,0,1.144,1.7,17.209,17.209,0,0,1,3.14-1.663,19.454,19.454,0,0,1,5.383,5.01,34.974,34.974,0,0,0-6.85,9.268,25.6,25.6,0,0,0-2.969-1.414A3.689,3.689,0,0,1,44.6,14.618a3.741,3.741,0,0,0-2.624-2.066,17.355,17.355,0,0,1,2.538-4.234,1.023,1.023,0,1,0-1.578-1.3,19.7,19.7,0,0,0-3.143,5.475,8.814,8.814,0,0,0-1.011.2c-2.213-3.239-5.536-3.24-7.749,0a8.784,8.784,0,0,0-1.008-.2C26.885,4.343,20.041.513,11.5.008A4.077,4.077,0,0,0,8.8,7.32,33.826,33.826,0,0,1,18.559,19a22.346,22.346,0,0,0-2.072,1.584A14.371,14.371,0,0,0,5.351,16.466,5.767,5.767,0,0,0,.038,21.778,14.376,14.376,0,0,0,9.252,36.242C8.85,50.554,20.484,69.81,34.906,69.81c5.67,0,11.428-3.065,16.213-8.63a1.023,1.023,0,0,0-1.551-1.333c-4.1,4.763-8.9,7.529-13.64,7.879V62.537a6.165,6.165,0,0,0,5.134-6.07,1.023,1.023,0,1,0-2.045,0,4.111,4.111,0,0,1-8.222,0,1.023,1.023,0,1,0-2.045,0,6.165,6.165,0,0,0,5.134,6.07v5.19c-12.6-.9-22.6-18.164-22.6-30.768,0-8.8,4.86-15.4,12.749-18.556a5.722,5.722,0,0,0,3.025-2.91c.661-1.395,2.634-1.13,4.089-.624a1.022,1.022,0,0,0,1.228-.467c.436-.78,1.344-2.088,2.527-2.088S37,13.622,37.433,14.4a1.023,1.023,0,0,0,1.228.467c1.456-.506,3.428-.769,4.088.622A5.725,5.725,0,0,0,45.776,18.4c7.915,3.168,12.749,9.78,12.749,18.556,0,6.079-2.306,13.243-6.168,19.163a1.023,1.023,0,1,0,1.713,1.118c3.921-6.01,6.689-13.921,6.49-21a14.376,14.376,0,0,0,9.214-14.464ZM53.412,2.834a25.46,25.46,0,0,1,5.023-.784,1.961,1.961,0,0,1,2.007,1.308,1.992,1.992,0,0,1-.673,2.34c-.652.5-1.286,1.023-1.9,1.558A21.236,21.236,0,0,0,53.412,2.834ZM9.37,3.358A1.959,1.959,0,0,1,11.376,2.05a25.471,25.471,0,0,1,5.023.784A21.236,21.236,0,0,0,11.94,7.256c-.612-.535-1.246-1.057-1.9-1.558a1.993,1.993,0,0,1-.673-2.34ZM2.078,21.924A3.711,3.711,0,0,1,5.5,18.506,12.327,12.327,0,0,1,15,21.989a20.614,20.614,0,0,0-1.554,1.825,6.983,6.983,0,0,0-6.1-.65,1.023,1.023,0,0,0-.612.612,7,7,0,0,0,2.979,8.38c-.13.636-.233,1.284-.309,1.941A12.338,12.338,0,0,1,2.078,21.924Zm8.177,8.125a4.954,4.954,0,0,1-1.74-5.107,4.937,4.937,0,0,1,3.784.566A20.439,20.439,0,0,0,10.255,30.049ZM25.213,14.62A3.687,3.687,0,0,1,23.276,16.5a25.616,25.616,0,0,0-2.97,1.414,34.98,34.98,0,0,0-6.85-9.268,19.452,19.452,0,0,1,5.383-5.01,16.1,16.1,0,0,1,9,8.91A3.743,3.743,0,0,0,25.213,14.62ZM59.557,30.049a20.442,20.442,0,0,0-2.044-4.541,4.936,4.936,0,0,1,3.784-.566A4.955,4.955,0,0,1,59.557,30.049Zm.848,4.048q-.115-.986-.309-1.941a7,7,0,0,0,2.979-8.38,1.023,1.023,0,0,0-.612-.612,6.982,6.982,0,0,0-6.1.65,20.588,20.588,0,0,0-1.554-1.825,12.324,12.324,0,0,1,9.506-3.483,3.711,3.711,0,0,1,3.419,3.419A12.339,12.339,0,0,1,60.405,34.1Z" transform="translate(0 0)"/>
      <path id="Trazado_1037064" data-name="Trazado 1037064" d="M165.67,302.24v1.027a1.023,1.023,0,1,0,2.045,0V302.24a1.023,1.023,0,0,0-2.045,0Z" transform="translate(-143.081 -260.147)"/>
      <path id="Trazado_1037065" data-name="Trazado 1037065" d="M331.337,302.24v1.027a1.023,1.023,0,1,0,2.045,0V302.24a1.023,1.023,0,0,0-2.045,0Z" transform="translate(-286.16 -260.147)"/>
    </g>
  </g>
</svg>
