<svg xmlns="http://www.w3.org/2000/svg" width="85.616" height="96.823" viewBox="0 0 85.616 96.823">
  <g id="Grupo_1202629" data-name="Grupo 1202629" transform="translate(-314.379 -2751)">
    <g id="Grupo_1202466" data-name="Grupo 1202466" transform="translate(314.379 2751)">
      <g id="Grupo_1188468" data-name="Grupo 1188468" transform="translate(0 10.505)">
        <path id="Rectángulo_402603" data-name="Rectángulo 402603" d="M0,0H0A85.616,85.616,0,0,1,85.616,85.616v.7a0,0,0,0,1,0,0H0a0,0,0,0,1,0,0V0A0,0,0,0,1,0,0Z" fill="#d2f3e8"/>
      </g>
      <path id="Trazado_874774" data-name="Trazado 874774" d="M9.119,18.631c.06,0,.122,0,.183-.006a3.067,3.067,0,0,0,1.829-.774,2.668,2.668,0,0,0,.938-1.993,12.677,12.677,0,0,0,.079-1.8V12.212h3.767A2.373,2.373,0,0,0,18,11.146a3.3,3.3,0,0,0,.528-1.813,3.113,3.113,0,0,0-.55-1.807,2.361,2.361,0,0,0-2.06-1H12.147v-2a15.044,15.044,0,0,0-.078-1.939A2.424,2.424,0,0,0,11.051.6,3.07,3.07,0,0,0,7.409.6a2.44,2.44,0,0,0-1.02,2.089V6.531H2.929a2.856,2.856,0,0,0-2.3.907,2.6,2.6,0,0,0-.61,2.03,3.337,3.337,0,0,0,.807,1.805,2.683,2.683,0,0,0,2.1.94h3.46v3.536a2.657,2.657,0,0,0,1.02,2.319A2.9,2.9,0,0,0,9.119,18.631ZM16.065,9.9a.55.55,0,0,1-.15.016H9.846v4.147a9.983,9.983,0,0,1-.054,1.465l-.022.112v.114a.393.393,0,0,1-.136.356.781.781,0,0,1-.476.225H9.119a.6.6,0,0,1-.36-.126,1.039,1.039,0,0,1-.069-.456V9.911H2.929a.393.393,0,0,1-.356-.136A1.05,1.05,0,0,1,2.3,9.2a.308.308,0,0,1,.081-.275,1.067,1.067,0,0,1,.543-.092H8.69V2.687c0-.176.036-.2.056-.216a.774.774,0,0,1,.968,0c.02.014.056.04.056.216v.1l.016.094a12.371,12.371,0,0,1,.061,1.655v4.3h6.068a.63.63,0,0,1,.179.019.84.84,0,0,1,.131.482A1.007,1.007,0,0,1,16.065,9.9Z" transform="translate(25.614 26.26) rotate(-137)" fill="#1944b6"/>
    </g>
    <g id="Grupo_1202628" data-name="Grupo 1202628" transform="translate(328.379 2781.934)">
      <path id="Trazado_1037066" data-name="Trazado 1037066" d="M119.881,120.161h1.683v1.683h-1.683Z" transform="translate(-106.43 -106.619)"/>
      <path id="Trazado_1037067" data-name="Trazado 1037067" d="M74.8,120.161h1.683v1.683H74.8Z" transform="translate(-66.408 -106.619)"/>
      <path id="Trazado_1037068" data-name="Trazado 1037068" d="M89.875,166.87h.844v1.68H92.4v-1.68h.813v-1.683h-3.34Z" transform="translate(-79.791 -146.593)"/>
      <path id="Trazado_1037069" data-name="Trazado 1037069" d="M217.375,405.2h1.683v1.684h-1.683Z" transform="translate(-192.985 -359.679)"/>
      <path id="Trazado_1037070" data-name="Trazado 1037070" d="M52.021,30.323c6.4-1.217,5.074-6.877,5.187-11.727H55.724A9.367,9.367,0,0,0,49.541,20.9a8.434,8.434,0,0,0-5.8-2.31H22.257l-3.019-3.586a6.061,6.061,0,0,0,4.309-6.514H18.5V5.979a.857.857,0,1,1,1.691,0v.835H21.87V4.283a4.229,4.229,0,0,0-7.184-2.977,4.181,4.181,0,0,0-1.234,2.977V8.494H10.1V4.283A4.174,4.174,0,0,0,8.821,1.256l-1.17,1.21a3.149,3.149,0,0,1,.77,2.654H6.592a2.54,2.54,0,0,0-3.117-1.56A2.543,2.543,0,0,1,6.513,1.833L6.923.2A4.228,4.228,0,0,0,1.687,4.283V6.814H3.37V5.979a.854.854,0,1,1,1.691,0V8.494H.031A6.034,6.034,0,0,0,5.06,15.162,5.357,5.357,0,0,0,5.615,17.4l3.627,7.274v.7a1.657,1.657,0,0,1-1.656,1.656v1.683c1.176-.079,4.017.278,5.022-.441a11,11,0,0,0,1.9,6.773l-3.58,8.633v2.373l9.31,4.619.891,6.642h4.944V48.886H24.39V52.26H22.151l-1.99-14.838a9.087,9.087,0,0,1-5.869-8.478c0-.481,0-3.877,0-4.274.206-.48,4.05-7.924,3.985-8.191l3.2,3.8H43.745a6.754,6.754,0,0,1,6.171,4.017l1.539-.681a8.427,8.427,0,0,0-.814-1.436,7.693,7.693,0,0,1,4.884-1.9c-.089,3.309.846,7.224-3.352,8.312a17.366,17.366,0,0,0-.145-3.133l-1.654.31c.437,3.577.08,6.743-3.228,8.8l-.009,2.813,5.043,6.733v2.93l-2,5.213H48.615l1.888-4.9V45.6c-7.81-1.5-11.957-5.429-13.5-13.534l-1.645.357a29.556,29.556,0,0,0,1.359,4.687H26.148c.229-1.827,1.8-3.067,3.035-4.261l-1.17-1.209c-2.781,1.891-3.622,4.409-3.622,5.47v6.719h1.683V38.8h7.784a15.244,15.244,0,0,0,4.937,7.244l-2.624,7.643V57.3h5.049V53.965l2.995-8.594a21.561,21.561,0,0,0,4.6,1.534l-2.55,6.761V57.3h5.049V53.979l2.545-6.62v-3.8l-5.037-6.731V35.452a8.424,8.424,0,0,0,3.194-5.13ZM5.055,13.452A4.219,4.219,0,0,1,1.8,10.177H5.9a4.772,4.772,0,0,0-.844,3.275ZM24.39,53.943v1.676H22.6l-.225-1.676Zm-4.968-9.371L17.99,43.535l1.09-1.514Zm-.8-6,.137,1.018-3.111,4.321,4.087,2.959.238,1.775L12.611,45V44L15.724,36.5a10.7,10.7,0,0,0,2.894,2.075ZM6.744,6.8H8.422v1.69H6.744Zm4.209,20.218h-.468a3.331,3.331,0,0,0,.44-1.708h1.683a1.66,1.66,0,0,1-1.656,1.708Zm5.848-12a3.666,3.666,0,0,1-.384,1.629L12.93,23.631H10.6L7.122,16.645a3.665,3.665,0,0,1-.383-1.627V12.7a2.527,2.527,0,0,1,2.525-2.525h5.013A2.527,2.527,0,0,1,16.8,12.7Zm.013-6.523H15.136V6.8h1.678Zm.152-3.373H15.136a3.174,3.174,0,0,1,.74-2.625,2.542,2.542,0,0,1,4.206,1.065,2.54,2.54,0,0,0-3.117,1.56Zm.675,5.056h4.14a4.218,4.218,0,0,1-3.3,3.282A4.783,4.783,0,0,0,17.64,10.177Zm21.9,45.442H37.854V53.96l.006-.017h1.677Zm.5-3.359H38.424l1.942-5.8V45.1a12.993,12.993,0,0,1-4.728-6.3h1.824a15.36,15.36,0,0,0,5.265,5.729Zm9.6,3.359H47.953v-1.64l.014-.036h1.669Z" transform="translate(0 0)"/>
      <path id="Trazado_1037071" data-name="Trazado 1037071" d="M194.875,195.187h1.683v1.683h-1.683Z" transform="translate(-173.01 -173.227)"/>
      <path id="Trazado_1037072" data-name="Trazado 1037072" d="M224.875,195.187h1.683v1.683h-1.683Z" transform="translate(-199.643 -173.227)"/>
    </g>
  </g>
</svg>
