<svg xmlns="http://www.w3.org/2000/svg" width="144.909" height="96.823" viewBox="0 0 144.909 96.823">
  <g id="Grupo_1202620" data-name="Grupo 1202620" transform="translate(-313.557 -2084)">
    <g id="Grupo_1202499" data-name="Grupo 1202499" transform="translate(313.557 2084)">
      <g id="Grupo_1188468" data-name="Grupo 1188468" transform="translate(0 10.505)">
        <path id="Rectángulo_402603" data-name="Rectángulo 402603" d="M0,0H0A85.616,85.616,0,0,1,85.616,85.616v.7a0,0,0,0,1,0,0H0a0,0,0,0,1,0,0V0A0,0,0,0,1,0,0Z" fill="#e8f9f3"/>
      </g>
      <path id="Trazado_874774" data-name="Trazado 874774" d="M9.119,18.631c.06,0,.122,0,.183-.006a3.067,3.067,0,0,0,1.829-.774,2.668,2.668,0,0,0,.938-1.993,12.677,12.677,0,0,0,.079-1.8V12.212h3.767A2.373,2.373,0,0,0,18,11.146a3.3,3.3,0,0,0,.528-1.813,3.113,3.113,0,0,0-.55-1.807,2.361,2.361,0,0,0-2.06-1H12.147v-2a15.044,15.044,0,0,0-.078-1.939A2.424,2.424,0,0,0,11.051.6,3.07,3.07,0,0,0,7.409.6a2.44,2.44,0,0,0-1.02,2.089V6.531H2.929a2.856,2.856,0,0,0-2.3.907,2.6,2.6,0,0,0-.61,2.03,3.337,3.337,0,0,0,.807,1.805,2.683,2.683,0,0,0,2.1.94h3.46v3.536a2.657,2.657,0,0,0,1.02,2.319A2.9,2.9,0,0,0,9.119,18.631ZM16.065,9.9a.55.55,0,0,1-.15.016H9.846v4.147a9.983,9.983,0,0,1-.054,1.465l-.022.112v.114a.393.393,0,0,1-.136.356.781.781,0,0,1-.476.225H9.119a.6.6,0,0,1-.36-.126,1.039,1.039,0,0,1-.069-.456V9.911H2.929a.393.393,0,0,1-.356-.136A1.05,1.05,0,0,1,2.3,9.2a.308.308,0,0,1,.081-.275,1.067,1.067,0,0,1,.543-.092H8.69V2.687c0-.176.036-.2.056-.216a.774.774,0,0,1,.968,0c.02.014.056.04.056.216v.1l.016.094a12.371,12.371,0,0,1,.061,1.655v4.3h6.068a.63.63,0,0,1,.179.019.84.84,0,0,1,.131.482A1.007,1.007,0,0,1,16.065,9.9Z" transform="translate(25.614 26.26) rotate(-137)" fill="#1944b6"/>
    </g>
    <g id="Grupo_1189829" data-name="Grupo 1189829" transform="translate(319.229 2053.597)">
      <path id="Trazado_878079" data-name="Trazado 878079" d="M53.355,77.334c-2.737-10.765-11.609-21.7-11.609-21.7a10.85,10.85,0,0,0-17.311,0s-9.572,11.766-11.9,22.9c-.06.277-.108.567-.157.844s-.1.627-.145.94-.084.675-.121,1.025c0,.591-.084,1.206-.084,1.748A21.073,21.073,0,0,0,45.5,100.142" transform="translate(0 3.478)" fill="none" stroke="#1d1d1b" stroke-miterlimit="10" stroke-width="2"/>
      <path id="Trazado_878080" data-name="Trazado 878080" d="M19.41,82.569v1.6A2.929,2.929,0,0,0,22.339,87.1h.675a2.929,2.929,0,0,0,2.073-.856l1.6-1.6a2.932,2.932,0,0,0-2.074-5H22.327a2.929,2.929,0,0,0-2.917,2.929Z" transform="translate(1.517 9.297)" fill="none" stroke="#1d1d1b" stroke-miterlimit="10" stroke-width="2"/>
      <path id="Trazado_878081" data-name="Trazado 878081" d="M22.316,56.29h8.849a2.29,2.29,0,0,1,1.615.675l1.206,1.206a2.291,2.291,0,0,1,0,3.231l-.868.868a2.291,2.291,0,0,0,0,3.231L35.4,67.779a2.29,2.29,0,0,1,.675,1.615v1.338a2.291,2.291,0,0,1-.675,1.615L34.19,73.553a2.29,2.29,0,0,1-3.231,0L29.3,71.89a2.291,2.291,0,0,1-.675-1.615,2.29,2.29,0,0,0-2.291-2.291H25.125a2.291,2.291,0,0,1-1.615-.675L17.59,64.138" transform="translate(1.143 4.498)" fill="none" stroke="#1d1d1b" stroke-miterlimit="10" stroke-width="2"/>
      <path id="Trazado_878082" data-name="Trazado 878082" d="M40.449,93.518l-1.386-1.386a3.339,3.339,0,0,1-.976-2.411V87.792a3.339,3.339,0,0,0-.976-2.411l-.663-.579a3.339,3.339,0,0,1-.976-2.411V77.569a3.333,3.333,0,1,1,6.667,0v2.869a3.339,3.339,0,0,0,.976,2.411" transform="translate(4.817 8.185)" fill="none" stroke="#1d1d1b" stroke-miterlimit="10" stroke-width="2"/>
      <path id="Trazado_878083" data-name="Trazado 878083" d="M74.916,87.226A21.073,21.073,0,0,0,95.989,66.153,11.881,11.881,0,0,0,95.9,64.4a7.206,7.206,0,0,0-.121-1.025c-.048-.338-.084-.615-.145-.928s-.1-.567-.157-.844c-2.327-11.139-11.9-22.9-11.9-22.9a10.85,10.85,0,0,0-17.3,0s-9.572,11.766-11.9,22.9c-.06.277-.108.567-.157.844s-.1.627-.145.94-.084.675-.121,1.025c0,.591-.084,1.206-.084,1.748a21.216,21.216,0,0,0,.3,3.617" transform="translate(8.601)" fill="none" stroke="#1d1d1b" stroke-miterlimit="10" stroke-width="2"/>
      <path id="Trazado_878084" data-name="Trazado 878084" d="M66.978,69.284l1.6-1.6A2.959,2.959,0,0,0,66.46,62.69H64.169a2.929,2.929,0,0,0-2.929,2.929" transform="translate(10.114 5.814)" fill="none" stroke="#1d1d1b" stroke-miterlimit="10" stroke-width="2"/>
      <path id="Trazado_878085" data-name="Trazado 878085" d="M64.141,39.34H72.99a2.291,2.291,0,0,1,1.615.675l1.206,1.206a2.29,2.29,0,0,1,0,3.231l-.868.868a2.29,2.29,0,0,0,0,3.231l2.278,2.278a2.291,2.291,0,0,1,.675,1.615v1.338a2.29,2.29,0,0,1-.675,1.615L76.016,56.6a2.29,2.29,0,0,1-3.231,0l-1.627-1.64a2.291,2.291,0,0,1-.663-1.567,2.291,2.291,0,0,0-2.29-2.291H67a2.29,2.29,0,0,1-1.615-.675L59.5,47.212" transform="translate(9.756 1.015)" fill="none" stroke="#1d1d1b" stroke-miterlimit="10" stroke-width="2"/>
      <path id="Trazado_878086" data-name="Trazado 878086" d="M83.5,77.772l-2.58-2.58a3.339,3.339,0,0,1-.976-2.411V70.852a3.339,3.339,0,0,0-.976-2.411l-.687-.639a3.339,3.339,0,0,1-.976-2.411V60.569a3.339,3.339,0,1,1,6.679,0v2.869a3.339,3.339,0,0,0,.976,2.411l4.171,4.183" transform="translate(13.415 4.692)" fill="none" stroke="#1d1d1b" stroke-miterlimit="10" stroke-width="2"/>
      <path id="Trazado_878087" data-name="Trazado 878087" d="M108.808,88.543l-5.232-5.232a1.615,1.615,0,0,0-2.291,0l-5.244,5.232a1.615,1.615,0,0,1-2.29,0l-5.232-5.232a1.615,1.615,0,0,0-2.291,0l-3.93,3.93a.485.485,0,0,1-.072.3,4.425,4.425,0,0,0-.157.844c-.048.277-.1.627-.145.94s-.084.675-.121,1.025c0,.591-.084,1.206-.084,1.748a21.1,21.1,0,1,0,42.193,0,11.881,11.881,0,0,0-.084-1.748,7.207,7.207,0,0,0-.121-1.025c-.048-.338-.084-.615-.145-.928v-.265l-4.822-4.822a1.615,1.615,0,0,0-2.291,0l-5.232,5.232a1.615,1.615,0,0,1-2.411,0Z" transform="translate(14.323 9.954)" fill="none" stroke="#1d1d1b" stroke-miterlimit="10" stroke-width="2"/>
      <path id="Trazado_878088" data-name="Trazado 878088" d="M89.11,95.379v1.6a2.929,2.929,0,0,0,2.929,2.929h.675a2.929,2.929,0,0,0,2.074-.856l1.6-1.6a2.932,2.932,0,0,0-2.074-5H92.039A2.929,2.929,0,0,0,89.11,95.379Z" transform="translate(15.842 11.93)" fill="none" stroke="#1d1d1b" stroke-miterlimit="10" stroke-width="2"/>
      <path id="Trazado_878089" data-name="Trazado 878089" d="M108.775,108.89a3.339,3.339,0,0,1-.976-2.411V104.55a3.339,3.339,0,0,0-.976-2.411l-.675-.675a3.339,3.339,0,0,1-.976-2.411V94.231a3.334,3.334,0,0,1,6.667.108v2.869a3.339,3.339,0,0,0,.976,2.411l2.58,2.58" transform="translate(19.143 11.632)" fill="none" stroke="#1d1d1b" stroke-miterlimit="10" stroke-width="2"/>
      <path id="Trazado_878090" data-name="Trazado 878090" d="M81.755,94.175a7.207,7.207,0,0,0-.121-1.025c-.048-.338-.084-.615-.145-.928s-.1-.567-.157-.844c-2.327-11.139-11.9-22.905-11.9-22.905a10.85,10.85,0,0,0-17.3,0s-9.572,11.766-11.9,22.905c-.06.277-.108.567-.157.844s-.1.627-.145.94-.084.675-.121,1.025c0,.591-.084,1.206-.084,1.748a21.1,21.1,0,1,0,42.193,0C81.839,95.308,81.8,94.766,81.755,94.175Z" transform="translate(5.693 6.119)" fill="none" stroke="#1d1d1b" stroke-miterlimit="10" stroke-width="2"/>
      <path id="Trazado_878091" data-name="Trazado 878091" d="M62.567,98.5v1.567A2.929,2.929,0,0,1,59.638,103h-.675a2.929,2.929,0,0,1-2.074-.856l-1.6-1.6a2.907,2.907,0,0,1,2.074-4.967h2.278A2.929,2.929,0,0,1,62.567,98.5Z" transform="translate(8.714 12.571)" fill="none" stroke="#1d1d1b" stroke-miterlimit="10" stroke-width="2"/>
      <path id="Trazado_878092" data-name="Trazado 878092" d="M69.87,72.06H62.046a2.821,2.821,0,0,0-1.989.832L58.43,74.4a2.821,2.821,0,0,0,0,3.99L59.5,79.462a2.821,2.821,0,0,1,0,3.99l-2.761,2.821a2.821,2.821,0,0,0-.832,1.989v1.652a2.821,2.821,0,0,0,.832,1.989L58.2,93.362a2.821,2.821,0,0,0,3.99,0l2.049-2.049a2.821,2.821,0,0,0,.832-1.989,2.821,2.821,0,0,1,2.821-2.869h1.386a2.821,2.821,0,0,0,1.989-.832L75.186,81.7" transform="translate(9.018 7.739)" fill="none" stroke="#1d1d1b" stroke-miterlimit="10" stroke-width="2"/>
      <path id="Trazado_878093" data-name="Trazado 878093" d="M54.013,65.34v7.39A4.069,4.069,0,0,1,47.081,75.6l-.711-.711" transform="translate(7.058 6.358)" fill="none" stroke="#1d1d1b" stroke-miterlimit="10" stroke-width="2"/>
      <path id="Trazado_878094" data-name="Trazado 878094" d="M47.132,107.51l2.58-2.592a3.339,3.339,0,0,0,.976-2.411v-1.929a3.339,3.339,0,0,1,.976-2.411l.675-.675a3.339,3.339,0,0,0,.976-2.411V90.259a3.339,3.339,0,0,0-6.679,0v2.869a3.339,3.339,0,0,1-.976,2.411L41.49,99.723" transform="translate(6.055 10.794)" fill="none" stroke="#1d1d1b" stroke-miterlimit="10" stroke-width="2"/>
    </g>
  </g>
</svg>
