<svg xmlns="http://www.w3.org/2000/svg" xmlns:xlink="http://www.w3.org/1999/xlink" width="177" height="152" viewBox="0 0 177 152">
  <defs>
    <filter id="Rectángulo_410122" x="0" y="0" width="177" height="152" filterUnits="userSpaceOnUse">
      <feOffset dy="3" input="SourceAlpha"/>
      <feGaussianBlur stdDeviation="3" result="blur"/>
      <feFlood flood-opacity="0.161"/>
      <feComposite operator="in" in2="blur"/>
      <feComposite in="SourceGraphic"/>
    </filter>
  </defs>
  <g id="Grupo_1202631" data-name="Grupo 1202631" transform="translate(-203.966 -3139)">
    <g transform="matrix(1, 0, 0, 1, 203.97, 3139)" filter="url(#Rectángulo_410122)">
      <rect id="Rectángulo_410122-2" data-name="Rectángulo 410122" width="159" height="134" rx="10" transform="translate(9 6)" fill="#26c790"/>
    </g>
    <g id="Grupo_1202623" data-name="Grupo 1202623" transform="translate(-9.348 2.281)">
      <g id="Grupo_1202622" data-name="Grupo 1202622" transform="translate(268.968 3164.576)">
        <g id="Grupo_1188468" data-name="Grupo 1188468" transform="translate(0 10.679)">
          <path id="Rectángulo_402603" data-name="Rectángulo 402603" d="M87.032,0h0a0,0,0,0,1,0,0V87.745a0,0,0,0,1,0,0H0a0,0,0,0,1,0,0v-.713A87.032,87.032,0,0,1,87.032,0Z" fill="#fedba6"/>
        </g>
        <path id="Trazado_874774" data-name="Trazado 874774" d="M9.269,0c.061,0,.124,0,.186.006a3.118,3.118,0,0,1,1.86.787,2.712,2.712,0,0,1,.953,2.026,12.886,12.886,0,0,1,.08,1.83V6.525h3.829a2.413,2.413,0,0,1,2.116,1.084,3.354,3.354,0,0,1,.537,1.843,3.164,3.164,0,0,1-.559,1.837A2.4,2.4,0,0,1,16.177,12.3H12.348v2.033a15.293,15.293,0,0,1-.079,1.972,2.464,2.464,0,0,1-1.035,2.026,3.121,3.121,0,0,1-3.7,0,2.481,2.481,0,0,1-1.036-2.123V12.3H2.978A2.9,2.9,0,0,1,.64,11.379,2.643,2.643,0,0,1,.02,9.315,3.392,3.392,0,0,1,.84,7.48a2.727,2.727,0,0,1,2.138-.955H6.495V2.93A2.7,2.7,0,0,1,7.531.573,2.944,2.944,0,0,1,9.269,0ZM16.33,8.88a.559.559,0,0,0-.153-.016H10.009V4.649A10.148,10.148,0,0,0,9.954,3.16l-.023-.114V2.93a.4.4,0,0,0-.138-.362.794.794,0,0,0-.483-.228h-.04a.607.607,0,0,0-.366.128,1.056,1.056,0,0,0-.07.463V8.864H2.978A.4.4,0,0,0,2.616,9a1.067,1.067,0,0,0-.273.586.313.313,0,0,0,.083.279,1.084,1.084,0,0,0,.552.094H8.834v6.246c0,.179.037.206.057.22a.787.787,0,0,0,.984,0c.02-.014.057-.041.057-.22v-.1l.016-.1a12.576,12.576,0,0,0,.062-1.682V9.962h6.168a.64.64,0,0,0,.182-.02.854.854,0,0,0,.133-.49A1.023,1.023,0,0,0,16.33,8.88Z" transform="translate(48.078 12.843) rotate(-43)" fill="#1944b6"/>
      </g>
      <g id="Grupo_1202621" data-name="Grupo 1202621" transform="translate(198.533 3156.719)">
        <path id="Trazado_1037054" data-name="Trazado 1037054" d="M142.955,13.459a12.742,12.742,0,0,0-8.324-6.342A10.305,10.305,0,0,0,124.845,0h-1.192a14.046,14.046,0,0,0-14.03,14.03v6.407a6.362,6.362,0,0,1-5.352,6.3,7.739,7.739,0,0,0-3.839-1.672A31.428,31.428,0,0,0,65.02,51.842a1.473,1.473,0,1,0,2.918.405,28.478,28.478,0,0,1,32.089-24.264,4.817,4.817,0,0,1,3.872,6.394l-.009.025-1.1,3.243a1.473,1.473,0,1,0,2.791.943l1.092-3.231a7.725,7.725,0,0,0-.386-6.1,9.3,9.3,0,0,0,6.277-8.819V14.03A11.1,11.1,0,0,1,123.653,2.946h1.192a7.351,7.351,0,0,1,7.342,7.343v2.173a5.175,5.175,0,0,1-5.169,5.169A6.372,6.372,0,0,0,120.654,24v1.292a1.473,1.473,0,0,0,2.946,0V24a3.422,3.422,0,0,1,3.419-3.419,8.09,8.09,0,0,0,5.842-2.491L141,17.113a2.533,2.533,0,0,0,1.958-3.655Zm-8.193,1.433a8.089,8.089,0,0,0,.372-2.429V10.381a9.481,9.481,0,0,1,4.905,3.879Z" transform="translate(-13.038)"/>
        <path id="Trazado_1037055" data-name="Trazado 1037055" d="M369.161,40.681a1.473,1.473,0,1,0-1.473,1.473A1.473,1.473,0,0,0,369.161,40.681Z" transform="translate(-255.084 -31.507)"/>
        <path id="Trazado_1037056" data-name="Trazado 1037056" d="M137.673,192.552a1.474,1.474,0,0,0-1.882.894l-1.411,3.965a1.473,1.473,0,1,0,2.776.988l1.411-3.965A1.474,1.474,0,0,0,137.673,192.552Z" transform="translate(-68.718 -154.662)"/>
        <path id="Trazado_1037057" data-name="Trazado 1037057" d="M196.407,175.732a1.474,1.474,0,0,0,1.388-.98l1.411-3.965a1.473,1.473,0,1,0-2.776-.987l-1.411,3.965a1.473,1.473,0,0,0,1.388,1.967Z" transform="translate(-117.445 -135.661)"/>
        <path id="Trazado_1037058" data-name="Trazado 1037058" d="M173.526,231.209a1.474,1.474,0,0,0,1.388-.98l1.411-3.965a1.473,1.473,0,0,0-2.776-.987l-1.411,3.965a1.474,1.474,0,0,0,1.388,1.967Z" transform="translate(-99.058 -180.24)"/>
        <path id="Trazado_1037059" data-name="Trazado 1037059" d="M98.253,251.4a1.474,1.474,0,0,0,1.388-.98l1.41-3.965a1.473,1.473,0,1,0-2.776-.987l-1.41,3.965a1.474,1.474,0,0,0,1.388,1.967Z" transform="translate(-38.571 -196.462)"/>
        <path id="Trazado_1037060" data-name="Trazado 1037060" d="M139.382,278.241l-1.41,3.965a1.473,1.473,0,1,0,2.776.987l1.411-3.965a1.473,1.473,0,0,0-2.776-.987Z" transform="translate(-71.603 -222.801)"/>
        <path id="Trazado_1037061" data-name="Trazado 1037061" d="M88.523,328.17l-1.41,3.965a1.473,1.473,0,1,0,2.776.988l1.41-3.965a1.473,1.473,0,0,0-2.776-.988Z" transform="translate(-30.734 -262.923)"/>
        <path id="Trazado_1037062" data-name="Trazado 1037062" d="M67.52,200.87a31.441,31.441,0,0,1-11.169,2.058,31.047,31.047,0,0,1-4.276-.295,3.819,3.819,0,0,1-3.258-4.308l2.255-16.243a1.473,1.473,0,1,1,2.918.405l-2.255,16.243a.873.873,0,0,0,.745.985,28.327,28.327,0,0,0,30.562-18.5L87.7,167.42a1.473,1.473,0,1,1,2.791.943L85.83,182.169l-.009.025a31.37,31.37,0,0,1-12.507,15.752h3.408a30.929,30.929,0,0,0,30.893-30.893V155.4a1.473,1.473,0,1,1,2.946,0v11.648a33.826,33.826,0,0,1-14.623,27.838l-1.087,6.991,3.028,10.291,3.055,3.638h2.715a1.473,1.473,0,1,1,0,2.946h-3.4a1.472,1.472,0,0,1-1.128-.526l-2.567-3.057-2.567,3.057a1.473,1.473,0,0,1-1.128.526h-3.4a1.473,1.473,0,0,1,0-2.946h2.715l2.746-3.269L91.932,202.4a1.476,1.476,0,0,1-.042-.642l.754-4.85a33.58,33.58,0,0,1-11.336,3.675l-.479,3.366L84.381,217.7l3.038,3.619h2.715a1.473,1.473,0,0,1,0,2.946h-3.4a1.472,1.472,0,0,1-1.128-.526l-2.567-3.057-2.567,3.057a1.473,1.473,0,0,1-1.128.526h-3.4a1.473,1.473,0,0,1,0-2.946h2.715l2.766-3.293L77.9,204.4a1.472,1.472,0,0,1-.032-.576l.422-2.968Z" transform="translate(0 -123.695)"/>
      </g>
    </g>
  </g>
</svg>
