<svg xmlns="http://www.w3.org/2000/svg" width="89.012" height="86" viewBox="0 0 89.012 86">
  <g id="Grupo_1202625" data-name="Grupo 1202625" transform="translate(-608.954 -3954)">
    <g id="Grupo_1202507" data-name="Grupo 1202507" transform="translate(608.954 3954)">
      <g id="Grupo_1188468" data-name="Grupo 1188468" transform="translate(0 9.331)">
        <path id="Rectángulo_402603" data-name="Rectángulo 402603" d="M0,0H0A76.046,76.046,0,0,1,76.046,76.046v.623a0,0,0,0,1,0,0H0a0,0,0,0,1,0,0V0A0,0,0,0,1,0,0Z" fill="#a7e8d2"/>
      </g>
      <path id="Trazado_874774" data-name="Trazado 874774" d="M8.1,16.549c.054,0,.108,0,.162-.005a2.724,2.724,0,0,0,1.625-.688,2.369,2.369,0,0,0,.833-1.77,11.26,11.26,0,0,0,.07-1.6v-1.64h3.346A2.108,2.108,0,0,0,15.984,9.9a2.93,2.93,0,0,0,.469-1.61,2.765,2.765,0,0,0-.489-1.605,2.1,2.1,0,0,0-1.83-.884H10.79V4.025A13.362,13.362,0,0,0,10.72,2.3a2.153,2.153,0,0,0-.9-1.77,2.727,2.727,0,0,0-3.235,0,2.167,2.167,0,0,0-.906,1.855V5.8H2.6a2.537,2.537,0,0,0-2.043.805,2.309,2.309,0,0,0-.542,1.8,2.964,2.964,0,0,0,.717,1.6,2.383,2.383,0,0,0,1.868.835H5.675v3.141a2.36,2.36,0,0,0,.906,2.06A2.572,2.572,0,0,0,8.1,16.549Zm6.17-7.759a.488.488,0,0,1-.134.014H8.746v3.683a8.867,8.867,0,0,1-.048,1.3l-.02.1v.1a.349.349,0,0,1-.121.316.694.694,0,0,1-.422.2H8.1a.53.53,0,0,1-.32-.112.923.923,0,0,1-.061-.4V8.8H2.6a.349.349,0,0,1-.316-.121.932.932,0,0,1-.239-.512.274.274,0,0,1,.072-.244A.947.947,0,0,1,2.6,7.845H7.719V2.387c0-.157.032-.18.05-.192a.687.687,0,0,1,.859,0c.017.012.05.036.05.192v.085l.014.083a10.988,10.988,0,0,1,.054,1.47v3.82h5.39a.559.559,0,0,1,.159.017.746.746,0,0,1,.116.428A.894.894,0,0,1,14.269,8.79Z" transform="translate(22.751 23.325) rotate(-137)" fill="#1944b6"/>
    </g>
    <g id="Grupo_1202624" data-name="Grupo 1202624" transform="translate(620.966 3925.17)">
      <g id="Page-1_34_" transform="translate(0 38.83)">
        <g id="_x30_35---Quail" transform="translate(0 0)">
          <path id="Shape_115_" d="M0,92.734a1.283,1.283,0,0,0,.065.406,7.508,7.508,0,0,0,6.717,4.691c.923,2.061,3.372,4.637,8.1,3.993a7.018,7.018,0,0,0,8.168,1.333,9.216,9.216,0,0,0,4.056.993,7.736,7.736,0,0,0,3.794-.988c2.327.914,6.386,1.412,8.675-2.015a1.283,1.283,0,0,0,0-1.422,16.636,16.636,0,0,1-2.351-8.274c0-3.594,1.4-10.2,10.773-14.222a13.629,13.629,0,0,0,6.642-5.684c2.322-.494,5.491-.92,7.541.447a1.283,1.283,0,0,0,1.983-1.249c-.013-.085-1.128-7.174-7.459-10.183a27.878,27.878,0,0,0-1.205-9.088c2.834-1.008,6.137-.77,7.776.655,1.1.959,1.337,2.4.711,4.271-1.4,4.185-1.459,6.947-.2,8.691s3.481,1.983,5.262,1.983a7.393,7.393,0,0,0,5.8-2.458c1.94-2.238,2.578-5.791,1.9-10.563-.642-4.492-2.279-7.735-4.868-9.626C69.24,42.5,65.732,41.937,61.135,42.7a28.468,28.468,0,0,0-8.856,2.774c-3.55-4.4-9.028-6.648-16.343-6.648C12.488,38.83,0,56.718,0,69.632ZM60.939,68.745a19.29,19.29,0,0,0-8.305.612,13,13,0,0,1-1.3.276,1.768,1.768,0,0,1-1.292-.7,3.181,3.181,0,0,1-.056-2.739,8.18,8.18,0,0,1,2.9-4.2,10.482,10.482,0,0,1,8.052,6.752Zm.62-23.511c3.875-.642,6.752-.234,8.794,1.262s3.295,4.083,3.843,7.921c.563,3.945.114,6.889-1.3,8.517a4.84,4.84,0,0,1-3.85,1.57c-1.724,0-2.736-.291-3.187-.916-.49-.68-.793-2.34.553-6.377,1.294-3.87-.357-6.058-1.457-7.019-2.37-2.07-6.646-2.472-10.389-1.109-.246-.526-.513-1.027-.785-1.5a26.98,26.98,0,0,1,7.775-2.352ZM2.567,69.632C2.567,58.091,14.45,41.4,35.936,41.4c6.943,0,11.987,2.182,15,6.479A15.729,15.729,0,0,1,52.7,51.2a23.758,23.758,0,0,1,1.448,8.45c-.434-.105-.869-.208-1.34-.275a1.261,1.261,0,0,0-.756.122,10.158,10.158,0,0,0-4.492,5.876,5.344,5.344,0,0,0,.411,5.052,4.338,4.338,0,0,0,2.96,1.744,11.946,11.946,0,0,1-3.941,2.7c-10.73,4.6-12.331,12.362-12.331,16.582a19.157,19.157,0,0,0,2.293,8.865c-2.024,1.964-5.419.329-5.57.257a1.283,1.283,0,0,0-1.283.081,5.917,5.917,0,0,1-6.276,0,1.284,1.284,0,0,0-1.283-.081c-3.945,1.971-5.86-.561-6.059-.847a1.283,1.283,0,0,0-1.319-.547c-5.005,1-6.1-2.51-6.2-2.9A1.284,1.284,0,0,0,7.7,95.3a5.262,5.262,0,0,1-5.134-2.816V69.632Z" transform="translate(0 -38.83)"/>
          <path id="Shape_114_" d="M227,141.237a5.134,5.134,0,1,0,5.134,5.134A5.134,5.134,0,0,0,227,141.237Zm0,7.7a2.567,2.567,0,1,1,2.567-2.567A2.567,2.567,0,0,1,227,148.938Z" transform="translate(-188.498 -125.835)"/>
          <path id="Shape_113_" d="M112.218,107.006a1.271,1.271,0,0,0,.572-.135c.077-.039,7.729-3.85,14.022-6.374,5.994-2.4,13.355-1.221,13.43-1.209a1.284,1.284,0,0,0,.422-2.532c-.33-.054-8.132-1.31-14.807,1.358-6.393,2.557-14.137,6.417-14.214,6.461a1.283,1.283,0,0,0,.575,2.431Z" transform="translate(-94.249 -87.754)"/>
          <path id="Shape_112_" d="M154.848,201.038a2.415,2.415,0,0,1-2.567-2.567,1.284,1.284,0,0,0-.878-1.217,2.609,2.609,0,0,1-1.754-3.51,1.284,1.284,0,0,0-.15-1.118c-1.889-2.835-.332-4.62-.16-4.8a1.284,1.284,0,0,0,.16-1.618,3.184,3.184,0,0,1,.928-4.638,1.283,1.283,0,0,0,.506-1.473c-.286-.856-.06-1.17.013-1.275a3.9,3.9,0,0,1,2.62-.887,1.283,1.283,0,1,0,0-2.567c-.338,0-3.337.055-4.7,1.951a3.557,3.557,0,0,0-.589,2.689,5.635,5.635,0,0,0-1.385,6.814,6.356,6.356,0,0,0,.157,6.724,5.121,5.121,0,0,0,2.744,5.819,4.9,4.9,0,0,0,5.057,4.239,1.283,1.283,0,1,0,0-2.567Z" transform="translate(-124.045 -154.833)"/>
        </g>
      </g>
    </g>
  </g>
</svg>
