<svg id="Grupo_1202322" data-name="Grupo 1202322" xmlns="http://www.w3.org/2000/svg" width="99" height="99" viewBox="0 0 99 99">
  <rect id="Rectángulo_409958" data-name="Rectángulo 409958" width="99" height="99" fill="none"/>
  <g id="Grupo_1202323" data-name="Grupo 1202323" transform="translate(6.385 20)">
    <path id="Trazado_1036833" data-name="Trazado 1036833" d="M-1127.334,987.209l-49.472,9.153v36.892c1.383-.506,2.672-.991,3.972-1.451q22.26-7.878,44.528-15.731a1.373,1.373,0,0,0,1.105-1.536c-.071-7.189-.1-14.379-.131-21.569C-1127.341,991.154-1127.334,989.341-1127.334,987.209Zm-39.875,29.786-.134-.563a10.328,10.328,0,0,1,1.232-.537c3.357-.986,6.726-1.932,10.08-2.93,6.781-2.019,13.552-4.074,20.339-6.074a4.8,4.8,0,0,1,1.566.084,6.282,6.282,0,0,1-1.27.834c-1.1.392-2.231.678-3.349,1.009q-13.475,3.992-26.953,7.974A9.726,9.726,0,0,1-1167.209,1016.995Zm.441-8.041-.584-.4a3.452,3.452,0,0,1,.489-.567,1.6,1.6,0,0,1,.566-.193q13.764-3.591,27.529-7.177c1.284-.335,2.57-.666,3.866-.951.191-.042.441.184.664.286a1.919,1.919,0,0,1-.386.536,2.248,2.248,0,0,1-.683.211q-11.712,3.117-23.425,6.228C-1161.336,1007.619-1163.957,1008.249-1166.767,1008.954Z" transform="translate(1211.783 -975.867)" fill="#e6c98a"/>
    <path id="Trazado_1036834" data-name="Trazado 1036834" d="M-1162.554,949.635q12.018-1.378,24.039-2.732c7.3-.81,14.6-1.583,21.9-2.36a8.758,8.758,0,0,1,4.264.295c7.379,2.818,14.8,5.514,22.213,8.253l2.33.864-.071.27c-3.572.614-7.151,1.184-10.713,1.849-11.8,2.2-23.594,4.449-35.4,6.647a4.062,4.062,0,0,1-2.1-.078q-14.987-5.8-29.937-11.7c-.342-.134-.661-.325-.99-.489A27.234,27.234,0,0,1-1162.554,949.635Z" transform="translate(1170.019 -943.45)" fill="#e0c286"/>
    <path id="Trazado_1036835" data-name="Trazado 1036835" d="M-967.959,979.14c0-2.6,0-5.208,0-7.827a1.563,1.563,0,0,1,.294.064q15.628,6.2,31.263,12.375a1.436,1.436,0,0,1,1.067,1.583c.037,7.671.132,15.341.184,23.011.028,4.113.005,8.227.005,12.4a1.86,1.86,0,0,1-.428-.03q-15.833-7.542-31.668-15.08a1.217,1.217,0,0,1-.784-1.3Q-967.963,991.736-967.959,979.14Zm2.4,23.552c0,.851.5,1.1,1.1,1.376q9.217,4.282,18.434,8.566c2.671,1.238,5.354,2.45,8.036,3.666,1.152.523,1.291.4,1.284-.847-.053-9.326-.114-18.653-.107-27.979,0-1.016-.578-1.2-1.254-1.473q-8.138-3.262-16.275-6.527-4.938-1.982-9.875-3.964c-.4-.16-.813-.287-1.428-.5-.059.535-.125.847-.123,1.158C-965.694,985.008-965.6,993.85-965.556,1002.692Z" transform="translate(969.108 -963.824)" fill="#bc9d68"/>
    <path id="Trazado_1036836" data-name="Trazado 1036836" d="M-1181.063,964.671q0-8.173,0-16.346c0-1.612.047-1.754,1.589-1.957,2.832-.372,5.672-.687,8.509-1.023q5.753-.683,11.506-1.362c3.12-.363,6.242-.708,9.364-1.058q5.042-.566,10.084-1.126c3.562-.39,7.122-.8,10.69-1.132,2.3-.211,4.57-.575,6.9.387,4.339,1.8,8.781,3.342,13.188,4.973,4.1,1.519,8.211,3.036,12.334,4.5,1.057.376,1.575.911,1.432,2.1a28.945,28.945,0,0,0-.118,3.507c.024,7.712.04,15.424.119,23.135a1.984,1.984,0,0,1-1.58,2.256q-23.378,8.19-46.7,16.537a6.233,6.233,0,0,1-5.4-.273c-10.063-4.959-20.217-9.735-30.36-14.53a2.238,2.238,0,0,1-1.526-2.367c.074-5.409.031-10.82.031-16.23Zm85.024,5.1-.062-.018Zm-50.052,28.039c1.383-.506,2.672-.991,3.971-1.451q22.26-7.878,44.528-15.731a1.373,1.373,0,0,0,1.105-1.536c-.071-7.189-.1-14.379-.132-21.569-.009-1.812,0-3.625,0-5.757l-49.472,9.153Zm1.052-38.117c11.8-2.2,23.595-4.443,35.4-6.647,3.562-.665,7.141-1.235,10.713-1.849l.071-.27-2.33-.864c-7.409-2.739-14.834-5.435-22.213-8.253a8.758,8.758,0,0,0-4.264-.294c-7.3.777-14.6,1.55-21.9,2.36q-12.023,1.334-24.039,2.732a27.241,27.241,0,0,0-4.46.821c.329.164.649.355.99.489q14.961,5.867,29.937,11.7A4.061,4.061,0,0,0-1145.038,959.69Zm-34.163,22.543q15.841,7.524,31.668,15.08a1.855,1.855,0,0,0,.428.03c0-4.172.023-8.286-.005-12.4-.052-7.671-.147-15.341-.184-23.011a1.436,1.436,0,0,0-1.067-1.583q-15.645-6.153-31.263-12.375a1.558,1.558,0,0,0-.294-.064c0,2.619,0,5.222,0,7.827q-.022,12.6-.066,25.193A1.217,1.217,0,0,0-1179.2,982.233Z" transform="translate(1181.067 -940.42)"/>
    <path id="Trazado_1036837" data-name="Trazado 1036837" d="M-1148.1,1078.348a9.717,9.717,0,0,0,1.51-.2q13.481-3.971,26.953-7.974c1.119-.331,2.253-.618,3.349-1.009a6.285,6.285,0,0,0,1.27-.834,4.794,4.794,0,0,0-1.566-.084c-6.787,2-13.558,4.055-20.339,6.074-3.354,1-6.723,1.943-10.08,2.93a10.324,10.324,0,0,0-1.231.537Z" transform="translate(1192.676 -1037.219)"/>
    <path id="Trazado_1036838" data-name="Trazado 1036838" d="M-1147.2,1047.878c2.811-.706,5.431-1.335,8.036-2.023q11.718-3.1,23.425-6.228a2.242,2.242,0,0,0,.683-.211,1.916,1.916,0,0,0,.386-.536c-.223-.1-.473-.328-.664-.286-1.3.285-2.582.616-3.866.951q-13.766,3.584-27.529,7.177a1.6,1.6,0,0,0-.566.193,3.448,3.448,0,0,0-.489.567Z" transform="translate(1192.213 -1014.79)"/>
    <path id="Trazado_1036839" data-name="Trazado 1036839" d="M-961.437,986.554c.615.215,1.028.342,1.428.5q4.94,1.977,9.875,3.964l16.275,6.527c.675.271,1.254.456,1.254,1.473-.007,9.326.054,18.653.107,27.979.007,1.251-.131,1.37-1.284.847-2.682-1.216-5.365-2.429-8.036-3.666q-9.221-4.272-18.434-8.566c-.6-.278-1.094-.525-1.1-1.376-.046-8.842-.137-17.684-.209-26.526C-961.563,987.4-961.5,987.089-961.437,986.554Zm27.677,12.891c-.01-.351-.562-.835-.968-1-4.293-1.766-8.607-3.483-12.917-5.208-.687-.275-1.374-.546-2.061-.82-.2-.3-.409-.606-.624-.9.215.3.422.6.624.9q-2.907-1.16-5.815-2.314c-.4-.16-.826-.274-1.342-.443v23.292c1-.521,2.294-.23,2.521-1.764.033-.227.69-.486,1.075-.515,1.085-.082,2.188.026,3.267-.1a2.682,2.682,0,0,0,1.77-.715,3.427,3.427,0,0,1,1.954-1.194,1.434,1.434,0,0,0,.735-.987c.131-.964.486-1.559,1.191-1.725.026.114.054.229.08.343-.026-.115-.054-.229-.08-.343a2.454,2.454,0,0,1,1,.006c2.34.428,4.654,1.006,6.978,1.523.821.183,1.64.372,2.652.6C-933.716,1005.083-933.681,1002.263-933.76,999.445Zm-.982,9.34c-2.683-.556-5.357-1.156-8.037-1.732a1.862,1.862,0,0,0-.834-.081,2.55,2.55,0,0,0-.706.5c.163.188.293.474.5.546.567.2,1.187.258,1.743.479a2.038,2.038,0,0,1,.92.9c-1.67.3-3.345-1.051-4.855.343.031.067.043.155.093.193.474.361,1.434.381,1.167,1.243-.077.249-.957.333-1.472.346-1.814.049-3.63.029-5.446.046-.424,0-.847.05-1.516.092.966.954,2.455.654,3.1,2.115l-4.2-.293-.091.482,20.673,9.477c.035-.594.081-1.01.081-1.425.006-3.914-.025-7.828.026-11.742C-933.585,1009.374-933.885,1008.963-934.742,1008.785Zm1.034,17.925c.348-1.387.067-2.077-1.174-2.624-6.968-3.073-13.92-6.188-20.793-9.466a3.931,3.931,0,0,0-3.925.226Zm-26.613-12.827c2.321-.611,2.3-.611,2.312-2.665.025-6.579.121-13.158.068-19.736-.024-3.018.529-2.124-2.38-3.286C-960.321,996.723-960.321,1005.247-960.321,1013.884Z" transform="translate(964.902 -975.371)"/>
    <path id="Trazado_1036840" data-name="Trazado 1036840" d="M-954.507,1011.55c4.31,1.725,8.623,3.442,12.917,5.208.406.167.958.652.968,1,.079,2.818.044,5.638.044,8.64-1.012-.23-1.831-.42-2.652-.6-2.324-.517-4.637-1.095-6.978-1.523a2.457,2.457,0,0,0-1-.005,40.765,40.765,0,0,0-5.356-13.54C-955.881,1011-955.193,1011.275-954.507,1011.55Z" transform="translate(971.763 -993.686)" fill="#9b7b4c"/>
    <path id="Trazado_1036841" data-name="Trazado 1036841" d="M-911.327,999.8q2.91,1.151,5.815,2.314a40.766,40.766,0,0,1,5.356,13.539c-.7.166-1.06.76-1.191,1.725a1.435,1.435,0,0,1-.735.987,3.428,3.428,0,0,0-1.954,1.194,2.682,2.682,0,0,1-1.77.715c-1.079.122-2.182.014-3.267.1-.385.029-1.042.287-1.075.515-.227,1.534-1.519,1.243-2.521,1.764V999.357C-912.153,999.526-911.731,999.64-911.327,999.8Z" transform="translate(920.707 -985.07)" fill="#aa8450"/>
    <path id="Trazado_1036842" data-name="Trazado 1036842" d="M-952.74,1077.508l-4.2-.293-.091.482,20.673,9.477c.035-.594.081-1.01.081-1.425.006-3.914-.025-7.828.026-11.742.012-.9-.288-1.314-1.146-1.491-2.683-.556-5.357-1.156-8.037-1.732a1.86,1.86,0,0,0-.834-.081,2.552,2.552,0,0,0-.706.5c.163.188.293.474.5.546.567.2,1.187.258,1.743.479a2.038,2.038,0,0,1,.92.9c-1.67.3-3.345-1.051-4.855.343.031.067.043.155.093.193.474.361,1.434.381,1.167,1.243-.077.249-.957.333-1.472.346-1.814.048-3.63.029-5.446.046-.424,0-.847.05-1.516.092C-954.874,1076.347-953.386,1076.047-952.74,1077.508Z" transform="translate(967.556 -1039.1)" fill="#cd9826"/>
    <path id="Trazado_1036843" data-name="Trazado 1036843" d="M-856.716,1019.023c2.321-.611,2.3-.611,2.312-2.665.024-6.579.121-13.158.068-19.736-.024-3.018.529-2.124-2.38-3.285C-856.716,1001.862-856.716,1010.386-856.716,1019.023Z" transform="translate(861.297 -980.509)" fill="#7d6640"/>
    <path id="Trazado_1036844" data-name="Trazado 1036844" d="M-931.247,1113.1c.348-1.387.067-2.077-1.174-2.624-6.968-3.073-13.92-6.188-20.793-9.465a3.932,3.932,0,0,0-3.925.226Z" transform="translate(962.441 -1061.756)" fill="#7d6640"/>
  </g>
</svg>
