<svg xmlns="http://www.w3.org/2000/svg" width="99" height="99" viewBox="0 0 99 99">
  <g id="Grupo_1202324" data-name="Grupo 1202324" transform="translate(-395.051 -2754)">
    <rect id="Rectángulo_409958" data-name="Rectángulo 409958" width="99" height="99" transform="translate(395.051 2754)" fill="none"/>
    <g id="Grupo_1202327" data-name="Grupo 1202327" transform="translate(990.401 1573.604)">
      <path id="Trazado_1036852" data-name="Trazado 1036852" d="M-536.643,1290.7c3.925,2.025,7.582,3.946,11.27,5.8,3.6,1.816,7.236,3.577,10.865,5.343,1.134.552,1.948,1.418,1.483,2.653-1.453,3.856-1.355,7.934-1.943,11.913-.12.812.025,2.072-1.11,2.056-1.27-.017-1.127-1.332-1.094-2.189.116-2.963.266-5.93.56-8.88.292-2.929.375-2.921-2.888-4.009-.452,1.663-1,3.3-1.324,4.975s-.43,3.378-.639,5.069a2.422,2.422,0,0,1-.2.991,7.643,7.643,0,0,1-1,1.063c-.3-.386-.825-.755-.853-1.159a39.773,39.773,0,0,1-.087-5.264c.136-2.084.461-4.158.758-6.229.119-.834-.034-1.416-.884-1.738-.672-.255-1.315-.585-2.358-1.058-.424,2.316-.843,4.424-1.187,6.543-.25,1.537-.334,3.1-.638,4.629-.095.476-.664.857-1.016,1.281-.326-.476-.95-.964-.932-1.427.14-3.592.262-7.2.7-10.759.172-1.4.008-2.12-1.317-2.533a14.789,14.789,0,0,1-1.691-.821c-.549,2.384-1.131,4.611-1.557,6.868-.242,1.286-.185,2.625-.353,3.929-.087.676-.1,1.72-1.11,1.5a1.994,1.994,0,0,1-1.033-1.591,78.545,78.545,0,0,1,.641-10.045c.29-1.825-.234-2.621-1.709-3.215l-1.4-.566c-.516,2.646-1.028,5.135-1.475,7.635-.171.957-.091,1.964-.319,2.9-.15.616-.6,1.59-1,1.628-.91.089-1.048-.826-1.025-1.584.1-3.4.164-6.809.374-10.206.138-2.242-.248-2.856-2.691-3.31a24.761,24.761,0,0,0-1.807,8.471,8.127,8.127,0,0,1-.171,2.028c-.177.486-.748.827-1.145,1.233-.312-.432-.836-.837-.9-1.3a21.629,21.629,0,0,1-.178-3.944c.14-2.574.426-5.14.6-7.713a1.364,1.364,0,0,0-.456-1.052,17.349,17.349,0,0,0-2.16-1.086c-1.321,1.953-1.466,4.138-1.732,6.277-.163,1.305-.116,2.645-.372,3.927-.12.6-.734,1.1-1.124,1.647-.352-.551-1.018-1.108-1.007-1.652.071-3.5.246-7.008.481-10.505.095-1.411-.106-1.686-1.867-2.168-1.3-.357-1.419.623-1.567,1.351-.494,2.426-.87,4.875-1.3,7.314a3.952,3.952,0,0,1-.346,1.382c-.2.316-.761.707-1,.621a1.448,1.448,0,0,1-.857-1c-.13-4.483-.258-8.978,1.186-13.32.416-1.251,1.2-1.576,2.536-.963,4.331,1.983,8.66,3.972,12.939,6.061a2.58,2.58,0,0,0,3.012-.2q23.858-16.65,47.769-33.225c3.182-2.211,5.917-1.193,6.984,2.558a1.758,1.758,0,0,1-.833,2.208q-17.629,11.9-35.235,23.836C-527.728,1284.618-532.062,1287.579-536.643,1290.7Zm1.079-2.289c.471-.311.957-.626,1.437-.951q12.905-8.759,25.811-17.517c6.3-4.271,12.627-8.516,18.926-12.8.4-.271.947-.744.941-1.115a2.754,2.754,0,0,0-4.372-2.36c-.458.279-.9.591-1.338.9q-18.112,12.562-36.222,25.127c-2.557,1.775-5.1,3.566-7.624,5.331Zm-12.613,11.1.434.087c.089-.759.135-1.526.276-2.275.407-2.152.794-4.31,1.326-6.432a1.865,1.865,0,0,1,1.22-1.181,3.834,3.834,0,0,1,3.969,4.211c-.332,3.085-.58,6.179-.864,9.269l.425.045c.032-.273.05-.548.1-.818.493-2.726.929-5.465,1.513-8.172.316-1.466.974-1.759,2.346-1.117,3.6,1.686,3.55,1.857,2.9,5.136a9.741,9.741,0,0,0-.19,1.007c-.208,2.313-.4,4.628-.6,6.942l.457.034a10.723,10.723,0,0,1,.019-2.025c.448-2.29.923-4.577,1.516-6.832a1.993,1.993,0,0,1,1.205-1.28c2.249-.369,4.432,2.141,4.082,4.411-.449,2.917-.77,5.854-1.146,8.783l.474.062c.095-.754.157-1.513.29-2.26.39-2.207.739-4.426,1.239-6.609.362-1.58.967-1.845,2.455-1.155,2.453,1.137,3.585,1.555,2.8,4.7a7.774,7.774,0,0,0-.171,1.157c-.2,2.177-.393,4.356-.587,6.534.569-2.053.81-4.145,1.368-6.149.983-3.529.9-4.276,5.053-2.006.628.343.947,1.456,1.162,2.277.132.5-.258,1.123-.328,1.7-.327,2.709-.624,5.422-.932,8.133l.462.048c.028-.182.06-.364.084-.547.449-3.283.722-6.6,1.426-9.832.315-1.445.043-1.988-1.161-2.579-5.127-2.515-10.21-5.12-15.326-7.657q-13.38-6.636-26.785-13.223c-1.58-.776-1.789-.631-2.153,1.044a20.5,20.5,0,0,0-.489,2.588c-.209,2.465-.348,4.935-.515,7.4.653-2.5,1.133-4.972,1.724-7.422a2.479,2.479,0,0,1,1.013-1.515c1.826-.939,4.644,1.072,4.449,3.116-.139,1.457-.428,2.9-.508,4.361-.09,1.624-.021,3.256-.021,4.885a10.667,10.667,0,0,0,.251-1.67c.371-2.2.7-4.422,1.223-6.592a2.306,2.306,0,0,1,1.4-1.456c2.106-.464,4.193,1.743,3.947,3.854C-547.684,1293.484-547.9,1296.5-548.177,1299.5Zm6.221-11.529c1.071.512,1.857.889,2.645,1.265a6.494,6.494,0,0,0,.929.427c.9.264,1.36.017,1.051-1a8.877,8.877,0,0,0-.405-1.247c-.645-1.355-1.172-1.49-2.44-.656C-540.7,1287.1-541.211,1287.464-541.956,1287.974Z" transform="translate(-17.344 -46.318)"/>
      <path id="Trazado_1036853" data-name="Trazado 1036853" d="M-545.532,1205.1c-.633,1.449-1.178,2.619-1.646,3.819a2.181,2.181,0,0,0-.031,1.143c.5,2.576.984,5.156,1.569,7.713.255,1.115.019,1.632-1.136,2.008-7.429,2.421-14.829,4.928-22.244,7.393a6.875,6.875,0,0,1-5.725-.6c-3.428-1.826-7-3.383-10.549-4.979-1-.448-1.26-.913-.909-1.993a65.226,65.226,0,0,0,1.7-6.323,3.822,3.822,0,0,0-.314-2.162,4.073,4.073,0,0,1,2.388-5.729c6-1.791,12.03-3.5,18.041-5.263a12.3,12.3,0,0,1,6.9.323c2.27.637,4.153.85,6.034-1.168,1.928-2.069,4.809-2.663,7.438-3.514q13.859-4.49,27.743-8.9c2.839-.907,3.988-.516,4.8,1.536a4.739,4.739,0,0,1-2.406,6.019c-2.71,1.069-5.471,2.014-8.236,2.936C-530.071,1200-538.041,1202.621-545.532,1205.1Zm-38.073,3.769c-.475,1.53.244,2.277,1.666,2.794,2.512.915,4.966,1.992,7.44,3.01a7.434,7.434,0,0,0,5.141.429c6.875-2.14,13.73-4.348,20.61-6.474a1.786,1.786,0,0,0,1.458-2.144c-.148-1.223-.062-2.566-1.783-2.929-3.375-.714-6.714-1.609-10.1-2.262a10.607,10.607,0,0,0-4.461-.133c-6.028,1.542-11.991,3.339-18,4.964C-583.135,1206.527-584.01,1207.175-583.6,1208.866Zm31.043-7.2a22.3,22.3,0,0,1,2.754.49c1.08.337,2.105.846,3.166,1.25.467.177,1.037.5,1.437.376,6.259-1.995,12.513-4.008,18.736-6.113,3.964-1.341,7.889-2.8,11.8-4.284a3.659,3.659,0,0,0,1.957-4.518c-.486-1.35-1.572-1.627-3.714-.95l-.14.044c-8.845,2.852-17.7,5.685-26.531,8.567C-546.461,1197.622-549.926,1198.58-552.562,1201.662Zm-20.93,14.428-.389.226c-.438,2.194-.86,4.392-1.32,6.583-.424,2.022-.442,2.018,1.74,2.818.269-2.943.558-5.835.759-8.734C-572.683,1216.7-573.216,1216.389-573.492,1216.09Zm4.255,9.875c2.09-.253,2.078-.251,1.882-2-.092-.822-.115-1.651-.188-2.475-.156-1.768-.323-3.535-.486-5.3l-.421-.153c-.263.3-.748.6-.753.9C-569.259,1219.936-569.237,1222.941-569.237,1225.966Zm3.192-.995c1.366,0,1.769-.43,1.6-1.63-.373-2.586-.581-5.2-.87-7.918l-1.593.375C-566.617,1218.929-566.334,1221.924-566.045,1224.971Zm1.816-10.011,1.013,9.147.368.261c.4-.4,1.177-.831,1.148-1.2-.228-2.839-.612-5.665-.961-8.606Zm-6.171,11.471c0-3.073.014-6.024-.023-8.975,0-.286-.328-.569-.5-.853-.212.259-.582.5-.61.78-.3,2.982-.547,5.97-.816,9.048Zm16.542-5.356c-.467-3.061-.906-5.94-1.363-8.934l-1.543.516,1.372,8.887Zm-6.608,2.1c1.331.067,1.635-.453,1.379-1.445a11.691,11.691,0,0,1-.195-1.3q-.464-3.289-.927-6.577l-.48-.162c-.247.4-.735.813-.7,1.184C-561.144,1217.631-560.792,1220.375-560.467,1223.175Zm-20.868-1.363,1.524-7.854-1.342-.519c-.527,2.275-.992,4.462-1.551,6.625C-583,1221.207-582.592,1221.7-581.335,1221.812Zm28.519-10.2-.453-.227c-.241.324-.721.678-.685.968.337,2.734.763,5.457,1.163,8.183l.535.162c.263-.391.8-.82.748-1.168C-551.881,1216.881-552.366,1214.249-552.816,1211.612Zm2.284-1.384c-.538.64-1.046.978-1.008,1.239.358,2.5.79,4.99,1.259,7.471.049.259.48.444.734.664.171-.3.526-.628.484-.894C-549.488,1216.032-549.977,1213.367-550.532,1210.228Zm-27.624,4.114-.585.2c-.452,2.483-.94,4.96-1.313,7.454-.049.327.49.741.757,1.115a53.813,53.813,0,0,0,1.755-7.521C-577.479,1215.217-577.938,1214.759-578.156,1214.342Zm20.334-1.216-.467-.2c-.221.34-.665.706-.629,1.017.324,2.788.732,5.567,1.116,8.348l.476.156c.214-.37.649-.765.609-1.1C-557.036,1218.6-557.442,1215.864-557.822,1213.126Zm-19.235,11.053.4-.158c.5-2.477,1.046-4.948,1.476-7.439.068-.4-.365-.878-.567-1.32l-.522.137c-.483,2.576-.993,5.147-1.411,7.733C-577.732,1223.439-577.278,1223.828-577.057,1224.178Zm28.7-14.424c-1.019.6-.54,5.309.855,9.369.348-.46.823-.812.777-1.072C-547.216,1215.3-547.79,1212.558-548.355,1209.754Zm-36.124,10.989.58-.195c.478-2.276.979-4.548,1.409-6.833.06-.32-.232-.706-.361-1.061-.224.264-.57.494-.652.8-.533,1.965-1.054,3.937-1.467,5.93C-585.052,1219.784-584.655,1220.287-584.479,1220.743Z" transform="translate(0 0)"/>
      <path id="Trazado_1036854" data-name="Trazado 1036854" d="M-478.13,1291.427l-2.443-3.384c2.523-1.765,5.068-3.557,7.624-5.331q18.108-12.568,36.222-25.127c.441-.306.88-.618,1.338-.9a2.754,2.754,0,0,1,4.372,2.36c.006.371-.543.845-.941,1.115-6.3,4.279-12.621,8.524-18.926,12.8q-12.913,8.747-25.811,17.517C-477.173,1290.8-477.659,1291.116-478.13,1291.427Z" transform="translate(-74.777 -49.338)" fill="#ac8655"/>
      <path id="Trazado_1036855" data-name="Trazado 1036855" d="M-545.768,1370.72c.274-3.006.493-6.019.842-9.016.246-2.11-1.841-4.317-3.947-3.853a2.306,2.306,0,0,0-1.4,1.456c-.523,2.17-.852,4.387-1.223,6.592a10.663,10.663,0,0,1-.251,1.67c0-1.629-.069-3.261.021-4.885.081-1.459.369-2.9.508-4.361.195-2.044-2.623-4.056-4.449-3.116a2.478,2.478,0,0,0-1.013,1.515c-.591,2.449-1.071,4.925-1.724,7.422.167-2.468.306-4.939.515-7.4a20.507,20.507,0,0,1,.489-2.588c.364-1.675.573-1.82,2.153-1.044q13.407,6.582,26.785,13.223c5.116,2.538,10.2,5.142,15.326,7.657,1.2.591,1.476,1.135,1.161,2.579-.7,3.227-.977,6.548-1.426,9.831-.025.183-.056.365-.084.547l-.462-.048c.308-2.711.605-5.424.932-8.133.07-.578.46-1.2.328-1.7-.215-.822-.534-1.934-1.162-2.277-4.152-2.271-4.071-1.524-5.053,2.006-.558,2-.8,4.1-1.368,6.149.195-2.178.386-4.357.587-6.534a7.786,7.786,0,0,1,.171-1.157c.78-3.143-.352-3.561-2.8-4.7-1.488-.69-2.093-.425-2.455,1.155-.5,2.183-.848,4.4-1.239,6.609-.132.747-.195,1.506-.29,2.26l-.474-.062c.376-2.929.7-5.866,1.146-8.783.35-2.27-1.833-4.781-4.082-4.411a1.993,1.993,0,0,0-1.205,1.28c-.593,2.255-1.068,4.542-1.516,6.832a10.728,10.728,0,0,0-.019,2.025l-.457-.033c.2-2.314.393-4.629.6-6.942a9.721,9.721,0,0,1,.19-1.007c.65-3.279.7-3.451-2.9-5.136-1.372-.642-2.03-.349-2.346,1.117-.584,2.707-1.02,5.446-1.513,8.172-.049.27-.067.545-.1.818l-.425-.045c.284-3.09.532-6.184.864-9.269a3.834,3.834,0,0,0-3.969-4.211,1.865,1.865,0,0,0-1.22,1.181c-.532,2.121-.919,4.28-1.326,6.432-.141.749-.187,1.516-.276,2.275Z" transform="translate(-19.753 -117.535)" fill="#a3743c"/>
      <path id="Trazado_1036856" data-name="Trazado 1036856" d="M-494.048,1370.77c.745-.51,1.256-.872,1.78-1.215,1.269-.833,1.795-.7,2.44.656a8.879,8.879,0,0,1,.405,1.247c.309,1.021-.15,1.268-1.051,1a6.466,6.466,0,0,1-.929-.427C-492.191,1371.659-492.977,1371.282-494.048,1370.77Z" transform="translate(-65.251 -129.113)" fill="#8b5e36"/>
      <path id="Trazado_1036857" data-name="Trazado 1036857" d="M-577.335,1244.018c-.405-1.69.47-2.338,1.973-2.745,6.008-1.625,11.971-3.421,18-4.964a10.607,10.607,0,0,1,4.461.133c3.386.653,6.724,1.549,10.1,2.262,1.721.364,1.635,1.706,1.783,2.929a1.786,1.786,0,0,1-1.458,2.144c-6.88,2.126-13.734,4.334-20.61,6.474a7.433,7.433,0,0,1-5.141-.429c-2.474-1.018-4.928-2.1-7.44-3.01C-577.091,1246.295-577.81,1245.548-577.335,1244.018Z" transform="translate(-6.27 -35.153)" fill="#e9bf47"/>
      <path id="Trazado_1036858" data-name="Trazado 1036858" d="M-471.058,1204.464c2.636-3.083,6.1-4.04,9.468-5.139,8.835-2.882,17.687-5.715,26.531-8.567l.14-.044c2.143-.677,3.228-.4,3.714.95a3.659,3.659,0,0,1-1.957,4.518c-3.913,1.483-7.838,2.943-11.8,4.284-6.223,2.1-12.477,4.118-18.736,6.113-.4.127-.97-.2-1.437-.376-1.061-.4-2.086-.913-3.166-1.25A22.32,22.32,0,0,0-471.058,1204.464Z" transform="translate(-81.504 -2.801)" fill="#daa426"/>
      <path id="Trazado_1036859" data-name="Trazado 1036859" d="M-547.138,1287.718c.276.3.809.615.79.892-.2,2.9-.49,5.792-.759,8.734-2.182-.8-2.164-.8-1.74-2.818.46-2.19.882-4.388,1.32-6.583Z" transform="translate(-26.354 -71.628)" fill="#94713b"/>
      <path id="Trazado_1036860" data-name="Trazado 1036860" d="M-527.968,1297.452c0-3.025-.023-6.03.034-9.033.006-.3.491-.6.753-.9l.421.153c.163,1.767.331,3.534.486,5.3.073.824.1,1.653.188,2.475C-525.89,1297.2-525.877,1297.2-527.968,1297.452Z" transform="translate(-41.269 -71.486)" fill="#94713b"/>
      <path id="Trazado_1036861" data-name="Trazado 1036861" d="M-519.16,1294.987c-.288-3.047-.571-6.042-.868-9.174l1.593-.375c.289,2.723.5,5.332.87,7.918C-517.392,1294.557-517.794,1294.99-519.16,1294.987Z" transform="translate(-46.885 -70.017)" fill="#94713b"/>
      <path id="Trazado_1036862" data-name="Trazado 1036862" d="M-510.871,1282.9l1.568-.4c.349,2.941.732,5.768.961,8.606.029.366-.745.8-1.148,1.2l-.368-.261Z" transform="translate(-53.359 -67.945)" fill="#94713b"/>
      <path id="Trazado_1036863" data-name="Trazado 1036863" d="M-536.635,1299.293h-1.951c.269-3.078.516-6.066.816-9.048.028-.278.4-.521.61-.78.175.284.5.567.5.853C-536.62,1293.269-536.635,1296.22-536.635,1299.293Z" transform="translate(-33.766 -72.863)" fill="#94713b"/>
      <path id="Trazado_1036864" data-name="Trazado 1036864" d="M-482.494,1283.174l-1.534.469-1.372-8.887,1.543-.516C-483.4,1277.234-482.961,1280.113-482.494,1283.174Z" transform="translate(-71.365 -62.1)" fill="#94713b"/>
      <path id="Trazado_1036865" data-name="Trazado 1036865" d="M-500.266,1289.022c-.325-2.8-.677-5.544-.924-8.3-.033-.37.455-.788.7-1.184l.48.162q.463,3.288.927,6.577a11.707,11.707,0,0,0,.195,1.3C-498.631,1288.569-498.935,1289.089-500.266,1289.022Z" transform="translate(-60.201 -65.847)" fill="#94713b"/>
      <path id="Trazado_1036866" data-name="Trazado 1036866" d="M-572.763,1287.045c-1.258-.11-1.665-.6-1.37-1.748.559-2.163,1.024-4.349,1.551-6.625l1.342.519C-571.754,1281.843-572.259,1284.445-572.763,1287.045Z" transform="translate(-8.572 -65.233)" fill="#94713b"/>
      <path id="Trazado_1036867" data-name="Trazado 1036867" d="M-474.676,1271.887c.45,2.637.935,5.27,1.307,7.918.049.348-.484.777-.748,1.168l-.535-.162c-.4-2.726-.825-5.449-1.163-8.183-.036-.29.444-.644.685-.968Z" transform="translate(-78.14 -60.276)" fill="#94713b"/>
      <path id="Trazado_1036868" data-name="Trazado 1036868" d="M-466.57,1267.714c.555,3.139,1.044,5.8,1.469,8.48.042.266-.313.594-.484.894-.254-.22-.685-.405-.734-.664-.469-2.481-.9-4.972-1.259-7.471C-467.616,1268.692-467.109,1268.353-466.57,1267.714Z" transform="translate(-83.962 -57.486)" fill="#94713b"/>
      <path id="Trazado_1036869" data-name="Trazado 1036869" d="M-562.975,1281.751c.218.418.676.875.615,1.246a53.829,53.829,0,0,1-1.755,7.521c-.267-.374-.806-.788-.757-1.115.373-2.494.861-4.971,1.313-7.454Z" transform="translate(-15.181 -67.409)" fill="#94713b"/>
      <path id="Trazado_1036870" data-name="Trazado 1036870" d="M-491.658,1277.128c.38,2.738.787,5.474,1.1,8.219.04.34-.395.735-.609,1.1l-.476-.156c-.384-2.781-.792-5.56-1.116-8.348-.036-.311.408-.677.629-1.017Z" transform="translate(-66.164 -64.002)" fill="#94713b"/>
      <path id="Trazado_1036871" data-name="Trazado 1036871" d="M-556.158,1293.808c-.221-.351-.676-.74-.626-1.047.418-2.586.928-5.158,1.411-7.733l.522-.137c.2.442.635.924.567,1.32-.43,2.49-.972,4.961-1.476,7.439Z" transform="translate(-20.898 -69.629)" fill="#94713b"/>
      <path id="Trazado_1036872" data-name="Trazado 1036872" d="M-458.019,1266.1c.564,2.8,1.139,5.543,1.632,8.3.046.259-.429.611-.777,1.072C-458.559,1271.407-459.038,1266.7-458.019,1266.1Z" transform="translate(-90.336 -56.344)" fill="#94713b"/>
      <path id="Trazado_1036873" data-name="Trazado 1036873" d="M-581.176,1284.084c-.176-.457-.574-.959-.491-1.362.413-1.993.933-3.965,1.467-5.93.082-.3.428-.532.652-.8.129.355.421.741.361,1.061-.429,2.285-.931,4.557-1.409,6.833Z" transform="translate(-3.303 -63.34)" fill="#94713b"/>
    </g>
  </g>
</svg>
