<svg xmlns="http://www.w3.org/2000/svg" width="82" height="82" viewBox="0 0 82 82">
  <g id="Grupo_1202308" data-name="Grupo 1202308" transform="translate(-287.051 -910)">
    <rect id="Rectángulo_409853" data-name="Rectángulo 409853" width="82" height="82" transform="translate(287.051 910)" fill="none"/>
    <g id="_03-warm_hot" data-name="03-warm hot" transform="translate(299.323 922.168)">
      <path id="Trazado_1036778" data-name="Trazado 1036778" d="M30.4,17.41H28A8.409,8.409,0,0,1,44.338,14.6l-2.266.8A6.007,6.007,0,0,0,30.4,17.41Z" transform="translate(5.638 1.811)"/>
      <path id="Trazado_1036779" data-name="Trazado 1036779" d="M36.329,24.409A8.423,8.423,0,0,1,28.4,18.8l2.266-.8a6.007,6.007,0,0,0,11.67-2h2.4a8.419,8.419,0,0,1-8.409,8.409Z" transform="translate(5.719 3.221)"/>
      <path id="Trazado_1036780" data-name="Trazado 1036780" d="M34,4h2.4V8.805H34Z" transform="translate(6.846 0.805)"/>
      <path id="Trazado_1036781" data-name="Trazado 1036781" d="M34,24h2.4v4.805H34Z" transform="translate(6.846 4.832)"/>
      <path id="Trazado_1036782" data-name="Trazado 1036782" d="M43,15h4.805v2.4H43Z" transform="translate(8.659 3.02)"/>
      <path id="Trazado_1036783" data-name="Trazado 1036783" d="M23,15h4.805v2.4H23Z" transform="translate(4.632 3.02)"/>
      <path id="Trazado_1036784" data-name="Trazado 1036784" d="M0,0H4.805V2.4H0Z" transform="translate(47.988 11.58) rotate(-45)"/>
      <path id="Trazado_1036785" data-name="Trazado 1036785" d="M0,0H4.805V2.4H0Z" transform="translate(30.999 28.566) rotate(-45)"/>
      <path id="Trazado_1036786" data-name="Trazado 1036786" d="M0,0H2.4V4.805H0Z" transform="translate(47.986 26.869) rotate(-45)"/>
      <path id="Trazado_1036787" data-name="Trazado 1036787" d="M0,0H2.4V4.805H0Z" transform="translate(31 9.88) rotate(-45)"/>
      <path id="Trazado_1036788" data-name="Trazado 1036788" d="M4,22H6.4v2.4H4Z" transform="translate(0.806 4.429)"/>
      <path id="Trazado_1036789" data-name="Trazado 1036789" d="M14.382,57.664A14.413,14.413,0,0,1,4.806,32.5V31.235h2.4v1.82a1.2,1.2,0,0,1-.436.926,12.013,12.013,0,1,0,15.288,0,1.2,1.2,0,0,1-.436-.926V9.611a7.208,7.208,0,1,0-14.416,0V24.027h-2.4V9.611a9.611,9.611,0,1,1,19.221,0V32.5a14.416,14.416,0,0,1-9.646,25.161Z" transform="translate(0)"/>
      <path id="Trazado_1036790" data-name="Trazado 1036790" d="M13.812,53.457A10.806,10.806,0,0,1,7.805,33.665V9.007a6.007,6.007,0,0,1,11.824-1.5l-2.326.6a3.6,3.6,0,0,0-7.1.9V34.33a1.2,1.2,0,0,1-.6,1.039,8.409,8.409,0,1,0,8.409,0,1.2,1.2,0,0,1-.6-1.039v-2.5h2.4v1.832a10.806,10.806,0,0,1-6.007,19.792Z" transform="translate(0.605 0.603)"/>
      <path id="Trazado_1036791" data-name="Trazado 1036791" d="M13,8h7.208v2.4H13Z" transform="translate(2.618 1.611)"/>
      <path id="Trazado_1036792" data-name="Trazado 1036792" d="M8,12H21.215v2.4H8Z" transform="translate(1.612 2.416)"/>
      <path id="Trazado_1036793" data-name="Trazado 1036793" d="M13,16h7.208v2.4H13Z" transform="translate(2.618 3.221)"/>
      <path id="Trazado_1036794" data-name="Trazado 1036794" d="M13,20h7.208v2.4H13Z" transform="translate(2.618 4.027)"/>
      <path id="Trazado_1036795" data-name="Trazado 1036795" d="M13,24h7.208v2.4H13Z" transform="translate(2.618 4.832)"/>
    </g>
  </g>
</svg>
