<svg xmlns="http://www.w3.org/2000/svg" width="82" height="82" viewBox="0 0 82 82">
  <g id="Grupo_1202311" data-name="Grupo 1202311" transform="translate(-917.051 -910)">
    <rect id="Rectángulo_409855" data-name="Rectángulo 409855" width="82" height="82" transform="translate(917.051 910)" fill="none"/>
    <g id="Page-1" transform="translate(928.051 920.984)">
      <g id="_009---Moisture-Wicking-Fabric" data-name="009---Moisture-Wicking-Fabric">
        <path id="Shape" d="M57,32H47.048c.21-2.842,1.044-6.435,2.78-8.172A22.45,22.45,0,0,0,55.953,10H59a1,1,0,0,0,.753-1.659l-7-8a1.035,1.035,0,0,0-1.506,0l-7,8A1,1,0,0,0,45,10L47.912,10a14.214,14.214,0,0,1-3.74,8.167c-4.188,4.187-4.987,10.985-5.137,13.712,0,.039.005.077.006.116H29.048c.21-2.842,1.044-6.435,2.78-8.172A22.45,22.45,0,0,0,37.953,10H41a1,1,0,0,0,.753-1.659l-7-8a1.035,1.035,0,0,0-1.506,0l-7,8A1,1,0,0,0,27,10L29.912,10a14.214,14.214,0,0,1-3.74,8.167c-4.188,4.187-4.987,10.985-5.137,13.712a.752.752,0,0,0,.006.116H11.017c.21-2.842,1.044-6.435,2.78-8.172A22.447,22.447,0,0,0,19.921,10h3.048a1,1,0,0,0,.753-1.659l-7-8a1.035,1.035,0,0,0-1.506,0l-7,8A1,1,0,0,0,8.969,10h2.912a14.232,14.232,0,0,1-3.74,8.168C3.953,22.359,3.153,29.157,3,31.884V32a3,3,0,0,0,0,6H4.234L2.143,41.485a1,1,0,1,0,1.714,1.03L6.566,38H9.234L7.143,41.485a1,1,0,1,0,1.714,1.03L11.566,38h2.668l-2.091,3.485a1,1,0,1,0,1.714,1.03L16.566,38h2.668l-2.091,3.485a1,1,0,1,0,1.714,1.03L21.566,38h2.668l-2.091,3.485a1,1,0,1,0,1.714,1.03L26.566,38h2.668l-2.091,3.485a1,1,0,1,0,1.714,1.03L31.566,38h2.668l-2.091,3.485a1,1,0,1,0,1.714,1.03L36.566,38h2.668l-2.091,3.485a1,1,0,1,0,1.714,1.03L41.566,38h2.668l-2.091,3.485a1,1,0,1,0,1.714,1.03L46.566,38h2.668l-2.091,3.485a1,1,0,1,0,1.714,1.03L51.566,38h2.668l-2.091,3.485a1,1,0,1,0,1.714,1.03L56.566,38H57a3,3,0,0,0,0-6ZM41.031,32c.138-2.5.856-8.71,4.555-12.409a16.216,16.216,0,0,0,4.31-9.33A2,2,0,0,0,47.912,8H47.2L52,2.519,56.8,8h-.843a2,2,0,0,0-2,1.836,20.43,20.43,0,0,1-5.546,12.578C45.7,25.127,45.145,30.438,45.04,32H41.031Zm-18,0c.138-2.5.856-8.71,4.555-12.409a16.216,16.216,0,0,0,4.31-9.33A2,2,0,0,0,29.912,8H29.2L34,2.519,38.8,8h-.843a2,2,0,0,0-2,1.836,20.43,20.43,0,0,1-5.546,12.578C27.7,25.127,27.145,30.438,27.04,32H23.031ZM5,32c.138-2.5.855-8.71,4.555-12.409a16.229,16.229,0,0,0,4.31-9.33A2,2,0,0,0,11.881,8h-.708l4.8-5.481L20.765,8h-.844a2,2,0,0,0-1.992,1.836,20.43,20.43,0,0,1-5.546,12.578C9.67,25.127,9.113,30.438,9.009,32H5Zm52,4H3a1,1,0,0,1,0-2H9.009c.017,0,.033-.005.05-.005H27.038c.017,0,.033-.005.051-.005H45.038c.017,0,.033-.005.051-.005H57a1,1,0,1,1,0,2Z"/>
        <path id="Shape-2" data-name="Shape" d="M22.625,44.219a1,1,0,0,0-1.25,0C21.156,44.4,16,48.582,16,54a6,6,0,0,0,12,0C28,48.582,22.844,44.4,22.625,44.219ZM22,58a4,4,0,0,1-4-4c0-3.439,2.736-6.451,4-7.658,1.264,1.207,4,4.219,4,7.658A4,4,0,0,1,22,58Z"/>
        <path id="Shape-3" data-name="Shape" d="M6,60a6.006,6.006,0,0,0,6-6c0-5.418-5.156-9.6-5.375-9.781a1,1,0,0,0-1.25,0C5.156,44.4,0,48.582,0,54A6.006,6.006,0,0,0,6,60ZM6,46.342c1.264,1.207,4,4.219,4,7.658a4,4,0,0,1-8,0C2,50.561,4.736,47.549,6,46.342Z"/>
        <path id="Shape-4" data-name="Shape" d="M54.625,44.219a1,1,0,0,0-1.25,0C53.156,44.4,48,48.582,48,54a6,6,0,0,0,12,0C60,48.582,54.844,44.4,54.625,44.219ZM54,58a4,4,0,0,1-4-4c0-3.439,2.736-6.451,4-7.658,1.264,1.207,4,4.219,4,7.658A4,4,0,0,1,54,58Z"/>
        <path id="Shape-5" data-name="Shape" d="M38,60a6.006,6.006,0,0,0,6-6c0-5.418-5.156-9.6-5.375-9.781a1,1,0,0,0-1.25,0C37.156,44.4,32,48.582,32,54A6.006,6.006,0,0,0,38,60Zm0-13.658c1.264,1.207,4,4.219,4,7.658a4,4,0,0,1-8,0C34,50.561,36.736,47.549,38,46.342Z"/>
      </g>
    </g>
  </g>
</svg>
