<svg xmlns="http://www.w3.org/2000/svg" width="82" height="82" viewBox="0 0 82 82">
  <g id="Grupo_1202312" data-name="Grupo 1202312" transform="translate(-1232.051 -910)">
    <rect id="Rectángulo_409856" data-name="Rectángulo 409856" width="82" height="82" transform="translate(1232.051 910)" fill="none"/>
    <path id="Trazado_1036802" data-name="Trazado 1036802" d="M56.534,89.627h.948v.948h-.948Zm-.522,2.867H58a1.4,1.4,0,0,0,1.4-1.4V89.106a1.4,1.4,0,0,0-1.4-1.4H56.012a1.4,1.4,0,0,0-1.4,1.4V91.1A1.4,1.4,0,0,0,56.012,92.494Zm.522,3.783h.948v.948h-.948Zm-.522,2.867H58a1.4,1.4,0,0,0,1.4-1.4V95.756a1.4,1.4,0,0,0-1.4-1.4H56.012a1.4,1.4,0,0,0-1.4,1.4v1.991A1.4,1.4,0,0,0,56.012,99.144Zm7.171-2.867h.948v.948h-.948Zm-.521,2.867h1.991a1.4,1.4,0,0,0,1.4-1.4V95.756a1.4,1.4,0,0,0-1.4-1.4H62.662a1.4,1.4,0,0,0-1.4,1.4v1.991A1.4,1.4,0,0,0,62.662,99.144Zm.521-9.517h.948v.948h-.948Zm-.521,2.867h1.991a1.4,1.4,0,0,0,1.4-1.4V89.106a1.4,1.4,0,0,0-1.4-1.4H62.662a1.4,1.4,0,0,0-1.4,1.4V91.1A1.4,1.4,0,0,0,62.662,92.494ZM31.128,108.4l7.455-16.1h4.435v9.72a.96.96,0,0,0,.96.96H76.687a.96.96,0,0,0,.96-.96V92.3h4.434l7.456,16.1ZM44.937,76.83v24.229h5.222V86.267a.959.959,0,0,1,.439-.806l3.1-2V76.278H45.49a.56.56,0,0,0-.553.552ZM56.6,61.591h7.469a.982.982,0,0,1,.98.98V82.221l-4.194-2.707a.96.96,0,0,0-1.041,0l-4.194,2.707V62.571A.981.981,0,0,1,56.6,61.591Zm3.735,19.871L52.078,86.79v14.269H68.587V86.79Zm14.843-5.184H66.966V83.46l3.1,2a.961.961,0,0,1,.439.806v14.792h5.221V76.83A.56.56,0,0,0,75.175,76.278Zm16.735,32.68L83.566,90.935a.962.962,0,0,0-.872-.557H77.647V76.83a2.475,2.475,0,0,0-2.472-2.472H66.966V62.571a2.9,2.9,0,0,0-2.9-2.9H56.6a2.9,2.9,0,0,0-2.9,2.9V74.358H45.49a2.475,2.475,0,0,0-2.472,2.472V90.378H37.97a.96.96,0,0,0-.871.557l-8.344,18.023a.961.961,0,0,0,.871,1.362H91.038A.961.961,0,0,0,91.91,108.958Z" transform="translate(1213.385 868.668)" fill-rule="evenodd"/>
  </g>
</svg>
