<svg xmlns="http://www.w3.org/2000/svg" xmlns:xlink="http://www.w3.org/1999/xlink" width="99" height="99" viewBox="0 0 99 99">
  <defs>
    <clipPath id="clip-path">
      <path id="Trazado_1036821" data-name="Trazado 1036821" d="M291.983,425.811l-11.289,1.657a3,3,0,0,1-3.428-3.1L277,401.3a4.144,4.144,0,0,1,3.345-4.093l11.289-1.657a3,3,0,0,1,3.428,3.1l.266,23.071A4.144,4.144,0,0,1,291.983,425.811Z" transform="translate(-277 -395.515)" fill="none" stroke="#000" stroke-miterlimit="10" stroke-width="3"/>
    </clipPath>
  </defs>
  <g id="Grupo_1202317" data-name="Grupo 1202317" transform="translate(-395.051 -2753)">
    <rect id="Rectángulo_409958" data-name="Rectángulo 409958" width="99" height="99" transform="translate(395.051 2753)" fill="none"/>
    <g id="Grupo_1202313" data-name="Grupo 1202313" transform="translate(227.226 2422.014)">
      <path id="Trazado_1036803" data-name="Trazado 1036803" d="M274.05,363.5l-28.89,2.8v45.976l-4.66,13.047,27.648-6.524,5.9-13.358Z" transform="translate(-38.38 -17.588)" fill="#888f8c"/>
      <path id="Trazado_1036803_-_Contorno" data-name="Trazado 1036803 - Contorno" d="M272.9,361.848V404.4l-6.036,13.66-.226.053-28.482,6.72,4.921-13.778V364.734l.421-.041Zm-.932,42.353V362.874l-27.958,2.706v45.634l-.027.076-4.372,12.24,26.588-6.274Z" transform="translate(-36.767 -16.449)"/>
      <path id="Trazado_1036804" data-name="Trazado 1036804" d="M216.2,339.5l-28.356,2.88a1.692,1.692,0,0,0-.152,3.344l20.741,4.027,27.522-2.69a1.957,1.957,0,0,0,.166-3.872Z" transform="translate(-1.034 -1.044)" fill="#c0c6c4"/>
      <path id="Trazado_1036804_-_Contorno" data-name="Trazado 1036804 - Contorno" d="M215.187,337.986l.066.012,19.922,3.689a2.371,2.371,0,0,1,1.524.933,2.512,2.512,0,0,1-.131,3.063,2.371,2.371,0,0,1-1.6.8l-27.59,2.7-.067-.013-20.741-4.027a2.112,2.112,0,0,1-1.345-.837,2.233,2.233,0,0,1,.123-2.716,2.112,2.112,0,0,1,1.415-.712Zm-7.763,10.251,27.454-2.684a1.456,1.456,0,0,0,.984-.481,1.581,1.581,0,0,0,.082-1.9,1.456,1.456,0,0,0-.94-.564l-19.856-3.677L186.859,341.8a1.226,1.226,0,0,0-.11,2.423Z"/>
      <path id="Trazado_1036805" data-name="Trazado 1036805" d="M190.5,359.5v32l11.8,29.512,3.728,1.553,4.66-13.047V363.538Z" transform="translate(-3.913 -14.831)" fill="#bec3c2"/>
      <path id="Trazado_1036805_-_Contorno" data-name="Trazado 1036805 - Contorno" d="M189,357.67l21.124,4.225v46.439l-4.852,13.585-4.362-1.817L189,390.325Zm20.192,4.989-19.26-3.852v31.339l11.7,29.247,3.094,1.289,4.468-12.509Z" transform="translate(-2.878 -13.569)"/>
      <path id="Trazado_1036806" data-name="Trazado 1036806" d="M206.5,548.5v10.873l17.707,7.145V565.48a4.008,4.008,0,0,0-1.442-3.053,4.822,4.822,0,0,1-1.97-4.061c.283-2.861-3.732-5.517-3.732-5.517Z" transform="translate(-14.942 -145.118)" fill="#b2b6b6"/>
      <path id="Trazado_1036806_-_Contorno" data-name="Trazado 1036806 - Contorno" d="M205,546.26l11.247,4.631.038.025a13.144,13.144,0,0,1,2.053,1.754,8.33,8.33,0,0,1,1.372,1.869,4.162,4.162,0,0,1,.513,2.329,3.506,3.506,0,0,0,.48,2.114,5.883,5.883,0,0,0,1.328,1.545,4.472,4.472,0,0,1,1.607,3.408v1.728L205,558.143Zm10.806,5.458-9.874-4.066v9.862l16.775,6.769v-.347a3.542,3.542,0,0,0-1.277-2.7,6.806,6.806,0,0,1-1.535-1.794,4.419,4.419,0,0,1-.6-2.668,3.249,3.249,0,0,0-.41-1.8,7.375,7.375,0,0,0-1.212-1.651A12.543,12.543,0,0,0,215.806,551.718Z" transform="translate(-13.908 -143.574)"/>
      <path id="Trazado_1036807" data-name="Trazado 1036807" d="M240.5,548.024l27.648-6.524,15.654,6.957a6.6,6.6,0,0,1,3.917,6.028v3.48l-2.751-1.693a3.19,3.19,0,0,0-2.716-.3l-21.87,7.582v-4.97l-16.488-6.854S242.053,548.645,240.5,548.024Z" transform="translate(-38.38 -140.292)" fill="#babfbf"/>
      <path id="Trazado_1036807_-_Contorno" data-name="Trazado 1036807 - Contorno" d="M264.772,539.924l15.8,7.021a7.068,7.068,0,0,1,4.194,6.453v4.314l-3.461-2.13a2.724,2.724,0,0,0-2.319-.254l-22.489,7.8V557.81l-16.343-6.794-.079-.132c-.49-.821-2.014-3.053-3.166-3.514l-1.369-.548Zm19.059,16.12V553.4a6.136,6.136,0,0,0-3.64-5.6L264.68,540.9l-26.429,6.236a10.415,10.415,0,0,1,1.476,1.6c.51.662.9,1.271,1.064,1.533l16.636,6.916v4.627l21.252-7.368a3.655,3.655,0,0,1,3.113.341Z" transform="translate(-34.958 -139.206)"/>
      <path id="Trazado_1036808" data-name="Trazado 1036808" d="M257.275,557.294l14.911-4.3.932-.311c2.133-3.2.322-6.553-2.573-9.085l-2.4-2.1L240.5,548.024l3.417,3.728Z" transform="translate(-38.38 -140.292)" fill="#565a51"/>
      <path id="Trazado_1036808_-_Contorno" data-name="Trazado 1036808 - Contorno" d="M255.293,556.659l-13.6-5.645-4.024-4.39,28.655-6.761,2.578,2.256a14.189,14.189,0,0,1,1.988,2.108,8.915,8.915,0,0,1,1.316,2.38,5.876,5.876,0,0,1,.33,2.583,5.809,5.809,0,0,1-.981,2.623l-.089.133-1.1.367Zm-13.056-6.427,13.112,5.441,14.745-4.252.768-.256a4.833,4.833,0,0,0,.744-2.072,4.954,4.954,0,0,0-.282-2.176,10.286,10.286,0,0,0-3.039-4.1l-2.217-1.94-26.641,6.286Z" transform="translate(-36.426 -139.164)"/>
      <path id="Trazado_1036809" data-name="Trazado 1036809" d="M249.473,555.846l15.258-2.927V544.1L240.5,549.813l3.417,3.728Z" transform="translate(-38.38 -142.082)" fill="#737c7a"/>
      <path id="Trazado_1036809_-_Contorno" data-name="Trazado 1036809 - Contorno" d="M247.47,555.024l-5.78-2.4-4.024-4.39,25.577-6.035V552Zm-5.233-3.18,5.332,2.212,14.742-2.828v-7.85l-22.884,5.4Z" transform="translate(-36.426 -140.775)"/>
      <path id="Trazado_1036810" data-name="Trazado 1036810" d="M318.5,551.13l8.388,1.553h0c1.909-3.123.25-7.289-2.8-9.319l-2.175-1.864-3.417.932Z" transform="translate(-92.149 -140.292)" fill="#a5aaa6"/>
      <path id="Trazado_1036810_-_Contorno" data-name="Trazado 1036810 - Contorno" d="M326.084,552.058,317,550.376v-9.442l4-1.091,2.341,2.007a8.843,8.843,0,0,1,3.416,4.476,6.437,6.437,0,0,1-.5,5.459Zm-8.152-2.457,7.681,1.422a5.078,5.078,0,0,0,.573-2.005,6.15,6.15,0,0,0-.315-2.4,7.894,7.894,0,0,0-3.072-4.008l-.023-.016-2.008-1.721-2.835.773Z" transform="translate(-91.115 -139.151)"/>
      <path id="Trazado_1036811" data-name="Trazado 1036811" d="M304.5,578.552l26-8.088s2.274,2.5,1.342,7.467c0,0-3.086-2.448-4.183-2.156s-23.154,7.748-23.154,7.748Z" transform="translate(-82.498 -160.259)" fill="#989e9c"/>
      <path id="Trazado_1036811_-_Contorno" data-name="Trazado 1036811 - Contorno" d="M303,582.989v-5.963l26.606-8.278.2.219a6.455,6.455,0,0,1,1.114,2.024,9.678,9.678,0,0,1,.531,2.452,12.5,12.5,0,0,1-.19,3.39l-.142.759-.605-.48c-.007-.005-.684-.541-1.5-1.068a4.9,4.9,0,0,0-2.193-1.011.326.326,0,0,0-.083.009c-1.071.285-22.9,7.664-23.125,7.739Zm.932-5.277v3.978c3.647-1.232,21.559-7.28,22.568-7.549a1.258,1.258,0,0,1,.323-.04,5.8,5.8,0,0,1,2.705,1.165c.352.228.675.454.935.643a11.145,11.145,0,0,0,.062-2.347,8.788,8.788,0,0,0-.464-2.2,6.481,6.481,0,0,0-.771-1.537Z" transform="translate(-81.464 -159.076)"/>
      <path id="Trazado_1036812" data-name="Trazado 1036812" d="M254.954,581.973l9.9-1.881L251.5,574.5l.361,2.164a6.444,6.444,0,0,0,1.217,2.828Z" transform="translate(-45.963 -163.041)" fill="#565a51"/>
      <path id="Trazado_1036812_-_Contorno" data-name="Trazado 1036812 - Contorno" d="M253.429,580.808l-2.051-2.712a6.936,6.936,0,0,1-1.3-3.033l-.5-3,15.566,6.516Zm-2.658-7.229.222,1.332a6,6,0,0,0,1.129,2.624l1.7,2.25,8.1-1.538Z" transform="translate(-44.635 -161.364)"/>
      <ellipse id="Elipse_12399" data-name="Elipse 12399" cx="0.777" cy="1.243" rx="0.777" ry="1.243" transform="translate(192.801 410.527)" fill="#565a51"/>
      <path id="Elipse_12399_-_Contorno" data-name="Elipse 12399 - Contorno" d="M-.257-1.5a1.13,1.13,0,0,1,.944.583A2.148,2.148,0,0,1,.985.209a2.148,2.148,0,0,1-.3,1.126,1.13,1.13,0,0,1-.944.583A1.13,1.13,0,0,1-1.2,1.334,2.148,2.148,0,0,1-1.5.209,2.148,2.148,0,0,1-1.2-.917,1.13,1.13,0,0,1-.257-1.5Zm0,2.485C-.18.985.053.71.053.209S-.18-.568-.257-.568s-.311.275-.311.777S-.335.985-.257.985Z" transform="translate(193.835 411.561)"/>
      <g id="Grupo_1202316" data-name="Grupo 1202316" transform="translate(211.655 353.057)">
        <path id="Trazado_1036813" data-name="Trazado 1036813" d="M289.864,422.718l-12.937,1.9A3.432,3.432,0,0,1,273,421.067l-.3-26.438a4.749,4.749,0,0,1,3.833-4.69l12.937-1.9a3.432,3.432,0,0,1,3.929,3.551l.3,26.438A4.749,4.749,0,0,1,289.864,422.718Z" transform="translate(-272.228 -387.534)" fill="#454c4b"/>
        <path id="Trazado_1036813_-_Contorno" data-name="Trazado 1036813 - Contorno" d="M275.362,424.089a3.748,3.748,0,0,1-2.735-1.161,4.217,4.217,0,0,1-1.129-2.89l-.3-26.439a5.267,5.267,0,0,1,1.212-3.378,4.844,4.844,0,0,1,3.02-1.779l12.937-1.9a4.137,4.137,0,0,1,.6-.044,3.748,3.748,0,0,1,2.735,1.161,4.217,4.217,0,0,1,1.129,2.89l.3,26.438a5.267,5.267,0,0,1-1.212,3.378,4.844,4.844,0,0,1-3.02,1.779l-12.937,1.9A4.137,4.137,0,0,1,275.362,424.089Zm13.6-36.657a3.2,3.2,0,0,0-.463.034l-12.937,1.9a3.916,3.916,0,0,0-2.434,1.447,4.333,4.333,0,0,0-1,2.777l.3,26.439a3.29,3.29,0,0,0,.87,2.256,2.824,2.824,0,0,0,2.062.873,3.2,3.2,0,0,0,.463-.034l12.937-1.9a3.916,3.916,0,0,0,2.434-1.447,4.334,4.334,0,0,0,1-2.777l-.3-26.438a3.29,3.29,0,0,0-.87-2.257A2.824,2.824,0,0,0,288.961,387.432Z" transform="translate(-271.194 -386.5)"/>
        <g id="Grupo_1202315" data-name="Grupo 1202315" transform="translate(1.338 2.335)">
          <g id="Grupo_1202314" data-name="Grupo 1202314" transform="translate(0.466 0.466)" clip-path="url(#clip-path)">
            <g id="Grupo_1202313-2" data-name="Grupo 1202313" transform="translate(-0.692 19.265)">
              <path id="Trazado_1036814" data-name="Trazado 1036814" d="M275.6,460.98a3.539,3.539,0,0,0,2.719-1.812,8.206,8.206,0,0,1,.6-1.133,1.091,1.091,0,0,1,1.107-.476c.417.124.675.592,1.1.671.512.095,1-.419,1.507-.308.885.193.548,1.747,1.309,2.237.438.282,1.009.067,1.53.042a2.088,2.088,0,0,1,2.1,1.777c.064.548-.07,1.188.313,1.585.469.487,1.268.194,1.919.012s1.628.055,1.544.725c-.03.239-.207.453-.186.693.036.407.592.541.98.412a4.827,4.827,0,0,1,1.137-.437c.9-.061,1.381,1.221.938,2.009a3.653,3.653,0,0,1-2.234,1.417,48.949,48.949,0,0,1-14.237,2.264,2.36,2.36,0,0,1-.94-.122c-.82-.343-1-1.405-1.045-2.293q-.193-3.746-.024-7.5" transform="translate(-275.343 -457.53)" fill="#70451d"/>
              <path id="Trazado_1036815" data-name="Trazado 1036815" d="M276.2,473.683a5.519,5.519,0,0,1-1.429-.242l.083-.3a2.656,2.656,0,0,0,2.349-.08,2.6,2.6,0,0,0,.475-.566,3.266,3.266,0,0,1,.46-.567l.21.229a2.987,2.987,0,0,0-.414.515,2.869,2.869,0,0,1-.535.631A1.845,1.845,0,0,1,276.2,473.683Z" transform="translate(-274.773 -467.456)" fill="#3d2610"/>
              <path id="Trazado_1036816" data-name="Trazado 1036816" d="M296.164,477.169a3.468,3.468,0,0,1-2.182-1.319l.248-.187a3.155,3.155,0,0,0,1.985,1.2Z" transform="translate(-288.015 -470.03)" fill="#3d2610"/>
              <path id="Trazado_1036817" data-name="Trazado 1036817" d="M300.879,484.778a5.019,5.019,0,0,1-.928-.114l.058-.305a2.906,2.906,0,0,0,1.371.039.889.889,0,0,0,.67-.906l.3-.061a.984.984,0,0,1-.206.792,1.387,1.387,0,0,1-.675.472A1.987,1.987,0,0,1,300.879,484.778Z" transform="translate(-292.129 -475.385)" fill="#3d2610"/>
              <path id="Trazado_1036818" data-name="Trazado 1036818" d="M291.578,489.5a.833.833,0,0,1,0-.95l.252.182a.522.522,0,0,0,0,.587Z" transform="translate(-286.256 -478.917)" fill="#3d2610"/>
              <path id="Trazado_1036819" data-name="Trazado 1036819" d="M318.9,486.06l-.2-.241a4.076,4.076,0,0,1,1.174-.743,1.473,1.473,0,0,1,1.426.182l-.2.238a1.153,1.153,0,0,0-1.124-.128A3.782,3.782,0,0,0,318.9,486.06Z" transform="translate(-305.055 -476.449)" fill="#3d2610"/>
              <path id="Trazado_1036820" data-name="Trazado 1036820" d="M307.762,474.566a4.339,4.339,0,0,0-1.839-.456c-.156-.016-.318-.032-.475-.051a4.168,4.168,0,0,1-1.25-.335,1.961,1.961,0,0,1-.948-.86l.276-.143a1.659,1.659,0,0,0,.8.721,3.862,3.862,0,0,0,1.156.308c.154.019.314.035.468.051a4.567,4.567,0,0,1,1.969.5Z" transform="translate(-294.404 -468.002)" fill="#3d2610"/>
            </g>
          </g>
          <path id="Trazado_1036822" data-name="Trazado 1036822" d="M279.2,426.935a3.329,3.329,0,0,1-2.429-1.031,3.74,3.74,0,0,1-1-2.562L275.5,400.27a4.654,4.654,0,0,1,1.071-2.986,4.286,4.286,0,0,1,2.673-1.573l11.289-1.657a3.669,3.669,0,0,1,.531-.039,3.328,3.328,0,0,1,2.429,1.031,3.74,3.74,0,0,1,1,2.562l.266,23.071a4.654,4.654,0,0,1-1.071,2.986,4.286,4.286,0,0,1-2.673,1.573L279.728,426.9A3.674,3.674,0,0,1,279.2,426.935Zm11.867-31.988a2.739,2.739,0,0,0-.4.029l-11.289,1.657a3.358,3.358,0,0,0-2.087,1.241,3.721,3.721,0,0,0-.86,2.385l.266,23.071a2.813,2.813,0,0,0,.743,1.929A2.4,2.4,0,0,0,279.2,426a2.734,2.734,0,0,0,.4-.029l11.289-1.657a3.358,3.358,0,0,0,2.087-1.241,3.721,3.721,0,0,0,.86-2.385l-.266-23.071a2.813,2.813,0,0,0-.743-1.929A2.4,2.4,0,0,0,291.064,394.947Z" transform="translate(-275.5 -394.015)"/>
        </g>
        <path id="Trazado_1036823" data-name="Trazado 1036823" d="M279.2,426.935a3.329,3.329,0,0,1-2.429-1.031,3.74,3.74,0,0,1-1-2.562L275.5,400.27a4.654,4.654,0,0,1,1.071-2.986,4.286,4.286,0,0,1,2.673-1.573l11.289-1.657a3.669,3.669,0,0,1,.531-.039,3.328,3.328,0,0,1,2.429,1.031,3.74,3.74,0,0,1,1,2.562l.266,23.071a4.654,4.654,0,0,1-1.071,2.986,4.286,4.286,0,0,1-2.673,1.573L279.728,426.9A3.674,3.674,0,0,1,279.2,426.935Zm11.867-31.988a2.739,2.739,0,0,0-.4.029l-11.289,1.657a3.358,3.358,0,0,0-2.087,1.241,3.721,3.721,0,0,0-.86,2.385l.266,23.071a2.813,2.813,0,0,0,.743,1.929A2.4,2.4,0,0,0,279.2,426a2.734,2.734,0,0,0,.4-.029l11.289-1.657a3.358,3.358,0,0,0,2.087-1.241,3.721,3.721,0,0,0,.86-2.385l-.266-23.071a2.813,2.813,0,0,0-.743-1.929A2.4,2.4,0,0,0,291.064,394.947Z" transform="translate(-274.162 -391.68)"/>
        <g id="Grupo_1036824" data-name="Grupo 1036824" transform="translate(1.338 2.335)" opacity="0.18">
          <path id="Trazado_1036824" data-name="Trazado 1036824" d="M291.983,425.811l-11.289,1.657a3,3,0,0,1-3.428-3.1L277,401.3a4.144,4.144,0,0,1,3.345-4.093l11.289-1.657a3,3,0,0,1,3.428,3.1l.266,23.071A4.144,4.144,0,0,1,291.983,425.811Z" transform="translate(-276.534 -395.049)" fill="#a4b5b3"/>
          <path id="Trazado_1036824_-_Contorno" data-name="Trazado 1036824 - Contorno" d="M279.2,426.935a3.329,3.329,0,0,1-2.429-1.031,3.74,3.74,0,0,1-1-2.562L275.5,400.27a4.654,4.654,0,0,1,1.071-2.986,4.286,4.286,0,0,1,2.673-1.573l11.289-1.657a3.669,3.669,0,0,1,.531-.039,3.328,3.328,0,0,1,2.429,1.031,3.74,3.74,0,0,1,1,2.562l.266,23.071a4.654,4.654,0,0,1-1.071,2.986,4.286,4.286,0,0,1-2.673,1.573L279.728,426.9A3.674,3.674,0,0,1,279.2,426.935Zm11.867-31.988a2.739,2.739,0,0,0-.4.029l-11.289,1.657a3.358,3.358,0,0,0-2.087,1.241,3.721,3.721,0,0,0-.86,2.385l.266,23.071a2.813,2.813,0,0,0,.743,1.929A2.4,2.4,0,0,0,279.2,426a2.734,2.734,0,0,0,.4-.029l11.289-1.657a3.358,3.358,0,0,0,2.087-1.241,3.721,3.721,0,0,0,.86-2.385l-.266-23.071a2.813,2.813,0,0,0-.743-1.929A2.4,2.4,0,0,0,291.064,394.947Z" transform="translate(-275.5 -394.015)"/>
        </g>
      </g>
    </g>
  </g>
</svg>
