<svg xmlns="http://www.w3.org/2000/svg" width="99" height="99" viewBox="0 0 99 99">
  <g id="Grupo_1202318" data-name="Grupo 1202318" transform="translate(-395.051 -2747)">
    <rect id="Rectángulo_409958" data-name="Rectángulo 409958" width="99" height="99" transform="translate(395.051 2747)" fill="none"/>
    <g id="Grupo_1202321" data-name="Grupo 1202321" transform="translate(-178.949 2350.037)">
      <path id="Trazado_1036825" data-name="Trazado 1036825" d="M674.385,501.143s-.664,4.87,3.984,3.32l.775,5.645L687.777,509l-.664-5.534a3.882,3.882,0,0,0,3.337-3.563Z" transform="translate(-72.688 -57.574)" fill="#c8382c"/>
      <path id="Trazado_1036825_-_Contorno" data-name="Trazado 1036825 - Contorno" d="M689.661,498.267l-.052.4a4.756,4.756,0,0,1-.756,2.093,4,4,0,0,1-1.228,1.166,4.4,4.4,0,0,1-1.315.534l.666,5.549-9.286,1.191-.766-5.584a5.125,5.125,0,0,1-1.353.205,2.454,2.454,0,0,1-1.942-.808,4.542,4.542,0,0,1-.742-3.193l.036-.266Zm-3.424,9.172-.666-5.546.34-.031a3.6,3.6,0,0,0,1.389-.511,3.343,3.343,0,0,0,1.013-.974,3.907,3.907,0,0,0,.567-1.383l-15.36,1.184a5.409,5.409,0,0,0,.012.748,2.963,2.963,0,0,0,.6,1.656,1.8,1.8,0,0,0,1.441.579,4.925,4.925,0,0,0,1.524-.287l.38-.126.784,5.715Z" transform="translate(-71.518 -56.299)"/>
      <path id="Trazado_1036826" data-name="Trazado 1036826" d="M694.452,541.607l8.633-1.107s2.435,2.435-.664,3.763l1.549,10.846-6.2,1.107-1.107-11.068S693.124,545.37,694.452,541.607Z" transform="translate(-88.107 -89.184)" fill="#e8b131"/>
      <path id="Trazado_1036826_-_Contorno" data-name="Trazado 1036826 - Contorno" d="M702.036,538.919l.115.115a3.247,3.247,0,0,1,.972,2.518,2.453,2.453,0,0,1-1.507,1.678l1.56,10.918-6.867,1.226L695.2,544.246a3.8,3.8,0,0,1-.854-.142,2.328,2.328,0,0,1-1.294-.868,3.2,3.2,0,0,1-.078-2.971l.068-.193Zm.392,14.689-1.54-10.781.234-.1c.8-.341,1.249-.778,1.35-1.3a1.852,1.852,0,0,0-.319-1.3,3.731,3.731,0,0,0-.366-.508l-8.255,1.058a2.454,2.454,0,0,0,.058,2.175,1.684,1.684,0,0,0,.939.614,3.163,3.163,0,0,0,.86.121c.055,0,.088,0,.088,0l.319-.02.031.318,1.071,10.711Z" transform="translate(-86.939 -87.953)"/>
      <ellipse id="Elipse_12400" data-name="Elipse 12400" cx="3.099" cy="0.775" rx="3.099" ry="0.775" transform="matrix(0.991, -0.132, 0.132, 0.991, 609.59, 466.12)" fill="#e8b131"/>
      <path id="Elipse_12400_-_Contorno" data-name="Elipse 12400 - Contorno" d="M3.431,0A9.8,9.8,0,0,1,5.7.237a2.887,2.887,0,0,1,.753.283.687.687,0,0,1,.407.587.687.687,0,0,1-.407.587,2.887,2.887,0,0,1-.753.283,9.8,9.8,0,0,1-2.272.237,9.8,9.8,0,0,1-2.272-.237,2.887,2.887,0,0,1-.753-.283A.687.687,0,0,1,0,1.107.687.687,0,0,1,.407.519,2.887,2.887,0,0,1,1.159.237,9.8,9.8,0,0,1,3.431,0ZM6.144,1.107A2.457,2.457,0,0,0,5.368.841,9.718,9.718,0,0,0,3.431.664,9.718,9.718,0,0,0,1.494.841a2.457,2.457,0,0,0-.776.266,2.457,2.457,0,0,0,.776.266,9.718,9.718,0,0,0,1.937.177,9.718,9.718,0,0,0,1.937-.177A2.457,2.457,0,0,0,6.144,1.107Z" transform="matrix(0.991, -0.132, 0.132, 0.991, 609.217, 465.834)"/>
      <g id="Grupo_1202319" data-name="Grupo 1202319" transform="translate(581.333 426.314)">
        <path id="Trazado_1036827" data-name="Trazado 1036827" d="M666.841,435.495a5.989,5.989,0,0,0-5.757-6.2l-71.719-1.748v.443c-3.79,0-6.861,3.867-6.859,8.635a10.84,10.84,0,0,0,.155,1.823l84.088-1.854A6.7,6.7,0,0,0,666.841,435.495Z" transform="translate(-582.505 -427.55)" fill="#d7dddc"/>
        <path id="Trazado_1036828" data-name="Trazado 1036828" d="M583.2,470.3c.665,3.892,3.415,6.81,6.707,6.81.164,0,.326-.01.487-.024l71.232-3.518a5.893,5.893,0,0,0,5.663-5.1Z" transform="translate(-583.045 -459.417)" fill="#bfc4c3"/>
      </g>
      <path id="Trazado_1036829" data-name="Trazado 1036829" d="M587.862,425.962l.34.008,71.715,1.771a5.7,5.7,0,0,1,2.374.517,6.064,6.064,0,0,1,1.935,1.4,6.554,6.554,0,0,1,1.3,2.075,6.992,6.992,0,0,1,0,5.068,6.554,6.554,0,0,1-1.3,2.075,6.063,6.063,0,0,1-1.935,1.4,5.7,5.7,0,0,1-2.37.517L588.7,444.318c-.192.017-.354.025-.51.025a5.964,5.964,0,0,1-2.827-.717,7.321,7.321,0,0,1-2.285-1.937,9.324,9.324,0,0,1-1.525-2.845,11.072,11.072,0,0,1,0-6.932,9.324,9.324,0,0,1,1.525-2.845,7.321,7.321,0,0,1,2.285-1.937,5.988,5.988,0,0,1,2.495-.708Zm72.051,14.175a5.039,5.039,0,0,0,2.1-.457,5.4,5.4,0,0,0,1.724-1.252,5.893,5.893,0,0,0,1.168-1.866,6.328,6.328,0,0,0,0-4.582,5.892,5.892,0,0,0-1.168-1.866,5.4,5.4,0,0,0-1.724-1.252,5.039,5.039,0,0,0-2.1-.457H659.9l-71.379-1.762v.434h-.332a5.307,5.307,0,0,0-2.515.639,6.663,6.663,0,0,0-2.077,1.764,8.662,8.662,0,0,0-1.416,2.643,10.408,10.408,0,0,0,0,6.509,8.662,8.662,0,0,0,1.416,2.643,6.663,6.663,0,0,0,2.077,1.764,5.307,5.307,0,0,0,2.515.64c.138,0,.283-.007.458-.023h.013Z"/>
      <path id="Elipse_12401" data-name="Elipse 12401" d="M5.694-1.5a5.964,5.964,0,0,1,2.827.717,7.321,7.321,0,0,1,2.285,1.937A9.323,9.323,0,0,1,12.331,4a11.071,11.071,0,0,1,0,6.932,9.323,9.323,0,0,1-1.525,2.845,7.321,7.321,0,0,1-2.285,1.937,5.929,5.929,0,0,1-5.654,0A7.321,7.321,0,0,1,.582,13.776,9.323,9.323,0,0,1-.943,10.931,11.071,11.071,0,0,1-.943,4,9.323,9.323,0,0,1,.582,1.154,7.321,7.321,0,0,1,2.867-.783,5.964,5.964,0,0,1,5.694-1.5Zm0,17.266a5.307,5.307,0,0,0,2.515-.639,6.662,6.662,0,0,0,2.077-1.764A8.661,8.661,0,0,0,11.7,10.719a10.407,10.407,0,0,0,0-6.509,8.661,8.661,0,0,0-1.416-2.643A6.662,6.662,0,0,0,8.209-.2a5.265,5.265,0,0,0-5.03,0A6.662,6.662,0,0,0,1.1,1.567,8.661,8.661,0,0,0-.314,4.21a10.407,10.407,0,0,0,0,6.509A8.661,8.661,0,0,0,1.1,13.363a6.662,6.662,0,0,0,2.077,1.764A5.307,5.307,0,0,0,5.694,15.766Z" transform="translate(582.5 427.914)"/>
      <g id="Grupo_1202320" data-name="Grupo 1202320" transform="translate(581.332 428.074)">
        <path id="Trazado_1036830" data-name="Trazado 1036830" d="M592.552,452.5a6.2,6.2,0,0,0-5.888,4.267l-1,2.8c.885,2.126,2.519,3.554,4.391,3.554,2.812,0,5.091-3.221,5.091-7.194a9.592,9.592,0,0,0-.615-3.431Z" transform="translate(-584.963 -448.737)" fill="#d6dbdc"/>
        <path id="Trazado_1036831" data-name="Trazado 1036831" d="M590.089,439.263h1.978c-.862-2.241-2.543-3.763-4.476-3.763-2.812,0-5.091,3.221-5.091,7.194a9.511,9.511,0,0,0,.7,3.64l1-2.8A6.2,6.2,0,0,1,590.089,439.263Z" transform="translate(-582.5 -435.5)" fill="#b3bab7"/>
      </g>
      <path id="Elipse_12402" data-name="Elipse 12402" d="M3.923-1.5a4.151,4.151,0,0,1,2.152.612A5.724,5.724,0,0,1,7.794.747,8.16,8.16,0,0,1,8.932,3.131a10.09,10.09,0,0,1,.414,2.9,10.09,10.09,0,0,1-.414,2.9A8.16,8.16,0,0,1,7.794,11.3,5.724,5.724,0,0,1,6.075,12.94a4.088,4.088,0,0,1-4.3,0A5.724,5.724,0,0,1,.052,11.3,8.16,8.16,0,0,1-1.086,8.921a10.09,10.09,0,0,1-.414-2.9,10.09,10.09,0,0,1,.414-2.9A8.16,8.16,0,0,1,.052.747,5.724,5.724,0,0,1,1.771-.888,4.151,4.151,0,0,1,3.923-1.5Zm0,14.388a3.5,3.5,0,0,0,1.811-.518,5.066,5.066,0,0,0,1.518-1.449A7.5,7.5,0,0,0,8.3,8.731a9.427,9.427,0,0,0,.386-2.705A9.427,9.427,0,0,0,8.3,3.321a7.5,7.5,0,0,0-1.044-2.19A5.066,5.066,0,0,0,5.735-.318,3.5,3.5,0,0,0,3.923-.836a3.5,3.5,0,0,0-1.811.518A5.066,5.066,0,0,0,.594,1.131,7.5,7.5,0,0,0-.45,3.321,9.427,9.427,0,0,0-.836,6.026,9.427,9.427,0,0,0-.45,8.731a7.5,7.5,0,0,0,1.044,2.19A5.066,5.066,0,0,0,2.112,12.37,3.5,3.5,0,0,0,3.923,12.888Z" transform="translate(582.5 429.242)"/>
      <path id="Trazado_1036832" data-name="Trazado 1036832" d="M682.419,505s-1.246,2.481-2.435,2.878c-.974.325-2.663,1.121-3.542-.221a4.754,4.754,0,0,1-.443-2.435Z" transform="translate(-73.971 -61.542)" fill="#db4d3a"/>
    </g>
  </g>
</svg>
