<svg id="Grupo_1189370" data-name="Grupo 1189370" xmlns="http://www.w3.org/2000/svg" width="71.039" height="80.338" viewBox="0 0 71.039 80.338">
  <g id="Grupo_1188468" data-name="Grupo 1188468" transform="translate(0 8.716)">
    <path id="Rectángulo_402603" data-name="Rectángulo 402603" d="M0,0H0A71.039,71.039,0,0,1,71.039,71.039v.582a0,0,0,0,1,0,0H0a0,0,0,0,1,0,0V0A0,0,0,0,1,0,0Z" fill="#26c790"/>
    <path id="Trazado_876726" data-name="Trazado 876726" d="M10.219,38.554a12.109,12.109,0,0,0,.043-1.732,10.353,10.353,0,0,1,.05-1.514c.352-2.064.68-4.134,1.136-6.177a11.927,11.927,0,0,1,4.189-7.123,6.9,6.9,0,0,1,2.7-1.334c4.022-.973,9.457.968,10.632,4,.155.4.415.764.607,1.155,1.031,2.081,2.2,4.107,3.042,6.26a29.046,29.046,0,0,1,2.17,8.841,60.707,60.707,0,0,1-.942,8.144A10.236,10.236,0,0,1,29.58,54.63a3.165,3.165,0,0,1-.769.381c-1.176.378-2.346.791-3.543,1.082a8.266,8.266,0,0,1-4.5.154c-.97-.3-1.922-.666-2.871-1.03a11.324,11.324,0,0,1-6.7-7.29A19.189,19.189,0,0,1,10.219,38.554Zm4.393-8.459c-.349-.346-1.17-1.45-1.37-.67-.038.288,2.394,3.03,2.151,3.223-.137.229-.993-.975-1.518-1.43-.233-.2-1.079-1.392-1.235-.733a3.262,3.262,0,0,0,.593,1.3l1.392,1.734v.008c.359.392.781.9,1.1,1.216.258.257,1.168.618.937.1-.29-.592-1.19-1.607-.883-1.812a14.944,14.944,0,0,0,2.148,2.634c1.005.777.908-.057.908-.057l-3.283-4.4C15.224,30.855,14.955,30.432,14.613,30.095ZM16.3,31.277s2.871,4.216,3.307,4.27c1.111.037-.693-1.481-.756-1.583a36.9,36.9,0,0,0-3.431-4.579c-.455-.05.355,1.039.88,1.892Zm4.342,2.171c.26.338.792,1.419,1.137,1.216.619-.368-.16-1.023-.294-1.334-.256-.588-5.411-6.789-5.411-6.789s-1.024-.457-.384.4C17.312,29.131,18.979,31.287,20.639,33.448Zm.346-11.174c-.032,0-.055.1-.083.147-.075.247.375.457.392.078a1.531,1.531,0,0,1,.108-.214c.029-.166-.252-.264-.417-.012Zm-.074,1.467c-.556.578,1.343,2.5,1.736,2.3C23.266,25.417,21.262,23.413,20.911,23.742Zm3.114.536c-.093-.13-.672-.632-.928-.527-.376.275.368.823.465.963s.317.64.565.455C24.679,24.911,24.123,24.415,24.025,24.278Zm.106,29.911c.278-.8-1.855-.97-1.786-.125C22.405,54.484,23.924,54.7,24.131,54.188Zm-5.654-1.106c.081.173.158.343.179.371.489.631,1.025.378.527-.16-.057-.117-.146-.279-.17-.335C18.9,52.706,18.267,52.749,18.477,53.083ZM14.5,49.813c.524.842,1.528,2.393,2.165,1.982.418-.362-1.262-2.58-1.437-2.842-.352-.535.041-1.014.472-.459,0,0,2.537,3.818,2.814,3.663.028-.015.108-.064.236-.144.209-.4-1.267-1.346-.887-1.57.147-.3.519.2.9.353.552-.282-1.519-1.911-2.234-2.829-.087-.113-.169-.232-.245-.353-.757-.976-.07-1.567.823-.626.736.733,4.2,4.827,4.881,5.515.322.373.729-.077.248-.682,0,0-2.224-3.114-2.314-3.191-.148-.479.063-.765.485-.48a1.584,1.584,0,0,1,.386.364v0l2.5,3.42c.3.339.532.676.68.4a2.1,2.1,0,0,0-.409-1.817h0c-2.735-5.024-5.619-4.762-5.619-4.762l0-.007c-.406,0-.811,0-1.214-.036-1.879-.152-3.255,2.451-2.23,4.1Zm-1.261-2.2c.341-.429.556-.661.73-.922a3.121,3.121,0,0,1,2.938-1.45c.28.012.828-.034.828-.034,3.986.106,6.286,5.442,6.286,5.442s.767,1.4,1.125,2.071c.626.756,2.509.209,3.594-.5a6.763,6.763,0,0,0,2.922-3.324,19.317,19.317,0,0,0,.5-10.89,32.063,32.063,0,0,0-3.107-9.01c-.5-.872-1.06-1.705-1.725-2.766-.264.442-.411.653-.524.884-.41.836-2.723.845-5.628-.888a4.035,4.035,0,0,1-1.461-3.78,5.459,5.459,0,0,0-4.291,2.95c2.013.951,5.8,5.8,5.9,5.871,2.142-.174,6.022,3.844,6.214,3.984a5.055,5.055,0,0,1,1.774,4.175c-.061,1.4-3.52.582-5.053-.543-.745-.534-.914-3.593-1.268-3.189a4.921,4.921,0,0,1-4.8,1.226c-1.823-.531-5.539-4.7-5.539-4.7l-.05-.025a33.964,33.964,0,0,0-.831,8.462A22.949,22.949,0,0,0,13.242,47.609Zm11-11.356c.014.147.267.271.412.4.446.142.187-.441.28-.661.124-.378.387.195.59.3.869.14-.517-1.664-2.436-3.485-.694-.467.024.612.178.861.337.554.715,1.083,1.077,1.624a4.126,4.126,0,0,0-.1.959Zm2.774,2.6c-.622-.328-1.179-.624-1.724-.912-.528-.382-.21.607.071.675C25.868,38.741,27.379,39.416,27.016,38.854Zm.368-1.637a1.011,1.011,0,0,0,.131-.135c.224-.221.076-.538-.133-.341-.047.045-.095.09-.141.135C26.862,37.229,27.189,37.514,27.384,37.216Zm-.874-.086c-.055.025-.146.041-.157.078-.015.053.03.123.048.185l.145.052C26.862,37.388,26.726,37.081,26.51,37.13ZM38.638,23.786a16.337,16.337,0,0,1,5.288-5.061,16.8,16.8,0,0,1,6.236-2.419c1.4-.263,6.6-1.076,9.349-.651a37.61,37.61,0,0,1,6.02,2.042,5.259,5.259,0,0,1,1.936,2.271c1.254,2.93.306,9.122-1.41,10.66-.152.136-.809,1.367-1.2,1.724-1.412,1.3-2.707,2.729-4.113,4.179.371.369.655.692.978.965a16.942,16.942,0,0,1,5.025,7.475,49.58,49.58,0,0,1,1.594,8.145,20.481,20.481,0,0,1-2.77,9.95,4.22,4.22,0,0,1-1.144,1.29,6.681,6.681,0,0,1-5.715,1.27c-4.083-.921-7.928-2.324-11.088-5.2C45,58.03,42.426,55.6,40.853,52.33A17.471,17.471,0,0,1,39.7,50a15.736,15.736,0,0,1-.225-2.32,14.72,14.72,0,0,1,.507-7.513c.077-.2.119-.414.2-.689-.4-.56-.828-1.133-1.222-1.732a11.517,11.517,0,0,1-2.114-4.711,23.2,23.2,0,0,0-.488-2.343,5.076,5.076,0,0,1,.451-3.965c.592-.994,1.243-1.953,1.839-2.946Zm.829,3.508c-.379.424,3.1,4.045,3.29,3.755.509-.449-2.973-4.28-3.29-3.755Zm1-2.049c-.765.974,4.7,6.29,5.077,6.036C46.68,30.121,40.858,24.784,40.464,25.245Zm2.183-.119,0,0L44.288,27.1c2.695,3.022,3.088,2.3.481-.669l-3.1-3.243C40.935,23.75,42.254,24.636,42.647,25.126ZM42.5,22.573l2.792,3.333c.672.773,1.847,2.151,2.156,1.894.458-.381-3.875-5.424-4.373-5.457-.152-.009-.915-.21-.575.23Zm6.522,11.191c1.053-.572-1.045-3.129-1.631-2.658C47.047,31.3,48.781,33.909,49.021,33.764Zm-5.09-12.136c-.262.34,1.78,2.507,1.78,2.507s1.679,2.373,1.943,2.24c.23-.123.182-.387.105-.663C47.758,25.711,44.592,21.052,43.931,21.628ZM48.044,25.3a.37.37,0,0,0,.32,0c.533-.389-2.019-3.085-2.254-3.279C45.267,22.022,48.044,25.3,48.044,25.3Zm16.208.286c.187.311.492.413.276-.313a8.7,8.7,0,0,0-3.962-3.7C60.144,21.824,64.053,25.207,64.252,25.588Zm-6.3-5.034c-.157.107.917,1.128,1.639,1.937,0,0,3.884,4.306,4.024,4.191C64.23,25.818,58.34,20.1,57.952,20.554Zm1.665,3.79S61.6,26.113,61.6,26.1c.54.592,1.308.88.889.142-.049-.174-3.721-3.719-4.265-4.1C57.7,22.149,58.791,23.516,59.617,24.344ZM65.424,57.2c.753.286-.253-1.861-.653-2.442-.249-.367-2.952-3.361-2.135-1.32l1.941,3C64.855,56.853,65.106,56.915,65.424,57.2Zm-1.368-.327-2.585-4.227c-.456-.866-1.48-1.5-1.663-1.153l4.255,6.249C65.179,58.907,64.056,56.874,64.056,56.874Zm-.12,1.992,0,.006-5.015-7.432c-.292-.2-.6.449-.4.793A23.385,23.385,0,0,1,60.24,54.7s3.4,4.927,3.777,5.354C64.707,60.255,64.21,59.477,63.937,58.865ZM58.12,52.523c-.394-.422-.9.192-.923.928-.007.26,1.029,4.825,4.651,6.42l.882.3c.319.026.059-.448-.187-.923L59.624,54.99A27.25,27.25,0,0,1,58.12,52.523ZM44.343,54.529c2.4,2.919,5.007,5.59,8.605,7.06.8.327,1.559.745,2.334,1.128a5.3,5.3,0,0,0,4.581.215c.792-.325,1.3-.22.736.088a5.442,5.442,0,0,0-.707.562c-.263.563,3.49-.471,2.917-.971-.248-.175-.761-.09-.568-.4.43-.353,1.954-.938,1.44-1.185-.583-.258-1.505-.505-2.073-.776h0s-5.118-1.479-4.706-7.8A1.794,1.794,0,0,1,58.526,50.9a6.091,6.091,0,0,1,5.871,2c.493.515.906,1.108,1.559,1.918a20.612,20.612,0,0,0-2.917-11.49c-.362-.851-.7.147-.937.444a2.567,2.567,0,0,1-3.089.868,24.734,24.734,0,0,1-5.006-4.725,10.961,10.961,0,0,1-6.969,1.614c-.142-.017-2.414-.077-3.248-.742a3.506,3.506,0,0,0-.5-.26c-.882-.292-1.928,1.64-1.3,1.9a19.14,19.14,0,0,1,3.086,1.382,20.64,20.64,0,0,1,2.542,2.358,6.957,6.957,0,0,1,1.813.031,7.279,7.279,0,0,1,2.34,1.046c3.313,2.424,4.253,5.914,3.3,6.158a3.432,3.432,0,0,1-2.687-.125c-.473-.222-2.992-1.635-3.449-1.359-.9.543-1.727,1.26-3.388.577-1.618-.666-3.241-3.585-3.241-3.585-.163-.288-.5-.568-.486-.255a21.377,21.377,0,0,0,2.534,5.869ZM56.011,38.6c-.384.263-.744.512-1.1.753,0,0,2.968,3.615,3.143,3.81.551.613,1.954.657,1.208-.21A20.928,20.928,0,0,1,56.011,38.6Zm-1.026-10.53c-.251.441,3.313,4.127,3.726,3.657.361-.388-3.119-4.343-3.726-3.657Zm-8.34,11.256.661.093c.619.028-2.362-4.921-2.853-4.749-.621.137,2.192,4.656,2.192,4.656Zm-3.568-4.407c-.567.268,2,4.331,2.526,4.261l.368.051s-2.21-4.58-2.895-4.312Zm5.86,4.682c.422-.1-1.7-3.188-1.969-3.094C46.393,36.706,48.347,39.641,48.937,39.6ZM46.809,51.774,44.2,47.983c-.392-.458-.713-.982-1.109-1.44-.146-.169-.817-2.036-1.151-1.373a1.479,1.479,0,0,0,.167.983s4.063,6,4.469,6.085C46.87,52.255,46.982,52.016,46.809,51.774Zm.562-.469c.808.247-.355-1.489-.474-1.639-.193-.306-.385-.613-.576-.92-.814-1.076-1.8-1.47-1.011-.308Zm-3.032-6.4c.077-.332-2.447-1.885-2.445-1.239C41.821,44.086,44.262,45.3,44.339,44.9Zm4.544,2.108c-.626-.044-1.013.164-.664.852.181.355,2.089,4.35,3.994,4.64C52.788,52.337,48.883,47.009,48.883,47.009Zm5.391,5.277c1.076-.245-2.566-4.106-2.744-4.259a5.019,5.019,0,0,0-1.467-.748l2.064,3.011S53.866,52.392,54.274,52.285ZM42.666,48.476s1.845,2.709,1.912,2.817a2.364,2.364,0,0,0,.327.354c.292.158.418,0,.093-.311L41.92,46.651c-.324-.542-.661-.894-.636-.474a4.767,4.767,0,0,0,1.381,2.3ZM39.6,32.885a24.936,24.936,0,0,0,2.725,4.859c.43.621,2.346,2.094,1.892,1.082-1.874-2.1-1.874-2.1-1.952-4.619.4-1.33,3-.265,3.757.217,1.233.963,3.724,4.864,3.946,5.129.812-.012,1.387-.619,2.066-1,.75-.421,1.492-.858,2.263-1.241a15.729,15.729,0,0,0,3.273-2.119c.262-.225.672-.519.96-.772,1.076-.942-4.163-3.57-4.577-5.194a3.487,3.487,0,0,1-.146-.847,1.563,1.563,0,0,1,.763-1.466,1.244,1.244,0,0,1,1.412.253c1.066.8,4.087,4.087,4.173,4.143,1.434.919,3.782-2.215,2.971-2.768a38.086,38.086,0,0,1-5.215-4.964,13.752,13.752,0,0,1-1.149-2.03c-.53-1.745,1.28-1.852,2.072-1.489a8.049,8.049,0,0,1,1.026.586c4.809,2.149,5.246,4.614,5.246,4.614.058.385.115.753.2,1.351,1.044.534,1.534-5.773-1.318-7.306-7.537-4.05-18.582.74-18.623.758-.312.133-.608.3-.99.506.9.613,3.181.225,4.707,3.827a3.951,3.951,0,0,1-.427,3.307c-1.359,2.389.258,2.178.785,2.716a8.092,8.092,0,0,1,1.233,2.147c.284,1.208.085,1.484-1.214,2.128-.729.3-2.9-.91-3.329-2.344-3.889,1.187-6.875-3.877-7.023-3.969a7.048,7.048,0,0,0,.489,4.5Z" transform="translate(-3.493 -2.406)" fill-rule="evenodd"/>
  </g>
  <path id="Trazado_874774" data-name="Trazado 874774" d="M7.566,15.459c.05,0,.1,0,.152,0a2.545,2.545,0,0,0,1.518-.642,2.213,2.213,0,0,0,.778-1.654,10.518,10.518,0,0,0,.065-1.494V10.133H13.2a1.969,1.969,0,0,0,1.727-.885,2.737,2.737,0,0,0,.438-1.5,2.583,2.583,0,0,0-.457-1.5A1.959,1.959,0,0,0,13.2,5.419H10.079V3.76a12.483,12.483,0,0,0-.065-1.609A2.012,2.012,0,0,0,9.169.5,2.548,2.548,0,0,0,6.147.5,2.025,2.025,0,0,0,5.3,2.23V5.419H2.431a2.37,2.37,0,0,0-1.908.752A2.157,2.157,0,0,0,.016,7.856a2.768,2.768,0,0,0,.67,1.5,2.226,2.226,0,0,0,1.745.78H5.3v2.934a2.2,2.2,0,0,0,.846,1.924A2.4,2.4,0,0,0,7.566,15.459ZM13.33,8.211a.456.456,0,0,1-.125.013H8.17v3.441a8.284,8.284,0,0,1-.045,1.215l-.019.093v.095a.326.326,0,0,1-.113.3.648.648,0,0,1-.395.186H7.566a.5.5,0,0,1-.3-.1.862.862,0,0,1-.057-.378V8.224H2.431a.326.326,0,0,1-.3-.113.871.871,0,0,1-.223-.478A.256.256,0,0,1,1.98,7.4a.885.885,0,0,1,.451-.076H7.21V2.23c0-.146.03-.168.047-.18a.642.642,0,0,1,.8,0c.016.012.047.033.047.18v.079l.013.078A10.265,10.265,0,0,1,8.17,3.76V7.328H13.2a.522.522,0,0,1,.148.016.7.7,0,0,1,.108.4A.835.835,0,0,1,13.33,8.211Z" transform="translate(21.253 21.789) rotate(-137)" fill="#1944b6"/>
</svg>
