<svg xmlns="http://www.w3.org/2000/svg" width="136.207" height="154.037" viewBox="0 0 136.207 154.037">
  <g id="Grupo_1202649" data-name="Grupo 1202649" transform="translate(-1130.978 -3884)">
    <g id="Grupo_1202379" data-name="Grupo 1202379" transform="translate(1130.978 3884)">
      <g id="Grupo_1188468" data-name="Grupo 1188468" transform="translate(0 16.713)">
        <path id="Rectángulo_402603" data-name="Rectángulo 402603" d="M0,0H.207a136,136,0,0,1,136,136v1.324a0,0,0,0,1,0,0H0a0,0,0,0,1,0,0V0A0,0,0,0,1,0,0Z" fill="#ffa622"/>
      </g>
      <path id="Trazado_874774" data-name="Trazado 874774" d="M14.507,29.641c.1,0,.194,0,.291-.009A4.88,4.88,0,0,0,17.708,28.4,4.244,4.244,0,0,0,19.2,25.23a20.167,20.167,0,0,0,.125-2.864V19.429h5.993a3.776,3.776,0,0,0,3.312-1.7,5.248,5.248,0,0,0,.841-2.884,4.952,4.952,0,0,0-.876-2.875,3.756,3.756,0,0,0-3.277-1.583H19.325V7.209A23.934,23.934,0,0,0,19.2,4.123,3.857,3.857,0,0,0,17.581.952a4.885,4.885,0,0,0-5.795,0,3.882,3.882,0,0,0-1.622,3.323V10.39H4.66A4.544,4.544,0,0,0,1,11.833a4.136,4.136,0,0,0-.971,3.23,5.308,5.308,0,0,0,1.284,2.872A4.268,4.268,0,0,0,4.66,19.429h5.5v5.626a4.226,4.226,0,0,0,1.622,3.69A4.607,4.607,0,0,0,14.507,29.641Zm11.051-13.9a.874.874,0,0,1-.239.025H15.665v6.6a15.883,15.883,0,0,1-.087,2.33l-.036.178v.181a.626.626,0,0,1-.217.566,1.243,1.243,0,0,1-.757.357l-.063,0a.95.95,0,0,1-.573-.2,1.653,1.653,0,0,1-.109-.725V15.768H4.66a.626.626,0,0,1-.566-.217,1.67,1.67,0,0,1-.428-.917A.491.491,0,0,1,3.8,14.2a1.7,1.7,0,0,1,.864-.147h9.164V4.275c0-.28.058-.322.089-.344a1.231,1.231,0,0,1,1.539,0c.031.022.089.064.089.344v.151l.025.149a19.681,19.681,0,0,1,.1,2.633V14.05h9.653a1,1,0,0,1,.284.031,1.337,1.337,0,0,1,.208.767A1.6,1.6,0,0,1,25.557,15.743Z" transform="translate(40.749 41.777) rotate(-137)" fill="#fff"/>
    </g>
    <g id="Grupo_1202648" data-name="Grupo 1202648" transform="translate(1154.16 3933.709)">
      <g id="Grupo_1202646" data-name="Grupo 1202646" transform="translate(26.02 66.788)">
        <path id="Trazado_1037197" data-name="Trazado 1037197" d="M145.938,375h2.672v2.672h-2.672Z" transform="translate(-145.938 -374.999)"/>
        <path id="Trazado_1037198" data-name="Trazado 1037198" d="M175.938,395h2.672v2.672h-2.672Z" transform="translate(-170.595 -391.437)"/>
      </g>
      <g id="Grupo_1202647" data-name="Grupo 1202647" transform="translate(0.034 0)">
        <path id="Trazado_1037199" data-name="Trazado 1037199" d="M84.952,41.412V37.7h2.508V28.942a4.012,4.012,0,0,0-4.007-4.007H77.029v2.672h6.423a1.337,1.337,0,0,1,1.336,1.336v6.089H57.358V28.942a1.337,1.337,0,0,1,1.336-1.336H74.358V24.934H63.139a8.457,8.457,0,0,0-7.833-10.68A12.029,12.029,0,0,0,40.584,3.885a12.017,12.017,0,0,0-17.695,0A12.03,12.03,0,0,0,8.166,14.254a8.46,8.46,0,1,0,2.3,16.675,37.2,37.2,0,0,1,5.941,7.081,51.109,51.109,0,0,1,7.864,22.131,13.006,13.006,0,0,0-2.2.826,10.829,10.829,0,0,0-5.006-8.114,11.979,11.979,0,0,0-5.157-1.736l-.15,2.667a9.408,9.408,0,0,1,3.894,1.337A8.059,8.059,0,0,1,19.34,60.8a12.775,12.775,0,0,0-5.222-1.121,13.024,13.024,0,0,0-8.55,3.231l1.737,2.03a10.218,10.218,0,0,1,12.806-.637l.774.549.774-.549a10.316,10.316,0,0,1,5.992-1.953c6.293,0,11.413,5.868,11.413,13.082S33.944,88.517,27.65,88.517a10.317,10.317,0,0,1-5.992-1.955l-.774-.549-.774.549a10.318,10.318,0,0,1-5.993,1.955c-6.293,0-11.413-5.868-11.413-13.082A14.176,14.176,0,0,1,5.64,66.685l-2.1-1.652a16.856,16.856,0,0,0-3.506,10.4c0,8.686,6.318,15.753,14.084,15.753a12.893,12.893,0,0,0,6.766-1.937,12.89,12.89,0,0,0,6.766,1.937A12.733,12.733,0,0,0,33.016,90a18.3,18.3,0,0,0,6.9,1.187c.267.009.529.014.787.014a15.565,15.565,0,0,0,10.877-3.835A6.717,6.717,0,0,0,57.6,91.189H84.544a6.686,6.686,0,0,0,6.679-6.679V48.9a7.62,7.62,0,0,0-6.271-7.489ZM59.866,37.7H82.28v3.592H59.866ZM8.494,28.5a5.788,5.788,0,0,1,0-11.577,6.044,6.044,0,0,1,.767.052l1.506.193V15.646c0-.024,0-.049,0-.078a9.35,9.35,0,0,1,11.99-8.954c1.824,1.313,2.815,2.728,2.94,4.208.189,2.217-1.534,4.177-2.284,4.917l1.876,1.9c1.018-1,3.354-3.7,3.069-7.045a7.988,7.988,0,0,0-3.044-5.363,9.341,9.341,0,0,1,12.676-.16,9.392,9.392,0,0,0-4.415,7.841h2.672c0-4.151,3.814-6.022,4.336-6.259a9.353,9.353,0,0,1,12.125,8.914c0,.027,0,.053,0,.079v1.518l1.506-.193a6.075,6.075,0,0,1,.767-.052,5.79,5.79,0,0,1,5.344,8.015H58.694a4.013,4.013,0,0,0-3.981,3.552,5.792,5.792,0,0,1-5.193-3.851l-.51-1.447-1.363.7a9.346,9.346,0,0,1-11.626-2.513l-.573-.723-.879.279a9.43,9.43,0,0,1-5.667,0l-.879-.279-.573.723a9.347,9.347,0,0,1-11.627,2.513l-1.363-.7-.51,1.447A5.8,5.8,0,0,1,8.494,28.5ZM35.983,41.164a3.5,3.5,0,1,1,3.2-5.737L40.191,36.6,41.2,35.427a3.5,3.5,0,1,1,3.2,5.737l-1.131.176v6.952L37.113,48.2V41.339Zm3.762-8.719c-.116-.071-.235-.139-.355-.2l.1-5.275a12.039,12.039,0,0,0,3.873.639c.276,0,.55-.012.822-.03Zm8.2-5.038a8.469,8.469,0,0,0,2.385,2.364,39.7,39.7,0,0,0-2.411,3.3,6.143,6.143,0,0,0-3.742-1.524ZM45.941,43.519a6.171,6.171,0,0,0,3.645-8.1A36.59,36.59,0,0,1,52.877,30.9a8.419,8.419,0,0,0,1.809.259V37.7h2.508v3.71A7.62,7.62,0,0,0,50.923,48.9V59.268c-2.2-4.537-4.385-8.788-4.982-9.948v-5.8Zm-16.2-19.643-3.915,8.7-5.692-4.968a11.95,11.95,0,0,0,8.823-3.884C29.221,23.782,29.483,23.832,29.746,23.876Zm-2.1,35.806c-.248,0-.495.009-.741.023A53.721,53.721,0,0,0,18.565,36.43a41.57,41.57,0,0,0-5.426-6.658,8.469,8.469,0,0,0,2.5-2.545l11.145,9.728,5.828-12.948a12,12,0,0,0,1.894-.286,12.03,12.03,0,0,0,2.326,1.965l-.106,5.857c-.068,0-.136-.008-.2-.008a6.173,6.173,0,0,0-2.084,11.983v5.676c-.608,1.185-2.984,5.84-5.273,10.579A12.7,12.7,0,0,0,27.65,59.682Zm23.2,24.582c-2.478,2.989-6.138,4.419-10.876,4.252H39.92a17.334,17.334,0,0,1-3.928-.4,16.4,16.4,0,0,0,5.743-12.685c0-7.056-4.17-13.044-9.9-15.043,1.92-3.959,3.851-7.766,4.691-9.411h7.263c2.82,5.488,9.126,18.1,9.8,21.061a14.948,14.948,0,0,1-2.733,12.221Zm37.7.246a4.012,4.012,0,0,1-4.007,4.007H57.6a4.031,4.031,0,0,1-3.972-3.493,17.768,17.768,0,0,0,2.562-13.57,45.354,45.354,0,0,0-2.6-6.535V48.9a4.941,4.941,0,0,1,4.935-4.935H83.616A4.941,4.941,0,0,1,88.551,48.9Z" transform="translate(-0.034 0)"/>
        <path id="Trazado_1037200" data-name="Trazado 1037200" d="M344.977,315.847l-2.89-2.89a6.679,6.679,0,1,0-9.446,9.444l2.89,2.89a6.68,6.68,0,0,0,10.3,8.407l7.556-7.556a6.679,6.679,0,0,0-8.406-10.295Zm-10.448,4.664a4.007,4.007,0,0,1,5.668-5.665l2.795,2.795-5.667,5.667Zm9.408,11.3a4.007,4.007,0,1,1-5.667-5.667l2.665-2.665,5.856,5.479Zm7.556-7.556-2.813,2.813-5.856-5.479,3-3a4.007,4.007,0,0,1,5.667,5.667Z" transform="translate(-271.794 -255.61)"/>
      </g>
    </g>
  </g>
</svg>
