<svg xmlns="http://www.w3.org/2000/svg" xmlns:xlink="http://www.w3.org/1999/xlink" width="293" height="232" viewBox="0 0 293 232">
  <defs>
    <filter id="Rectángulo_410013" x="0" y="0" width="293" height="232" filterUnits="userSpaceOnUse">
      <feOffset dy="3" input="SourceAlpha"/>
      <feGaussianBlur stdDeviation="3" result="blur"/>
      <feFlood flood-opacity="0.161"/>
      <feComposite operator="in" in2="blur"/>
      <feComposite in="SourceGraphic"/>
    </filter>
  </defs>
  <g id="Grupo_1202642" data-name="Grupo 1202642" transform="translate(-295.765 -2815)">
    <g transform="matrix(1, 0, 0, 1, 295.76, 2815)" filter="url(#Rectángulo_410013)">
      <rect id="Rectángulo_410013-2" data-name="Rectángulo 410013" width="275" height="214" rx="10" transform="translate(9 6)" fill="#fee3e0"/>
    </g>
    <g id="Grupo_1202643" data-name="Grupo 1202643" transform="translate(17.332 -1.077)">
      <g id="Grupo_1202530" data-name="Grupo 1202530" transform="translate(331.433 2850.076)">
        <g id="Grupo_1188468" data-name="Grupo 1188468" transform="translate(0 2.911)">
          <path id="Rectángulo_402603" data-name="Rectángulo 402603" d="M136,0h17.224a0,0,0,0,1,0,0V154.48a0,0,0,0,1,0,0H0a0,0,0,0,1,0,0V136A136,136,0,0,1,136,0Z" fill="#fdaa30"/>
        </g>
        <path id="Trazado_874774" data-name="Trazado 874774" d="M16.319,0c.108,0,.218,0,.327.01A5.489,5.489,0,0,1,19.921,1.4,4.774,4.774,0,0,1,21.6,4.963a22.687,22.687,0,0,1,.141,3.222v3.3h6.742A4.248,4.248,0,0,1,32.207,13.4a5.9,5.9,0,0,1,.946,3.245,5.571,5.571,0,0,1-.985,3.234,4.226,4.226,0,0,1-3.687,1.781H21.74v3.579a26.925,26.925,0,0,1-.14,3.471,4.339,4.339,0,0,1-1.822,3.567,5.495,5.495,0,0,1-6.519,0,4.367,4.367,0,0,1-1.825-3.738V21.656H5.243a5.111,5.111,0,0,1-4.116-1.623A4.653,4.653,0,0,1,.035,16.4,5.971,5.971,0,0,1,1.479,13.17a4.8,4.8,0,0,1,3.763-1.682h6.191V5.159a4.754,4.754,0,0,1,1.825-4.151A5.182,5.182,0,0,1,16.319,0ZM28.75,15.634a.984.984,0,0,0-.269-.028H17.622V8.184a17.866,17.866,0,0,0-.1-2.621l-.04-.2v-.2a.7.7,0,0,0-.244-.637,1.4,1.4,0,0,0-.851-.4l-.07,0a1.069,1.069,0,0,0-.644.225,1.859,1.859,0,0,0-.123.816V15.606H5.243a.7.7,0,0,0-.637.244,1.878,1.878,0,0,0-.481,1.032.552.552,0,0,0,.146.492,1.909,1.909,0,0,0,.972.165H15.552v11c0,.316.065.362.1.387a1.385,1.385,0,0,0,1.732,0c.035-.025.1-.072.1-.387v-.17l.028-.168a22.14,22.14,0,0,0,.109-2.962v-7.7H28.481a1.127,1.127,0,0,0,.32-.035,1.5,1.5,0,0,0,.234-.863A1.8,1.8,0,0,0,28.75,15.634Z" transform="translate(111.899 2.023) rotate(-43)" fill="#fff"/>
      </g>
      <g id="Grupo_1202641" data-name="Grupo 1202641" transform="translate(361.726 2866.487)">
        <path id="Trazado_1037188" data-name="Trazado 1037188" d="M152.534,62.294l-23.373-2.373a12.986,12.986,0,0,0-9.337,2.689l-4.88,3.8a12.965,12.965,0,0,0-11.061-1.325c-2.163-6.931-11.238-10.384-17.651-6.261a10.907,10.907,0,0,0-15.087.12c-6.164-4.25-15.5-1.018-17.788,5.966a13.126,13.126,0,0,0-10.836,1.72L37.357,62.61a12.988,12.988,0,0,0-9.337-2.689L22,60.533a2.3,2.3,0,1,0,.465,4.581l6.024-.612a8.4,8.4,0,0,1,6.042,1.74l4.712,3.672a12.672,12.672,0,0,0-1.961,4.54l-9.122-4.321a2.3,2.3,0,1,0-1.972,4.161l7.94,3.761a11.737,11.737,0,0,0-5.9,5.573l-7.466-1.309a18.248,18.248,0,0,1-12.55-8.664l-3.522-5.93a.564.564,0,0,1,.428-.849L11.8,66.2a2.3,2.3,0,1,0-.465-4.581l-6.688.679A5.169,5.169,0,0,0,.724,70.076l3.523,5.931A22.841,22.841,0,0,0,18.868,86.632a15.728,15.728,0,0,0-5.934,17.4,11.725,11.725,0,0,0-5.441,9.854,11.1,11.1,0,0,0,5.328,9.51c-1.3,4.593-.344,10.63,3.293,14.47a15.114,15.114,0,0,0-1.823,7.121,13.781,13.781,0,0,0,8.839,12.921,11.724,11.724,0,0,0,13.138,11.379,15.73,15.73,0,0,0,22.476,3.984,14.92,14.92,0,0,0,11.393,5.469H87.044a14.9,14.9,0,0,0,11.393-5.469,15.731,15.731,0,0,0,22.477-3.984,11.768,11.768,0,0,0,13.138-11.382,13.825,13.825,0,0,0,5.1-3.453,2.3,2.3,0,0,0-3.362-3.147,9.22,9.22,0,0,1-4.675,2.7,2.3,2.3,0,0,0-1.758,2.607,7.09,7.09,0,0,1-8.948,7.881,2.3,2.3,0,0,0-2.7,1.165,11.123,11.123,0,0,1-16.271,4.1l13.11-15.378a27.807,27.807,0,0,0,6.64-18.024V104.19a9.866,9.866,0,0,0-.806-3.886,11.794,11.794,0,0,0,9.776-11.943,11.136,11.136,0,0,1,10.169,11.08,11.022,11.022,0,0,1-1.053,4.726,2.3,2.3,0,0,0,1.266,3.133,7.084,7.084,0,0,1,4.546,6.587,6.64,6.64,0,0,1-4.4,6.233,2.3,2.3,0,0,0-1.251,3.039,12.5,12.5,0,0,1,.891,4.665,10.4,10.4,0,0,1-3.735,8.015,2.3,2.3,0,0,0-.28,3.143,9.7,9.7,0,0,1,1.816,4.234,2.3,2.3,0,1,0,4.533-.807,14.96,14.96,0,0,0-1.591-4.542,14.8,14.8,0,0,0,3.861-10.043,17.822,17.822,0,0,0-.569-4.426,11.1,11.1,0,0,0,5.328-9.51,11.726,11.726,0,0,0-5.441-9.854,15.727,15.727,0,0,0-5.931-17.4,22.748,22.748,0,0,0,7-2.864,2.3,2.3,0,1,0-2.425-3.915,18.179,18.179,0,0,1-6.463,2.463l-7.468,1.31a11.734,11.734,0,0,0-5.9-5.573L131,74.3a2.3,2.3,0,1,0-1.972-4.161l-8.569,4.059a12.69,12.69,0,0,0-2.12-4.586l4.317-3.364a8.4,8.4,0,0,1,6.042-1.74l23.373,2.373a.564.564,0,0,1,.428.849l-3.1,5.22a2.3,2.3,0,1,0,3.959,2.352l3.1-5.221a5.17,5.17,0,0,0-3.922-7.782ZM87.044,174.136H70.137a10.663,10.663,0,0,1-8.361-4.405,17.909,17.909,0,0,0,2.084.126,17.339,17.339,0,0,0,14.7-8.263A17.039,17.039,0,0,0,93.265,169.9a17.559,17.559,0,0,0,2.109-.132,10.637,10.637,0,0,1-8.329,4.368Zm29.537-37.784a23.2,23.2,0,0,1-5.539,15.037c-.1.109-8.114,9.535-8.235,9.651a12.723,12.723,0,0,1-9.542,4.255,12.478,12.478,0,0,1-12.372-10.53v-7.782a16.377,16.377,0,0,0,8.8-4.16l5.513-5.058a2.3,2.3,0,0,0-3.113-3.394L86.58,139.43a11.782,11.782,0,0,1-15.979,0l-5.513-5.058a2.3,2.3,0,0,0-3.113,3.394l5.513,5.058a16.379,16.379,0,0,0,8.8,4.16v7.781A12.654,12.654,0,0,1,63.86,165.252a12.5,12.5,0,0,1-9.473-4.2c-1.556-1.829-7.837-9.128-8.985-10.577a2.366,2.366,0,0,0-3.21-.557,2.3,2.3,0,0,0-.506,3.279c.125.28,13.679,16.081,14.06,16.556a11.122,11.122,0,0,1-16.271-4.1,2.3,2.3,0,0,0-2.7-1.165c-4.342,1.435-9.961-2.78-8.948-7.881A2.3,2.3,0,0,0,26.066,154a9.2,9.2,0,0,1-7.17-9.015,10.148,10.148,0,0,1,1.976-6.007,2.3,2.3,0,0,0-.28-3.143,11.078,11.078,0,0,1-2.844-12.68,2.31,2.31,0,0,0-.5-2.545,2.491,2.491,0,0,0-.822-.521,6.63,6.63,0,0,1-4.33-6.2,7.084,7.084,0,0,1,4.5-6.568,2.415,2.415,0,0,0,.783-.465,2.312,2.312,0,0,0,.532-2.686,11.024,11.024,0,0,1-1.053-4.726,11.136,11.136,0,0,1,10.169-11.08A11.8,11.8,0,0,0,36.8,100.3,9.866,9.866,0,0,0,36,104.19v32.163a27.813,27.813,0,0,0,.724,6.3,2.3,2.3,0,1,0,4.464-1.135,23.2,23.2,0,0,1-.583-5.166V104.19a5.34,5.34,0,0,1,7.729-4.777l9.278,4.639a2.3,2.3,0,0,0,3.12-1.094,2.367,2.367,0,0,0-1.148-3.068l-9.191-4.6a9.9,9.9,0,0,0-1.617-.635c.131-.227.256-.46.373-.7a10.753,10.753,0,0,0,7.048-.546A11.516,11.516,0,0,0,73.4,92.336a13.979,13.979,0,0,0,10.921-.1,11.5,11.5,0,0,0,17.1,1.359,10.857,10.857,0,0,0,6.617.369c.117.238.242.47.373.7a9.876,9.876,0,0,0-1.617.635L97.6,99.89a2.366,2.366,0,0,0-1.147,3.068,2.3,2.3,0,0,0,3.12,1.094l9.278-4.639a5.34,5.34,0,0,1,7.729,4.777v32.163Zm8.98-47.56a7.06,7.06,0,0,1-13.929,1.635,2.3,2.3,0,0,0-3.359-1.482,6.14,6.14,0,0,1-6.194-.144,2.3,2.3,0,0,0-3.056.583,6.854,6.854,0,0,1-5.543,2.785,6.941,6.941,0,0,1-6.252-3.97,2.3,2.3,0,0,0-3.348-.943,9.358,9.358,0,0,1-10.083.121,2.3,2.3,0,0,0-3.284.934,6.907,6.907,0,0,1-11.888.864A2.3,2.3,0,0,0,55.4,88.6a6.135,6.135,0,0,1-6.5.345,2.3,2.3,0,0,0-3.359,1.482,7.061,7.061,0,1,1-6.868-8.7c1.447.061,3.552-.507,3.126-2.775A8.133,8.133,0,0,1,53.831,70.1a2.3,2.3,0,0,0,3.456-1.781,7.365,7.365,0,0,1,12.577-4.5,2.3,2.3,0,0,0,3.612-.433,6.139,6.139,0,0,1,10.452-.135,2.3,2.3,0,0,0,3.536.426A7.365,7.365,0,0,1,99.916,68.6a2.3,2.3,0,0,0,3.591,1.786A8.136,8.136,0,0,1,116.2,77.125a8.207,8.207,0,0,1-.2,1.8,2.384,2.384,0,0,0,2.505,2.8,7.071,7.071,0,0,1,7.061,7.062Z" transform="translate(0 -55.856)"/>
        <path id="Trazado_1037189" data-name="Trazado 1037189" d="M172.3,234.391a2.3,2.3,0,0,0-2.3,2.3v6.14a2.3,2.3,0,1,0,4.6,0v-6.14A2.3,2.3,0,0,0,172.3,234.391Z" transform="translate(-117.811 -179.582)"/>
        <path id="Trazado_1037190" data-name="Trazado 1037190" d="M329.3,234.391a2.3,2.3,0,0,0-2.3,2.3v6.14a2.3,2.3,0,1,0,4.6,0v-6.14A2.3,2.3,0,0,0,329.3,234.391Z" transform="translate(-226.613 -179.582)"/>
      </g>
    </g>
  </g>
</svg>
