<svg xmlns="http://www.w3.org/2000/svg" width="80" height="80" viewBox="0 0 80 80">
  <g id="Grupo_1202635" data-name="Grupo 1202635" transform="translate(-1083.765 -910)">
    <rect id="Rectángulo_409950" data-name="Rectángulo 409950" width="80" height="80" transform="translate(1083.765 910)" fill="none"/>
    <g id="Grupo_1202634" data-name="Grupo 1202634" transform="translate(1070.765 918)">
      <path id="Trazado_1037174" data-name="Trazado 1037174" d="M79.32,55.925H69.553v-.578a1.07,1.07,0,1,0-2.141,0v.578H40.119V54.539l19.538-11.19h7.756v5.218H55.626a1.07,1.07,0,0,0,0,2.141H68.483a1.07,1.07,0,0,0,1.07-1.07V27.561a1.07,1.07,0,0,0-1.07-1.07H39.048a1.07,1.07,0,0,0-1.07,1.07V55.925H35.462a1.07,1.07,0,1,0,0,2.141H79.32a1.072,1.072,0,0,1,1.07,1.07v1.873a1.072,1.072,0,0,1-1.07,1.07H28.211a1.072,1.072,0,0,1-1.07-1.07V59.136a1.072,1.072,0,0,1,1.07-1.07h1.873A1.07,1.07,0,0,0,31.155,57V14.984a1.114,1.114,0,0,0-1.423-1.067,1.993,1.993,0,1,1-1.194-3.8L53.766,2.192l25.229,7.922a1.993,1.993,0,1,1-1.194,3.8L54.086,6.471a1.072,1.072,0,0,0-.641,0l-17.82,5.6a1.07,1.07,0,1,0,.641,2.042l17.5-5.5,22.611,7.1V51.165a1.07,1.07,0,1,0,2.141,0V16.149a4.135,4.135,0,0,0,1.118-8.077L54.086.049a1.07,1.07,0,0,0-.641,0L27.9,8.072a4.135,4.135,0,0,0,1.118,8.079V55.925h-.8A3.215,3.215,0,0,0,25,59.136v1.873a3.215,3.215,0,0,0,3.211,3.211H79.32a3.215,3.215,0,0,0,3.211-3.211V59.136a3.215,3.215,0,0,0-3.211-3.211ZM67.413,28.631v.584L44.982,42.062a1.07,1.07,0,0,0,1.064,1.858L67.413,31.682v9.526H63.395l1.065-.61A1.07,1.07,0,1,0,63.4,38.74L40.119,52.072V43.349h1.524a1.07,1.07,0,1,0,0-2.141H40.119V35.99H53.278a1.07,1.07,0,1,0,0-2.141H40.119V28.631Z"/>
      <path id="Trazado_1037175" data-name="Trazado 1037175" d="M170,147.07a1.07,1.07,0,0,0,1.07,1.07h16.59a1.07,1.07,0,1,0,0-2.141H171.07A1.07,1.07,0,0,0,170,147.07Z" transform="translate(-125.6 -126.467)"/>
      <path id="Trazado_1037176" data-name="Trazado 1037176" d="M210.366,105.141a1.07,1.07,0,1,0,0-2.141h-8.3a1.07,1.07,0,0,0,0,2.141Z" transform="translate(-152.452 -89.22)"/>
    </g>
  </g>
</svg>
