<svg xmlns="http://www.w3.org/2000/svg" width="80" height="80" viewBox="0 0 80 80">
  <g id="Grupo_1202638" data-name="Grupo 1202638" transform="translate(-10056 10585)">
    <rect id="Rectángulo_409950" data-name="Rectángulo 409950" width="80" height="80" transform="translate(10056 -10585)" fill="none"/>
    <path id="Trazado_1037185" data-name="Trazado 1037185" d="M63.794,49.358H60.357V45.921a.915.915,0,0,0-.915-.915H54.259a.915.915,0,0,0-.915.915v3.437H49.907a.915.915,0,0,0-.915.915v5.183a.915.915,0,0,0,.915.915h3.437v3.437a.915.915,0,0,0,.915.915h5.183a.915.915,0,0,0,.915-.915V56.37h3.437a.915.915,0,0,0,.915-.915V50.273a.914.914,0,0,0-.915-.915Zm-.915,5.183H59.442a.915.915,0,0,0-.915.915v3.437H55.174V55.455a.915.915,0,0,0-.915-.915H50.822V51.187h3.437a.915.915,0,0,0,.915-.915V46.835h3.354v3.437a.915.915,0,0,0,.915.915h3.437Zm9.343-17.509,0-.01c-.011-.024-.023-.048-.035-.071l-.013-.022c-.011-.019-.022-.037-.034-.055l-.02-.027L72.08,36.8l-.026-.028c-.012-.013-.024-.026-.037-.038l-.009-.009-7.65-7.19V25.679a4.172,4.172,0,0,0-.644-8.294H49.987a4.172,4.172,0,0,0-.644,8.294v3.859l-7.65,7.19-.009.009c-.013.013-.025.025-.037.038l-.026.028c-.013.014-.023.03-.034.045l-.02.027c-.013.018-.023.036-.034.055s-.009.014-.013.022-.024.047-.035.071l0,.01a.915.915,0,0,0-.075.362V66.357a7.06,7.06,0,0,0,7.052,7.052h16.79A7.06,7.06,0,0,0,72.3,66.357V37.4a.919.919,0,0,0-.074-.364ZM47.644,21.557a2.346,2.346,0,0,1,2.343-2.343H63.715a2.343,2.343,0,1,1,0,4.686H49.987A2.346,2.346,0,0,1,47.644,21.557ZM50.884,30.6a.914.914,0,0,0,.288-.667v-4.2H62.53v4.2a.914.914,0,0,0,.288.667l6.257,5.881H54.751a.915.915,0,1,0,0,1.829H70.468V40.5H43.234V38.309h6.489a.915.915,0,0,0,0-1.829h-5.1Zm-7.65,11.725H70.469V63.4H43.234ZM65.245,71.578H48.456a5.229,5.229,0,0,1-5.223-5.223V65.231H70.469v1.124A5.229,5.229,0,0,1,65.245,71.578Zm-52-29.348a2.978,2.978,0,0,0,2.094.938l.092,0a2.977,2.977,0,0,0,2.055-.814l1.688-1.592.268.285a2.1,2.1,0,0,0,1.474.661h.064a2.1,2.1,0,0,0,1.446-.573l17.716-16.7a2.89,2.89,0,0,0,3.743-4.362L42.778,18.9,47.3,14.64l.012.012a2.36,2.36,0,0,0,3.333.1l1.051-.99a.915.915,0,0,0,.038-1.292L43.078,3.287a.914.914,0,0,0-1.292-.038l-1.051.99a2.361,2.361,0,0,0-.1,3.333l.012.012-4.52,4.261-1.106-1.173a2.89,2.89,0,0,0-4.575,3.478L12.73,30.852a2.114,2.114,0,0,0-.088,2.984l.268.285-1.688,1.592a3.005,3.005,0,0,0-.124,4.24l.446.473-6.29,5.93a.915.915,0,0,0,1.255,1.331l6.29-5.93ZM41.989,5.57l.386-.363,7.4,7.849-.385.363a.537.537,0,0,1-.749-.022L41.968,6.318a.536.536,0,0,1,.021-.749ZM41.9,8.916l4.141,4.393-4.519,4.26-4.141-4.393Zm-9.711,2.966a1.068,1.068,0,0,1,1.5.044l8.862,9.4a1.067,1.067,0,0,1-.045,1.5,1.062,1.062,0,0,1-1.5-.045l-8.861-9.4a1.063,1.063,0,0,1,.044-1.5Zm-3.5,6.438,3.422,3.63L20.164,33.213l-3.422-3.63ZM13.985,32.183l1.427-1.346,4.049,4.295a.915.915,0,0,0,1.293.038L34.033,22.653a.914.914,0,0,0,.038-1.292l-4.049-4.295,1.633-1.539L38.84,23.15,21.171,39.805a.278.278,0,0,1-.2.075.282.282,0,0,1-.2-.087l-6.8-7.211a.287.287,0,0,1,.012-.4Zm-1.508,4.86,1.688-1.592,3.753,3.98L16.23,41.023a1.177,1.177,0,0,1-1.655-.049L12.428,38.7a1.177,1.177,0,0,1,.049-1.655ZM36.025,54.879a.915.915,0,0,0-.915.915v1.285H32.159A9.546,9.546,0,0,0,30.01,51.9l2.09-2.09.908.908A.914.914,0,1,0,34.3,49.422l-3.11-3.11A.914.914,0,0,0,29.9,47.606l.908.908-2.09,2.09a9.535,9.535,0,0,0-5.181-2.149V45.5h1.285a.915.915,0,1,0,0-1.829h-4.4a.915.915,0,1,0,0,1.829h1.285v2.952A9.546,9.546,0,0,0,16.525,50.6l-2.09-2.09.908-.908a.914.914,0,0,0-1.293-1.293l-3.11,3.11a.914.914,0,1,0,1.292,1.293l.908-.908,2.09,2.09a9.535,9.535,0,0,0-2.149,5.181h-2.95V55.792a.915.915,0,0,0-1.829,0v4.4a.915.915,0,0,0,1.829,0V58.905h2.952a9.546,9.546,0,0,0,2.149,5.181l-2.09,2.09-.908-.908a.914.914,0,1,0-1.293,1.293l3.11,3.11a.914.914,0,1,0,1.292-1.293l-.908-.908,2.09-2.09a9.535,9.535,0,0,0,5.181,2.149V70.48H20.422a.915.915,0,1,0,0,1.829h4.4a.915.915,0,1,0,0-1.829H23.535V67.528a9.546,9.546,0,0,0,5.181-2.149l2.09,2.09-.908.908a.914.914,0,1,0,1.292,1.293l3.11-3.11a.914.914,0,0,0-1.293-1.293l-.908.908-2.09-2.09a9.535,9.535,0,0,0,2.149-5.181h2.952V60.19a.915.915,0,0,0,1.829,0v-4.4A.912.912,0,0,0,36.025,54.879Zm-13.4-4.641h0a7.753,7.753,0,1,1-7.754,7.753,7.762,7.762,0,0,1,7.754-7.753ZM18.755,60.564l2.573-2.573-2.573-2.573a.914.914,0,1,1,1.293-1.293L22.621,56.7l2.573-2.573a.914.914,0,1,1,1.293,1.293l-2.573,2.573,2.573,2.573a.914.914,0,1,1-1.292,1.293l-2.573-2.573-2.573,2.573a.915.915,0,0,1-1.294-1.293Z" transform="translate(10057.034 -10582.999)"/>
  </g>
</svg>
