<svg xmlns="http://www.w3.org/2000/svg" xmlns:xlink="http://www.w3.org/1999/xlink" width="90" height="90" viewBox="0 0 90 90">
  <defs>
    <clipPath id="clip-path">
      <rect id="Rect치ngulo_409697" data-name="Rect치ngulo 409697" width="69.668" height="78.438" fill="none"/>
    </clipPath>
  </defs>
  <g id="Grupo_1202355" data-name="Grupo 1202355" transform="translate(0.431)">
    <rect id="Rect치ngulo_409957" data-name="Rect치ngulo 409957" width="90" height="90" transform="translate(-0.431)" fill="none"/>
    <g id="Grupo_1202354" data-name="Grupo 1202354" transform="translate(10 6)">
      <g id="Grupo_1202093" data-name="Grupo 1202093" clip-path="url(#clip-path)">
        <path id="Trazado_1036200" data-name="Trazado 1036200" d="M135.927,159.659a1.164,1.164,0,1,0-1.164,1.164,1.164,1.164,0,0,0,1.164-1.164m12.444,0a1.172,1.172,0,1,0-1.172,1.172,1.172,1.172,0,0,0,1.172-1.172" transform="translate(-106.252 -126.047)" fill="#fff"/>
        <path id="Trazado_1036201" data-name="Trazado 1036201" d="M23.338,181.276c-.413-.33-.752-.567-.776-1.152-.053-1.294.681-3.463.782-4.895.3-4.29-.2-8.968-.048-13.3-.219-1-1.843-.378-2.791-.425a10.109,10.109,0,0,1-9.281-11.935,9.892,9.892,0,0,1-5.819-8.358c-.056-.942.182-1.809.084-2.688-2.332-1.246-5.968-5.784-5.437-8.5.13-.664,1.163-.869,1.683-.616.544.265,1.227,2.92,1.576,3.633,1.2,2.454,2.391,2.483,4.237,3.884,1.178.894.123,2.454.152,3.823a8.035,8.035,0,0,0,3.838,6.437c.517.295,1.863.692,2.068,1.149.326.726-.165,1.776-.224,2.528-.348,4.4,3.314,8.521,7.811,8.194.231-.209-1.667-2.2-.056-3.043,1.356-.714,1.971,1.612,2.6,2.572a12.935,12.935,0,0,0,19.288,3.073c.535-.451,2.43-2.611,2.794-2.721.65-.2,1.931.239,2.684.233a11.879,11.879,0,0,0,1.383-.15c.993-.18,3.566-1.679,3.649.272.07,1.631-3.475,2.16-4.684,2.215-.831.038-2.346-.5-2.611.3l-.075,13.574c.04,1.414.8,3.415.775,4.749-.011.583-.365.816-.769,1.144H38.2a1.884,1.884,0,0,1-.494-.5c-.5-.93.413-3.854.5-5.084.208-2.951-.166-6.146-.007-9.122a13.3,13.3,0,0,1-6.968,0c.007,2.751-.278,5.61-.085,8.359.086,1.219,1.086,4.886.693,5.737-.091.2-.453.358-.534.616Zm5.516-7.048v-8.35l-3.218-1.762v10.112Zm15.015-10.112-3.218,1.762v8.35h3.218ZM25.176,178.977h4.29c-.249-.642-.162-1.685-.412-2.267-.085-.2-.052-.172-.272-.2-1.02-.109-2.247.094-3.292.018Zm14.862,0h4.29l-.308-2.45-3.533.065Z" transform="translate(0 -102.838)" fill="#1a1818"/>
        <path id="Trazado_1036202" data-name="Trazado 1036202" d="M86.814,127.759a11.661,11.661,0,0,0,9.882-8.121c1.1-3.752.276-8.216.538-12.1a10.149,10.149,0,0,1-4.352-1.059,7.962,7.962,0,0,1-13.979-.332,8.8,8.8,0,0,1-4.807,1.085c.3,3.77-.564,8.319.385,11.951.267,1.022,1.685,3.325.837,4.056-2.13,1.835-3.463-4.564-3.521-5.74-1.838,1.094-6.215,1-7.505-.843-.618-.883-.07-1.259.4-2.055,1.677-2.876,3.842-5.641,5.553-8.518-.988-.542-4.324-4.391-2.281-5.063,1.622-.534,1.876,1.653,2.929,2.6a5.742,5.742,0,0,0,6.538.579c.8-.487,1.32-1.447,2.378-1.221.78.166.923,1.553,1.282,2.242a5.548,5.548,0,0,0,9.162.923c.512-.646,1.1-2.505,1.614-2.677,1.128-.373,1.851.817,2.767,1.234a5.871,5.871,0,0,0,5.413-.408c1.122-.745,1.775-2.875,3.21-2.546,2.1.482-.862,4.189-2.032,4.416l5.88,9.2c.678,1.08-.7,1.993-1.594,2.357a7.412,7.412,0,0,1-5.9-.225l-.205.25a13.859,13.859,0,0,1-11.917,12.292c-2.783.335-8.917-.663-10.63-3.123-.665-.956-.05-2.124,1.073-1.848.814.2,2.276,1.465,3.329,1.889a13.6,13.6,0,0,0,3.258.8v-2.145a4.119,4.119,0,0,1-3.072-2.826c-.3-.914-.5-2.49.854-2.546,1.575-.065,1.018,1.765,1.828,2.622a2.2,2.2,0,0,0,3.08,0c.777-.849.2-2.735,1.832-2.627,2.571.169-.089,5.666-2.223,5.377ZM71.8,114.888v-6.9l-4.9,7.583a5.857,5.857,0,0,0,4.9-.688m27.733-6.742v6.742a6.283,6.283,0,0,0,4.9.765Z" transform="translate(-50.912 -80.271)" fill="#1a1818"/>
        <path id="Trazado_1036203" data-name="Trazado 1036203" d="M48.136,6.4c1.007-.142,1.958-.623,2.98-.725A11.736,11.736,0,0,1,63.55,13.124c.2.5.357,1.7.576,2.029.088.134,2.21,1.362,2.678,1.766,5.913,5.106,4.937,15.1-1.964,18.8a10.184,10.184,0,0,1-5.473,11c-.047.9.145,1.753.078,2.681-.093,1.293-.961,5.567-2.906,4.748-1.385-.583.032-2.422.295-3.375a8.6,8.6,0,0,0,.312-2.594,15.248,15.248,0,0,1-.389-2.377c.151-.822,2.212-1.434,3-2.066a7.887,7.887,0,0,0,2.89-6.725c-.055-.6-.5-1.578-.376-2.086.194-.817,1.943-1.451,2.695-2.067A9.336,9.336,0,0,0,64.8,18.312a30.368,30.368,0,0,1-2.751-1.692c-.279-.421-.489-2.044-.756-2.768C59.052,7.789,50.369,5.7,46.121,10.795c-.637.764-.914,2.11-2.194,1.727a1.791,1.791,0,0,1-.692-.691c-.4-1.339,1.981-3.459,2.871-4.278C42.25,1.858,33.315.5,27.965,4.9c-1.531,1.258-2.476,3-3.759,4.208-.914.858-1.666-.1-2.607-.456-5.241-1.966-10.727.466-12.41,5.818,1.114.084,3.72-.983,3.955.8.2,1.542-1.944,1.262-2.916,1.463A8.793,8.793,0,0,0,4.108,21.49c-.507.975-.557,2.7-2.163,2.217-1.719-.514.394-3.932.99-4.769a13.589,13.589,0,0,1,3.575-3.32A11.667,11.667,0,0,1,23.038,6.711c5.864-8.682,19.157-9.1,25.1-.308" transform="translate(-1.022 0)" fill="#1a1818"/>
        <path id="Trazado_1036204" data-name="Trazado 1036204" d="M196.656,159.661a1.172,1.172,0,1,1-1.173-1.172,1.172,1.172,0,0,1,1.173,1.172" transform="translate(-154.537 -126.047)" fill="#1a1818"/>
        <path id="Trazado_1036205" data-name="Trazado 1036205" d="M135.926,159.682a1.164,1.164,0,1,1-1.164-1.164,1.164,1.164,0,0,1,1.164,1.164" transform="translate(-106.251 -126.071)" fill="#1a1818"/>
      </g>
    </g>
  </g>
</svg>
