<svg id="Grupo_1202219" data-name="Grupo 1202219" xmlns="http://www.w3.org/2000/svg" width="82" height="82" viewBox="0 0 82 82">
  <rect id="Rectángulo_409910" data-name="Rectángulo 409910" width="82" height="82" fill="none"/>
  <g id="Outline" transform="translate(15 14)">
    <path id="Trazado_1036399" data-name="Trazado 1036399" d="M55.33,23.6a1,1,0,0,0-.08,1.4,3,3,0,0,1-2,5,18.49,18.49,0,0,0-1.16-3H49.84A16.12,16.12,0,0,1,52,35c0,6.16-3.55,11.83-9.49,15.16A1,1,0,0,0,42,51v6H38V53.35a1,1,0,0,0-1.23-1,22.77,22.77,0,0,1-9.59.21,1,1,0,0,0-1.19,1V57H22V51.57a1,1,0,0,0-.55-.9,19.06,19.06,0,0,1-9-9.08,1,1,0,0,0-.91-.59H10.15A2.15,2.15,0,0,1,8,38.85v-7.7A2.15,2.15,0,0,1,10.15,29h1.38a1,1,0,0,0,.91-.59,17.64,17.64,0,0,1,3-4.61,1,1,0,0,0,.21-1A26.83,26.83,0,0,0,12.93,17a8.88,8.88,0,0,1,5.25,3.22,1,1,0,0,0,1.3.19A22.08,22.08,0,0,1,30,17.05V15a24.16,24.16,0,0,0-10.88,3.27A9.79,9.79,0,0,0,10.81,15a1,1,0,0,0-.61,1.58,24.76,24.76,0,0,1,3.4,6.3A19.66,19.66,0,0,0,10.89,27h-.74A4.15,4.15,0,0,0,6,31.15v7.7A4.15,4.15,0,0,0,10.15,43h.74A21.09,21.09,0,0,0,20,52.18V58a1,1,0,0,0,1,1h6a1,1,0,0,0,1-1V54.75a24.49,24.49,0,0,0,8-.17V58a1,1,0,0,0,1,1h6a1,1,0,0,0,1-1V51.61c6.27-3.73,10-9.9,10-16.61a17.8,17.8,0,0,0-.27-3.07,5,5,0,0,0,3-8.24A1,1,0,0,0,55.33,23.6Z" transform="translate(-6 -4.035)"/>
    <path id="Trazado_1036400" data-name="Trazado 1036400" d="M33,20.63a1,1,0,0,0,1.23.7,8,8,0,0,1,9.84,5.58,1.016,1.016,0,1,0,1.97-.5,10,10,0,0,0-12.3-7A1,1,0,0,0,33,20.63Z" transform="translate(-6 -4.035)"/>
    <path id="Trazado_1036401" data-name="Trazado 1036401" d="M38.19,16.32a1,1,0,0,0,.9-1.08A8.47,8.47,0,0,1,46.73,6,8.61,8.61,0,0,1,48,6a8.47,8.47,0,0,1,.28,16.89,1,1,0,0,0,.09,2h.09a10.45,10.45,0,1,0-11.38-9.43A1,1,0,0,0,38.19,16.32Z" transform="translate(-6 -4.035)"/>
    <path id="Trazado_1036402" data-name="Trazado 1036402" d="M47.8,17.85a1.18,1.18,0,0,1-1.18-.68,1.16,1.16,0,0,1-.1-.38,1,1,0,1,0-2,.18,3.14,3.14,0,0,0,.28,1A3.18,3.18,0,0,0,47,19.76l.06.62a1,1,0,0,0,1,.91h.09A1,1,0,0,0,49,20.2v-.63a3.17,3.17,0,0,0-1.6-6.07,1.18,1.18,0,1,1,.96-1.67,1.16,1.16,0,0,1,.1.38,1,1,0,1,0,2-.18,3.14,3.14,0,0,0-.28-1A3.18,3.18,0,0,0,48,9.23l-.06-.62a1,1,0,1,0-2,.19l.06.63a3.17,3.17,0,0,0,1.27,6.08h.3a1.18,1.18,0,1,1,.22,2.35Z" transform="translate(-6 -4.035)"/>
    <path id="Trazado_1036403" data-name="Trazado 1036403" d="M35,15.24A25.421,25.421,0,0,0,32,15v2a24,24,0,0,1,3,.26Z" transform="translate(-6 -4.035)"/>
    <path id="Trazado_1036404" data-name="Trazado 1036404" d="M20,29a1,1,0,0,1-2,0,1,1,0,0,0-2,0,3,3,0,0,0,6,0,1,1,0,0,0-2,0Z" transform="translate(-6 -4.035)"/>
  </g>
</svg>
