<svg xmlns="http://www.w3.org/2000/svg" width="63" height="63" viewBox="0 0 63 63">
  <g id="Grupo_1202345" data-name="Grupo 1202345" transform="translate(-306.268 -2057)">
    <circle id="Elipse_12374" data-name="Elipse 12374" cx="31.5" cy="31.5" r="31.5" transform="translate(306.268 2057)" fill="#26c790"/>
    <g id="Grupo_1202293" data-name="Grupo 1202293" transform="translate(309.258 2060)">
      <path id="Trazado_1036675" data-name="Trazado 1036675" d="M49.353,23.681a2.579,2.579,0,0,0-2.422,1.711H45.468a5.125,5.125,0,0,1-.094-.958,6.574,6.574,0,0,0-1.249-3.859,4.931,4.931,0,0,1-.693-1.352A6.6,6.6,0,0,0,42.345,17.2l.847-.847a2.624,2.624,0,0,0,2.926-.5,2.567,2.567,0,0,0,0-3.628L43.7,9.8a2.567,2.567,0,0,0-4.133,2.918l-.847.847A6.6,6.6,0,0,0,36.7,12.48a4.682,4.682,0,0,1-1.352-.685,6.515,6.515,0,0,0-3.859-1.249,5.27,5.27,0,0,1-.958-.094V8.989A2.568,2.568,0,0,0,29.672,4H26.249a2.568,2.568,0,0,0-.856,4.989v1.463a5.125,5.125,0,0,1-.958.094A6.574,6.574,0,0,0,20.576,11.8a4.682,4.682,0,0,1-1.352.685A6.6,6.6,0,0,0,17.2,13.567l-.847-.847A2.567,2.567,0,0,0,12.225,9.8L9.8,12.223a2.567,2.567,0,0,0,0,3.628,2.637,2.637,0,0,0,2.926.5l.847.847a6.6,6.6,0,0,0-1.087,2.019,4.682,4.682,0,0,1-.685,1.352,6.515,6.515,0,0,0-1.249,3.859,5.27,5.27,0,0,1-.094.958H9a2.568,2.568,0,0,0-4.989.856v3.423A2.568,2.568,0,0,0,9,30.526h1.463a5.125,5.125,0,0,1,.094.958,6.574,6.574,0,0,0,1.249,3.859A4.931,4.931,0,0,1,12.5,36.7a6.6,6.6,0,0,0,1.087,2.019l-.847.847a2.624,2.624,0,0,0-2.926.5,2.567,2.567,0,0,0,0,3.628l2.422,2.422A2.567,2.567,0,0,0,16.614,44.3a2.516,2.516,0,0,0-.248-1.1l.847-.847a6.6,6.6,0,0,0,2.019,1.087,4.682,4.682,0,0,1,1.352.685,6.515,6.515,0,0,0,3.859,1.249,5.27,5.27,0,0,1,.958.094V46.93a2.568,2.568,0,0,0,.856,4.989h3.423a2.568,2.568,0,0,0,.856-4.989V45.467a5.125,5.125,0,0,1,.958-.094,6.574,6.574,0,0,0,3.859-1.249,4.682,4.682,0,0,1,1.352-.685,6.6,6.6,0,0,0,2.019-1.087l.847.847a2.571,2.571,0,0,0-.248,1.1,2.567,2.567,0,0,0,4.381,1.814L46.127,43.7a2.567,2.567,0,0,0,0-3.628,2.637,2.637,0,0,0-2.926-.5l-.847-.847A6.6,6.6,0,0,0,43.44,36.7a4.682,4.682,0,0,1,.685-1.352,6.515,6.515,0,0,0,1.249-3.859,5.27,5.27,0,0,1,.094-.958h1.463a2.568,2.568,0,0,0,4.989-.856V26.248a2.575,2.575,0,0,0-2.567-2.567Zm.856,5.99a.856.856,0,1,1-1.711,0,.858.858,0,0,0-.856-.856H44.809a.935.935,0,0,0-.83.642,6.531,6.531,0,0,0-.325,2.028,4.8,4.8,0,0,1-.924,2.849,6.607,6.607,0,0,0-.933,1.831,4.856,4.856,0,0,1-1.232,1.968.857.857,0,0,0-.009,1.215l1.917,1.917a.868.868,0,0,0,1.207,0,.868.868,0,0,1,1.207,0,.852.852,0,0,1,0,1.207l-2.422,2.422a.856.856,0,0,1-1.207-1.215.847.847,0,0,0,.248-.608.884.884,0,0,0-.248-.608l-1.917-1.917a.857.857,0,0,0-1.215.009,4.857,4.857,0,0,1-1.968,1.232,6.607,6.607,0,0,0-1.831.933,4.8,4.8,0,0,1-2.849.924,6.431,6.431,0,0,0-1.951.3.359.359,0,0,0-.128.034.856.856,0,0,0-.59.813v2.832a.858.858,0,0,0,.856.856.856.856,0,0,1,0,1.711H26.241a.856.856,0,0,1,0-1.711.858.858,0,0,0,.856-.856V44.791a.935.935,0,0,0-.642-.83,6.531,6.531,0,0,0-2.028-.325,4.8,4.8,0,0,1-2.849-.924,6.607,6.607,0,0,0-1.831-.933,4.857,4.857,0,0,1-1.968-1.232.855.855,0,0,0-.608-.257.884.884,0,0,0-.608.248l-1.917,1.917a.847.847,0,0,0-.248.608.884.884,0,0,0,.248.608.856.856,0,0,1-1.207,1.215l-2.422-2.422a.852.852,0,0,1,0-1.207.868.868,0,0,1,1.207,0,.868.868,0,0,0,1.207,0l1.917-1.917a.857.857,0,0,0-.009-1.215,4.857,4.857,0,0,1-1.232-1.968,6.383,6.383,0,0,0-.933-1.831,4.8,4.8,0,0,1-.924-2.849,6.431,6.431,0,0,0-.3-1.951.359.359,0,0,0-.034-.128.856.856,0,0,0-.813-.59H8.271a.858.858,0,0,0-.856.856.856.856,0,1,1-1.711,0V26.239a.856.856,0,1,1,1.711,0,.858.858,0,0,0,.856.856H11.1a.935.935,0,0,0,.83-.642,6.531,6.531,0,0,0,.325-2.028,4.8,4.8,0,0,1,.924-2.849,6.608,6.608,0,0,0,.933-1.831,4.857,4.857,0,0,1,1.232-1.968.857.857,0,0,0,.009-1.215L13.44,14.645a.868.868,0,0,0-1.207,0,.868.868,0,0,1-1.207,0,.852.852,0,0,1,0-1.207l2.422-2.422a.853.853,0,0,1,1.207,1.207.852.852,0,0,0,0,1.207l1.917,1.917a.89.89,0,0,0,.608.248.855.855,0,0,0,.608-.257,4.914,4.914,0,0,1,1.968-1.232,6.607,6.607,0,0,0,1.831-.933,4.8,4.8,0,0,1,2.849-.924,6.431,6.431,0,0,0,1.951-.3.359.359,0,0,0,.128-.034.856.856,0,0,0,.59-.813V8.27a.858.858,0,0,0-.856-.856.856.856,0,0,1,0-1.711h3.423a.856.856,0,1,1,0,1.711.858.858,0,0,0-.856.856V11.1a.935.935,0,0,0,.642.83,6.531,6.531,0,0,0,2.028.325,4.8,4.8,0,0,1,2.849.924,6.607,6.607,0,0,0,1.831.933,4.857,4.857,0,0,1,1.968,1.232.855.855,0,0,0,.608.257.806.806,0,0,0,.608-.248l1.917-1.917a.852.852,0,0,0,0-1.207.853.853,0,0,1,1.207-1.207l2.422,2.422a.852.852,0,0,1,0,1.207.868.868,0,0,1-1.207,0,.868.868,0,0,0-1.207,0L40.565,16.57a.857.857,0,0,0,.009,1.215,4.857,4.857,0,0,1,1.232,1.968,6.5,6.5,0,0,0,.933,1.831,4.8,4.8,0,0,1,.924,2.849,6.431,6.431,0,0,0,.3,1.951.359.359,0,0,0,.034.128.856.856,0,0,0,.813.59h2.832a.858.858,0,0,0,.856-.856.856.856,0,1,1,1.711,0Z"/>
      <path id="Trazado_1036676" data-name="Trazado 1036676" d="M27.378,30.339a.853.853,0,0,0-1.061-.573,4.964,4.964,0,0,1-1.463.214,5.134,5.134,0,1,1,5.134-5.134,4.984,4.984,0,0,1-.5,2.2.854.854,0,0,0,1.54.736,6.822,6.822,0,1,0-4.227,3.628.849.849,0,0,0,.573-1.061Z" transform="translate(-2.019 -2.02)"/>
      <path id="Trazado_1036677" data-name="Trazado 1036677" d="M41.423,31a3.423,3.423,0,1,0,3.423,3.423A3.422,3.422,0,0,0,41.423,31Zm0,5.134a1.711,1.711,0,1,1,1.711-1.711A1.716,1.716,0,0,1,41.423,36.134Z" transform="translate(-4.905 -3.896)"/>
      <path id="Trazado_1036678" data-name="Trazado 1036678" d="M30.567,39a2.567,2.567,0,1,0,2.567,2.567A2.575,2.575,0,0,0,30.567,39Zm0,3.423a.856.856,0,1,1,.856-.856A.858.858,0,0,1,30.567,42.423Z" transform="translate(-3.462 -5.051)"/>
      <path id="Trazado_1036679" data-name="Trazado 1036679" d="M22.134,37.567a2.567,2.567,0,1,0-2.567,2.567A2.575,2.575,0,0,0,22.134,37.567Zm-2.567.856a.856.856,0,1,1,.856-.856A.858.858,0,0,1,19.567,38.423Z" transform="translate(-1.875 -4.474)"/>
      <path id="Trazado_1036680" data-name="Trazado 1036680" d="M40.567,24.134A2.567,2.567,0,1,0,38,21.567,2.575,2.575,0,0,0,40.567,24.134Zm0-3.423a.856.856,0,1,1-.856.856A.858.858,0,0,1,40.567,20.711Z" transform="translate(-4.905 -2.165)"/>
      <ellipse id="Elipse_12394" data-name="Elipse 12394" cx="1" cy="0.5" rx="1" ry="0.5" transform="translate(38.97 23.959)"/>
      <ellipse id="Elipse_12395" data-name="Elipse 12395" cx="0.5" cy="1" rx="0.5" ry="1" transform="translate(29.97 12.959)"/>
      <circle id="Elipse_12396" data-name="Elipse 12396" cx="1" cy="1" r="1" transform="translate(28.97 28.959)"/>
      <ellipse id="Elipse_12397" data-name="Elipse 12397" cx="1" cy="0.5" rx="1" ry="0.5" transform="translate(32.97 36.959)"/>
      <circle id="Elipse_12398" data-name="Elipse 12398" cx="1" cy="1" r="1" transform="translate(18.97 36.959)"/>
    </g>
  </g>
</svg>
