<svg id="Grupo_1202220" data-name="Grupo 1202220" xmlns="http://www.w3.org/2000/svg" width="82" height="82" viewBox="0 0 82 82">
  <rect id="Rectángulo_409911" data-name="Rectángulo 409911" width="82" height="82" fill="none"/>
  <path id="Trazado_1036405" data-name="Trazado 1036405" d="M32,4A28,28,0,1,0,60,32,28.032,28.032,0,0,0,32,4ZM6,32A25.983,25.983,0,0,1,49.587,12.872L39.526,22.933q-.2-.174-.387-.33l1.591-3.987,2.741-1.828a1,1,0,0,0-1.109-1.664l-3,2a.994.994,0,0,0-.374.461l-1.559,3.906c-.268-.135-.5-.238-.7-.315a4.968,4.968,0,0,0-1.5-2.113l.57-2.5,2.669-1.779a1,1,0,0,0-1.109-1.664l-3,2a1,1,0,0,0-.42.609l-.55,2.409a5.918,5.918,0,0,0-2.95,0l-.55-2.409a1,1,0,0,0-.42-.609l-3-2a1,1,0,0,0-1.109,1.664l2.669,1.779.57,2.5a4.968,4.968,0,0,0-1.5,2.113c-.195.076-.432.18-.7.315l-1.559-3.906a.994.994,0,0,0-.374-.461l-3-2a1,1,0,0,0-1.109,1.664L23.1,18.616,24.695,22.6a11.6,11.6,0,0,0-3.273,4.353h-2.5a1,1,0,0,0-.948.684l-1.907,5.72-4.77,3.815a1,1,0,0,0,1.25,1.562l5-4a1,1,0,0,0,.323-.464l1.772-5.316h1.057a22.027,22.027,0,0,0-.589,8.671l-2.666,1.451a1,1,0,0,0-.522.878v5.586l-4.044,4.044A25.892,25.892,0,0,1,6,32Zm16.6,7.857c-1.732-5.69-.368-14.653,5.224-16.817a9.333,9.333,0,0,0,3.091.864v7.639Zm8.314-5.486V47.854a10.845,10.845,0,0,1-7.505-5.978ZM29.17,21.448a3.258,3.258,0,0,1,5.492,0A7.668,7.668,0,0,1,29.17,21.448Zm6.836,1.592a7.388,7.388,0,0,1,2.1,1.314l-5.188,5.188V23.9a9.314,9.314,0,0,0,3.09-.863Zm-3.09,9.331,6.543-6.543c1.311,1.793,2.457,4.643,2.457,9.129,0,8.8-5.609,12.305-9,12.9V32.371ZM21.037,41.422l-2.121,2.121V40.551l1.58-.86a15.878,15.878,0,0,0,.541,1.731ZM32,58A25.9,25.9,0,0,1,14.283,51l7.638-7.638c2.683,4.793,7.4,6.591,9.995,6.591,3.168,0,9.5-2.7,11.42-10.266l1.58.86v5.406a1,1,0,0,0,.293.707l2,2a1,1,0,0,0,1.414-1.414l-1.707-1.707V39.958a1,1,0,0,0-.522-.878l-2.666-1.451a20.428,20.428,0,0,0,.188-2.671,21.51,21.51,0,0,0-.777-6H44.2l1.772,5.316a1,1,0,0,0,.323.464l5,4a1,1,0,0,0,1.25-1.562l-4.77-3.815-1.907-5.72a1,1,0,0,0-.948-.684H42.411A12.555,12.555,0,0,0,40.89,24.4L51,14.282A25.982,25.982,0,0,1,32,58Z" transform="translate(9 9)"/>
</svg>
