<svg xmlns="http://www.w3.org/2000/svg" width="99" height="99" viewBox="0 0 99 99">
  <g id="Grupo_1202325" data-name="Grupo 1202325" transform="translate(-395.051 -2753)">
    <rect id="Rectángulo_409958" data-name="Rectángulo 409958" width="99" height="99" transform="translate(395.051 2753)" fill="none"/>
    <g id="Grupo_1202326" data-name="Grupo 1202326" transform="translate(1150.833 1839.456)">
      <path id="Trazado_1036845" data-name="Trazado 1036845" d="M-664.614,953.908c-5.615-1.062-11.238-2.086-16.857-3.126-6.527-1.208-13.051-2.433-19.581-3.629a15.942,15.942,0,0,0-4.345-.58,60.389,60.389,0,0,0-6.826,1.395q-17.32,3.867-34.637,7.748c-1.926.431-1.928.421-1.922,2.561.143,2.354.295,4.89.454,7.426a1.443,1.443,0,0,0,1.082,1.505q18.41,5.912,36.807,11.865a2.339,2.339,0,0,0,1.374-.023q12.674-4.291,25.331-8.634,8.883-3.036,17.762-6.083c.535-.184,1.1-.3,1.16-1.092.218-2.906.507-5.808.724-8.714A.842.842,0,0,0-664.614,953.908Zm-45.6,15.516c-.08,2.612-.039,5.227-.049,7.841,0,.3-.031.592-.053.986-3.54-1.138-6.989-2.239-10.433-3.354q-12.9-4.176-25.8-8.35c-.538-.173-.921-.336-.956-.991-.143-2.706-.32-5.41-.493-8.272,1.864.526,3.628,1.007,5.383,1.521q15.634,4.583,31.27,9.162C-710.528,968.2-710.182,968.5-710.211,969.423Zm-23.185-8.8-13.36-3.9c-.029-.009-.051-.045-.181-.169,2.4-.556,4.713-1.112,7.038-1.628q13.369-2.969,26.744-5.913c2.614-.576,5.217-1.269,7.863-1.615.141-.018.284-.028.428-.033v0a17.775,17.775,0,0,1,3.608.567q11.527,2.108,23.048,4.252,5.206.962,10.411,1.927c.4.074.806.134,1.209.2l.041.158-15.113,4.524c.108.009.216.021.325.03-.109-.008-.216-.021-.325-.03l-8.886,2.66c-.076-1.3-1.047-1.768-2.109-2.181-.627-.244-1.214-.591-1.819-.891a5.267,5.267,0,0,0-.917-.447c-1.445-.389-2.908-.711-4.345-1.128a2.449,2.449,0,0,1-1.255-.747A5.147,5.147,0,0,0-704.865,954v0c-.085,0-.169,0-.255,0a.785.785,0,0,1-.158.067.785.785,0,0,0,.158-.067,4.333,4.333,0,0,0-2.435.862c-1.389,1-3.12.919-4.634,1.505a8.663,8.663,0,0,0-2.7,1.364,4.672,4.672,0,0,1-2.579,1.342,3.474,3.474,0,0,0-2.455,1.516c-.812,1.1-.631,2,.635,2.538a15.633,15.633,0,0,0,7.978.99,8.341,8.341,0,0,1,2.942.092,14.4,14.4,0,0,0,7.521-.353c1.2-.322,2.409-.856,3.864-.23l-4.275,1.285c-2.658.8-5.313,1.611-7.98,2.385a2.224,2.224,0,0,1-1.177.017q-11.494-3.337-22.982-6.694m41.773.793c-.265.219-.5.556-.8.636-1.846.493-3.648,1.075-5.654.506a5.45,5.45,0,0,0-2.918.349,14.428,14.428,0,0,1-7.721.349,15.559,15.559,0,0,0-3.584-.031c-.548.011-1.094.1-1.64.157l-.049.166c-1.633-.376-3.27-.734-4.9-1.137-.647-.16-.777-.548-.412-1.159A2.164,2.164,0,0,1-717.574,960a4.361,4.361,0,0,0,3.1-1.635,2.743,2.743,0,0,1,2.509-1.157,3.484,3.484,0,0,0,.97-.219,3.7,3.7,0,0,1,1.144-.232,2.058,2.058,0,0,0,1.229-.412c1.247-.606,2.4-1.552,3.936-1.423a3.713,3.713,0,0,1,2.9,1.741,4,4,0,0,0,2.4,1.376c1.715.59,3.623.626,5.153,1.8a12.588,12.588,0,0,0,1.88.806C-692.056,960.8-691.863,961.152-691.624,961.414Zm26.41-2.613c-.115,1.334-.2,2.675-.423,3.992a1.479,1.479,0,0,1-.889.878c-6.16,2.135-12.335,4.225-18.5,6.336q-11.536,3.948-23.068,7.91c-.38.13-.772.223-1.264.363,0-2.584-.005-5.05,0-7.516.007-2.559.017-2.541,2.409-3.259q15.621-4.69,31.236-9.4c3.252-.977,6.509-1.937,9.765-2.9.292-.087.589-.158,1.023-.273C-665.026,956.286-665.106,957.545-665.214,958.8Z"/>
      <path id="Trazado_1036846" data-name="Trazado 1036846" d="M-641.684,992.519a14.4,14.4,0,0,1-7.521.353,8.341,8.341,0,0,0-2.942-.092,15.633,15.633,0,0,1-7.978-.99c-1.266-.537-1.447-1.439-.635-2.538a3.474,3.474,0,0,1,2.456-1.516,4.672,4.672,0,0,0,2.579-1.342,8.664,8.664,0,0,1,2.7-1.364c1.514-.586,3.245-.5,4.634-1.505a4.333,4.333,0,0,1,2.435-.862c.23-.142-20.3,4.6-28.276,6.62q11.489,3.353,22.982,6.694a2.224,2.224,0,0,0,1.177-.018c2.666-.774,5.321-1.585,7.979-2.385l4.275-1.285C-639.275,991.663-640.482,992.2-641.684,992.519Z" transform="translate(-59.162 -28.661)" fill="#b1b5b3"/>
      <path id="Trazado_1036847" data-name="Trazado 1036847" d="M-698.2,950.545c-2.646.346-5.248,1.039-7.863,1.615q-13.374,2.946-26.744,5.913c-2.325.516-4.641,1.073-7.038,1.628.13.124.152.161.181.169l13.36,3.9c7.973-2.016,28.531-6.553,28.531-6.553s-.025-.21-.255-.067c.085,0,.17,0,.255,0v-6.64C-697.912,950.517-698.054,950.527-698.2,950.545Z" transform="translate(-7.097 -3.149)" fill="#949c99"/>
      <path id="Trazado_1036848" data-name="Trazado 1036848" d="M-497.724,957.449c-.4-.067-.807-.127-1.209-.2q-5.206-.961-10.411-1.927-11.523-2.13-23.048-4.252A17.765,17.765,0,0,0-536,950.5v6.64a5.147,5.147,0,0,1,3.874,2.255,2.448,2.448,0,0,0,1.255.747c1.437.416,2.9.739,4.345,1.128a5.267,5.267,0,0,1,.917.447c.6.3,1.192.648,1.819.891,1.062.413,2.033.877,2.109,2.181l8.886-2.66c-7.93-.66-15.464-3.1-23-5.543,7.534,2.443,15.068,4.883,23,5.543l15.113-4.524Z" transform="translate(-168.865 -3.138)" fill="#bac1bf"/>
      <path id="Trazado_1036849" data-name="Trazado 1036849" d="M-514.377,987.453c-3.255.965-6.513,1.925-9.765,2.9q-15.619,4.695-31.236,9.4c-2.393.719-2.4.7-2.41,3.259-.006,2.466,0,4.933,0,7.516.492-.14.884-.233,1.264-.363q11.535-3.952,23.068-7.91c6.168-2.111,12.343-4.2,18.5-6.336a1.479,1.479,0,0,0,.889-.878c.221-1.317.308-2.658.423-3.992.108-1.256.188-2.515.287-3.869C-513.788,987.3-514.085,987.366-514.377,987.453Z" transform="translate(-151.573 -32.248)" fill="#8f9895"/>
      <path id="Trazado_1036850" data-name="Trazado 1036850" d="M-708.328,1009.257q-15.644-4.551-31.27-9.162c-1.755-.514-3.519-1-5.383-1.521.174,2.862.35,5.566.494,8.272.035.655.418.818.956.991q12.907,4.157,25.8,8.35c3.444,1.115,6.893,2.216,10.433,3.354.022-.394.052-.69.053-.986.011-2.614-.031-5.229.049-7.841C-707.165,1009.8-707.51,1009.495-708.328,1009.257Z" transform="translate(-3.018 -41.291)" fill="#bec3c3"/>
      <path id="Trazado_1036851" data-name="Trazado 1036851" d="M-579.75,992.805a12.6,12.6,0,0,1-1.88-.806c-1.53-1.178-3.438-1.214-5.153-1.8a4,4,0,0,1-2.4-1.376,3.714,3.714,0,0,0-2.9-1.741c-1.541-.129-2.689.818-3.936,1.424a2.059,2.059,0,0,1-1.229.412,3.7,3.7,0,0,0-1.144.232,3.49,3.49,0,0,1-.97.219,2.743,2.743,0,0,0-2.509,1.157,4.361,4.361,0,0,1-3.1,1.635,2.164,2.164,0,0,0-1.724,1.252c-.364.611-.234,1,.412,1.159,1.626.4,3.263.761,4.9,1.137l.049-.166c.547-.055,1.093-.146,1.64-.157a15.566,15.566,0,0,1,3.584.031,14.428,14.428,0,0,0,7.721-.349,5.45,5.45,0,0,1,2.918-.349c2.005.568,3.807-.014,5.654-.507.3-.081.536-.418.8-.636C-579.261,993.311-579.455,992.961-579.75,992.805Z" transform="translate(-112.602 -32.158)" fill="#aa7d2e"/>
    </g>
  </g>
</svg>
