<svg xmlns="http://www.w3.org/2000/svg" width="295" height="352.384" viewBox="0 0 295 352.384">
  <g id="Grupo_1202343" data-name="Grupo 1202343" transform="translate(-967.051 -3090)">
    <rect id="primer-plano-de-un-conejo_1_" data-name="primer-plano-de-un-conejo (1)" width="295" height="352.257" rx="10" transform="translate(967.051 3090)" fill="#fdbab3"/>
    <g id="Grupo_1202333" data-name="Grupo 1202333" transform="translate(967.016 3188.967)">
      <g id="Grupo_1202332" data-name="Grupo 1202332" transform="translate(0.035 109.678)">
        <g id="Grupo_1202110" data-name="Grupo 1202110">
          <path id="Rectángulo_409730" data-name="Rectángulo 409730" d="M0,0H84.982a0,0,0,0,1,0,0V70.193a0,0,0,0,1,0,0H70.193A70.193,70.193,0,0,1,0,0V0A0,0,0,0,1,0,0Z" transform="translate(0 73.546)" fill="#fdaa30"/>
          <path id="Rectángulo_409731" data-name="Rectángulo 409731" d="M0,0H84.982a0,0,0,0,1,0,0V0A70.192,70.192,0,0,1,14.79,70.192H0a0,0,0,0,1,0,0V0A0,0,0,0,1,0,0Z" transform="translate(0 3.354)" fill="#fee3e0"/>
          <path id="Rectángulo_409959" data-name="Rectángulo 409959" d="M0,0H14.79A70.192,70.192,0,0,1,84.982,70.192v0a0,0,0,0,1,0,0H0a0,0,0,0,1,0,0V0A0,0,0,0,1,0,0Z" transform="translate(210 -207.645)" fill="#fedba6"/>
          <path id="Rectángulo_409962" data-name="Rectángulo 409962" d="M0,0H84.982a0,0,0,0,1,0,0V70.192a0,0,0,0,1,0,0H70.192A70.192,70.192,0,0,1,0,0V0A0,0,0,0,1,0,0Z" transform="translate(125.018 -207.644)" fill="#a7e8d2"/>
          <path id="Rectángulo_409961" data-name="Rectángulo 409961" d="M0,0H84.982a0,0,0,0,1,0,0V70.192a0,0,0,0,1,0,0H70.192A70.192,70.192,0,0,1,0,0V0A0,0,0,0,1,0,0Z" transform="translate(210 -137.452)" fill="#fff"/>
          <path id="Rectángulo_409732" data-name="Rectángulo 409732" d="M0,0H14.79A70.192,70.192,0,0,1,84.982,70.192v0a0,0,0,0,1,0,0H0a0,0,0,0,1,0,0V0A0,0,0,0,1,0,0Z" transform="translate(84.982 73.547)" fill="#a7e8d2"/>
          <path id="Rectángulo_409733" data-name="Rectángulo 409733" d="M70.192,0h14.79a0,0,0,0,1,0,0V70.192a0,0,0,0,1,0,0H0a0,0,0,0,1,0,0v0A70.192,70.192,0,0,1,70.192,0Z" transform="translate(84.982 0)" fill="#f3f9ff"/>
        </g>
      </g>
    </g>
    <g id="Grupo_1202342" data-name="Grupo 1202342" transform="translate(-1838.815 2367.441)">
      <path id="Trazado_1036996" data-name="Trazado 1036996" d="M3108.044,1327.107a13.131,13.131,0,0,0,4.514-.3c.677.153,1.364.281,2.062.38.222.031.446.061.671.09s.449.052.674.076l.339.034c.216.021.434.039.652.057,1.032.083,2.079.123,3.128.123l.446,0c.148,0,.3,0,.447-.007l.384-.01c.171,0,.342-.012.513-.019a40.8,40.8,0,0,0,4.371-.427,36.514,36.514,0,0,0,10.823-3.356,21.246,21.246,0,0,0,7.595-6.648,18.522,18.522,0,0,0,3.691-11.543,4.585,4.585,0,0,1-1.031.769c-.082.036-.157.078-.236.116,3.915-7.449,4.081-16.244,1.327-24.211-.183-.531-.346-.674-.659-.159l-.9,1.485a14.948,14.948,0,0,0-1.68-7.975.794.794,0,0,0-.861-.332c-2.885.611-5.073,2.5-6.954,4.566-.344.379-.678.763-1,1.147-2.478,2.921-4.94,5.851-7.514,8.7a129.509,129.509,0,0,1-14.923,14.3,101.867,101.867,0,0,1-8.31,5.929c-2.382,1.546-4.936,3.281-6.126,5.872C3096.936,1321.294,3102.491,1326.5,3108.044,1327.107Z" transform="translate(-116.234 -274.634)" fill="#d67659"/>
      <path id="Trazado_1036997" data-name="Trazado 1036997" d="M3108.044,1330.62a13.131,13.131,0,0,0,4.514-.3c.677.153,1.364.281,2.062.38.222.032.446.061.671.09s.449.052.674.076l.339.035c.216.02.434.039.652.056,1.032.083,2.079.123,3.128.123l.446,0c.148,0,.3,0,.447-.007.127,0,.256-.006.384-.01.171,0,.342-.012.513-.019a40.8,40.8,0,0,0,4.371-.427,36.518,36.518,0,0,0,10.823-3.356,21.242,21.242,0,0,0,7.595-6.648c-.315.134-.64.257-.967.376-1.383.5-2.8.936-4.224,1.312q-2.039.537-4.127.883a20.228,20.228,0,0,0,1.9-2.832s-3.323.439-4.835-.376c4.817-.733,8.752-9.094,8.243-8.847a4.312,4.312,0,0,1-2.958.308c2.917-3.1,4.054-7.779,4.888-11.911,0,0-1.976,2.733-3.936,3.044,3.46-6.133,4.354-20.582,3.959-20.5-2.1.434-2.71,1.705-4.309,1.613a.666.666,0,0,0-.5-.292c-.145-.021-.29-.039-.436-.058-.344.379-.678.763-1,1.147-2.478,2.921-4.94,5.851-7.514,8.7a129.5,129.5,0,0,1-14.923,14.3,101.9,101.9,0,0,1-8.31,5.929c-2.382,1.546-4.936,3.281-6.126,5.872C3096.936,1324.807,3102.491,1330.014,3108.044,1330.62Z" transform="translate(-116.234 -278.147)" fill="#c9684a"/>
      <path id="Trazado_1036998" data-name="Trazado 1036998" d="M2924.567,1286.013a.983.983,0,0,0,.935.656q2.368.066,4.737.129c13.041.334,26.134.461,39.071-1.329a89.961,89.961,0,0,0,18.523-4.216,20.653,20.653,0,0,0,7.189-4.165,16.977,16.977,0,0,0,3.855-5.583c1.872-4.27,2.118-9.072,1.772-13.616a88.927,88.927,0,0,0-3.058-16.323,114.313,114.313,0,0,0-6.073-17,62.473,62.473,0,0,0-8.356-14.368,30.253,30.253,0,0,0-6-5.742c-2.235-1.551-5.177-2.671-7.918-1.576a6.656,6.656,0,0,0-3.812,4.428,30.992,30.992,0,0,0-9.356,6.24,37.38,37.38,0,0,0-11.141,26.081c-.267,10.8,3.513,21.371,8.845,30.894a51.588,51.588,0,0,0-8.439-1.355c-5.78-.387-11.727.708-16.1,4.394C2925.533,1276.682,2923.255,1281.4,2924.567,1286.013Z" transform="translate(-26.473 -237.224)" fill="#c9684a"/>
      <path id="Trazado_1036999" data-name="Trazado 1036999" d="M2910.021,1149.683c.544,1.52.735,2.879,2.244,3.435a13.623,13.623,0,0,0,5.174.75,14.026,14.026,0,0,0,9.432-4c2.782-2.829,4.17-6.614,5.427-10.258q2.26-6.554,4.111-13.228c1.166-4.217,2.444-8.469,1.3-12.829-1.074-4.076-3.573-7.626-5.884-11.115-2.373-3.584-4.725-7.191-7.256-10.672-.012-.173-.023-.345-.029-.518a.1.1,0,0,0-.195,0c-.006.061-.015.122-.022.183-.231-.316-.461-.632-.7-.945-.155-.208-.493-.028-.36.2q.458.8.929,1.591c-.114.661-.255,1.323-.357,1.982-.134.862-.3,1.718-.474,2.574-.358,1.794-.81,3.567-1.342,5.32-1.906,6.286-5.607,12.274-8.191,18.314-2.019,4.721-3.857,8.349-5.027,13.323C2908.467,1134.985,2908.678,1145.932,2910.021,1149.683Z" transform="translate(-18.491 -179.639)" fill="#c9684a"/>
      <path id="Trazado_1037000" data-name="Trazado 1037000" d="M3017.908,813.236a4.679,4.679,0,0,0,2.191,2.446.333.333,0,0,0,.371.41c1.691-.128,3.379-.316,5.05-.6,14.068-2.4,28.179-9.61,40.228-16.917a61.531,61.531,0,0,0,24.889-28.5c1.16-2.776,2.614-6.312.385-8.964-2.137-2.542-6.241-2.925-9.361-2.9a57.588,57.588,0,0,0-20.992,4.346c-12.734,5.19-22.619,14.8-31.264,25.023-2.152,2.546-4.247,5.137-6.323,7.742-2.168,2.72-4.316,5.528-5.456,8.829A12,12,0,0,0,3017.908,813.236Z" transform="translate(-74.106 -8.921)" fill="#c9684a"/>
      <path id="Trazado_1037001" data-name="Trazado 1037001" d="M2872.7,829.046c.348,1.844.9,2.369,2.071,3.893a4.828,4.828,0,0,0,1.281,1.193c.042.441.094.88.163,1.318a16.425,16.425,0,0,0,7.123,11.6,14.289,14.289,0,0,0,5.665,2.078c.924,2.623,4.148,3.622,6.134,4.444.207.086.417.169.629.245a16.1,16.1,0,0,0,4.133.922c.32.029.643.048.967.056.014.038.03.077.045.114.482,1.2.911,2.424,1.279,3.66a39.946,39.946,0,0,1,1.4,6.942c.1.865.136,1.732.163,2.6a50.04,50.04,0,0,0-3.644,10.9,58.963,58.963,0,0,0,1.269,29.7,60.031,60.031,0,0,0,9.916,19.116q1.088,1.4,2.251,2.752c.033.039.065.077.1.116l.444.51q-1.694,2.488-3.562,4.855c-1.742,2.206-3.732,4.246-5.293,6.584a16.1,16.1,0,0,0-2.566,7.9c-.114,1.433-.083,2.876-.111,4.311-.007.416-.03.835-.055,1.253a60.4,60.4,0,0,0-1.123,8.142,73.445,73.445,0,0,0,.184,13.614.766.766,0,0,0,1.407.373,7.571,7.571,0,0,0,3.416.149,13.677,13.677,0,0,0,3.563-.916,18.119,18.119,0,0,0,9.588-9.681,30.679,30.679,0,0,0,2.064-6.957,13.934,13.934,0,0,1,1.385-2.485,30.221,30.221,0,0,1,6.939-6.719c.072.229.145.461.214.692a85.946,85.946,0,0,1,3.187,14.819q.329,2.7.472,5.429c-1.032,3.446-2.493,6.724-3.744,10.071q-.42,1.127-.787,2.266a58.071,58.071,0,0,0,.38,35.3,76.686,76.686,0,0,0,7.562,16.459q.886,1.463,1.828,2.905-5.646-.4-11.294-.786c-4.158-.279-8.525-.952-12.667-.23a11.545,11.545,0,0,0-8.209,5.791c-1.694,2.985-3.719,7.462-1.953,9.184,3.317,3.235,44.476,2.71,57.265,2.617,5.657-.04,14.007.5,19.25-1.753,2.26-.971,4.337-1.372,4.3-4.032a7.6,7.6,0,0,0-.114-1.172,26.649,26.649,0,0,0,14.649-4.775c5.025-3.4,8.886-8.183,12.049-13.234a110.832,110.832,0,0,0,8.688-17.173,78.392,78.392,0,0,0,5.122-18.681c1.757-12.719.1-25.717-3.678-37.958-3.833-12.426-9.879-24.07-16.917-35.045-3.558-5.551-7.384-10.927-11.337-16.215q-1.129-1.509-2.259-3.025c-1.179-4.164-2.358-8.329-3.635-12.463a54.052,54.052,0,0,0-6.962-15.359,78.438,78.438,0,0,0-11.439-12.27q-3.424-3.153-6.888-6.264c-.784-.705-1.562-1.417-2.351-2.118a41.99,41.99,0,0,0-8.59-21.728c.112-.509.218-1.018.315-1.521a43.516,43.516,0,0,0,.259-14.824,38.03,38.03,0,0,0-1.869-7.379c-.35-.95-.747-1.887-1.175-2.807a129.668,129.668,0,0,0,58.972-48.93q1.354-2.087,2.619-4.226a17.545,17.545,0,0,0,2.324-4.7,4.086,4.086,0,0,0-1.425-4.282,12.574,12.574,0,0,0-4.41-1.915,41,41,0,0,0-20.619-.207c-14.344,3.364-25.906,12.771-35.1,23.664-4.746,5.624-8.973,11.638-13.127,17.686q-3.521,5.13-7.03,10.266c-.647.948-1.308,1.89-1.967,2.833-1.527-.3-3.09-.478-4.611-.65a64.345,64.345,0,0,0-8.051-.379,67.936,67.936,0,0,0-12.759,1.4c-.49.1-.979.2-1.466.315-11.976,2.715-15.7,15.021-22.025,20.057C2877.372,820.1,2872.324,827.035,2872.7,829.046Z" transform="translate(0)" fill="#d67659"/>
      <path id="Trazado_1037002" data-name="Trazado 1037002" d="M2872.7,888.3c.348,1.844.9,2.369,2.071,3.893a4.829,4.829,0,0,0,1.281,1.193c.042.441.094.88.163,1.318a16.425,16.425,0,0,0,7.123,11.6,14.287,14.287,0,0,0,5.665,2.078c7.308-.527,9.025-4.411,9.025-4.411,3.613-6.737-.005-11.875-4.246-14.355-4.342-2.539-12.117-3.906-12.117-3.906s2.231-8.76,4.865-11.33c1.541-1.5,9.751-5.525,10.908-7.325,2.32-3.614,4.8-9.72,6.98-10.9-.49.1-.979.2-1.466.315-11.976,2.715-15.7,15.021-22.025,20.057C2877.372,879.348,2872.324,886.285,2872.7,888.3Z" transform="translate(0 -59.251)" fill="#e38a71"/>
      <path id="Trazado_1037003" data-name="Trazado 1037003" d="M2878.481,921.117a8.25,8.25,0,0,1,1.113-2.847,12.654,12.654,0,0,1,1.82-2.468,6.2,6.2,0,0,1,2.114-1.831,5.068,5.068,0,0,1-.979,2.2c-.476.843-.954,1.682-1.387,2.547s-.71,1.736-1.075,2.615c-.163.39-.287.783-.439,1.176-.023.06-.049.119-.077.177.113.382.176.78.277,1.165.161.616.349,1.228.537,1.836a21.694,21.694,0,0,0,1.493,3.6,17.459,17.459,0,0,0,4.9,6.008,10.241,10.241,0,0,0,7.587,1.837,11.549,11.549,0,0,0,4.43-1.8.213.213,0,0,1,.1-.14,6.778,6.778,0,0,0,1.59-1.322,4.383,4.383,0,0,0,.968-1.648,5.068,5.068,0,0,1-.1,1.087,3.212,3.212,0,0,1-.512,1.01,4.017,4.017,0,0,1-.364.424c-2.278,3-6.691,4.041-10.333,3.238-4.491-.991-7.784-4.8-9.748-8.671a19.441,19.441,0,0,1-1.33-3.391,10.175,10.175,0,0,1-.527-3.041,2.394,2.394,0,0,1-.094-.37A5.387,5.387,0,0,1,2878.481,921.117Z" transform="translate(-2.941 -88.969)" fill="#a53e2f"/>
      <path id="Trazado_1037004" data-name="Trazado 1037004" d="M2909.506,935.471c.055-.073.1-.127.14-.18a.878.878,0,0,1,.193-.139.91.91,0,0,1,.426-.109.772.772,0,0,1,.651.361,1.148,1.148,0,0,1,.091.2.684.684,0,0,1,.014.35.579.579,0,0,1-.1.3.407.407,0,0,1-.075.1.782.782,0,0,1-.265.224.825.825,0,0,1-.8,0,.776.776,0,0,1-.391-.664A.869.869,0,0,1,2909.506,935.471Z" transform="translate(-18.869 -99.798)" fill="#a53e2f"/>
      <path id="Trazado_1037005" data-name="Trazado 1037005" d="M2904.119,945.264a.716.716,0,0,1,.265-.375.767.767,0,0,1,.448-.155c.291-.053.489-.027.614.106a.549.549,0,0,1,.123.207.4.4,0,0,1,0,.241.952.952,0,0,1-.095.531.7.7,0,0,1-.353.295.379.379,0,0,1-.187.05.385.385,0,0,1-.2,0,.375.375,0,0,1-.186-.05.554.554,0,0,1-.238-.149.8.8,0,0,1-.19-.318A.74.74,0,0,1,2904.119,945.264Z" transform="translate(-16.144 -104.767)" fill="#a53e2f"/>
      <path id="Trazado_1037006" data-name="Trazado 1037006" d="M2895.837,936.052a.808.808,0,0,1,.13-.168.563.563,0,0,1,.172-.123.444.444,0,0,1,.22-.069.461.461,0,0,1,.235.01.613.613,0,0,1,.307.207.542.542,0,0,1,.126.348.6.6,0,0,1-.065.247.623.623,0,0,1-.206.316.537.537,0,0,1-.514.145.486.486,0,0,1-.183-.089.525.525,0,0,1-.174-.156.457.457,0,0,1-.111-.2A.639.639,0,0,1,2895.837,936.052Z" transform="translate(-11.858 -100.127)" fill="#a53e2f"/>
      <path id="Trazado_1037007" data-name="Trazado 1037007" d="M3026.746,926.294c.575-1.294,1.472-2.458,2.112-3.728a24.812,24.812,0,0,0,1.621-4.138,53.166,53.166,0,0,0,1.807-8.818.049.049,0,0,1,.1.009,32.416,32.416,0,0,1-.995,9.144,24.711,24.711,0,0,1-1.63,4.262,9.872,9.872,0,0,1-2.574,3.574C3026.974,926.755,3026.63,926.554,3026.746,926.294Z" transform="translate(-79.167 -86.707)" fill="#a53e2f"/>
      <path id="Trazado_1037008" data-name="Trazado 1037008" d="M2946.41,1209.086c.031-.083.183-.109.2,0,.217,1.35.275,2.713.426,4.073.165,1.48.575,2.884.856,4.339a.7.7,0,0,1-1.352.364,15.347,15.347,0,0,1-.7-4.433A10.787,10.787,0,0,1,2946.41,1209.086Z" transform="translate(-37.59 -240.603)" fill="#a53e2f"/>
      <path id="Trazado_1037009" data-name="Trazado 1037009" d="M2934.358,1214.352a17.978,17.978,0,0,1,1.081-4.4c.048-.134.293-.125.273.036-.181,1.438-.222,2.921-.285,4.369-.065,1.474.194,2.958.116,4.419-.033.617-.984.8-1.146.151A14.1,14.1,0,0,1,2934.358,1214.352Z" transform="translate(-31.61 -241.035)" fill="#a53e2f"/>
      <path id="Trazado_1037010" data-name="Trazado 1037010" d="M2966.914,965.41a5.028,5.028,0,0,1,1.655.172c.617.106,1.247.191,1.869.267a22.5,22.5,0,0,0,10.959-1.389c4.142-1.622,7.476-4.568,10.447-7.738.053-.056.172,0,.139.079-1.822,4.211-5.729,7.314-9.971,9.083a19.928,19.928,0,0,1-7.627,1.724C2969.681,967.609,2966.457,965.478,2966.914,965.41Z" transform="translate(-48.407 -110.929)" fill="#a53e2f"/>
      <path id="Trazado_1037011" data-name="Trazado 1037011" d="M3056.053,991.017a42.283,42.283,0,0,1,6.054,3.146,18.532,18.532,0,0,1,4.781,3.878,22.446,22.446,0,0,1,3.037,4.822c.413.858.774,1.733,1.109,2.622a17.9,17.9,0,0,1,.951,2.866.426.426,0,0,1-.775.318,23.335,23.335,0,0,1-1.152-2.531q-.568-1.281-1.18-2.545a23.089,23.089,0,0,0-2.963-4.765c-2.706-3.247-6.852-4.812-10.02-7.551A.157.157,0,0,1,3056.053,991.017Z" transform="translate(-94.138 -128.561)" fill="#a53e2f"/>
      <path id="Trazado_1037012" data-name="Trazado 1037012" d="M3006.313,802.86c1.287.72,2.893.179,4.162-.279.585-.211,3.767-1.68,3.854-1.719-.082.088-3.12,3.379-2.011,4.145,1.035.715,2.721.247,3.9.029,1.735-.321,5.145-1.358,5.25-1.39-.112.085-3.724,2.816-3.874,3.468a.371.371,0,0,0,.457.443c4.375-.943,8.314-3.061,12.157-5.243q3.326-1.89,6.54-3.956,1.867-1.2,3.692-2.459a139.768,139.768,0,0,0,31.005-29.268q3.307-4.256,6.271-8.755c.914-1.385,2.151-3.37,2.286-5.2a.173.173,0,0,0,.027-.112c0-.035-.013-.07-.017-.1,0-.111,0-.222-.007-.331a3.223,3.223,0,0,0-1.365-2.495,5.577,5.577,0,0,0-3.921-.818,24.582,24.582,0,0,0-3.6-.453,34.527,34.527,0,0,0-13.03,1.959c-14.083,4.771-24.941,15.424-34.655,26.025-5.116,5.587-10.269,11.247-14.325,17.635a54.316,54.316,0,0,0-2.9,5.13C3005.613,800.311,3004.745,801.986,3006.313,802.86Z" transform="translate(-68.222 -3.832)" fill="#f7a7b6"/>
      <path id="Trazado_1037013" data-name="Trazado 1037013" d="M3006.313,802.86c1.287.72,2.893.179,4.162-.279.585-.211,3.767-1.68,3.854-1.719-.082.088-3.12,3.379-2.011,4.145,1.035.715,2.721.247,3.9.029,1.735-.321,5.145-1.358,5.25-1.39-.112.085-3.724,2.816-3.874,3.468a.371.371,0,0,0,.457.443c4.375-.943,8.314-3.061,12.157-5.243q3.326-1.89,6.54-3.956a46.948,46.948,0,0,1-11.432,2.288c-1.92.136-6.347,1.469-7.333-.162-3.716-6.144,20.079-30.519,25.874-34.725a94.577,94.577,0,0,1,18.55-10.571,56.5,56.5,0,0,1,10.794-3.721,10.9,10.9,0,0,1,6.8.663,3.223,3.223,0,0,0-1.365-2.495,5.577,5.577,0,0,0-3.921-.818,24.582,24.582,0,0,0-3.6-.453,34.527,34.527,0,0,0-13.03,1.959c-14.083,4.771-24.941,15.424-34.655,26.025-5.116,5.587-10.269,11.247-14.325,17.635a54.316,54.316,0,0,0-2.9,5.13C3005.613,800.311,3004.745,801.986,3006.313,802.86Z" transform="translate(-68.222 -3.832)" fill="#ed8e9d"/>
      <path id="Trazado_1037014" data-name="Trazado 1037014" d="M3114.226,771.982a2.607,2.607,0,0,1,2.023-.34,1.437,1.437,0,0,1,.97,1.038,2.165,2.165,0,0,1-.757,2.678,3.813,3.813,0,0,1-2.907.931c-.407-.05-.927-.274-.995-.739A3.446,3.446,0,0,1,3114.226,771.982Z" transform="translate(-123.261 -15.777)" fill="#ed8e9d"/>
      <path id="Trazado_1037015" data-name="Trazado 1037015" d="M3125.114,769.868a.642.642,0,0,1,.172-.287.7.7,0,0,1,.471-.191.515.515,0,0,1,.257.056.5.5,0,0,1,.215.135.489.489,0,0,1,.138.209.482.482,0,0,1,.058.25c-.008.057-.016.115-.024.173a.649.649,0,0,1-.171.287.7.7,0,0,1-.471.191.515.515,0,0,1-.257-.056.5.5,0,0,1-.214-.135.711.711,0,0,1-.2-.46C3125.1,769.984,3125.105,769.926,3125.114,769.868Z" transform="translate(-129.722 -14.663)" fill="#ed8e9d"/>
      <path id="Trazado_1037016" data-name="Trazado 1037016" d="M3107.1,776.286a.719.719,0,0,1,.384-.3l.115-.045.248-.1a.576.576,0,0,1,.688.329.563.563,0,0,1-.239.711,1.254,1.254,0,0,1-.681.28.622.622,0,0,1-.516-.289A.57.57,0,0,1,3107.1,776.286Z" transform="translate(-120.434 -17.969)" fill="#ed8e9d"/>
      <path id="Trazado_1037017" data-name="Trazado 1037017" d="M2927.723,997.888a58.963,58.963,0,0,0,1.269,29.7,60.034,60.034,0,0,0,9.916,19.116q1.088,1.4,2.251,2.752c2.126-1.648,5.646-7.033,5.646-7.033a58.418,58.418,0,0,1-1.628-8.176c-.249-3.282.015-5.951-.087-9.244a67.842,67.842,0,0,1,2.7-19.524c.416-1.558.739-3.1,1.266-4.628a22.481,22.481,0,0,0,1.449-4.561c.342-2.872-1.834-5.021-3.342-7.225a20.331,20.331,0,0,1-3.448-11.193,14.848,14.848,0,0,1,1.077-5.7,47.58,47.58,0,0,1-11.815,1.985,36.485,36.485,0,0,1-4.453-.373c.482,1.2.911,2.424,1.279,3.66a39.944,39.944,0,0,1,1.4,6.942c.1.865.136,1.732.163,2.6A50.037,50.037,0,0,0,2927.723,997.888Z" transform="translate(-27.609 -118.883)" fill="#e38a71"/>
      <path id="Trazado_1037018" data-name="Trazado 1037018" d="M2989.1,1190.816c8.6-14.223,22.344-14.474,36.748-13.888a48.159,48.159,0,0,1-6.39-7.478c-5.7-8.463-11.717-16.262-14.43-27.8-.067-.283,0,0-.141.336-1.8,4.32-4.611,6.42-7.621,9.378-2.38,2.34-4.869,4.574-7.292,6.871a85.922,85.922,0,0,1,3.187,14.819c.219,1.8.376,3.614.466,5.449-1.026,3.425-2.487,6.7-3.738,10.051Q2989.472,1189.678,2989.1,1190.816Zm36.748-13.888c.254.25.336.013,0,0Z" transform="translate(-59.834 -205.921)" fill="#e38a71"/>
      <path id="Trazado_1037019" data-name="Trazado 1037019" d="M2971.487,1140.159a11.366,11.366,0,0,1,3.733-4.566c1.606-1.315,3.346-2.455,5.074-3.608a56.725,56.725,0,0,0,10.272-8.923q1.356-1.472,2.669-2.982.314-.359.636-.7c2.11-3.819,2.592-8.123,3.44-12.349a73.617,73.617,0,0,1,1.908-7.55,52.6,52.6,0,0,1,2.714-7.362c.046-.094.186-.025.165.068-.586,2.62-1.4,5.2-2.006,7.817s-1.188,5.25-1.677,7.9c-.559,3.034-.855,6.5-2.2,9.4a1.381,1.381,0,0,1-.118.247,10.91,10.91,0,0,1-1.038,1.721c-.22.341-.45.677-.7,1.007-.678.893-1.368,1.781-2.079,2.649a57.6,57.6,0,0,1-4.684,5.163,44.848,44.848,0,0,1-5.09,4.193c-1.708,1.211-3.48,2.337-5.16,3.587a44.474,44.474,0,0,0-5.048,4.747C2971.977,1140.947,2971.315,1140.613,2971.487,1140.159Z" transform="translate(-50.765 -180.503)" fill="#a53e2f"/>
      <path id="Trazado_1037020" data-name="Trazado 1037020" d="M2984.176,1229.037a24,24,0,0,1,7.373-9.826,31,31,0,0,1,11.034-5.427c9.573-2.582,19.875-1.232,29.391.944,1.268.29,2.526.615,3.789.926.159.039.089.259-.066.235-9.676-1.48-19.622-3.541-29.394-1.6-7.879,1.561-15.457,5.568-19.375,12.661-4.008,7.255-3.792,16.048-2.66,23.983,1.227,8.6,3.583,17.3,8.755,24.5,4.606,6.407,11.751,11.316,19.816,12.31.987.121,1.971.222,2.967.249a.711.711,0,0,1,0,1.422c-8.469.575-16.627-4.154-22.024-10.229-6.094-6.859-9.129-15.772-10.7-24.583C2981.586,1246.242,2980.868,1237.085,2984.176,1229.037Z" transform="translate(-56.092 -242.33)" fill="#a53e2f"/>
      <path id="Trazado_1037021" data-name="Trazado 1037021" d="M2920.439,972.886c1.663.208,3.884.588,5.544.808a33.828,33.828,0,0,0,5.177.288,37.391,37.391,0,0,0,10.025-1.526,29.366,29.366,0,0,1-10.025,2.339C2926.03,975.171,2920.439,972.886,2920.439,972.886Z" transform="translate(-24.544 -119.027)" fill="#a53e2f"/>
      <path id="Trazado_1037022" data-name="Trazado 1037022" d="M2935.406,1135.793c2.426-3.665,5.209-7.066,7.933-10.522,1.363-1.729,2.744-3.445,4.119-5.164.686-.858,1.4-1.695,2.1-2.538.739-.885,1.616-1.62,2.383-2.467.052-.057.153.016.109.082-.63.949-1.121,1.968-1.8,2.9-.618.848-1.228,1.7-1.866,2.536-1.339,1.747-2.678,3.5-4.042,5.225-2.754,3.5-5.456,7.02-8.535,10.25C2935.615,1136.3,2935.246,1136.034,2935.406,1135.793Z" transform="translate(-32.216 -192.327)" fill="#a53e2f"/>
      <path id="Trazado_1037023" data-name="Trazado 1037023" d="M2964.984,1063.738c.041-.174.271-.1.241.073a60.357,60.357,0,0,0-.787,12.144,57.368,57.368,0,0,0,.464,5.969c.274,2.028.7,4.027.968,6.055.062.458-.472.625-.629.191a37.657,37.657,0,0,1-1.733-12.216A51.145,51.145,0,0,1,2964.984,1063.738Z" transform="translate(-46.678 -165.889)" fill="#a53e2f"/>
      <path id="Trazado_1037024" data-name="Trazado 1037024" d="M2948.261,1369.122a9.318,9.318,0,0,1,3.458-4.254.111.111,0,0,1,.152.148,25.5,25.5,0,0,0-2.476,4.573,14.29,14.29,0,0,0-.729,5.092c.049.973-1.537.979-1.556,0A12.184,12.184,0,0,1,2948.261,1369.122Z" transform="translate(-38.25 -320.695)" fill="#a53e2f"/>
      <path id="Trazado_1037025" data-name="Trazado 1037025" d="M2936.791,1370.194a10.592,10.592,0,0,1,.629-2.693,10.918,10.918,0,0,1,3.268-4.315.069.069,0,0,1,.1.1,11.846,11.846,0,0,0-2.365,4.606,11.329,11.329,0,0,0-.453,2.419,17.539,17.539,0,0,1-.048,2.4.524.524,0,0,1-.939.12A4.859,4.859,0,0,1,2936.791,1370.194Z" transform="translate(-32.902 -319.828)" fill="#a53e2f"/>
      <path id="Trazado_1037026" data-name="Trazado 1037026" d="M2925.6,1356.681a10.242,10.242,0,0,1,3.688-4.481c.132-.087.25.1.16.2a14.63,14.63,0,0,0-2.824,4.7,11.778,11.778,0,0,0-.572,2.551c-.1.895.009,1.783-.058,2.67-.053.71-1.133.936-1.33.175C2924.189,1360.652,2924.85,1358.374,2925.6,1356.681Z" transform="translate(-26.634 -314.18)" fill="#a53e2f"/>
      <g id="Grupo_1202340" data-name="Grupo 1202340" transform="translate(2991.482 912.843)">
        <path id="Trazado_1037027" data-name="Trazado 1037027" d="M3117.431,1094.744c.955.975,1.973,1.885,2.985,2.8a23.891,23.891,0,0,1,3.024,3.16c1.716,2.239,3.283,4.54,4.794,6.915,2.986,4.7,5.807,9.5,8.35,14.442,1.553,3.018,2.955,6.1,4.3,9.216l-.448-1.037a74.812,74.812,0,0,1,2.916,7.881q1.165,3.581,2.092,7.229a88.763,88.763,0,0,1,2.37,15.255,61.069,61.069,0,0,1,.23,7.2c-.124,2.711-.452,5.411-.829,8.1a79.356,79.356,0,0,1-3.187,13.76,59.357,59.357,0,0,1-3.3,8,28.273,28.273,0,0,1-2.08,3.484,12.184,12.184,0,0,1-3.4,3.036,1.518,1.518,0,0,1-2.268-1.269c.013-.469.047-.913.088-1.381-.02.228,0-.135,0-.147.009-.183.043-.368.063-.551.036-.332.066-.665.1-1a9.773,9.773,0,0,1,.483-1.9c.471-1.474.936-2.954,1.379-4.437a89.951,89.951,0,0,0,2.323-9.307c.135-.729.252-1.462.359-2.2.024-.162.042-.328.07-.49-.009.051-.017.1-.025.14.058-.453.105-.859.15-1.265q.261-2.382.373-4.777c.151-3.181.031-6.352-.026-9.532a92.239,92.239,0,0,0-.779-10.285c-.568-3.938-1.3-7.87-2.226-11.74-.989-4.119-2.274-8.149-3.546-12.189-1.292-4.105-2.776-8.157-4.4-12.15-.389-.957-.79-1.91-1.193-2.862l-.079-.181-.316-.721q-.318-.72-.642-1.439-1.348-2.991-2.79-5.94c-1.171-2.4-2-4.179-3.107-6.671a26.337,26.337,0,0,1-1.086-3.624c-.316-1.125-.644-2.245-1.051-3.343C3117.04,1094.748,3117.3,1094.613,3117.431,1094.744Z" transform="translate(-3117.096 -1094.692)" fill="#e38a71"/>
        <path id="Trazado_1037028" data-name="Trazado 1037028" d="M3159.651,1273.589c-.041.291-.164.953,0,0Z" transform="translate(-3138.924 -1186.634)" fill="#c9684a"/>
      </g>
      <path id="Trazado_1037029" data-name="Trazado 1037029" d="M3007.137,1223.457c.232-.273.477-.536.724-.8a8.355,8.355,0,0,1,2.236-1.893,37.891,37.891,0,0,1,4.846-1.978,40.926,40.926,0,0,1,9.906-1.86,52.423,52.423,0,0,1,20.3,2.918,46.174,46.174,0,0,1,5.813,2.191c1.82.9,3.125,2.42,4.768,3.546a.811.811,0,0,1-.637,1.473c-1.652-.351-3.363-.3-5.032-.59a47.207,47.207,0,0,1-4.835-1.388,74.7,74.7,0,0,0-9.847-2.084l-.379-.053-.212-.026c-.4-.044-.809-.091-1.215-.13q-1.25-.119-2.5-.174a44.144,44.144,0,0,0-4.6.04q-1.12.068-2.235.2l-.149.018-.4.056q-.614.092-1.223.2a36.92,36.92,0,0,0-4.323,1.054c-.826.256-1.63.56-2.439.859-.265.115-.49.211-.713.312q-.557.254-1.1.529a14.384,14.384,0,0,1-2.791,1.063,5.423,5.423,0,0,1-3.177.384,2.038,2.038,0,0,1-1.5-1.92A2.978,2.978,0,0,1,3007.137,1223.457Z" transform="translate(-68.725 -244.617)" fill="#e38a71"/>
      <path id="Trazado_1037030" data-name="Trazado 1037030" d="M3003.515,1106.742q.535-1.726,1.027-3.464c.657-2.317,1.2-4.661,1.858-6.977q.491-1.735.941-3.479a24.967,24.967,0,0,1,.949-3.47c.469-1.112.9-2.238,1.359-3.352a4.25,4.25,0,0,1,1.061-1.436,3.352,3.352,0,0,0,.743-1.5.393.393,0,0,1,.764.1,3.529,3.529,0,0,0,.315,1.629,4.185,4.185,0,0,1,.622,1.67c.128,1.181.167,2.377.233,3.562a21.3,21.3,0,0,1-.429,4.021q-.261,1.865-.567,3.723c-.391,2.373-1,4.715-1.615,7.042q-.459,1.746-.96,3.482c-.4,1.383-.955,3.105-2.259,3.9-.125.137-.252.274-.384.406-1.091,1.1-3.526.707-3.793-.977-.043-.277-.082-.555-.118-.832A6.21,6.21,0,0,1,3003.515,1106.742Z" transform="translate(-66.981 -175.733)" fill="#e38a71"/>
      <path id="Trazado_1037031" data-name="Trazado 1037031" d="M2981.995,1157.118l1.655-2.27a16.454,16.454,0,0,1,2.13-2.289c.706-.663,1.4-1.336,2.119-1.991a3.348,3.348,0,0,1,1.992-1.067l.686-.431a.725.725,0,0,1,1,.973l-.441.669a3.085,3.085,0,0,1-.991,1.84c-.69.743-1.43,1.448-2.144,2.169a15.91,15.91,0,0,1-2.23,2l-2.443,1.7C2982.544,1158.957,2981.44,1157.879,2981.995,1157.118Z" transform="translate(-56.103 -209.743)" fill="#e38a71"/>
      <path id="Trazado_1037032" data-name="Trazado 1037032" d="M3047.254,984.107a5.131,5.131,0,0,1,1.009-.18,4.516,4.516,0,0,1,1.124.222c-.093-.03.658.134.815.172.14.034.277.078.417.113.119.03.241.053.362.077a3.248,3.248,0,0,1,1.469.422,46.307,46.307,0,0,1,4.279,3.152,48.222,48.222,0,0,1,6.881,6.83,70.028,70.028,0,0,1,6.148,8.3,42.3,42.3,0,0,1,4.612,9.163,29.759,29.759,0,0,1,1.241,5.136c.05.351.13.729.149,1.075.009.155-.03.471-.046.377.03.4.159.829.218,1.212.183,1.19.49,2.273-.125,3.387a1.706,1.706,0,0,1-2.261.578,4.189,4.189,0,0,1-1.672-2.053q-.275-.5-.558-.992c-.073-.126-.147-.252-.219-.378-.158-.2-.3-.378-.446-.559-.921-1.234-1.722-2.548-2.517-3.86-.824-1.36-1.7-2.669-2.454-4.07q-1.1-2.049-2.32-4.03c-1.628-2.635-3.426-5.183-5.311-7.65-.21-.276-.447-.542-.641-.828.689,1.015-.058-.069-.253-.307q-.776-.951-1.583-1.878c-1.051-1.206-2.171-2.352-3.208-3.568-1.112-1.3-2.267-2.576-3.471-3.8a7.764,7.764,0,0,1-.581-.646,2.339,2.339,0,0,1-.574-1.064,1.68,1.68,0,0,0-.105-.358c-.088-.171-.187-.337-.272-.509l-.235-.543q.164.3-.019-.062c-.1-.193-.218-.376-.313-.57a3.379,3.379,0,0,1-.254-1.4A.958.958,0,0,1,3047.254,984.107Z" transform="translate(-89.352 -124.922)" fill="#e38a71"/>
      <path id="Trazado_1037033" data-name="Trazado 1037033" d="M3036.422,945.265a.738.738,0,0,1,1.359-.359,16.464,16.464,0,0,1,1.675,3.639c.14.637.258,1.279.387,1.919a5.923,5.923,0,0,1,.048,2.155c-.143,1.012-1.572.948-2.043.261a10.48,10.48,0,0,1-1.312-3.693A17.4,17.4,0,0,1,3036.422,945.265Z" transform="translate(-84.124 -104.688)" fill="#e38a71"/>
      <path id="Trazado_1037034" data-name="Trazado 1037034" d="M2957.006,932.612a18.908,18.908,0,0,0,16.828-3.97c5.751-5.049,8.971-16.352,3.339-22.655-6.729-7.528-9.483,4.427-13.536,6.819-4.316,2.547-15.144,5.354-15.921,11.113C2947.212,927.662,2951.6,931.245,2957.006,932.612Z" transform="translate(-38.542 -83.603)" fill="#e38a71"/>
      <path id="Trazado_1037035" data-name="Trazado 1037035" d="M2946.62,909.226a3.782,3.782,0,0,1,2.093-.084,13.537,13.537,0,0,0,2.052.09,9.14,9.14,0,0,0,4-1.168,11.024,11.024,0,0,0,2.9-2.421,14.217,14.217,0,0,0,1.119-1.471,18.58,18.58,0,0,0,1.176-1.665.141.141,0,0,1,.259.069,6.978,6.978,0,0,1-.1,2.145,8.243,8.243,0,0,1-.927,2.072,10.123,10.123,0,0,1-3.285,3.174,11.727,11.727,0,0,1-4.781,1.543c-1.383.148-4.018.254-4.822-1.117A.851.851,0,0,1,2946.62,909.226Z" transform="translate(-37.78 -83.043)" fill="#c9684a"/>
      <path id="Trazado_1037036" data-name="Trazado 1037036" d="M2991.325,815.565a51.4,51.4,0,0,1,4.626-8.5q2.588-4.216,5.485-8.242a130.067,130.067,0,0,1,12.631-15.031c1.26-1.287,2.6-2.514,3.947-3.713,1.425-1.267,2.965-2.375,4.43-3.592.034-.028.081.017.049.048-1.182,1.127-2.257,2.376-3.373,3.567s-2.257,2.373-3.357,3.586c-2.144,2.364-4.3,4.706-6.333,7.165a142.925,142.925,0,0,0-11.359,15.693q-1.452,2.341-2.807,4.739c-.9,1.594-1.7,3.257-2.731,4.776C2992.143,816.635,2991.054,816.287,2991.325,815.565Z" transform="translate(-60.953 -18.307)" fill="#c9684a"/>
      <path id="Trazado_1037037" data-name="Trazado 1037037" d="M3008.166,867.233a3.439,3.439,0,0,1,2.026-.452.17.17,0,0,1,.087.315,6,6,0,0,0-.67.6c-.229.2-.491.377-.732.569-.427.34-.8.888-1.39.9a.479.479,0,0,1-.462-.343C3006.919,868.1,3007.593,867.6,3008.166,867.233Z" transform="translate(-69.038 -64.716)" fill="#c9684a"/>
      <path id="Trazado_1037038" data-name="Trazado 1037038" d="M2999.669,867.768c.185-.655.9-1.077,1.435-1.449a.456.456,0,0,1,.627.611,9.012,9.012,0,0,1-.595.818,1.783,1.783,0,0,1-.844.629A.505.505,0,0,1,2999.669,867.768Z" transform="translate(-65.254 -64.442)" fill="#c9684a"/>
      <path id="Trazado_1037039" data-name="Trazado 1037039" d="M3014.385,872.276c.224-.9,1.351-1.349,2.189-1.563a5.508,5.508,0,0,1,2.921.119c.485.142.423.971-.125.9a5.323,5.323,0,0,0-2.424.295,9.236,9.236,0,0,1-2.073.872A.5.5,0,0,1,3014.385,872.276Z" transform="translate(-72.819 -66.662)" fill="#c9684a"/>
      <path id="Trazado_1037040" data-name="Trazado 1037040" d="M2989.47,1005.514c1.481-2.952,4.735-5.136,7.7-6.507s6.64-2.335,9.93-1.631a.359.359,0,0,1,0,.692c-1.56.267-3.117.454-4.659.821a22.532,22.532,0,0,0-4.516,1.6,20.237,20.237,0,0,0-3.945,2.462c-1.268,1.022-2.379,2.181-3.592,3.255A.581.581,0,0,1,2989.47,1005.514Z" transform="translate(-59.987 -131.712)" fill="#c9684a"/>
      <path id="Trazado_1037041" data-name="Trazado 1037041" d="M3042.132,1085.368a6.077,6.077,0,0,1,2.234-1.529c.856-.439,1.71-.825,2.6-1.18a.328.328,0,0,1,.324.543c-.707.574-1.418,1.1-2.18,1.6a6.408,6.408,0,0,1-2.435,1.258C3042.318,1086.113,3041.852,1085.746,3042.132,1085.368Z" transform="translate(-87.043 -175.654)" fill="#c9684a"/>
      <path id="Trazado_1037042" data-name="Trazado 1037042" d="M3039.821,1079.71c.387-1.705,2.23-2.6,3.9-2.627.534-.008.679.834.129.931a7.005,7.005,0,0,0-3.447,2.025A.349.349,0,0,1,3039.821,1079.71Z" transform="translate(-85.894 -172.799)" fill="#c9684a"/>
      <path id="Trazado_1037043" data-name="Trazado 1037043" d="M3065.738,1363.829a8.9,8.9,0,0,0,2.826-3.512c.251-.556,1-.122.926.381a6.122,6.122,0,0,1-3.03,4.337A.7.7,0,0,1,3065.738,1363.829Z" transform="translate(-99.058 -318.23)" fill="#c9684a"/>
      <path id="Trazado_1037044" data-name="Trazado 1037044" d="M3073.8,1367.713a17.7,17.7,0,0,0,2.27-2.663.418.418,0,0,1,.761.313,5.336,5.336,0,0,1-2.052,3.3C3074.093,1369.182,3073.137,1368.337,3073.8,1367.713Z" transform="translate(-103.246 -320.697)" fill="#c9684a"/>
      <path id="Trazado_1037045" data-name="Trazado 1037045" d="M3088.794,1367.6c.463-.394,1.135-.531,1.633-.916a4.134,4.134,0,0,0,1.208-1.495c.168-.367.712-.1.635.26a3.608,3.608,0,0,1-1.151,2.02,2.683,2.683,0,0,1-2.137.821A.413.413,0,0,1,3088.794,1367.6Z" transform="translate(-111.003 -320.779)" fill="#c9684a"/>
      <path id="Trazado_1037046" data-name="Trazado 1037046" d="M3113.06,1357.564a24.092,24.092,0,0,1,3.055-.866,19.788,19.788,0,0,0,2.93-1.156,22.843,22.843,0,0,0,2.639-1.534,26.132,26.132,0,0,0,2.807-1.986c.033-.029.095.01.065.049a15.217,15.217,0,0,1-2.13,2.5,15.582,15.582,0,0,1-2.82,1.909,18.162,18.162,0,0,1-3.174,1.342,7.827,7.827,0,0,1-3.27.509A.42.42,0,0,1,3113.06,1357.564Z" transform="translate(-123.433 -314.095)" fill="#c9684a"/>
      <path id="Trazado_1037047" data-name="Trazado 1037047" d="M2920.706,1204.073a16.632,16.632,0,0,1,.619-2.3c.042-.147.248-.081.228.061a17.323,17.323,0,0,0,.109,4.346c.162,1.363.627,2.688.725,4.051.036.5-.677.627-.918.243a8.445,8.445,0,0,1-.927-4.294A14.814,14.814,0,0,1,2920.706,1204.073Z" transform="translate(-24.596 -236.839)" fill="#a53e2f"/>
      <path id="Trazado_1037048" data-name="Trazado 1037048" d="M2912.63,1206.291a41.092,41.092,0,0,1,1.259,3.982.25.25,0,0,1-.482.13,40.9,40.9,0,0,1-1.044-4.039A.139.139,0,0,1,2912.63,1206.291Z" transform="translate(-20.39 -239.155)" fill="#a53e2f"/>
      <path id="Trazado_1037049" data-name="Trazado 1037049" d="M2934.033,1152.686a.209.209,0,0,1,.381.156c-.731,2.412-1.464,4.86-1.985,7.326-.53,2.505-.9,5.1-1.191,7.642a.293.293,0,0,1-.584,0A25.728,25.728,0,0,1,2934.033,1152.686Z" transform="translate(-29.745 -211.604)" fill="#a53e2f"/>
      <path id="Trazado_1037050" data-name="Trazado 1037050" d="M3046.39,832.267c1.642-.8,3.412-1.332,5.073-2.1s3.278-1.595,4.878-2.46a78.275,78.275,0,0,0,9.115-5.82,152.016,152.016,0,0,0,16.478-14.555c2.945-2.907,5.8-5.873,8.885-8.644.039-.034.111.013.076.057a137.433,137.433,0,0,1-15.264,16.1,94.329,94.329,0,0,1-17.771,13.091,55.566,55.566,0,0,1-5.567,2.7,30.061,30.061,0,0,1-5.733,2.027C3046.33,832.707,3046.149,832.384,3046.39,832.267Z" transform="translate(-89.216 -29.716)" fill="#a53e2f"/>
      <path id="Trazado_1037051" data-name="Trazado 1037051" d="M3144.9,782.965a16.3,16.3,0,0,0,3.24-4.309c.073-.151.346-.041.28.115a10.709,10.709,0,0,1-3.318,4.449C3144.946,783.334,3144.775,783.094,3144.9,782.965Z" transform="translate(-139.881 -19.389)" fill="#a53e2f"/>
      <path id="Trazado_1037052" data-name="Trazado 1037052" d="M2982.165,1266.112a.07.07,0,0,1,.139,0c.11,1.367.291,2.722.372,4.095q.119,1.983.337,3.958c.3,2.715.688,5.41,1.256,8.086a80.51,80.51,0,0,0,4.98,15.469,74.589,74.589,0,0,0,4.229,8.239c.278.469-.456.885-.744.424a72.309,72.309,0,0,1-10.594-30.944c-.156-1.526-.237-3.06-.271-4.593A33.558,33.558,0,0,1,2982.165,1266.112Z" transform="translate(-56.113 -269.914)" fill="#a53e2f"/>
      <path id="Trazado_1037053" data-name="Trazado 1037053" d="M3012.72,901.651a1.382,1.382,0,0,1,0,2.763A1.382,1.382,0,0,1,3012.72,901.651Z" transform="translate(-71.267 -82.637)" fill="#c9684a"/>
      <path id="Trazado_1037054" data-name="Trazado 1037054" d="M2974.536,1048.771a17.612,17.612,0,0,1,.69-2.916,8.755,8.755,0,0,1,.628-1.684,9.451,9.451,0,0,1,1.085-1.38,1.693,1.693,0,0,1,2.786.717,10.3,10.3,0,0,1,.256,1.624,12.869,12.869,0,0,1-.125,1.469c-.04.448-.056.9-.1,1.345a6.023,6.023,0,1,1-.083.6q.027-.222-.028.212-.042.339-.08.677-.156,1.425-.208,2.858a7.643,7.643,0,0,1-.743,3.565,2.3,2.3,0,0,1-3.879,0C2973.553,1053.781,2974.2,1051,2974.536,1048.771Z" transform="translate(-52.099 -154.932)" fill="#c9684a"/>
      <path id="Trazado_1037055" data-name="Trazado 1037055" d="M2985.324,1026.39a1.52,1.52,0,0,1,2.59,0,1.421,1.421,0,0,1,0,1.477l-.288.422a1.182,1.182,0,0,1-2.015,0l-.288-.422A1.421,1.421,0,0,1,2985.324,1026.39Z" transform="translate(-57.784 -146.373)" fill="#c9684a"/>
      <path id="Trazado_1037056" data-name="Trazado 1037056" d="M2975.805,1087.655a1.219,1.219,0,0,1,0,2.438A1.219,1.219,0,0,1,2975.805,1087.655Z" transform="translate(-52.378 -178.232)" fill="#c9684a"/>
      <path id="Trazado_1037057" data-name="Trazado 1037057" d="M2922.95,887.283a15.365,15.365,0,0,1,2.361-5.707,11.035,11.035,0,0,1,4.423-3.8c3.077-1.609,8.512-.911,8.193-.762-.846.4-3.171.527-3.815,1.15-.621.6-1.313,1.12-1.941,1.72-.323.308-.651.608-.956.933q-.2.211-.386.429-.111.129-.22.261l-.068.089a23.756,23.756,0,0,0-1.412,2.159c-.208.363-.391.735-.573,1.111-.062.148-.1.25-.143.352-.068.178-.132.358-.193.538q-.212.632-.361,1.282c-.05.217-.087.435-.132.653-.012.058-.021.1-.029.138a15.243,15.243,0,0,0-.007,2.721,6.372,6.372,0,0,1,.221,1.312l-.091.663-.121.275a2.648,2.648,0,0,1-.053.436c.133.007.258,0,.382,0a8.691,8.691,0,0,1,1.062.145,1.539,1.539,0,0,1,.7,2.581,3.45,3.45,0,0,1-2.7.854,2.749,2.749,0,0,1-2.677-1.811,1.325,1.325,0,0,1-.057-.521c-.052-.038-.1-.078-.15-.121-.273-.244-.44-.564-.685-.828q.289.338.027.088a2.478,2.478,0,0,1-.657-1.1,8.505,8.505,0,0,1-.223-1.975A14.945,14.945,0,0,1,2922.95,887.283Z" transform="translate(-25.687 -69.83)" fill="#c9684a"/>
      <g id="Grupo_1202341" data-name="Grupo 1202341" transform="translate(2900.054 807.173)">
        <path id="Trazado_1037058" data-name="Trazado 1037058" d="M2952.093,885.683c-5.29-4.9-14.835-5.965-18.408,1.335-1.094,2.234-2.04,5.1-.913,7.52a.665.665,0,0,0,1.019.169c1.048-1.048,2.423.021,3.49.429a8.805,8.805,0,0,0,4.74.174c2.536-.656,4.021-1.282,5.729-3.184.8-.888,1.645-2.893,2.334-3.861.234-.328,1.108-1.893,1.6-1.845.053.005.107.01.16.011C2952.286,886.445,2952.386,885.955,2952.093,885.683Z" transform="translate(-2930.676 -879.596)" fill="#e38a71"/>
        <path id="Trazado_1037059" data-name="Trazado 1037059" d="M2943.347,884.046c-3.972.89-7.532,4.54-5.59,8.351,1.432,2.81,5.3,3.07,7.972,2.062,2.538-.957,5.422-3.667,4.975-6.574C2950.2,884.588,2946.6,883.317,2943.347,884.046Z" transform="translate(-2933.218 -880.66)" fill="#221320"/>
        <path id="Trazado_1037060" data-name="Trazado 1037060" d="M2948.06,880.484a3.618,3.618,0,0,0-.69-.994,6.974,6.974,0,0,0-1.115-.831,10.524,10.524,0,0,0-2.644-1.028,12.051,12.051,0,0,0-5.513-.043,11.715,11.715,0,0,0-8.2,7.2,12.186,12.186,0,0,0-.786,3c-.1.816-.3,2.207.306,2.877a.178.178,0,0,0,.274-.024,3.264,3.264,0,0,0,.354-1.41c.084-.482.141-.967.251-1.445a12.906,12.906,0,0,1,1.072-3.024,11.291,11.291,0,0,1,4.4-4.668,10.483,10.483,0,0,1,8.911-.5c.469.193.921.435,1.37.669.49.256.979.459,1.471.7C2947.83,881.125,2948.27,880.835,2948.06,880.484Z" transform="translate(-2928.996 -877.291)" fill="#a53e2f"/>
      </g>
      <path id="Trazado_1037061" data-name="Trazado 1037061" d="M2937.953,1000.44a6.281,6.281,0,0,1,1.964.442,10.336,10.336,0,0,0,2.218.3,14.557,14.557,0,0,0,2.021-.091c.415-.047.825-.128,1.237-.2.362-.061.791-.056,1.138-.146a.19.19,0,0,1,.149.346,9.5,9.5,0,0,1-1.056.647,6.805,6.805,0,0,1-1.075.35,9.746,9.746,0,0,1-2.413.279,12.081,12.081,0,0,1-2.3-.249,3.757,3.757,0,0,1-2.191-.941A.439.439,0,0,1,2937.953,1000.44Z" transform="translate(-33.324 -133.405)" fill="#c9684a"/>
      <path id="Trazado_1037062" data-name="Trazado 1037062" d="M2951.686,1080.694a.125.125,0,0,1,.25,0c.051,1.313.672,2.749.244,4.055a.388.388,0,0,1-.736,0C2951.014,1083.444,2951.634,1082.007,2951.686,1080.694Z" transform="translate(-40.401 -174.594)" fill="#c9684a"/>
      <path id="Trazado_1037063" data-name="Trazado 1037063" d="M2944.756,1090.412c.205.972.78,2.219.553,3.213a.3.3,0,0,1-.545.069,3.537,3.537,0,0,1-.378-1.456c-.086-.555-.122-1.115-.206-1.672C2944.126,1090.205,2944.677,1090.037,2944.756,1090.412Z" transform="translate(-36.744 -179.54)" fill="#c9684a"/>
      <path id="Trazado_1037064" data-name="Trazado 1037064" d="M2951.45,1098.35a10.606,10.606,0,0,1,1.19,3.236.387.387,0,0,1-.651.263,10.846,10.846,0,0,1-1.369-3.276C2950.433,1098.053,2951.244,1097.864,2951.45,1098.35Z" transform="translate(-40.041 -183.584)" fill="#c9684a"/>
      <path id="Trazado_1037065" data-name="Trazado 1037065" d="M3017.069,1185.118a10.965,10.965,0,0,1,1.855,2.433,4.5,4.5,0,0,1,.787,2.747.536.536,0,0,1-.882.227,9.334,9.334,0,0,1-.994-2.443,13.887,13.887,0,0,0-1.345-2.528C3016.254,1185.216,3016.785,1184.821,3017.069,1185.118Z" transform="translate(-73.878 -228.268)" fill="#c9684a"/>
      <path id="Trazado_1037066" data-name="Trazado 1037066" d="M3010.785,1200.834c.5-1.186,1.2-2.318.545-3.622a.421.421,0,0,1,.731-.417c.959,1.322,1.06,3.824-.772,4.531C3011.014,1201.432,3010.672,1201.1,3010.785,1200.834Z" transform="translate(-70.965 -234.225)" fill="#c9684a"/>
      <path id="Trazado_1037067" data-name="Trazado 1037067" d="M2999.483,1183.355c.66.711,1.458,1.943,1.055,2.946-.1.244-.522.393-.66.084a8.913,8.913,0,0,1-.318-1.28,4.633,4.633,0,0,0-.6-1.357C2998.755,1183.442,2999.228,1183.08,2999.483,1183.355Z" transform="translate(-64.873 -227.366)" fill="#c9684a"/>
      <path id="Trazado_1037068" data-name="Trazado 1037068" d="M3004.32,1208.868a.355.355,0,0,1,.708,0,7.864,7.864,0,0,1-.039,3.161.332.332,0,0,1-.63,0A7.86,7.86,0,0,1,3004.32,1208.868Z" transform="translate(-67.577 -240.357)" fill="#c9684a"/>
      <path id="Trazado_1037069" data-name="Trazado 1037069" d="M3007.253,1172.476a10.316,10.316,0,0,1,.4,1.866c.02.329-.517.49-.66.175a10.274,10.274,0,0,1-.53-1.829A.41.41,0,0,1,3007.253,1172.476Z" transform="translate(-68.748 -221.678)" fill="#c9684a"/>
      <path id="Trazado_1037070" data-name="Trazado 1037070" d="M2873.041,917.366a5.275,5.275,0,0,1,.4-1.628,6.406,6.406,0,0,1,1.051-1.536c.127-.162.393-.026.288.164a6.478,6.478,0,0,0-.183,4.417,5.67,5.67,0,0,1,1.249-2.383c.1-.121.341-.06.279.115a11.488,11.488,0,0,0-.507,2.553,22.039,22.039,0,0,1-.056,2.367.489.489,0,0,1-.876.111,1.961,1.961,0,0,1-.172-.429.735.735,0,0,1-.535-.308A5.22,5.22,0,0,1,2873.041,917.366Z" transform="translate(-0.176 -89.051)" fill="#c9684a"/>
    </g>
  </g>
</svg>
