<svg xmlns="http://www.w3.org/2000/svg" width="70" height="70" viewBox="0 0 70 70">
  <g id="Grupo_1202268" data-name="Grupo 1202268" transform="translate(-1041.835 -3716)">
    <circle id="Elipse_12373" data-name="Elipse 12373" cx="35" cy="35" r="35" transform="translate(1041.835 3716)" fill="#26c790"/>
    <g id="Grupo_1202267" data-name="Grupo 1202267" transform="translate(1050.835 3725)">
      <path id="Trazado_1036428" data-name="Trazado 1036428" d="M43.458,5H9.542A4.545,4.545,0,0,0,5,9.542V43.458A4.545,4.545,0,0,0,9.542,48H43.458A4.545,4.545,0,0,0,48,43.458V9.542A4.545,4.545,0,0,0,43.458,5Zm3.534,38.458a3.538,3.538,0,0,1-3.534,3.534H9.542a3.538,3.538,0,0,1-3.534-3.534V9.542A3.538,3.538,0,0,1,9.542,6.008H43.458a3.538,3.538,0,0,1,3.534,3.534Z"/>
      <path id="Trazado_1036429" data-name="Trazado 1036429" d="M28.387,10.75A17.64,17.64,0,1,0,46.023,28.393,17.658,17.658,0,0,0,28.387,10.75Zm0,34.272A16.632,16.632,0,1,1,45.016,28.393,16.645,16.645,0,0,1,28.387,45.022Z" transform="translate(-1.887 -1.887)"/>
      <path id="Trazado_1036430" data-name="Trazado 1036430" d="M43.83,29.455a3.3,3.3,0,0,0-2.52-1.162H41.3l-6.752.013a5.127,5.127,0,0,0-.558-1.236A29.676,29.676,0,0,1,42.916,25.2a1.1,1.1,0,0,0,.927-.645,1.121,1.121,0,0,0-.107-1.122l-1.794-2.493a3.285,3.285,0,0,0-2.419-1.364,3.32,3.32,0,0,0-2.607.961l-4.764,4.784a4.9,4.9,0,0,0-1.27-.477,29.751,29.751,0,0,1,4.979-7.633,1.094,1.094,0,0,0,.2-1.109,1.129,1.129,0,0,0-.873-.719l-3.03-.49a3.305,3.305,0,0,0-3.836,3.272l.013,6.752a5.128,5.128,0,0,0-1.236.558,29.676,29.676,0,0,1-1.875-8.923,1.1,1.1,0,0,0-.645-.927,1.12,1.12,0,0,0-1.122.108l-2.493,1.794A3.285,3.285,0,0,0,19.6,19.942a3.329,3.329,0,0,0,.961,2.607l4.784,4.764a4.9,4.9,0,0,0-.477,1.27A29.751,29.751,0,0,1,17.237,23.6a1.094,1.094,0,0,0-1.109-.2,1.129,1.129,0,0,0-.719.873l-.49,3.03a3.305,3.305,0,0,0,3.265,3.836h.007l6.752-.013a5.128,5.128,0,0,0,.558,1.236,29.676,29.676,0,0,1-8.923,1.875,1.1,1.1,0,0,0-.927.645,1.121,1.121,0,0,0,.108,1.122L17.553,38.5a3.285,3.285,0,0,0,2.419,1.364c.087.007.175.013.262.013a3.311,3.311,0,0,0,2.345-.974l4.764-4.784a4.9,4.9,0,0,0,1.27.477,29.751,29.751,0,0,1-4.979,7.633,1.094,1.094,0,0,0-.2,1.109,1.129,1.129,0,0,0,.873.719l3.03.49a3.53,3.53,0,0,0,.531.04,3.313,3.313,0,0,0,3.306-3.319l-.013-6.752a5.013,5.013,0,0,0,1.236-.558,29.676,29.676,0,0,1,1.875,8.923,1.1,1.1,0,0,0,.645.927,1.138,1.138,0,0,0,.47.1,1.176,1.176,0,0,0,.658-.208l2.493-1.794a3.308,3.308,0,0,0,.4-5.026l-4.784-4.764a4.9,4.9,0,0,0,.477-1.27,29.751,29.751,0,0,1,7.632,4.979,1.115,1.115,0,0,0,1.828-.672l.49-3.03a3.325,3.325,0,0,0-.752-2.667ZM29.741,33.742a4.008,4.008,0,1,1,4-4A4.01,4.01,0,0,1,29.741,33.742Zm7.874-12.49a2.3,2.3,0,0,1,3.5.275l1.794,2.493a.105.105,0,0,1,.013.114.093.093,0,0,1-.087.06,30.363,30.363,0,0,0-9.494,2.049,4.294,4.294,0,0,0-.363-.336Zm-8.3-3.084A2.294,2.294,0,0,1,31.978,15.9l3.03.49a.1.1,0,0,1,.087.074.105.105,0,0,1-.02.108,30.391,30.391,0,0,0-5.261,8.157c-.027,0-.054-.007-.081-.007-.141,0-.275.007-.417.02Zm-8.049,3.689a2.3,2.3,0,0,1,.275-3.5l2.493-1.794a.121.121,0,0,1,.114-.013.093.093,0,0,1,.06.087,30.363,30.363,0,0,0,2.049,9.494,4.3,4.3,0,0,0-.336.363Zm-3.084,8.3a2.294,2.294,0,0,1-2.271-2.667l.49-3.03a.1.1,0,0,1,.074-.087.105.105,0,0,1,.108.02,30.391,30.391,0,0,0,8.157,5.261c0,.027-.007.054-.007.081a4.084,4.084,0,0,0,.02.41Zm3.689,8.049a2.3,2.3,0,0,1-3.5-.275l-1.794-2.493a.105.105,0,0,1-.013-.114.093.093,0,0,1,.087-.06,30.363,30.363,0,0,0,9.494-2.049,4.3,4.3,0,0,0,.363.336Zm8.3,3.084A2.294,2.294,0,0,1,27.5,43.565l-3.03-.49A.1.1,0,0,1,24.386,43a.105.105,0,0,1,.02-.107,30.391,30.391,0,0,0,5.261-8.157c.027,0,.054.007.081.007.141,0,.275-.007.417-.02Zm8.049-3.689a2.3,2.3,0,0,1-.275,3.5L35.452,42.9a.1.1,0,0,1-.114.013.093.093,0,0,1-.06-.087,30.289,30.289,0,0,0-2.049-9.487,4.3,4.3,0,0,0,.336-.363Zm5.362-5.63-.49,3.03a.1.1,0,0,1-.074.087.105.105,0,0,1-.107-.02,30.391,30.391,0,0,0-8.157-5.261c0-.027-.007-.356-.02-.49l6.571-.013h.007a2.325,2.325,0,0,1,1.754.806,2.3,2.3,0,0,1,.517,1.861Z" transform="translate(-3.241 -3.231)"/>
      <path id="Trazado_1036431" data-name="Trazado 1036431" d="M35.8,33.35A2.452,2.452,0,1,0,38.255,35.8,2.457,2.457,0,0,0,35.8,33.35Zm0,3.9A1.445,1.445,0,1,1,37.247,35.8,1.447,1.447,0,0,1,35.8,37.247Z" transform="translate(-9.302 -9.302)"/>
      <path id="Trazado_1036432" data-name="Trazado 1036432" d="M11.414,13.6A2.184,2.184,0,1,0,9.23,11.414,2.188,2.188,0,0,0,11.414,13.6Zm0-3.359a1.176,1.176,0,1,1-1.176,1.176A1.181,1.181,0,0,1,11.414,10.238Z" transform="translate(-1.388 -1.388)"/>
      <path id="Trazado_1036433" data-name="Trazado 1036433" d="M60.454,9.23a2.184,2.184,0,1,0,2.184,2.184A2.188,2.188,0,0,0,60.454,9.23Zm0,3.359a1.176,1.176,0,1,1,1.176-1.176A1.177,1.177,0,0,1,60.454,12.589Z" transform="translate(-17.479 -1.388)"/>
      <path id="Trazado_1036434" data-name="Trazado 1036434" d="M60.454,58.27a2.184,2.184,0,1,0,2.184,2.184A2.188,2.188,0,0,0,60.454,58.27Zm0,3.359a1.176,1.176,0,1,1,1.176-1.176A1.181,1.181,0,0,1,60.454,61.629Z" transform="translate(-17.479 -17.479)"/>
      <path id="Trazado_1036435" data-name="Trazado 1036435" d="M11.414,58.27A2.184,2.184,0,1,0,13.6,60.454,2.188,2.188,0,0,0,11.414,58.27Zm0,3.359a1.176,1.176,0,1,1,1.176-1.176A1.177,1.177,0,0,1,11.414,61.629Z" transform="translate(-1.388 -17.479)"/>
    </g>
  </g>
</svg>
