<svg xmlns="http://www.w3.org/2000/svg" width="70" height="70" viewBox="0 0 70 70">
  <g id="Grupo_1202276" data-name="Grupo 1202276" transform="translate(-1040.835 -3827)">
    <circle id="Elipse_12375" data-name="Elipse 12375" cx="35" cy="35" r="35" transform="translate(1040.835 3827)" fill="#26c790"/>
    <g id="Grupo_1202275" data-name="Grupo 1202275" transform="translate(1018.87 3837)">
      <g id="Grupo_1202274" data-name="Grupo 1202274" transform="translate(35.966)">
        <g id="Grupo_1202273" data-name="Grupo 1202273" transform="translate(0)">
          <path id="Trazado_1036439" data-name="Trazado 1036439" d="M118.29,93.2a12.981,12.981,0,0,0-8.579,22.706c2.051,2.051,1.865,6.434,1.818,6.481a.772.772,0,0,0,.233.606.86.86,0,0,0,.559.233h11.889a.772.772,0,0,0,.559-.233.886.886,0,0,0,.233-.606c0-.047-.233-4.429,1.818-6.481l.14-.14A12.942,12.942,0,0,0,118.29,93.2Zm7.46,21.493c-.047.047-.14.14-.14.186-1.818,1.958-2.145,5.175-2.191,6.714h-10.3c-.047-1.539-.373-4.9-2.331-6.9a11.353,11.353,0,1,1,14.966,0Z" transform="translate(-97.244 -82.337)" fill="#231f20"/>
          <path id="Trazado_1036440" data-name="Trazado 1036440" d="M210.122,121.6a.793.793,0,1,0,0,1.585,8.486,8.486,0,0,1,8.485,8.485.793.793,0,0,0,1.585,0A10.029,10.029,0,0,0,210.122,121.6Z" transform="translate(-189.122 -107.426)" fill="#231f20"/>
          <path id="Trazado_1036441" data-name="Trazado 1036441" d="M167.238,358.4h-10.35a1.958,1.958,0,0,0,0,3.916h10.3a2.011,2.011,0,0,0,2-1.958A1.97,1.97,0,0,0,167.238,358.4Zm0,2.285h-10.35a.368.368,0,0,1-.373-.373.343.343,0,0,1,.373-.373h10.3a.368.368,0,0,1,.373.373A.333.333,0,0,1,167.238,360.685Z" transform="translate(-141.063 -316.625)" fill="#231f20"/>
          <path id="Trazado_1036442" data-name="Trazado 1036442" d="M177.36,398.8h-7.273a1.958,1.958,0,0,0,0,3.916h7.273a1.97,1.97,0,0,0,1.958-1.958A1.94,1.94,0,0,0,177.36,398.8Zm0,2.285h-7.273a.368.368,0,0,1-.373-.373.343.343,0,0,1,.373-.373h7.273a.373.373,0,1,1,0,.746Z" transform="translate(-152.724 -352.316)" fill="#231f20"/>
          <path id="Trazado_1036443" data-name="Trazado 1036443" d="M210.122,6.994a.786.786,0,0,0,.793-.793V.793a.793.793,0,1,0-1.585,0V6.2A.817.817,0,0,0,210.122,6.994Z" transform="translate(-189.122)" fill="#231f20"/>
          <path id="Trazado_1036444" data-name="Trazado 1036444" d="M297.352,33.263a.752.752,0,0,0-1.072.186L293.3,37.926a.768.768,0,0,0,.186,1.119.752.752,0,0,0,.42.14.744.744,0,0,0,.653-.373l2.984-4.476A.723.723,0,0,0,297.352,33.263Z" transform="translate(-263.158 -29.254)" fill="#231f20"/>
          <path id="Trazado_1036445" data-name="Trazado 1036445" d="M106.756,37.051a.752.752,0,0,0,.42-.14.817.817,0,0,0,.233-1.119l-2.891-4.522a.808.808,0,1,0-1.352.886l2.891,4.522A.773.773,0,0,0,106.756,37.051Z" transform="translate(-95.221 -27.307)" fill="#231f20"/>
          <path id="Trazado_1036446" data-name="Trazado 1036446" d="M41.859,105.941l-4.709-2.564a.821.821,0,0,0-1.072.326.744.744,0,0,0,.326,1.072l4.709,2.564a1.1,1.1,0,0,0,.373.093.769.769,0,0,0,.7-.42A.821.821,0,0,0,41.859,105.941Z" transform="translate(-35.966 -91.255)" fill="#231f20"/>
          <path id="Trazado_1036447" data-name="Trazado 1036447" d="M348.46,103.7a.821.821,0,0,0-1.072-.326l-4.756,2.564a.821.821,0,0,0-.326,1.072.769.769,0,0,0,.7.42.879.879,0,0,0,.373-.093l4.756-2.564A.821.821,0,0,0,348.46,103.7Z" transform="translate(-306.526 -91.255)" fill="#231f20"/>
        </g>
      </g>
    </g>
  </g>
</svg>
