<svg xmlns="http://www.w3.org/2000/svg" width="136.207" height="154.037" viewBox="0 0 136.207 154.037">
  <g id="Grupo_1202645" data-name="Grupo 1202645" transform="translate(-810.169 -5972)">
    <g id="Grupo_1202446" data-name="Grupo 1202446" transform="translate(810.169 5972)">
      <g id="Grupo_1188468" data-name="Grupo 1188468" transform="translate(0 16.713)">
        <path id="Rectángulo_402603" data-name="Rectángulo 402603" d="M0,0H.207a136,136,0,0,1,136,136v1.324a0,0,0,0,1,0,0H0a0,0,0,0,1,0,0V0A0,0,0,0,1,0,0Z" fill="#26c790"/>
      </g>
      <path id="Trazado_874774" data-name="Trazado 874774" d="M14.507,29.641c.1,0,.194,0,.291-.009A4.88,4.88,0,0,0,17.708,28.4,4.244,4.244,0,0,0,19.2,25.23a20.167,20.167,0,0,0,.125-2.864V19.429h5.993a3.776,3.776,0,0,0,3.312-1.7,5.248,5.248,0,0,0,.841-2.884,4.952,4.952,0,0,0-.876-2.875,3.756,3.756,0,0,0-3.277-1.583H19.325V7.209A23.934,23.934,0,0,0,19.2,4.123,3.857,3.857,0,0,0,17.581.952a4.885,4.885,0,0,0-5.795,0,3.882,3.882,0,0,0-1.622,3.323V10.39H4.66A4.544,4.544,0,0,0,1,11.833a4.136,4.136,0,0,0-.971,3.23,5.308,5.308,0,0,0,1.284,2.872A4.268,4.268,0,0,0,4.66,19.429h5.5v5.626a4.226,4.226,0,0,0,1.622,3.69A4.607,4.607,0,0,0,14.507,29.641Zm11.051-13.9a.874.874,0,0,1-.239.025H15.665v6.6a15.883,15.883,0,0,1-.087,2.33l-.036.178v.181a.626.626,0,0,1-.217.566,1.243,1.243,0,0,1-.757.357l-.063,0a.95.95,0,0,1-.573-.2,1.653,1.653,0,0,1-.109-.725V15.768H4.66a.626.626,0,0,1-.566-.217,1.67,1.67,0,0,1-.428-.917A.491.491,0,0,1,3.8,14.2a1.7,1.7,0,0,1,.864-.147h9.164V4.275c0-.28.058-.322.089-.344a1.231,1.231,0,0,1,1.539,0c.031.022.089.064.089.344v.151l.025.149a19.681,19.681,0,0,1,.1,2.633V14.05h9.653a1,1,0,0,1,.284.031,1.337,1.337,0,0,1,.208.767A1.6,1.6,0,0,1,25.557,15.743Z" transform="translate(40.749 41.777) rotate(-137)" fill="#1944b6"/>
    </g>
    <g id="Grupo_1202644" data-name="Grupo 1202644" transform="translate(832.386 6012)">
      <path id="Trazado_1037191" data-name="Trazado 1037191" d="M12.781,11a1.781,1.781,0,1,0,0,3.562,3.182,3.182,0,0,1,3.163,1.781H12.781a1.781,1.781,0,0,0,0,3.562h5.343a1.781,1.781,0,0,0,1.781-1.781A6.924,6.924,0,0,0,12.781,11Z" transform="translate(8.592 3.124)"/>
      <path id="Trazado_1037192" data-name="Trazado 1037192" d="M99.741,23.03H53.433c-11.857,0-15.364-4.969-18.456-9.351C32.658,10.395,30.262,7,24.935,7H19.592a9.345,9.345,0,0,0-8.437,5.659C3.774,15.214.244,25.571.092,26.027a1.77,1.77,0,0,0,0,1.127L1.874,32.5a1.779,1.779,0,0,0,1.688,1.218,23.145,23.145,0,0,1,4.248.55,26.188,26.188,0,0,0,4.912.613,10.784,10.784,0,0,0,5.894-1.66,89.433,89.433,0,0,1,2.757,21.87c0,4.643,2.474,7.668,4.28,9.874a18.49,18.49,0,0,1,1.329,1.749c1.377,2.226,1.516,3.16,1.516,6.188a7.173,7.173,0,0,0,1.781,4.237v7.493l-3.04,3.04a1.787,1.787,0,0,0-.522,1.259v5.343A1.781,1.781,0,0,0,28.5,96.055h7.124a1.765,1.765,0,0,0,.891-.246,1.775,1.775,0,0,0,.891.246h7.124a1.781,1.781,0,0,0,1.728-1.348l1.781-7.124a1.778,1.778,0,0,0,.053-.433V65.878a42.468,42.468,0,0,1,7.221,1.469,45.4,45.4,0,0,0,12.371,1.991A23.354,23.354,0,0,0,78.5,67.007a11.711,11.711,0,0,0,1.623,3.87,10.149,10.149,0,0,1,1.811,5.586c0,4.528-4.775,9.381-4.823,9.429a1.789,1.789,0,0,0-.52,1.257v5.343a1.781,1.781,0,0,0,1.781,1.781h7.124a1.778,1.778,0,0,0,1.592-.985L88.8,89.864c.785-1.07,5.6-7.892,5.6-13.4a14.174,14.174,0,0,0-.985-4.13,13.59,13.59,0,0,1-.8-2.994V68.3c1.973,2.779,3.562,5.9,3.562,8.166,0,8.236-1.585,11.652-1.594,11.672a1.791,1.791,0,0,0-.187.8v3.562a1.781,1.781,0,0,0,1.781,1.781H103.3a1.777,1.777,0,0,0,1.688-1.218l1.781-5.343a1.719,1.719,0,0,0,.093-.563V71.119A20.7,20.7,0,0,0,106.1,66.7a28.321,28.321,0,0,1-1.015-6.268,8.23,8.23,0,0,1,1.245-4.319,23.687,23.687,0,0,0,1.1-2.372,24.3,24.3,0,0,0,3.892,2.894,1.782,1.782,0,0,0,2.668-1.546V39.06C113.99,31.319,108.264,23.03,99.741,23.03Zm-56.6,69.463H38.5l2.273-4.547a1.763,1.763,0,0,0,.189-.8V78.244a21.468,21.468,0,0,1,.712-4.574,36.889,36.889,0,0,0,1.044-6.749c.574-.255,1.211-.506,1.806-.712V86.932Zm46.9-19.024a13.64,13.64,0,0,1,.8,2.994c0,3.885-3.6,9.545-4.989,11.4a2.013,2.013,0,0,0-.167.271l-1.288,2.579H80.149V87.855c1.443-1.6,5.343-6.385,5.343-11.392a13.606,13.606,0,0,0-2.29-7.37,6.818,6.818,0,0,1-1.272-3.316V64.93c.281-.2.566-.4.83-.586,1.566-1.122,2.736-1.961,4.091-2.107a13.59,13.59,0,0,1,2.2,1.829v5.272a14.174,14.174,0,0,0,.985,4.13Zm20.388-21.831a15.29,15.29,0,0,1-1.991-2.032,26.516,26.516,0,0,0,.21-3.421A15.453,15.453,0,0,0,105.5,36.171a1.781,1.781,0,0,0-2.789,2.216,12.051,12.051,0,0,1,2.376,7.8,21.187,21.187,0,0,1-.31,3.829c-.073.4-.155.771-.248,1.117-.021.078-.037.166-.061.24a16.073,16.073,0,0,1-1.3,3.112,11.649,11.649,0,0,0-1.64,5.951,30.954,30.954,0,0,0,1.113,7.1,19.4,19.4,0,0,1,.668,3.589V86.861l-1.282,3.851H97.96V89.294c.493-1.247,1.781-5.222,1.781-12.831,0-6.332-7.83-15.7-11.672-17.624a1.78,1.78,0,0,0-.8-.187c-2.686,0-4.581,1.359-6.588,2.8a19.409,19.409,0,0,1-13,4.328,41.939,41.939,0,0,1-11.451-1.868,37,37,0,0,0-9.922-1.694c-2.1,0-5.482,1.64-6.139,1.968a1.783,1.783,0,0,0-.985,1.594,30.709,30.709,0,0,1-.981,7.112,24.359,24.359,0,0,0-.8,5.356v8.485l-2.882,5.764H30.278V89.668l3.04-3.04a1.776,1.776,0,0,0,.522-1.259V76.463a1.8,1.8,0,0,0-.517-1.254A4.428,4.428,0,0,1,32.059,72.9c0-3.373-.185-5.048-2.046-8.061a20.852,20.852,0,0,0-1.6-2.13c-1.631-1.991-3.477-4.246-3.477-7.62V46.184c0-7.867,6.351-12.778,6.412-12.824a1.78,1.78,0,0,0,.712-1.425,1.783,1.783,0,0,1,1.781-1.781,1.781,1.781,0,0,0,0-3.562,5.352,5.352,0,0,0-5.267,4.442,22.512,22.512,0,0,0-5.258,6.891,69.813,69.813,0,0,0-2.036-8.334,1.78,1.78,0,0,0-2.948-.7,7.451,7.451,0,0,1-5.61,2.422,23.126,23.126,0,0,1-4.246-.55,35,35,0,0,0-3.61-.556l-.613-1.838h1.09a1.781,1.781,0,0,0,0-3.562H4.431c1.544-3.3,4.513-7.97,8.469-8.959A1.805,1.805,0,0,0,14.156,14.7c.057-.169,1.477-4.136,5.436-4.136h5.343c3.327,0,4.732,1.774,7.13,5.171C34.938,19.8,38.771,25.2,49.188,26.357a7.091,7.091,0,0,0-.919,2.2A7.14,7.14,0,0,0,42.746,35.5a1.781,1.781,0,1,0,3.562,0,3.566,3.566,0,0,1,3.562-3.562,1.781,1.781,0,0,0,1.781-1.781,3.566,3.566,0,0,1,3.562-3.562h28.5a3.567,3.567,0,0,1,3.562,3.562,1.781,1.781,0,0,0,1.781,1.781,1.783,1.783,0,0,1,1.781,1.781,1.781,1.781,0,1,0,3.562,0,5.354,5.354,0,0,0-3.728-5.094,7.077,7.077,0,0,0-.807-2.03h9.878c6.3,0,10.687,6.57,10.687,12.468Z"/>
      <path id="Trazado_1037193" data-name="Trazado 1037193" d="M27.687,37.905a3.566,3.566,0,0,1-3.562-3.562,1.781,1.781,0,0,0-1.781-1.781,1.783,1.783,0,0,1-1.781-1.781,1.781,1.781,0,0,0-3.562,0,5.354,5.354,0,0,0,3.728,5.094,7.138,7.138,0,0,0,6.959,5.593,1.781,1.781,0,0,0,0-3.562Z" transform="translate(13.278 17.184)"/>
      <path id="Trazado_1037194" data-name="Trazado 1037194" d="M50.468,30a1.781,1.781,0,0,0-1.781,1.781,1.783,1.783,0,0,1-1.781,1.781,1.781,1.781,0,0,0-1.781,1.781,5.35,5.35,0,0,1-5.343,5.343,1.781,1.781,0,0,0,0,3.562,8.922,8.922,0,0,0,8.775-7.384,5.355,5.355,0,0,0,3.692-5.083A1.781,1.781,0,0,0,50.468,30Z" transform="translate(29.681 17.965)"/>
      <path id="Trazado_1037195" data-name="Trazado 1037195" d="M59.905,29.781a1.783,1.783,0,0,1-1.781,1.781,1.781,1.781,0,0,0-1.781,1.781,3.567,3.567,0,0,1-3.562,3.562,1.781,1.781,0,1,0,0,3.562,7.136,7.136,0,0,0,6.959-5.593,5.352,5.352,0,0,0,3.728-5.094,1.781,1.781,0,1,0-3.562,0Z" transform="translate(39.836 16.403)"/>
      <path id="Trazado_1037196" data-name="Trazado 1037196" d="M45.749,25.281a1.781,1.781,0,1,0-3.562,0,1.783,1.783,0,0,1-1.781,1.781,1.781,1.781,0,0,0-1.781,1.781,5.35,5.35,0,0,1-5.343,5.343,1.781,1.781,0,1,0,0,3.562,8.922,8.922,0,0,0,8.775-7.384A5.355,5.355,0,0,0,45.749,25.281Z" transform="translate(24.604 12.888)"/>
    </g>
  </g>
</svg>
