<svg xmlns="http://www.w3.org/2000/svg" width="70" height="70" viewBox="0 0 70 70">
  <g id="Grupo_1202282" data-name="Grupo 1202282" transform="translate(-621.835 -3938)">
    <circle id="Elipse_12374" data-name="Elipse 12374" cx="35" cy="35" r="35" transform="translate(621.835 3938)" fill="#26c790"/>
    <g id="Grupo_1202281" data-name="Grupo 1202281" transform="translate(636.835 3923.94)">
      <g id="Grupo_1202279" data-name="Grupo 1202279" transform="translate(0 31.06)">
        <g id="Grupo_1202277" data-name="Grupo 1202277" transform="translate(0 27.985)">
          <path id="Trazado_1036448" data-name="Trazado 1036448" d="M28.43,396.427H1.758A1.76,1.76,0,0,1,0,394.669v-4.823a.586.586,0,0,1,1.172,0v4.823a.587.587,0,0,0,.586.586H28.43A.586.586,0,0,1,28.43,396.427Z" transform="translate(0 -389.265)"/>
        </g>
        <g id="Grupo_1202278" data-name="Grupo 1202278">
          <path id="Trazado_1036449" data-name="Trazado 1036449" d="M38.242,55.328H32.72V54.073h3.054a1.8,1.8,0,1,0,0-3.6H32.72V46.793h3.054a1.8,1.8,0,1,0,0-3.6H32.72v-.666a.586.586,0,0,0-1.172,0v12.8H30.293V32.86a.627.627,0,1,1,1.255,0v7.116a.586.586,0,0,0,1.172,0v-.463h3.054a1.8,1.8,0,1,0,0-3.6H32.72V32.86a1.8,1.8,0,1,0-3.6,0v3.054H25.439V32.86a1.8,1.8,0,1,0-3.6,0v3.054H18.159V32.86a1.8,1.8,0,1,0-3.6,0v3.054H10.879V32.86a1.8,1.8,0,1,0-3.6,0v3.054H4.227a1.8,1.8,0,1,0,0,3.6H7.28v1.255H1.758A1.76,1.76,0,0,0,0,42.525V57.073a.586.586,0,0,0,1.172,0V42.525a.587.587,0,0,1,.586-.586h9.79a.587.587,0,0,1,.586.586v4.946a1.76,1.76,0,0,0,1.758,1.758h4.937a.587.587,0,0,1,.586.586v4.927A1.76,1.76,0,0,0,21.172,56.5h17.07a.587.587,0,0,1,.586.586v7.363a.587.587,0,0,1-.586.586H30.984a.586.586,0,0,0,0,1.172h7.259A1.76,1.76,0,0,0,40,64.449V57.086a1.76,1.76,0,0,0-1.758-1.758Zm-2.469-3.682a.627.627,0,1,1,0,1.255H32.72V51.646Zm0-7.28a.627.627,0,1,1,0,1.255H32.72V44.366Zm0-7.28a.627.627,0,1,1,0,1.255H32.72V37.086h3.054ZM20.586,52.9V51.646h8.535V52.9H20.586Zm-7.28-8.534h1.255v1.255H13.305Zm10.962-4.854v3.682H23.012V39.512Zm4.854,0v3.682H25.439V39.512Zm0,7.28v3.681H25.439V46.793Zm-7.28-3.6H18.159V39.512h3.681Zm-3.681,1.172H29.121v1.255H18.159Zm6.108,2.427v3.681H23.012V46.793Zm4.854,7.28v1.255H25.439V54.073ZM23.012,32.86a.627.627,0,1,1,1.255,0v3.054H23.012Zm6.109,4.226V38.34H18.159V37.086ZM16.36,32.232a.628.628,0,0,1,.627.627V48.048H15.732V32.86a.628.628,0,0,1,.627-.627Zm-7.908.628a.627.627,0,1,1,1.255,0v3.054H8.452ZM3.6,37.713a.628.628,0,0,1,.628-.627H14.561v1.255H4.227a.629.629,0,0,1-.628-.627Zm4.854,3.054V39.512H9.707v1.255Zm3.1,0h-.669V39.512h3.682v3.682H13.305v-.67A1.76,1.76,0,0,0,11.548,40.767Zm1.758,6.7v-.678h1.255v1.264h-.669A.587.587,0,0,1,13.305,47.471Zm5.523.586h-.669V46.793h3.681v3.681H20.586v-.659A1.76,1.76,0,0,0,18.828,48.057Zm1.758,6.685v-.67h1.255v1.255h-.669A.587.587,0,0,1,20.586,54.742Zm2.427.586V54.073h1.255v1.255Z" transform="translate(0 -31.06)"/>
          <path id="Trazado_1036450" data-name="Trazado 1036450" d="M96.926,188.175a1.8,1.8,0,1,0-1.8,1.8A1.8,1.8,0,0,0,96.926,188.175Zm-1.8.627a.627.627,0,1,1,.627-.627A.628.628,0,0,1,95.127,188.8Z" transform="translate(-86.047 -174.242)"/>
          <path id="Trazado_1036451" data-name="Trazado 1036451" d="M32.863,279.562a1.8,1.8,0,1,0,1.8,1.8A1.8,1.8,0,0,0,32.863,279.562Zm0,2.427a.627.627,0,1,1,.627-.627A.628.628,0,0,1,32.863,281.989Z" transform="translate(-28.637 -260.148)"/>
          <path id="Trazado_1036452" data-name="Trazado 1036452" d="M126.05,372.749a1.8,1.8,0,1,0,1.8,1.8A1.8,1.8,0,0,0,126.05,372.749Zm0,2.427a.627.627,0,1,1,.627-.627A.628.628,0,0,1,126.05,375.176Z" transform="translate(-114.544 -346.055)"/>
          <path id="Trazado_1036453" data-name="Trazado 1036453" d="M281.361,403.812a1.8,1.8,0,1,0,1.8,1.8A1.8,1.8,0,0,0,281.361,403.812Zm0,2.427a.627.627,0,1,1,.627-.627A.628.628,0,0,1,281.361,406.239Z" transform="translate(-257.721 -374.691)"/>
          <path id="Trazado_1036454" data-name="Trazado 1036454" d="M407.549,374.548a1.8,1.8,0,1,0-1.8,1.8,1.8,1.8,0,0,0,1.8-1.8Zm-2.427,0a.627.627,0,1,1,.627.627A.628.628,0,0,1,405.122,374.548Z" transform="translate(-372.402 -346.055)"/>
        </g>
      </g>
      <g id="Grupo_1202280" data-name="Grupo 1202280" transform="translate(4.858 43.194)">
        <path id="Trazado_1036455" data-name="Trazado 1036455" d="M62.762,187.547a.586.586,0,0,1,0-1.172A.586.586,0,0,1,62.762,187.547Z" transform="translate(-62.181 -186.375)"/>
        <path id="Trazado_1036456" data-name="Trazado 1036456" d="M93.825,280.734a.586.586,0,0,1,0-1.172A.586.586,0,0,1,93.825,280.734Z" transform="translate(-90.817 -272.282)"/>
        <path id="Trazado_1036457" data-name="Trazado 1036457" d="M218.074,311.8a.586.586,0,0,1,0-1.172A.586.586,0,0,1,218.074,311.8Z" transform="translate(-205.359 -300.918)"/>
        <path id="Trazado_1036458" data-name="Trazado 1036458" d="M155.949,435.808a.586.586,0,0,1,0-1.172A.586.586,0,0,1,155.949,435.808Z" transform="translate(-148.088 -415.241)"/>
        <path id="Trazado_1036459" data-name="Trazado 1036459" d="M373.385,404.982a.586.586,0,0,1,0-1.172A.586.586,0,0,1,373.385,404.982Z" transform="translate(-348.536 -386.823)"/>
        <path id="Trazado_1036460" data-name="Trazado 1036460" d="M466.572,435.808a.586.586,0,0,1,0-1.172A.586.586,0,0,1,466.572,435.808Z" transform="translate(-434.443 -415.241)"/>
        <path id="Trazado_1036461" data-name="Trazado 1036461" d="M187.011,280.734a.586.586,0,0,1,0-1.172A.586.586,0,0,1,187.011,280.734Z" transform="translate(-176.723 -272.282)"/>
        <path id="Trazado_1036462" data-name="Trazado 1036462" d="M187.011,373.921a.586.586,0,0,1,0-1.172A.586.586,0,0,1,187.011,373.921Z" transform="translate(-176.723 -358.189)"/>
        <path id="Trazado_1036463" data-name="Trazado 1036463" d="M249.134,405.255a.586.586,0,0,1,0-1.172A.586.586,0,0,1,249.134,405.255Z" transform="translate(-233.992 -387.075)"/>
        <path id="Trazado_1036464" data-name="Trazado 1036464" d="M466.572,373.921a.586.586,0,0,1,0-1.172A.586.586,0,0,1,466.572,373.921Z" transform="translate(-434.443 -358.189)"/>
        <path id="Trazado_1036465" data-name="Trazado 1036465" d="M62.762,343.1a.586.586,0,0,1,0-1.172A.586.586,0,0,1,62.762,343.1Z" transform="translate(-62.181 -329.773)"/>
      </g>
    </g>
  </g>
</svg>
