<svg xmlns="http://www.w3.org/2000/svg" width="81.504" height="92.172" viewBox="0 0 81.504 92.172">
  <g id="Grupo_1202233" data-name="Grupo 1202233" transform="translate(0 0)">
    <g id="Grupo_1188468" data-name="Grupo 1188468" transform="translate(0 10.001)">
      <path id="Trazado_878298" data-name="Trazado 878298" d="M0,0V82.172H81.5V81.5A81.5,81.5,0,0,0,0,0Z" fill="#26c790"/>
      <g id="Grupo_1202232" data-name="Grupo 1202232" transform="translate(9.06 8.377)">
        <g id="Grupo_1202229" data-name="Grupo 1202229" transform="translate(0 63.454)">
          <ellipse id="Elipse_12382" data-name="Elipse 12382" cx="0.981" cy="0.982" rx="0.981" ry="0.982" transform="translate(42.182)"/>
          <ellipse id="Elipse_12383" data-name="Elipse 12383" cx="0.981" cy="0.982" rx="0.981" ry="0.982" transform="translate(0)"/>
        </g>
        <ellipse id="Elipse_12384" data-name="Elipse 12384" cx="0.981" cy="0.982" rx="0.981" ry="0.982" transform="translate(17.63 26.892)"/>
        <ellipse id="Elipse_12385" data-name="Elipse 12385" cx="0.981" cy="0.982" rx="0.981" ry="0.982" transform="translate(44.144 38.875)"/>
        <ellipse id="Elipse_12386" data-name="Elipse 12386" cx="0.699" cy="0.841" rx="0.699" ry="0.841" transform="translate(56.376 41.745)"/>
        <g id="Grupo_1202230" data-name="Grupo 1202230" transform="translate(0 0)">
          <path id="Trazado_1036458" data-name="Trazado 1036458" d="M390.235,204.817a.841.841,0,0,0,.12-1.669c-.362-.053-.728-.1-1.115-.14a8.549,8.549,0,0,1-4.175-1.179.839.839,0,0,0-1.027,1.327,9.867,9.867,0,0,0,5.008,1.518c.375.044.729.085,1.066.134A.848.848,0,0,0,390.235,204.817Z" transform="translate(-379.267 -173.466)"/>
          <path id="Trazado_1036459" data-name="Trazado 1036459" d="M334.6,108.011a.873.873,0,0,0,.82-1.073c-.394-3.731-.934-8.841-5.331-10.606a.839.839,0,1,0-.625,1.557c3.46,1.389,3.919,5.734,4.288,9.225a.877.877,0,0,0,.849.9Z" transform="translate(-315.988 -82.814)"/>
          <ellipse id="Elipse_12387" data-name="Elipse 12387" cx="1.153" cy="1.409" rx="1.153" ry="1.409" transform="translate(51.342 15.239)"/>
          <path id="Trazado_1036460" data-name="Trazado 1036460" d="M259.6,258.346a11.8,11.8,0,0,0,1.508-.1.839.839,0,0,0-.214-1.664,8.079,8.079,0,0,1-6.915-2.21.839.839,0,1,0-1.119,1.25A9.727,9.727,0,0,0,259.6,258.346Z" transform="translate(-231.733 -218.631)"/>
          <path id="Trazado_1036461" data-name="Trazado 1036461" d="M2.344,17.328c1.08-1.87,3.491-2.724,6.433-2.335-.046-2.42.824-4.348,2.425-5.271,3.032-1.75,7.547.583,10.277,5.312a14.2,14.2,0,0,1,1.738,4.712c9.251.768,12.328-2.66,15.323-5.979a19.537,19.537,0,0,1,4.034-3.708c-.109-.169-.215-.34-.314-.515-1.712-3.006-1.7-6.035.024-7.044A3.086,3.086,0,0,1,45.6,2.92C46.207,1.11,47.32,0,48.616,0s2.409,1.11,3.019,2.92A3.087,3.087,0,0,1,54.948,2.5c1.726,1.01,1.736,4.038.023,7.044-.139.244-.288.481-.443.711a11,11,0,0,1,3.095,3.118l7.442,4.379a.845.845,0,0,1-.334,1.556l-1.3.146a5.922,5.922,0,0,0-3.579,1.763l-.14.131,3.176,1.823c2.508,1.439,3.15,5.261.443,6.862-2.414,1.428-5.848-.219-5.786-3.15l.029-1.373a10.858,10.858,0,0,1-8.133,4.82,21.228,21.228,0,0,1-1.3,6.687.839.839,0,0,1-.787.549.861.861,0,0,1-.811-1.129,19.87,19.87,0,0,0,1.185-6.909.86.86,0,0,1,.859-.839,9.279,9.279,0,0,0-.027-18.556c-4.463,0-6.449,2.2-8.753,4.758-2.829,3.135-5.99,6.641-14.079,6.641a33.124,33.124,0,0,1-3.329-.178.838.838,0,0,1-.749-.746,12.183,12.183,0,0,0-1.616-4.736c-2.185-3.784-5.842-5.935-7.986-4.7-1.236.713-1.8,2.481-1.516,4.729a.847.847,0,0,1-1.018.924c-2.651-.6-4.893-.076-5.711,1.34-.839,1.452-.132,3.7,1.8,5.729a.847.847,0,0,1-.3,1.36c-2.2.857-3.563,2.3-3.563,3.766,0,2.047,2.564,3.907,6.1,4.423a.839.839,0,1,1-.243,1.66C3.152,34.458.055,31.957.055,29.023c0-1.92,1.312-3.678,3.564-4.848-1.881-2.385-2.378-4.938-1.275-6.847Zm59.813.662-3.252-1.913a11,11,0,0,1,.513,3.279,7.609,7.609,0,0,1,2.738-1.367Zm-.107,6.635L59.3,23.047l-.082,3.871a2.139,2.139,0,0,0,3.255,1.671c1.615-.955.977-3.16-.423-3.964ZM43.718,8.713q.17.3.36.581a11.481,11.481,0,0,1,4.5-.839,10.893,10.893,0,0,1,4.482.979c.162-.231.315-.471.457-.721,1.333-2.339,1.238-4.385.587-4.766C53.62,3.666,52.647,4.1,51.733,5a.846.846,0,0,1-1.416-.454c-.309-1.8-1.108-2.873-1.7-2.873s-1.392,1.075-1.7,2.873A.846.846,0,0,1,45.5,5c-.914-.9-1.888-1.338-2.368-1.057-.651.381-.746,2.427.587,4.766Z" transform="translate(-0.055 0)"/>
        </g>
        <g id="Grupo_1202231" data-name="Grupo 1202231" transform="translate(0.28 3.922)">
          <ellipse id="Elipse_12388" data-name="Elipse 12388" cx="0.699" cy="0.839" rx="0.699" ry="0.839" transform="translate(7.505 38.294)"/>
          <path id="Trazado_1036462" data-name="Trazado 1036462" d="M3.237,200.3c-.1-.006,1.638-.214,5.323,1.423a21.777,21.777,0,0,0-1.543-3.478.849.849,0,0,1,.764-1.28q.615.038,1.2.106a11.525,11.525,0,0,1-.646-3.135,5.851,5.851,0,0,1-4.794-4.783L0,186.781l4.169-1.612a5.709,5.709,0,0,1,5.006-3.048A5.9,5.9,0,0,1,14.9,188.03a6.957,6.957,0,0,1,4.368.3c.444-.261.91-.5,1.373-.741.619-.32,1.248-.645,1.8-1.008a14.8,14.8,0,0,1-4.162-2.672,17.675,17.675,0,0,1-4.242-5.765.834.834,0,0,1-.083-.412.843.843,0,0,1,.763-.787c3.27-.3,6.619-2.608,9.858-4.842,3.808-2.627,7.4-5.11,11.006-4.6a7.944,7.944,0,0,1,6.082,4.39,8.271,8.271,0,0,1-.213,7.7,15.168,15.168,0,0,1-9.238,7.3,17.528,17.528,0,0,1-4.69.68q-.628,0-1.238-.054a7.528,7.528,0,0,1,.282,2.167,7.6,7.6,0,0,0,2.113-1.166.852.852,0,0,1,1.326.5l.112.556a13.4,13.4,0,0,1-1.985,9.487c-.277.571-.666,1.445-1.109,2.653a11.051,11.051,0,0,1,5.389-1.424,12.532,12.532,0,0,1,5.286,1.424c-.871-2.372-3.521-5.271-2.816-12.6l.112-.557a.854.854,0,0,1,1.327-.5,7.588,7.588,0,0,0,2.126,1.174,7.187,7.187,0,0,1,.123-1.847,8.113,8.113,0,0,1,1.147-2.846.858.858,0,0,1,1.436.007,8.4,8.4,0,0,0,3.21,2.3c.563.291,1.131.584,1.658.913a6.988,6.988,0,0,1,4.082-.191,5.91,5.91,0,0,1,5.723-5.924,5.706,5.706,0,0,1,5,3.052L65,186.311l-3.54,2.376a5.858,5.858,0,0,1-4.794,4.791,11.474,11.474,0,0,1-.81,3.579c.353-.039.714-.07,1.085-.093a.85.85,0,0,1,.765,1.278,21.8,21.8,0,0,0-1.544,3.479,12.535,12.535,0,0,1,5.286-1.424.851.851,0,0,1,.747,1.308,50.856,50.856,0,0,0-3.378,6.027h5.459a.854.854,0,0,1,.845.654.84.84,0,0,1-.819,1.023H46.956a.854.854,0,0,1-.845-.654.84.84,0,0,1,.819-1.023H56.967a50.231,50.231,0,0,1,2.88-5.45,9.5,9.5,0,0,0-4.729,2.321.847.847,0,0,1-1.364-.868,38.786,38.786,0,0,1,1.8-4.853c-3.767.512-6.235,2.073-7.893,4.947a.85.85,0,0,1-1.485-.062c-1.281-2.716-3.921-4.355-7.861-4.886a38.794,38.794,0,0,1,1.8,4.854.846.846,0,0,1-1.364.867,9.5,9.5,0,0,0-4.729-2.32,50.33,50.33,0,0,1,2.879,5.45h2.49a.854.854,0,0,1,.845.654.84.84,0,0,1-.819,1.023H4.23a.855.855,0,0,1-.845-.654.84.84,0,0,1,.819-1.023h1.7a50.492,50.492,0,0,0-3.378-6.026.851.851,0,0,1,.71-1.308c-.1-.006-.655,0,0,0ZM40.6,186.44a6.451,6.451,0,0,0-.383,1.264,4.847,4.847,0,0,0,1.334,4.533A4.3,4.3,0,0,0,44.8,193.65c1.48,0,2.244-1.745,1.788-2.994-.349-.956-1.636-1.622-3-2.327A13.633,13.633,0,0,1,40.6,186.44Zm14.476,6.316V192.7a.834.834,0,0,1,.822-.836,4.276,4.276,0,1,0-4.086-4.838l-.083,1.74a.847.847,0,0,1-1.185.725,5.293,5.293,0,0,0-2.95-.41,3.533,3.533,0,0,1,.572,1,3.872,3.872,0,0,1-3.451,5.247,5.949,5.949,0,0,1-4.393-1.949,7.185,7.185,0,0,1-1.455-2.263.122.122,0,0,1-.018-.027,8.76,8.76,0,0,1-2.441-.951,11.789,11.789,0,0,0,1.072,6.867c4.474.38,7.662,1.955,9.5,4.695a11.233,11.233,0,0,1,6.9-4.314A9.81,9.81,0,0,0,55.075,192.756Zm-33.73-3.647c-1.339.692-2.593,1.35-2.936,2.29a2.187,2.187,0,0,0,1.788,2.984,4.3,4.3,0,0,0,3.252-1.41,4.827,4.827,0,0,0,1.333-4.52,6.44,6.44,0,0,0-.383-1.261,22.111,22.111,0,0,1-3.056,1.918Zm11.579-4.153a12.706,12.706,0,0,0,7.06-6.174,6.642,6.642,0,0,0,.175-6.142,6.288,6.288,0,0,0-4.815-3.475c-3.535-.5-7.125,2.459-9.818,4.317-3.048,2.1-6.189,4.27-9.464,4.952a15.844,15.844,0,0,0,3.335,4.223,12.9,12.9,0,0,0,4.141,2.551,3.151,3.151,0,0,0,.313-.4.844.844,0,0,1,1.419-.019,8.259,8.259,0,0,1,.546.993c2.42.837,7.036-.8,7.108-.824ZM27.353,197a11.523,11.523,0,0,0,1.231-6.391,8.786,8.786,0,0,1-2.332.92,7.026,7.026,0,0,1-1.576,2.591,5.954,5.954,0,0,1-4.392,1.945,3.867,3.867,0,0,1-3.451-5.238,3.652,3.652,0,0,1,.782-1.242,5.285,5.285,0,0,0-3.16.377.846.846,0,0,1-1.182-.726l-.081-1.736a4.132,4.132,0,0,0-4.018-3.7,4.268,4.268,0,0,0-.072,8.522.834.834,0,0,1,.822.836v.055a9.753,9.753,0,0,0,.968,4.18,11.146,11.146,0,0,1,6.9,4.377c2.1-2.889,5.177-4.42,9.561-4.774Zm7.69,10.637a47.52,47.52,0,0,0-2.682-4.931,47.7,47.7,0,0,0-2.682,4.931Zm-27.288,0H27.829a50.23,50.23,0,0,1,2.88-5.45A9.5,9.5,0,0,0,25.98,204.5a.847.847,0,0,1-1.364-.868,38.817,38.817,0,0,1,1.8-4.853c-3.764.512-6.232,2.067-7.893,4.942a.849.849,0,0,1-1.453,0c-1.658-2.874-4.126-4.432-7.893-4.944a38.812,38.812,0,0,1,1.8,4.855A.847.847,0,0,1,9.6,204.5a9.5,9.5,0,0,0-4.729-2.32,50.322,50.322,0,0,1,2.879,5.45Z" transform="translate(0 -147.954)"/>
          <path id="Trazado_1036463" data-name="Trazado 1036463" d="M248.194,36.462a4.2,4.2,0,1,0-4.193-4.2A4.2,4.2,0,0,0,248.194,36.462Zm0-6.724a2.523,2.523,0,1,1-2.516,2.523A2.523,2.523,0,0,1,248.194,29.738Z" transform="translate(-221.355 -28.06)"/>
        </g>
      </g>
    </g>
    <path id="Trazado_874774" data-name="Trazado 874774" d="M8.681,17.737c.058,0,.116,0,.174-.005a2.92,2.92,0,0,0,1.742-.737,2.539,2.539,0,0,0,.893-1.9,12.068,12.068,0,0,0,.075-1.714V11.626H15.15a2.259,2.259,0,0,0,1.982-1.015,3.141,3.141,0,0,0,.5-1.726,2.963,2.963,0,0,0-.524-1.721,2.248,2.248,0,0,0-1.961-.947H11.564v-1.9a14.322,14.322,0,0,0-.074-1.846A2.308,2.308,0,0,0,10.52.57a2.923,2.923,0,0,0-3.467,0,2.323,2.323,0,0,0-.971,1.988V6.217H2.789A2.719,2.719,0,0,0,.6,7.08,2.475,2.475,0,0,0,.019,9.013a3.176,3.176,0,0,0,.768,1.719,2.554,2.554,0,0,0,2,.894H6.082v3.367A2.529,2.529,0,0,0,7.053,17.2,2.757,2.757,0,0,0,8.681,17.737ZM15.293,9.42a.523.523,0,0,1-.143.015H9.374v3.948a9.5,9.5,0,0,1-.052,1.394l-.021.106v.108a.374.374,0,0,1-.13.339.744.744,0,0,1-.453.214H8.681a.568.568,0,0,1-.343-.12.989.989,0,0,1-.066-.434V9.436H2.789a.374.374,0,0,1-.339-.13,1,1,0,0,1-.256-.549A.294.294,0,0,1,2.272,8.5a1.015,1.015,0,0,1,.517-.088H8.272V2.558c0-.168.035-.193.053-.206a.737.737,0,0,1,.921,0c.019.013.053.038.053.206v.091l.015.089a11.777,11.777,0,0,1,.058,1.575V8.408H15.15a.6.6,0,0,1,.17.018.8.8,0,0,1,.124.459A.958.958,0,0,1,15.293,9.42Z" transform="translate(24.384 24.999) rotate(-137)" fill="#1a8a64"/>
  </g>
</svg>
