<svg xmlns="http://www.w3.org/2000/svg" width="82" height="82" viewBox="0 0 82 82">
  <g id="Grupo_1202283" data-name="Grupo 1202283" transform="translate(0.197)">
    <rect id="Rectángulo_409896" data-name="Rectángulo 409896" width="82" height="82" transform="translate(-0.197)" fill="none"/>
    <g id="layer2" transform="translate(9.404 9.404)">
      <path id="path6715" d="M12.091.529A7.347,7.347,0,0,0,4.734,7.885l0,17.506a5.791,5.791,0,0,0-3.19,2.521A7.317,7.317,0,0,0,.529,31.7v8.945a22.725,22.725,0,0,0,1.638,6.379c.4,1.111.785,2.182,1.07,3.081a7.7,7.7,0,0,1,.445,1.932v3.33a3.155,3.155,0,0,0-2.1,2.979v2.1A3.147,3.147,0,0,0,4.73,63.6H20.5a3.147,3.147,0,0,0,3.149-3.149v-2.1a3.138,3.138,0,0,0-1.813-2.86c.182-.762.573-1.745.965-2.837a18.78,18.78,0,0,0,1.139-4.818h2.862a7.347,7.347,0,0,0,7.358-7.356c0-10.64,0-22.722,0-32.589A7.347,7.347,0,0,0,26.807.529Zm48.353,0A3.153,3.153,0,1,0,63.6,3.678,3.152,3.152,0,0,0,60.445.529Zm0,2.1a1.051,1.051,0,1,1-1.053,1.047A1.046,1.046,0,0,1,60.445,2.631Zm-33.638,0a5.233,5.233,0,0,1,5.256,5.251c0,11.446,0,21.552,0,32.589a5.233,5.233,0,0,1-5.256,5.251h-9.7a8.2,8.2,0,0,0-.794-2.1H26.807a3.147,3.147,0,0,0,3.153-3.151c0-10.64,0-22.722,0-32.589a3.147,3.147,0,0,0-3.153-3.151H23.658a1.055,1.055,0,0,0-.776.335l-.659.714H16.676l-.659-.714a1.052,1.052,0,0,0-.776-.335H12.091A3.147,3.147,0,0,0,8.938,7.885l0,21.519a4.57,4.57,0,0,0-1.2-.166,3.693,3.693,0,0,0-.9.109l0-21.462a5.233,5.233,0,0,1,5.256-5.251ZM45.731,9.987V34.713a9.462,9.462,0,1,0,10.507,0V9.987a5.254,5.254,0,0,0-10.507,0ZM14.783,6.836l.667.716a1.053,1.053,0,0,0,.768.333h6.463a1.052,1.052,0,0,0,.768-.333l.667-.716h2.691a1.04,1.04,0,0,1,1.049,1.049c0,10.61,0,22.542,0,32.589a1.04,1.04,0,0,1-1.049,1.049H14.771c-.469-.508-.933-.964-1.213-1.3a1.355,1.355,0,0,1-.415-.8v-4.2a6.221,6.221,0,0,0-2.1-4.675l0-22.654a1.04,1.04,0,0,1,1.049-1.049Zm36.2,0a3.143,3.143,0,0,1,3.151,3.149V35.3a1.053,1.053,0,0,0,.519.909,7.36,7.36,0,1,1-7.341,0,1.053,1.053,0,0,0,.519-.909V9.987a3.143,3.143,0,0,1,3.151-3.149ZM38.369,9.989a1.051,1.051,0,1,0,0,2.1h4.2a1.051,1.051,0,1,0,0-2.1ZM22.6,11.04a1.01,1.01,0,0,0-1.051,1.051v1.051H14.194a1.051,1.051,0,1,0,0,2.1h7.356V16.3a1.052,1.052,0,0,0,2.1,0V15.245H24.7a1.051,1.051,0,1,0,0-2.1H23.654V12.091A1.01,1.01,0,0,0,22.6,11.04Zm28.38,1.051a1.01,1.01,0,0,0-1.051,1.051V38.515a4.207,4.207,0,1,0,2.1,0V13.143a1.01,1.01,0,0,0-1.051-1.051ZM40.412,15.243a1.052,1.052,0,0,0,0,2.1h2.162a1.051,1.051,0,1,0,0-2.1ZM16.3,18.4a1.01,1.01,0,0,0-1.051,1.051V20.5H14.194a1.051,1.051,0,1,0,0,2.1h1.051v1.051a1.051,1.051,0,1,0,2.1,0V22.6H24.7a1.051,1.051,0,1,0,0-2.1H17.347V19.449A1.01,1.01,0,0,0,16.3,18.4Zm22.073,2.1a1.051,1.051,0,1,0,0,2.1h4.2a1.051,1.051,0,1,0,0-2.1ZM22.6,25.756a1.01,1.01,0,0,0-1.051,1.051v1.051H14.194a1.051,1.051,0,1,0,0,2.1h7.356v1.051a1.052,1.052,0,0,0,2.1,0V29.96H24.7a1.051,1.051,0,1,0,0-2.1H23.654V26.807A1.01,1.01,0,0,0,22.6,25.756Zm17.809,0a1.051,1.051,0,1,0,0,2.1h2.162a1.051,1.051,0,1,0,0-2.1ZM4.736,33.11v7.364a1.051,1.051,0,1,0,2.1,0V32.063a.584.584,0,0,1,.341-.62,1.946,1.946,0,0,1,1.367.04,3.888,3.888,0,0,1,2.494,3.763v4.174a3.369,3.369,0,0,0,.9,2.135c.459.556.979,1.04,1.466,1.589a6.6,6.6,0,0,1,1.839,4.687,1.051,1.051,0,1,0,2.1,0h4.492a17.154,17.154,0,0,1-1.014,4.112,29.289,29.289,0,0,0-1.068,3.244H5.785V52.036a8.926,8.926,0,0,0-.546-2.568c-.306-.968-.7-2.05-1.092-3.151a21.74,21.74,0,0,1-1.513-5.672V31.7a5.372,5.372,0,0,1,.7-2.693,3.628,3.628,0,0,1,1.4-1.337Zm33.634-2.1a1.051,1.051,0,1,0,0,2.1h4.2a1.051,1.051,0,1,0,0-2.1Zm12.613,9.46a2.1,2.1,0,1,1-2.1,2.1,2.1,2.1,0,0,1,2.1-2.1ZM4.734,57.287H20.5a1.047,1.047,0,0,1,1.049,1.057v2.1A1.045,1.045,0,0,1,20.5,61.494H4.73a1.045,1.045,0,0,1-1.047-1.047v-2.1A1.047,1.047,0,0,1,4.734,57.287Z" transform="translate(-0.529 -0.529)"/>
    </g>
  </g>
</svg>
