<svg xmlns="http://www.w3.org/2000/svg" width="100" height="100" viewBox="0 0 100 100">
  <g id="Grupo_1202159" data-name="Grupo 1202159" transform="translate(0 0)">
    <rect id="Rectángulo_409765" data-name="Rectángulo 409765" width="100" height="100" transform="translate(0 0)" fill="none"/>
    <g id="Grupo_1201543" data-name="Grupo 1201543" transform="translate(13.673 17.338)">
      <path id="Trazado_877518" data-name="Trazado 877518" d="M10.445,39.718C16.618,34.807,23.475,33,30.827,34.345a28.945,28.945,0,0,1,4.538,1.228c8.7.227,14.052,3.672,17.015,6.533a19.508,19.508,0,0,1,4.279,5.957c4.151,1.523,6.74,5.472,8.225,7.739a31.56,31.56,0,0,0,3.477,4.4l12.63,13.338A7.775,7.775,0,0,1,83.083,77.9a4.975,4.975,0,0,1-1.122,4.109c-.07.076-.143.147-.217.217a5.854,5.854,0,0,1-2.1,3.5,7.837,7.837,0,0,1-5,1.5,16.012,16.012,0,0,1-2.691-.246c-.25-.037-3.39-.515-6.553-1.326-.086.29-.163.54-.23.758C64.681,88,64.618,88.206,64.1,93.21a.893.893,0,0,1-.88.8.914.914,0,0,1-.769-.427l-.9-1.379-.541,3.757a.892.892,0,0,1-1.641.342,20.079,20.079,0,0,1-1.928-4.454,11.816,11.816,0,0,1-.008-7.65l-6.582-.666c-.025.077-.051.153-.078.228a5.815,5.815,0,0,0,.32,5.3,2.149,2.149,0,0,1,.119,2.1A2.191,2.191,0,0,1,49.458,92.4a14.215,14.215,0,0,1-2.96-.007l-.832,2.91-.006.019a6.558,6.558,0,0,1-9.184,3.929L17.2,89.672a6.561,6.561,0,0,1-1.783-10.451L29.351,64.9a19.455,19.455,0,0,1,6.205-13.336,20.31,20.31,0,0,1,4.528-3.172,28.626,28.626,0,0,0-6.819-4.589c-.18-.087-.366-.174-.554-.261a40,40,0,0,0-5.771-.336c-4.272.058-7.8.828-10.208,2.225a.892.892,0,0,1-1.125-.19.93.93,0,0,1-.123-.979,9.463,9.463,0,0,1,2.688-3.452,36.079,36.079,0,0,0-6.662.968,1.224,1.224,0,0,1-1.385-.6,1.176,1.176,0,0,1,.319-1.461Zm40.632,3.609a21.14,21.14,0,0,0-10.566-5.394,36.779,36.779,0,0,1,3.218,2.037A27.258,27.258,0,0,1,50.6,46.609a11.052,11.052,0,0,1,2.029.468,9.906,9.906,0,0,0,1.741.428A18.837,18.837,0,0,0,51.076,43.328Zm30.247,35.89a4.678,4.678,0,0,0-.011-1.1,5.753,5.753,0,0,0-.732-2.16,1.641,1.641,0,0,0-1.147-.437c-.342.068-.618.454-.791.765a.644.644,0,0,0-.045.527.59.59,0,0,0,.337.355A5.451,5.451,0,0,1,81.324,79.218ZM59.667,92.812l.462-3.207a.892.892,0,0,1,1.63-.359l.834,1.282A18.971,18.971,0,0,1,63.46,85.9c.063-.207.135-.441.216-.711a20.192,20.192,0,0,0-3.634-.721l-.746-.076C57.953,87.18,58.781,90.55,59.667,92.812Zm-22.9-39.937a17.554,17.554,0,0,0-5.657,12.456c-.126,2.541-1.337,4.61-2.619,6.8a28.786,28.786,0,0,0-3.012,6.4.892.892,0,0,1-.853.634.9.9,0,0,1-.367-.079.917.917,0,0,1-.476-1.109,30.336,30.336,0,0,1,3.168-6.743A30.84,30.84,0,0,0,28.535,68.3L16.755,80.4a4.868,4.868,0,0,0-1.361,4.1,4.732,4.732,0,0,0,2.6,3.575L37.27,97.65A4.777,4.777,0,0,0,43.954,94.8l.776-2.713a15.186,15.186,0,0,1-8.677-5.969,11.449,11.449,0,0,1-2.216-8.307,19.8,19.8,0,0,0-.524-8.349c-1.9-5.476.6-8.584.71-8.714A.892.892,0,0,1,35.4,61.879c-.081.1-1.953,2.52-.4,7a21.541,21.541,0,0,1,.609,9.146,9.673,9.673,0,0,0,1.869,7.019c4.135,5.484,9.168,5.85,11.8,5.579a.415.415,0,0,0,.336-.236.369.369,0,0,0-.018-.369,7.531,7.531,0,0,1-.5-6.855c1.736-4.86-.417-13.983-1.791-16.533a14.664,14.664,0,0,0-3.521-4.591.892.892,0,1,1,1.045-1.446,15.947,15.947,0,0,1,4.047,5.191c1.293,2.4,3.391,10.312,2.408,16l8.936.9a22.013,22.013,0,0,1,4.07.818,67.916,67.916,0,0,0,7.929,1.717l.019,0c2.8.481,4.911.186,6.271-.876a3.976,3.976,0,0,0,.9-.977,6.6,6.6,0,0,1-1.256.117q-.154,0-.312-.006a19.3,19.3,0,0,1-4.625-1.426A7.779,7.779,0,0,0,68.8,80.991a.9.9,0,1,1-.226-1.78A9.68,9.68,0,0,1,74,80.457,18.852,18.852,0,0,0,77.911,81.7a3.707,3.707,0,0,0,2.424-.622,4.433,4.433,0,0,0-2.071-2.26,2.381,2.381,0,0,1-1.348-1.412,2.43,2.43,0,0,1,.166-1.986,3.125,3.125,0,0,1,1.736-1.58L67.066,61.432a33.35,33.35,0,0,1-3.674-4.65c-2.169-3.313-4.84-6.9-9.089-7.48a11.72,11.72,0,0,1-2.261-.539,8.952,8.952,0,0,0-4.916-.225,14.879,14.879,0,0,1-3.344.8l-1.937.214a17.642,17.642,0,0,0-5.077,3.326ZM26.28,41.432a31.407,31.407,0,0,0-4.827-.619,10.743,10.743,0,0,0-2.574,1.757,27.62,27.62,0,0,1,7.4-1.138Zm7.842.807a29.07,29.07,0,0,1,7.853,5.5l1.611-.178a13.133,13.133,0,0,0,2.945-.706,6.743,6.743,0,0,1,1.789-.341A32.331,32.331,0,0,0,30.506,36.1a22.368,22.368,0,0,0-16.7,3.394A33.24,33.24,0,0,1,34.122,42.238Z" transform="translate(-9.996 -33.914)" fill="#12263f"/>
      <path id="Trazado_877519" data-name="Trazado 877519" d="M187.458,212.245a2.315,2.315,0,1,1-2.315,2.315A2.315,2.315,0,0,1,187.458,212.245Zm0,2.846a.531.531,0,1,0-.532-.531A.531.531,0,0,0,187.458,215.091Z" transform="translate(-142.67 -185.735)" fill="#12263f"/>
    </g>
  </g>
</svg>
