<svg xmlns="http://www.w3.org/2000/svg" width="89.428" height="91.86" viewBox="0 0 89.428 91.86">
  <g id="Grupo_1202497" data-name="Grupo 1202497" transform="translate(0)">
    <g id="Grupo_1188468" data-name="Grupo 1188468" transform="translate(0 1.699)">
      <path id="Rectángulo_402603" data-name="Rectángulo 402603" d="M89.428,0h0a0,0,0,0,1,0,0V90.161a0,0,0,0,1,0,0H0a0,0,0,0,1,0,0v-.733A89.428,89.428,0,0,1,89.428,0Z" fill="#fdaa30"/>
      <g id="Grupo_1202619" data-name="Grupo 1202619" transform="translate(12.661 10.882)">
        <path id="Trazado_876716" data-name="Trazado 876716" d="M1624.947,1902.55c-2.7,1.949-6.03,4.288-9.257,6.73C1620.041,1905.7,1623.928,1902.9,1624.947,1902.55Z" transform="translate(-1588.085 -1860.578)" fill="none"/>
        <path id="Trazado_876720" data-name="Trazado 876720" d="M276.468,92.837h.741a.7.7,0,1,0,0-1.4h-.741a.7.7,0,1,0,0,1.4Z" transform="translate(-223.677 -88.165)"/>
        <g id="Grupo_1189381" data-name="Grupo 1189381" transform="translate(0 0)">
          <path id="Trazado_876726" data-name="Trazado 876726" d="M276.468,92.837h.741a.7.7,0,1,0,0-1.4h-.741a.7.7,0,1,0,0,1.4Z" transform="translate(-223.677 -88.165)"/>
          <path id="Trazado_876727" data-name="Trazado 876727" d="M1325.644,1407.193a.7.7,0,0,0,.465-.178c2.475-2.215,3.7-7.608,4.883-12.823.116-.513.233-1.025.349-1.531a.7.7,0,0,0-1.361-.314c-.117.507-.234,1.021-.35,1.536-1.135,5-2.309,10.174-4.453,12.092a.7.7,0,0,0,.466,1.219Z" transform="translate(-1284.086 -1368.124)"/>
          <path id="Trazado_876728" data-name="Trazado 876728" d="M1971.768,2329.63a.7.7,0,0,0,.625-1.018c-.307-.615-3.246-3.6-4.478-4.012-.334-.111-1.024-.421-1.755-.748l-.3-.135a.7.7,0,0,0-.57,1.275l.3.134c.8.357,1.485.666,1.885.8a16.65,16.65,0,0,1,3.677,3.324A.687.687,0,0,0,1971.768,2329.63Z" transform="translate(-1948.11 -2266.604)"/>
          <path id="Trazado_876729" data-name="Trazado 876729" d="M1043.4,1148.807a.7.7,0,0,0,.614-.364c1.163-2.135,3.781-3.9,6.553-5.77,1.084-.731,2.2-1.487,3.253-2.279,3.371-2.547,9.4-9.282,11.242-16.515,1.845-7.263,1.79-10.161-.367-19.382a9.622,9.622,0,0,1-.25-1.73.7.7,0,0,0-.556-.648,7.237,7.237,0,0,0-1.344-.149.7.7,0,1,0-.023,1.4c.191,0,.382.016.572.038a11.01,11.01,0,0,0,.241,1.414c2.113,9.034,2.166,11.658.373,18.717-1.658,6.52-7.273,13.132-10.73,15.744-1.019.77-2.124,1.515-3.192,2.235-2.917,1.967-5.673,3.825-7,6.26a.7.7,0,0,0,.613,1.032Z" transform="translate(-1009.001 -1088.668)"/>
          <path id="Trazado_876730" data-name="Trazado 876730" d="M1770.776,1599.434a.7.7,0,0,0,.477-.188c10.487-9.787,18.431-25.819,18.51-25.979a.7.7,0,0,0-.627-1.006,28.5,28.5,0,0,0-10.613,2.717c-5.531,2.465-13.528,7.741-20.214,18.877a.7.7,0,0,0-.095.281c-.076.671-.124,1.347-.144,2.009a.7.7,0,0,0,.8.712,37.1,37.1,0,0,0,6.6-1.513c.028,1.513.243,3.038.939,3.5.241.16.742.494,4.353.589Zm17.171-25.69c-1.956,3.727-8.816,16.141-17.439,24.286a12.188,12.188,0,0,1-3.3-.336,9.864,9.864,0,0,1-.332-3.479.7.7,0,0,0-1.14-.565c-.779.636-3.94,1.322-6.226,1.7.02-.3.046-.6.078-.9,6.461-10.7,14.129-15.779,19.435-18.157A30.427,30.427,0,0,1,1787.947,1573.744Z" transform="translate(-1758.07 -1542.116)"/>
          <path id="Trazado_876731" data-name="Trazado 876731" d="M859.629,816.624a11.429,11.429,0,0,0-4.274,1.069.7.7,0,0,0-.264,1.09,9.465,9.465,0,0,0,3.01,2.282.7.7,0,0,0,.595-.006,13.691,13.691,0,0,1,3.728-1.166.7.7,0,0,0,.347-1.238c-.053-.042-1.311-1.048-2.54-1.9a.7.7,0,0,0-.367-.124C859.79,816.626,859.712,816.624,859.629,816.624Zm-2.751,1.973a8.509,8.509,0,0,1,2.728-.576c.383.27.768.553,1.109.81a15.267,15.267,0,0,0-2.317.825A7.877,7.877,0,0,1,856.878,818.6Z" transform="translate(-798.927 -813.54)"/>
          <path id="Trazado_876732" data-name="Trazado 876732" d="M1062.923,745.108a.7.7,0,0,0,.618-.373l.022-.042c3.557-6.741,6.629-12.564,10.769-12.781a12.282,12.282,0,0,1,4.191.425.7.7,0,0,0,.4-1.339,13.646,13.646,0,0,0-4.662-.481c-4.932.26-8.176,6.407-11.931,13.524l-.022.042a.7.7,0,0,0,.617,1.024Z" transform="translate(-1022.739 -730.492)"/>
          <path id="Trazado_876733" data-name="Trazado 876733" d="M1320.927,1106.859a13.578,13.578,0,0,0,10.944-5.416.7.7,0,0,0-1.09-.874,12.284,12.284,0,0,1-10.542,4.874,9.751,9.751,0,0,0,4.668-4.111l.354-.672a.7.7,0,1,0-1.235-.652l-.355.672c-1.005,1.9-2.906,3.229-6.355,4.438a.7.7,0,0,0,.077,1.34A16.115,16.115,0,0,0,1320.927,1106.859Z" transform="translate(-1284.46 -1086.417)"/>
          <path id="Trazado_876734" data-name="Trazado 876734" d="M927.367,758.152a.7.7,0,0,0,.7-.732c-.138-2.911,1.317-5.126,4.326-6.583a.7.7,0,0,0-.014-1.263,7.584,7.584,0,0,1-1.806-1.2,7.9,7.9,0,0,1,2.924-.573.7.7,0,0,0,.43-1.271,16.1,16.1,0,0,0-1.389-.882c-.187-.1-.385-.223-.6-.355a12.632,12.632,0,0,0-3.131-1.47.7.7,0,1,0-.4,1.339,11.26,11.26,0,0,1,2.8,1.324l.265.161a15.745,15.745,0,0,0-2.423.824.7.7,0,0,0-.264,1.09,9.586,9.586,0,0,0,1.868,1.638,7.782,7.782,0,0,0-3.984,6.447,7.047,7.047,0,0,0-1.245,0,.7.7,0,0,0,.128,1.391,5.656,5.656,0,0,1,1.674.1A.7.7,0,0,0,927.367,758.152Z" transform="translate(-872.621 -743.318)"/>
          <path id="Trazado_876735" data-name="Trazado 876735" d="M1334.2,1163.014a.7.7,0,0,0,.285-1.336,11.193,11.193,0,0,0-3.226-1.169h-.112c9.872-9.841,17.2-24.638,17.28-24.793a.7.7,0,0,0-.627-1.006,28.5,28.5,0,0,0-10.613,2.718c-5.022,2.238-12.075,6.792-18.336,15.946,1.147-4.879,3.933-11.345,10.334-18.486,4.992-5.568,11.273-7.411,16.815-9.038,1.362-.4,2.651-.778,3.864-1.2a16.085,16.085,0,0,0,3.333.356,13.583,13.583,0,0,0,10.947-5.415.7.7,0,0,0-1.089-.874,12.553,12.553,0,0,1-13.08,4.527.7.7,0,0,0-.384.022c-1.233.432-2.569.824-3.984,1.239-5.437,1.6-12.2,3.582-17.462,9.446-8.259,9.214-10.686,17.393-11.268,22.632a.7.7,0,0,0,1.293.437c6.477-10.788,14.187-15.9,19.513-18.288a30.425,30.425,0,0,1,8.928-2.542c-1.971,3.756-8.926,16.342-17.648,24.482a.7.7,0,0,0,.458,1.208c.852.022,1.571.022,1.837.022a18.975,18.975,0,0,1,2.656,1.048A.7.7,0,0,0,1334.2,1163.014Z" transform="translate(-1316.731 -1104.566)"/>
          <path id="Trazado_876736" data-name="Trazado 876736" d="M1319.844,1383.282a.7.7,0,0,0,.465-.178c2.474-2.214,3.7-7.6,4.881-12.817.186-.818.37-1.63.558-2.423a.7.7,0,1,0-1.359-.322c-.189.8-.374,1.613-.561,2.435-1.135,5-2.308,10.168-4.451,12.085a.7.7,0,0,0,.466,1.219Z" transform="translate(-1278.286 -1344.212)"/>
          <path id="Trazado_876737" data-name="Trazado 876737" d="M1151,1268.066a.7.7,0,0,0,.7-.67,12,12,0,0,0-1.4-5.005.7.7,0,0,0-1.234.655,10.788,10.788,0,0,1,1.236,4.294.7.7,0,0,0,.669.726Z" transform="translate(-1098.126 -1242.986)"/>
          <path id="Trazado_876738" data-name="Trazado 876738" d="M1203.86,1468.006a.7.7,0,0,0,.7-.67,12,12,0,0,0-1.4-5.006.7.7,0,0,0-1.234.655,10.791,10.791,0,0,1,1.236,4.294.7.7,0,0,0,.669.726Z" transform="translate(-1152.879 -1435.766)"/>
          <path id="Trazado_876739" data-name="Trazado 876739" d="M1406.015,1332.623a.7.7,0,0,0,.588-.32,15.953,15.953,0,0,0,1.789-5.12.7.7,0,0,0-1.378-.227,14.8,14.8,0,0,1-1.585,4.591.7.7,0,0,0,.586,1.077Z" transform="translate(-1364.005 -1305.033)"/>
          <path id="Trazado_876740" data-name="Trazado 876740" d="M1503.685,1615.523a.7.7,0,0,0,.426-.145,8.626,8.626,0,0,0,2.475-4.349.7.7,0,0,0-1.362-.31,7.334,7.334,0,0,1-1.965,3.552.7.7,0,0,0,.427,1.252Z" transform="translate(-1465.704 -1578.674)"/>
          <path id="Trazado_876741" data-name="Trazado 876741" d="M1824.264,2021.143a.7.7,0,0,0,.426-.145,8.626,8.626,0,0,0,2.475-4.349.7.7,0,0,0-1.362-.31,7.336,7.336,0,0,1-1.966,3.552.7.7,0,0,0,.426,1.252Z" transform="translate(-1797.764 -1969.769)"/>
          <path id="Trazado_876742" data-name="Trazado 876742" d="M1787.495,2167.063a.7.7,0,0,0,.426-.145,8.628,8.628,0,0,0,2.475-4.349.7.7,0,0,0-1.362-.31,7.333,7.333,0,0,1-1.965,3.552.7.7,0,0,0,.427,1.251Z" transform="translate(-1759.678 -2110.463)"/>
          <path id="Trazado_876743" data-name="Trazado 876743" d="M1565.734,1432.138a.7.7,0,0,0,.557-.277,15.116,15.116,0,0,0,1.813-4.677.7.7,0,0,0-1.365-.3,13.554,13.554,0,0,1-1.561,4.129.7.7,0,0,0,.556,1.12Z" transform="translate(-1529.443 -1401.42)"/>
          <path id="Trazado_876744" data-name="Trazado 876744" d="M1681.783,1759.719a.7.7,0,0,0,.6-.339c.761-1.264,2.194-4.456,2.255-4.592a.7.7,0,1,0-1.274-.571c-.015.032-1.46,3.25-2.177,4.443a.7.7,0,0,0,.6,1.058Z" transform="translate(-1650.177 -1717.16)"/>
          <path id="Trazado_876745" data-name="Trazado 876745" d="M1577.193,1868.879a.7.7,0,0,0,.6-.339c.761-1.264,2.194-4.456,2.255-4.592a.7.7,0,1,0-1.274-.571c-.014.032-1.459,3.25-2.177,4.443a.7.7,0,0,0,.6,1.058Z" transform="translate(-1541.842 -1822.411)"/>
          <path id="Trazado_876746" data-name="Trazado 876746" d="M548.139,1606.729a.7.7,0,0,0,.018-1.4l-10.334-.276-4.465-11.378a.7.7,0,0,0-1.3.51L536.692,1606a.7.7,0,0,0,.631.443l10.8.288Z" transform="translate(-503.783 -1536.181)"/>
          <path id="Trazado_876747" data-name="Trazado 876747" d="M693.4,1845.174a.7.7,0,0,0,.593-1.066l-1.715-2.771,4.651-2.024a.7.7,0,0,0-.557-1.281l-5.391,2.345a.7.7,0,0,0-.315,1.008l2.14,3.456A.7.7,0,0,0,693.4,1845.174Z" transform="translate(-657.976 -1772.157)"/>
          <path id="Trazado_876748" data-name="Trazado 876748" d="M867.831,1671.106a.7.7,0,0,0,.135-1.383l-7.96-1.582-.285-5.3a.7.7,0,0,0-1.395.075l.314,5.842a.7.7,0,0,0,.561.647l8.492,1.688A.709.709,0,0,0,867.831,1671.106Z" transform="translate(-835.16 -1602.656)"/>
          <path id="Trazado_876749" data-name="Trazado 876749" d="M957.473,1801.945a.7.7,0,0,0,.651-.952l-1.26-3.238,4.219-.9a.7.7,0,0,0-.291-1.366l-5.022,1.069a.7.7,0,0,0-.505.936l1.558,4A.7.7,0,0,0,957.473,1801.945Z" transform="translate(-931.736 -1731.179)"/>
          <path id="Trazado_876750" data-name="Trazado 876750" d="M1095.738,1832.653a.7.7,0,0,0,.436-.153l1.646-1.317a.7.7,0,1,0-.873-1.09l-1.646,1.317a.7.7,0,0,0,.437,1.244Z" transform="translate(-1073.19 -1764.409)"/>
        </g>
      </g>
    </g>
    <path id="Trazado_874774" data-name="Trazado 874774" d="M9.525,0c.063,0,.127,0,.191.006a3.2,3.2,0,0,1,1.911.809A2.786,2.786,0,0,1,12.606,2.9a13.241,13.241,0,0,1,.082,1.88V6.7h3.935A2.479,2.479,0,0,1,18.8,7.819a3.446,3.446,0,0,1,.552,1.894,3.251,3.251,0,0,1-.575,1.888,2.466,2.466,0,0,1-2.152,1.039H12.688v2.089a15.714,15.714,0,0,1-.082,2.026,2.532,2.532,0,0,1-1.064,2.082,3.207,3.207,0,0,1-3.8,0,2.549,2.549,0,0,1-1.065-2.182V12.639H3.06a2.983,2.983,0,0,1-2.4-.947,2.716,2.716,0,0,1-.637-2.12A3.485,3.485,0,0,1,.863,7.686,2.8,2.8,0,0,1,3.06,6.7H6.673V3.011A2.775,2.775,0,0,1,7.738.589,3.025,3.025,0,0,1,9.525,0ZM16.78,9.125a.574.574,0,0,0-.157-.017H10.285V4.777a10.427,10.427,0,0,0-.057-1.53L10.2,3.13V3.011a.411.411,0,0,0-.142-.372.816.816,0,0,0-.5-.235H9.525a.624.624,0,0,0-.376.132,1.085,1.085,0,0,0-.072.476v6.1H3.06a.411.411,0,0,0-.372.142,1.1,1.1,0,0,0-.281.6.322.322,0,0,0,.085.287,1.114,1.114,0,0,0,.567.1H9.077v6.418c0,.184.038.211.059.226a.808.808,0,0,0,1.011,0c.02-.015.059-.042.059-.226v-.1l.016-.1a12.922,12.922,0,0,0,.064-1.729V10.236h6.338a.658.658,0,0,0,.187-.02.878.878,0,0,0,.136-.5A1.051,1.051,0,0,0,16.78,9.125Z" transform="translate(29.707 13.196) rotate(-43)" fill="#1944b6"/>
  </g>
</svg>
