<svg id="Grupo_1189234" data-name="Grupo 1189234" xmlns="http://www.w3.org/2000/svg" width="81.504" height="92.173" viewBox="0 0 81.504 92.173">
  <g id="Grupo_1188468" data-name="Grupo 1188468" transform="translate(0 10.001)">
    <path id="Trazado_878298" data-name="Trazado 878298" d="M0,0V82.172H81.5V81.5A81.5,81.5,0,0,0,0,0Z" fill="#7395eb"/>
    <g id="Grupo_1189235" data-name="Grupo 1189235" transform="translate(10.145 12.999)">
      <g id="Grupo_1189236" data-name="Grupo 1189236" transform="translate(43.47 8.505)">
        <g id="Grupo_1189235-2" data-name="Grupo 1189235">
          <path id="Trazado_876555" data-name="Trazado 876555" d="M81.045,95.021a.884.884,0,0,1,.884.884v.945a1.951,1.951,0,0,0,3.9,0v-.945a1.953,1.953,0,0,0-1.951-1.951.884.884,0,0,1,0-1.768A3.723,3.723,0,0,1,87.6,95.905v.945a3.719,3.719,0,0,1-7.438,0v-.945A.884.884,0,0,1,81.045,95.021Z" transform="translate(-80.161 -92.186)"/>
        </g>
      </g>
      <g id="Grupo_1189238" data-name="Grupo 1189238" transform="translate(14.844 29.02)">
        <g id="Grupo_1189237" data-name="Grupo 1189237">
          <path id="Trazado_876556" data-name="Trazado 876556" d="M363.456,266.429a.884.884,0,0,1,1.249.067c.278.309.575.614.884.907a.884.884,0,1,1-1.216,1.284c-.343-.325-.674-.664-.983-1.009A.884.884,0,0,1,363.456,266.429Z" transform="translate(-363.162 -266.203)"/>
        </g>
      </g>
      <g id="Grupo_1189240" data-name="Grupo 1189240" transform="translate(0 0)">
        <g id="Grupo_1189239" data-name="Grupo 1189239">
          <path id="Trazado_876557" data-name="Trazado 876557" d="M.394,47.608a.884.884,0,0,1,1.019.027,12.611,12.611,0,0,0,6.765,2.19q-.712-.9-1.4-1.88a.884.884,0,0,1,.569-1.38,63.572,63.572,0,0,0,10.72-3.058c8.5-3.352,10.285-6.936,10.285-9.353a14.115,14.115,0,0,1,28.162-1.378L60.1,36.364a.884.884,0,0,1-.342,1.463l-4.127,1.4A14.121,14.121,0,0,1,53.6,42.807a1.929,1.929,0,0,0-.362,1.213,25.058,25.058,0,0,1-7.024,17.893,23.159,23.159,0,0,1-5.839,4.312L44.179,68.8l4.467-2.509a.884.884,0,0,1,.866,1.542L42.1,72a.884.884,0,0,1-.866-1.542l1.225-.688L38.5,67.093a27.224,27.224,0,0,1-10.394,1.98l-.69,4.833h4.652a.884.884,0,0,1,0,1.768h-7.56a.884.884,0,0,1,0-1.768h1.121l.7-4.88a30.273,30.273,0,0,1-16.3-5.8A26.419,26.419,0,0,1,.027,48.558.884.884,0,0,1,.394,47.608ZM54.77,36.646a4.491,4.491,0,0,0,.134.957l2.939-.995L55.632,34.4A2.911,2.911,0,0,0,54.77,36.646ZM11.086,61.809a28.6,28.6,0,0,0,16.947,5.5c6.792,0,12.643-2.294,16.921-6.634a23.28,23.28,0,0,0,6.515-16.626A3.644,3.644,0,0,1,52.2,41.72a12.393,12.393,0,0,0,1.479-2.427.883.883,0,0,1-.121-.183,5.216,5.216,0,0,1,1.177-6.287,12.346,12.346,0,0,0-24.62,1.331c0,2.431-1.25,4.7-3.716,6.743a28.569,28.569,0,0,1-7.712,4.264,64.246,64.246,0,0,1-9.663,2.871,27.969,27.969,0,0,0,10.017,8.69,16.382,16.382,0,0,0,10.033,1.5,14.4,14.4,0,0,0,3.894-1.3,15.742,15.742,0,0,1-2.851.254,21.214,21.214,0,0,1-10.882-3.189.884.884,0,0,1,.928-1.505c4.46,2.75,10.139,3.663,14.132,2.273a7.549,7.549,0,0,0,4.622-4.1,8.78,8.78,0,0,0,.3-.94,7.79,7.79,0,0,0-2.988-8.254.884.884,0,1,1,1.119-1.369,9.59,9.59,0,0,1,3.581,10.064c-1.244,4.831-5.882,8.773-11.539,9.808a16.656,16.656,0,0,1-3,.271,18.82,18.82,0,0,1-8.112-1.91,27.682,27.682,0,0,1-8.7-6.811,13.055,13.055,0,0,1-7.207-1.286A24.961,24.961,0,0,0,11.086,61.809Z" transform="translate(0 -20.04)"/>
        </g>
      </g>
    </g>
  </g>
  <path id="Trazado_874774" data-name="Trazado 874774" d="M8.681,17.737c.058,0,.116,0,.174-.005a2.92,2.92,0,0,0,1.742-.737,2.539,2.539,0,0,0,.893-1.9,12.068,12.068,0,0,0,.075-1.714V11.626H15.15a2.259,2.259,0,0,0,1.982-1.015,3.141,3.141,0,0,0,.5-1.726,2.963,2.963,0,0,0-.524-1.721,2.248,2.248,0,0,0-1.961-.947H11.564v-1.9a14.322,14.322,0,0,0-.074-1.846A2.308,2.308,0,0,0,10.52.57a2.923,2.923,0,0,0-3.467,0,2.323,2.323,0,0,0-.971,1.988V6.217H2.789A2.719,2.719,0,0,0,.6,7.08,2.475,2.475,0,0,0,.019,9.013a3.176,3.176,0,0,0,.768,1.719,2.554,2.554,0,0,0,2,.894H6.082v3.367A2.529,2.529,0,0,0,7.053,17.2,2.757,2.757,0,0,0,8.681,17.737ZM15.293,9.42a.523.523,0,0,1-.143.015H9.374v3.948a9.5,9.5,0,0,1-.052,1.394l-.021.106v.108a.374.374,0,0,1-.13.339.744.744,0,0,1-.453.214H8.681a.568.568,0,0,1-.343-.12.989.989,0,0,1-.066-.434V9.436H2.789a.374.374,0,0,1-.339-.13,1,1,0,0,1-.256-.549A.294.294,0,0,1,2.272,8.5a1.015,1.015,0,0,1,.517-.088H8.272V2.558c0-.168.035-.193.053-.206a.737.737,0,0,1,.921,0c.019.013.053.038.053.206v.091l.015.089a11.777,11.777,0,0,1,.058,1.575V8.408H15.15a.6.6,0,0,1,.17.018.8.8,0,0,1,.124.459A.958.958,0,0,1,15.293,9.42Z" transform="translate(24.384 24.999) rotate(-137)" fill="#1a8a64"/>
</svg>
