<svg xmlns="http://www.w3.org/2000/svg" width="504.949" height="281.417" viewBox="0 0 504.949 281.417">
  <g id="Grupo_1202339" data-name="Grupo 1202339" transform="translate(-180.051 -5495.583)">
    <rect id="un-conejo-esta-siendo-sostenido-por-un-medico-y-esta-usando-guantes" width="504.949" height="281.417" rx="10" transform="translate(180.051 5495.583)" fill="#fedba6"/>
    <g id="Grupo_1202338" data-name="Grupo 1202338" transform="translate(2089.016 11807.551)">
      <g id="Grupo_1202332" data-name="Grupo 1202332" transform="translate(-1908.965 -6311.967)">
        <g id="Grupo_1202110" data-name="Grupo 1202110" transform="translate(0 0)">
          <path id="Rectángulo_409730" data-name="Rectángulo 409730" d="M0,0H106.485a0,0,0,0,1,0,0V78.892a0,0,0,0,1,0,0H78.892A78.892,78.892,0,0,1,0,0V0A0,0,0,0,1,0,0Z" transform="translate(0 202.525)" fill="#fdaa30"/>
          <path id="Rectángulo_409731" data-name="Rectángulo 409731" d="M0,0H106.485a0,0,0,0,1,0,0V0A78.892,78.892,0,0,1,27.594,78.892H0a0,0,0,0,1,0,0V0A0,0,0,0,1,0,0Z" transform="translate(0 123.633)" fill="#fdbab3"/>
          <path id="Rectángulo_409959" data-name="Rectángulo 409959" d="M0,0H106.485a0,0,0,0,1,0,0V0A78.892,78.892,0,0,1,27.594,78.892H0a0,0,0,0,1,0,0V0A0,0,0,0,1,0,0Z" transform="translate(398.464)" fill="#ffa622"/>
          <path id="Rectángulo_409732" data-name="Rectángulo 409732" d="M0,0H27.594a78.892,78.892,0,0,1,78.892,78.892v0a0,0,0,0,1,0,0H0a0,0,0,0,1,0,0V0A0,0,0,0,1,0,0Z" transform="translate(106.485 202.525)" fill="#26c790"/>
          <path id="Rectángulo_409733" data-name="Rectángulo 409733" d="M78.892,0h27.594a0,0,0,0,1,0,0V78.892a0,0,0,0,1,0,0H0a0,0,0,0,1,0,0v0A78.892,78.892,0,0,1,78.892,0Z" transform="translate(106.485 119.863)" fill="#f3f9ff"/>
          <path id="Rectángulo_409960" data-name="Rectángulo 409960" d="M78.892,0h27.594a0,0,0,0,1,0,0V78.892a0,0,0,0,1,0,0H0a0,0,0,0,1,0,0v0A78.892,78.892,0,0,1,78.892,0Z" transform="translate(291.978 0)" fill="#26c790"/>
        </g>
      </g>
    </g>
    <g id="Grupo_1202337" data-name="Grupo 1202337" transform="translate(-1430.068 3983.325)">
      <path id="Trazado_1036933" data-name="Trazado 1036933" d="M1848.271,1879.839a3.014,3.014,0,0,0,2.643,1.409,23.917,23.917,0,0,0,4.409.071,3.181,3.181,0,0,0,.872.616,9.61,9.61,0,0,0,4.059.614c1.549.025,3.1.046,4.647.054,10.762.051,21.994-.626,31.82-5.439a30.152,30.152,0,0,0,3.417-1.9,3.693,3.693,0,0,0,1.88-2.9,10.678,10.678,0,0,0-.91-3.9,36.517,36.517,0,0,0-1.524-3.862,13.8,13.8,0,0,0-8-7.74,3.6,3.6,0,0,0-1.557-.187,6.766,6.766,0,0,0-2.4.181q-.523.054-1.046.114-2.425.28-4.841.628-4.558.654-9.073,1.56a53.735,53.735,0,0,0-8.51,2.089,11.975,11.975,0,0,0-4.273,2.767,12.647,12.647,0,0,0-3.422,1.33c-4.184,2.4-6.168,6.966-7.846,11.254C1848.221,1877.61,1847.764,1878.777,1848.271,1879.839Z" transform="translate(0 -114.212)" fill="#c9684a"/>
      <path id="Trazado_1036934" data-name="Trazado 1036934" d="M2236.625,1832.007a8.117,8.117,0,0,0,5.592,3.365,14.984,14.984,0,0,0,3.114,1.34,18.5,18.5,0,0,0,20-6.97c.388-.565-.389-1.354-.956-.956a1.766,1.766,0,0,1-1.249.34,26.745,26.745,0,0,0,6.569-21.678.628.628,0,0,0-.918-.373l-1.564,1.012a26.581,26.581,0,0,0-7.259-17.558.644.644,0,0,0-1.084.449c-.569,4.326-4.076,7.452-7.6,9.605-3.5,2.134-7.752,3.252-10.345,6.615a23.556,23.556,0,0,0-3,5.739,50.457,50.457,0,0,0-2.2,6.885C2234.787,1823.715,2234.118,1828.526,2236.625,1832.007Z" transform="translate(-167.276 -85.542)" fill="#c9684a"/>
      <path id="Trazado_1036935" data-name="Trazado 1036935" d="M1914.573,1608.073a143.472,143.472,0,0,0,4.155,13.834,146.754,146.754,0,0,0,10.674,23.379,126.165,126.165,0,0,0,6.765,10.782c2.088,2.938,4.815,5.6,8.668,5.512a11.359,11.359,0,0,0,8.586-4.752,15.754,15.754,0,0,0,2.734-8.925,26.361,26.361,0,0,0,.207-5.882c-.785-10.461-7.452-19.241-14.508-26.5a141.053,141.053,0,0,0-25.743-20.865.746.746,0,0,0-1.008.264C1912.761,1598.938,1913.52,1603.773,1914.573,1608.073Z" transform="translate(-28.331 -0.88)" fill="#c9684a"/>
      <path id="Trazado_1036936" data-name="Trazado 1036936" d="M1902.691,1715.291a28.545,28.545,0,0,0,1.244,6.033,12.648,12.648,0,0,0,3.918,5.929l.147.119c.062.052.127.1.192.149a11.878,11.878,0,0,0,2.089,1.285,20.9,20.9,0,0,0,3.122,1.2c-.4.524-.754,1.076-1.085,1.591-.12.185-.236.373-.347.562a22.049,22.049,0,0,0-1.765,3.794,16.175,16.175,0,0,0-1.058,4.223,4.113,4.113,0,0,0,1.693,3.473,33.127,33.127,0,0,1,5.6,6.194,31.968,31.968,0,0,1,3.164,5.87q.347.841.642,1.7a32.026,32.026,0,0,1,1.1,4.078c.14.7.26,1.407.346,2.119.043.341.049.7.114,1.034a7.435,7.435,0,0,0,.353.964.494.494,0,0,0,.882.111,5.554,5.554,0,0,0,.579,1.017.373.373,0,0,0,.646.373.541.541,0,0,0,.415-.543c.4-.518.821-1.026,1.261-1.51,4.806-5.3,12.028-7.417,18.9-8.379a94.221,94.221,0,0,1,11.014-.834,70.33,70.33,0,0,1,11.583.588,40.123,40.123,0,0,1,10.95,3.044,29.583,29.583,0,0,1,9.1,6.569,16.094,16.094,0,0,0,4.67,3.764,10.546,10.546,0,0,0,5.992.689,24.546,24.546,0,0,0,6.221-1.991c1.178-.518,2.344-1.064,3.486-1.659.678-.354,1.348-.724,2.008-1.117.474-.281.943-.578,1.4-.886a44.36,44.36,0,0,0,6.68-.093,33.769,33.769,0,0,0,7.249-1.262c.217-.069.433-.145.648-.223l2.534.031c11.184.137,22.377.425,33.563.373,9.948-.046,20.24-.791,29.3-5.268a41.939,41.939,0,0,0,18.229-18.416A53.835,53.835,0,0,0,2115,1711.54a71.792,71.792,0,0,0-1.936-12.332q-.416-1.7-.91-3.385a67.707,67.707,0,0,0-5.891-14.4c-4.81-8.476-12.42-14.844-20.983-19.319a72.39,72.39,0,0,0-28.959-8,76.335,76.335,0,0,0-29.153,4.152c-9.217,3.1-17.979,7.352-26.969,11.028a107.16,107.16,0,0,1-23.641,6.979,17.6,17.6,0,0,1-2.7-4.463c-.23-.592-.428-1.2-.605-1.806.22-.413.435-.828.682-1.316.366-.728.7-1.467,1.028-2.213.324-.273.641-.555.955-.835a40.851,40.851,0,0,0,3.481-3.522,55,55,0,0,0,5.757-7.973,92.77,92.77,0,0,0,7.594-16.343,75.685,75.685,0,0,0,4.279-18.194,47.193,47.193,0,0,0-1.518-18.144,37.669,37.669,0,0,0-1.487-4.085,13.329,13.329,0,0,0-2.117-3.776,2.826,2.826,0,0,0-2.882-.968,1.729,1.729,0,0,0-1.356,1.43,73.638,73.638,0,0,0-12.04,9.9,101.529,101.529,0,0,0-19.036,26.163,103.449,103.449,0,0,0-6.2,15.006c-.116.363-.232.724-.343,1.089-.062.068-.123.136-.185.2a16.041,16.041,0,0,1-3.018,2.743,15.175,15.175,0,0,1-5.83,2.337c-2.159.353-4.312.131-6.294,1.239a37.149,37.149,0,0,0-5.323,4.2l-11.42,9.539a28.549,28.549,0,0,0-4.571,4.334,10.8,10.8,0,0,0-2.1,5.806,56.184,56.184,0,0,0,.019,7.17c.054,1.275.155,2.539.289,3.8q-.311,1.237-.561,2.5-.582,2.912-.893,5.873-.1.954-.17,1.911a52.407,52.407,0,0,0-3.912,3.65,14.529,14.529,0,0,0-3.507,9.122A29.722,29.722,0,0,0,1902.691,1715.291Zm70.077-47.26c.083-.047.166-.094.248-.145l-.137.254-.062.111Z" transform="translate(-23.564 0)" fill="#d67659"/>
      <path id="Trazado_1036937" data-name="Trazado 1036937" d="M1915.871,1833.813a33.137,33.137,0,0,1,5.6,6.194,31.975,31.975,0,0,1,3.164,5.87,14.7,14.7,0,0,1,2.66-9.437c3.652-4.973,10.42-5.271,16.033-5.569a67.72,67.72,0,0,0,19.55-3.447,36.451,36.451,0,0,0,15.283-10.085,26.822,26.822,0,0,0,6.785-15.548.774.774,0,0,0-1.433-.388,21.731,21.731,0,0,1-1.573,2.673,38.017,38.017,0,0,1-9.238,7.543.867.867,0,0,0-.14.081,35.021,35.021,0,0,1-5.861,2.662c-1.965.685-4.1.971-5.984,1.865-1.778.844-2.81,2.48-4.153,3.832a14.41,14.41,0,0,1-4.118,2.867,24.218,24.218,0,0,1-10.1,1.912,81.251,81.251,0,0,1-10.672-.833l-6.935-.86c-2.166-.269-4.34-.62-6.516-.781-.4-.03-.812-.048-1.225-.042a22.052,22.052,0,0,0-1.765,3.794,16.169,16.169,0,0,0-1.058,4.223A4.112,4.112,0,0,0,1915.871,1833.813Z" transform="translate(-28.593 -90.168)" fill="#c9684a"/>
      <path id="Trazado_1036938" data-name="Trazado 1036938" d="M2088.094,1830.5c.678-.354,1.348-.724,2.007-1.117.474-.281.943-.578,1.4-.886a44.328,44.328,0,0,0,6.68-.093,33.761,33.761,0,0,0,7.249-1.262c.217-.069.433-.145.648-.223l2.533.031c11.184.137,22.377.425,33.563.374,9.948-.046,20.24-.791,29.3-5.268a41.94,41.94,0,0,0,18.229-18.416q1.016-1.954,1.84-3.985c-9.691,15.168-39.707,9.054-45.252,7.315a37.967,37.967,0,0,1-13.935-7.441c-8.1-7.167-11.134-18.788-11.063-29.27a50.776,50.776,0,0,1,9.646-29.466c.431-.59-.4-1.353-.983-.982a39.615,39.615,0,0,0-10.329,9.751c-5.539,7.379-8.734,16.154-11.21,24.958-1.374,4.882-2.55,9.816-3.873,14.712-.374,1.381-1.57,4.46-3.3,2.509a36.041,36.041,0,0,1-2.145-2.957q-1.111-1.554-2.222-3.106c-.418-.584-1.477-.252-1.228.518a71.322,71.322,0,0,1,2.62,10.5c1.776,10.846.042,23-7.68,31.262A4.05,4.05,0,0,0,2088.094,1830.5Z" transform="translate(-103.802 -63.651)" fill="#c9684a"/>
      <path id="Trazado_1036939" data-name="Trazado 1036939" d="M1931.007,1899.149a.821.821,0,0,0,.586.77,51.781,51.781,0,0,0,16.12,1.813c4.971-.123,9.932-.623,14.876-1.113q7.664-.76,15.3-1.741,15.172-1.947,30.217-4.746c.751-.14.713-1.13.2-1.493l-7.026-4.925c-2.346-1.644-4.747-3.15-7.193-4.639a.429.429,0,0,0-.377-.037,19.777,19.777,0,0,0-3.788-1.838c-7.246-2.11-21.455-3.594-32.773-1.987-6.32.9-13.744.8-18.763,4.917C1933.945,1887.768,1930.771,1893.3,1931.007,1899.149Z" transform="translate(-35.869 -123.681)" fill="#c9684a"/>
      <path id="Trazado_1036940" data-name="Trazado 1036940" d="M2123.344,1881.3a27.442,27.442,0,0,0,5.319.755c-.02.131-.043.262-.06.392a.74.74,0,0,0,.7.918,62.09,62.09,0,0,0,8.341-.085c1.178-.093,2.352-.236,3.522-.4.072.27.147.539.23.8a.748.748,0,0,0,.7.537,149.011,149.011,0,0,0,17.47-1.175q7.616-.944,15.12-2.581,3.8-.833,7.55-1.843,1.842-.495,3.673-1.034a7.1,7.1,0,0,0,3.041-1.242c1.518-1.482.074-3.418-1.28-4.353a13.516,13.516,0,0,0-2.947-1.318q-1.748-.664-3.519-1.264-.509-.173-1.019-.341a50.375,50.375,0,0,0-6.612-2.531,87.834,87.834,0,0,0-31.295-4.157c-2.613.128-5.217.378-7.809.736a13.656,13.656,0,0,0-3.574.807,5.968,5.968,0,0,0-2.523,2.145,32.177,32.177,0,0,0-3.311,6.77,49.9,49.9,0,0,0-2.269,7.5A.8.8,0,0,0,2123.344,1881.3Z" transform="translate(-118.8 -116.649)" fill="#c9684a"/>
      <path id="Trazado_1036941" data-name="Trazado 1036941" d="M2029.433,1735.3c.541.483,1.1.872,1.6,1.4.491.515.946,1.058,1.4,1.61.88,1.081,1.716,2.19,2.492,3.347a39.419,39.419,0,0,1,3.961,7.441,24.808,24.808,0,0,1,1.034,15.646,16.491,16.491,0,0,1-1.65,3.917,11.357,11.357,0,0,1-2.632,3.276c-.385.291-.829-.259-.625-.625.586-1.052,1.321-1.988,1.858-3.079a21.79,21.79,0,0,0,1.314-3.381,22.376,22.376,0,0,0,.893-7.229,30.957,30.957,0,0,0-4.861-14.68c-.756-1.254-1.569-2.479-2.4-3.682-.428-.619-.88-1.221-1.3-1.845-.445-.66-.787-1.357-1.209-2.022C2029.251,1735.316,2029.365,1735.237,2029.433,1735.3Z" transform="translate(-78.374 -61.733)" fill="#a53e2f"/>
      <path id="Trazado_1036942" data-name="Trazado 1036942" d="M2006.632,1815.446a5.716,5.716,0,0,1,2.14-.777c.776-.232,1.55-.5,2.3-.792a21.49,21.49,0,0,0,4.305-2.316,31.8,31.8,0,0,0,6.808-6.893c.166-.211.539.018.451.262a17.429,17.429,0,0,1-6.328,7.784,22.569,22.569,0,0,1-4.431,2.5,18.206,18.206,0,0,1-2.488.872,4.8,4.8,0,0,1-2.513.293A.566.566,0,0,1,2006.632,1815.446Z" transform="translate(-68.502 -91.704)" fill="#a53e2f"/>
      <path id="Trazado_1036943" data-name="Trazado 1036943" d="M1964.353,1837.8a10.582,10.582,0,0,1,2.25-.284c.8-.088,1.6-.2,2.385-.36a19.23,19.23,0,0,0,4.535-1.525,20.16,20.16,0,0,0,3.955-2.522c1.248-1.024,2.323-2.239,3.56-3.271.082-.069.238-.007.2.114-1.064,3.1-4.347,5.45-7.157,6.849a19.8,19.8,0,0,1-4.836,1.7,15.035,15.035,0,0,1-2.526.323,5.8,5.8,0,0,1-2.458-.288C1963.917,1838.381,1964.06,1837.909,1964.353,1837.8Z" transform="translate(-50.167 -102.614)" fill="#a53e2f"/>
      <path id="Trazado_1036944" data-name="Trazado 1036944" d="M1924.668,1837.621c.936.337,1.8.841,2.717,1.221a13.592,13.592,0,0,0,3.03.852,12.994,12.994,0,0,0,3.132.109,17.4,17.4,0,0,0,3.251-.442c.147-.043.253.187.107.253a10.225,10.225,0,0,1-3.01,1.054,13.7,13.7,0,0,1-3.494.006c-2.06-.259-4.621-.931-5.989-2.614C1924.265,1837.878,1924.4,1837.523,1924.668,1837.621Z" transform="translate(-32.996 -105.982)" fill="#c9684a"/>
      <path id="Trazado_1036945" data-name="Trazado 1036945" d="M1958.6,1880.164a6.449,6.449,0,0,1,3.425-1.473c1.452-.23,2.922-.379,4.383-.539,1.521-.166,3.043-.314,4.568-.432,1.468-.114,3.178-.488,4.6.028a.07.07,0,0,1,.017.126,10.9,10.9,0,0,1-4.041.682q-2.142.2-4.284.434c-2.739.293-5.864.359-8.412,1.5C1958.653,1880.578,1958.407,1880.332,1958.6,1880.164Z" transform="translate(-47.775 -123.226)" fill="#a53e2f"/>
      <path id="Trazado_1036946" data-name="Trazado 1036946" d="M1954.1,1904.433a14.575,14.575,0,0,1,.934-2.97,12.223,12.223,0,0,1,1.649-2.513c.073-.094.191.026.151.118a26.2,26.2,0,0,0-.944,2.89,19.241,19.241,0,0,0-.655,2.788,18.4,18.4,0,0,0-.032,4.537.394.394,0,0,1,.052.116,3.588,3.588,0,0,1,.094,1.138c-.037.71-1.11.926-1.29.175A14.751,14.751,0,0,1,1954.1,1904.433Z" transform="translate(-45.704 -132.495)" fill="#a53e2f"/>
      <path id="Trazado_1036947" data-name="Trazado 1036947" d="M1937.988,1902.648a14.662,14.662,0,0,1,1.654-2.535,11.983,11.983,0,0,1,2.263-2.07c.111-.083.228.091.142.185a16.571,16.571,0,0,0-4.412,10.433c-.026.82-1.325.814-1.273,0A15.147,15.147,0,0,1,1937.988,1902.648Z" transform="translate(-38.189 -132.108)" fill="#a53e2f"/>
      <path id="Trazado_1036948" data-name="Trazado 1036948" d="M1858.4,1887.856a10.269,10.269,0,0,1,1.4-2.9,13.923,13.923,0,0,1,2.079-2.34c.847-.775,1.844-1.32,2.725-2.038.135-.11.326.068.2.2a28.411,28.411,0,0,0-1.875,2.207,24.282,24.282,0,0,0-1.864,2.44,9.22,9.22,0,0,0-1.208,2.694,8.442,8.442,0,0,0-.25,1.637,7.347,7.347,0,0,1-.107,1.652.713.713,0,0,1-1.361,0A6.039,6.039,0,0,1,1858.4,1887.856Z" transform="translate(-4.281 -124.552)" fill="#a53e2f"/>
      <path id="Trazado_1036949" data-name="Trazado 1036949" d="M1876.38,1890.452a10.262,10.262,0,0,1,1.8-4.905c.152-.211.521-.095.442.187a20.886,20.886,0,0,0-.9,4.974,13.051,13.051,0,0,0,.153,2.477c.119.75.49,1.479-.039,2.123a.594.594,0,0,1-.7.091c-.767-.323-.741-1.544-.8-2.262A13.282,13.282,0,0,1,1876.38,1890.452Z" transform="translate(-12.211 -126.667)" fill="#a53e2f"/>
      <path id="Trazado_1036950" data-name="Trazado 1036950" d="M2154.772,1887.965a20.078,20.078,0,0,1,1.013-3.008,13.728,13.728,0,0,1,3.456-5.236c.075-.062.23-.006.185.108-.74,1.868-1.783,3.59-2.411,5.512a29.294,29.294,0,0,0-.817,2.887,8.612,8.612,0,0,1-.711,2.925.568.568,0,0,1-1.024-.134A5.424,5.424,0,0,1,2154.772,1887.965Z" transform="translate(-132.444 -124.183)" fill="#a53e2f"/>
      <path id="Trazado_1036951" data-name="Trazado 1036951" d="M2133.163,1885.877a23.8,23.8,0,0,1,1.609-3.127,14.417,14.417,0,0,1,4.386-5.036.126.126,0,0,1,.17.171c-1.033,1.906-2.468,3.563-3.49,5.489a28.751,28.751,0,0,0-1.36,2.993q-.292.748-.539,1.514a5.423,5.423,0,0,1-.588,1.546.635.635,0,0,1-1.172-.317A7.943,7.943,0,0,1,2133.163,1885.877Z" transform="translate(-122.863 -123.319)" fill="#a53e2f"/>
      <path id="Trazado_1036952" data-name="Trazado 1036952" d="M2070.792,1875.344a18.171,18.171,0,0,0,8.052-2.062,22.565,22.565,0,0,0,6.5-5.408c4.109-4.99,5.722-11.505,6.157-17.837.134-1.959.208-3.917.2-5.881a49.323,49.323,0,0,1,.077-5.875c.018-.145.23-.2.272-.037a26.911,26.911,0,0,1,.627,5.376c.092,1.87.136,3.746.08,5.618a40.539,40.539,0,0,1-1.655,10.6c-1.764,5.774-5.6,11.391-11.022,14.29a15.354,15.354,0,0,1-9.393,2.006C2070.219,1876.058,2070.364,1875.368,2070.792,1875.344Z" transform="translate(-96.149 -106.216)" fill="#a53e2f"/>
      <path id="Trazado_1036953" data-name="Trazado 1036953" d="M2080.976,1748.313a24.467,24.467,0,0,1,6.578,5.739,7.359,7.359,0,0,1,1.451,2.258c.112.359-.331.539-.578.337a13.646,13.646,0,0,1-1.729-2.088c-.6-.738-1.232-1.453-1.887-2.143a38.611,38.611,0,0,0-4.111-3.744C2080.494,1748.51,2080.759,1748.182,2080.976,1748.313Z" transform="translate(-100.572 -67.358)" fill="#a53e2f"/>
      <path id="Trazado_1036954" data-name="Trazado 1036954" d="M2087.22,1759.054a14.488,14.488,0,0,1,4.411,3.271,11.087,11.087,0,0,1,2.936,4.469.3.3,0,0,1-.5.289c-1.2-1.263-2.1-2.8-3.283-4.084a42.46,42.46,0,0,0-3.885-3.533C2086.657,1759.259,2086.969,1758.94,2087.22,1759.054Z" transform="translate(-103.248 -72.005)" fill="#a53e2f"/>
      <path id="Trazado_1036955" data-name="Trazado 1036955" d="M2096.55,1774.519a51.923,51.923,0,0,1,4.229,6.531c.086.171-.145.385-.282.218a52.332,52.332,0,0,1-4.27-6.56C2096.1,1774.5,2096.413,1774.325,2096.55,1774.519Z" transform="translate(-107.306 -78.666)" fill="#a53e2f"/>
      <path id="Trazado_1036956" data-name="Trazado 1036956" d="M2100.048,1791.94a11.234,11.234,0,0,1,2.34,5.046c.028.258-.4.379-.5.136-.343-.807-.535-1.669-.884-2.477a19,19,0,0,0-1.3-2.5C2099.563,1791.918,2099.9,1791.737,2100.048,1791.94Z" transform="translate(-108.807 -86.198)" fill="#a53e2f"/>
      <path id="Trazado_1036957" data-name="Trazado 1036957" d="M2139.822,1743.557a36.265,36.265,0,0,1,6.186-5.715,26.9,26.9,0,0,1,3.6-2.219q.884-.444,1.8-.826c.69-.29,1.418-.409,2.126-.651.146-.051.2.171.063.226-.624.252-1.125.636-1.719.937q-.838.425-1.645.908a34.95,34.95,0,0,0-2.946,1.95,37.379,37.379,0,0,0-5.408,4.927,47.686,47.686,0,0,0-8.245,12.745c-4.1,9.3-5.061,19.827-1.593,29.48a35.619,35.619,0,0,0,3.58,7.317,51.2,51.2,0,0,0,5.116,6.364c.292.324-.1.926-.494.641-4-2.888-6.906-7.407-8.839-11.881a37.3,37.3,0,0,1-3.007-14.8C2128.408,1762.195,2132.823,1751.654,2139.822,1743.557Z" transform="translate(-121.229 -61.241)" fill="#a53e2f"/>
      <path id="Trazado_1036958" data-name="Trazado 1036958" d="M2139.565,1846.538a20.44,20.44,0,0,0,5.334,3.626c.969.5,1.966.943,2.975,1.355a13.951,13.951,0,0,1,2.811,1.316c.167.118.137.467-.119.438a11.128,11.128,0,0,1-2.911-.923c-1.074-.453-2.137-.933-3.167-1.481a19.024,19.024,0,0,1-2.738-1.77,15.005,15.005,0,0,1-2.321-2.424C2139.35,1846.581,2139.476,1846.447,2139.565,1846.538Z" transform="translate(-125.989 -109.832)" fill="#a53e2f"/>
      <path id="Trazado_1036959" data-name="Trazado 1036959" d="M2160.431,1856.02a48.254,48.254,0,0,0,5.04,2.023c1.664.553,3.405.829,5.063,1.376a.264.264,0,0,1-.07.517,15.412,15.412,0,0,1-5.34-1.125,20.881,20.881,0,0,1-4.881-2.469A.187.187,0,0,1,2160.431,1856.02Z" transform="translate(-134.962 -113.936)" fill="#a53e2f"/>
      <path id="Trazado_1036960" data-name="Trazado 1036960" d="M1937.444,1781.666c.347-1.007.747-2,1.19-2.968a4.643,4.643,0,0,1,.759-1.334c.339-.355.731-.548,1.089-.864.115-.1.344-.043.331.137-.037.481.074.96.021,1.446a6.046,6.046,0,0,1-.375,1.241,30.39,30.39,0,0,0-.828,2.945,15.3,15.3,0,0,0-.3,2.816,10.213,10.213,0,0,1-.413,3.173,1.557,1.557,0,0,1-1.441,1.1,1.511,1.511,0,0,1-1.441-1.1C1935.554,1786.073,1936.746,1783.691,1937.444,1781.666Z" transform="translate(-37.999 -79.538)" fill="#c9684a"/>
      <path id="Trazado_1036961" data-name="Trazado 1036961" d="M1914.365,1788.151a8.558,8.558,0,0,1,.9-2.038.754.754,0,0,1,1.392.377,8.606,8.606,0,0,1-.236,2.227c-.15.73-.33,1.455-1.143,1.678a.78.78,0,0,1-.754-.2C1913.92,1789.592,1914.13,1788.868,1914.365,1788.151Z" transform="translate(-28.576 -83.562)" fill="#c9684a"/>
      <path id="Trazado_1036962" data-name="Trazado 1036962" d="M1956.666,1756.439a.708.708,0,0,0-.181.553c.2,2.293.483,4.587.871,6.857a8.207,8.207,0,0,0,2.416,5.04,4.536,4.536,0,0,0,4.99.753c2.028-.9,3.943-2.167,5.879-3.254a89.576,89.576,0,0,0,9.021-5.374,16.539,16.539,0,0,0,5.948-6.929,10.889,10.889,0,0,0-.662-9.2,14.1,14.1,0,0,0-7.549-6.343c-5.75-2.2-13.927-1.792-18.038,3.36-2.155,2.7-2.8,6.217-2.911,9.59A32.59,32.59,0,0,0,1956.666,1756.439Z" transform="translate(-46.869 -62.601)" fill="#c9684a"/>
      <g id="Grupo_1202335" data-name="Grupo 1202335" transform="translate(1913.268 1681.152)">
        <path id="Trazado_1036963" data-name="Trazado 1036963" d="M1982.451,1752.063c-6.37-1.878-15.362.767-16.244,7.736-.27,2.133-.2,4.7,1.6,6.172a.714.714,0,0,0,.977-.239c.613-1.2,2.2-.866,3.3-.938a9.932,9.932,0,0,0,4.349-1.59c2.086-1.433,3.229-2.459,4.163-4.558.436-.98.557-2.846.869-3.848.106-.341.394-1.874.858-2.017.05-.015.1-.031.148-.049A.34.34,0,0,0,1982.451,1752.063Z" transform="translate(-1964.312 -1749.891)" fill="#fff5ff"/>
        <path id="Trazado_1036964" data-name="Trazado 1036964" d="M1971.777,1753.765c-3.316,2.131-5.089,6.678-1.684,9.563,2.511,2.128,6.21,1.1,8.271-.716,1.956-1.72,3.5-5.176,1.859-7.717C1978.366,1752.012,1974.492,1752.021,1971.777,1753.765Z" transform="translate(-1965.248 -1750.363)" fill="#221320"/>
        <path id="Trazado_1036965" data-name="Trazado 1036965" d="M1978.033,1749.464a3.127,3.127,0,0,0-.946-.521,6.877,6.877,0,0,0-1.278-.239,11.426,11.426,0,0,0-2.727.164,13.623,13.623,0,0,0-5.008,1.973,10.886,10.886,0,0,0-5.108,8.578,9.078,9.078,0,0,0,.257,2.618c.169.671.439,1.823,1.2,2.122a.191.191,0,0,0,.24-.118,2.425,2.425,0,0,0-.133-1.224c-.08-.4-.184-.8-.239-1.213a9.8,9.8,0,0,1,0-2.738,10.087,10.087,0,0,1,2.477-5.226,11.723,11.723,0,0,1,7.913-3.629c.487-.022.974,0,1.456.021.527.02,1.035,0,1.559.008C1978.03,1750.045,1978.336,1749.66,1978.033,1749.464Z" transform="translate(-1962.958 -1748.682)" fill="#a53e2f"/>
      </g>
      <path id="Trazado_1036966" data-name="Trazado 1036966" d="M1987.887,1662.46c2.418,1.959,6.347,2.762,8.829.638,2.993,3.865,7.872,5.65,12.7,5.57.366-.728.7-1.467,1.028-2.213.324-.273.641-.555.955-.835a40.851,40.851,0,0,0,3.481-3.522,55,55,0,0,0,5.757-7.973,92.77,92.77,0,0,0,7.594-16.343,75.685,75.685,0,0,0,4.279-18.194,47.193,47.193,0,0,0-1.518-18.144,37.669,37.669,0,0,0-1.487-4.085,13.329,13.329,0,0,0-2.117-3.776,2.826,2.826,0,0,0-2.882-.968,1.729,1.729,0,0,0-1.356,1.43,73.638,73.638,0,0,0-12.04,9.9,101.529,101.529,0,0,0-19.036,26.163,103.449,103.449,0,0,0-6.2,15.006c-.116.363-.232.724-.343,1.089-.062.068-.123.136-.185.2q-.278,1.778-.5,3.562C1984.314,1654.166,1984.265,1659.527,1987.887,1662.46Z" transform="translate(-59.041 0)" fill="#d67659"/>
      <path id="Trazado_1036967" data-name="Trazado 1036967" d="M2001.218,1661.28a5.816,5.816,0,0,0,3.887-1.246,7,7,0,0,0,4.206,6.844,7.165,7.165,0,0,0,4.89.231,6.6,6.6,0,0,0,.953-.4c-.054.084-.111.168-.167.252-.123.186.154.388.3.235.492-.5.971-1.011,1.439-1.529a13.105,13.105,0,0,0,1.554-1.544c1.595-1.85,3.1-3.824,4.516-5.84.745-1.053,1.467-2.119,2.17-3.184a47.4,47.4,0,0,0,5.347-10.414,68.5,68.5,0,0,0,2.64-6.356c3.513-9.877,4.784-20.726,2.578-31.041q-.408-1.9-.974-3.757a6.937,6.937,0,0,0-1.529-3.168c-1.662-1.506-3.907-.329-5.277.993a23.061,23.061,0,0,0-2.352,2.937q-1.232,1.664-2.421,3.361-2.3,3.282-4.481,6.644c-2.952,4.569-5.74,9.244-8.442,13.965-2.628,4.593-5.359,9.165-7.68,13.923-2.186,4.478-4.146,9.447-4.3,14.492C1998.011,1658.764,1998.888,1661.011,2001.218,1661.28Z" transform="translate(-64.875 -3.09)" fill="#fa9da6"/>
      <path id="Trazado_1036968" data-name="Trazado 1036968" d="M2001.218,1661.28a5.816,5.816,0,0,0,3.887-1.246,7,7,0,0,0,4.206,6.844,7.165,7.165,0,0,0,4.89.231,6.6,6.6,0,0,0,.953-.4c-.054.084-.111.168-.167.252-.123.186.154.388.3.235.492-.5.971-1.011,1.439-1.529a13.105,13.105,0,0,0,1.554-1.544c1.595-1.85,3.1-3.824,4.516-5.84a.878.878,0,0,0-1.265.537c-.791,3-4.883,3.789-7.277,2.26-3.263-2.086-2.691-7.184-.46-9.774a.883.883,0,0,0-.617-1.49,2.527,2.527,0,0,1-2.345-1.6,5.333,5.333,0,0,1-.075-3.578,66.181,66.181,0,0,1,2.5-7.247,162.186,162.186,0,0,1,11.753-24.542c2.273-3.873,4.664-7.671,7.226-11.359q.392-.565.791-1.124c-1.662-1.506-3.907-.329-5.277.993a23.061,23.061,0,0,0-2.352,2.937q-1.232,1.664-2.421,3.361-2.3,3.282-4.481,6.644c-2.952,4.569-5.74,9.244-8.442,13.965-2.628,4.593-5.359,9.165-7.68,13.923-2.186,4.478-4.146,9.447-4.3,14.492C1998.011,1658.764,1998.888,1661.011,2001.218,1661.28Z" transform="translate(-64.875 -3.09)" fill="#f0858d"/>
      <path id="Trazado_1036969" data-name="Trazado 1036969" d="M1986.56,1788.77c2.759,1.45,6.024,1.171,8.964.505a22.581,22.581,0,0,0,13.109-8.68,21.752,21.752,0,0,0,3.4-7.279,16.438,16.438,0,0,0,.474-3.116,13.739,13.739,0,0,0-2.533-9.262,11.118,11.118,0,0,0-1.3-1.515,17.106,17.106,0,0,0-3.022-3.578,3.1,3.1,0,0,0-3.345-.633,3.027,3.027,0,0,0-1.882,2.8,23.952,23.952,0,0,1,.184,4.276c-.011.159-.027.318-.04.477-.047.613.033-.075.03-.155a4.68,4.68,0,0,1-.194,1.064,16.691,16.691,0,0,1-.56,1.974c-.067.191-.147.377-.248.68-.127.266-.3.6-.325.657a18.134,18.134,0,0,1-1.031,1.785c-.2.3-.407.583-.628.9-.1.122-.2.247-.308.37-.44.518-.907,1.014-1.394,1.489q-.688.671-1.43,1.284c-.123.1-.25.2-.373.3-.292.246.189-.15.19-.142a4.874,4.874,0,0,1-.777.57,31.212,31.212,0,0,1-3.081,1.915c-2.364,1.293-5.458,2.027-6.836,4.564C1981.9,1783.15,1983.507,1787.167,1986.56,1788.77Zm18.019-20.559c-.061-.28.039-.449.051-.339C2004.622,1767.929,2004.591,1768.075,2004.579,1768.211Zm-14.251,14.952a.417.417,0,0,1,.321.045c-.044,0-.178-.027-.271-.032Z" transform="translate(-58.319 -70.25)" fill="#e38a71"/>
      <path id="Trazado_1036970" data-name="Trazado 1036970" d="M1923.6,1786.557c.1-.838.22-1.675.381-2.5a21.217,21.217,0,0,1,1.277-4.143,20.4,20.4,0,0,1,2.088-4.008,7.593,7.593,0,0,1,1.552-1.527c.288-.226.619-.38.927-.579a7.3,7.3,0,0,0,.835-.465c.174-.156.5-.008.416.242a6.257,6.257,0,0,0-.053,1.682,10.779,10.779,0,0,1-.253,2.09c-.294,1.282-.69,2.531-.942,3.825a25.692,25.692,0,0,0-.474,3.482c-.142,1.654.154,3.448-.591,4.967-.872,1.779-3.95,1.854-4.8,0A5.122,5.122,0,0,1,1923.6,1786.557Z" transform="translate(-32.636 -78.161)" fill="#e38a71"/>
      <path id="Trazado_1036971" data-name="Trazado 1036971" d="M1942.967,1736.839a17.39,17.39,0,0,1,1.189-2.983,13.583,13.583,0,0,1,3.569-4.35,14.211,14.211,0,0,1,5.19-2.933,11.059,11.059,0,0,1,2.757-.448,6.578,6.578,0,0,1,1.4.3,1.726,1.726,0,0,1,.771.374.936.936,0,0,1,.279.283c.024.017.057.042.1.078a.617.617,0,0,1,.123.956,1.538,1.538,0,0,0-.185.284,1.744,1.744,0,0,1-.434.5c-.306.252-.427.308-.684.54a21.006,21.006,0,0,1-2.14,1.334c-.311.218-.612.449-.925.667-.083.057-.163.118-.245.177.116-.08-.246.2-.3.241a13.984,13.984,0,0,0-1.6,1.61l-.115.14c-.064.083-.165.216-.191.253q-.357.5-.668,1.039c-.38.652-.717,1.331-1.053,2.006-.049.13-.1.259-.145.391q-.187.536-.326,1.087a9.919,9.919,0,0,1-.533,1.692c-.036.074-.072.15-.106.225-.054.151-.11.316-.115.329a2.986,2.986,0,0,1-2.806,2.137,2.943,2.943,0,0,1-2.806-2.137A7.993,7.993,0,0,1,1942.967,1736.839Z" transform="translate(-40.946 -57.776)" fill="#e38a71"/>
      <path id="Trazado_1036972" data-name="Trazado 1036972" d="M2006.714,1733.887a1.165,1.165,0,0,1,1.375-.177,4.719,4.719,0,0,1,1,.823,2.414,2.414,0,0,1,.6,1.292.9.9,0,0,1-1.089,1.089,2.433,2.433,0,0,1-1.269-.621,4.74,4.74,0,0,1-.8-1.031A1.158,1.158,0,0,1,2006.714,1733.887Z" transform="translate(-68.471 -60.991)" fill="#e38a71"/>
      <g id="Grupo_1202336" data-name="Grupo 1202336" transform="translate(2018.145 1656.487)">
        <path id="Trazado_1036973" data-name="Trazado 1036973" d="M2147.874,1707.162a17.917,17.917,0,0,0,2.091,1.007,12.059,12.059,0,0,0,2.531.343c1.669.17,3.32.453,4.984.652a73.04,73.04,0,0,1,9.27,1.761,77.023,77.023,0,0,1,8.307,2.626q1.08.41,2.149.852l.139.057.433.186q.527.229,1.05.465,1.98.893,3.907,1.9a75.87,75.87,0,0,1,7.581,4.53c1.171.8,2.35,1.579,3.494,2.413q.451.328.9.665l.281.215.192.151q.778.615,1.536,1.254a50.429,50.429,0,0,1,5.962,5.913q.4.471.784.952l.145.183c-.056-.07-.017-.022.036.047l.125.158-.118-.149.1.127c.392.529.78,1.061,1.15,1.606.837,1.23,1.719,2.427,2.492,3.7.749,1.235,1.435,2.519,2.086,3.808.637,1.263,1.322,2.5,1.9,3.789,1.167,2.606.944,5.645,1.171,8.427a.834.834,0,0,0,1.63.221,17.214,17.214,0,0,0,.5-5.192q-.023-1.206-.146-2.407c-.086-.838-.067-1.66-.11-2.5a23.383,23.383,0,0,0-.832-5.306,31.1,31.1,0,0,0-2.115-5.161,34.136,34.136,0,0,0-5.443-7.573,53.09,53.09,0,0,0-6.427-5.975,68.215,68.215,0,0,0-15.9-9.351,80.535,80.535,0,0,0-17.8-5.272,61.671,61.671,0,0,0-9.195-1.042c-1.533-.027-3.072.021-4.6.1a7.793,7.793,0,0,0-2.38.351,13.973,13.973,0,0,0-1.858,1A.278.278,0,0,0,2147.874,1707.162Z" transform="translate(-2147.739 -1705.225)" fill="#e38a71"/>
      </g>
      <path id="Trazado_1036974" data-name="Trazado 1036974" d="M2052.776,1741.729c.14-.014.208-.006.209.022a1.322,1.322,0,0,1,.484-.251,3.384,3.384,0,0,1,.976-.064,7.406,7.406,0,0,1,1.79.2,14.894,14.894,0,0,1,3.458,1.491,40.2,40.2,0,0,1,5.659,4.188,33.793,33.793,0,0,1,4.744,5.239,13.19,13.19,0,0,1,1.808,3.353q.155.379.014.061l.277.656c.1.239.2.479.294.72a3.431,3.431,0,0,1,.213,2.252,1.749,1.749,0,0,1-2.144,1.217,3.754,3.754,0,0,1-1.8-1.412,9.844,9.844,0,0,0-.765-.964c-.445-.507-.911-.976-1.322-1.513l-.083-.109-.2-.251c-.237-.3-.474-.6-.7-.9l-.124-.164-.149-.189c-.143-.178-.286-.355-.432-.53-.34-.409-.691-.808-1.046-1.2-.736-.824-1.472-1.641-2.262-2.414a28.756,28.756,0,0,0-4.6-3.771c-.549-.37-1.056-.792-1.575-1.2-.144-.111-.243-.186-.343-.26-.256-.191-.517-.375-.77-.571a8.4,8.4,0,0,1-1.169-1.2,2.71,2.71,0,0,1-.68-1.237l-.188-.149A.614.614,0,0,1,2052.776,1741.729Z" transform="translate(-88.266 -64.394)" fill="#e38a71"/>
      <path id="Trazado_1036975" data-name="Trazado 1036975" d="M2086.325,1786.035a24.349,24.349,0,0,1,2.166,3.4,31.474,31.474,0,0,1,1.506,3.778c.838,2.535,1.585,5.114,2.166,7.721a86.227,86.227,0,0,1,1.956,16.249c.042,1.488.1,3,.005,4.487a15.58,15.58,0,0,1-.739,4.684,1.285,1.285,0,0,1-2.455,0,19.675,19.675,0,0,1-.3-4c-.051-1.313-.009-2.628-.031-3.943q-.068-3.943-.492-7.869a94.683,94.683,0,0,0-2.983-15.263c-.39-1.4-.847-2.771-1.187-4.18-.362-1.5-.564-3.02-.823-4.546A.667.667,0,0,1,2086.325,1786.035Z" transform="translate(-102.507 -83.547)" fill="#e38a71"/>
      <path id="Trazado_1036976" data-name="Trazado 1036976" d="M2017.972,1839.841a8.789,8.789,0,0,1,2.8-2.16c.083-.051.272-.219.418-.3a4.25,4.25,0,0,1,.627-.518c.392-.272.808-.509,1.2-.786l.157-.114c.077-.142.382-.309.5-.414q.547-.472,1.054-.987c.634-.64,1.206-1.334,1.782-2.025.046-.076.13-.16.175-.221q.2-.272.389-.549.411-.6.784-1.224a28.2,28.2,0,0,0,1.388-2.709c.018-.044.132-.305.182-.432.161-.409.318-.817.5-1.22.122-.276.256-.547.381-.822.045-.1.216-.5.234-.542.391-.979.733-1.972,1.086-2.966.447-1.255.968-2.315,1.465-3.566.208-.523,1.144-2.659,2.036-2.087.926.594,1.017,1.921,1.088,2.9a25.125,25.125,0,0,1,.16,3.527,25.783,25.783,0,0,1-1.413,7.386,27.138,27.138,0,0,1-3.138,6.081,22.1,22.1,0,0,1-5.065,5.081,15.653,15.653,0,0,1-1.379.909,4.208,4.208,0,0,1-1.556.584,2.775,2.775,0,0,1-.514.2,6.2,6.2,0,0,1-4.516.125A2.307,2.307,0,0,1,2017.972,1839.841Z" transform="translate(-73.343 -96.683)" fill="#e38a71"/>
      <path id="Trazado_1036977" data-name="Trazado 1036977" d="M1902.807,1804.834a28.537,28.537,0,0,0,1.244,6.033,12.647,12.647,0,0,0,3.918,5.929l.146.119c.062.052.127.1.192.149a5.52,5.52,0,0,0,5.374.805,6.2,6.2,0,0,0,3.281-4.067c2.417,3.006,6.417,4.551,9.914,5.908,3.252,1.262,6.911,2.216,10.373,1.245a6.014,6.014,0,0,0,3.756-2.514c.828-1.5.107-3.208-.292-4.732a9.661,9.661,0,0,0-.77-2.476,3.627,3.627,0,0,0-1.725-1.285q-2.534-1.2-4.945-2.635c-1.564-.937-3.082-1.95-4.564-3.013-1.544-1.109-2.964-2.389-4.528-3.467-.146-.1-.274.111-.153.252a.7.7,0,0,0-.388.41,11.138,11.138,0,0,1-3.566,5.273,9.393,9.393,0,0,1-2.793,1.639c-1.321.453-2.441-.51-3.37-1.351a12.255,12.255,0,0,1-3.3-4.9,8.015,8.015,0,0,0-.855-2.5c-.574-.674-6.432,3.454-6.892,4.987C1902.843,1804.711,1902.825,1804.774,1902.807,1804.834Z" transform="translate(-23.68 -89.543)" fill="#e38a71"/>
      <path id="Trazado_1036978" data-name="Trazado 1036978" d="M1912.6,1817.68a3.393,3.393,0,0,0,3.322.188c1.621-.735,2.312-1.887,3.323-3.843a16,16,0,0,1-.424-2.284q-.153-1.067-.218-2.144c-.018-.292-.057-.589-.05-.87a.763.763,0,0,1-.2-.091,13.474,13.474,0,0,1-4.031-3.936c-.954-1.44-1.983-3.39-1.823-5.172a.265.265,0,0,1,.49-.133c.4.733.641,1.541.985,2.3a12.838,12.838,0,0,0,1.28,2.2,13.977,13.977,0,0,0,3.6,3.385s.829-.461,1.4-.8a18.678,18.678,0,0,0,2.471-1.768c1.541-1.283,2.794-2.835,4.31-4.127a.175.175,0,0,1,.289.169,11.108,11.108,0,0,1-3.324,4.9,19.093,19.093,0,0,1-2.417,1.914,4.785,4.785,0,0,1-1.445.746,5.1,5.1,0,0,1,.027,1.282c0,.652.023,1.3.07,1.953.064.871.3,1.838.334,2.76,1.049.669,2.005,1.476,3.06,2.143a49.891,49.891,0,0,0,8.873,3.115,30.155,30.155,0,0,0,6.584.458c1.811-.1,3.856-.679,4.519-2.57a5.794,5.794,0,0,0,.153-2.735c-.141-.968-.318-1.972-.537-2.924-.04-.176.214-.3.3-.128.942,1.822,1.713,3.8,1.258,5.894a5.051,5.051,0,0,1-4.31,3.724,19.623,19.623,0,0,1-10.262-.562c-.4-.137-.816-.239-1.22-.373a12.96,12.96,0,0,1-1.771-.656q-.344-.139-.684-.285a28.43,28.43,0,0,1-3.551-1.858c-.938-.572-3.083-2.158-3.151-2.254a9.445,9.445,0,0,0-.749.919c-.305.45-.593.909-.927,1.338a3.751,3.751,0,0,1-2.6,1.574,5.042,5.042,0,0,1-3.341-1.083c-.876-.662-2.209-1.576-2.573-2.634C1909.615,1815.344,1911.7,1817.083,1912.6,1817.68Z" transform="translate(-26.634 -89.404)" fill="#a53e2f"/>
      <path id="Trazado_1036979" data-name="Trazado 1036979" d="M1936.174,1819.355a1.01,1.01,0,0,1,.706-.295,1.046,1.046,0,0,1,.712.3,1,1,0,0,1,.3.6.94.94,0,0,1-.02.4,1.154,1.154,0,0,1-.25.429.841.841,0,0,1-.454.243.856.856,0,0,1-.261.036,1.038,1.038,0,0,1-.977-.772A.985.985,0,0,1,1936.174,1819.355Z" transform="translate(-37.988 -97.963)" fill="#a53e2f"/>
      <path id="Trazado_1036980" data-name="Trazado 1036980" d="M1945.212,1812.231a.917.917,0,0,1,.642-.642.961.961,0,0,1,.894.236,2.305,2.305,0,0,1,.5.582,1.316,1.316,0,0,1,.2.52.368.368,0,0,1,.012.175l-.033.242.031-.139a.869.869,0,0,1-.6.915.672.672,0,0,1-.267.044A1.547,1.547,0,0,1,1945.212,1812.231Z" transform="translate(-41.997 -94.718)" fill="#a53e2f"/>
      <path id="Trazado_1036981" data-name="Trazado 1036981" d="M1951.623,1822.837a.847.847,0,0,1,.4-.475,1.089,1.089,0,0,1,.573-.137,1.265,1.265,0,0,1,1.026.606,1.3,1.3,0,0,1,0,1.261,1.229,1.229,0,0,1-1.081.669.81.81,0,0,1-.795-.795A1.222,1.222,0,0,1,1951.623,1822.837Z" transform="translate(-44.751 -99.332)" fill="#a53e2f"/>
      <path id="Trazado_1036982" data-name="Trazado 1036982" d="M1917.672,1817.293a.446.446,0,0,1,.754.183.846.846,0,0,1,.108.2c.023.072.051.127.069.184a.69.69,0,0,1,.142.235c.025.06.044.117.067.177a.7.7,0,0,1-1.017.782,1.121,1.121,0,0,1-.517-.934A.834.834,0,0,1,1917.672,1817.293Z" transform="translate(-29.936 -97.135)" fill="#a53e2f"/>
      <path id="Trazado_1036983" data-name="Trazado 1036983" d="M1909.839,1810.863a.571.571,0,0,1,.977,0,1.831,1.831,0,0,1,.291,1.746.815.815,0,0,1-1.559,0A1.832,1.832,0,0,1,1909.839,1810.863Z" transform="translate(-26.558 -94.299)" fill="#a53e2f"/>
      <path id="Trazado_1036984" data-name="Trazado 1036984" d="M1911.831,1818.843c.109.2.231.395.327.6a1.624,1.624,0,0,1,.17.781.5.5,0,0,1-.838.347,1.678,1.678,0,0,1-.418-.67c-.076-.214-.119-.444-.177-.663A.514.514,0,0,1,1911.831,1818.843Z" transform="translate(-27.17 -97.761)" fill="#a53e2f"/>
      <path id="Trazado_1036985" data-name="Trazado 1036985" d="M1978.527,1771.366A4.414,4.414,0,0,1,1979.8,1770c.51-.321,1.052-.589,1.575-.889a17.215,17.215,0,0,0,3.034-2.112,15.364,15.364,0,0,0,3.5-5.613.25.25,0,0,1,.43,0,3.174,3.174,0,0,1,.355,1.616,6.175,6.175,0,0,1-.36,1.769,9.9,9.9,0,0,1-2.123,3.363,15.872,15.872,0,0,1-3.287,2.594,18,18,0,0,1-1.813.993,4.262,4.262,0,0,1-2.156.382A.5.5,0,0,1,1978.527,1771.366Z" transform="translate(-56.391 -72.972)" fill="#a53e2f"/>
      <path id="Trazado_1036986" data-name="Trazado 1036986" d="M2190.192,1862.366a16.693,16.693,0,0,1,3.774.625q1.949.434,3.874.961,3.915,1.073,7.722,2.5,3.664,1.371,7.2,3.053a37.173,37.173,0,0,1,6.833,3.91c.1.074-.009.255-.122.208-2.383-1-4.652-2.283-6.99-3.38q-3.567-1.673-7.272-3.024-3.625-1.322-7.355-2.328-1.927-.52-3.875-.96a26.621,26.621,0,0,1-3.879-.912A.334.334,0,0,1,2190.192,1862.366Z" transform="translate(-147.813 -116.689)" fill="#a53e2f"/>
      <path id="Trazado_1036987" data-name="Trazado 1036987" d="M2256.056,1838.327c.726-1.074,1.712-1.985,2.525-3a38.187,38.187,0,0,0,2.412-3.35,39.153,39.153,0,0,0,3.573-7.147,54.857,54.857,0,0,0,3.284-16.062c.2-3.1.028-6.21.25-9.3.015-.214.341-.287.394-.053a34.716,34.716,0,0,1,.554,8.444,58.035,58.035,0,0,1-.786,8.328,44.587,44.587,0,0,1-5.6,15.746,31.779,31.779,0,0,1-2.635,3.751,14.628,14.628,0,0,1-3.325,3.287C2256.311,1839.208,2255.788,1838.724,2256.056,1838.327Z" transform="translate(-176.401 -89.406)" fill="#a53e2f"/>
      <path id="Trazado_1036988" data-name="Trazado 1036988" d="M1917.151,1858.851a27.314,27.314,0,0,1,6.415,7.579,36.5,36.5,0,0,1,2.257,4.455,15.032,15.032,0,0,1,1.5,4.642.446.446,0,0,1-.825.223,14.418,14.418,0,0,1-.8-2.174c-.262-.769-.544-1.531-.854-2.283a38.9,38.9,0,0,0-2.145-4.362,63.234,63.234,0,0,0-5.635-8A.055.055,0,0,1,1917.151,1858.851Z" transform="translate(-29.843 -115.164)" fill="#a53e2f"/>
      <path id="Trazado_1036989" data-name="Trazado 1036989" d="M1931.633,1864.382a12.355,12.355,0,0,1,.87-4.629.159.159,0,0,1,.307.085,30.942,30.942,0,0,0-.454,4.545c0,1.467.317,2.881.409,4.332.015.237-.364.352-.464.126A10.936,10.936,0,0,1,1931.633,1864.382Z" transform="translate(-36.144 -115.511)" fill="#a53e2f"/>
      <path id="Trazado_1036990" data-name="Trazado 1036990" d="M1941.136,1872.34a.187.187,0,0,1,.373,0,33.4,33.4,0,0,1,.069,4.787.256.256,0,0,1-.512,0A33.4,33.4,0,0,1,1941.136,1872.34Z" transform="translate(-40.196 -120.925)" fill="#a53e2f"/>
      <path id="Trazado_1036991" data-name="Trazado 1036991" d="M1925.419,1852.055a.159.159,0,0,1,.225.225,4.51,4.51,0,0,0-.973,4.09c.037.192-.253.351-.342.144A4.081,4.081,0,0,1,1925.419,1852.055Z" transform="translate(-32.867 -112.211)" fill="#a53e2f"/>
      <path id="Trazado_1036992" data-name="Trazado 1036992" d="M1923.543,1835.742a8.124,8.124,0,0,1,1.9,1.073,18.722,18.722,0,0,0,2.027,1.1,19.013,19.013,0,0,0,4.459,1.423,20.9,20.9,0,0,0,9.328-.363c.429-.118.581.5.181.654a18.041,18.041,0,0,1-9.711.878,20.3,20.3,0,0,1-4.664-1.439,18.9,18.9,0,0,1-2.245-1.181,5.027,5.027,0,0,1-1.757-1.514A.434.434,0,0,1,1923.543,1835.742Z" transform="translate(-32.413 -105.17)" fill="#a53e2f"/>
      <path id="Trazado_1036993" data-name="Trazado 1036993" d="M1999.188,1877.976a26.088,26.088,0,0,1,7.975-.027,56.81,56.81,0,0,1,7.917,1.352,54.86,54.86,0,0,1,14.908,6.069,32.3,32.3,0,0,1,7.144,5.355c.1.111-.031.3-.168.217-2.221-1.388-4.336-2.937-6.6-4.267a57.808,57.808,0,0,0-7-3.48,55.653,55.653,0,0,0-15.229-3.993c-1.469-.166-2.944-.264-4.421-.331s-2.975.018-4.434-.161C1998.9,1878.663,1998.739,1878.076,1999.188,1877.976Z" transform="translate(-65.24 -123.298)" fill="#a53e2f"/>
      <path id="Trazado_1036994" data-name="Trazado 1036994" d="M2079.138,1877.683c.7-.993,1.625-1.806,2.3-2.824a11,11,0,0,0,1.576-3.5c.019-.082.158-.066.149.02-.235,2.427-1.324,5.6-3.794,6.607C2079.208,1878.055,2079.038,1877.824,2079.138,1877.683Z" transform="translate(-99.916 -120.556)" fill="#a53e2f"/>
      <path id="Trazado_1036995" data-name="Trazado 1036995" d="M2068.614,1877.374a10.667,10.667,0,0,1,1.751-2.07c.656-.711,1.323-1.408,2-2.1.274-.281.652.129.421.421-.6.762-1.213,1.517-1.836,2.263a10.613,10.613,0,0,1-1.832,1.988C2068.8,1878.1,2068.458,1877.675,2068.614,1877.374Z" transform="translate(-95.361 -121.336)" fill="#a53e2f"/>
    </g>
    <g id="Grupo_1202331" data-name="Grupo 1202331" transform="translate(196.79 5511.507)">
      <g id="Grupo_1202330" data-name="Grupo 1202330" transform="translate(0 0)">
        <path id="Trazado_1036874" data-name="Trazado 1036874" d="M472.869,176.052a106.506,106.506,0,0,0,6.373,20.5q1.324,3.176,2.771,6.3a.966.966,0,0,0-.42,1.226,26.387,26.387,0,0,0,2.193,4.642,25.427,25.427,0,0,0,3.594,4.794q.717,1.314,1.454,2.616c.2.347.779.023.611-.332q-.219-.464-.438-.93a8.371,8.371,0,0,0,1.564.844,9.248,9.248,0,0,0,8.409-1.214c5.021-3.232,7.068-9.491,7.71-15.13a70.448,70.448,0,0,0,.31-9.1c-.059-3.689-.24-7.376-.607-11.047a74.407,74.407,0,0,0-4.957-21.061,50.427,50.427,0,0,0-9.9-15.508,39.114,39.114,0,0,0-7.1-5.925,7.428,7.428,0,0,0-4.306-1.645,4.9,4.9,0,0,0-3.329,1.793c-2.02,2.275-2.79,5.661-3.53,8.527a59.751,59.751,0,0,0-1.687,10.168A75.439,75.439,0,0,0,472.869,176.052Z" transform="translate(-325.857 -135.072)" fill="#c9684a"/>
        <path id="Trazado_1036875" data-name="Trazado 1036875" d="M287.65,555.547a60.8,60.8,0,0,0,7.568,3.646c2.672,1.14,5.388,2.174,8.129,3.134,5.545,1.94,11.191,3.571,16.845,5.154,5.5,1.54,28.284-.049,30.692-1.448,1.073-.624,2.121-1.29,3.147-1.987a5.926,5.926,0,0,0,2.351-2.2,2.614,2.614,0,0,0-.809-2.86c-.946-1.023-1.913-2.027-2.868-3.039-.971-1.028-1.932-2.068-2.915-3.085a5.945,5.945,0,0,0-2.779-1.835,9.725,9.725,0,0,0-3.518-.017c-1.162.134-21.629-3.508-23.692-4.609-.128-.069-.255-.14-.382-.209.3-.061.605-.12.907-.184q1.433-.3,2.856-.644a.37.37,0,0,0-.38-.184c-1.842.3-3.687.6-5.536.855a116.85,116.85,0,0,1-23.052,1.106q-2.949-.18-5.882-.531-1.257-.15-2.51-.331.316.209.638.408a5.828,5.828,0,0,0-1.981,2.7C283.6,552.06,285.492,554.245,287.65,555.547Z" transform="translate(-229.091 -347.163)" fill="#c9684a"/>
        <path id="Trazado_1036876" data-name="Trazado 1036876" d="M170.239,500.627a36.3,36.3,0,0,0,2.336,7.869c-.051-.056-.1-.113-.15-.176-.588-.761-1.517.112-1.415.823a24.545,24.545,0,0,0,7.283,14.208c3.551,3.383,8.326,5.7,13.315,4.886.265-.044.527-.1.783-.157,4.511-1.071,7.543-4.83,8.4-9.363a20.03,20.03,0,0,0-2.245-13.144,21.757,21.757,0,0,0-4.011-5.28,21.222,21.222,0,0,0-1.941-1.679,24.176,24.176,0,0,0-9.849-8.469c-.419-.2-1,.131-.837.644.1.309.2.618.3.926a15.83,15.83,0,0,1-5.317-5.509q-.239-.411-.453-.842c-.256-.511-.953-.305-1.121.147a14.739,14.739,0,0,0-.745,7.392,5.047,5.047,0,0,1-1.9-1.726.63.63,0,0,0-1.076,0,13.65,13.65,0,0,0-1.479,4.588A17.576,17.576,0,0,0,170.239,500.627Z" transform="translate(-170 -316.074)" fill="#d67659"/>
        <path id="Trazado_1036877" data-name="Trazado 1036877" d="M473.585,482.217a38.208,38.208,0,0,0,6.385,10.2,111.229,111.229,0,0,0,8.585,9.218,73.7,73.7,0,0,0,9.618,8,18.066,18.066,0,0,0,1.539,1.174,25.886,25.886,0,0,0,3.4,2c.836.417,1.7.816,2.594,1.158a17.215,17.215,0,0,0,5.562,3.51c10.071,4.251,20.858,1.548,30.778-1.707a.653.653,0,0,0,.383-.943,27.886,27.886,0,0,0-3.61-6.025,11.741,11.741,0,0,0-5.684-3.692,57.084,57.084,0,0,0-7.759-1.442l-4.389-.665c-.6-.091-1.2-.156-1.789-.205q-2.166-1.911-4.268-3.894c-1.34-1.259-2.644-2.577-3.987-3.918q-1.75-3.957-3.394-7.96c-1.079-2.628-2.151-5.259-3.185-7.905q-.3-.761-.6-1.521c-.4-1.482-.82-2.957-1.278-4.42a27.922,27.922,0,0,0-5.542-10.631,15.858,15.858,0,0,0-9.181-5.175c-7.957-1.16-13.848,6.055-15.272,13.2A20.679,20.679,0,0,0,473.585,482.217Z" transform="translate(-326.237 -301.695)" fill="#c9684a"/>
        <path id="Trazado_1036878" data-name="Trazado 1036878" d="M205.117,332.274a86.7,86.7,0,0,0,3.563,16.141,32.233,32.233,0,0,0,7.806,12.7q.514.493,1.062.964c.192.165.385.327.581.486a5.833,5.833,0,0,0-2.309,2.422c-1.219,2.541.382,4.95,2.357,6.516a60.737,60.737,0,0,0,7.042,4.582c2.505,1.472,5.066,2.843,7.664,4.145q2.736,1.37,5.52,2.647c3.481,1.6,7,3.118,10.53,4.613,5.255,2.227,10.682,4.917,16.5,5.029a17.227,17.227,0,0,0,3.785-.335,15.186,15.186,0,0,0,2.3-.042,27.22,27.22,0,0,0,8.033-2.175c1.144-.482,2.268-1.009,3.375-1.57a5.93,5.93,0,0,0,2.613-1.882,2.614,2.614,0,0,0-.438-2.94c-.807-1.135-1.638-2.254-2.457-3.379-.519-.714-1.035-1.433-1.554-2.147q-.468-.645-.943-1.284a5.944,5.944,0,0,0-2.523-2.175,9.724,9.724,0,0,0-3.487-.466c-1.169-.015-2.338-.078-3.5-.2a39.83,39.83,0,0,1-13.375-3.835,43.15,43.15,0,0,1-6.033-3.559c-.119-.084-.236-.171-.352-.256.307-.022.616-.042.923-.067q1.459-.114,2.915-.274a89.139,89.139,0,0,0,27.112-7.439,50.138,50.138,0,0,0,11.99-7.151,24.307,24.307,0,0,0,4.393-4.808c.817.006,1.634.013,2.449.027,2.773.047,5.545.143,8.315.257,3.239.131,6.471.36,9.7.572l.395.478q5.236,6.353,10.6,12.6.814.949,1.631,1.9,3.379,3.916,6.847,7.757A20.047,20.047,0,0,0,339.3,373.2a27.166,27.166,0,0,0,2.738,4.624A30.791,30.791,0,0,0,357.7,389.107a31.314,31.314,0,0,0,21.435-1.177.84.84,0,0,0,.383-.943,21.226,21.226,0,0,0-11.64-12.85c-.111-.123-.224-.245-.34-.365q-1.132-1.186-2.223-2.412c-1.453-1.635-2.836-3.327-4.178-5.054-1.5-1.925-2.868-3.936-4.234-5.951-.051-.123-.1-.245-.153-.368a135.392,135.392,0,0,1-5.19-15.143q-.566-2.053-1.085-4.123l.155-.07q.531-.239,1.049-.494a40.072,40.072,0,0,0,14.484-12.147,38.023,38.023,0,0,0,4.253-7.227c.094-.061.187-.123.278-.184a30.2,30.2,0,0,0,4.443-3.649c9.425-9.371,11.689-23.421,8.55-35.961l.346-.077q1.766-.388,3.5-.895a43.4,43.4,0,0,0,8.667-3.406c.4-.218.82-.466,1.244-.741a16.2,16.2,0,0,0,1.383-1q.4.067.8.118c6.139.793,12.464-1.335,16.016-6.622a16.6,16.6,0,0,0,2.3-5.3c.622-.608,1.221-1.241,1.8-1.891a17.4,17.4,0,0,0,3.118-4.256,4.4,4.4,0,0,0-.505-4.162c-.867-1.428-1.939-2.758-2.939-4.1q-3.1-4.149-6.42-8.12-3.36-4.02-6.931-7.854l-.846-.907q-.5-.917-1.029-1.819-.73-1.246-1.506-2.454a34.5,34.5,0,0,0-8.509-9.383,24.744,24.744,0,0,0-12.733-4.491c-4.993-.394-9.992.3-14.956.778-2.5.24-5.017.436-7.534.427-1,0-2-.064-3-.136l-.971-.071c-3.5-11.125-7.757-22.305-14.806-31.707a50.787,50.787,0,0,0-12.768-12.194,47.829,47.829,0,0,0-26.49-7.692,43.636,43.636,0,0,0-4.73.309,5.912,5.912,0,0,0-3.5,1.3,3.8,3.8,0,0,0-.6,4.075c.471,1.445,1.065,2.859,1.632,4.268q1.73,4.3,3.723,8.479a147.357,147.357,0,0,0,32.087,43.991q3.342,3.14,6.875,6.067c.671.555,1.344,1.107,2.022,1.649.092.276.183.551.265.831a18.554,18.554,0,0,1,.851,4.379c.015.259.023.519.023.778a12.124,12.124,0,0,1-2.164,7.117c-1.171.154-2.345.279-3.528.351-.567.038-1.135.061-1.707.07a87.333,87.333,0,0,1-11.572-.71c-7.056-.82-14.083-2.064-21.2-2.193a54.676,54.676,0,0,0-19.586,3.269,86.976,86.976,0,0,0-17.606,9.02l-.2.129a107.093,107.093,0,0,0-26.531,10.607q-1.082.619-2.145,1.273a68.368,68.368,0,0,0-19.9,18.14,53.123,53.123,0,0,0-6.753,12.613,49.648,49.648,0,0,0-2.917,15.626A98.721,98.721,0,0,0,205.117,332.274Z" transform="translate(-187.437 -149.533)" fill="#d67659"/>
        <path id="Trazado_1036879" data-name="Trazado 1036879" d="M473.266,322.636c.122.786.278,1.558.452,2.307,1.945,8.394,5.573,16.744,11.928,22.744.66.622,2.056.01,1.661-.966a109.224,109.224,0,0,1-5.213-16.621,58.092,58.092,0,0,0,2.943,5.506c5.739,9.444,14.477,17.24,25.3,20.147a37.272,37.272,0,0,0,13.092,1.166q1.766-.387,3.5-.895a43.4,43.4,0,0,0,8.667-3.406c.4-.218.82-.466,1.244-.741a16.207,16.207,0,0,0,1.383-1q.4.067.8.118c.5-.411.984-.846,1.445-1.307.22-.22-.072-.614-.337-.436a40.623,40.623,0,0,1-4.305,2.526.991.991,0,0,0-1.542-.646,20.425,20.425,0,0,1-2.507,1.468c-6.856,3.363-15.055,1.9-21.826-1.121-26.294-11.741-30.28-42.1-31.861-41.471a18.555,18.555,0,0,1,.851,4.379c.015.259.023.519.023.778a12.124,12.124,0,0,1-2.164,7.117C475.623,322.44,474.449,322.564,473.266,322.636Z" transform="translate(-326.838 -225.54)" fill="#c9684a"/>
        <g id="Grupo_1202328" data-name="Grupo 1202328" transform="translate(16.28 118.562)">
          <path id="Trazado_1036880" data-name="Trazado 1036880" d="M205.117,444.805a86.7,86.7,0,0,0,3.563,16.141,32.232,32.232,0,0,0,7.806,12.7q.514.493,1.062.964c.192.165.385.327.581.486a5.833,5.833,0,0,0-2.309,2.422c-1.219,2.541.382,4.95,2.357,6.516a60.741,60.741,0,0,0,7.042,4.582c2.505,1.472,5.066,2.843,7.664,4.145q2.736,1.37,5.52,2.647c.451.055.9.1,1.35.151a95.1,95.1,0,0,0,29.449-1.663,97.826,97.826,0,0,0,11.9-3.316q-.468-.645-.943-1.284a5.943,5.943,0,0,0-2.523-2.175,9.72,9.72,0,0,0-3.487-.466c-1.169-.015-2.338-.078-3.5-.2a39.831,39.831,0,0,1-13.375-3.835,43.153,43.153,0,0,1-6.033-3.559c-.119-.084-.236-.171-.352-.256.307-.022.616-.042.923-.067q1.459-.114,2.915-.274a89.139,89.139,0,0,0,27.112-7.439,50.134,50.134,0,0,0,11.99-7.151,24.306,24.306,0,0,0,4.393-4.808c.817.006,1.634.013,2.449.027,2.773.047,5.545.143,8.315.257,3.239.131,6.471.36,9.7.572q.2.239.394.478-3.832-5.572-7.132-11.486a108.774,108.774,0,0,1-6.8-14.09,2.523,2.523,0,0,0-2.31-1.758,2.418,2.418,0,0,0-2.31,1.758c-.237,1.027-.407,2.059-.547,3.1-.161,1.2-.226,1.807-.321,3.022-.154,1.942-.223,3.886-.312,5.832-.047,1.034-.122,2.066-.24,3.095-.01.084-.017.148-.022.2s-.02.109-.036.192c-.033.184-.061.369-.094.553-.084.458-.182.915-.295,1.369q-.2.818-.478,1.619c-.038.108-.318.822-.284.764a18.03,18.03,0,0,1-.885,1.741,19.855,19.855,0,0,1-1.185,1.789c-.025.014-.416.516-.5.613-.234.27-.472.534-.718.792a23.227,23.227,0,0,1-1.723,1.628c-.248.212-.5.418-.812.66-.178.129-.352.26-.532.387a31.959,31.959,0,0,1-3.9,2.346c-.7.36-1.42.687-2.326,1.091l-.421.169q-.529.211-1.062.407c-1.487.549-3,1.02-4.538,1.425-1.726.455-3.474.822-5.23,1.138-2.189.394-3.665.6-5.748.812a85.464,85.464,0,0,1-12.314.352q-3.043-.133-6.071-.483c-1.082-.125-1.609-.2-2.809-.387q-1.466-.234-2.925-.519a61.126,61.126,0,0,1-9.959-2.766c-.459-.173-.914-.353-1.4-.553l-.192-.085c-.159-.069-.317-.137-.474-.209-.74-.334-1.47-.686-2.19-1.062a36.483,36.483,0,0,1-4.223-2.572c-.229-.162-.453-.329-.746-.544-.3-.237-.6-.479-.888-.726q-.913-.776-1.762-1.624-.935-.938-1.779-1.961l-.212-.264c-.081-.107-.291-.383-.291-.383q-.391-.533-.756-1.086-.8-1.216-1.477-2.507-.308-.587-.591-1.185c-.076-.16-.149-.319-.223-.481,0-.006-.2-.448-.215-.482a38.7,38.7,0,0,1-1.708-5.157,52.661,52.661,0,0,1-1.09-5.361c-.038-.248-.073-.5-.122-.848-.047-.394-.1-.789-.139-1.183q-.127-1.184-.209-2.368a66.791,66.791,0,0,1,.059-9.922q.106-1.294.257-2.582c.019-.156.039-.312.058-.467.006-.054.013-.1.015-.131s.011-.072.017-.118c.056-.39.112-.78.174-1.167q.386-2.453.945-4.872a75.011,75.011,0,0,1,2.8-9.3q.456-1.225.954-2.436c.008-.017.165-.4.181-.435.042-.1.084-.2.126-.292.157-.366.318-.73.482-1.093.2-.435.4-.87.6-1.3.084-.18.173-.359.259-.538.07-.151.288-.625.316-.692q.479-1.01.982-2.006a83.506,83.506,0,0,1,10.859-16.336q.341-.4.688-.8a68.367,68.367,0,0,0-19.9,18.14,53.125,53.125,0,0,0-6.753,12.613,49.649,49.649,0,0,0-2.917,15.627A98.72,98.72,0,0,0,205.117,444.805Z" transform="translate(-203.717 -380.626)" fill="#c9684a"/>
          <path id="Trazado_1036881" data-name="Trazado 1036881" d="M263.608,555.624l.194.085Z" transform="translate(-234.685 -471.126)" fill="#c9684a"/>
        </g>
        <path id="Trazado_1036882" data-name="Trazado 1036882" d="M230.686,584.691a60.732,60.732,0,0,0,7.042,4.582c2.505,1.472,5.066,2.843,7.664,4.145,5.252,2.631,10.644,4.968,16.05,7.26,5.255,2.227,10.682,4.917,16.5,5.029a17.226,17.226,0,0,0,3.785-.335,15.186,15.186,0,0,0,2.3-.042,27.223,27.223,0,0,0,8.033-2.175c1.144-.482,2.268-1.009,3.375-1.57a5.93,5.93,0,0,0,2.613-1.882,2.614,2.614,0,0,0-.438-2.94c-.807-1.135-1.638-2.254-2.457-3.379-.832-1.144-1.653-2.3-2.5-3.431a5.943,5.943,0,0,0-2.523-2.175,9.723,9.723,0,0,0-3.487-.466c-1.169-.015-2.338-.078-3.5-.2a39.83,39.83,0,0,1-13.375-3.835,43.142,43.142,0,0,1-6.033-3.559c-.119-.084-.236-.171-.352-.256.307-.022.616-.042.923-.067q1.459-.115,2.915-.274a.371.371,0,0,0-.354-.231c-1.866.066-3.734.128-5.6.142a116.853,116.853,0,0,1-23-1.843q-2.9-.554-5.767-1.277-1.228-.309-2.448-.648c.192.165.385.327.581.486a5.833,5.833,0,0,0-2.309,2.422C227.11,580.716,228.711,583.124,230.686,584.691Z" transform="translate(-199.946 -362.724)" fill="#d67659"/>
        <g id="Grupo_1202329" data-name="Grupo 1202329" transform="translate(182.498 82.127)">
          <path id="Trazado_1036883" data-name="Trazado 1036883" d="M548.405,315.061c.056,0,.112-.007.168-.012.522-.052,1.442,1.636,1.688,1.991.725,1.044,1.617,3.207,2.456,4.166,1.8,2.053,3.36,2.727,6.029,3.436a9.05,9.05,0,0,0,4.988-.187c1.123-.44,2.57-1.594,3.673-.463a.691.691,0,0,0,1.072-.182c1.186-2.613.19-5.7-.961-8.115-3.759-7.877-13.806-6.724-19.372-1.44C547.838,314.546,547.944,315.075,548.405,315.061Z" transform="translate(-547.971 -307.685)" fill="#fbecfb"/>
          <path id="Trazado_1036884" data-name="Trazado 1036884" d="M556.851,316.644c-.471,3.137,2.564,6.062,5.235,7.094,2.816,1.088,6.882.807,8.39-2.225,2.044-4.112-1.7-8.051-5.883-9.011C561.171,311.715,557.385,313.086,556.851,316.644Z" transform="translate(-552.538 -308.848)" fill="#221320"/>
          <path id="Trazado_1036885" data-name="Trazado 1036885" d="M553.4,308.611a3.889,3.889,0,0,1,.726-1.072,7.3,7.3,0,0,1,1.173-.9,10.894,10.894,0,0,1,2.783-1.109,12.127,12.127,0,0,1,14.434,7.723,13.46,13.46,0,0,1,.827,3.241c.109.881.317,2.381-.323,3.1a.185.185,0,0,1-.288-.026,3.6,3.6,0,0,1-.373-1.521c-.088-.521-.148-1.043-.264-1.559a14.153,14.153,0,0,0-1.128-3.263,12.059,12.059,0,0,0-4.627-5.037,10.785,10.785,0,0,0-9.379-.537c-.494.208-.97.469-1.442.722-.516.276-1.03.5-1.548.755C553.644,309.3,553.18,308.989,553.4,308.611Z" transform="translate(-550.75 -305.165)" fill="#a53e2f"/>
        </g>
        <path id="Trazado_1036886" data-name="Trazado 1036886" d="M598.9,364.942a.074.074,0,0,1,.122.032,7.619,7.619,0,0,1,.281,1.459c.154.4.255.771.4,1.133.091.227.189.46.268.7a5.479,5.479,0,0,0,.793,1.071c.233.24.505.433.735.667.248.183.5.361.756.523a7.541,7.541,0,0,0,3.823,1.11,14.118,14.118,0,0,0,7.11-1.813,16.568,16.568,0,0,0,5.141-4.391,18.736,18.736,0,0,0,1.784-2.834c.326-.624.59-1.276.878-1.915a3.846,3.846,0,0,1-.358-1.423c-.123-.913-.229-1.83-.352-2.743a23.1,23.1,0,0,1-.448-5.282c.008-.087.129-.138.177-.048a18.231,18.231,0,0,1,1.492,5.15c.181.9.364,1.8.514,2.7a3.009,3.009,0,0,1-.027,1.752,11.924,11.924,0,0,1-1.854,4.409,17.307,17.307,0,0,1-4.036,4.389c-3.3,2.556-7.878,4.208-12.057,3.224A6.777,6.777,0,0,1,599.789,370a6.049,6.049,0,0,1-.931-1.594C598.475,367.427,598.1,365.809,598.9,364.942Z" transform="translate(-391.568 -246.812)" fill="#a53e2f"/>
        <path id="Trazado_1036887" data-name="Trazado 1036887" d="M622.812,375.65a.754.754,0,0,1,.63-.361.732.732,0,0,1,.63.361,1.333,1.333,0,0,1,.012,1.372.8.8,0,0,1-.67.384.777.777,0,0,1-.67-.384A1.324,1.324,0,0,1,622.812,375.65Z" transform="translate(-404.06 -259.304)" fill="#a53e2f"/>
        <path id="Trazado_1036888" data-name="Trazado 1036888" d="M614.929,365.131a.646.646,0,0,1,.1-.322.866.866,0,0,1,.773-.469.917.917,0,0,1,.621.257.907.907,0,0,1,.257.621.866.866,0,0,1-.435.759,1,1,0,0,1-.585.118.823.823,0,0,1-.5-.238,1.024,1.024,0,0,1-.222-.382A.656.656,0,0,1,614.929,365.131Z" transform="translate(-400.093 -253.642)" fill="#a53e2f"/>
        <path id="Trazado_1036889" data-name="Trazado 1036889" d="M610.793,375.569a.7.7,0,0,1,.153-.181l.236-.185a.668.668,0,0,1,.424-.176.61.61,0,0,1,.423.176.6.6,0,0,1,.176.423c-.007.054-.014.107-.021.16a.6.6,0,0,1-.155.264l-.124.157a.874.874,0,0,1-.243.231l-.152.064a.482.482,0,0,1-.253.011.6.6,0,0,1-.365-.175.754.754,0,0,1-.164-.281A.642.642,0,0,1,610.793,375.569Z" transform="translate(-397.917 -259.168)" fill="#a53e2f"/>
        <path id="Trazado_1036890" data-name="Trazado 1036890" d="M509.515,374.54c1.6,1.464,2.776,3.377,4.263,4.958a30.579,30.579,0,0,0,5.118,4.37,30.887,30.887,0,0,0,12.319,4.9c1.194.194,2.4.279,3.608.382.646.055,1.3.067,1.94.127a7.227,7.227,0,0,1,1.812.262.385.385,0,0,1,.091.694,7.389,7.389,0,0,1-3.272.676,17.336,17.336,0,0,1-3.526-.161,30.372,30.372,0,0,1-6.88-1.7,31.558,31.558,0,0,1-11.744-7.73c-1.7-1.8-3.654-4.042-4.132-6.548A.243.243,0,0,1,509.515,374.54Z" transform="translate(-345.374 -258.881)" fill="#a53e2f"/>
        <path id="Trazado_1036891" data-name="Trazado 1036891" d="M486.6,339.874a35.269,35.269,0,0,0,1.477,5.562c.326.932.673,1.852,1.081,2.751a20.344,20.344,0,0,1,1.106,2.567c.113.384-.419.727-.7.405a14.985,14.985,0,0,1-2.445-5.314,27.255,27.255,0,0,1-1.041-5.9C486.058,339.651,486.546,339.581,486.6,339.874Z" transform="translate(-333.465 -240.891)" fill="#a53e2f"/>
        <path id="Trazado_1036892" data-name="Trazado 1036892" d="M504.51,472.732c.616-2.367,1.345-5.076,2.882-7.019.036-.045.114-.007.113.046a26.4,26.4,0,0,1-.793,4.2c-.287,1.389-.632,2.765-.9,4.158a66.478,66.478,0,0,0-1.16,8.9,80.287,80.287,0,0,0-.118,8.776c.159,2.951.652,5.872,1.02,8.8.037.294-.4.312-.488.066a34.987,34.987,0,0,1-1.574-6.878,51.783,51.783,0,0,1-.679-6.943A54.111,54.111,0,0,1,504.51,472.732Z" transform="translate(-342.116 -306.057)" fill="#a53e2f"/>
        <path id="Trazado_1036893" data-name="Trazado 1036893" d="M414.546,492.878c.3.748.8,1.44,1.142,2.179q.479,1.019.944,2.046c.639,1.413,1.338,2.8,2.037,4.18,1.383,2.739,2.942,5.38,4.583,7.972,3.276,5.175,6.953,10.111,10.727,14.93,2.117,2.7,4.529,5.232,6.419,8.1.18.272-.211.543-.436.337a74.7,74.7,0,0,1-6.274-7.008c-2.031-2.4-4.062-4.791-5.992-7.273a93.783,93.783,0,0,1-9.972-15.585c-.761-1.525-1.439-3.084-2.063-4.67-.324-.825-.618-1.659-.874-2.508s-.32-1.757-.551-2.616C414.181,492.759,414.47,492.692,414.546,492.878Z" transform="translate(-296.306 -320.06)" fill="#a53e2f"/>
        <path id="Trazado_1036894" data-name="Trazado 1036894" d="M550.374,612.9a11.442,11.442,0,0,1,1.675,1.9,15.342,15.342,0,0,1,1.113,2.256,19.552,19.552,0,0,1,.824,2.387c.223.8.542,1.563-.013,2.273a.669.669,0,0,1-.806.1c-.689-.385-.686-1.216-.865-1.913-.2-.78-.447-1.547-.712-2.307-.251-.716-.566-1.4-.85-2.106-.31-.768-.5-1.577-.807-2.335C549.832,612.908,550.2,612.728,550.374,612.9Z" transform="translate(-366.479 -382.153)" fill="#a53e2f"/>
        <path id="Trazado_1036895" data-name="Trazado 1036895" d="M543.348,618.194a.251.251,0,0,1,.415-.11c.694.738.729,2.053.865,3.012a17.168,17.168,0,0,1,.25,3.476.643.643,0,0,1-1.286,0c-.047-1.109.012-2.216-.072-3.326C543.447,620.3,543.041,619.114,543.348,618.194Z" transform="translate(-363.023 -384.831)" fill="#a53e2f"/>
        <path id="Trazado_1036896" data-name="Trazado 1036896" d="M268.435,550.354a141.28,141.28,0,0,0,15.005.069,86.815,86.815,0,0,0,29.3-7.184,55.376,55.376,0,0,0,13.014-7.528,18.17,18.17,0,0,0,5.233-6.265,19.219,19.219,0,0,0,1.224-4c.3-1.419.669-2.825.889-4.259.009-.057.1-.042.1.014,0,1.324.148,2.649.017,3.969a18.987,18.987,0,0,1-.663,3.619,15.221,15.221,0,0,1-3.828,6.244c-3.613,3.712-8.323,6.284-12.947,8.512a88.57,88.57,0,0,1-30,8.335q-4.324.412-8.674.392a52.427,52.427,0,0,1-8.823-.767C267.63,551.39,267.783,550.328,268.435,550.354Z" transform="translate(-220.611 -334.737)" fill="#a53e2f"/>
        <path id="Trazado_1036897" data-name="Trazado 1036897" d="M204.438,491.336a.1.1,0,0,1,.173-.023,14.156,14.156,0,0,1,1.005,4.169c.228,1.467.449,2.936.675,4.4.46,2.98.974,5.959,1.637,8.9a54.7,54.7,0,0,0,6.346,16.6,29.353,29.353,0,0,0,2.83,3.976,35.279,35.279,0,0,0,3.65,3.332c.462.4-.035,1.105-.569.977-2.849-.686-4.889-3.6-6.437-5.881a44.681,44.681,0,0,1-4.305-8.157,72.5,72.5,0,0,1-4.419-17.99c-.23-1.735-.437-3.472-.58-5.216A15.909,15.909,0,0,1,204.438,491.336Z" transform="translate(-187.699 -319.283)" fill="#a53e2f"/>
        <path id="Trazado_1036898" data-name="Trazado 1036898" d="M397.435,398.765c.09-.6.174-1.212.323-1.805a17.41,17.41,0,0,1,1.251-3.354,17.877,17.877,0,0,1,1.908-3.113,8.776,8.776,0,0,1,2.279-2.382c.141-.081.37.057.3.231a25.142,25.142,0,0,1-1.613,2.716,33.452,33.452,0,0,0-1.516,3.041c-.457,1.061-.836,2.153-1.19,3.252-.16.5-.339.987-.475,1.493a6.051,6.051,0,0,1-.483,1.609.473.473,0,0,1-.855-.112A3.96,3.96,0,0,1,397.435,398.765Z" transform="translate(-287.554 -265.922)" fill="#a53e2f"/>
        <path id="Trazado_1036899" data-name="Trazado 1036899" d="M402.535,413.95a.343.343,0,0,1,.593.346,21.342,21.342,0,0,0-1.253,2.82c-.31.85-.53,1.76-.917,2.577-.151.317-.642.151-.64-.173C400.327,417.558,401.482,415.537,402.535,413.95Z" transform="translate(-289.112 -279.214)" fill="#a53e2f"/>
        <path id="Trazado_1036900" data-name="Trazado 1036900" d="M344.344,425.746a15.776,15.776,0,0,1,3.435,2.23c1.111.852,2.215,1.722,3.25,2.667a64.7,64.7,0,0,1,5.837,6.119,66.212,66.212,0,0,1,9.1,14.047,30.853,30.853,0,0,1,3.053,8.966c.025.182-.213.324-.321.135-1.336-2.364-2.327-4.905-3.569-7.319a78.418,78.418,0,0,0-4.082-7.118,70.7,70.7,0,0,0-10.443-12.648c-1.081-1.027-2.166-2.053-3.282-3.041-.557-.493-1.115-.984-1.665-1.484a18.7,18.7,0,0,1-1.848-1.636C343.5,426.293,343.784,425.52,344.344,425.746Z" transform="translate(-259.822 -285.377)" fill="#a53e2f"/>
        <path id="Trazado_1036901" data-name="Trazado 1036901" d="M394.212,171.618a12.142,12.142,0,0,1,4.226-.6,28.44,28.44,0,0,1,4.247.2,35.677,35.677,0,0,1,16.1,6.51c10.1,7.15,16.234,18.311,20.782,29.544,2.831,7,5.433,14.306,5.543,21.939a.7.7,0,0,1-.87.662c-.809-.128-4.4-2.727-4.4-2.727s2.273,4.583,1.63,5.712c-.66,1.158-5.361-2.682-5.361-2.682s-.534,2.156-1.16,2.268a4.646,4.646,0,0,1-3.685-1.381,43.962,43.962,0,0,1-3.438-3.6q-2.815-3.056-5.562-6.174c-2.7-3.066-5.332-6.186-7.88-9.377a163.275,163.275,0,0,1-11.774-16.6c-1.784-2.916-3.453-5.9-4.975-8.965q-1.141-2.3-2.171-4.652a24.214,24.214,0,0,1-1.606-4.139c-.131-.567-.835-2.271-1.118-3.2a3.179,3.179,0,0,1-.109-.444A2.241,2.241,0,0,1,394.212,171.618Z" transform="translate(-285.126 -153.655)" fill="#fa9da6"/>
        <path id="Trazado_1036902" data-name="Trazado 1036902" d="M392.63,173.906a3.179,3.179,0,0,0,.109.444,80.555,80.555,0,0,1,9.5,4.047,66.524,66.524,0,0,1,28.874,29.139A64.861,64.861,0,0,1,435,216.976c.647,2.017,2.878,7.724-.617,8.427a5.933,5.933,0,0,1-2.932-.438c-.937-.31-1.866-.646-2.79-.992q-2.981-1.118-5.876-2.447c-.174-.081-.349-.161-.524-.243q2.743,3.122,5.562,6.174a43.962,43.962,0,0,0,3.438,3.6,4.646,4.646,0,0,0,3.685,1.381c.625-.112,1.16-2.268,1.16-2.268s4.7,3.84,5.361,2.682c.644-1.129-1.63-5.712-1.63-5.712s3.594,2.6,4.4,2.727a.7.7,0,0,0,.87-.662c-.111-7.633-2.713-14.94-5.543-21.939-4.547-11.234-10.682-22.394-20.782-29.544a35.677,35.677,0,0,0-16.1-6.51,28.44,28.44,0,0,0-4.247-.2,12.142,12.142,0,0,0-4.226.6A2.241,2.241,0,0,0,392.63,173.906Z" transform="translate(-285.126 -153.655)" fill="#f0858d"/>
        <path id="Trazado_1036903" data-name="Trazado 1036903" d="M463.689,264.215a1.549,1.549,0,0,1,1.805-1.531,2.6,2.6,0,0,1,1.789,2.089c.164.829.07,2.154-.931,2.418a1.215,1.215,0,0,1-.866-.088,2,2,0,0,1-1.039-.567A3.279,3.279,0,0,1,463.689,264.215Z" transform="translate(-321.88 -201.052)" fill="#f0858d"/>
        <path id="Trazado_1036904" data-name="Trazado 1036904" d="M457.018,262.453a.726.726,0,0,1,.387-.3.661.661,0,0,1,.344,0,.708.708,0,0,1,.391.2.934.934,0,0,1,.212.391.665.665,0,0,1-.17.643.658.658,0,0,1-.643.17.856.856,0,0,1-.442-.286.7.7,0,0,1-.149-.35l-.019-.146A.644.644,0,0,1,457.018,262.453Z" transform="translate(-318.389 -200.783)" fill="#f0858d"/>
        <path id="Trazado_1036905" data-name="Trazado 1036905" d="M462.657,253.225a.553.553,0,0,1,.917-.308,1.036,1.036,0,0,1,.425.522.89.89,0,0,1,.036.395,1.3,1.3,0,0,1-.117.343.639.639,0,0,1-.5.326.711.711,0,0,1-.574-.188.8.8,0,0,1-.285-.48A.907.907,0,0,1,462.657,253.225Z" transform="translate(-321.294 -195.94)" fill="#f0858d"/>
        <path id="Trazado_1036906" data-name="Trazado 1036906" d="M403.258,192.166a.819.819,0,0,1,.495-.554.891.891,0,0,1,.761.043,1.791,1.791,0,0,1,.725.631,1.427,1.427,0,0,1,.22,1.083.576.576,0,0,1-.137.284.682.682,0,0,1-.857.633,1.851,1.851,0,0,1-.585-.334.95.95,0,0,1-.095-.088q.144.11-.1-.08a1.152,1.152,0,0,1-.228-.271A1.832,1.832,0,0,1,403.258,192.166Z" transform="translate(-290.608 -164.278)" fill="#f0858d"/>
        <path id="Trazado_1036907" data-name="Trazado 1036907" d="M399.205,186.719a.488.488,0,0,1,.643.039c.1.114.213.225.315.342a.753.753,0,0,1,.186.636.381.381,0,0,1-.472.36.752.752,0,0,1-.557-.346c-.084-.13-.161-.266-.241-.4A.49.49,0,0,1,399.205,186.719Z" transform="translate(-288.437 -161.729)" fill="#f0858d"/>
        <path id="Trazado_1036908" data-name="Trazado 1036908" d="M458.169,184.312c5.535,2.057,9.817,6.992,13.168,11.677a67.5,67.5,0,0,1,8.6,17.408,33.932,33.932,0,0,1,1.573,5.541c.144.9.412,1.781.639,2.665a12.068,12.068,0,0,1,.338,1.4,3.829,3.829,0,0,1-.1,1.168.177.177,0,0,1-.293.077,4.375,4.375,0,0,1-1.046-1.744c-.28-.77-.549-1.547-.851-2.308-.605-1.527-1.331-3.01-1.9-4.557-1.131-3.048-2.353-6.079-3.732-9.024a56.062,56.062,0,0,0-9.8-14.87c-2.224-2.35-4.712-4.4-7.076-6.6C457.336,184.817,457.7,184.136,458.169,184.312Z" transform="translate(-318.709 -160.522)" fill="#e38a71"/>
        <path id="Trazado_1036909" data-name="Trazado 1036909" d="M431.068,171.519c.453.05.9.045,1.351.084a6.836,6.836,0,0,1,1.394.375c.894.281,1.772.607,2.636.97a15.7,15.7,0,0,1,2.464,1.242,26.083,26.083,0,0,1,2.208,1.775c.123.1-.034.267-.159.207-.838-.4-1.743-.663-2.61-1-.814-.316-1.608-.677-2.424-.986q-1.165-.44-2.365-.778c-.436-.123-.918-.189-1.341-.344s-.841-.376-1.294-.511C430.386,172.391,430.456,171.451,431.068,171.519Z" transform="translate(-304.753 -153.919)" fill="#e38a71"/>
        <path id="Trazado_1036910" data-name="Trazado 1036910" d="M513.9,569.523a10.452,10.452,0,0,1,3.281,3.133q1.451,1.891,3.032,3.677c1.031,1.166,2.065,2.333,3.135,3.462.573.6,1.123,1.2,1.641,1.857a6.434,6.434,0,0,1,1.093,2.057.62.62,0,0,1-.755.755,5.849,5.849,0,0,1-2.117-1.033,16.3,16.3,0,0,1-1.826-1.673c-1.139-1.2-2.223-2.439-3.237-3.748-.993-1.281-1.948-2.59-2.854-3.934a8.559,8.559,0,0,1-1.724-4.364A.222.222,0,0,1,513.9,569.523Z" transform="translate(-347.684 -359.741)" fill="#e38a71"/>
        <path id="Trazado_1036911" data-name="Trazado 1036911" d="M505.5,543.009c.019-.437.181-.844.225-1.276a.147.147,0,0,1,.287-.039c.14.355.393.677.548,1.03s.247.724.37,1.084c.247.726.475,1.453.71,2.183s.519,1.442.778,2.164a4.815,4.815,0,0,1,.265,2.137.5.5,0,0,1-.848.351,4.057,4.057,0,0,1-1.272-1.828,20.571,20.571,0,0,1-.637-2.352,15.173,15.173,0,0,1-.359-2.187A10.321,10.321,0,0,1,505.5,543.009Z" transform="translate(-343.507 -345.309)" fill="#e38a71"/>
        <path id="Trazado_1036912" data-name="Trazado 1036912" d="M297.62,587.865c1.131-.2,2.064.677,2.991,1.229s1.862,1.09,2.8,1.62a37.084,37.084,0,0,1,5.455,3.246.251.251,0,0,1-.176.424,16.3,16.3,0,0,1-6.21-1.8c-1.036-.456-2.039-.957-3.026-1.511-.88-.494-2.208-1-2.487-2.059A.943.943,0,0,1,297.62,587.865Z" transform="translate(-235.648 -369.225)" fill="#e38a71"/>
        <path id="Trazado_1036913" data-name="Trazado 1036913" d="M334.748,601.006c.989-.492,2.273-.1,3.322.062a26.705,26.705,0,0,1,3.5,1,.264.264,0,0,1-.07.517,26.844,26.844,0,0,1-3.658.2c-1.068-.077-2.366.008-3.229-.7A.69.69,0,0,1,334.748,601.006Z" transform="translate(-255.026 -375.912)" fill="#e38a71"/>
        <path id="Trazado_1036914" data-name="Trazado 1036914" d="M547.434,537.532a9.248,9.248,0,0,1,2.066,1.681c.67.626,1.354,1.239,2,1.89a28.058,28.058,0,0,1,3.391,4.059c.161.237-.151.512-.38.38a28.153,28.153,0,0,1-4.333-3.116c-.658-.564-1.285-1.166-1.922-1.753a9.661,9.661,0,0,1-1.922-2.041A.81.81,0,0,1,547.434,537.532Z" transform="translate(-364.565 -343.164)" fill="#d67659"/>
        <path id="Trazado_1036915" data-name="Trazado 1036915" d="M538.2,514.032a.367.367,0,0,1,.718-.1c.438,1.26,1.006,2.491,1.492,3.736a21.566,21.566,0,0,1,1.389,3.741c.144.791-.829,1.56-1.465.853a9.417,9.417,0,0,1-1.793-3.931A15.041,15.041,0,0,1,538.2,514.032Z" transform="translate(-360.411 -330.873)" fill="#d67659"/>
        <path id="Trazado_1036916" data-name="Trazado 1036916" d="M519.489,346.046c.972,9.582,10.411,17.924,20.227,16.125,4.736-.868,8.95-5.039,8.511-10.111a6.785,6.785,0,0,0-2.781-5.107.5.5,0,0,0-.355-.8,21.027,21.027,0,0,1-2.23-.137c-.378-.067-.763-.117-1.148-.161a18.892,18.892,0,0,1-14.288-10.593.928.928,0,0,0-.823-.473C521.139,335.048,519.021,341.434,519.489,346.046Z" transform="translate(-350.711 -238.358)" fill="#e38a71"/>
        <path id="Trazado_1036917" data-name="Trazado 1036917" d="M548.969,328.135a.463.463,0,0,1,.77-.2,10.719,10.719,0,0,1,.986,1.607c.333.539.623,1.1.988,1.618a10.714,10.714,0,0,0,2.905,2.751,13.656,13.656,0,0,0,7.591,1.908.389.389,0,0,1,.1.761,5.988,5.988,0,0,1-2.206.565,10.226,10.226,0,0,1-2.192-.211,12.3,12.3,0,0,1-7.476-4.663C549.594,331.155,548.677,329.586,548.969,328.135Z" transform="translate(-365.96 -234.743)" fill="#e38a71"/>
        <path id="Trazado_1036918" data-name="Trazado 1036918" d="M587.371,275.106a6.139,6.139,0,0,1,1.291.315c1.306-.2,2.71,1.093,3.587,1.866q1.427,1.258,2.726,2.652a14.348,14.348,0,0,1,3.989,6.706c.131.629-.569,1.354-1.192.916a41.484,41.484,0,0,1-5.362-5.056q-1.295-1.305-2.709-2.484c-.831-.692-2.158-1.589-2.368-2.757a6.833,6.833,0,0,1-.662-.938A.819.819,0,0,1,587.371,275.106Z" transform="translate(-385.441 -207.492)" fill="#e38a71"/>
        <path id="Trazado_1036919" data-name="Trazado 1036919" d="M595.023,309.8c.021-.136.219-.141.281-.036a28.506,28.506,0,0,1,1.78,3.431c.518,1.216.989,2.452,1.513,3.665.563,1.3,1.285,2.532,1.846,3.834q.347.806.716,1.6a3.986,3.986,0,0,1,.441,2.7,1.981,1.981,0,0,1-2.887,1.175c-1.383-.847-1.95-2.839-2.371-4.351-.36-1.294-.583-2.648-.851-3.964a39.629,39.629,0,0,1-.643-4.06A15.663,15.663,0,0,1,595.023,309.8Z" transform="translate(-389.684 -225.377)" fill="#e38a71"/>
        <path id="Trazado_1036920" data-name="Trazado 1036920" d="M336.343,345.8a23.424,23.424,0,0,1,2.378-2.248,30.339,30.339,0,0,1,2.68-2.213c1.744-1.22,3.562-2.319,5.37-3.439.844-.522,1.706-1.092,2.59-1.535a25.577,25.577,0,0,1,3.613-1.4,30.594,30.594,0,0,1,6.732-1.218c8.645-.757,17.325,1.239,25.8,2.691,2.631.451,4.472.674,7.07,1.027-.36-.049.54.067.468.058q.549.066,1.1.123c.642.066,1.279.123,1.917.221.548.084,1.1.148,1.645.217a6.984,6.984,0,0,1,1.92.66c.805.35.617,1.492,0,1.893-1.846,1.2-4.152,1.334-6.305,1.438a48.877,48.877,0,0,1-6.326-.153c-2.114-.171-4.226-.394-6.331-.647-1.174-.141-2.343-.323-3.514-.489q-.826-.118-1.652-.232l-.519-.071-.631-.083a80.141,80.141,0,0,0-12.494-.81c-.984.028-1.967.087-2.946.185-.267.027-.534.058-.8.088l-.116.013-.159.027c-.532.087-1.061.186-1.592.28-2.069.367-4.122.842-6.145,1.4a30.573,30.573,0,0,0-6.332,2.694c-1.07.57-2.169,1.061-3.268,1.574a30.087,30.087,0,0,1-3.276,1.454C336.3,347.6,335.8,346.431,336.343,345.8Z" transform="translate(-255.912 -237.734)" fill="#e38a71"/>
        <path id="Trazado_1036921" data-name="Trazado 1036921" d="M277.371,413.429c4.975,3.343,9.969,6.662,14.922,10.038,2.1,1.432,4.2,2.874,6.235,4.392.314.233.625.469.937.7l.155.119.152.118q.649.508,1.289,1.027,1.291,1.048,2.538,2.146a86,86,0,0,1,9.339,9.612q.571.688,1.128,1.387c.159.2.315.4.5.638l.135.176q1.009,1.322,1.966,2.681,1.913,2.717,3.616,5.575A67.5,67.5,0,0,1,323.512,458q.352.753.688,1.514.181.41.358.821l.061.14.044.107q.634,1.533,1.213,3.086a3.12,3.12,0,0,0,2.864,2.181,3.048,3.048,0,0,0,2.864-2.181c2.2-6.275-.2-13.058-3.18-18.634a85.906,85.906,0,0,0-30.361-31.944,53.931,53.931,0,0,0-6.482-3.316,29.769,29.769,0,0,0-3.557-1.3c-.616-.18-1.241-.4-1.864-.546a13.544,13.544,0,0,0-1.474-.193c-2.71-1.052-5.553-1.272-7.946.8C275.134,409.934,275.823,412.389,277.371,413.429Zm3.775-.306c.05.006.1.014.227.039C281.117,413.194,281.056,413.132,281.146,413.124Z" transform="translate(-224.728 -275.68)" fill="#e38a71"/>
        <path id="Trazado_1036922" data-name="Trazado 1036922" d="M258.243,382.838a10.79,10.79,0,0,1,1.78-2.39,10.316,10.316,0,0,1,2.634-2.8,39.362,39.362,0,0,1,3.371-2.567,43.923,43.923,0,0,1,6.98-3.979,51.722,51.722,0,0,1,7.752-2.834,32.647,32.647,0,0,1,3.946-.8,7.122,7.122,0,0,1,2.259.056,1.851,1.851,0,0,1,.9.418l.122.147.314.14a.374.374,0,0,1,.075.585,3.862,3.862,0,0,0-.3.266,1.869,1.869,0,0,1-1.111.933,13.54,13.54,0,0,1-1.883.707c-1.216.308-2.424.663-3.625,1.025a45.811,45.811,0,0,0-6.814,2.652,56,56,0,0,0-6.538,3.743c-1.047.7-2.048,1.45-3.051,2.207-.482.364-.977.709-1.455,1.078a6.748,6.748,0,0,1-1.638,1.148,16.015,16.015,0,0,1-2.279,1.707A1.061,1.061,0,0,1,258.243,382.838Z" transform="translate(-215.576 -255.225)" fill="#e38a71"/>
        <path id="Trazado_1036923" data-name="Trazado 1036923" d="M546.162,448.2c.389-1.11.932-2.247,1.307-3.256.453-1.217.876-2.411,1.4-3.606-.177.4.186-.477.217-.559q.178-.474.338-.954.279-.843.5-1.7t.394-1.734q.1-.5.179-1,.038-.238.072-.476a49.449,49.449,0,0,0,.288-8.5c-.071-1.463-.152-2.922-.149-4.388,0-.7,0-1.409.006-2.113a20.875,20.875,0,0,1,.336-2.409c.1-.822,1.347-1.469,1.8-.487a23.4,23.4,0,0,1,1.046,2.164c.26.758.462,1.549.671,2.323.125.46.232.923.33,1.387.077-.679.186-1.3.227-1.653a10.539,10.539,0,0,1,1.108-3.809,1.17,1.17,0,0,1,1.825-.235c1.5,1.8,1.888,4.3,1.953,6.6a39.86,39.86,0,0,1-.546,7.036,35.773,35.773,0,0,1-1.611,6.249,21.419,21.419,0,0,1-1.429,3.394,2.467,2.467,0,0,1-.45.687c-.009.019-.027.051-.057.1-.128.235-.255.47-.386.7a6.153,6.153,0,0,1-.851,1.221,26.809,26.809,0,0,1-2.35,3.221,1.6,1.6,0,0,1-1.1.534l-.117.124a10.41,10.41,0,0,1-3.243,2.448C547.037,449.874,545.791,449.257,546.162,448.2Z" transform="translate(-364.503 -280.626)" fill="#e38a71"/>
        <path id="Trazado_1036924" data-name="Trazado 1036924" d="M523.939,498.792a12.634,12.634,0,0,1,1.889-2.692c.685-.857,1.383-1.7,2.068-2.559.635-.8,1.221-1.628,1.777-2.48a10.307,10.307,0,0,1,.967-1.314c.354-.389.818-.6,1.166-.961.448-.464,1.072.034.99.576a8.632,8.632,0,0,1-.218,1.805,9.18,9.18,0,0,1-.7,1.488,29.75,29.75,0,0,1-1.842,2.87c-1.314,1.789-2.96,3.8-5.134,4.523C524.124,500.308,523.663,499.414,523.939,498.792Z" transform="translate(-353.003 -317.905)" fill="#e38a71"/>
        <path id="Trazado_1036925" data-name="Trazado 1036925" d="M493.342,436.786a50.158,50.158,0,0,1,3.333-7.6c.664-1.174,1.363-2.329,2.072-3.476.728-1.178,1.716-2.117,2.531-3.224a1.036,1.036,0,0,1,1.884.794c-.324,1.316-.379,2.67-.74,3.979-.333,1.209-.644,2.422-.958,3.635-.667,2.571-1.529,5.11-2.357,7.635-1.676,5.115-2.709,10.564-5.147,15.388a2.35,2.35,0,0,1-1.11,1c-.056.073-.12.152-.138.172-.135.155-.268.31-.4.465a1.193,1.193,0,0,1-1.979-.522c-.062-.209-.123-.52-.192-.753a2.508,2.508,0,0,1-.592-1.554C489.463,447.269,491.515,441.846,493.342,436.786Z" transform="translate(-335.258 -283.47)" fill="#e38a71"/>
        <path id="Trazado_1036926" data-name="Trazado 1036926" d="M358.584,542.359a44.968,44.968,0,0,1,5.144-3.866c.714-.49,1.666-1.13,2.22-1.553.788-.6,2.059-1.432,3.133-1.2a1.173,1.173,0,0,1,1.323,1.331,3.959,3.959,0,0,1-1.275,3.049,22.543,22.543,0,0,1-2.594,2.3A13.322,13.322,0,0,1,360.3,545.3a1.843,1.843,0,0,1-1.989-.809A1.784,1.784,0,0,1,358.584,542.359Z" transform="translate(-267.266 -342.263)" fill="#e38a71"/>
        <path id="Trazado_1036927" data-name="Trazado 1036927" d="M170.239,500.627a36.3,36.3,0,0,0,2.336,7.869c-.051-.056-.1-.113-.15-.176-.588-.761-1.517.112-1.415.823a24.545,24.545,0,0,0,7.283,14.208c3.551,3.383,8.326,5.7,13.315,4.886.265-.044.527-.1.783-.157-4.159-2.261-8.445-5.194-9.628-9.907q.979-.114,1.958-.218a.445.445,0,0,0,.31-.748,32.206,32.206,0,0,1-8.739-17.177,4.693,4.693,0,0,0,3.179.662c.422-.059.489-.572.357-.876a35.776,35.776,0,0,1-2.939-13.611q-.239-.411-.453-.842c-.256-.511-.953-.305-1.121.147a14.739,14.739,0,0,0-.745,7.392,5.047,5.047,0,0,1-1.9-1.726.63.63,0,0,0-1.076,0,13.65,13.65,0,0,0-1.479,4.588A17.576,17.576,0,0,0,170.239,500.627Z" transform="translate(-170 -316.074)" fill="#e38a71"/>
        <path id="Trazado_1036928" data-name="Trazado 1036928" d="M592.3,562.944a4.486,4.486,0,0,1,2.254,1.014,13.644,13.644,0,0,1,2.162,1.936,17.1,17.1,0,0,1,1.734,2.194,8.134,8.134,0,0,1,1.336,2.593.558.558,0,0,1-1.015.428c-.5-.706-.8-1.587-1.264-2.33a16.081,16.081,0,0,0-1.645-2.2,22.289,22.289,0,0,0-1.914-1.834,7.775,7.775,0,0,1-1.736-1.646A.1.1,0,0,1,592.3,562.944Z" transform="translate(-388.345 -356.352)" fill="#a53e2f"/>
        <path id="Trazado_1036929" data-name="Trazado 1036929" d="M339.578,613.992c3.876,1.044,7.257,5.354,7.728,9.291.1.835-1.191.94-1.421.192a15.813,15.813,0,0,0-2.3-5.1,19.125,19.125,0,0,0-4.221-3.879A.279.279,0,0,1,339.578,613.992Z" transform="translate(-257.525 -382.746)" fill="#a53e2f"/>
        <path id="Trazado_1036930" data-name="Trazado 1036930" d="M357.413,611.3a22.313,22.313,0,0,1,1.86,1.775c.52.619,1,1.28,1.461,1.944s.906,1.357,1.322,2.058a3.257,3.257,0,0,1,.783,2.058.383.383,0,0,1-.558.227c-.624-.332-.851-1.137-1.174-1.73q-.585-1.073-1.247-2.1c-.416-.646-.865-1.269-1.311-1.9-.489-.687-.9-1.462-1.41-2.122C357.013,611.346,357.275,611.165,357.413,611.3Z" transform="translate(-266.764 -381.335)" fill="#a53e2f"/>
        <path id="Trazado_1036931" data-name="Trazado 1036931" d="M412.089,567.9a13.09,13.09,0,0,1,3.952,4.308,17.3,17.3,0,0,1,1.232,2.588c.32.841.879,2.042.633,2.938a.608.608,0,0,1-1.1.143,9.248,9.248,0,0,1-.761-2.49,15.248,15.248,0,0,0-1.115-2.531,22.23,22.23,0,0,0-3.286-4.382C411.375,568.187,411.732,567.66,412.089,567.9Z" transform="translate(-294.922 -358.884)" fill="#a53e2f"/>
      </g>
      <path id="Trazado_1036932" data-name="Trazado 1036932" d="M407.585,456.872a22.3,22.3,0,0,1,.709-4.575.147.147,0,0,1,.287.039c.112,1.56.257,3.117.344,4.683.082,1.464.2,2.932.388,4.387.186,1.472.442,2.944.74,4.4.156.766.354,1.523.492,2.293a6.205,6.205,0,0,1,.218,2.09.617.617,0,0,1-1.026.271,5.246,5.246,0,0,1-.862-1.9,18.363,18.363,0,0,1-.542-2.279,41.51,41.51,0,0,1-.644-4.725A39.616,39.616,0,0,1,407.585,456.872Z" transform="translate(-292.856 -299.075)" fill="#a53e2f"/>
    </g>
  </g>
</svg>
