<svg xmlns="http://www.w3.org/2000/svg" width="82" height="82" viewBox="0 0 82 82">
  <g id="Grupo_1202236" data-name="Grupo 1202236" transform="translate(-1088.051 -5961)">
    <rect id="Rectángulo_409831" data-name="Rectángulo 409831" width="82" height="82" transform="translate(1088.051 5961)" fill="#fff"/>
    <g id="Layer_3" transform="translate(1089.377 5962.333)">
      <path id="Trazado_1036470" data-name="Trazado 1036470" d="M10.9,32.869a1.271,1.271,0,0,1-1.221-1.3,1.239,1.239,0,0,1,1.3-1.221.433.433,0,0,1,.043.006,1.257,1.257,0,0,1-.08,2.512H10.9Zm59.2,22.12a15.107,15.107,0,0,1-30.214,0c0-.446.023-.885.061-1.321A22.668,22.668,0,0,1,10.115,36.86a1.25,1.25,0,0,1,.19-.945,1.268,1.268,0,0,1,.793-.541c.014,0,.028,0,.043,0a1.285,1.285,0,0,1,1.441,1A20.095,20.095,0,0,0,40.5,50.713,15.166,15.166,0,0,1,50.708,40.5,20.135,20.135,0,1,0,12.9,26.978a1.281,1.281,0,0,1-1.506.888c-.014,0-.028,0-.042-.007a1.3,1.3,0,0,1-.769-.593,1.268,1.268,0,0,1-.113-.956,22.664,22.664,0,1,1,43.2,13.632c.435-.038.875-.061,1.32-.061A15.124,15.124,0,0,1,70.092,54.989Zm-2.518,0a12.591,12.591,0,0,0-24.463-4.179,12.412,12.412,0,0,0-.467,1.681,12.59,12.59,0,1,0,24.93,2.5Zm-13.6-6.027h.019a1.654,1.654,0,0,1,1.638,1.672,1.259,1.259,0,0,0,1.246,1.272h.013a1.259,1.259,0,0,0,1.259-1.246,4.174,4.174,0,0,0-4.128-4.218h-.046a4.182,4.182,0,0,0-4.13,3.568,5.6,5.6,0,0,0-.1,9.866,4.179,4.179,0,0,0,4.1,3.655h.046A4.179,4.179,0,0,0,58.052,59.4a1.259,1.259,0,0,0-1.246-1.272h-.013a1.259,1.259,0,0,0-1.259,1.245,1.655,1.655,0,0,1-3.309-.032c0-.019.017-.13.019-.15a1.258,1.258,0,0,0-.825-1.309,3.088,3.088,0,0,1,.061-5.849,1.256,1.256,0,0,0,.853-1.282c0-.023-.017-.134-.019-.156a1.657,1.657,0,0,1,1.656-1.635Zm9.131,4.9L60.583,52.6a1.259,1.259,0,1,0-1.126,2.253l.265.133-.265.133a1.259,1.259,0,0,0,1.126,2.253L63.1,56.115a1.259,1.259,0,0,0,0-2.253Zm-50.92-3.909a1.259,1.259,0,1,0,1.259,1.259,1.263,1.263,0,0,0-1.259-1.259Zm6.294,7.553a1.259,1.259,0,1,0,1.259,1.259A1.263,1.263,0,0,0,18.475,57.506Zm5.036,1.259a1.259,1.259,0,1,0,1.259,1.259A1.263,1.263,0,0,0,23.511,58.765Zm-5.036,7.554a1.259,1.259,0,1,0,1.259,1.259A1.262,1.262,0,0,0,18.475,66.319Zm12.59-5.036a1.259,1.259,0,1,0,1.259,1.259A1.263,1.263,0,0,0,31.065,61.283Zm27.7-22.661A1.259,1.259,0,1,0,57.5,37.363,1.263,1.263,0,0,0,58.761,38.623Zm0-6.295A1.259,1.259,0,1,0,57.5,31.069,1.263,1.263,0,0,0,58.761,32.328ZM63.8,36.1a1.259,1.259,0,1,0-1.259-1.259A1.263,1.263,0,0,0,63.8,36.1ZM63.8,21a1.259,1.259,0,1,0-1.259-1.259A1.263,1.263,0,0,0,63.8,21Zm-8.813-5.036A1.259,1.259,0,1,0,53.726,14.7,1.263,1.263,0,0,0,54.984,15.962ZM37.221,28.525a1.282,1.282,0,0,0,1.259-1.271,1.263,1.263,0,0,0-1.271-1.247,1.259,1.259,0,0,0,.012,2.518ZM25.89,27.292v.075a1.253,1.253,0,0,0,1.259,1.247h.012a1.272,1.272,0,0,0,1.247-1.283v-.038a1.263,1.263,0,0,0-1.259-1.259,1.247,1.247,0,0,0-1.259,1.221Zm3.764-3.1a1.161,1.161,0,0,0,.629-.177,1.242,1.242,0,0,0,.453-1.711,1.258,1.258,0,1,0-1.082,1.888Zm4.406-.177a1.327,1.327,0,0,0,.617.165,1.261,1.261,0,1,0-1.1-1.888,1.273,1.273,0,0,0,.478,1.723Zm.025,6.535H34.1a1.256,1.256,0,0,0-.453,1.724,1.278,1.278,0,0,0,1.083.617,1.3,1.3,0,0,0,.641-.178,1.258,1.258,0,1,0-1.285-2.164Zm-3.764.025a1.257,1.257,0,0,0-1.234,2.19,1.2,1.2,0,0,0,.617.163,1.252,1.252,0,0,0,1.1-.629,1.27,1.27,0,0,0-.478-1.724Zm-9.4-4.544a11.274,11.274,0,0,1,2.411-5.808l-.055-.055a1.259,1.259,0,0,1,1.78-1.781l.055.055a11.268,11.268,0,0,1,5.808-2.411v-.071a1.259,1.259,0,1,1,2.518,0v.072a11.268,11.268,0,0,1,5.808,2.411l.055-.055a1.259,1.259,0,1,1,1.781,1.781l-.055.055a11.268,11.268,0,0,1,2.411,5.808h.072a1.259,1.259,0,1,1,0,2.518H43.44a11.268,11.268,0,0,1-2.411,5.808l.055.055a1.259,1.259,0,1,1-1.781,1.78l-.055-.055a11.28,11.28,0,0,1-5.808,2.411v.072a1.259,1.259,0,0,1-2.518,0v-.072a11.28,11.28,0,0,1-5.808-2.411l-.055.055a1.259,1.259,0,0,1-1.78-1.78l.055-.055a11.274,11.274,0,0,1-2.411-5.808H20.85a1.259,1.259,0,0,1,0-2.518h.072Zm2.447,1.259a8.813,8.813,0,1,0,8.813-8.813,8.823,8.823,0,0,0-8.813,8.813Zm.142,11.33A3.777,3.777,0,1,1,19.735,42.4,3.781,3.781,0,0,1,23.511,38.623ZM24.77,42.4a1.259,1.259,0,1,0-1.259,1.259A1.259,1.259,0,0,0,24.77,42.4Zm10.071,0a3.777,3.777,0,1,1-3.776,3.777A3.781,3.781,0,0,1,34.841,42.4ZM36.1,46.176a1.259,1.259,0,1,0-1.259,1.259A1.259,1.259,0,0,0,36.1,46.176Z"/>
    </g>
  </g>
</svg>
