<svg xmlns="http://www.w3.org/2000/svg" width="82" height="82" viewBox="0 0 82 82">
  <g id="Grupo_1202287" data-name="Grupo 1202287" transform="translate(-601.835 -5415)">
    <rect id="Rectángulo_409901" data-name="Rectángulo 409901" width="82" height="82" transform="translate(601.835 5415)" fill="none"/>
    <g id="Grupo_1202286" data-name="Grupo 1202286" transform="translate(610.053 5426)">
      <path id="Trazado_1036472" data-name="Trazado 1036472" d="M16.031,15.887H28.7L16,58.173a1.148,1.148,0,0,0,.769,1.431l3.3.99a1.159,1.159,0,0,0,.929-.119l18.75-11.442,18.75,11.442a1.141,1.141,0,0,0,.929.119l3.2-.962a1.149,1.149,0,0,0,.939-1.129,1.136,1.136,0,0,0-.133-.539L50.786,15.887H64.645a1.148,1.148,0,0,0,1.148-1.148v-3.33a.94.94,0,0,0,.024-.115,1.148,1.148,0,0,0-.477-.931L55.512.344A1.148,1.148,0,0,0,54.693,0H25.983a1.147,1.147,0,0,0-.82.344L15.219,10.479h0l-.007.008a1.139,1.139,0,0,0-.216.324,1.084,1.084,0,0,0-.036.106,1.158,1.158,0,0,0-.062.306c0,.024-.013.045-.013.07v3.445A1.147,1.147,0,0,0,16.031,15.887Zm30.426,5.55.155.511-7.061,4.325-6.688-4.3.162-.54Zm-12.74-2.3.977-3.253h10.1l.978,3.253Zm5.8,9.842,10.3,6.617H28.771l.013-.041Zm-9.747,3.276,2.4-7.993,5.2,3.339ZM39.664,43.5,29.212,37.9H49.429Zm-2.375,1.331L23.462,53.273l4.1-13.655Zm4.79-.07,9.712-5.574,4.232,14.084ZM41.7,27.651l5.6-3.428,2.615,8.7ZM29.205,22.182a1.1,1.1,0,0,0,.368.412l.594.381L26.836,34.059l-1.468.9Zm9.938,24.526-18.91,11.54-1.709-.513,5.941-19.779,1.032.553L20.4,55.487A1.149,1.149,0,0,0,22.1,56.8l15.47-9.442,1.336-.767.294.089A.489.489,0,0,0,39.144,46.708Zm20.107,11.54L40.34,46.708c-.017-.01-.035-.021-.053-.03l.28-.083.83.445L57.387,56.8a1.149,1.149,0,0,0,1.7-1.312l-5.249-17.47.471-.271c.011,0,.016-.016.027-.024a1.021,1.021,0,0,0,.2-.149c.017-.017.028-.036.046-.054s.02-.025.031-.037.04-.045.059-.069.025-.027.036-.043.019-.06.032-.087a.9.9,0,0,0,.055-.081l6.168,20.534ZM54.366,35.792a.026.026,0,0,0-.009-.01l-1.478-.949L49.318,22.982l.614-.375a1.115,1.115,0,0,0,.36-.37ZM63.5,13.59H49.241a1.148,1.148,0,0,0-1.1,1.479l1.226,4.078c-.011,0-.021-.007-.033-.007H48.166l-1.422-4.732a1.147,1.147,0,0,0-1.1-.818H33.84a1.149,1.149,0,0,0-1.1.818L31.318,19.14H30.194c-.027,0-.051.013-.08.016l1.228-4.087a1.148,1.148,0,0,0-1.1-1.479H17.18V12.442H63.5V13.59ZM26.466,2.3H54.211l7.7,7.847H18.766Z" transform="translate(-7.463)"/>
      <path id="Trazado_1036473" data-name="Trazado 1036473" d="M3.848,60.944a1.146,1.146,0,0,0,1.467.7L14.5,58.389c.007,0,.011-.009.02-.012a1.146,1.146,0,0,0,.3-.179c.024-.02.055-.029.076-.049a1.153,1.153,0,0,0,.259-.348.8.8,0,0,0,.029-.113,1.115,1.115,0,0,0,.081-.308v-.009l.382-5.925a1.15,1.15,0,0,0-1.073-1.221A1.166,1.166,0,0,0,13.354,51.3l-.334,5.178-8.473,3A1.153,1.153,0,0,0,3.848,60.944Z" transform="translate(0 -33.765)"/>
      <path id="Trazado_1036474" data-name="Trazado 1036474" d="M145.44,55.635v0a1.139,1.139,0,0,0,.079.308c.015.036.013.078.03.113a1.132,1.132,0,0,0,.259.348c.021.021.052.03.075.049a1.157,1.157,0,0,0,.3.179c.007,0,.011.009.02.011l9.187,3.253a1.148,1.148,0,1,0,.767-2.163l-8.473-3-.334-5.178a1.149,1.149,0,1,0-2.293.148l.382,5.926Z" transform="translate(-94.977 -32.598)"/>
    </g>
  </g>
</svg>
