<svg xmlns="http://www.w3.org/2000/svg" width="82" height="82" viewBox="0 0 82 82">
  <g id="Grupo_1202238" data-name="Grupo 1202238" transform="translate(9501 5656)">
    <rect id="Rectángulo_409830" data-name="Rectángulo 409830" width="82" height="82" transform="translate(-9501 -5656)" fill="#fff"/>
    <g id="Grupo_1202237" data-name="Grupo 1202237" transform="translate(-9494.247 -5646.538)">
      <path id="Trazado_1036471" data-name="Trazado 1036471" d="M7.465,16.771h4.016a.731.731,0,0,0,.722-.623,10.978,10.978,0,0,1,8.128-9,.734.734,0,0,0,.547-.707V4.308a.731.731,0,0,0-.731-.731H10.589a11.364,11.364,0,0,0-8.614,3.94.728.728,0,0,0,.161,1.09,10.268,10.268,0,0,1,4.6,7.509.728.728,0,0,0,.725.655ZM3.639,7.879a9.9,9.9,0,0,1,6.951-2.841h8.827v.848a12.44,12.44,0,0,0-8.552,9.423H8.108a11.759,11.759,0,0,0-4.469-7.43Z" transform="translate(2.983 3.921)"/>
      <path id="Trazado_1036472" data-name="Trazado 1036472" d="M27.78,38.267c-.14-.155-.24-.33-.386-.479-1.906-1.941-4.343-4.4-6.98-7.015a1.865,1.865,0,0,1-.544-1.754c1.388-5.583-.9-7.833-1.876-8.52V19.73a8.292,8.292,0,0,1,.094-.938,13.109,13.109,0,0,0,3.677.377,40.119,40.119,0,0,0,3.7,6.138,1.92,1.92,0,0,0,1.567.807A1.952,1.952,0,0,0,28.8,23.346a34.943,34.943,0,0,1-3.665-11.575,7.377,7.377,0,0,1,.924-.094h.088l5.162-.64a.734.734,0,0,0,.64-.728V3.955a.731.731,0,0,0-.64-.725l-5.162-.643h-.044c-.015,0-.026-.018-.044-.018H13.572A14.228,14.228,0,0,0,2.307,8.065L.4,10.482A.734.734,0,0,0,.668,11.6l2.046.962a7.225,7.225,0,0,1,4.118,6.509v1.681A59.576,59.576,0,0,0,2.284,38.7c0,.044-.05.073-.05.12s.029.05.032.082a52.524,52.524,0,0,0,1.7,19.642,4.11,4.11,0,0,0,3.958,2.9H26.684a4.153,4.153,0,0,0,3.981-2.961,33.54,33.54,0,0,0,1.383-9.017,15.921,15.921,0,0,0-4.115-11.025.628.628,0,0,0-.152-.175Zm-9.327-9.6a3.329,3.329,0,0,0,.935,3.133c2.321,2.3,4.466,4.46,6.252,6.272H13.984a84.666,84.666,0,0,1-1.21-16.45h4.288c.52.336,2.645,2.005,1.391,7.044ZM8.045,21.639H11.31a87.161,87.161,0,0,0,1.2,16.45H3.8a58.165,58.165,0,0,1,4.25-16.45Zm13.5-8.587a1.815,1.815,0,0,1-2.259,2.338,8.105,8.105,0,0,1,2.259-2.338Zm5.93,10.9a.482.482,0,0,1-.827.488,36.553,36.553,0,0,1-3.741-6.325.734.734,0,0,0-.766-.441,11.107,11.107,0,0,1-3.75-.292,7.214,7.214,0,0,1,.222-.713,3.241,3.241,0,0,0,1.222.263,3.277,3.277,0,0,0,2.338-.959,3.239,3.239,0,0,0,.634-3.613,8.09,8.09,0,0,1,.877-.292,37.036,37.036,0,0,0,3.791,11.884ZM30.49,9.632l-3.7.459V4.14l3.7.462Zm-27.165,1.6-1.21-.585,1.333-1.7A12.77,12.77,0,0,1,13.56,4.031h11.77v6.2c-.292.023-.585.1-.877.152h-.029c-.053,0-.085.038-.134.044a9.353,9.353,0,0,0-2.844,1c-.035.02-.079,0-.111.032s0,.038-.026.053a9.523,9.523,0,0,0-3.575,3.671.043.043,0,0,0-.047.026c-.012.026-.018.094-.038.137a9.333,9.333,0,0,0-.848,2.242.108.108,0,0,0-.029.032.159.159,0,0,0,0,.053,9.572,9.572,0,0,0-.243,2.046v.447H8.293V19.055a8.693,8.693,0,0,0-4.969-7.819ZM29.256,58.063a2.7,2.7,0,0,1-2.584,1.92H7.928a2.631,2.631,0,0,1-2.558-1.85,50.957,50.957,0,0,1-1.7-18.584h9.09a71.139,71.139,0,0,0,4.028,13.965.734.734,0,0,0,.675.453.713.713,0,0,0,.292-.056.731.731,0,0,0,.4-.953,69.432,69.432,0,0,1-3.89-13.4H26.947a14.451,14.451,0,0,1,3.639,9.891,32.023,32.023,0,0,1-1.318,8.617Z" transform="translate(0 1.984)"/>
      <path id="Trazado_1036473" data-name="Trazado 1036473" d="M14.1,3.837a.877.877,0,1,0-.877-.877.877.877,0,0,0,.877.877Z" transform="translate(24.947 1.048)"/>
      <path id="Trazado_1036474" data-name="Trazado 1036474" d="M12.9,5.683a.877.877,0,1,0-.877-.877A.877.877,0,0,0,12.9,5.683Z" transform="translate(22.636 4.598)"/>
      <path id="Trazado_1036475" data-name="Trazado 1036475" d="M13.521,4.8a.877.877,0,1,0,.877-.877A.877.877,0,0,0,13.521,4.8Z" transform="translate(25.524 4.596)"/>
      <path id="Trazado_1036476" data-name="Trazado 1036476" d="M15.9,5.683a.877.877,0,1,0-.877-.877A.877.877,0,0,0,15.9,5.683Z" transform="translate(28.416 4.598)"/>
      <path id="Trazado_1036477" data-name="Trazado 1036477" d="M15.3,3.292a.877.877,0,1,0-.877-.877A.877.877,0,0,0,15.3,3.292Z" transform="translate(27.258)"/>
      <path id="Trazado_1036478" data-name="Trazado 1036478" d="M14.1,7.529a.877.877,0,1,0-.877-.877.877.877,0,0,0,.877.877Z" transform="translate(24.947 8.147)"/>
      <path id="Trazado_1036479" data-name="Trazado 1036479" d="M12.9,4.382a.877.877,0,1,0-.877-.877A.877.877,0,0,0,12.9,4.382Z" transform="translate(22.636 2.096)"/>
      <path id="Trazado_1036480" data-name="Trazado 1036480" d="M12.9,6.984a.877.877,0,1,0-.877-.877A.877.877,0,0,0,12.9,6.984Z" transform="translate(22.636 7.099)"/>
      <path id="Trazado_1036481" data-name="Trazado 1036481" d="M15.3,8.074a.877.877,0,1,0-.877-.877A.877.877,0,0,0,15.3,8.074Z" transform="translate(27.258 9.195)"/>
      <path id="Trazado_1036482" data-name="Trazado 1036482" d="M45.067,24.275A2.426,2.426,0,0,0,42.761,26H40.972a12.127,12.127,0,0,0-.64-3.215l3.1-1.28a2.467,2.467,0,0,0,1.894.877,2.4,2.4,0,0,0,.935-.187,2.452,2.452,0,1,0-3.215-3.215,2.4,2.4,0,0,0-.149,1.137l-3.13,1.295a12.007,12.007,0,0,0-1.806-2.689L39.181,17.5a2.426,2.426,0,0,0,1.117.292,2.422,2.422,0,1,0-2.446-2.4,2.426,2.426,0,0,0,.292,1.117l-1.219,1.219a12.188,12.188,0,0,0-2.7-1.812l.818-1.988c.07,0,.14.041.208.041a2.454,2.454,0,1,0-2.262-1.514,2.406,2.406,0,0,0,.7.912L32.87,15.36a11.923,11.923,0,0,0-3.192-.634V12.557a2.456,2.456,0,1,0-1.461,0v2.16a11.928,11.928,0,0,0-3.177.631l-.427-1.02a2.4,2.4,0,0,0,.7-.912,2.429,2.429,0,0,0,0-1.876,2.461,2.461,0,1,0-2.277,3.4,2.077,2.077,0,0,0,.219-.044l.421,1.008a12.229,12.229,0,0,0-2.715,1.821l-1.391-1.391a2.391,2.391,0,0,0,.292-1.117,2.429,2.429,0,0,0-.719-1.736,2.476,2.476,0,1,0-.62,3.9l1.394,1.394a11.966,11.966,0,0,0-1.815,2.7l-1.982-.836a2.406,2.406,0,0,0-.149-1.137,2.455,2.455,0,1,0-3.215,3.215,2.406,2.406,0,0,0,.935.187,2.467,2.467,0,0,0,1.894-.877l1.955.821a11.9,11.9,0,0,0-.634,3.189h-.631a2.457,2.457,0,1,0,0,1.461h.663a11.879,11.879,0,0,0,.634,3.189l-1.646.687a2.461,2.461,0,1,0,.555,1.353l1.643-.684A12.016,12.016,0,0,0,19.951,34.7l-.877.877A2.528,2.528,0,1,0,20.112,36.6l.877-.877A12.118,12.118,0,0,0,23.7,37.545l-.833,1.982a2.453,2.453,0,1,0,1.347.558l.839-1.99a11.928,11.928,0,0,0,3.177.631v1.385a2.455,2.455,0,1,0,1.461,0V38.726a12.036,12.036,0,0,0,3.192-.634l.292.716a2.406,2.406,0,0,0-.707.918,2.464,2.464,0,1,0,4.542,0,2.426,2.426,0,0,0-2.476-1.461l-.292-.716a12.189,12.189,0,0,0,2.7-1.812l1.377,1.377a2.423,2.423,0,0,0,2.148,3.569,2.455,2.455,0,0,0,0-4.91,2.426,2.426,0,0,0-1.117.292L37.968,34.7a11.984,11.984,0,0,0,1.806-2.689l1.993.818a2.45,2.45,0,1,0,.549-1.356l-1.99-.818a12.127,12.127,0,0,0,.64-3.215h1.789a2.429,2.429,0,0,0,2.306,1.724,2.455,2.455,0,1,0,0-4.907ZM44.4,19.569a.985.985,0,0,1,.538-.535.959.959,0,0,1,.38-.076.994.994,0,1,1-.918,1.371,1,1,0,0,1,.012-.76ZM34.346,11.128a.991.991,0,0,1,1.836,0,.973.973,0,0,1,0,.757.993.993,0,1,1-1.836-.757ZM22.14,12.858a.993.993,0,0,1,1.836-.76.979.979,0,0,1,0,.76,1,1,0,0,1-.535.535.979.979,0,0,1-.76,0,.991.991,0,0,1-.541-.535ZM14.655,20.8a.994.994,0,1,1-.918-1.374,1.014,1.014,0,0,1,.38.076.991.991,0,0,1,.538.538A.979.979,0,0,1,14.655,20.8Zm-.193,13.007a.993.993,0,1,1,0-1.836.982.982,0,0,1,.523.526v.02l.02.023a.994.994,0,0,1-.544,1.277Zm9.111,8.52a.985.985,0,1,1-1.3-1.3.984.984,0,0,1,.751,0,1,1,0,0,1,.547,1.3Zm12.083-2.046a.994.994,0,0,1-1.836.76.979.979,0,0,1,0-.76.991.991,0,0,1,.538-.538.956.956,0,0,1,.377-.076,1,1,0,0,1,.912.628Zm8.526-8.257a.973.973,0,1,1-.927.649l.02-.023a1,1,0,0,1,.906-.611ZM28.959,37.337a10.63,10.63,0,0,1-9.809-6.559,10.619,10.619,0,1,1,9.809,6.574ZM39.6,14.665a.994.994,0,0,1,1.7.7.973.973,0,0,1-.292.7,1.008,1.008,0,0,1-1.4,0,.988.988,0,0,1,0-1.4Zm-10.645-5.4a.994.994,0,1,1-.994.991.994.994,0,0,1,.994-.991Zm-12.22,6.652a.412.412,0,1,0,0-.009ZM14.009,27.73a3231.739,3231.739,0,1,0,.009-.009ZM18.65,38.451a.994.994,0,1,1,.16-1.2A.994.994,0,0,1,18.65,38.451Zm10.309,4.983a.989.989,0,1,0,0-.009Zm11.5-6.191a.979.979,0,0,1,.7.292.994.994,0,0,1,0,1.4.979.979,0,0,1-.7.292.994.994,0,0,1,0-1.988Zm4.606-9.514a.989.989,0,1,0,0-.009Z" transform="translate(21.166 12.033)"/>
      <path id="Trazado_1036483" data-name="Trazado 1036483" d="M18.886,16.373a2.666,2.666,0,1,0-2.666-2.663A2.666,2.666,0,0,0,18.886,16.373Zm0-3.867a1.2,1.2,0,1,1-1.2,1.2,1.2,1.2,0,0,1,1.2-1.2Z" transform="translate(30.714 18.275)"/>
      <path id="Trazado_1036484" data-name="Trazado 1036484" d="M19.6,14.91a3.75,3.75,0,1,0,3.75,3.75,3.75,3.75,0,0,0-3.75-3.75Zm0,6.036a2.289,2.289,0,1,1,2.289-2.286A2.289,2.289,0,0,1,19.6,20.946Z" transform="translate(30 25.712)"/>
      <path id="Trazado_1036485" data-name="Trazado 1036485" d="M18.08,17.319a2.066,2.066,0,1,0-2.064-2.066A2.066,2.066,0,0,0,18.08,17.319Zm0-2.669a.251.251,0,1,1,0-.015Z" transform="translate(30.321 22.397)"/>
      <path id="Trazado_1036486" data-name="Trazado 1036486" d="M18.68,14.293a2.066,2.066,0,1,0,2.066-2.064A2.066,2.066,0,0,0,18.68,14.293Zm2.669,0a.605.605,0,1,1-.6-.6A.605.605,0,0,1,21.349,14.293Z" transform="translate(35.444 20.557)"/>
      <path id="Trazado_1036487" data-name="Trazado 1036487" d="M20.748,14.454a2.066,2.066,0,1,0,2.064,2.064A2.066,2.066,0,0,0,20.748,14.454Zm0,2.669a.605.605,0,1,1,.6-.605.605.605,0,0,1-.6.605Z" transform="translate(35.442 24.836)"/>
      <path id="Trazado_1036488" data-name="Trazado 1036488" d="M16.059,13.778a2.066,2.066,0,1,0,2.066,2.064,2.066,2.066,0,0,0-2.066-2.064Zm0,2.669a.605.605,0,1,1,.605-.605A.605.605,0,0,1,16.059,16.447Z" transform="translate(26.431 23.536)"/>
    </g>
  </g>
</svg>
