<svg xmlns="http://www.w3.org/2000/svg" width="82" height="82" viewBox="0 0 82 82">
  <g id="Grupo_1202288" data-name="Grupo 1202288" transform="translate(-923.835 -5399)">
    <rect id="Rect치ngulo_409902" data-name="Rect치ngulo 409902" width="82" height="82" transform="translate(923.835 5399)" fill="none"/>
    <g id="_18-receipt" data-name="18-receipt" transform="translate(932.835 5408)">
      <path id="Trazado_1036475" data-name="Trazado 1036475" d="M51,20H44a1,1,0,0,0,0,2h2V62H13a3,3,0,0,1-3-3V25a3,3,0,0,1,2.249-2.906,1,1,0,1,0-.5-1.936A5,5,0,0,0,8,25V59a5.006,5.006,0,0,0,5,5H55a1,1,0,0,0,1-1V25A5.006,5.006,0,0,0,51,20ZM50,62H48V22h2Zm4,0H52V22.184A3,3,0,0,1,54,25Z"/>
      <path id="Trazado_1036476" data-name="Trazado 1036476" d="M42,31a1,1,0,0,0-1-1H15a1,1,0,0,0-1,1v8a1,1,0,0,0,1,1H41a1,1,0,0,0,1-1Zm-2,7H16V32H40Z"/>
      <path id="Trazado_1036477" data-name="Trazado 1036477" d="M12,27a1,1,0,0,0,1,1H43a1,1,0,0,0,0-2H42V1A1,1,0,0,0,40.485.143L36.062,2.8,32.6.2a1,1,0,0,0-1.2,0L28,2.75,24.6.2a1,1,0,0,0-1.2,0L19.938,2.8,15.515.143A1,1,0,0,0,14,1V26H13A1,1,0,0,0,12,27ZM16,2.766l3.485,2.092A1,1,0,0,0,20.6,4.8L24,2.25,27.4,4.8a1,1,0,0,0,1.2,0L32,2.25,35.4,4.8a1,1,0,0,0,1.115.058L40,2.766V26H16Z"/>
      <path id="Trazado_1036478" data-name="Trazado 1036478" d="M22,43a1,1,0,0,0-1-1H15a1,1,0,0,0-1,1v6a1,1,0,0,0,1,1h6a1,1,0,0,0,1-1Zm-2,5H16V44h4Z"/>
      <path id="Trazado_1036479" data-name="Trazado 1036479" d="M32,43a1,1,0,0,0-1-1H25a1,1,0,0,0-1,1v6a1,1,0,0,0,1,1h6a1,1,0,0,0,1-1Zm-2,5H26V44h4Z"/>
      <path id="Trazado_1036480" data-name="Trazado 1036480" d="M42,43a1,1,0,0,0-1-1H35a1,1,0,0,0-1,1v6a1,1,0,0,0,1,1h6a1,1,0,0,0,1-1Zm-2,5H36V44h4Z"/>
      <path id="Trazado_1036481" data-name="Trazado 1036481" d="M21,52H15a1,1,0,0,0-1,1v6a1,1,0,0,0,1,1h6a1,1,0,0,0,1-1V53A1,1,0,0,0,21,52Zm-1,6H16V54h4Z"/>
      <path id="Trazado_1036482" data-name="Trazado 1036482" d="M31,52H25a1,1,0,0,0-1,1v6a1,1,0,0,0,1,1h6a1,1,0,0,0,1-1V53A1,1,0,0,0,31,52Zm-1,6H26V54h4Z"/>
      <path id="Trazado_1036483" data-name="Trazado 1036483" d="M41,52H35a1,1,0,0,0-1,1v6a1,1,0,0,0,1,1h6a1,1,0,0,0,1-1V53A1,1,0,0,0,41,52Zm-1,6H36V54h4Z"/>
      <path id="Trazado_1036484" data-name="Trazado 1036484" d="M37,13h-.174c-.385-1.979-1.344-2.666-2.156-2.9C34.063,9.059,32.317,7,28,7a6.084,6.084,0,0,0-5.653,3.042A3.746,3.746,0,0,0,19.136,13H19a1,1,0,0,0-.9,1.447l2,4A1,1,0,0,0,21,19H35a1,1,0,0,0,.9-.553l2-4A1,1,0,0,0,37,13ZM23,12a1,1,0,0,0,.948-.684C23.956,11.293,24.758,9,28,9c4.144,0,5.021,2.236,5.052,2.316a1.049,1.049,0,0,0,.92.684c.115.007.543.081.809,1H21.234A1.771,1.771,0,0,1,23,12Zm11.382,5H21.618l-1-2H35.382Z"/>
      <path id="Trazado_1036485" data-name="Trazado 1036485" d="M29,37h2a1,1,0,0,0,0-2H29a1,1,0,0,0,0,2Z"/>
      <path id="Trazado_1036486" data-name="Trazado 1036486" d="M23,37h2a1,1,0,0,0,0-2H23a1,1,0,0,0,0,2Z"/>
      <path id="Trazado_1036487" data-name="Trazado 1036487" d="M35,37h2a1,1,0,0,0,0-2H35a1,1,0,0,0,0,2Z"/>
      <rect id="Rect치ngulo_409949" data-name="Rect치ngulo 409949" width="2" height="2" transform="translate(22 21)"/>
      <path id="Trazado_1036488" data-name="Trazado 1036488" d="M33,21H26a1,1,0,0,0,0,2h7a1,1,0,0,0,0-2Z"/>
    </g>
  </g>
</svg>
