<svg xmlns="http://www.w3.org/2000/svg" width="82" height="82" viewBox="0 0 82 82">
  <g id="Grupo_1202240" data-name="Grupo 1202240" transform="translate(8913 5674)">
    <g id="Grupo_1189673" data-name="Grupo 1189673" transform="translate(-9681.781 -7637)">
      <rect id="Rectángulo_402627" data-name="Rectángulo 402627" width="82" height="82" transform="translate(768.781 1963)" fill="#fff"/>
    </g>
    <g id="Grupo_1202239" data-name="Grupo 1202239" transform="translate(-8902.02 -5665.221)">
      <path id="Trazado_1036489" data-name="Trazado 1036489" d="M283.278,285.043h14.343a1,1,0,1,0,0-2H283.278a1,1,0,0,0,0,2Z" transform="translate(-248.793 -247.566)"/>
      <path id="Trazado_1036490" data-name="Trazado 1036490" d="M298.785,320.6H286.707a1.824,1.824,0,0,0-1.822,1.822v9.058a1.824,1.824,0,0,0,1.822,1.822h12.078a1.824,1.824,0,0,0,1.822-1.822v-9.058A1.824,1.824,0,0,0,298.785,320.6Zm.043,10.881a.043.043,0,0,1-.043.043H286.707a.043.043,0,0,1-.043-.043v-9.058a.043.043,0,0,1,.043-.043h12.078a.043.043,0,0,1,.043.043Z" transform="translate(-251.09 -280.663)"/>
      <path id="Trazado_1036491" data-name="Trazado 1036491" d="M387.129,6.6a.89.89,0,0,0,.89-.89V3.049a.89.89,0,1,0-1.779,0V5.71A.89.89,0,0,0,387.129,6.6Z" transform="translate(-340.421)"/>
      <path id="Trazado_1036492" data-name="Trazado 1036492" d="M319.868,27.068a.89.89,0,1,0,1.258-1.258l-1.882-1.882a.89.89,0,1,0-1.258,1.258Z" transform="translate(-280.035 -18.957)"/>
      <path id="Trazado_1036493" data-name="Trazado 1036493" d="M440.409,27.068l1.882-1.882a.89.89,0,0,0-1.258-1.258l-1.882,1.882a.89.89,0,1,0,1.258,1.258Z" transform="translate(-386.826 -18.957)"/>
      <path id="Trazado_1036494" data-name="Trazado 1036494" d="M478.115,83.886h-2.661a.89.89,0,1,0,0,1.779h2.661a.89.89,0,1,0,0-1.779Z" transform="translate(-418.268 -72.032)"/>
      <path id="Trazado_1036495" data-name="Trazado 1036495" d="M276.369,85.665h2.661a.89.89,0,1,0,0-1.779h-2.661a.89.89,0,1,0,0,1.779Z" transform="translate(-242.8 -72.032)"/>
      <path id="Trazado_1036496" data-name="Trazado 1036496" d="M75.4,170.447H89.74a1,1,0,0,0,0-2H75.4a1,1,0,0,0,0,2Z" transform="translate(-65.572 -146.564)"/>
      <path id="Trazado_1036497" data-name="Trazado 1036497" d="M75.4,208.646H89.74a1,1,0,1,0,0-2H75.4a1,1,0,1,0,0,2Z" transform="translate(-65.572 -180.231)"/>
      <path id="Trazado_1036498" data-name="Trazado 1036498" d="M90.739,245.845a1,1,0,0,0-1-1H75.4a1,1,0,0,0,0,2H89.74A1,1,0,0,0,90.739,245.845Z" transform="translate(-65.572 -213.898)"/>
      <path id="Trazado_1036499" data-name="Trazado 1036499" d="M75.4,390.088H89.74a1,1,0,0,0,0-2H75.4a1,1,0,0,0,0,2Z" transform="translate(-65.572 -340.149)"/>
      <path id="Trazado_1036500" data-name="Trazado 1036500" d="M56.321,73.187H55.195a8.486,8.486,0,0,0-1.134-5.134.89.89,0,0,0-1.533.9,6.72,6.72,0,0,1-.457,7.49l-.028.036a12.383,12.383,0,0,0-2.6,3.779H43.969a10.179,10.179,0,0,0-2.1-3.2,6.757,6.757,0,0,1,5.1-11.445,6.614,6.614,0,0,1,2.948.816.89.89,0,0,0,.854-1.561A8.529,8.529,0,0,0,38.3,70.917H31.042a2.594,2.594,0,0,0-1.717.648,2.6,2.6,0,0,0-1.716-.648H5.467a1.693,1.693,0,0,0-1.691,1.691v.58H2.331A2.334,2.334,0,0,0,0,75.519v23.59a.89.89,0,0,0,1.779,0v-.143c.121.011.021.008,2,.008v9.9a1.693,1.693,0,0,0,1.691,1.691H27.609c.517,0,.669.389.827.538v2.762a3.86,3.86,0,0,0-2.079-.611H2.331a.553.553,0,0,1-.552-.552v-9.438a.89.89,0,0,0-1.779,0V112.7a2.334,2.334,0,0,0,2.331,2.331H26.357a2.089,2.089,0,0,1,1.794,1.029,1.359,1.359,0,0,0,2.349,0,2.089,2.089,0,0,1,1.795-1.029H56.32a2.334,2.334,0,0,0,2.331-2.331V75.519a2.334,2.334,0,0,0-2.331-2.331ZM44.242,83.9V82.041h4.932V83.9a2.466,2.466,0,1,1-4.932,0Zm-13.2-11.2h7.145a8.594,8.594,0,0,0,.926,3.541H34.485a1,1,0,0,0,0,2h6.051a8.326,8.326,0,0,1,1.713,2.533H34.484a1,1,0,0,0,0,2h7.978V83.9a4.223,4.223,0,0,0,.238,1.4H34.485a1,1,0,0,0,0,2l9.639-.034a4.242,4.242,0,0,0,6.83-3.365V81.309A8.875,8.875,0,0,1,53.1,78v30.781H31.042a2.645,2.645,0,0,0-.811.129l-.016,0V73.523a.828.828,0,0,1,.827-.827ZM1.779,75.519a.553.553,0,0,1,.552-.552H3.776V90.534H1.955q-.089,0-.176.008Zm.176,21.676a.176.176,0,0,1-.176-.176V92.489a.176.176,0,0,1,.176-.176H5.313v4.881H1.955Zm16.769,1.779a.907.907,0,0,0,.507-.159l0,0,3.956-2.786a1.556,1.556,0,0,0,0-2.544L19.237,90.7l-.005,0a.887.887,0,0,0-.466-.157l-.041,0H5.556V72.7H27.609a.828.828,0,0,1,.827.827v35.394a2.662,2.662,0,0,0-.827-.134H5.556V98.974H18.725Zm-.89-1.779H7.092V92.313H17.835Zm4.074-2.441L19.614,96.37V93.138ZM56.873,112.7a.553.553,0,0,1-.552.552H32.295a3.861,3.861,0,0,0-2.079.611V111.1c.169-.16.3-.538.827-.538H53.185a1.693,1.693,0,0,0,1.691-1.691v-33.9h1.445a.553.553,0,0,1,.552.552Z" transform="translate(0 -54.352)"/>
    </g>
  </g>
</svg>
