<svg xmlns="http://www.w3.org/2000/svg" width="82" height="82" viewBox="0 0 82 82">
  <g id="Grupo_1202289" data-name="Grupo 1202289" transform="translate(-1231.835 -5403)">
    <rect id="Rectángulo_409903" data-name="Rectángulo 409903" width="82" height="82" transform="translate(1231.835 5403)" fill="none"/>
    <g id="Conveyor_Belt" data-name="Conveyor Belt" transform="translate(1240.835 5412)">
      <path id="Trazado_1036489" data-name="Trazado 1036489" d="M64,31a8.009,8.009,0,0,0-8-8H51.816A2.965,2.965,0,0,0,52,22V12a3,3,0,0,0-3-3H37a3,3,0,0,0-3,3v1.184A2.965,2.965,0,0,0,33,13H25a3,3,0,0,0-3,3v6a2.965,2.965,0,0,0,.184,1H0v2H56a6,6,0,1,1,0,12H0v2H55v9H0v2H58v3H0v2H59a1,1,0,0,0,1-1V49a1,1,0,0,0-1-1H57V38.931A8.007,8.007,0,0,0,64,31ZM44,11v3H42V11ZM30,15v2H28V15Zm-5,8a1,1,0,0,1-1-1V16a1,1,0,0,1,1-1h1v3a1,1,0,0,0,1,1h4a1,1,0,0,0,1-1V15h1a1,1,0,0,1,1,1v6a1,1,0,0,1-1,1Zm12,0a1,1,0,0,1-1-1V12a1,1,0,0,1,1-1h3v4a1,1,0,0,0,1,1h4a1,1,0,0,0,1-1V11h3a1,1,0,0,1,1,1V22a1,1,0,0,1-1,1Z"/>
      <path id="Trazado_1036490" data-name="Trazado 1036490" d="M56,35a4,4,0,0,0,0-8H0v2H4.556a3.873,3.873,0,0,0,0,4H0v2ZM46,31a2,2,0,1,1-2-2,2,2,0,0,1,2,2Zm1.444-2h5.113a3.873,3.873,0,0,0,0,4H47.444a3.873,3.873,0,0,0,0-4Zm-6.887,4H35.444a3.873,3.873,0,0,0,0-4h5.113a3.873,3.873,0,0,0,0,4ZM34,31a2,2,0,1,1-2-2,2,2,0,0,1,2,2Zm-5.444,2H23.444a3.873,3.873,0,0,0,0-4h5.113A3.873,3.873,0,0,0,28.556,33ZM22,31a2,2,0,1,1-2-2,2,2,0,0,1,2,2Zm-5.444,2H11.444a3.873,3.873,0,0,0,0-4h5.113A3.873,3.873,0,0,0,16.556,33ZM58,31a2,2,0,1,1-2-2,2,2,0,0,1,2,2ZM6,31a2,2,0,1,1,2,2A2,2,0,0,1,6,31Z"/>
      <path id="Trazado_1036491" data-name="Trazado 1036491" d="M11,15h8a1,1,0,0,0,0-2H11a1,1,0,0,0,0,2Z"/>
      <path id="Trazado_1036492" data-name="Trazado 1036492" d="M7,18H19a1,1,0,0,0,0-2H7a1,1,0,0,0,0,2Z"/>
      <path id="Trazado_1036493" data-name="Trazado 1036493" d="M19,19H14a1,1,0,0,0,0,2h5a1,1,0,0,0,0-2Z"/>
    </g>
  </g>
</svg>
