<svg xmlns="http://www.w3.org/2000/svg" width="82" height="82" viewBox="0 0 82 82">
  <g id="Grupo_1202241" data-name="Grupo 1202241" transform="translate(8598 5674)">
    <g id="Grupo_1189674" data-name="Grupo 1189674" transform="translate(-9366.781 -7637)">
      <rect id="Rectángulo_402627" data-name="Rectángulo 402627" width="82" height="82" transform="translate(768.781 1963)" fill="#fff"/>
    </g>
    <path id="Trazado_1036501" data-name="Trazado 1036501" d="M12.855,45.455a.949.949,0,0,1,.949-.949h9.875a.949.949,0,1,1,0,1.9H13.8a.949.949,0,0,1-.949-.949Zm17.923,5.708H13.8a.949.949,0,0,0,0,1.9H30.778a.949.949,0,0,0,0-1.9Zm0,6.657H13.8a.949.949,0,1,0,0,1.9H30.778a.949.949,0,0,0,0-1.9Zm0,6.657H13.8a.949.949,0,1,0,0,1.9H30.778a.949.949,0,0,0,0-1.9Zm17.593-4.8V57.054l-5.49-.028V75.184h5.49V72.563a3.308,3.308,0,0,1,3.3-3.3h7.139a3.308,3.308,0,0,1,3.3,3.151l3.124-2.835a.949.949,0,1,1,1.275,1.405l-4.4,3.989V79.7a3.308,3.308,0,0,1-3.3,3.3H51.675a3.308,3.308,0,0,1-3.3-3.3V77.081H41.932a.949.949,0,0,1-.949-.949V57.017l-4.4-.022V74.513a.949.949,0,0,1-.949.949H8.949A.949.949,0,0,1,8,74.513V36.367a.949.949,0,0,1,.949-.949H28.07a.949.949,0,0,1,.685.292l7.563,7.894a.949.949,0,0,1,.264.656V55.1l4.4.022V36.087a.949.949,0,0,1,.949-.949h6.439V32.517a3.308,3.308,0,0,1,3.3-3.3h7.139a3.308,3.308,0,0,1,3.3,3.151l3.124-2.835a.949.949,0,1,1,1.275,1.405l-4.4,3.989v4.733a3.308,3.308,0,0,1-3.3,3.3H51.675a3.308,3.308,0,0,1-3.3-3.3V37.036h-5.49V55.128l5.49.028V52.54a3.308,3.308,0,0,1,3.3-3.3h7.139a3.308,3.308,0,0,1,3.3,3.151l3.124-2.835a.949.949,0,0,1,1.275,1.405l-4.4,3.989v4.733a3.308,3.308,0,0,1-3.3,3.3H51.675a3.308,3.308,0,0,1-3.3-3.3Zm1.9,0a1.408,1.408,0,0,0,1.407,1.407h7.139a1.408,1.408,0,0,0,1.407-1.407V56.668L58.095,58.6a.949.949,0,0,1-1.308-.032L53.32,55.1a.949.949,0,0,1,1.342-1.342l2.827,2.827,2.732-2.479V52.54a1.408,1.408,0,0,0-1.407-1.407H51.675a1.408,1.408,0,0,0-1.407,1.407v7.139Zm0-20.023a1.408,1.408,0,0,0,1.407,1.407h7.139a1.408,1.408,0,0,0,1.407-1.407V36.645l-2.126,1.929a.949.949,0,0,1-1.308-.032L53.32,35.076a.949.949,0,0,1,1.342-1.342l2.827,2.827,2.732-2.479V32.517a1.408,1.408,0,0,0-1.407-1.407H51.675a1.408,1.408,0,0,0-1.407,1.407v7.139Zm-21.58-1.273v4.929H33.41Zm6,35.18V45.21H27.739a.949.949,0,0,1-.949-.949V37.316H9.9V73.564ZM50.268,79.7a1.408,1.408,0,0,0,1.407,1.407h7.139A1.408,1.408,0,0,0,60.221,79.7V76.69L58.1,78.62a.949.949,0,0,1-1.308-.032l-3.466-3.466a.949.949,0,1,1,1.342-1.342l2.827,2.827,2.732-2.479V72.563a1.408,1.408,0,0,0-1.407-1.407H51.675a1.408,1.408,0,0,0-1.407,1.407V79.7Z" transform="translate(-8594 -5689.213)"/>
  </g>
</svg>
