<svg xmlns="http://www.w3.org/2000/svg" width="100" height="100" viewBox="0 0 100 100">
  <g id="Grupo_1202251" data-name="Grupo 1202251" transform="translate(-279.051 -6873)">
    <rect id="Rectángulo_409765" data-name="Rectángulo 409765" width="100" height="100" transform="translate(279.051 6873)" fill="none"/>
    <g id="Layer_x0020_1" transform="translate(283.582 6845.897)">
      <g id="_534990168" transform="translate(0 38)">
        <g id="Grupo_1202250" data-name="Grupo 1202250">
          <g id="Grupo_1202242" data-name="Grupo 1202242" transform="translate(19.67 48.25)">
            <path id="Trazado_1036502" data-name="Trazado 1036502" d="M144.892,338.139c-3.73,0-7.1-1.6-14.742-5.151-2.131-.888-4.44-1.954-7.46-3.375l-6.039,1.776a1.293,1.293,0,1,1-.71-2.487l6.572-1.776a1.6,1.6,0,0,1,.888.178c3.019,1.243,5.506,2.487,7.815,3.552,6.572,2.842,9.769,4.44,12.61,4.618,2.842.355,5.684-.533,11.367-2.309,3.552-1.066,8.525-2.664,15.275-4.44a3.268,3.268,0,0,0,2.309-4.085,3.17,3.17,0,0,0-1.6-2.131,3,3,0,0,0-2.487-.178l-16.34,4.263a4.517,4.517,0,0,1-.71,3.019,5.59,5.59,0,0,1-3.019,2.309,5.134,5.134,0,0,1-4.263-.533l-10.3-5.861a1.084,1.084,0,0,1-.533-1.6,1.231,1.231,0,0,1,1.776-.533l10.3,5.861a3.551,3.551,0,0,0,2.309.355,2.834,2.834,0,0,0,1.6-1.243v-.178a2.907,2.907,0,0,0,.355-2.131,3.257,3.257,0,0,0-1.243-1.776c-5.684-3.2-9.413-5.861-12.255-7.637-4.263-2.842-6.216-4.263-9.058-4.44-3.019-.178-6.927.71-14.919,3.019a1.293,1.293,0,0,1-.71-2.487c8.348-2.131,12.433-3.375,15.808-3.019,3.375.178,5.861,1.776,10.3,4.8,2.664,1.954,6.572,4.44,11.9,7.637a6.123,6.123,0,0,1,2.131,2.131l16.163-4.44a5.832,5.832,0,0,1,7.282,4.085,6.142,6.142,0,0,1-4.085,7.282c-6.749,1.776-11.722,3.2-15.275,4.44C150.753,337.251,147.734,338.139,144.892,338.139Z" transform="translate(-110.745 -309.661)" fill-rule="evenodd"/>
          </g>
          <g id="Grupo_1202243" data-name="Grupo 1202243" transform="translate(6.572 47.377)">
            <path id="Trazado_1036503" data-name="Trazado 1036503" d="M44.815,334.807a1.336,1.336,0,0,1-1.243-.888L37,309.586a2.253,2.253,0,0,1,.178-1.066,2.452,2.452,0,0,1,.71-.533l12.078-3.2a1.271,1.271,0,0,1,1.6.888l6.572,24.333a1.331,1.331,0,0,1-.178.888,1.387,1.387,0,0,1-.71.71l-12.078,3.2Zm-4.973-24.688L45.7,331.965l9.591-2.487-5.861-22.024Z" transform="translate(-37 -304.745)" fill-rule="evenodd"/>
          </g>
          <g id="Grupo_1202244" data-name="Grupo 1202244" transform="translate(11.83 52.69)">
            <path id="Trazado_1036504" data-name="Trazado 1036504" d="M70.23,342a3.2,3.2,0,0,1-1.776-.355,4.546,4.546,0,0,1-1.776-2.309,5.063,5.063,0,0,1,.355-2.842,4.546,4.546,0,0,1,2.309-1.776h.178a3.972,3.972,0,0,1,4.44,2.664A3.845,3.845,0,0,1,71.3,342Zm-.355-4.8c-.355,0-.533.355-.71.533,0,.355-.178.533,0,.888a1.107,1.107,0,0,0,.533.888c.355,0,.533.178.888,0a1.223,1.223,0,0,0,.888-1.421C71.3,337.383,70.585,337.205,69.874,337.205Z" transform="translate(-66.608 -334.658)" fill-rule="evenodd"/>
          </g>
          <g id="Grupo_1202245" data-name="Grupo 1202245">
            <path id="Trazado_1036505" data-name="Trazado 1036505" d="M25.576,81.515H17.939A1.214,1.214,0,0,1,16.7,80.272V74.766a10.865,10.865,0,0,1-2.131-.888l-3.73,3.907a1.187,1.187,0,0,1-1.776,0L3.552,72.457a1.288,1.288,0,0,1,0-1.776L7.46,66.773a8.658,8.658,0,0,1-.71-1.954H1.243A1.214,1.214,0,0,1,0,63.576V55.939A1.214,1.214,0,0,1,1.243,54.7H6.749a8.658,8.658,0,0,1,.71-1.954L3.552,48.834c-.178-.355-.355-.533-.355-.888a1.357,1.357,0,0,1,.355-.888L9.058,41.73a1.187,1.187,0,0,1,1.776,0l3.73,3.73c.71-.178,1.421-.533,2.131-.71V39.243A1.214,1.214,0,0,1,17.939,38h7.637a1.214,1.214,0,0,1,1.243,1.243v5.506a9.519,9.519,0,0,1,1.954.888l3.907-3.907a1.187,1.187,0,0,1,1.776,0l5.328,5.328a1.187,1.187,0,0,1,0,1.776l-3.907,3.907a9.519,9.519,0,0,1,.888,1.954h5.506a1.214,1.214,0,0,1,1.243,1.243v7.637a1.214,1.214,0,0,1-1.243,1.243H36.766c-.178.71-.533,1.243-.71,1.954l3.73,3.907a1.187,1.187,0,0,1,0,1.776l-5.328,5.328a1.187,1.187,0,0,1-1.776,0l-3.907-3.73c-.71.178-1.243.533-1.954.71v5.506A1.214,1.214,0,0,1,25.576,81.515Zm-6.394-2.487h5.151V73.878a1.336,1.336,0,0,1,.888-1.243,9.992,9.992,0,0,0,3.2-1.243,1.075,1.075,0,0,1,1.421.178l3.73,3.552,3.552-3.552-3.552-3.73a1.341,1.341,0,0,1-.178-1.421,9.992,9.992,0,0,0,1.243-3.2,1.336,1.336,0,0,1,1.243-.888h5.151V57.182H35.878a1.336,1.336,0,0,1-1.243-.888,9.992,9.992,0,0,0-1.243-3.2,1.341,1.341,0,0,1,.178-1.421l3.552-3.73-3.552-3.552-3.73,3.552a1.075,1.075,0,0,1-1.421.178,17.1,17.1,0,0,0-3.2-1.243,1.336,1.336,0,0,1-.888-1.243V40.487H19.182v5.151a1.336,1.336,0,0,1-.888,1.243,15.849,15.849,0,0,0-3.375,1.243,1.075,1.075,0,0,1-1.421-.178L9.946,44.394l-3.73,3.552,3.73,3.73a1.322,1.322,0,0,1,.178,1.6,11.882,11.882,0,0,0-1.243,3.019,1.336,1.336,0,0,1-1.243.888H2.487v5.151H7.637a1.336,1.336,0,0,1,1.243.888,11.882,11.882,0,0,0,1.243,3.019,1.322,1.322,0,0,1-.178,1.6l-3.73,3.73,3.73,3.552L13.5,71.569a1.075,1.075,0,0,1,1.421-.178,15.849,15.849,0,0,0,3.375,1.243,1.336,1.336,0,0,1,.888,1.243Z" transform="translate(0 -38)" fill-rule="evenodd"/>
          </g>
          <g id="Grupo_1202246" data-name="Grupo 1202246" transform="translate(13.492 13.491)">
            <path id="Trazado_1036506" data-name="Trazado 1036506" d="M84.139,130.485h-.533a8.4,8.4,0,0,1-7.637-8.7V121.6a8.276,8.276,0,0,1,8.7-7.637h.178a8.238,8.238,0,0,1,5.684,3.019,8.357,8.357,0,0,1,1.776,5.684,8.2,8.2,0,0,1-2.664,5.684A7.942,7.942,0,0,1,84.139,130.485ZM83.962,128a6.258,6.258,0,0,0,4.085-1.6,5,5,0,0,0,1.776-3.73v-.178a5.2,5.2,0,0,0-1.243-3.907,6.174,6.174,0,0,0-3.907-2.131,5.892,5.892,0,0,0-6.216,5.328A6.038,6.038,0,0,0,83.962,128Z" transform="translate(-75.962 -113.96)" fill-rule="evenodd"/>
          </g>
          <g id="Grupo_1202247" data-name="Grupo 1202247" transform="translate(47.578 0.178)">
            <path id="Trazado_1036507" data-name="Trazado 1036507" d="M274.113,82.16a6.533,6.533,0,0,1-3.73-1.421,8.084,8.084,0,0,1-2.487-6.572A7.578,7.578,0,0,1,269.14,69.9l15.1-27.352A6.01,6.01,0,0,1,289.565,39a6.219,6.219,0,0,1,5.328,3.552l15.1,27.53a6.911,6.911,0,0,1,1.243,4.085,8.566,8.566,0,0,1-2.664,6.572,5.631,5.631,0,0,1-4.44,1.421H274.113Zm-1.954-3.2a2.981,2.981,0,0,0,2.309.71h30.016a2.626,2.626,0,0,0,2.309-.71h.178a6.882,6.882,0,0,0,1.776-4.8,5.359,5.359,0,0,0-.888-2.842v-.178l-15.1-27.53a3.463,3.463,0,0,0-6.394,0l-15.1,27.53v.178a4.914,4.914,0,0,0-.888,2.842v.178A5.662,5.662,0,0,0,272.159,78.963Z" transform="translate(-267.874 -39)" fill-rule="evenodd"/>
          </g>
          <g id="Grupo_1202248" data-name="Grupo 1202248" transform="translate(65.717 9.413)">
            <path id="Trazado_1036508" data-name="Trazado 1036508" d="M373.552,110.182A3.531,3.531,0,0,1,370,106.808V94.552A3.563,3.563,0,0,1,373.552,91a3.415,3.415,0,0,1,3.375,3.552v12.255A3.494,3.494,0,0,1,373.552,110.182Zm0-16.7a1.146,1.146,0,0,0-1.066,1.066v12.255a1.152,1.152,0,0,0,1.066.888.951.951,0,0,0,.888-.888V94.552A1,1,0,0,0,373.552,93.487Z" transform="translate(-370 -91)" fill-rule="evenodd"/>
          </g>
          <g id="Grupo_1202249" data-name="Grupo 1202249" transform="translate(65.184 31.082)">
            <path id="Trazado_1036509" data-name="Trazado 1036509" d="M371.085,220.993a4,4,0,1,1,0-7.993,3.942,3.942,0,0,1,3.907,3.907A3.983,3.983,0,0,1,371.085,220.993Zm0-5.506a1.566,1.566,0,0,0-1.6,1.421,1.592,1.592,0,0,0,1.6,1.6,1.566,1.566,0,0,0,1.421-1.6A1.528,1.528,0,0,0,371.085,215.487Z" transform="translate(-367 -213)" fill-rule="evenodd"/>
          </g>
        </g>
      </g>
    </g>
  </g>
</svg>
