<svg xmlns="http://www.w3.org/2000/svg" width="82" height="82" viewBox="0 0 82 82">
  <g id="Grupo_1202213" data-name="Grupo 1202213" transform="translate(-444.835 -1718)">
    <rect id="Rectángulo_409878" data-name="Rectángulo 409878" width="82" height="82" transform="translate(444.835 1718)" fill="none"/>
    <g id="Grupo_1202212" data-name="Grupo 1202212" transform="translate(451.835 1699.232)">
      <g id="Grupo_1202205" data-name="Grupo 1202205" transform="translate(0 30.768)">
        <g id="Grupo_1202204" data-name="Grupo 1202204">
          <path id="Trazado_1036391" data-name="Trazado 1036391" d="M60.991,58.253H48.04L57.2,49.1a5.981,5.981,0,0,0,1.764-4.257,6.053,6.053,0,0,0-.2-1.543l3.274-.577A6.02,6.02,0,1,0,59.945,30.86L5.809,40.405A6.021,6.021,0,1,0,7.9,52.264l25.409-4.481a1.309,1.309,0,1,0-.454-2.578L7.446,49.686a3.4,3.4,0,0,1-1.182-6.7L60.4,33.438a3.4,3.4,0,0,1,1.182,6.7l-4.118.726c-.086-.1-.173-.193-.266-.285a6.027,6.027,0,0,0-8.514,0L31.012,58.253H6.02a6.02,6.02,0,0,0,0,12.041h12.95L9.813,79.451a6.021,6.021,0,0,0,8.514,8.514L36,70.294H60.991a6.02,6.02,0,0,0,0-12.041ZM6.02,67.676a3.4,3.4,0,0,1,0-6.806H28.394l-6.806,6.806H6.02ZM16.477,86.114A3.4,3.4,0,0,1,11.665,81.3l38.87-38.87a3.4,3.4,0,1,1,4.812,4.812ZM60.991,67.676H38.617l6.806-6.806H60.991a3.4,3.4,0,1,1,0,6.806Z" transform="translate(0 -30.768)"/>
        </g>
      </g>
      <g id="Grupo_1202207" data-name="Grupo 1202207" transform="translate(37.635 44.152)">
        <g id="Grupo_1202206" data-name="Grupo 1202206" transform="translate(0 0)">
          <path id="Trazado_1036392" data-name="Trazado 1036392" d="M289.78,133.416a1.308,1.308,0,1,0,.383.925A1.313,1.313,0,0,0,289.78,133.416Z" transform="translate(-287.546 -133.032)"/>
        </g>
      </g>
      <g id="Grupo_1202209" data-name="Grupo 1202209" transform="translate(13.121 75.431)">
        <g id="Grupo_1202208" data-name="Grupo 1202208">
          <path id="Trazado_1036393" data-name="Trazado 1036393" d="M109.093,372.4a1.309,1.309,0,0,0-1.851,0l-6.609,6.609a1.309,1.309,0,1,0,1.851,1.851l6.609-6.609A1.309,1.309,0,0,0,109.093,372.4Z" transform="translate(-100.249 -372.014)"/>
        </g>
      </g>
      <g id="Grupo_1202211" data-name="Grupo 1202211" transform="translate(23.068 72.093)">
        <g id="Grupo_1202210" data-name="Grupo 1202210">
          <path id="Trazado_1036394" data-name="Trazado 1036394" d="M178.482,346.893a1.308,1.308,0,1,0,.383.925A1.319,1.319,0,0,0,178.482,346.893Z" transform="translate(-176.248 -346.51)"/>
        </g>
      </g>
    </g>
  </g>
</svg>
