<svg xmlns="http://www.w3.org/2000/svg" width="82" height="82" viewBox="0 0 82 82">
  <g id="Grupo_1202310" data-name="Grupo 1202310" transform="translate(-602.051 -910)">
    <rect id="Rectángulo_409854" data-name="Rectángulo 409854" width="82" height="82" transform="translate(602.051 910)" fill="none"/>
    <g id="Grupo_1202309" data-name="Grupo 1202309" transform="translate(610.561 919)">
      <path id="Trazado_1036796" data-name="Trazado 1036796" d="M28.488,40.505V29.271a1,1,0,1,0-2,0V40.992a1,1,0,0,0,.4.8,8.915,8.915,0,0,1,3.6,7.2c-.475,11.949-17.549,11.932-18.017,0a8.915,8.915,0,0,1,3.6-7.2,1,1,0,0,0,.4-.8V10.955a5.006,5.006,0,1,1,10.01.22,1.011,1.011,0,1,0,2-.22c-.315-9.278-13.689-9.267-14.013,0V40.505C6.544,46.937,11.262,60.048,21.481,60c10.251.01,14.931-13.017,7.006-19.495Z"/>
      <path id="Trazado_1036797" data-name="Trazado 1036797" d="M21.481,10.954a1,1,0,0,0-1,1V43.575a5.505,5.505,0,1,0,2,0V11.955a1,1,0,0,0-1-1Zm3.5,38.035a3.5,3.5,0,1,1-3.5-3.5,3.5,3.5,0,0,1,3.5,3.5Z"/>
      <path id="Trazado_1036798" data-name="Trazado 1036798" d="M39.22,21.607c0-3.153-4.947-11.264-5.511-12.179a1.042,1.042,0,0,0-1.7,0c-.564.915-5.511,9.026-5.511,12.179a6.363,6.363,0,1,0,12.727,0Zm-6.363,4.361A4.367,4.367,0,0,1,28.5,21.607c0-1.691,2.407-6.365,4.361-9.707,1.954,3.342,4.361,8.016,4.361,9.707A4.367,4.367,0,0,1,32.857,25.968Z"/>
      <path id="Trazado_1036799" data-name="Trazado 1036799" d="M48.453,30.754a1,1,0,0,0-1.343.448L38.1,49.218a1,1,0,1,0,1.791.9L48.9,32.1a1,1,0,0,0-.448-1.343Z"/>
      <path id="Trazado_1036800" data-name="Trazado 1036800" d="M40.9,37.055a3.7,3.7,0,1,0-3.7,3.7A3.7,3.7,0,0,0,40.9,37.055Zm-3.7,1.7a1.7,1.7,0,1,1,1.7-1.7,1.7,1.7,0,0,1-1.7,1.7Z"/>
      <path id="Trazado_1036801" data-name="Trazado 1036801" d="M49.807,40.558a3.7,3.7,0,1,0,3.7,3.7,3.7,3.7,0,0,0-3.7-3.7Zm0,5.405a1.7,1.7,0,1,1,1.7-1.7,1.7,1.7,0,0,1-1.7,1.7Z"/>
    </g>
  </g>
</svg>
