<svg xmlns="http://www.w3.org/2000/svg" width="100" height="100" viewBox="0 0 100 100">
  <g id="Grupo_1202253" data-name="Grupo 1202253" transform="translate(-909.051 -6873)">
    <rect id="Rectángulo_409767" data-name="Rectángulo 409767" width="100" height="100" transform="translate(909.051 6873)" fill="none"/>
    <g id="OUTLINE" transform="translate(902.051 6865)">
      <path id="Trazado_1036512" data-name="Trazado 1036512" d="M175.032,256a15.033,15.033,0,1,0,15.033,15.033A15.033,15.033,0,0,0,175.032,256Zm0,27.333a12.3,12.3,0,1,1,12.3-12.3A12.3,12.3,0,0,1,175.032,283.333Z" transform="translate(-119.399 -199)"/>
      <path id="Trazado_1036513" data-name="Trazado 1036513" d="M205.667,288h-8.2v5.467H192v8.2h5.467v5.467h8.2v-5.467h5.467v-8.2h-5.467Zm2.733,8.2v2.733h-5.467V304.4H200.2v-5.467h-5.467V296.2H200.2v-5.467h2.733V296.2Z" transform="translate(-145.933 -225.533)"/>
      <path id="Trazado_1036514" data-name="Trazado 1036514" d="M23.818,334.354l-2.675.563a40.873,40.873,0,0,0,1.135,4.243l2.6-.848a38.055,38.055,0,0,1-1.058-3.957Z" transform="translate(-4.264 -263.968)"/>
      <path id="Trazado_1036515" data-name="Trazado 1036515" d="M36.4,372.964,33.87,374a40.977,40.977,0,0,0,2.033,4.242l2.393-1.322a38.2,38.2,0,0,1-1.9-3.958Z" transform="translate(-14.817 -295.983)"/>
      <path id="Trazado_1036516" data-name="Trazado 1036516" d="M58.086,411.58l-2.278,1.51a41.2,41.2,0,0,0,15.819,14.037l1.227-2.442a38.463,38.463,0,0,1-14.768-13.1Z" transform="translate(-33.007 -328.002)"/>
      <path id="Trazado_1036517" data-name="Trazado 1036517" d="M356.409,475.931l1.227,2.442a41.108,41.108,0,0,0,4.643-2.729l-1.537-2.261A38.366,38.366,0,0,1,356.409,475.931Z" transform="translate(-282.256 -379.247)"/>
      <path id="Trazado_1036518" data-name="Trazado 1036518" d="M401.947,438.715l1.782,2.073a41.376,41.376,0,0,0,4.261-4.24l-2.064-1.792a38.641,38.641,0,0,1-3.978,3.96Z" transform="translate(-320.015 -347.218)"/>
      <path id="Trazado_1036519" data-name="Trazado 1036519" d="M437.5,348.866l2.213,1.6a40.576,40.576,0,0,0,6.9-15.554l-2.675-.563A37.855,37.855,0,0,1,437.5,348.866Z" transform="translate(-349.494 -263.968)"/>
      <rect id="Rectángulo_409951" data-name="Rectángulo 409951" width="3" height="16" transform="translate(23 50.268)"/>
      <path id="Trazado_1036520" data-name="Trazado 1036520" d="M92.319,41.287l-5.807-2.581a1.368,1.368,0,0,1-.811-1.249v-1.91l1.356-2.034a8.175,8.175,0,0,0,1.377-4.548V24.2a8.2,8.2,0,1,0-16.4,0v4.764a8.175,8.175,0,0,0,1.377,4.549l1.356,2.034v1.91a1.368,1.368,0,0,1-.812,1.249l-5.338,2.373-5.339-2.373a1.368,1.368,0,0,1-.811-1.249v-1.91l1.356-2.034A8.175,8.175,0,0,0,65.2,28.964V24.2a8.2,8.2,0,0,0-16.4,0v4.764a8.175,8.175,0,0,0,1.377,4.549l1.356,2.034v1.91a1.368,1.368,0,0,1-.812,1.249l-5.338,2.373-5.339-2.373a1.368,1.368,0,0,1-.811-1.249v-1.91l1.356-2.034a8.175,8.175,0,0,0,1.377-4.548V24.2a8.2,8.2,0,1,0-16.4,0v4.764a8.175,8.175,0,0,0,1.377,4.549L28.3,35.547v1.91a1.368,1.368,0,0,1-.812,1.249l-5.807,2.581A9.575,9.575,0,0,0,16,50.029V66.567h2.733V50.029a6.839,6.839,0,0,1,4.058-6.244L28.6,41.2a4.1,4.1,0,0,0,2.435-3.747V34.72L29.218,32a5.45,5.45,0,0,1-.918-3.033V24.2a5.467,5.467,0,1,1,10.933,0v4.764A5.451,5.451,0,0,1,38.315,32L36.5,34.72v2.737A4.1,4.1,0,0,0,38.935,41.2l3.6,1.6a9.576,9.576,0,0,0-3.3,7.226v1.655l-5.022,5.022,3.531,5.762-1.526,3.683-6.549,1.57v8.622l6.549,1.57L37.742,81.6,34.211,87.36l6.1,6.1,5.762-3.531,3.683,1.526L51.322,98h8.622l1.57-6.549L65.2,89.925l5.762,3.531,6.1-6.1L73.525,81.6l1.526-3.683,6.549-1.57V67.722l-6.549-1.57-1.526-3.683,3.531-5.762-2.289-2.289V50.029a9.576,9.576,0,0,0-3.3-7.226l3.6-1.6A4.1,4.1,0,0,0,77.5,37.457V34.72L75.685,32a5.45,5.45,0,0,1-.918-3.033V24.2a5.467,5.467,0,0,1,10.933,0v4.764A5.451,5.451,0,0,1,84.782,32L82.967,34.72v2.737A4.1,4.1,0,0,0,85.4,41.2l5.807,2.581a6.839,6.839,0,0,1,4.058,6.244V66.567H98V50.029a9.575,9.575,0,0,0-5.681-8.742ZM73.6,57.116l-3.133,5.112,2.593,6.257,5.807,1.392v4.311l-5.807,1.392-2.593,6.257L73.6,86.951,70.551,90l-5.112-3.133L59.181,89.46l-1.392,5.807H53.478l-1.392-5.807-6.257-2.593L40.716,90l-3.048-3.048L40.8,81.838l-2.593-6.257L32.4,74.189V69.878l5.807-1.392L40.8,62.228l-3.133-5.113,3.048-3.048L45.828,57.2l6.257-2.593L53.478,48.8h4.311l1.392,5.807L65.438,57.2l5.113-3.133,1.482,1.482v.084h.084Zm-1.566-7.087v1.655L70.96,50.611,65.2,54.142l-3.683-1.526-1.57-6.549H51.322l-1.57,6.549-3.683,1.526-4.1-2.514v-1.6a6.839,6.839,0,0,1,4.058-6.244L51.832,41.2a4.1,4.1,0,0,0,2.435-3.747V34.72L52.452,32a5.45,5.45,0,0,1-.918-3.033V24.2a5.467,5.467,0,0,1,10.933,0v4.764A5.451,5.451,0,0,1,61.549,32L59.733,34.72v2.737A4.1,4.1,0,0,0,62.168,41.2l5.807,2.581a6.839,6.839,0,0,1,4.058,6.244Z"/>
      <rect id="Rectángulo_409952" data-name="Rectángulo 409952" width="3" height="16" transform="translate(88 50.268)"/>
    </g>
  </g>
</svg>
