<svg xmlns="http://www.w3.org/2000/svg" width="80" height="80" viewBox="0 0 80 80">
  <g id="Grupo_1202293" data-name="Grupo 1202293" transform="translate(-768.835 -6837)">
    <rect id="Rectángulo_409950" data-name="Rectángulo 409950" width="80" height="80" transform="translate(768.835 6837)" fill="none"/>
    <g id="Grupo_1202294" data-name="Grupo 1202294" transform="translate(778.835 6848)">
      <path id="Trazado_1036496" data-name="Trazado 1036496" d="M58.949,52.52A14.019,14.019,0,0,0,43.9,42.113l3.272-6.691,0,0a1.16,1.16,0,1,0,1.018-2.084l-4.367-2.134,1.252-2.56a1.16,1.16,0,0,0-.533-1.552l-.278-.135,7.984-16.331c.193,0,.388-.012.584-.031a5.4,5.4,0,0,0,4.305-2.985l.141-.289a1.138,1.138,0,0,0,.213.02A1.16,1.16,0,0,0,58,5.14L47.723.118A1.16,1.16,0,0,0,46.445,2.03l-.14.288a5.4,5.4,0,0,0,.289,5.23q.156.246.33.475L38.939,24.356l-.278-.136a1.16,1.16,0,0,0-1.552.533l-1.252,2.561L31.488,25.18a1.16,1.16,0,1,0-1.018,2.085l0,0-4.509,9.22a16.851,16.851,0,0,0-12.41,8.459c-.332-.027-.663-.04-.991-.04A12.551,12.551,0,0,0,0,57.465a1.16,1.16,0,0,0,1.16,1.16H58.151A1.16,1.16,0,0,0,59.3,57.594a13.984,13.984,0,0,0-.355-5.074ZM55.055,6.592A3.069,3.069,0,0,1,52.61,8.287a4.292,4.292,0,0,1-4.057-1.982,3.064,3.064,0,0,1-.164-2.968l.123-.251,6.666,3.256ZM48.713,9.646a6.6,6.6,0,0,0,1.158.566L42.182,25.94l-1.159-.566ZM38.684,26.814l3.8,1.856-.743,1.518-3.8-1.856Zm6.4,7.59-3.9,7.971a16.924,16.924,0,0,0-12.565-6.039l3.937-8.05ZM57.07,56.3H2.384a10.119,10.119,0,0,1,.547-2.335h9.017a1.16,1.16,0,1,0,0-2.32H4.131a10.261,10.261,0,0,1,9.914-4.316,1.16,1.16,0,0,0,1.2-.63,14.536,14.536,0,0,1,24.78-2.046,1.16,1.16,0,0,0,1.338.407q.385-.141.776-.254l.026-.007A11.7,11.7,0,0,1,56.225,51.65H26.987a1.16,1.16,0,0,0,0,2.32H56.892a11.739,11.739,0,0,1,.181,2.059Q57.073,56.166,57.07,56.3Zm0,0"/>
      <path id="Trazado_1036497" data-name="Trazado 1036497" d="M243.775,359.569a1.158,1.158,0,0,1-.94-.479,10,10,0,0,0-8.062-4.118,1.16,1.16,0,0,1,0-2.32,12.323,12.323,0,0,1,9.94,5.074,1.16,1.16,0,0,1-.938,1.842Zm0,0" transform="translate(-206.514 -311.744)"/>
      <path id="Trazado_1036498" data-name="Trazado 1036498" d="M189.91,447.571a1.12,1.12,0,0,1-.226-.024,1.166,1.166,0,0,1-.217-.066,1.149,1.149,0,0,1-.2-.107,1.123,1.123,0,0,1-.176-.144,1.154,1.154,0,0,1-.317-1.048,1.208,1.208,0,0,1,.066-.217,1.139,1.139,0,0,1,.107-.2,1.105,1.105,0,0,1,.144-.177,1.217,1.217,0,0,1,.176-.145,1.147,1.147,0,0,1,.2-.106,1.237,1.237,0,0,1,.217-.066,1.173,1.173,0,0,1,1.046.318,1.105,1.105,0,0,1,.144.177,1.139,1.139,0,0,1,.107.2,1.212,1.212,0,0,1,.067.217,1.135,1.135,0,0,1,.022.227,1.16,1.16,0,0,1-1.16,1.16Zm0,0" transform="translate(-166.854 -393.6)"/>
    </g>
  </g>
</svg>
