<svg xmlns="http://www.w3.org/2000/svg" width="80" height="80" viewBox="0 0 80 80">
  <g id="Grupo_1202295" data-name="Grupo 1202295" transform="translate(-768.835 -6837)">
    <rect id="Rectángulo_409950" data-name="Rectángulo 409950" width="80" height="80" transform="translate(768.835 6837)" fill="none"/>
    <g id="Grupo_1202298" data-name="Grupo 1202298" transform="translate(780.834 6849)">
      <g id="Grupo_1202298-2" data-name="Grupo 1202298" transform="translate(18.063 53.873)">
        <ellipse id="Elipse_12381" data-name="Elipse 12381" cx="0.833" cy="0.834" rx="0.833" ry="0.834"/>
        <ellipse id="Elipse_12382" data-name="Elipse 12382" cx="0.833" cy="0.834" rx="0.833" ry="0.834" transform="translate(35.814)"/>
      </g>
      <ellipse id="Elipse_12383" data-name="Elipse 12383" cx="0.833" cy="0.834" rx="0.833" ry="0.834" transform="translate(38.908 22.832)"/>
      <ellipse id="Elipse_12384" data-name="Elipse 12384" cx="0.833" cy="0.834" rx="0.833" ry="0.834" transform="translate(16.398 33.006)"/>
      <ellipse id="Elipse_12385" data-name="Elipse 12385" cx="0.593" cy="0.714" rx="0.593" ry="0.714" transform="translate(6.491 35.443)"/>
      <g id="Grupo_1202299" data-name="Grupo 1202299" transform="translate(0.007 0)">
        <path id="Trazado_1036499" data-name="Trazado 1036499" d="M384.4,204.339a.714.714,0,0,1-.1-1.417c.307-.045.618-.081.947-.119a7.258,7.258,0,0,0,3.545-1,.712.712,0,1,1,.872,1.126,8.378,8.378,0,0,1-4.252,1.289c-.318.037-.619.072-.905.114A.721.721,0,0,1,384.4,204.339Z" transform="translate(-338.181 -177.722)"/>
        <path id="Trazado_1036500" data-name="Trazado 1036500" d="M329.639,106.238a.741.741,0,0,1-.7-.911c.335-3.168.793-7.506,4.526-9A.712.712,0,0,1,334,97.645c-2.938,1.179-3.327,4.868-3.64,7.832A.745.745,0,0,1,329.639,106.238Z" transform="translate(-289.904 -84.846)"/>
        <ellipse id="Elipse_12386" data-name="Elipse 12386" cx="0.979" cy="1.196" rx="0.979" ry="1.196" transform="translate(9.987 12.939)"/>
        <path id="Trazado_1036501" data-name="Trazado 1036501" d="M254.487,257.714a10.017,10.017,0,0,1-1.28-.085.712.712,0,0,1,.182-1.413,6.859,6.859,0,0,0,5.871-1.877.712.712,0,0,1,.95,1.061A8.259,8.259,0,0,1,254.487,257.714Z" transform="translate(-222.616 -223.995)"/>
        <path id="Trazado_1036502" data-name="Trazado 1036502" d="M53.647,14.712c-.917-1.588-2.964-2.313-5.462-1.983a4.8,4.8,0,0,0-2.059-4.476c-2.574-1.486-6.407.5-8.725,4.51a12.06,12.06,0,0,0-1.476,4c-7.854.652-10.467-2.259-13.009-5.076A16.587,16.587,0,0,0,19.491,8.54c.092-.143.182-.288.267-.437,1.454-2.552,1.445-5.123-.02-5.981a2.62,2.62,0,0,0-2.813.357C16.407.942,15.462,0,14.362,0S12.316.942,11.8,2.479a2.621,2.621,0,0,0-2.813-.357C7.52,2.979,7.512,5.55,8.966,8.1c.118.207.244.408.376.6a9.341,9.341,0,0,0-2.628,2.647L.4,15.071A.718.718,0,0,0,.68,16.393l1.106.124a5.028,5.028,0,0,1,3.039,1.5l.119.111-2.7,1.547C.118,20.893-.428,24.138,1.871,25.5a3.248,3.248,0,0,0,4.913-2.674l-.025-1.166a9.219,9.219,0,0,0,6.9,4.093,18.023,18.023,0,0,0,1.106,5.677.712.712,0,0,0,.668.466.731.731,0,0,0,.689-.959,16.87,16.87,0,0,1-1.006-5.866.73.73,0,0,0-.73-.712A7.878,7.878,0,0,1,14.415,8.6c3.789,0,5.476,1.872,7.432,4.039,2.4,2.662,5.086,5.639,11.953,5.638a28.123,28.123,0,0,0,2.827-.151.712.712,0,0,0,.636-.634,10.343,10.343,0,0,1,1.372-4.021c1.855-3.213,4.96-5.039,6.78-3.989,1.049.606,1.53,2.106,1.287,4.015a.719.719,0,0,0,.864.784c2.251-.512,4.154-.065,4.848,1.138.712,1.233.112,3.142-1.529,4.864a.719.719,0,0,0,.257,1.155c1.866.728,3.025,1.953,3.025,3.2,0,1.738-2.177,3.317-5.175,3.755a.712.712,0,1,0,.206,1.409c3.764-.55,6.394-2.673,6.394-5.164,0-1.63-1.114-3.123-3.026-4.116,1.6-2.025,2.019-4.193,1.083-5.813Zm-50.782.562L5.626,13.65a9.338,9.338,0,0,0-.436,2.784,6.46,6.46,0,0,0-2.325-1.16Zm.091,5.633,2.335-1.34.069,3.287A1.816,1.816,0,0,1,2.6,24.272c-1.371-.811-.83-2.683.359-3.365ZM18.52,7.4q-.144.253-.305.493A9.747,9.747,0,0,0,14.4,7.179a9.249,9.249,0,0,0-3.8.831c-.137-.2-.267-.4-.388-.612C9.072,5.411,9.152,3.674,9.7,3.351c.408-.238,1.234.131,2.01.9a.719.719,0,0,0,1.2-.386c.263-1.527.94-2.439,1.444-2.439s1.182.912,1.444,2.439a.719.719,0,0,0,1.2.386c.776-.767,1.6-1.136,2.01-.9.552.323.633,2.06-.5,4.047Z" transform="translate(-0.055 0)"/>
      </g>
      <g id="Grupo_1202300" data-name="Grupo 1202300" transform="translate(0 3.33)">
        <ellipse id="Elipse_12387" data-name="Elipse 12387" cx="0.593" cy="0.712" rx="0.593" ry="0.712" transform="translate(47.745 32.512)"/>
        <path id="Trazado_1036503" data-name="Trazado 1036503" d="M52.556,195.337c.082-.005-1.391-.182-4.52,1.208a18.49,18.49,0,0,1,1.31-2.953.721.721,0,0,0-.648-1.087q-.522.032-1.016.09a9.785,9.785,0,0,0,.549-2.661,4.968,4.968,0,0,0,4.07-4.061l3-2.012-3.539-1.369a4.847,4.847,0,0,0-4.25-2.588,5.013,5.013,0,0,0-4.858,5.017,5.906,5.906,0,0,0-3.708.252c-.377-.221-.773-.427-1.165-.629-.526-.271-1.059-.548-1.532-.856a12.562,12.562,0,0,0,3.534-2.268,15.007,15.007,0,0,0,3.6-4.895.708.708,0,0,0,.07-.349.716.716,0,0,0-.648-.668c-2.777-.253-5.62-2.214-8.369-4.111-3.233-2.23-6.286-4.338-9.344-3.9a6.744,6.744,0,0,0-5.163,3.727,7.022,7.022,0,0,0,.181,6.541,12.878,12.878,0,0,0,7.843,6.194,14.881,14.881,0,0,0,3.982.577q.533,0,1.051-.046a6.392,6.392,0,0,0-.24,1.84,6.447,6.447,0,0,1-1.794-.99.724.724,0,0,0-1.126.428l-.1.472a11.376,11.376,0,0,0,1.685,8.055c.235.485.566,1.227.942,2.252a9.382,9.382,0,0,0-4.576-1.209,10.64,10.64,0,0,0-4.488,1.209c.739-2.014,2.99-4.475,2.391-10.7l-.1-.473a.725.725,0,0,0-1.126-.428,6.443,6.443,0,0,1-1.8,1,6.1,6.1,0,0,0-.1-1.568,6.888,6.888,0,0,0-.974-2.417.729.729,0,0,0-1.219.006,7.135,7.135,0,0,1-2.726,1.953c-.478.247-.96.5-1.407.775a5.933,5.933,0,0,0-3.466-.162,5.018,5.018,0,0,0-4.859-5.03,4.845,4.845,0,0,0-4.249,2.591l-3.54,1.372,3.005,2.017a4.974,4.974,0,0,0,4.07,4.068,9.742,9.742,0,0,0,.688,3.038c-.3-.033-.606-.06-.921-.079a.722.722,0,0,0-.649,1.085,18.511,18.511,0,0,1,1.311,2.954,10.642,10.642,0,0,0-4.488-1.209.722.722,0,0,0-.634,1.11,43.179,43.179,0,0,1,2.868,5.117H.734a.725.725,0,0,0-.718.555.713.713,0,0,0,.7.869H15.438a.726.726,0,0,0,.718-.555.713.713,0,0,0-.7-.869H6.939a42.65,42.65,0,0,0-2.445-4.627,8.063,8.063,0,0,1,4.015,1.971.719.719,0,0,0,1.158-.737,32.929,32.929,0,0,0-1.524-4.12,8.351,8.351,0,0,1,6.7,4.2A.722.722,0,0,0,16.1,198.2c1.087-2.306,3.329-3.7,6.674-4.148a32.937,32.937,0,0,0-1.525,4.121.719.719,0,0,0,1.158.736,8.062,8.062,0,0,1,4.015-1.97,42.732,42.732,0,0,0-2.445,4.627H21.868a.725.725,0,0,0-.718.555.713.713,0,0,0,.7.869H51.713a.725.725,0,0,0,.718-.555.713.713,0,0,0-.7-.869H50.29a42.868,42.868,0,0,1,2.868-5.116.723.723,0,0,0-.6-1.11c.082-.005.556,0,0,0ZM20.835,183.571a5.477,5.477,0,0,1,.325,1.073,4.116,4.116,0,0,1-1.133,3.848,3.65,3.65,0,0,1-2.76,1.2,1.861,1.861,0,0,1-1.518-2.542c.3-.812,1.389-1.377,2.546-1.976A11.575,11.575,0,0,0,20.835,183.571Zm-12.29,5.362v-.047a.708.708,0,0,0-.7-.71,3.633,3.633,0,0,1,.054-7.254,3.515,3.515,0,0,1,3.415,3.146l.07,1.477a.72.72,0,0,0,1.006.616,4.493,4.493,0,0,1,2.5-.348,3,3,0,0,0-.486.849,3.288,3.288,0,0,0,2.93,4.454,5.051,5.051,0,0,0,3.729-1.655,6.1,6.1,0,0,0,1.235-1.921.1.1,0,0,0,.015-.023,7.438,7.438,0,0,0,2.072-.807,10.009,10.009,0,0,1-.91,5.831c-3.8.322-6.5,1.66-8.065,3.986a9.537,9.537,0,0,0-5.862-3.662A8.329,8.329,0,0,1,8.545,188.933Zm28.637-3.1c1.137.587,2.2,1.147,2.492,1.944a1.857,1.857,0,0,1-1.518,2.534,3.651,3.651,0,0,1-2.761-1.2,4.1,4.1,0,0,1-1.132-3.838,5.468,5.468,0,0,1,.325-1.07,18.776,18.776,0,0,0,2.594,1.628Zm-9.831-3.526a10.787,10.787,0,0,1-5.994-5.242,5.639,5.639,0,0,1-.149-5.215A5.339,5.339,0,0,1,25.3,168.9c3-.427,6.049,2.088,8.335,3.665,2.588,1.785,5.254,3.625,8.035,4.2a13.452,13.452,0,0,1-2.831,3.585,10.955,10.955,0,0,1-3.516,2.166,2.676,2.676,0,0,1-.265-.341.717.717,0,0,0-1.2-.016,7.015,7.015,0,0,0-.464.843c-2.055.711-5.974-.683-6.035-.7h0Zm4.73,10.222a9.783,9.783,0,0,1-1.046-5.426,7.46,7.46,0,0,0,1.98.781,5.965,5.965,0,0,0,1.338,2.2,5.055,5.055,0,0,0,3.729,1.651,3.283,3.283,0,0,0,2.93-4.447,3.1,3.1,0,0,0-.664-1.055,4.488,4.488,0,0,1,2.683.32.719.719,0,0,0,1-.616l.068-1.474a3.459,3.459,0,1,1,3.473,4.1.708.708,0,0,0-.7.71v.046a8.281,8.281,0,0,1-.822,3.549,9.463,9.463,0,0,0-5.857,3.716c-1.781-2.453-4.4-3.753-8.117-4.053Zm-6.529,9.031a40.346,40.346,0,0,1,2.277-4.186,40.5,40.5,0,0,1,2.277,4.186Zm23.168,0H31.677a42.648,42.648,0,0,0-2.445-4.627,8.063,8.063,0,0,1,4.015,1.971.719.719,0,0,0,1.158-.737,32.956,32.956,0,0,0-1.524-4.12,8.355,8.355,0,0,1,6.7,4.2.721.721,0,0,0,1.233,0c1.408-2.44,3.5-3.763,6.7-4.2a32.953,32.953,0,0,0-1.524,4.122.719.719,0,0,0,1.158.737,8.061,8.061,0,0,1,4.015-1.97,42.726,42.726,0,0,0-2.445,4.627Z" transform="translate(0 -150.895)"/>
        <path id="Trazado_1036504" data-name="Trazado 1036504" d="M247.56,35.193a3.567,3.567,0,1,1,3.56-3.567A3.567,3.567,0,0,1,247.56,35.193Zm0-5.709a2.142,2.142,0,1,0,2.136,2.142A2.142,2.142,0,0,0,247.56,29.484Z" transform="translate(-215.043 -28.06)"/>
      </g>
    </g>
  </g>
</svg>
