<svg xmlns="http://www.w3.org/2000/svg" width="80" height="80" viewBox="0 0 80 80">
  <g id="Grupo_1202296" data-name="Grupo 1202296" transform="translate(-768.835 -6837)">
    <rect id="Rectángulo_409950" data-name="Rectángulo 409950" width="80" height="80" transform="translate(768.835 6837)" fill="none"/>
    <g id="Grupo_1202301" data-name="Grupo 1202301" transform="translate(772.335 6840.078)">
      <path id="Trazado_1036505" data-name="Trazado 1036505" d="M68,37.55a1.5,1.5,0,0,0,1.5-1.5V33.26a1.5,1.5,0,0,0-1.5-1.5H66.12V29.29a1.5,1.5,0,0,0-1.5-1.5H61.29a1.5,1.5,0,0,0-1.5,1.5v2.47H53.14V29.29a1.5,1.5,0,0,0-1.5-1.5H48.31a1.5,1.5,0,0,0-1.5,1.5v2.47H40.17V29.29a1.5,1.5,0,0,0-1.5-1.5H35.49c.12-.11.25-.2.36-.32a4.467,4.467,0,0,0,2.94-4.28c.07-.03.13-.06.2-.09a8.742,8.742,0,0,0,1.05-.62,1.256,1.256,0,0,0,.41-.75,1.036,1.036,0,0,0-.13-.65,2.719,2.719,0,0,0,.8-1.09.8.8,0,0,0-.02-.79.729.729,0,0,0-.51-.32,3.207,3.207,0,0,0,.19-.31,1.58,1.58,0,0,0-.24-1.87,1.517,1.517,0,0,0-1.15-.35,2.9,2.9,0,0,0-.96.28c-.58.27-1.13.59-1.67.91a9.782,9.782,0,0,1-2.63,1.23,4.56,4.56,0,0,1-2.87-.28,5.158,5.158,0,0,1-2.08-1.87,8.809,8.809,0,0,1-.91-1.76c-.19-.43-.38-.88-.61-1.29l-.06-.12c.04-.04.09-.08.13-.12a2.22,2.22,0,0,0,.62-1.53,1.6,1.6,0,0,0-1.07-1.49,1.8,1.8,0,0,0-1.05.03,1.318,1.318,0,0,0-.58-.36,1.4,1.4,0,0,0-1.18.18,1.608,1.608,0,0,0-.54.66,1.372,1.372,0,0,0-.7-.13,1.475,1.475,0,0,0-1.24.92,2.116,2.116,0,0,0-.12,1.07,1.452,1.452,0,0,0,.54,1.2.037.037,0,0,1,.03.01c-.12.25-.26.5-.41.76-.11.17-.21.35-.31.53a3.289,3.289,0,0,0-.46,2.09.514.514,0,0,0,.39.41.41.41,0,0,0,.11.01.491.491,0,0,0,.41-.22c.08-.12.17-.22.25-.33s.17-.21.25-.32a3.606,3.606,0,0,1,.78-.78c.07.05.13.11.19.16a2.067,2.067,0,0,1,.5.47,1.678,1.678,0,0,1-.13,1.52,5.974,5.974,0,0,0-.72,2.56,5.772,5.772,0,0,0,.9,2.81,7.791,7.791,0,0,0,3,3.05,4.264,4.264,0,0,0,.03.94,2.714,2.714,0,0,0,.23.73,9.6,9.6,0,0,1-.26,1.46v-.45a1.5,1.5,0,0,0-1.5-1.5H22.36a1.5,1.5,0,0,0-1.5,1.5v2.47H14.21V29.29a1.5,1.5,0,0,0-1.5-1.5H9.38a1.5,1.5,0,0,0-1.5,1.5v2.47H6a1.5,1.5,0,0,0-1.5,1.5v2.79A1.5,1.5,0,0,0,6,37.55H7.88V41.5H6A1.5,1.5,0,0,0,4.5,43v2.79A1.5,1.5,0,0,0,6,47.29H7.88v2.97H5a.5.5,0,0,0-.5.5V63.58a.5.5,0,0,0,.5.5H69a.5.5,0,0,0,.5-.5V50.76a.5.5,0,0,0-.5-.5H66.12V47.29H68a1.5,1.5,0,0,0,1.5-1.5V43A1.5,1.5,0,0,0,68,41.5H66.12V37.55Zm-1.88-4.79H68a.5.5,0,0,1,.5.5v2.79a.5.5,0,0,1-.5.5H66.12Zm-5.33-3.47a.5.5,0,0,1,.5-.5h3.33a.5.5,0,0,1,.5.5V50.26H60.79Zm-7.65,3.47h6.65v3.79H53.14Zm0,4.79h6.65V41.5H53.14Zm0,4.95h6.65v3.79H53.14Zm0,4.79h6.65v2.97H53.14Zm-5.33-18a.5.5,0,0,1,.5-.5h3.33a.5.5,0,0,1,.5.5V50.26H47.81Zm-7.64,3.47h6.64v3.79H40.17Zm0,4.79h6.64V41.5H40.17Zm0,4.95h6.64v3.79H40.17Zm0,4.79h6.64v2.97H40.17Zm-1.5-18.5a.5.5,0,0,1,.5.5V50.26H34.83V29.29a.5.5,0,0,1,.5-.5ZM22.91,12.9l-.01.01c-.01-.06-.02-.15-.03-.29a1.477,1.477,0,0,1,.04-.64.49.49,0,0,1,.39-.29.527.527,0,0,1,.45.24.5.5,0,0,0,.52.24.488.488,0,0,0,.41-.4,2.257,2.257,0,0,1,.14-.49.552.552,0,0,1,.22-.29.391.391,0,0,1,.32-.05.378.378,0,0,1,.22.21.506.506,0,0,0,.3.29.476.476,0,0,0,.42-.04.882.882,0,0,1,.68-.13.607.607,0,0,1,.37.56,1.306,1.306,0,0,1-.36.83,1.632,1.632,0,0,0-.2-.17,2.73,2.73,0,0,0-1.48-.38,2.785,2.785,0,0,0-2.4.79Zm2.15,10.17a4.882,4.882,0,0,1-.77-2.32,5,5,0,0,1,.62-2.12,2.547,2.547,0,0,0,.08-2.49,2.972,2.972,0,0,0-.73-.73,3.039,3.039,0,0,1-.33-.28,1.475,1.475,0,0,1-.45-.8.983.983,0,0,1,.2-.79,2.339,2.339,0,0,1,2.55-.22,1.806,1.806,0,0,1,.56.73c.21.38.38.79.56,1.2a9.722,9.722,0,0,0,1.03,1.97,6.267,6.267,0,0,0,2.47,2.19,5.617,5.617,0,0,0,3.5.33,10.349,10.349,0,0,0,2.92-1.34,17.553,17.553,0,0,1,1.58-.86,2.135,2.135,0,0,1,.62-.2.456.456,0,0,1,.42.77,2.584,2.584,0,0,1-.78.83.523.523,0,0,0-.17.57.487.487,0,0,0,.5.33c.21-.01.42-.01.64,0a1.5,1.5,0,0,1-.91.73.52.52,0,0,0-.31.62.567.567,0,0,0,.6.42.5.5,0,0,1-.09.13c-.09.08-1.17.62-1.34.72a.5.5,0,0,0-.25.48,3.524,3.524,0,0,1-.56,2.23,3.389,3.389,0,0,1-1.81,1.39.565.565,0,0,0-.24.16,3.168,3.168,0,0,1-2.52,1.15.989.989,0,0,1-.71-.25.5.5,0,0,0-.7-.08,5.464,5.464,0,0,1-1.35.83,1.141,1.141,0,0,1-1.68-.98,4.619,4.619,0,0,1,.01-1.05.5.5,0,0,0-.33-.52,6.32,6.32,0,0,1-2.83-2.75Zm8.93,5.57a1.452,1.452,0,0,0-.16.65v2.47h-.3a16.968,16.968,0,0,0-.23-2.95,5.784,5.784,0,0,0,.69-.17Zm-1.46,3.12H27.6a16.655,16.655,0,0,0,.73-2.55,2.125,2.125,0,0,0,1,.26,2.818,2.818,0,0,0,.89-.15,4.966,4.966,0,0,0,1.31-.75,2.139,2.139,0,0,0,.75.27,15.165,15.165,0,0,1,.25,2.92Zm-5.34,1h6.64v3.79H27.19Zm0,4.79h6.64V41.5H27.19Zm0,4.95h6.64v3.79H27.19Zm0,4.79h6.64v2.97H27.19Zm-5.33-.52V29.29a.5.5,0,0,1,.5-.5h3.33a.5.5,0,0,1,.5.5V50.26H21.86V46.77ZM14.21,32.76h6.65v3.79H14.21Zm0,4.79h6.65V41.5H14.21Zm0,4.95h6.65v3.79H14.21Zm0,4.79h6.65v2.97H14.21Zm-5.33-18a.5.5,0,0,1,.5-.5h3.33a.5.5,0,0,1,.5.5V50.26H8.88ZM6,36.55a.5.5,0,0,1-.5-.5V33.26a.5.5,0,0,1,.5-.5H7.88v3.79Zm0,9.74a.5.5,0,0,1-.5-.5V43a.5.5,0,0,1,.5-.5H7.88v3.79Zm62.5,4.97V63.08H5.5V51.26ZM68,42.5a.5.5,0,0,1,.5.5v2.79a.5.5,0,0,1-.5.5H66.12V42.5Z"/>
      <path id="Trazado_1036505_-_Contorno" data-name="Trazado 1036505 - Contorno" d="M69,64.48H5a.89.89,0,0,1-.9-.9V50.76a.9.9,0,0,1,.9-.9H7.48V47.69H6a1.9,1.9,0,0,1-1.9-1.9V43A1.9,1.9,0,0,1,6,41.1H7.48V37.95H6a1.9,1.9,0,0,1-1.9-1.9V33.26A1.9,1.9,0,0,1,6,31.36H7.48V29.29a1.9,1.9,0,0,1,1.9-1.9h3.33a1.9,1.9,0,0,1,1.9,1.9v2.07h5.85V29.29a1.9,1.9,0,0,1,1.9-1.9h3.33a1.891,1.891,0,0,1,1.169.4c-.013-.06-.025-.121-.035-.184a4.285,4.285,0,0,1-.045-.759,8.4,8.4,0,0,1-2.937-3.093,6.19,6.19,0,0,1-.952-3.006,6.354,6.354,0,0,1,.759-2.731l0-.007a1.336,1.336,0,0,0,.15-1.126,1.63,1.63,0,0,0-.354-.328,2.86,2.86,0,0,0-.452.495c-.085.116-.165.218-.26.333-.035.048-.071.093-.105.136s-.09.113-.127.169a.894.894,0,0,1-.744.4.8.8,0,0,1-.207-.022.907.907,0,0,1-.689-.739,3.678,3.678,0,0,1,.5-2.339l0,0c.1-.18.2-.365.318-.544.082-.142.165-.289.245-.438a2.032,2.032,0,0,1-.462-1.292,2.5,2.5,0,0,1,.147-1.251,1.87,1.87,0,0,1,1.575-1.169c.051,0,.1-.006.145-.006a1.769,1.769,0,0,1,.408.048,1.933,1.933,0,0,1,.495-.5,1.786,1.786,0,0,1,1.014-.309,1.74,1.74,0,0,1,.508.074,1.68,1.68,0,0,1,.576.3,2.1,2.1,0,0,1,1.06.03,2.006,2.006,0,0,1,1.35,1.857,2.569,2.569,0,0,1-.659,1.739c.174.328.324.67.47,1l.091.208a8.368,8.368,0,0,0,.85,1.646,4.767,4.767,0,0,0,1.92,1.742,4.163,4.163,0,0,0,2.619.256A9.5,9.5,0,0,0,36.556,17.2a19.366,19.366,0,0,1,1.7-.928l.005,0a3.274,3.274,0,0,1,1.09-.314c.061-.006.126-.009.19-.009a1.877,1.877,0,0,1,1.261.459,1.977,1.977,0,0,1,.358,2.292,1.058,1.058,0,0,1,.27.288,1.191,1.191,0,0,1,.054,1.164,3.215,3.215,0,0,1-.69,1.043,1.438,1.438,0,0,1,.048.59,1.643,1.643,0,0,1-.531.991l-.012.011a8.74,8.74,0,0,1-1.117.668,4.912,4.912,0,0,1-.793,2.491,5.066,5.066,0,0,1-1.477,1.451H38.67a1.9,1.9,0,0,1,1.9,1.9v2.07h5.84V29.29a1.9,1.9,0,0,1,1.9-1.9h3.33a1.9,1.9,0,0,1,1.9,1.9v2.07h5.85V29.29a1.9,1.9,0,0,1,1.9-1.9h3.33a1.9,1.9,0,0,1,1.9,1.9v2.07H68a1.9,1.9,0,0,1,1.9,1.9v2.79a1.9,1.9,0,0,1-1.9,1.9H66.52V41.1H68A1.9,1.9,0,0,1,69.9,43v2.79a1.9,1.9,0,0,1-1.9,1.9H66.52v2.17H69a.9.9,0,0,1,.9.9V63.58A.89.89,0,0,1,69,64.48ZM5,50.66a.1.1,0,0,0-.1.1V63.58a.1.1,0,0,0,.1.1H69a.1.1,0,0,0,.1-.1V50.76a.1.1,0,0,0-.1-.1H65.72V46.89H68a1.1,1.1,0,0,0,1.1-1.1V43A1.1,1.1,0,0,0,68,41.9H65.72V37.15H68a1.1,1.1,0,0,0,1.1-1.1V33.26a1.1,1.1,0,0,0-1.1-1.1H65.72V29.29a1.1,1.1,0,0,0-1.1-1.1H61.29a1.1,1.1,0,0,0-1.1,1.1v2.87H52.74V29.29a1.1,1.1,0,0,0-1.1-1.1H48.31a1.1,1.1,0,0,0-1.1,1.1v2.87H39.77V29.29a1.1,1.1,0,0,0-1.1-1.1H34.662l-.314.629a1.05,1.05,0,0,0-.118.471v2.87h-1.1l0-.4a16.533,16.533,0,0,0-.223-2.88l-.075-.4.4-.069a5.39,5.39,0,0,0,.642-.159l.771-.235.576-.528c.053-.048.1-.091.154-.132a1.853,1.853,0,0,0,.181-.163l.068-.074.094-.033A4.067,4.067,0,0,0,38.39,23.2l-.006-.27.248-.106.09-.041.1-.044a9.236,9.236,0,0,0,.949-.553.867.867,0,0,0,.282-.5v-.008a.635.635,0,0,0-.032-.3l-.2.407a.893.893,0,0,1-.165.234l-.017.016a6.629,6.629,0,0,1-.949.527c-.2.1-.4.207-.454.239a.107.107,0,0,0-.055.093V22.9a3.939,3.939,0,0,1-.625,2.487,3.769,3.769,0,0,1-2.02,1.55.173.173,0,0,0-.059.038,3.555,3.555,0,0,1-2.71,1.294l-.124,0a1.37,1.37,0,0,1-1.013-.4.1.1,0,0,0-.144-.014l-.082.061a5.4,5.4,0,0,1-1.379.83l-.007,0a2.274,2.274,0,0,1-.705.118,1.459,1.459,0,0,1-.88-.267l-.008-.006a1.769,1.769,0,0,1-.609-1.144,5,5,0,0,1,.007-1.145.1.1,0,0,0-.068-.11,6.889,6.889,0,0,1-3.039-2.925v0a5.242,5.242,0,0,1-.823-2.518,5.336,5.336,0,0,1,.66-2.295,2.177,2.177,0,0,0,.1-2.1,2.472,2.472,0,0,0-.6-.6l-.034-.027a3.414,3.414,0,0,1-.366-.311,1.859,1.859,0,0,1-.565-1.018l0-.01a1.365,1.365,0,0,1,.329-1.146,2.388,2.388,0,0,1,1.624-.605,3.073,3.073,0,0,1,1.393.337,1.9,1.9,0,0,1,.67.809c.014.028.027.051.037.069l0,0c.186.336.341.693.492,1.039l.085.194a9.456,9.456,0,0,0,.986,1.894,5.922,5.922,0,0,0,2.31,2.061,5.29,5.29,0,0,0,2.1.437,5.082,5.082,0,0,0,1.15-.131,10.041,10.041,0,0,0,2.807-1.294,18.03,18.03,0,0,1,1.616-.879,2.478,2.478,0,0,1,.748-.235h.015a.972.972,0,0,1,.688.2l.009.008a.964.964,0,0,1,.1,1.148,2.966,2.966,0,0,1-.886.959.127.127,0,0,0-.043.12.1.1,0,0,0,.089.068h.016c.221-.011.446-.011.677,0l.652.03-.322.567a1.906,1.906,0,0,1-1.137.914.143.143,0,0,0-.042.145.168.168,0,0,0,.167.116l.487-.054-.1-.177.27-.215a2.317,2.317,0,0,0,.68-.932.458.458,0,0,0,.016-.413l0-.007a.33.33,0,0,0-.246-.142l-.61-.114.356-.508a2.771,2.771,0,0,0,.164-.268A1.194,1.194,0,0,0,40.271,17a1.132,1.132,0,0,0-.845-.248,2.491,2.491,0,0,0-.83.245c-.561.261-1.092.57-1.632.89a10.071,10.071,0,0,1-2.741,1.275,4.962,4.962,0,0,1-3.127-.3,5.513,5.513,0,0,1-2.237-2,8.927,8.927,0,0,1-.942-1.807l-.089-.2c-.161-.366-.327-.745-.517-1.083l-.009-.017-.189-.378.2-.2c.025-.025.054-.051.082-.076l.04-.036a1.826,1.826,0,0,0,.511-1.236v-.007a1.2,1.2,0,0,0-.789-1.12,1.41,1.41,0,0,0-.814.031l-.238.073-.17-.181a.926.926,0,0,0-.4-.25l-.008,0a.941.941,0,0,0-.277-.04.994.994,0,0,0-.557.166,1.205,1.205,0,0,0-.406.5l-.17.366-.365-.174a.968.968,0,0,0-.5-.092,1.068,1.068,0,0,0-.9.657l-.011.027a1.745,1.745,0,0,0-.087.871v.009a1.177,1.177,0,0,0,.312.86l.015.006-.091-.543c-.013-.079-.024-.181-.034-.324a1.8,1.8,0,0,1,.069-.824.892.892,0,0,1,.735-.537h.046a.92.92,0,0,1,.774.436.1.1,0,0,0,.1.05l.018,0a.092.092,0,0,0,.073-.078,2.657,2.657,0,0,1,.162-.565.948.948,0,0,1,.37-.475.765.765,0,0,1,.436-.131.8.8,0,0,1,.211.028l.021.006a.781.781,0,0,1,.465.441l0,0a.106.106,0,0,0,.061.057.125.125,0,0,0,.064,0l.013-.009a1.41,1.41,0,0,1,.719-.213.938.938,0,0,1,.29.044,1.007,1.007,0,0,1,.649.926,1.686,1.686,0,0,1-.46,1.11l-.282.319-.3-.3a1.238,1.238,0,0,0-.143-.123,2.4,2.4,0,0,0-1.262-.31H25.3a4.653,4.653,0,0,0-.93.05l-.027,0a1.784,1.784,0,0,0-1.121.591l-.035.038-.437.437.178.178-.123.256c-.13.27-.28.538-.424.787l-.011.017c-.1.159-.2.328-.3.507a2.913,2.913,0,0,0-.415,1.835.116.116,0,0,0,.085.081h.02a.092.092,0,0,0,.074-.036l0-.006c.056-.085.116-.159.168-.225.033-.041.064-.08.092-.119l.014-.018c.089-.109.163-.2.236-.3a4,4,0,0,1,.862-.863l.235-.178.24.171a1.874,1.874,0,0,1,.161.132l.046.04a2.344,2.344,0,0,1,.587.566l0,.005a2.027,2.027,0,0,1-.11,1.907,5.656,5.656,0,0,0-.68,2.385,5.451,5.451,0,0,0,.847,2.611,7.49,7.49,0,0,0,2.824,2.888l.247.116-.018.272a3.85,3.85,0,0,0,.026.852,2.3,2.3,0,0,0,.2.626l.043.1-.009.1a9.855,9.855,0,0,1-.27,1.521l-.788-.1v-.45a1.1,1.1,0,0,0-1.1-1.1H22.36a1.1,1.1,0,0,0-1.1,1.1v2.87H13.81V29.29a1.1,1.1,0,0,0-1.1-1.1H9.38a1.1,1.1,0,0,0-1.1,1.1v2.87H6a1.1,1.1,0,0,0-1.1,1.1v2.79A1.1,1.1,0,0,0,6,37.15H8.28V41.9H6A1.1,1.1,0,0,0,4.9,43v2.79A1.1,1.1,0,0,0,6,46.89H8.28v3.77Zm23.913-22.7a.7.7,0,0,0,.4.106,1.473,1.473,0,0,0,.449-.076,4.847,4.847,0,0,0,1.165-.716L31,27.221a.9.9,0,0,1,1.252.146.747.747,0,0,0,.4.1h.017l.1,0a2.785,2.785,0,0,0,2.095-1.006l.005-.006a.967.967,0,0,1,.417-.279l.01,0a3.009,3.009,0,0,0,1.593-1.227,3.126,3.126,0,0,0,.5-1.972.9.9,0,0,1,.445-.863c.069-.041.232-.125.491-.26l.353-.184a.932.932,0,0,1,.376-1.483l.007,0,.021-.006a.911.911,0,0,1-.51-.528l0-.01a.923.923,0,0,1,.293-1.011l.017-.013a2.218,2.218,0,0,0,.665-.7.374.374,0,0,0,.044-.177.39.39,0,0,0-.08,0,1.889,1.889,0,0,0-.488.166,17.114,17.114,0,0,0-1.54.839A10.652,10.652,0,0,1,34.44,20.13a5.882,5.882,0,0,1-1.331.152,6.1,6.1,0,0,1-2.419-.5l-.005,0a6.622,6.622,0,0,1-2.626-2.316,10.057,10.057,0,0,1-1.077-2.052l-.084-.192c-.149-.343-.29-.666-.457-.969-.014-.025-.031-.057-.05-.094a1.313,1.313,0,0,0-.358-.484,2.306,2.306,0,0,0-1-.231,1.58,1.58,0,0,0-1.08.392.661.661,0,0,0-.082.438,1.087,1.087,0,0,0,.332.574l.006.006a2.614,2.614,0,0,0,.287.243l.046.036a3.189,3.189,0,0,1,.783.8A2.933,2.933,0,0,1,25.27,18.8a4.644,4.644,0,0,0-.58,1.946,4.523,4.523,0,0,0,.717,2.12,5.942,5.942,0,0,0,2.617,2.572.9.9,0,0,1,.6.932,4.334,4.334,0,0,0-.013.955A1.019,1.019,0,0,0,28.913,27.962ZM26.3,11.837a2.58,2.58,0,0,1,.6.248.574.574,0,0,0,.056-.243.251.251,0,0,0-.089-.19l-.008,0a.15.15,0,0,0-.043,0,.622.622,0,0,0-.3.094A.811.811,0,0,1,26.3,11.837Zm-.976-.127c.074,0,.151,0,.23.009a.912.912,0,0,1-.321-.369.338.338,0,0,0-.037.074l0,.009a1.786,1.786,0,0,0-.089.274C25.173,11.706,25.246,11.708,25.321,11.71ZM68.9,63.48H5.1V50.86H68.9Zm-63-.8H68.1V51.66H5.9ZM60.19,50.66H52.74V46.89h7.45Zm-6.65-.8h5.85V47.69H53.54Zm-1,.8H47.41V29.29a.9.9,0,0,1,.9-.9h3.33a.89.89,0,0,1,.9.9Zm-4.33-.8h3.53V29.29a.1.1,0,0,0-.1-.1H48.31a.1.1,0,0,0-.1.1Zm-1,.8H39.77V46.89h7.44Zm-6.64-.8h5.84V47.69H40.57Zm-1,.8H34.43V29.29a.9.9,0,0,1,.9-.9h3.34a.9.9,0,0,1,.9.9Zm-4.34-.8h3.54V29.29a.1.1,0,0,0-.1-.1H35.33a.1.1,0,0,0-.1.1Zm-1,.8H26.79V46.89h7.44Zm-6.64-.8h5.84V47.69H27.59Zm-1,.8H21.46V29.29a.89.89,0,0,1,.9-.9h3.33a.9.9,0,0,1,.9.9Zm-4.33-.8h3.53V29.29a.1.1,0,0,0-.1-.1H22.36a.1.1,0,0,0-.1.1Zm-1,.8H13.81V46.89h7.45Zm-6.65-.8h5.85V47.69H14.61Zm-1,.8H8.48V29.29a.89.89,0,0,1,.9-.9h3.33a.89.89,0,0,1,.9.9Zm-4.33-.8h3.53V29.29a.1.1,0,0,0-.1-.1H9.38a.1.1,0,0,0-.1.1Zm56.24.8H60.39V29.29a.89.89,0,0,1,.9-.9h3.33a.89.89,0,0,1,.9.9Zm-4.33-.8h3.53V29.29a.1.1,0,0,0-.1-.1H61.29a.1.1,0,0,0-.1.1ZM47.21,46.69H39.77V42.1h7.44Zm-6.64-.8h5.84V42.9H40.57Zm-6.34.8H26.79V42.1h7.44Zm-6.64-.8h5.84V42.9H27.59Zm-6.33.8H13.81V42.1h7.45Zm-6.65-.8h5.85V42.9H14.61Zm53.39.8H65.72V42.1H68a.89.89,0,0,1,.9.9v2.79A.89.89,0,0,1,68,46.69Zm-1.48-.8H68a.1.1,0,0,0,.1-.1V43a.1.1,0,0,0-.1-.1H66.52Zm-6.33.8H52.74V42.1h7.45Zm-6.65-.8h5.85V42.9H53.54Zm-45.26.8H6a.89.89,0,0,1-.9-.9V43a.89.89,0,0,1,.9-.9H8.28ZM6,42.9a.1.1,0,0,0-.1.1v2.79a.1.1,0,0,0,.1.1H7.48V42.9Zm41.21-1H39.77V37.15h7.44Zm-6.64-.8h5.84V37.95H40.57Zm-6.34.8H26.79V37.15h7.44Zm-6.64-.8h5.84V37.95H27.59Zm-6.33.8H13.81V37.15h7.45Zm-6.65-.8h5.85V37.95H14.61Zm45.58.8H52.74V37.15h7.45Zm-6.65-.8h5.85V37.95H53.54Zm-6.33-4.15H39.77V32.36h7.44Zm-6.64-.8h5.84V33.16H40.57Zm-6.34.8H26.79V32.36h7.44Zm-6.64-.8h5.84V33.16H27.59Zm-6.33.8H13.81V32.36h7.45Zm-6.65-.8h5.85V33.16H14.61Zm-6.33.8H6a.89.89,0,0,1-.9-.9V33.26a.89.89,0,0,1,.9-.9H8.28ZM6,33.16a.1.1,0,0,0-.1.1v2.79a.1.1,0,0,0,.1.1H7.48V33.16Zm62,3.79H65.72V32.36H68a.89.89,0,0,1,.9.9v2.79A.89.89,0,0,1,68,36.95Zm-1.48-.8H68a.1.1,0,0,0,.1-.1V33.26a.1.1,0,0,0-.1-.1H66.52Zm-6.33.8H52.74V32.36h7.45Zm-6.65-.8h5.85V33.16H53.54ZM32.933,32.16h-5.9l.189-.533a16.047,16.047,0,0,0,.713-2.487l.1-.542.486.259a1.715,1.715,0,0,0,.812.213,2.416,2.416,0,0,0,.764-.129,4.583,4.583,0,0,0,1.2-.692l.217-.162.231.142a1.763,1.763,0,0,0,.612.217l.265.048.055.264a15.45,15.45,0,0,1,.258,3Zm-4.772-.8h3.963a14.566,14.566,0,0,0-.187-2.187,2.471,2.471,0,0,1-.373-.133,4.906,4.906,0,0,1-1.213.658,3.222,3.222,0,0,1-1.021.172,2.415,2.415,0,0,1-.705-.106C28.518,30.225,28.368,30.742,28.161,31.36Z"/>
      <path id="Trazado_1036506" data-name="Trazado 1036506" d="M62.96,36.33a1.67,1.67,0,1,0-1.69-1.67A1.69,1.69,0,0,0,62.96,36.33Zm0-2.35a.67.67,0,0,1,0,1.34.67.67,0,1,1,0-1.34Z"/>
      <path id="Trazado_1036506_-_Contorno" data-name="Trazado 1036506 - Contorno" d="M62.96,36.73a2.07,2.07,0,1,1,0-4.14,2.07,2.07,0,1,1,0,4.14Zm0-3.34a1.27,1.27,0,1,0,1.27,1.27A1.282,1.282,0,0,0,62.96,33.39Zm0,2.33a1.1,1.1,0,0,1-1.09-1.07v-.011a1.1,1.1,0,0,1,1.09-1.059,1.07,1.07,0,1,1,0,2.14Zm-.29-1.065a.3.3,0,0,0,.29.265.27.27,0,1,0,0-.54A.3.3,0,0,0,62.67,34.655Z"/>
      <path id="Trazado_1036507" data-name="Trazado 1036507" d="M62.96,46.06a1.67,1.67,0,1,0-1.69-1.67A1.69,1.69,0,0,0,62.96,46.06Zm0-2.34a.67.67,0,0,1,0,1.34.681.681,0,0,1-.69-.67A.7.7,0,0,1,62.96,43.72Z"/>
      <path id="Trazado_1036507_-_Contorno" data-name="Trazado 1036507 - Contorno" d="M62.96,46.46a2.07,2.07,0,1,1,0-4.14,2.07,2.07,0,1,1,0,4.14Zm0-3.34a1.27,1.27,0,1,0,1.27,1.27A1.282,1.282,0,0,0,62.96,43.12Zm0,2.34a1.081,1.081,0,0,1-1.09-1.07v-.011a1.1,1.1,0,0,1,1.09-1.059,1.07,1.07,0,1,1,0,2.14ZM62.67,44.4a.281.281,0,0,0,.29.264.27.27,0,1,0,0-.54A.3.3,0,0,0,62.67,44.4Z"/>
      <path id="Trazado_1036508" data-name="Trazado 1036508" d="M49.99,32.98a1.67,1.67,0,1,0,1.67,1.67A1.684,1.684,0,0,0,49.99,32.98Zm0,2.35a.694.694,0,0,1-.69-.67.681.681,0,0,1,.69-.67.67.67,0,0,1,0,1.34Z"/>
      <path id="Trazado_1036508_-_Contorno" data-name="Trazado 1036508 - Contorno" d="M49.99,32.58a2.07,2.07,0,1,1-2.09,2.07A2.072,2.072,0,0,1,49.99,32.58Zm0,3.34a1.27,1.27,0,1,0-1.29-1.27A1.271,1.271,0,0,0,49.99,35.92Zm0-2.33a1.07,1.07,0,1,1,0,2.14,1.1,1.1,0,0,1-1.09-1.07A1.081,1.081,0,0,1,49.99,33.59Zm0,1.34a.27.27,0,1,0,0-.54.281.281,0,0,0-.29.27A.3.3,0,0,0,49.99,34.93Z"/>
      <path id="Trazado_1036509" data-name="Trazado 1036509" d="M49.99,42.72a1.67,1.67,0,1,0,1.67,1.67A1.684,1.684,0,0,0,49.99,42.72Zm0,2.34a.67.67,0,1,1,0-1.34.67.67,0,0,1,0,1.34Z"/>
      <path id="Trazado_1036509_-_Contorno" data-name="Trazado 1036509 - Contorno" d="M49.99,42.32a2.07,2.07,0,1,1-2.09,2.07A2.072,2.072,0,0,1,49.99,42.32Zm0,3.34a1.27,1.27,0,1,0-1.29-1.27A1.271,1.271,0,0,0,49.99,45.66Zm0-2.34a1.07,1.07,0,1,1-1.09,1.07A1.071,1.071,0,0,1,49.99,43.32Zm0,1.34a.27.27,0,1,0,0-.54.288.288,0,0,0-.29.27A.281.281,0,0,0,49.99,44.66Z"/>
      <path id="Trazado_1036510" data-name="Trazado 1036510" d="M37.01,36.33a1.67,1.67,0,1,0-1.69-1.67A1.673,1.673,0,0,0,37.01,36.33Zm0-2.35a.67.67,0,1,1,0,1.34.67.67,0,1,1,0-1.34Z"/>
      <path id="Trazado_1036510_-_Contorno" data-name="Trazado 1036510 - Contorno" d="M37.01,36.73a2.07,2.07,0,1,1,2.07-2.07A2.082,2.082,0,0,1,37.01,36.73Zm0-3.34a1.27,1.27,0,1,0,1.27,1.27A1.282,1.282,0,0,0,37.01,33.39Zm0,2.33a1.1,1.1,0,0,1-1.09-1.07,1.08,1.08,0,1,1,1.09,1.07Zm0-1.34a.288.288,0,0,0-.29.27.3.3,0,0,0,.29.27.27.27,0,1,0,0-.54Z"/>
      <path id="Trazado_1036511" data-name="Trazado 1036511" d="M37.01,42.72a1.67,1.67,0,1,0,1.67,1.67A1.684,1.684,0,0,0,37.01,42.72Zm0,2.34a.67.67,0,1,1,0-1.34.67.67,0,0,1,0,1.34Z"/>
      <path id="Trazado_1036511_-_Contorno" data-name="Trazado 1036511 - Contorno" d="M37.01,42.32a2.07,2.07,0,1,1-2.09,2.07A2.072,2.072,0,0,1,37.01,42.32Zm0,3.34a1.27,1.27,0,1,0-1.29-1.27A1.271,1.271,0,0,0,37.01,45.66Zm0-2.34a1.07,1.07,0,1,1-1.09,1.07A1.071,1.071,0,0,1,37.01,43.32Zm0,1.34a.27.27,0,1,0,0-.54.288.288,0,0,0-.29.27A.281.281,0,0,0,37.01,44.66Z"/>
      <path id="Trazado_1036512" data-name="Trazado 1036512" d="M24.03,36.33a1.67,1.67,0,1,0-1.69-1.67A1.673,1.673,0,0,0,24.03,36.33Zm0-2.35a.67.67,0,1,1,0,1.34.67.67,0,1,1,0-1.34Z"/>
      <path id="Trazado_1036512_-_Contorno" data-name="Trazado 1036512 - Contorno" d="M24.03,36.73a2.07,2.07,0,1,1,2.07-2.07A2.082,2.082,0,0,1,24.03,36.73Zm0-3.34a1.27,1.27,0,1,0,1.27,1.27A1.282,1.282,0,0,0,24.03,33.39Zm0,2.33a1.1,1.1,0,0,1-1.09-1.07,1.08,1.08,0,1,1,1.09,1.07Zm0-1.34a.288.288,0,0,0-.29.27.3.3,0,0,0,.29.27.27.27,0,1,0,0-.54Z"/>
      <path id="Trazado_1036513" data-name="Trazado 1036513" d="M24.03,46.06a1.67,1.67,0,1,0-1.69-1.67A1.673,1.673,0,0,0,24.03,46.06Zm0-2.34a.67.67,0,1,1,0,1.34.681.681,0,0,1-.69-.67A.694.694,0,0,1,24.03,43.72Z"/>
      <path id="Trazado_1036513_-_Contorno" data-name="Trazado 1036513 - Contorno" d="M24.03,46.46a2.07,2.07,0,1,1,2.07-2.07A2.082,2.082,0,0,1,24.03,46.46Zm0-3.34a1.27,1.27,0,1,0,1.27,1.27A1.282,1.282,0,0,0,24.03,43.12Zm0,2.34a1.081,1.081,0,0,1-1.09-1.07,1.1,1.1,0,0,1,1.09-1.07,1.07,1.07,0,1,1,0,2.14Zm0-1.34a.3.3,0,0,0-.29.27.281.281,0,0,0,.29.27.27.27,0,1,0,0-.54Z"/>
      <path id="Trazado_1036514" data-name="Trazado 1036514" d="M11.05,36.33a1.67,1.67,0,1,0-1.69-1.67,1.673,1.673,0,0,0,1.69,1.67Zm0-2.35a.67.67,0,1,1,0,1.34.67.67,0,1,1,0-1.34Z"/>
      <path id="Trazado_1036514_-_Contorno" data-name="Trazado 1036514 - Contorno" d="M11.05,36.73a2.07,2.07,0,1,1,2.07-2.07A2.082,2.082,0,0,1,11.05,36.73Zm0-3.34a1.27,1.27,0,1,0,1.27,1.27A1.282,1.282,0,0,0,11.05,33.39Zm0,2.33a1.1,1.1,0,0,1-1.09-1.07,1.08,1.08,0,1,1,1.09,1.07Zm0-1.34a.288.288,0,0,0-.29.27.3.3,0,0,0,.29.27.27.27,0,1,0,0-.54Z"/>
      <path id="Trazado_1036515" data-name="Trazado 1036515" d="M11.05,46.06a1.67,1.67,0,1,0-1.69-1.67,1.673,1.673,0,0,0,1.69,1.67Zm0-2.34a.67.67,0,1,1,0,1.34.681.681,0,0,1-.69-.67A.694.694,0,0,1,11.05,43.72Z"/>
      <path id="Trazado_1036515_-_Contorno" data-name="Trazado 1036515 - Contorno" d="M11.05,46.46a2.07,2.07,0,1,1,2.07-2.07A2.082,2.082,0,0,1,11.05,46.46Zm0-3.34a1.27,1.27,0,1,0,1.27,1.27A1.282,1.282,0,0,0,11.05,43.12Zm0,2.34a1.081,1.081,0,0,1-1.09-1.07,1.1,1.1,0,0,1,1.09-1.07,1.07,1.07,0,1,1,0,2.14Zm0-1.34a.3.3,0,0,0-.29.27.281.281,0,0,0,.29.27.27.27,0,1,0,0-.54Z"/>
      <path id="Trazado_1036516" data-name="Trazado 1036516" d="M24.24,13.72a.41.41,0,1,0,.42.41A.421.421,0,0,0,24.24,13.72Z"/>
      <path id="Trazado_1036516_-_Contorno" data-name="Trazado 1036516 - Contorno" d="M24.24,13.32a.81.81,0,1,1-.82.81A.816.816,0,0,1,24.24,13.32Z"/>
      <path id="Trazado_1036517" data-name="Trazado 1036517" d="M31.1,25.29a2.793,2.793,0,0,0,1.71-.59,1.889,1.889,0,0,0,1.4.2,1.041,1.041,0,0,0,.54-.44c.92.08,1.53-.1,1.83-.53a1.385,1.385,0,0,0-.13-1.53.5.5,0,1,0-.87.49c.2.35.17.47.17.47-.04.05-.35.19-1.22.06a.623.623,0,0,0-.44.11.532.532,0,0,0-.17.31c-.01.07-.03.11-.04.11-.11.08-.6-.08-.77-.25a.5.5,0,0,0-.68.01,1.806,1.806,0,0,1-1.43.57c-1.48-.08-2.91-1.78-2.92-1.79a.5.5,0,0,0-.76.64c.07.08,1.72,2.04,3.63,2.15a.708.708,0,0,0,.15.01Z"/>
      <path id="Trazado_1036517_-_Contorno" data-name="Trazado 1036517 - Contorno" d="M31.1,25.69a1.174,1.174,0,0,1-.2-.012c-1.926-.128-3.564-1.919-3.874-2.278l-.005-.006a.9.9,0,0,1,.1-1.267.889.889,0,0,1,.578-.214.9.9,0,0,1,.685.317l0,0a4.8,4.8,0,0,0,2.635,1.647h.008a1.408,1.408,0,0,0,1.124-.461.907.907,0,0,1,.626-.251.875.875,0,0,1,.6.24l.008.008a.747.747,0,0,0,.211.108.927.927,0,0,1,.22-.294l.012-.011a1,1,0,0,1,.619-.205.931.931,0,0,1,.131.009,4.033,4.033,0,0,0,.585.05h.053a.9.9,0,0,1,.344-1.209l.011-.006a.906.906,0,0,1,1.216.34,1.739,1.739,0,0,1,.116,1.955l0,.005a2,2,0,0,1-1.754.72c-.069,0-.141,0-.214-.005a1.428,1.428,0,0,1-.6.4,1.647,1.647,0,0,1-.54.087,2.535,2.535,0,0,1-.948-.206A3.154,3.154,0,0,1,31.1,25.69Zm-.065-.8H31.1a2.38,2.38,0,0,0,1.47-.51l.2-.15.222.114a1.865,1.865,0,0,0,.807.221.85.85,0,0,0,.279-.043l0,0a.644.644,0,0,0,.326-.27l.129-.21.246.021c.13.011.254.017.369.017a1.284,1.284,0,0,0,1.1-.375c.068-.1.262-.4-.146-1.1a.1.1,0,0,0-.091-.053.108.108,0,0,0-.047.011.105.105,0,0,0-.036.138,1.124,1.124,0,0,1,.208.76l-.021.085-.055.068a1.129,1.129,0,0,1-.891.264,4.811,4.811,0,0,1-.7-.058h-.016a.275.275,0,0,0-.109.023.133.133,0,0,0-.031.065.518.518,0,0,1-.206.374.55.55,0,0,1-.323.094,1.615,1.615,0,0,1-.953-.382.1.1,0,0,0-.128.011,2.191,2.191,0,0,1-1.731.679,5.46,5.46,0,0,1-3.187-1.916l-.011-.013a.1.1,0,0,0-.079-.039.086.086,0,0,0-.057.022.1.1,0,0,0-.017.136l.006.007a5.528,5.528,0,0,0,3.343,2l.038,0Z"/>
      <path id="Trazado_1036518" data-name="Trazado 1036518" d="M7.65,60.86a48.519,48.519,0,0,1,7.15-.33,50.02,50.02,0,0,1,7.15.33.479.479,0,0,0,.33.12.5.5,0,0,0,.5-.5c0-.47,0-.96-7.98-.96s-7.98.49-7.98.96a.529.529,0,0,0,.83.38Z"/>
      <path id="Trazado_1036518_-_Contorno" data-name="Trazado 1036518 - Contorno" d="M22.28,61.38a.891.891,0,0,1-.5-.149,54.9,54.9,0,0,0-6.977-.3,53.475,53.475,0,0,0-6.98.3.834.834,0,0,1-.457.129.917.917,0,0,1-.943-.88c0-.59.359-.874,1.326-1.05a48.346,48.346,0,0,1,7.054-.31,48.346,48.346,0,0,1,7.054.31c.967.176,1.326.46,1.326,1.05A.89.89,0,0,1,22.28,61.38ZM14.8,60.13a50.3,50.3,0,0,1,7.252.343l.092.024.071.063a.081.081,0,0,0,.064.019.1.1,0,0,0,.1-.1c0-.019,0-.042,0-.059a3.469,3.469,0,0,0-1.483-.313c-1.257-.127-3.251-.188-6.1-.188s-4.839.062-6.1.188a3.469,3.469,0,0,0-1.483.313c0,.016,0,.04,0,.059s.072.08.143.08a.066.066,0,0,0,.028,0l.068-.058.084-.023A48.145,48.145,0,0,1,14.8,60.13Z"/>
      <path id="Trazado_1036519" data-name="Trazado 1036519" d="M13.76,56.4a48.519,48.519,0,0,1,7.15-.33,50.02,50.02,0,0,1,7.15.33.479.479,0,0,0,.33.12.5.5,0,0,0,.5-.5c0-.47,0-.96-7.98-.96s-7.98.49-7.98.96A.527.527,0,0,0,13.76,56.4Z"/>
      <path id="Trazado_1036519_-_Contorno" data-name="Trazado 1036519 - Contorno" d="M28.39,56.92a.891.891,0,0,1-.5-.149,54.9,54.9,0,0,0-6.977-.3,53.487,53.487,0,0,0-6.979.3.857.857,0,0,1-.461.131.924.924,0,0,1-.94-.872v-.01c0-.59.359-.874,1.326-1.05a48.346,48.346,0,0,1,7.054-.31,48.346,48.346,0,0,1,7.054.31c.967.176,1.326.46,1.326,1.05A.89.89,0,0,1,28.39,56.92Zm-7.48-1.25a50.3,50.3,0,0,1,7.252.343l.092.024.071.063a.081.081,0,0,0,.064.019.1.1,0,0,0,.1-.1c0-.019,0-.042,0-.059a3.469,3.469,0,0,0-1.483-.313c-1.257-.127-3.251-.188-6.1-.188s-4.839.062-6.1.188a3.469,3.469,0,0,0-1.483.313c0,.014,0,.034,0,.051,0,.047.08.089.14.089a.064.064,0,0,0,.03-.005l.068-.058.086-.024A48.145,48.145,0,0,1,20.91,55.67Z"/>
      <path id="Trazado_1036520" data-name="Trazado 1036520" d="M35.01,57.82c-7.98,0-7.98.49-7.98.96a.529.529,0,0,0,.83.38,48.519,48.519,0,0,1,7.15-.33,50.02,50.02,0,0,1,7.15.33.479.479,0,0,0,.33.12.5.5,0,0,0,.5-.5c0-.47,0-.96-7.98-.96Z"/>
      <path id="Trazado_1036520_-_Contorno" data-name="Trazado 1036520 - Contorno" d="M35.01,57.42a48.346,48.346,0,0,1,7.054.31c.967.176,1.326.46,1.326,1.05a.905.905,0,0,1-1.4.751,54.9,54.9,0,0,0-6.977-.3,53.475,53.475,0,0,0-6.98.3.854.854,0,0,1-.457.129.917.917,0,0,1-.943-.88c0-.59.359-.874,1.326-1.05A48.346,48.346,0,0,1,35.01,57.42Zm7.579,1.3a3.469,3.469,0,0,0-1.483-.313c-1.257-.127-3.251-.188-6.1-.188s-4.839.062-6.1.188a3.469,3.469,0,0,0-1.483.313c0,.016,0,.04,0,.059s.072.08.143.08a.067.067,0,0,0,.028,0l.068-.058.084-.023a48.145,48.145,0,0,1,7.257-.345,50.3,50.3,0,0,1,7.252.343l.092.024.071.063a.081.081,0,0,0,.064.019.1.1,0,0,0,.1-.1C42.59,58.761,42.59,58.738,42.589,58.721Z"/>
      <path id="Trazado_1036521" data-name="Trazado 1036521" d="M33.98,54.7a48.519,48.519,0,0,1,7.15-.33,50.02,50.02,0,0,1,7.15.33.479.479,0,0,0,.33.12.5.5,0,0,0,.5-.5c0-.47,0-.96-7.98-.96s-7.98.49-7.98.96a.529.529,0,0,0,.83.38Z"/>
      <path id="Trazado_1036521_-_Contorno" data-name="Trazado 1036521 - Contorno" d="M48.61,55.22a.891.891,0,0,1-.5-.149,54.9,54.9,0,0,0-6.977-.3,53.475,53.475,0,0,0-6.98.3.854.854,0,0,1-.457.129h0a.917.917,0,0,1-.943-.88c0-.59.359-.874,1.326-1.05a48.346,48.346,0,0,1,7.054-.31,48.346,48.346,0,0,1,7.054.31c.967.176,1.326.46,1.326,1.05A.89.89,0,0,1,48.61,55.22Zm-7.48-1.25a50.3,50.3,0,0,1,7.252.343l.092.024.071.063a.081.081,0,0,0,.064.019.1.1,0,0,0,.1-.1c0-.019,0-.042,0-.059a3.469,3.469,0,0,0-1.483-.313c-1.257-.127-3.251-.188-6.1-.188s-4.839.062-6.1.188a3.469,3.469,0,0,0-1.483.313c0,.016,0,.04,0,.059s.072.08.143.08a.066.066,0,0,0,.028,0l.068-.058.084-.023A48.145,48.145,0,0,1,41.13,53.97Z"/>
      <path id="Trazado_1036522" data-name="Trazado 1036522" d="M53.09,59.52c-7.98,0-7.98.49-7.98.96a.529.529,0,0,0,.83.38,48.519,48.519,0,0,1,7.15-.33,50.02,50.02,0,0,1,7.15.33.479.479,0,0,0,.33.12.5.5,0,0,0,.5-.5c0-.47,0-.96-7.98-.96Z"/>
      <path id="Trazado_1036522_-_Contorno" data-name="Trazado 1036522 - Contorno" d="M53.09,59.12a48.346,48.346,0,0,1,7.054.31c.967.176,1.326.46,1.326,1.05a.905.905,0,0,1-1.4.751,54.9,54.9,0,0,0-6.977-.3,53.475,53.475,0,0,0-6.98.3.854.854,0,0,1-.457.129.917.917,0,0,1-.943-.88c0-.59.359-.874,1.326-1.05A48.346,48.346,0,0,1,53.09,59.12Zm7.579,1.3a3.469,3.469,0,0,0-1.483-.313c-1.257-.127-3.251-.188-6.1-.188s-4.839.062-6.1.188a3.469,3.469,0,0,0-1.483.313c0,.016,0,.04,0,.059s.072.08.143.08a.067.067,0,0,0,.028,0l.068-.058.084-.023a48.145,48.145,0,0,1,7.257-.345,50.3,50.3,0,0,1,7.252.343l.092.024.071.063a.081.081,0,0,0,.064.019.1.1,0,0,0,.1-.1C60.67,60.461,60.67,60.438,60.669,60.421Z"/>
      <path id="Trazado_1036523" data-name="Trazado 1036523" d="M52.05,56.4a48.519,48.519,0,0,1,7.15-.33,50.02,50.02,0,0,1,7.15.33.479.479,0,0,0,.33.12.5.5,0,0,0,.5-.5c0-.47,0-.96-7.98-.96s-7.98.49-7.98.96a.525.525,0,0,0,.83.38Z"/>
      <path id="Trazado_1036523_-_Contorno" data-name="Trazado 1036523 - Contorno" d="M66.68,56.92a.891.891,0,0,1-.5-.149,54.9,54.9,0,0,0-6.977-.3,53.487,53.487,0,0,0-6.98.3.861.861,0,0,1-.462.131.915.915,0,0,1-.938-.881c0-.59.359-.874,1.326-1.05a48.346,48.346,0,0,1,7.054-.31,48.346,48.346,0,0,1,7.054.31c.967.176,1.326.46,1.326,1.05A.89.89,0,0,1,66.68,56.92ZM59.2,55.67a50.3,50.3,0,0,1,7.252.343l.092.024.071.063a.081.081,0,0,0,.064.019.1.1,0,0,0,.1-.1c0-.019,0-.042,0-.059a3.469,3.469,0,0,0-1.483-.313c-1.257-.127-3.251-.188-6.1-.188s-4.839.062-6.1.188a3.469,3.469,0,0,0-1.483.313c0,.016,0,.04,0,.059,0,.037.075.081.138.081a.071.071,0,0,0,.032-.005l.068-.058.085-.023A48.145,48.145,0,0,1,59.2,55.67Z"/>
    </g>
  </g>
</svg>
