<svg xmlns="http://www.w3.org/2000/svg" xmlns:xlink="http://www.w3.org/1999/xlink" width="344" height="266" viewBox="0 0 344 266">
  <defs>
    <filter id="Rectángulo_409769" x="0" y="0" width="344" height="266" filterUnits="userSpaceOnUse">
      <feOffset dy="3" input="SourceAlpha"/>
      <feGaussianBlur stdDeviation="3" result="blur"/>
      <feFlood flood-opacity="0.161"/>
      <feComposite operator="in" in2="blur"/>
      <feComposite in="SourceGraphic"/>
    </filter>
    <clipPath id="clip-path">
      <rect id="Rectángulo_409141" data-name="Rectángulo 409141" width="277.891" height="216.767" fill="none"/>
    </clipPath>
  </defs>
  <g id="Grupo_1202151" data-name="Grupo 1202151" transform="translate(-299.051 -7696)">
    <g transform="matrix(1, 0, 0, 1, 299.05, 7696)" filter="url(#Rectángulo_409769)">
      <rect id="Rectángulo_409769-2" data-name="Rectángulo 409769" width="326" height="248" rx="10" transform="translate(9 6)" fill="#e8f9f3"/>
    </g>
    <g id="Grupo_1202150" data-name="Grupo 1202150" transform="translate(322.109 7717.617)">
      <g id="Grupo_1200697" data-name="Grupo 1200697" clip-path="url(#clip-path)">
        <path id="Trazado_1033454" data-name="Trazado 1033454" d="M213.069,95.171c2.314-1.235,5.212-.608,6.077,2.09,1.055,3.295-1.22,3.131-1.719,4.79-.457,1.524,3.719,17.691,4.622,17.913l10.724.574c.676-3.635,5.981-10.108,6.389-13.157.2-1.506-1.081-2.164-1.31-3.411-1.19-6.464,8.463-5.679,7.656-.117-.415,2.856-3.145,2.2-4,3.832-.408.778-3.128,14.59-3.014,15.365l8.367,5.29,1.578-.225,12.4-11,1.23-6.2c3.7-2.518,9.288.264,7.251,4.771-1.5,3.321-5.5,1.152-7.461,3.16-1.733,4.557-7.964,9.715-9.523,13.9-.581,1.558-.011,1.643.364,2.777l-.7.36.7.349a10.21,10.21,0,0,0,1.432,1.761c.668.334,11.453-.775,11.914-1.163s.326-3.731,3.33-4.158c4.692-.667,5.033,5.355,1.694,6.77-1.559.661-3.034-.668-5.07-.228-2.433.526-6.3,4.075-9.052,4.8-.2-.578-2.165-6.481-3.535-4.952,7.535,29.578-9.648,51.65-40.688,48.829-3.982-.362-7.608-2.425-11.689-2.112-.3-.2-1.117-.2-1.768-.683-1.986-1.473-2.418-3.96-5.484-3.452-.9.15-12.684,6.516-13.117,7.125-.456.642-.336,2.975-1.012,4.3-2.918,5.718-11.564.611-7.688-4.863,2.119-2.993,5.642-.745,7.111-1.339.746-.3,11.388-10.288,11.719-11.021,1.028-2.284-3.286-6.773-2.527-9.859-4.771,1.161-12.4-.286-16.611,1.387-2.3.911-2.487,3.723-5.1,4.121-6.592,1-7.381-10.1.092-9.059,3.1.433,4.056,1.91,8.5,1.338,1.359-.176,10.4-3.17,11.047-3.81,1.888-1.854-.526-7.281,1.4-9.576,4.02,5.688,11.646-.068,7.314-5.719-2.109-1.2-4.8-.206-6.856-.787-.882-.248-.985-1.167-1.166-1.281,2.574.825,4.667-4.342,4.171-5.895-1.116-3.5-6.852-.334-8.461-1.489-1.5-1.079-.719-4.7,1.248-5.254,2.867-.8,2.6,1.51,4.187,2.643,4.579,3.277,7.88.425,10.171-3.793.02-.8-7.341-13.173-8.132-13.819-1.273-1.039-2.677-.49-3.882-1.072-4.17-2.011,1.138-9.705,4.907-6.334,2.575,2.3.281,4.13,1.067,5.962.318.74,10.725,11.059,11.5,11.26l10.84-3.784c1.139-.835,1.127-17.776-.185-19.318-.989-1.161-5.913-1.3-1.955-5.829a3.285,3.285,0,0,1,.708-.707m6.3,45.146a7.885,7.885,0,1,0-7.885,7.886,7.886,7.886,0,0,0,7.885-7.886m19.368,4.052a6.208,6.208,0,1,0-6.208,6.209,6.21,6.21,0,0,0,6.208-6.209m-11.2,17.092a7.4,7.4,0,1,0-7.4,7.4,7.4,7.4,0,0,0,7.4-7.4m17.983,8.7a6.472,6.472,0,1,0-6.473,6.474,6.474,6.474,0,0,0,6.473-6.474m-31.119,4.288a6.564,6.564,0,1,0-6.564,6.565,6.564,6.564,0,0,0,6.564-6.565" transform="translate(-8.947 -5.244)" fill="#87dbba"/>
        <path id="Trazado_1033455" data-name="Trazado 1033455" d="M259.281,146.612a43.257,43.257,0,0,1,2.122,9.2,43.4,43.4,0,0,1,0,5.663,55.931,55.931,0,0,1-2.831,12.742c-.241.624-1.979,4.721-2.123,4.955-.511.834-9.979,10.872-10.617,11.327-.286.2-5.5,2.487-6.369,2.831a45.177,45.177,0,0,1-8.492,2.124,39.856,39.856,0,0,1-6.37.707,38.682,38.682,0,0,1-9.909-1.416c-.945-.266-4.823-1.709-5.662-2.123-2.041-1.009-3.96-3.077-5.663-4.248,4.081-.312,7.707,1.75,11.689,2.113,31.041,2.82,48.223-19.252,40.688-48.829,1.371-1.53,3.332,4.374,3.536,4.951" transform="translate(-11.279 -7.842)" fill="#60c9a2"/>
        <path id="Trazado_1033456" data-name="Trazado 1033456" d="M186.8,144.421c.18.113.283,1.032,1.166,1.282,2.055.58,4.747-.415,6.856.786,4.333,5.651-3.294,11.407-7.315,5.719-.8-1.132-1.122-2.649-2.126-3.893-5.311-6.575-18.182-6.267-25.476-10.264.887-1.611,4.42-9.192,4.955-10.619,8.132,4.293,14.384,12.218,21.94,16.989" transform="translate(-8.868 -7.067)" fill="#05b481"/>
        <path id="Trazado_1033457" data-name="Trazado 1033457" d="M190.716,90.668v4.955c-7.539,1.9-15.062,3.957-22.648,5.663a95.48,95.48,0,0,0-1.415-11.326c7.946,1.025,16.038.774,24.063.707" transform="translate(-9.242 -4.989)" fill="#05b481"/>
        <path id="Trazado_1033458" data-name="Trazado 1033458" d="M232.172,198.63c-.077,5.712-2.215,12.464-1.452,18.088.38,2.8,2.243,2.776,2.722,4.35,2.83,9.311-10.815,8.532-8.033.171.431-1.295,1.8-1.991,2.136-2.809,1.775-4.267-2.307-14.1-1.743-19.092a39.746,39.746,0,0,0,6.37-.707" transform="translate(-12.48 -11.016)" fill="#87dbba"/>
        <path id="Trazado_1033459" data-name="Trazado 1033459" d="M259.566,181.1c.144-.234,1.882-4.331,2.123-4.955,4.482,1.6,10.565,8.584,14.864,9.617,2.191.526,3.891-1.15,6.351-.046,3.039,1.362,3.591,7.532-1.115,8.105-6.049.738-4.367-3.33-7.1-5.548-3.628-2.943-11.162-4.434-15.123-7.173" transform="translate(-14.395 -9.769)" fill="#87dbba"/>
        <path id="Trazado_1033460" data-name="Trazado 1033460" d="M247.953,193.384c1.286,2.921,2.361,8.523,4.325,10.894,2.443,2.951,6.872.446,6.255,7.094-.465,5-9.022,4.332-9.236-.637-.069-1.6,1.11-2.991.44-4.566-1.176-2.762-6.6-6.9-8.154-9.955.871-.345,6.083-2.626,6.37-2.832" transform="translate(-13.398 -10.725)" fill="#87dbba"/>
        <path id="Trazado_1033461" data-name="Trazado 1033461" d="M264.811,156.528c5.718-1.121,13.5,1.688,18.777.719,1.738-.319,1.464-1.868,2.617-2.376,8.352-3.685,8.639,10.689,0,6.852-1.088-.483-1.159-2.065-1.968-2.25-3.157-.722-15.079,3.75-19.424,2.719a43.416,43.416,0,0,0,0-5.663" transform="translate(-14.686 -8.555)" fill="#87dbba"/>
        <path id="Trazado_1033462" data-name="Trazado 1033462" d="M214.524,197.756c-1.127,2.632-5.588,6.575-6.234,9.036-.519,1.982.73,3.537.57,5.412-.438,5.123-8.008,5.565-8.455.709-.573-6.219,2.709-3.8,4.844-6.386,2.081-2.52,2.172-7.926,3.614-10.894.839.415,4.717,1.857,5.662,2.123" transform="translate(-11.111 -10.85)" fill="#87dbba"/>
        <path id="Trazado_1033463" data-name="Trazado 1033463" d="M215.484,94.579a3.306,3.306,0,0,0-.708.707c-4.338,1.04-7.522,1.618-9.908-2.831.416-.132,1.381.386,1.436-.373l-.025-2.455c-.456.026-.965-.072-1.411,0,1.984-10.736,14.989-4.84,10.617,4.955" transform="translate(-11.362 -4.653)" fill="#6ccca8"/>
        <path id="Trazado_1033464" data-name="Trazado 1033464" d="M204.161,89.96c.446-.068.954.03,1.411,0l.026,2.455c-.055.759-1.021.241-1.437.373-3.875,1.229-8.072,1.835-12.032,2.832V90.667a75.839,75.839,0,0,0,12.032-.707" transform="translate(-10.655 -4.988)" fill="#60c9a2"/>
        <path id="Trazado_1033465" data-name="Trazado 1033465" d="M258.027,138.632l-.7-.349.7-.359c.077.23-.093.548,0,.707" transform="translate(-14.271 -7.649)" fill="#60c9a2"/>
        <path id="Trazado_1033466" data-name="Trazado 1033466" d="M221.854,142.541a7.885,7.885,0,1,1-7.885-7.887,7.887,7.887,0,0,1,7.885,7.887" transform="translate(-11.429 -7.468)" fill="#b6eed6"/>
        <path id="Trazado_1033467" data-name="Trazado 1033467" d="M230.564,164.955a7.4,7.4,0,1,1-7.4-7.4,7.4,7.4,0,0,1,7.4,7.4" transform="translate(-11.966 -8.738)" fill="#04a267"/>
        <path id="Trazado_1033468" data-name="Trazado 1033468" d="M216.755,178.76a6.564,6.564,0,1,1-6.564-6.565,6.564,6.564,0,0,1,6.564,6.565" transform="translate(-11.293 -9.55)" fill="#b6eed6"/>
        <path id="Trazado_1033469" data-name="Trazado 1033469" d="M249.712,174.225a6.472,6.472,0,1,1-6.473-6.474,6.474,6.474,0,0,1,6.473,6.474" transform="translate(-13.131 -9.303)" fill="#b6eed6"/>
        <path id="Trazado_1033470" data-name="Trazado 1033470" d="M242.557,146.929a6.209,6.209,0,1,1-6.208-6.21,6.21,6.21,0,0,1,6.208,6.21" transform="translate(-12.763 -7.804)" fill="#60c9a2"/>
        <path id="Trazado_1033471" data-name="Trazado 1033471" d="M46.017,106.448c.058,2.379.347,7.809.707,9.91-8.763.158-17.41-.939-26.186-.707v-3.539c8.44-1.976,16.653-5.429,25.479-5.663" transform="translate(-1.139 -5.903)" fill="#05b481"/>
        <path id="Trazado_1033472" data-name="Trazado 1033472" d="M110.539,167.111c-2.829,10.394-6,20.946-5.662,31.855a13.618,13.618,0,0,0-2.832-.707c.469-10.713-1.408-21.295-2.831-31.855,3.893-.11,7.378.7,11.324.707" transform="translate(-5.502 -9.228)" fill="#05b481"/>
        <path id="Trazado_1033473" data-name="Trazado 1033473" d="M174.9,44.244c0,.079.826.605.707,1.416-.3,2.033-17.72,17.193-19.109,21.236a3.939,3.939,0,0,1-2.445-.712c-.9-.8-4.243-6.8-4.632-7.075Z" transform="translate(-8.287 -2.454)" fill="#05b481"/>
        <path id="Trazado_1033474" data-name="Trazado 1033474" d="M136.847,160.408c1.991,3.684,1.86,8.582,3.022,12.2.32,1,1.241,1.68,1.577,2.669,1.05,3.086,2.267,6.084,3.174,9.1a5.819,5.819,0,0,0-2.658,1.033c-3.635-7.985-8.445-15.272-15.023-20.753a26.375,26.375,0,0,1,4.954-2.832c1.888-.853,4.115-1.036,4.954-1.416" transform="translate(-7.04 -8.896)" fill="#05b481"/>
        <path id="Trazado_1033475" data-name="Trazado 1033475" d="M57.13,141.049A126.347,126.347,0,0,0,44.39,145.3l-2.122-5.663c3.178-2.884,5.911-6.914,9.908-9.2.818,1.9,4.232,9.4,4.954,10.619" transform="translate(-2.344 -7.233)" fill="#05b481"/>
        <path id="Trazado_1033476" data-name="Trazado 1033476" d="M105.541,30c.943,4.095,3.173,8.384,2.83,12.742a93.26,93.26,0,0,0-9.908,0c.083-4-.116-8.038,0-12.034Z" transform="translate(-5.459 -1.664)" fill="#05b481"/>
        <path id="Trazado_1033477" data-name="Trazado 1033477" d="M29.608,150.62c.108.062-.3,1.963,1.416,1.416-2.329,1.648-.21,7.135-4.261,8.83-9.382,3.925-11.99-10.92-3.186-11.023a59.35,59.35,0,0,1,6.031.777" transform="translate(-1.008 -8.31)" fill="#87dbba"/>
        <path id="Trazado_1033478" data-name="Trazado 1033478" d="M141.637,24.792c-.154-.035-2.708-1.316-2.831-1.416-4.772-3.882-.8-13.395,6.9-10.083,6.542,2.816,1.426,12.75-4.07,11.5" transform="translate(-7.583 -0.699)" fill="#87dbba"/>
        <path id="Trazado_1033479" data-name="Trazado 1033479" d="M101.775,11.352c-.286.106-2.685.72-2.831.707-4.99-.4-6.807-10.734-.927-11.869,8.782-1.7,11.071,8.469,3.757,11.162" transform="translate(-5.232 0)" fill="#87dbba"/>
        <path id="Trazado_1033480" data-name="Trazado 1033480" d="M104.793,200.836c3.012.83,5.322,2.179,4.948,5.948-.941,9.47-15.558,4.7-11.225-3.382a17,17,0,0,1,3.447-3.273,13.615,13.615,0,0,1,2.831.707" transform="translate(-5.419 -11.098)" fill="#87dbba"/>
        <path id="Trazado_1033481" data-name="Trazado 1033481" d="M10.906,113.686c.155.347-.294,1.394.185,1.946l1.231.886c-2.725,2.958-3.535,6.373-8.7,4.81-9.382-2.838,1.8-19.9,7.284-7.641" transform="translate(0 -6.062)" fill="#86d9b8"/>
        <path id="Trazado_1033482" data-name="Trazado 1033482" d="M151.891,191.553a5.816,5.816,0,1,0-5.816,5.817,5.817,5.817,0,0,0,5.816-5.817" transform="translate(-7.779 -10.301)" fill="#87dbba"/>
        <path id="Trazado_1033483" data-name="Trazado 1033483" d="M177.1,45.139c.119-.809-.709-1.337-.707-1.416.067-2.688-.221-6.736,2.839-8.127,10.744-4.881,12.163,16.274-2.132,9.543" transform="translate(-9.783 -1.933)" fill="#87dbba"/>
        <path id="Trazado_1033484" data-name="Trazado 1033484" d="M60.528,177.624c.06.04-.161.887.2,1.22.576.527,1.694.058,1.92.2a22.659,22.659,0,0,1,1.459,4.6,5.845,5.845,0,0,1-9.5,4.5c-6.123-4.878,2.657-12.672,5.917-10.517" transform="translate(-2.911 -9.83)" fill="#87dbba"/>
        <path id="Trazado_1033485" data-name="Trazado 1033485" d="M25.9,66.314c-.023.168-.642,2.033-.707,2.123-1.929,2.7-8.562,3.047-9.6-.639-3.03-10.745,11.637-11.474,10.31-1.484" transform="translate(-0.842 -3.286)" fill="#87dbba"/>
        <path id="Trazado_1033486" data-name="Trazado 1033486" d="M52.84,76.3c-.295.581-3.279,7.762-3.539,8.494-2.936-.715-6-3.24-7.785-5.662-.145-2.126-.015-4.6,2.123-5.663,2.474.821,6.569.4,9.2,2.832" transform="translate(-2.3 -4.075)" fill="#05b481"/>
        <path id="Trazado_1033487" data-name="Trazado 1033487" d="M102,12.018c1.572,5.56,2.247,11.383,3.539,16.989l-7.078.707c.165-5.681.932-11.292.708-16.989.145.012,2.545-.6,2.831-.707" transform="translate(-5.461 -0.667)" fill="#60c9a2"/>
        <path id="Trazado_1033488" data-name="Trazado 1033488" d="M137.472,39c-.8,3.492-1.33,7.117-2.123,10.619-2.734-1.5-6.661-2.36-9.4-3.558-.738-.323-.446-1.36-.51-1.4,1.2-2.035,2.94-3.732,4.247-5.663Z" transform="translate(-6.957 -2.163)" fill="#05b481"/>
        <path id="Trazado_1033489" data-name="Trazado 1033489" d="M42.769,73.1c-2.138,1.064-2.269,3.537-2.123,5.663L25.783,68.851c.065-.091.685-1.955.707-2.123,4.737,1.873,9.565,3.454,14.39,5.108A9.234,9.234,0,0,1,42.769,73.1" transform="translate(-1.43 -3.701)" fill="#60c9a2"/>
        <path id="Trazado_1033490" data-name="Trazado 1033490" d="M141.26,25.425a112.026,112.026,0,0,0-3.539,12.742h-7.785c3.034-4.486,5.835-9.427,8.493-14.158.123.1,2.677,1.381,2.831,1.416" transform="translate(-7.206 -1.332)" fill="#60c9a2"/>
        <path id="Trazado_1033491" data-name="Trazado 1033491" d="M43.725,145.836c-3.833,1.626-7.871,4.549-12.032,5.663-1.719.547-1.308-1.354-1.416-1.416,3.355-3.738,7.612-6.544,11.324-9.911Z" transform="translate(-1.679 -7.774)" fill="#60c9a2"/>
        <path id="Trazado_1033492" data-name="Trazado 1033492" d="M20.037,112.444v3.539c-2.4.063-4.642,1-7.077.708l-1.231-.886c-.478-.552-.029-1.6-.185-1.946a39.465,39.465,0,0,0,8.493-1.416" transform="translate(-0.638 -6.236)" fill="#60c9a2"/>
        <path id="Trazado_1033493" data-name="Trazado 1033493" d="M78.526,152.706c2.042,1.895,1.334,5.705-1.039,5.687-1.54-.012-5.4-3.84-6.746-4.98l1.434-4.239c.335-.237,5.828,3.046,6.351,3.532" transform="translate(-3.923 -8.272)" fill="#05b481"/>
        <path id="Trazado_1033494" data-name="Trazado 1033494" d="M134.605,52.488c3.35,2.263,6.86,4.951,9.908,7.078.389.272,3.728,6.276,4.633,7.075a3.935,3.935,0,0,0,2.444.712c.872.818,8.735,18.37,9.2,20.529a95.694,95.694,0,0,1,1.416,11.326c.389,7.083-.335,17.4-2.831,24.068-.534,1.426-4.067,9.007-4.954,10.619-.319.579-2.369,2.153-2.832,2.832-1.437-.139-2.27.8-2.941-.965a31.5,31.5,0,0,1-1.307-8.95,5.569,5.569,0,0,0-2.841.347c-.588.3-5.849,9.137-7.41,10.993-2.215,2.631-8.3,8.766-10.979,10.609a82.253,82.253,0,0,1-15.711,7.293c-5.488,1.62-11.415,1.535-16.846,3.326-5.715-.723-10.663-3.257-15.823-5.55L63.123,172.12c-.226-.137-1.344.332-1.92-.2-.364-.332-.143-1.181-.2-1.22l8.493-22.652c.134.117.571-.116.707,0,1.348,1.14,5.206,4.967,6.746,4.979,2.373.019,3.082-3.791,1.04-5.686.652.1,1.564-.154,2.122,0,9.447,2.592,12.952,3.913,23.357,2.123,9.632-1.657,15.632-5.016,22.647-11.326,3.969-3.569,6.863-5.58,8.493-10.619.152-.47.636-1.01.707-1.416,2.323-.213,3.892-5.106,4.582-7.1.748-2.153,3.413-13.691,3.2-15.134-.177-1.218-1.48-2.808-1.818-4.619-2.762-14.8-3.179-27.24-14.427-38.661-1.106-1.124-6.981-5.2-7.115-5.638-.413-1.334.682-1.266,1.635-.92,1.9.69,11.55,8.734,12.521,7.649.679-3.332-2.044-6.551.711-9.2" transform="translate(-3.382 -2.911)" fill="#60c9a2"/>
        <path id="Trazado_1033495" data-name="Trazado 1033495" d="M107.747,43.487c.94.031,1.895-.06,2.831,0L114.8,65.161l-.686,3.809c-7.038,3.384-6.73,17.292,4.247,17.7l4.954,26.192c-9.558,3.6-6.406,19.195,4.247,19.113v5.663c-7.016,6.311-13.015,9.669-22.648,11.326l.672-4.5L99.962,116.4c14-1.5,11.641-23.521-4.247-19.821L93.592,85.252c5.883-4.824,3.85-17.15-3.539-19.82-.7-6.189-3.317-12.111-2.831-18.405,2.95-1.057,7.689-3.133,10.617-3.539a93.26,93.26,0,0,1,9.908,0" transform="translate(-4.834 -2.404)" fill="#78d3af"/>
        <path id="Trazado_1033496" data-name="Trazado 1033496" d="M84.726,45.972c-.486,6.294,2.127,12.217,2.831,18.405C77.4,60.706,68.477,70.034,72.35,79.941c2.831,7.243,12.963,9,18.746,4.257L93.22,95.524c-.913.213-4.2,2.939-4.847,4-4.21,6.876.961,16.695,9.094,15.821l5.626,28.058-.672,4.5c-10.405,1.79-13.909.469-23.356-2.123,1.657-3.133-.86-7.583,0-11.326.729-.195,4.341-3.814,4.791-4.761,3.1-6.525-3.327-13.806-9.746-12.228L63.494,60.13A17.045,17.045,0,0,0,65.522,57.5c.77-2.866-11.389-17.637-13.331-21.11-2.785-2.451-7.267.928-9.393-4.057-4.343-10.185,14.8-11.522,10.231,1.173L72.714,49.875c2.682,1.256,5.083-1.594,7.4-2.493,1.633-.632,3.22-.912,4.608-1.41" transform="translate(-2.338 -1.35)" fill="#86d9b8"/>
        <path id="Trazado_1033497" data-name="Trazado 1033497" d="M63.79,62.231l10.617,57.338c-.943.231-4.186,2.926-4.847,4-4.192,6.81,2.483,14.938,9.8,12.989-.86,3.743,1.658,8.193,0,11.326-.559-.154-1.472.1-2.123,0-.523-.486-6.016-3.769-6.351-3.532l-1.435,4.239c-.137-.116-.572.117-.707,0-3.108-2.7-6.429-7.146-9.168-10.329-.707-.822-2.1-.9-2.156-1-.723-1.222-4.136-8.716-4.954-10.619a80.045,80.045,0,0,1-4.247-12.742c-.361-2.1-.65-7.53-.707-9.91-.128-5.273.384-14.923,2.123-19.82.26-.733,3.244-7.913,3.538-8.5,2.411-4.746,7.272-9.83,10.617-13.449" transform="translate(-2.634 -3.451)" fill="#87dbba"/>
        <path id="Trazado_1033498" data-name="Trazado 1033498" d="M124.692,44.911c.064.037-.228,1.075.51,1.4,2.737,1.2,6.665,2.063,9.4,3.558a22.269,22.269,0,0,1,2.832,2.123c-2.755,2.648-.032,5.867-.712,9.2-.97,1.084-10.62-6.959-12.52-7.649-.954-.347-2.049-.415-1.636.919.134.434,6.009,4.515,7.115,5.638,11.248,11.421,11.666,23.857,14.428,38.661.338,1.812,1.642,3.4,1.817,4.619.209,1.443-2.456,12.982-3.2,15.135-.691,1.991-2.259,6.885-4.582,7.1,1.576-8.866-4.108-16.265-13.447-12.742l-4.954-26.192c3.982.147,6.188-.321,8.5-3.889,5.426-8.381-4.079-17.975-12.745-13.808l.686-3.809-4.225-21.674c1.666.108,12.185,1.1,12.74,1.416" transform="translate(-6.209 -2.412)" fill="#6ccca8"/>
        <path id="Trazado_1033499" data-name="Trazado 1033499" d="M129.936,153.123c2.682-1.843,8.763-7.978,10.978-10.61,1.561-1.856,6.822-10.687,7.411-10.992a5.559,5.559,0,0,1,2.841-.347,31.523,31.523,0,0,0,1.306,8.949c.672,1.769,1.506.827,2.942.965-3.846,5.645-12.284,14.926-18.4,17.7-.839.38-3.066.562-4.954,1.415a9.794,9.794,0,0,0-2.123-7.078" transform="translate(-7.206 -7.273)" fill="#6ccca8"/>
        <path id="Trazado_1033500" data-name="Trazado 1033500" d="M130.148,161.491a26.374,26.374,0,0,0-4.954,2.832c-1.719,1.116-12.3,2.126-14.863,2.123-3.945,0-7.43-.816-11.323-.707l-3.539-.708c5.431-1.79,11.358-1.706,16.845-3.326a82.29,82.29,0,0,0,15.711-7.292,9.79,9.79,0,0,1,2.123,7.078" transform="translate(-5.295 -8.564)" fill="#78d3af"/>
        <path id="Trazado_1033501" data-name="Trazado 1033501" d="M138.552,129.63c-.072.406-.555.945-.707,1.416-2.085,2.383-5.059,4.929-8.493,4.955-10.653.083-13.8-15.507-4.247-19.113,9.34-3.522,15.023,3.875,13.447,12.742" transform="translate(-6.622 -6.433)" fill="#b6eed6"/>
        <path id="Trazado_1033502" data-name="Trazado 1033502" d="M138.429,131.929c-1.63,5.038-4.524,7.049-8.493,10.619v-5.663c3.435-.026,6.409-2.572,8.493-4.955" transform="translate(-7.206 -7.317)" fill="#6ccca8"/>
        <path id="Trazado_1033503" data-name="Trazado 1033503" d="M89.276,66.68c7.388,2.67,9.422,15,3.539,19.82-5.783,4.743-15.916,2.987-18.746-4.256C70.2,72.337,79.12,63.01,89.276,66.68" transform="translate(-4.057 -3.653)" fill="#b6eed6"/>
        <path id="Trazado_1033504" data-name="Trazado 1033504" d="M100.091,119.5c-8.133.874-13.3-8.945-9.094-15.82.65-1.061,3.935-3.788,4.847-4,15.889-3.7,18.247,18.317,4.247,19.82" transform="translate(-4.963 -5.505)" fill="#04a267"/>
        <path id="Trazado_1033505" data-name="Trazado 1033505" d="M119.667,88.113c-10.976-.405-11.284-14.313-4.247-17.7,8.665-4.166,18.171,5.427,12.745,13.808-2.31,3.568-4.516,4.036-8.5,3.889" transform="translate(-6.138 -3.849)" fill="#60c9a2"/>
        <path id="Trazado_1033506" data-name="Trazado 1033506" d="M80.579,139.913c-7.317,1.949-13.993-6.179-9.8-12.989.661-1.073,3.9-3.768,4.847-4,6.419-1.578,12.841,5.7,9.745,12.228-.45.947-4.062,4.567-4.791,4.761" transform="translate(-3.853 -6.805)" fill="#b6eed6"/>
      </g>
    </g>
  </g>
</svg>
