<svg xmlns="http://www.w3.org/2000/svg" width="82" height="82" viewBox="0 0 82 82">
  <g id="Grupo_1202305" data-name="Grupo 1202305" transform="translate(-339.835 -7454)">
    <rect id="Rectángulo_409917" data-name="Rectángulo 409917" width="82" height="82" transform="translate(339.835 7454)" fill="none"/>
    <g id="Grupo_1202304" data-name="Grupo 1202304" transform="translate(346.835 7459)">
      <ellipse id="Elipse_12388" data-name="Elipse 12388" cx="1.682" cy="1.682" rx="1.682" ry="1.682" transform="translate(53.167 12.945)"/>
      <path id="Trazado_1036524" data-name="Trazado 1036524" d="M18.72,27.854a2.191,2.191,0,0,1,2.115-.777l6.81,1.286H55.723l6.146-6.9a.8.8,0,0,0,.2-.531V17.158A9.35,9.35,0,0,1,63.8,11.706a6.056,6.056,0,1,1,6.419-9.97,2.153,2.153,0,0,0,1.51.638H71.9a2.152,2.152,0,0,0,1.51-.638,6.055,6.055,0,1,1,5.906,10.137,9.533,9.533,0,0,1,.572.952l4.578,3.5A2.984,2.984,0,0,1,83.346,21.6l-1.259.3v4.486L83.1,27.462a4.244,4.244,0,0,1-5.2,6.6,28.42,28.42,0,0,1-.626,5.594,1.066,1.066,0,0,1-1.04.842,1.078,1.078,0,0,1-.225-.024,1.065,1.065,0,0,1-.818-1.265,26.27,26.27,0,0,0,.583-5.506,21.727,21.727,0,0,0-.648-5.265L74.548,26.1a9.4,9.4,0,0,1-1.434.365,1.065,1.065,0,1,1-.359-2.1,7.311,7.311,0,1,0-6.29-12.492A7.249,7.249,0,0,0,64.2,17.158v3.773a2.926,2.926,0,0,1-.741,1.948L57,30.137a1.066,1.066,0,0,1-.8.357H32.276V31a2.968,2.968,0,0,0,2.964,2.964h3.307a1.065,1.065,0,1,1,0,2.131H35.671v.5a2.968,2.968,0,0,0,2.964,2.964H52.15a1.065,1.065,0,1,1,0,2.131h-14.1v.5a2.968,2.968,0,0,0,2.964,2.964h12.8a1.065,1.065,0,1,1,0,2.131h-12.8a5.1,5.1,0,0,1-5.095-5.1V40.9a5.1,5.1,0,0,1-2.382-4.309v-.8A5.1,5.1,0,0,1,30.146,31v-.5h-2.6a1.061,1.061,0,0,1-.2-.018l-6.908-1.3a.055.055,0,0,0-.062.023.054.054,0,0,0-.009.065l1.694,4.028a1.063,1.063,0,0,1,.083.413,26.128,26.128,0,0,0,26.1,26.1h1.438A26.107,26.107,0,0,0,73.925,43.382a1.065,1.065,0,0,1,1.978.791A28.238,28.238,0,0,1,51.649,61.86v4.118h3.438a3.584,3.584,0,0,1,3.58,3.579v1.335a1.694,1.694,0,0,1-1.692,1.692H44.5a3.88,3.88,0,0,1-3.876-3.875V60.883A28.28,28.28,0,0,1,20.016,33.916L18.4,30.085a2.191,2.191,0,0,1,.316-2.23Zm64.768-8.98a.83.83,0,0,0-.317-.855l-2.256-1.725c.013.139.023.279.03.42a9.423,9.423,0,0,1-.461,3.379l2.367-.565A.83.83,0,0,0,83.488,18.874Zm-6.976,6.291.688,2.753a23.851,23.851,0,0,1,.569,3.2l.753.752a2.114,2.114,0,0,0,3.032-2.946l-1.305-1.383a1.065,1.065,0,0,1-.291-.731v-4.4l-.724.173A9.478,9.478,0,0,1,76.511,25.165ZM71.958,7.726a9.375,9.375,0,0,1,5.654,2.252h.043a3.925,3.925,0,0,0,3.915-4.205A3.924,3.924,0,0,0,74.9,3.255a4.27,4.27,0,0,1-3,1.25h-.168a4.27,4.27,0,0,1-3-1.25,3.924,3.924,0,0,0-5.669,5.422,3.89,3.89,0,0,0,2.371,1.262,9.356,9.356,0,0,1,6.529-2.213ZM42.752,68.709A1.747,1.747,0,0,0,44.5,70.454h.878a3.85,3.85,0,0,1-.417-1.745v-.657a1.065,1.065,0,1,1,2.131,0v.657a1.747,1.747,0,0,0,1.745,1.745h7.7v-.9a1.451,1.451,0,0,0-1.449-1.449h-3.7a1.873,1.873,0,0,1-1.871-1.871V61.929H48.244c-.387,0-.772-.01-1.156-.026v1.609a1.065,1.065,0,0,1-2.131,0V61.736q-1.117-.13-2.206-.346v7.318Z" transform="translate(-18.232 0.001)"/>
      <path id="Trazado_1036525" data-name="Trazado 1036525" d="M276.477,241.237a1.065,1.065,0,1,1,0-2.131h4.957a1.065,1.065,0,1,1,0,2.131Z" transform="translate(-251.622 -205.144)"/>
      <path id="Trazado_1036526" data-name="Trazado 1036526" d="M193.29,320.058a1.065,1.065,0,0,1,0-2.131h2.258a1.065,1.065,0,0,1,0,2.131Z" transform="translate(-153.921 -272.769)"/>
    </g>
  </g>
</svg>
