<svg xmlns="http://www.w3.org/2000/svg" width="82" height="82" viewBox="0 0 82 82">
  <g id="Grupo_1202314" data-name="Grupo 1202314" transform="translate(-759.835 -7454)">
    <rect id="Rectángulo_409918" data-name="Rectángulo 409918" width="82" height="82" transform="translate(759.835 7454)" fill="none"/>
    <g id="Grupo_1202313" data-name="Grupo 1202313" transform="translate(768.362 7463.07)">
      <g id="Grupo_1202306" data-name="Grupo 1202306">
        <path id="Trazado_1036527" data-name="Trazado 1036527" d="M20.62,43.47a9.665,9.665,0,0,1-4.95-1.33c-2.63-1.57-4.46-4.41-5.29-8.21-1.65-7.57,1.03-17.7,6.97-19.41a7.6,7.6,0,0,1,6.01,1.08c3.83,2.28,7.15,7.25,8.26,12.35,1.82,8.32-2.67,13.56-7.92,15.07A10.987,10.987,0,0,1,20.62,43.47ZM19.05,16.28a4.075,4.075,0,0,0-1.14.16c-4.33,1.25-7.14,9.85-5.57,17.06.71,3.25,2.22,5.64,4.37,6.92a8.069,8.069,0,0,0,6.46.68c4.03-1.16,8.16-5.19,6.52-12.72-1-4.6-3.95-9.04-7.33-11.06a6.647,6.647,0,0,0-3.31-1.04Z"/>
      </g>
      <g id="Grupo_1202307" data-name="Grupo 1202307">
        <path id="Trazado_1036528" data-name="Trazado 1036528" d="M35.55,61.06a1.047,1.047,0,0,1-.3-.05,12.14,12.14,0,0,1-8.38-9.54C21.15,59.6,11.9,58.02,11.8,58a.987.987,0,0,1-.81-1.09,1,1,0,0,1,1.03-.89h.06c1.95,0,3.06-3.34,3.56-5.82-4.12,1.41-9.3-1.55-11.33-3.44-.34-.31-1.23-1.15-.64-2s1.65-.29,2.06-.08a7.74,7.74,0,0,0,5.37.23c-4.35-2.67-6.66-8.86-6.77-9.17a1,1,0,0,1,1.8-.85c2.68,4.44,5.85,3.37,5.98,3.32a1,1,0,0,1,.7,1.87,5.792,5.792,0,0,1-4-.15c1.31,1.84,3.09,3.61,5.26,4.08a.988.988,0,0,1,.78.85,1.017,1.017,0,0,1-.54,1.02,14.531,14.531,0,0,1-5.7,1.4,12.056,12.056,0,0,0,3.6,1.22,5.021,5.021,0,0,0,4.08-.92.986.986,0,0,1,1.1-.11,1.008,1.008,0,0,1,.53.98c-.06.69-.54,5.05-2.44,7.64,3.26-.34,8.16-1.96,11.15-8.17a1,1,0,0,1,1.9.49c-.01.3-.25,6.73,5.22,9.8-1.15-3.27-2.54-8.71.26-10.22a1.01,1.01,0,0,1,1.4.49,8.911,8.911,0,0,0,8.73,5.16c-1.9-1.88-4.52-5.25-2.59-8.15a.983.983,0,0,1,.92-.44,1.013,1.013,0,0,1,.83.59c.09.2,2.18,4.55,9.54,3.95-1.54-1.49-3.48-3.76-3.3-5.52a2.307,2.307,0,0,1,1.29-1.82.975.975,0,0,1,.54-.11,8.924,8.924,0,0,0,5.81-1.84,6,6,0,0,0,1.7-2.6c-2.3,1.47-5.98,3.12-8.31.66a1,1,0,0,1,1.45-1.37c1.82,1.93,6.23-1.12,7.62-2.34a.988.988,0,0,1,1.1-.14,1.006,1.006,0,0,1,.56.95,8.732,8.732,0,0,1-2.82,6.35,10.766,10.766,0,0,1-6.9,2.34.191.191,0,0,0-.05.12c-.1.99,2.1,3.51,4.22,5.24a1,1,0,0,1-.44,1.76c-6.77,1.27-10.47-.9-12.29-2.72.68,2.36,3.95,4.92,3.99,4.95a.985.985,0,0,1,.37,1,1,1,0,0,1-.74.77,10.854,10.854,0,0,1-12.22-4.54c-.35,1.92.8,6.02,2.06,8.95a.982.982,0,0,1-.18,1.07,1.06,1.06,0,0,1-.75.31Z"/>
      </g>
      <g id="Grupo_1202308" data-name="Grupo 1202308">
        <path id="Trazado_1036529" data-name="Trazado 1036529" d="M31.37,32.3c-.12,0-.25,0-.37-.01a.991.991,0,0,1-.96-.98,15.322,15.322,0,0,0-.36-2.94c-1.11-5.06-4.59-9.92-8.28-11.55a1,1,0,0,1-.58-1.11c1.22-6.2,5.33-12.78,10.55-12.78,6.17,0,10.96,9.09,10.96,16.91,0,8.61-5.51,12.46-10.96,12.46ZM22.94,15.36c4,2.15,7.51,7.19,8.68,12.59a17.754,17.754,0,0,1,.35,2.33c3.98-.26,8.35-3.1,8.35-10.43,0-7.39-4.52-14.91-8.96-14.91C27.99,4.94,24.31,9.55,22.94,15.36Z"/>
      </g>
      <g id="Grupo_1202309" data-name="Grupo 1202309">
        <path id="Trazado_1036530" data-name="Trazado 1036530" d="M41.62,44.07a12.062,12.062,0,0,1-2.24-.22c-4.46-.9-9.38-4.75-8.55-12.66a1.016,1.016,0,0,1,.95-.9c3.95-.17,8.55-3,8.55-10.44a18.848,18.848,0,0,0-.25-3.03,1,1,0,0,1,.56-1.06,7.188,7.188,0,0,1,4.52-.7c6.05,1.22,8.96,11.07,7.42,18.74-1.47,7.27-6.25,10.27-10.96,10.27ZM32.75,32.21c-.28,6.02,3.54,8.97,7.02,9.67,4.06.81,9.32-.92,10.84-8.48,1.45-7.24-1.5-15.51-5.85-16.38a4.872,4.872,0,0,0-2.6.26,20.5,20.5,0,0,1,.16,2.57c.01,7.81-4.67,11.76-9.57,12.36Z"/>
      </g>
      <g id="Grupo_1202310" data-name="Grupo 1202310">
        <path id="Trazado_1036531" data-name="Trazado 1036531" d="M43.32,40.34a1,1,0,0,1-.26-1.96c3.67-1.01,4.4-6.46,4.4-6.52a1.009,1.009,0,0,1,1.12-.87,1,1,0,0,1,.87,1.11c-.03.28-.89,6.83-5.86,8.2A.884.884,0,0,1,43.32,40.34Z"/>
      </g>
      <g id="Grupo_1202311" data-name="Grupo 1202311">
        <path id="Trazado_1036532" data-name="Trazado 1036532" d="M26.72,16.28a1,1,0,0,1-1-.92,8.775,8.775,0,0,1,2.43-6.89.988.988,0,0,1,1.41.06,1.006,1.006,0,0,1-.05,1.41,6.81,6.81,0,0,0-1.8,5.27,1.013,1.013,0,0,1-.92,1.08.148.148,0,0,0-.07-.01Z"/>
      </g>
      <g id="Grupo_1202312" data-name="Grupo 1202312">
        <path id="Trazado_1036533" data-name="Trazado 1036533" d="M20.97,40.34h-.09a7.211,7.211,0,0,1-6.46-6.01,1,1,0,0,1,1.98-.31,5.252,5.252,0,0,0,4.67,4.33,1,1,0,0,1-.1,1.99Z"/>
      </g>
    </g>
  </g>
</svg>
