<svg xmlns="http://www.w3.org/2000/svg" width="100" height="100" viewBox="0 0 100 100">
  <g id="Grupo_1202255" data-name="Grupo 1202255" transform="translate(-278.051 -9445)">
    <rect id="Rectángulo_409775" data-name="Rectángulo 409775" width="100" height="100" transform="translate(278.051 9445)" fill="none"/>
    <g id="Grupo_1202254" data-name="Grupo 1202254" transform="translate(289.583 9456.533)">
      <path id="Trazado_1036521" data-name="Trazado 1036521" d="M11.591,44.831l12.226,7.333a1.2,1.2,0,0,0,1.237,0L37.28,44.831a15.706,15.706,0,0,0,7.593-13.4V11.067a1.2,1.2,0,0,0-1.136-1.2,44.693,44.693,0,0,1-18.723-5.06,1.2,1.2,0,0,0-1.153,0A44.7,44.7,0,0,1,5.136,9.868,1.2,1.2,0,0,0,4,11.067V31.431A15.708,15.708,0,0,0,11.591,44.831ZM6.4,12.193A46.923,46.923,0,0,0,24.436,7.227a46.923,46.923,0,0,0,18.032,4.966V31.431A13.291,13.291,0,0,1,36.043,42.77L24.436,49.732,12.83,42.77A13.291,13.291,0,0,1,6.4,31.431Z" transform="translate(0.808 0.942)"/>
      <path id="Trazado_1036522" data-name="Trazado 1036522" d="M9.924,49.9l14.7,8.824a1.2,1.2,0,0,0,1.237,0l14.7-8.824a20.56,20.56,0,0,0,9.925-17.523V7.2A1.244,1.244,0,0,0,49.179,6C49.051,6.016,36.232,7.071,25.912.19a1.25,1.25,0,0,0-1.333,0C14.256,7.071,1.439,6.017,1.31,6A1.238,1.238,0,0,0,0,7.2V32.374A20.534,20.534,0,0,0,9.924,49.9ZM2.4,8.468c7.6.231,16.17-1.646,22.84-5.86a41.7,41.7,0,0,0,22.84,5.86V32.374a18.146,18.146,0,0,1-8.757,15.462L25.245,56.289,11.161,47.835A18.119,18.119,0,0,1,2.4,32.374Z" transform="translate(0 0)"/>
      <path id="Trazado_1036523" data-name="Trazado 1036523" d="M13.2,29.425h6.011v6.011a1.2,1.2,0,0,0,1.2,1.2h4.808a1.2,1.2,0,0,0,1.2-1.2V29.425h6.011a1.2,1.2,0,0,0,1.2-1.2V23.415a1.2,1.2,0,0,0-1.2-1.2H26.425V16.2a1.2,1.2,0,0,0-1.2-1.2H20.415a1.2,1.2,0,0,0-1.2,1.2v6.011H13.2a1.2,1.2,0,0,0-1.2,1.2v4.808A1.2,1.2,0,0,0,13.2,29.425Zm1.2-4.808h6.011a1.2,1.2,0,0,0,1.2-1.2V17.4h2.4v6.011a1.2,1.2,0,0,0,1.2,1.2h6.011v2.4H25.223a1.2,1.2,0,0,0-1.2,1.2v6.011h-2.4V28.223a1.2,1.2,0,0,0-1.2-1.2H14.4Z" transform="translate(2.425 3.032)"/>
      <path id="Trazado_1036524" data-name="Trazado 1036524" d="M46.638,31.716A11.893,11.893,0,0,1,51.473,33.6l-.129.129a1.2,1.2,0,0,0,1.7,1.7l1.182-1.182s.008,0,.012-.01l0-.006,4.234-4.234a1.271,1.271,0,0,0,.275-1.261,3,3,0,1,1,1.831,1.832,1.248,1.248,0,0,0-1.306.334L54.9,35.277a1.281,1.281,0,0,0-.139,1.532,12,12,0,0,1-.017,13.577,1.417,1.417,0,0,0-.194.779,1.372,1.372,0,0,0,.333.749l4.149,4.149a1.329,1.329,0,0,0,1.262.278,3.008,3.008,0,1,1-1.831,1.833,1.3,1.3,0,0,0-.279-1.262l-5.432-5.432a1.2,1.2,0,0,0-1.7,1.7l.4.4a11.6,11.6,0,0,1-4.382,1.771,1.286,1.286,0,0,0-1,1.183V62.25a1.347,1.347,0,0,0,.606,1.042,3.628,3.628,0,0,1,1.688,4.048,3.569,3.569,0,0,1-2.589,2.569,3.607,3.607,0,0,1-2.708-6.615,1.375,1.375,0,0,0,.6-1.042V56.529a1.308,1.308,0,0,0-.977-1.183,12.045,12.045,0,0,1-5.462-2.561A1.2,1.2,0,0,0,35.7,54.644a14.5,14.5,0,0,0,5.56,2.818v4.152a6.02,6.02,0,1,0,7.212.008V57.471a14.036,14.036,0,0,0,4.692-2.179l2.825,2.825a5.409,5.409,0,1,0,4.247-4.25l-2.97-2.97A14.318,14.318,0,0,0,59.2,44.8h1.16a4.8,4.8,0,1,0,8.037-4.6,4.923,4.923,0,0,0-6.8,0,4.755,4.755,0,0,0-1.238,2.2H59.2a14.335,14.335,0,0,0-1.926-6.1l3.263-3.263a5.332,5.332,0,0,0,1.039.112,5.412,5.412,0,1,0-5.3-4.354L53.188,31.88a14.275,14.275,0,0,0-6.2-2.542,1.2,1.2,0,0,0-.352,2.379ZM65,41.193A2.4,2.4,0,1,1,62.6,43.6s0,0,0-.008,0,0,0-.008A2.4,2.4,0,0,1,65,41.193Z" transform="translate(7.124 4.515)"/>
      <path id="Trazado_1036525" data-name="Trazado 1036525" d="M37.736,45.937a10.175,10.175,0,0,1-.719-1.182,1.2,1.2,0,0,0-2.129,1.116c.111.212.225.408.339.6l-6.984,6.984a5.4,5.4,0,1,0,4.246,4.252l4.647-4.647a1.2,1.2,0,0,0-1.7-1.7l-5.1,5.1a1.28,1.28,0,0,0-.32,1.295,2.975,2.975,0,0,1-.7,3.117,3.006,3.006,0,1,1-1.126-4.946,1.322,1.322,0,0,0,1.267-.281l8.141-8.141a1.3,1.3,0,0,0,.144-1.569Z" transform="translate(4.403 8.915)"/>
      <path id="Trazado_1036526" data-name="Trazado 1036526" d="M45.208,34.026a1.208,1.208,0,1,0,1.208,1.208A1.212,1.212,0,0,0,45.208,34.026Z" transform="translate(8.893 6.878)"/>
      <path id="Trazado_1036527" data-name="Trazado 1036527" d="M38.464,45.643a3.606,3.606,0,1,0,3.606-3.606A3.611,3.611,0,0,0,38.464,45.643Zm4.808,0a1.2,1.2,0,1,1-1.2-1.2A1.2,1.2,0,0,1,43.272,45.643Z" transform="translate(7.775 8.497)"/>
      <path id="Trazado_1036528" data-name="Trazado 1036528" d="M48.005,44.048A3.005,3.005,0,1,0,45,41.042,3.009,3.009,0,0,0,48.005,44.048Zm0-3.606a.6.6,0,1,1-.6.6A.6.6,0,0,1,48.005,40.441Z" transform="translate(9.096 7.689)"/>
    </g>
  </g>
</svg>
