<svg id="Grupo_1202157" data-name="Grupo 1202157" xmlns="http://www.w3.org/2000/svg" xmlns:xlink="http://www.w3.org/1999/xlink" width="100" height="100" viewBox="0 0 100 100">
  <defs>
    <clipPath id="clip-path">
      <rect id="Rect치ngulo_409465" data-name="Rect치ngulo 409465" width="54.429" height="57.005" fill="#12263f"/>
    </clipPath>
  </defs>
  <rect id="Rect치ngulo_409767" data-name="Rect치ngulo 409767" width="100" height="100" fill="none"/>
  <g id="Grupo_1201549" data-name="Grupo 1201549" transform="translate(23 21)">
    <g id="Grupo_1201548" data-name="Grupo 1201548" clip-path="url(#clip-path)">
      <path id="Trazado_1034213" data-name="Trazado 1034213" d="M118.921,55.561a67.091,67.091,0,0,1,9.177-.044,1.879,1.879,0,0,1,1.46,1.031l-.08,34.144a1.6,1.6,0,0,1-.88.5,75.621,75.621,0,0,1-10.143-.077,1.049,1.049,0,0,1-.488-.626L117.9,57.047a1.687,1.687,0,0,1,1.024-1.486m9.6,3.345c-.02-.69.206-1.527-.408-1.986h-8.842v1.986Zm-.408,1.419h-8.842l.119,2c.192.29.53.242.821.279A43.975,43.975,0,0,0,128,62.46c.915-.3.687-1.526.118-2.135M119.68,63.73c-.477,0-.685,1.935,0,2.27h8.434a1.613,1.613,0,0,0,0-2.27Zm0,3.405c-.477,0-.685,1.935,0,2.27h8.434a1.613,1.613,0,0,0,0-2.27Zm0,3.405c-.477,0-.685,1.935,0,2.27h8.434a1.613,1.613,0,0,0,0-2.27Zm-.408,5.676h8.842a1.613,1.613,0,0,0,0-2.27H119.68l-.365.47Zm9.25,1.419h-9.25v1.986h8.842c.615-.46.389-1.3.408-1.986m0,3.405h-9.25v1.986h8.842c.615-.46.389-1.3.408-1.986m-9.25,5.392h8.842c.556,0,.556-1.986,0-1.986h-8.842Zm0,3.405h8.842c.556,0,.556-1.986,0-1.986h-8.842Z" transform="translate(-75.128 -34.427)" fill="#12263f"/>
      <path id="Trazado_1034214" data-name="Trazado 1034214" d="M89.3,74.445l.675.565v27.238c-.441.74-.841.8-1.61.876a59.567,59.567,0,0,1-8.989-.024,1.018,1.018,0,0,1-.575-.252,3.608,3.608,0,0,1-.678-2.154c.024-7.462.313-14.933.305-22.4,0-.942-.875-3.435.806-3.844ZM80.188,75.58c-.477,0-.685,1.935,0,2.27H88.35a1.613,1.613,0,0,0,0-2.27Zm0,3.405c-.477,0-.685,1.935,0,2.27H88.35a1.613,1.613,0,0,0,0-2.27Zm8.57,5.676-.038-1.806-.408-.425-8.413.225-.119,2Zm0,3.405-.038-1.806-.408-.425-8.413.226-.119,2ZM79.78,91.472h8.978V89.485H79.78Zm0,3.405h8.978V92.89H79.78Zm0,3.405h8.978V96.3H79.78Zm0,3.405h8.978V99.7H79.78Z" transform="translate(-49.784 -46.277)" fill="#12263f"/>
      <path id="Trazado_1034215" data-name="Trazado 1034215" d="M40.7,91.514a46.838,46.838,0,0,1,8.367-.068c2.91.317,1.83,2.116,1.872,4.162.114,5.479.135,10.944.182,16.427A1.684,1.684,0,0,1,50.1,113.52a80.714,80.714,0,0,1-9.731.054c-2.121-.428-.681-4.246-1.258-5.811.052-4.055.248-8.116.274-12.172.009-1.58-1.114-3.613,1.318-4.077m9.048,3.62-.038-1.806L49.3,92.9l-8.413.226-.119,2Zm0,3.405-.038-1.806-.408-.425-8.413.226-.119,2Zm-8.978,3.405h8.978V99.958H40.77Zm0,3.405h8.978v-1.986H40.77Zm0,3.405h8.978v-1.986H40.77Zm0,3.405h8.978v-1.986H40.77Z" transform="translate(-24.922 -56.751)" fill="#12263f"/>
      <path id="Trazado_1034216" data-name="Trazado 1034216" d="M1.563,110.208c2.791-.453,6.61.335,9.522,0,1.771.865.9,2.579.919,4.067.036,3.361.315,6.781.027,10.115-.441.74-.841.8-1.61.876-1.181.12-8.755.129-9.4-.166a2.383,2.383,0,0,1-.68-.709l-.134-12.9a1.6,1.6,0,0,1,1.352-1.283m9.25,1.419H1.835v1.986h8.978Zm0,3.405H1.835v1.986h8.978Zm0,3.405H1.835v1.986h8.978Zm0,3.405H1.835v1.986h8.978Z" transform="translate(-0.134 -68.419)" fill="#12263f"/>
      <path id="Trazado_1034217" data-name="Trazado 1034217" d="M26.731,19.909A60.156,60.156,0,0,0,42.509,2.455l-4.446.735c-.33-.275-.617-.957-.183-1.3C38.4,1.476,44.264.148,44.7.455c.355.25,1.764,6.615,1.506,6.984-1.727,1.284-1.7-2.013-2.025-3.323-.1-.39.174-.789-.441-.664-6.79,10.686-15.718,19.9-27.891,23.409A42.61,42.61,0,0,1,1.007,28.436c-1.343-.159-1.343-1.288,0-1.447,1.761-.209,3.911.143,5.738.026A45.774,45.774,0,0,0,16.12,25.3a34.6,34.6,0,0,0,10.611-5.392" transform="translate(0 -0.255)" fill="#12263f"/>
      <path id="Trazado_1034218" data-name="Trazado 1034218" d="M38.06,28.695c.062.409-.118.9.258,1.288C38.318,29.983,37.514,32.726,38.06,28.695Z" transform="translate(-18.947 -17.838)" fill="#12263f"/>
      <path id="Trazado_1034219" data-name="Trazado 1034219" d="M19.635,10.857c-.546,4.031-3.92,8.2-7.89,8.8C6.582,20.425,1.329,17.07.862,11.425.424,6.115,3.366.759,8.753.074a9.662,9.662,0,0,1,10.535,7.6c.23,1.048.2,2.19.348,3.185m-1.428-.991a8.229,8.229,0,0,0-8.05-8.4,8.229,8.229,0,0,0-8.05,8.4,8.229,8.229,0,0,0,8.05,8.4,8.229,8.229,0,0,0,8.05-8.4" transform="translate(-0.522 0)" fill="#12263f"/>
      <path id="Trazado_1034220" data-name="Trazado 1034220" d="M91.255,73.918H81.188c.282-.47,1.032-.284,1.492-.289,2.356-.026,4.726-.031,7.082,0,.46.006,1.21-.182,1.492.289" transform="translate(-51.736 -45.75)" fill="#12263f"/>
      <path id="Trazado_1034221" data-name="Trazado 1034221" d="M13.46,109.918c-2.912.335-6.731-.453-9.522,0,.282-.47,1.032-.284,1.492-.289,2.175-.024,4.363-.028,6.538,0,.46.006,1.21-.182,1.492.289" transform="translate(-2.509 -68.129)" fill="#12263f"/>
      <path id="Trazado_1034239" data-name="Trazado 1034239" d="M21.555,12.4c.106.118,3.373-.388,2.19,1-.961,1.131-6.528-.77-4.184,2.353,1.811-.2,4.685.184,4.441,2.714-.226,2.342-2.268,1.987-2.43,2.172-.079.089.1,2.182-.964,1.969-.482-.1-.445-1.279-.411-1.7-1.043-.011-2.33.266-2.7-1,.725-1.485,5.639.249,5.119-1.927-.279-1.165-2.222-.642-3.085-.779a2.462,2.462,0,0,1-1.256-4.118c.93-.935,2.321-.361,1.923-2.4l1.241.268Z" transform="translate(-11.149 -6.645)" fill="#12263f"/>
    </g>
  </g>
</svg>
