<svg xmlns="http://www.w3.org/2000/svg" width="82" height="82" viewBox="0 0 82 82">
  <g id="Grupo_1202215" data-name="Grupo 1202215" transform="translate(-759.835 -1718)">
    <rect id="Rectángulo_409883" data-name="Rectángulo 409883" width="82" height="82" transform="translate(759.835 1718)" fill="none"/>
    <g id="Grupo_1202214" data-name="Grupo 1202214" transform="translate(773.835 1728.323)">
      <path id="Trazado_1036395" data-name="Trazado 1036395" d="M14.291,55.732a12.074,12.074,0,0,1,12.709,0,12.074,12.074,0,0,1,12.709,0A12.07,12.07,0,0,1,54,56.9V6.5l-.657-.474a12.427,12.427,0,0,0-13.634-.605A12.423,12.423,0,0,0,27,5.426a12.423,12.423,0,0,0-12.709,0A12.427,12.427,0,0,0,.657,6.031L0,6.5V56.9a12.07,12.07,0,0,1,14.291-1.17ZM25.418,36.216a12.425,12.425,0,0,0-9.545,0V21.554a9.266,9.266,0,0,1,9.545,0ZM15.873,51.785V39.751a9.266,9.266,0,0,1,9.545,0V51.786A12.427,12.427,0,0,0,15.873,51.785Zm12.709,0V30.275a9.266,9.266,0,0,1,9.545,0v21.51A12.427,12.427,0,0,0,28.582,51.786ZM50.836,36.216a12.425,12.425,0,0,0-9.545,0V21.554a9.266,9.266,0,0,1,9.545,0ZM46.063,50.832a12.421,12.421,0,0,0-4.772.953V39.751a9.266,9.266,0,0,1,9.545,0V51.785A12.419,12.419,0,0,0,46.063,50.832ZM50.836,8.165v9.855a12.425,12.425,0,0,0-9.545,0V8.165A9.267,9.267,0,0,1,50.836,8.165Zm-12.709,0V26.74a12.425,12.425,0,0,0-9.545,0V8.165A9.267,9.267,0,0,1,38.127,8.165Zm-12.709,0v9.855a12.425,12.425,0,0,0-9.545,0V8.165A9.267,9.267,0,0,1,25.418,8.165Zm-12.709,0V26.74a12.425,12.425,0,0,0-9.545,0V8.165A9.267,9.267,0,0,1,12.709,8.165ZM3.164,30.275a9.266,9.266,0,0,1,9.545,0v21.51a12.427,12.427,0,0,0-9.545,0Z"/>
    </g>
  </g>
</svg>
