<svg xmlns="http://www.w3.org/2000/svg" width="63" height="63" viewBox="0 0 63 63">
  <g id="Grupo_1202333" data-name="Grupo 1202333" transform="translate(-620.835 -9619)">
    <circle id="Elipse_12376" data-name="Elipse 12376" cx="31.5" cy="31.5" r="31.5" transform="translate(620.835 9619)" fill="#26c790"/>
    <g id="Grupo_1202332" data-name="Grupo 1202332" transform="translate(570.489 9626)">
      <g id="Grupo_1202331" data-name="Grupo 1202331" transform="translate(63.346 0)">
        <path id="Trazado_1036534" data-name="Trazado 1036534" d="M81.785,10.6c7.567,0,14.343,5.769,16.111,13.716l.025.113a.957.957,0,1,0,1.871-.4l-.027-.123a20.167,20.167,0,0,0-6.374-10.733,18.9,18.9,0,0,0-1.867-1.437l1.1-3.715a3.986,3.986,0,0,0-.581-3.465,3.866,3.866,0,0,0-2.989-1.636q-.091,0-.183,0a4.007,4.007,0,0,0-2.3.722,4.969,4.969,0,0,0-9.571,0,4.022,4.022,0,0,0-2.482-.717A3.865,3.865,0,0,0,71.53,4.55a3.986,3.986,0,0,0-.581,3.465l1.1,3.707a19.489,19.489,0,0,0-3.321,2.857,20.021,20.021,0,0,0-5.377,13.476,15.073,15.073,0,0,0,5.467,12.01,18.3,18.3,0,0,0,7.171,3.548,5.817,5.817,0,0,0,11.6,0,19.11,19.11,0,0,0,5.234-2.173,15.032,15.032,0,0,0,6.63-8.275l.038-.119a.957.957,0,0,0-1.827-.571l-.033.1c-1.954,6.06-8.024,9.825-15.843,9.825-8.225,0-16.525-4.438-16.525-14.354,0-9.3,7.722-17.455,16.525-17.455Zm-9-3.127a2.084,2.084,0,0,1,.3-1.811A1.963,1.963,0,0,1,74.6,4.826l.1,0A2.118,2.118,0,0,1,76.817,6.94a.957.957,0,0,0,1.914,0V4.969a3.055,3.055,0,1,1,6.109,0V6.94a.957.957,0,0,0,1.914,0A2.118,2.118,0,0,1,88.87,4.823l.1,0a1.963,1.963,0,0,1,1.515.835,2.084,2.084,0,0,1,.3,1.811l-.959,3.242A17,17,0,0,0,73.739,10.7ZM85.6,44.026a3.9,3.9,0,0,1-7.623,0,24.637,24.637,0,0,0,7.623,0Z" transform="translate(-63.346 0)"/>
        <g id="Grupo_1202318" data-name="Grupo 1202318" transform="translate(34.963 27.517)">
          <g id="Grupo_1202317" data-name="Grupo 1202317">
            <g id="Grupo_1202316" data-name="Grupo 1202316">
              <g id="Grupo_1202315" data-name="Grupo 1202315">
                <path id="Trazado_1036535" data-name="Trazado 1036535" d="M429.631,289.441a.957.957,0,1,1,.938-.77A.967.967,0,0,1,429.631,289.441Z" transform="translate(-428.675 -287.529)"/>
              </g>
            </g>
          </g>
        </g>
        <g id="Grupo_1202321" data-name="Grupo 1202321" transform="translate(13.198 24.653)">
          <g id="Grupo_1202320" data-name="Grupo 1202320">
            <g id="Grupo_1202319" data-name="Grupo 1202319">
              <path id="Trazado_1036536" data-name="Trazado 1036536" d="M206.495,270.026a.957.957,0,0,1-.785-.41l-4.284-6.144a.957.957,0,0,1,.1-1.217l4.284-4.369a.957.957,0,0,1,1.367,0l4.284,4.369a.957.957,0,0,1,.1,1.217l-4.284,6.144A.957.957,0,0,1,206.495,270.026Zm-3.045-7,3.045,4.367,3.045-4.367-3.045-3.106Z" transform="translate(-201.253 -257.599)"/>
            </g>
          </g>
        </g>
        <g id="Grupo_1202330" data-name="Grupo 1202330" transform="translate(9.45 22.473)">
          <g id="Grupo_1202325" data-name="Grupo 1202325" transform="translate(13.388)">
            <g id="Grupo_1202324" data-name="Grupo 1202324">
              <g id="Grupo_1202323" data-name="Grupo 1202323">
                <g id="Grupo_1202322" data-name="Grupo 1202322">
                  <path id="Trazado_1036537" data-name="Trazado 1036537" d="M302.26,235.66a2.866,2.866,0,0,1,4.049,0,.957.957,0,0,1-1.353,1.353.95.95,0,0,0-1.342,0,.957.957,0,0,1-1.354-1.353Z" transform="translate(-301.979 -234.823)"/>
                </g>
              </g>
            </g>
          </g>
          <g id="Grupo_1202329" data-name="Grupo 1202329" transform="translate(0 0)">
            <g id="Grupo_1202328" data-name="Grupo 1202328">
              <g id="Grupo_1202327" data-name="Grupo 1202327">
                <g id="Grupo_1202326" data-name="Grupo 1202326">
                  <path id="Trazado_1036538" data-name="Trazado 1036538" d="M166.415,235.661a.957.957,0,0,1-1.353,1.353.95.95,0,0,0-1.342,0,.957.957,0,0,1-1.353-1.353,2.866,2.866,0,0,1,4.049,0Z" transform="translate(-162.085 -234.823)"/>
                </g>
              </g>
            </g>
          </g>
        </g>
      </g>
    </g>
  </g>
</svg>
