<svg xmlns="http://www.w3.org/2000/svg" width="100" height="100" viewBox="0 0 100 100">
  <g id="Grupo_1202270" data-name="Grupo 1202270" transform="translate(-593.051 -11435.342)">
    <rect id="Rectángulo_409791" data-name="Rectángulo 409791" width="100" height="100" transform="translate(593.051 11435.342)" fill="none"/>
    <g id="Grupo_1202269" data-name="Grupo 1202269" transform="translate(602.935 11447.161)">
      <path id="Trazado_1036562" data-name="Trazado 1036562" d="M62.359,22.261V21.187a1.263,1.263,0,1,1,2.525,0v1.073a1.263,1.263,0,1,1-2.525,0ZM43.332,36.982c.783.859,1.6,1.73,1.528,2.992-.051,1.01-.644,1.944-1.919,3.055-.038.038-.076.063-.114.1a6.054,6.054,0,0,1-3.485,1.136A11.11,11.11,0,0,1,34.733,42.9a10.809,10.809,0,0,0-3.977-1.263c-.29-.013-1.679.152-2.172.227a3.991,3.991,0,0,1-4.722-2.538,4.674,4.674,0,0,1,2.7-5.555A7.441,7.441,0,0,0,29.708,31c.9-1.275,1.818-2.6,5.366-3.333a5.273,5.273,0,0,1,4.318,1.1,4.733,4.733,0,0,1,1.831,3.624,6.357,6.357,0,0,0,2.109,4.6Zm-1,2.853c0-.189-.492-.745-.859-1.136A8.788,8.788,0,0,1,38.7,32.424a2.219,2.219,0,0,0-.9-1.7,2.664,2.664,0,0,0-2.222-.568c-2.563.518-3.055,1.225-3.8,2.3a9.84,9.84,0,0,1-4.066,3.561,2.254,2.254,0,0,0-1.452,2.538c.227.682.934.985,1.932.821.328-.051,1.894-.253,2.563-.253a.247.247,0,0,1,.088.013,12.611,12.611,0,0,1,4.949,1.477c2.348,1.1,3.763,1.654,5.543.48.96-.846,1-1.2,1-1.25Zm33.9,8.447A12.616,12.616,0,0,1,54.783,57.3v9.343A1.266,1.266,0,0,1,53.521,67.9H43.42a1.266,1.266,0,0,1-1.263-1.263V53.27a4.121,4.121,0,0,0-.972-3.131c-1.414-1.326-4.608-1.111-7.98-.9-1.452.1-2.942.2-4.432.189a18.283,18.283,0,0,1-2.008-.164c-1.78,2.828-3.674,4.7-7.058,5.732a10.329,10.329,0,0,0-.278,2.247v9.394A1.266,1.266,0,0,1,18.168,67.9H8.067A1.266,1.266,0,0,1,6.8,66.641V59.356A33.728,33.728,0,0,0,6.06,52.2c-.505-2.361-.96-4.305-1.364-6-.543-2.336-.972-4.179-1.275-5.909C2.348,34,3.27,28.258,5.946,24.533a11.478,11.478,0,0,1,7.879-4.709,62.345,62.345,0,0,1,13.017-.707c1.528.038,3.156.076,5.126.076a14.585,14.585,0,0,0,3.813-.859,22.16,22.16,0,0,1,4.874-1.1,30.319,30.319,0,0,1,7.563.467,9.1,9.1,0,0,0,2.449.215,11.144,11.144,0,0,1-1.364-5,1.248,1.248,0,0,1,1.023-1.25c.177-.038,4.419-.833,7.235,1.452a.817.817,0,0,0,.114.1,5.856,5.856,0,0,1,2.386-.328,13.679,13.679,0,0,1-.152-3.27A1.288,1.288,0,0,1,61.273,8.46a1.263,1.263,0,0,1,1.162,1.364,11.27,11.27,0,0,0,.354,3.775c.177.088.379.2.568.3a14.231,14.231,0,0,1,2.727-3.169,1.285,1.285,0,0,1,1.78.139,1.261,1.261,0,0,1-.139,1.78A11.545,11.545,0,0,0,65.5,15.228a113.906,113.906,0,0,1,9.166,7.4,5.066,5.066,0,0,1,1.237,5.5l-.985,2.588a3.756,3.756,0,0,1-3.914,2.412,16.105,16.105,0,0,1-2.487-.505c-2.172-.543-4.419-1.111-6.225.341-.455.366-.72,1.578-.934,2.891a13.165,13.165,0,0,1,2.247-.2A12.647,12.647,0,0,1,76.235,48.283ZM41.577,19.723c.669,1.061,2.02,2.235,5.278,4.053,2.184,1.225,3.207,3.321,4.129,5.53a10.163,10.163,0,0,0,6.2,5.707c.581.189,1.136.379,1.667.581.328-1.97.694-3.662,1.856-4.6,2.79-2.235,6.06-1.414,8.434-.821a15.6,15.6,0,0,0,2.121.442,1.214,1.214,0,0,0,1.3-.783l1-2.6a2.564,2.564,0,0,0-.631-2.778,109.537,109.537,0,0,0-8.586-6.944,3.662,3.662,0,0,0-.164.492,1.269,1.269,0,0,1-1.225.922,1.542,1.542,0,0,1-.328-.038,1.273,1.273,0,0,1-.909-1.263,1.053,1.053,0,0,1-.2-.265,11.262,11.262,0,0,1-.8-1.818,4.014,4.014,0,0,0-1.1-.152,6.317,6.317,0,0,1,.4.606,1.261,1.261,0,0,1-2.2,1.237,7.042,7.042,0,0,0-1.275-1.629c-.177-.164-.354-.341-.568-.518a6.274,6.274,0,0,0-4.028-1.061,6.455,6.455,0,0,0,1.578,3.5,1.246,1.246,0,0,0,.227.227,8.219,8.219,0,0,0,2.386,1.376,1.261,1.261,0,0,1-.417,2.449,1.212,1.212,0,0,1-.417-.076,10.408,10.408,0,0,1-2.828-1.553c-.063.038-.114.063-.189.1-1.439.644-2.79.417-4.495.139a27.8,27.8,0,0,0-6.225-.467Zm-30.353,19.6a20.789,20.789,0,0,0,1.667-2.8,25.217,25.217,0,0,1,1.78-2.992,13.338,13.338,0,0,1,5.745-4.533c.3-.126.619-.24.922-.354a11.55,11.55,0,0,0,1.427-.593,7.076,7.076,0,0,0,3.182-4.406,14.213,14.213,0,0,0,.379-2.008,58.089,58.089,0,0,0-12.121.694A9.042,9.042,0,0,0,7.992,26.01c-2.285,3.182-3.043,8.22-2.071,13.851.152.884.341,1.818.568,2.841a10.06,10.06,0,0,0,4.735-3.384Zm5.8,16.262c-.808.126-1.679.227-2.639.29v9.507h2.525V57.247A14.781,14.781,0,0,1,17.019,55.58ZM24,48.876c-.278-.051-.543-.088-.821-.139a27.7,27.7,0,0,0-4.848-.568c-2.651.265-3.927,1.124-3.952,5.177,5.341-.379,7.639-1.73,9.621-4.47Zm23.207,7.967c.215-4.179,1.7-5.757,3.813-7.664-.025-.3-.051-.593-.051-.9A12.659,12.659,0,0,1,56.9,37.589c-.164-.063-.341-.126-.518-.177a12.644,12.644,0,0,1-7.74-7.121c-.783-1.869-1.553-3.485-3.043-4.318-3.939-2.2-5.757-3.763-6.679-5.9-.808.189-1.616.429-2.412.669a16.7,16.7,0,0,1-4.558.972c-1.124,0-2.146,0-3.119-.025a14.512,14.512,0,0,1-.48,2.626,9.481,9.481,0,0,1-4.406,5.934,11.69,11.69,0,0,1-1.755.758c-.278.1-.556.2-.821.316a10.827,10.827,0,0,0-4.659,3.662,22.6,22.6,0,0,0-1.6,2.715,23.117,23.117,0,0,1-1.881,3.131,12.517,12.517,0,0,1-6.187,4.343c.038.152.063.29.1.455.4,1.692.859,3.649,1.376,6.035a36.253,36.253,0,0,1,.8,7.689v6.023h2.525V53.459c0-5.025,1.856-7.361,6.225-7.8a25.563,25.563,0,0,1,5.5.593,42.329,42.329,0,0,0,5.215.657c1.389,0,2.841-.088,4.23-.177,3.939-.265,7.664-.505,9.886,1.578a6.391,6.391,0,0,1,1.768,4.975v12.1H47.2V56.843Zm5.05-3.068a15.214,15.214,0,0,1-.669-1.629,6.485,6.485,0,0,0-1.856,4.76v8.472h2.525ZM73.71,48.283a10.1,10.1,0,1,0-10.1,10.1A10.114,10.114,0,0,0,73.71,48.283Zm-6.363-3.737a1.257,1.257,0,0,0-1.78,0L63.622,46.49l-1.944-1.944a1.259,1.259,0,1,0-1.78,1.78l1.944,1.944L59.9,50.214a1.257,1.257,0,0,0,0,1.78,1.24,1.24,0,0,0,.9.366,1.293,1.293,0,0,0,.9-.366l1.944-1.944,1.944,1.944a1.24,1.24,0,0,0,.9.366,1.293,1.293,0,0,0,.9-.366,1.257,1.257,0,0,0,0-1.78L65.427,48.27l1.944-1.944a1.257,1.257,0,0,0,0-1.78Z" transform="translate(0)"/>
    </g>
  </g>
</svg>
