<svg xmlns="http://www.w3.org/2000/svg" width="80" height="80" viewBox="0 0 80 80">
  <g id="Grupo_1202637" data-name="Grupo 1202637" transform="translate(-9732 10585)">
    <rect id="Rectángulo_409950" data-name="Rectángulo 409950" width="80" height="80" transform="translate(9732 -10585)" fill="none"/>
    <g id="Grupo_1202636" data-name="Grupo 1202636" transform="translate(9735 -10600.117)">
      <path id="Trazado_1037177" data-name="Trazado 1037177" d="M418.879,334.674a1.079,1.079,0,1,0,0-2.158h-.64a1.079,1.079,0,1,0,0,2.158Z" transform="translate(-357.147 -266.601)"/>
      <path id="Trazado_1037178" data-name="Trazado 1037178" d="M70.468,332.517a1.079,1.079,0,1,0,0,2.158h.64a1.079,1.079,0,0,0,0-2.158Z" transform="translate(-59.407 -266.602)"/>
      <path id="Trazado_1037179" data-name="Trazado 1037179" d="M226.106,176.873a1.079,1.079,0,0,0-1.079,1.079v1.818a1.079,1.079,0,0,0,2.158,0v-1.818A1.079,1.079,0,0,0,226.106,176.873Z" transform="translate(-192.655 -133.349)"/>
      <path id="Trazado_1037180" data-name="Trazado 1037180" d="M70.468,176.873a1.079,1.079,0,0,0-1.079,1.079v.973a1.079,1.079,0,1,0,2.158,0v-.973A1.079,1.079,0,0,0,70.468,176.873Z" transform="translate(-59.407 -133.349)"/>
      <path id="Trazado_1037181" data-name="Trazado 1037181" d="M122.8,183.821a1.079,1.079,0,0,0,1.079-1.079v-.8a1.079,1.079,0,0,0-2.158,0v.8A1.079,1.079,0,0,0,122.8,183.821Z" transform="translate(-104.21 -136.769)"/>
      <path id="Trazado_1037182" data-name="Trazado 1037182" d="M370.637,176.873a1.079,1.079,0,0,0-1.079,1.079v.486a1.079,1.079,0,1,0,2.158,0v-.486A1.079,1.079,0,0,0,370.637,176.873Z" transform="translate(-316.393 -133.349)"/>
      <path id="Trazado_1037183" data-name="Trazado 1037183" d="M420.463,179.274a1.079,1.079,0,0,0,1.079-1.079v-.243a1.079,1.079,0,0,0-2.158,0v.243A1.079,1.079,0,0,0,420.463,179.274Z" transform="translate(-359.051 -133.349)"/>
      <path id="Trazado_1037184" data-name="Trazado 1037184" d="M73.544,54.859a1.617,1.617,0,0,0-1.654-1.034,11.935,11.935,0,0,0-1.633.256V24.768a3.654,3.654,0,0,0-3.65-3.65H21.435a1.079,1.079,0,1,0,0,2.158H66.608A1.494,1.494,0,0,1,68.1,24.768V28.31H4.692V24.768a1.494,1.494,0,0,1,1.493-1.493H16.4a1.079,1.079,0,0,0,0-2.158H6.185a3.655,3.655,0,0,0-3.65,3.65V54.786q-.213-.069-.431-.136a1.623,1.623,0,0,0-1.866.722,1.6,1.6,0,0,0,.244,1.98,6.772,6.772,0,0,1,2.054,4.86V86.755A1.944,1.944,0,0,0,4.476,88.7H8.427a1.944,1.944,0,0,0,1.942-1.942V80.2l8.566-7.343H35.369a1.079,1.079,0,0,0,0-2.158H4.692V63.291H24.709a13.014,13.014,0,0,0-.361,1.7,1.529,1.529,0,0,0,2.588,1.3,25.352,25.352,0,0,1,3.838-3H53.381a23.535,23.535,0,0,1,3.089,3.51,1.492,1.492,0,0,0,2.721-.773,12.565,12.565,0,0,0-.178-2.737H68.1V70.7H40.4a1.079,1.079,0,0,0,0,2.158H53.858L62.424,80.2v6.557A1.944,1.944,0,0,0,64.365,88.7h3.951a1.944,1.944,0,0,0,1.942-1.942V62.212a6.954,6.954,0,0,1,2.765-5.481,1.609,1.609,0,0,0,.521-1.871Zm-7.27.7q-.15-1.826-.3-3.654a1.33,1.33,0,0,0-.126-.458V30.468H68.1v24.28Q67.213,55.091,66.274,55.559ZM58.255,49.25c-.947.57-2,1.155-3.012,1.721-.786.438-1.593.888-2.368,1.34L50.194,47.3a1.478,1.478,0,0,0-.321-.407V41.278l.886.857a2.327,2.327,0,0,0,1.617.654q.1,0,.2-.009a2.327,2.327,0,0,0,1.681-.954l2.6-3.592,2.168,2.06a3.307,3.307,0,0,0,4.176.3l.49-.347V51.116a1.33,1.33,0,0,0-.1.114L61.47,54.113,60.2,49.987a1.321,1.321,0,0,0-1.943-.737ZM38.338,53.295,37.273,51a1.483,1.483,0,0,0-2.5-.315l-1.544,1.9-1.949-3.627a1.524,1.524,0,0,0-1.8-.736V38.849l1.287-.829,1.815,2.128a3.291,3.291,0,0,0,3.981.81l1.568-.782,1.372,1.3a3.309,3.309,0,0,0,2.271.9c.076,0,.153,0,.229-.008a3.3,3.3,0,0,0,1.3-.368v6.872l-.091-.1a1.479,1.479,0,0,0-2.357.253ZM16.65,50.975a1.431,1.431,0,0,0-1.614.348l-2.064,2.212a19.131,19.131,0,0,1,0-2.752,1.446,1.446,0,0,0-2.316-1.262c-.536.4-1.055.84-1.554,1.3V40.335l1.987-1.44,3.395,2.255a2.148,2.148,0,0,0,2.375.005l1.385-.913,1.792,1.7a3.279,3.279,0,0,0,2.886.848v5.9a1.456,1.456,0,0,0-1.371.433L17.49,53.5l.047-1.133a1.433,1.433,0,0,0-.887-1.4ZM22.92,40.51a1.137,1.137,0,0,1-1.4-.132l-1.792-1.7a2.148,2.148,0,0,0-2.666-.238l-1.385.914-3.615-2.4a1.794,1.794,0,0,0-2.026.042L9.1,37.67v-7.2H22.92V40.51Zm2.158-10.042h2.251V50.82l-2,2.974-.25-.776ZM43.307,39l-.635.8a1.141,1.141,0,0,1-1.677.119l-1.563-1.484a1.788,1.788,0,0,0-2.019-.3l-1.806.9a1.137,1.137,0,0,1-1.375-.281l-1.9-2.221a2.022,2.022,0,0,0-2.624-.388l-.224.144V30.468h13.82V39Zm2.158-8.527h2.25V47.105a1.48,1.48,0,0,0-.235.45l-1.363,4.354-.651-.7ZM63.692,37.6l-1.736,1.229a1.144,1.144,0,0,1-1.443-.1L58.171,36.5a1.949,1.949,0,0,0-2.921.272l-2.737,3.784a.169.169,0,0,1-.255.023l-2.386-2.307V30.468h13.82V37.6Zm-59-7.136h2.25V53.112a18.7,18.7,0,0,0-1.834,2.7c-.136-.066-.275-.13-.416-.194Zm5.677,46.887v-4.5H15.62Zm-2.158-4.5V86.539H4.692V72.854Zm48.962,0h5.25v4.5Zm7.408,13.685V72.854H68.1V86.539Zm3.584-25.406H58.433a7.7,7.7,0,0,0-1.968-3.048,1.079,1.079,0,0,0-1.441,1.606,7.447,7.447,0,0,1,1.915,4.2,23.321,23.321,0,0,0-6.044-5.16,1.079,1.079,0,0,0-1,1.912c.265.139.542.3.825.491H34.963c.1-.035.2-.068.3-.1a1.079,1.079,0,0,0-.622-2.066,26.136,26.136,0,0,0-7.722,4.457,8.174,8.174,0,0,1,3.036-4.448,1.079,1.079,0,0,0-1.113-1.849,9.153,9.153,0,0,0-3.332,4H4.625a8.9,8.9,0,0,0-1.39-3.8,15.45,15.45,0,0,1,1.485.7,1.46,1.46,0,0,0,1.135.109,1.443,1.443,0,0,0,.852-.735,17.655,17.655,0,0,1,4.057-5.186,21.632,21.632,0,0,0,.244,3.154,1.446,1.446,0,0,0,2.487.765L15.3,54.2l-.063,1.512a1.311,1.311,0,0,0,2.272.943l4.8-5.183,1.4,4.355a1.457,1.457,0,0,0,2.6.367l3.563-5.3,1.9,3.531a1.535,1.535,0,0,0,2.543.24l1.453-1.786,1.182,2.543a1.446,1.446,0,0,0,2.557.128l2.746-4.643,3.014,3.253a1.531,1.531,0,0,0,2.585-.583l1.2-3.84,2.3,4.292a1.39,1.39,0,0,0,1.944.533c.943-.568,1.988-1.15,3-1.714.715-.4,1.446-.806,2.155-1.216L59.855,56.2a1.392,1.392,0,0,0,2.45.415l1.7-2.309c.055.678.193,2.352.193,2.352a1.542,1.542,0,0,0,2.272,1.23,17.52,17.52,0,0,1,3.9-1.616,8.907,8.907,0,0,0-2.207,4.86Z" transform="translate(0)"/>
    </g>
  </g>
</svg>
