<svg xmlns="http://www.w3.org/2000/svg" width="82" height="82" viewBox="0 0 82 82">
  <g id="Grupo_1202216" data-name="Grupo 1202216" transform="translate(-1074.835 -1718)">
    <rect id="Rectángulo_409884" data-name="Rectángulo 409884" width="82" height="82" transform="translate(1074.835 1718)" fill="none"/>
    <path id="Trazado_1036396" data-name="Trazado 1036396" d="M53.209,0H43.53a.791.791,0,0,0,0,1.582h8.888V7.488H36.527V1.582h4.34a.791.791,0,0,0,0-1.582H.791A.791.791,0,0,0,0,.791V49.3a.791.791,0,0,0,1.582,0V46.512H17.473v5.906H1.582v-.453a.791.791,0,0,0-1.582,0v1.244A.791.791,0,0,0,.791,54H53.209A.791.791,0,0,0,54,53.209v-32.2a.791.791,0,1,0-1.582,0v1.459H36.527V16.559H52.418v1.784a.791.791,0,0,0,1.582,0V.791A.791.791,0,0,0,53.209,0ZM41.977,9.07v5.906H26.087V9.07ZM8.614,14.977V9.07H24.5v5.906Zm43.8,16.559v5.906H36.527V31.535ZM26.087,44.93V39.023H41.977V44.93Zm17.473-5.906h8.859V44.93H43.559Zm-8.614-1.582H19.055V31.535H34.945Zm-33.363,0V31.535H17.473v5.906Zm5.45-22.465H1.582V9.07h5.45Zm0,14.977H1.582V24.047h5.45Zm17.473,0H8.614V24.047H24.5ZM1.582,22.465V16.559H17.473v5.906ZM34.945,7.488H19.055V1.582H34.945ZM1.582,1.582H17.473V7.488H1.582Zm0,37.441h5.45V44.93H1.582ZM8.614,44.93V39.023H24.5V44.93Zm10.441,1.582H34.945v5.906H19.055Zm33.363,5.906H36.527V46.512H52.418Zm0-22.465H43.559V24.047h8.859ZM41.977,24.047v5.906H26.087V24.047Zm-7.032-1.582H19.055V16.559H34.945Zm8.614-7.488V9.07h8.859v5.906Z" transform="translate(1088.835 1732)"/>
  </g>
</svg>
