<svg xmlns="http://www.w3.org/2000/svg" width="100" height="100" viewBox="0 0 100 100">
  <g id="Grupo_1202272" data-name="Grupo 1202272" transform="translate(-908.051 -11435)">
    <rect id="Rectángulo_409793" data-name="Rectángulo 409793" width="100" height="100" transform="translate(908.051 11435)" fill="none"/>
    <g id="Grupo_1202271" data-name="Grupo 1202271" transform="translate(898.865 11444)">
      <path id="Trazado_1036563" data-name="Trazado 1036563" d="M40.11,14.209a1.2,1.2,0,0,0,1.2-1.2V3.751a1.358,1.358,0,0,1,1.357-1.357h50.9a1.2,1.2,0,0,0,0-2.395h-50.9a3.756,3.756,0,0,0-3.751,3.751v9.261A1.2,1.2,0,0,0,40.11,14.209Z" transform="translate(-14.897)"/>
      <path id="Trazado_1036564" data-name="Trazado 1036564" d="M219.092,252.369V239.092a2.34,2.34,0,0,0-.921-1.87,2.381,2.381,0,0,0-2.081-.412c-1.652.441-3.182-.311-4.8-1.107-2.4-1.179-5.385-2.646-8.824.367a2.355,2.355,0,0,0-.8,1.773v14.525a2.37,2.37,0,0,0,2.368,2.368h12.69A2.37,2.37,0,0,0,219.092,252.369Zm-2.395-.027H204.062V237.856c2.125-1.85,3.655-1.239,6.172,0,1.85.909,3.946,1.939,6.465,1.275v13.215Z" transform="translate(-151.67 -196.888)"/>
      <path id="Trazado_1036565" data-name="Trazado 1036565" d="M375.515,334.591a1.2,1.2,0,0,0-1.2-1.2H371.68a1.2,1.2,0,1,0,0,2.395h2.637A1.2,1.2,0,0,0,375.515,334.591Z" transform="translate(-293.536 -280.172)"/>
      <path id="Trazado_1036566" data-name="Trazado 1036566" d="M428.332,334.591a1.2,1.2,0,0,0-1.2-1.2H424.5a1.2,1.2,0,0,0,0,2.395h2.637A1.2,1.2,0,0,0,428.332,334.591Z" transform="translate(-337.922 -280.172)"/>
      <path id="Trazado_1036567" data-name="Trazado 1036567" d="M378.7,363.862h8.829a1.2,1.2,0,0,0,0-2.395H378.7a1.2,1.2,0,0,0,0,2.395Z" transform="translate(-299.431 -303.764)"/>
      <path id="Trazado_1036568" data-name="Trazado 1036568" d="M95.037,106.309H86.826V95.481h.37a2.3,2.3,0,0,0,2.293-2.293v-1.77h2.731a2.307,2.307,0,0,0,2.3-2.3V85.286a1.2,1.2,0,1,0-2.395,0v3.738h-16.9V77.6h16.9v3.051a1.2,1.2,0,1,0,2.395,0V77.515a2.307,2.307,0,0,0-2.3-2.3H76.7V53.526a8.377,8.377,0,0,0-6.629-8.217,52.965,52.965,0,0,0-8.008-1.139V34.395H78.668a1.2,1.2,0,1,0,0-2.395H61.583a1.917,1.917,0,0,0-1.915,1.915V44.07q-.958-.018-1.916,0V33.915A1.917,1.917,0,0,0,55.838,32h-24.8a1.917,1.917,0,0,0-1.915,1.915V67.758a1.917,1.917,0,0,0,1.915,1.915H40.72v2.714H27.767A1.358,1.358,0,0,1,26.41,71.03v-26.5a1.2,1.2,0,1,0-2.395,0v26.5a3.756,3.756,0,0,0,3.751,3.751H40.72V89.635A8.415,8.415,0,0,0,44.2,96.448l-2.986,9.862H22.383a1.2,1.2,0,1,0,0,2.395H95.037a1.2,1.2,0,1,0,0-2.395ZM87.095,91.418v1.668c-8.5,0,1.774,0-6.832,0V91.418ZM76.211,106.309l-2.983-9.854a8.338,8.338,0,0,0,3.283-5.037h1.357v1.77a2.3,2.3,0,0,0,2.293,2.293h.37v10.828h-4.32ZM31.519,67.278V34.395H55.358V44.17a52.987,52.987,0,0,0-8.1,1.16,8.432,8.432,0,0,0-6.534,8.2V67.278Zm11.6,22.357V53.526a6.022,6.022,0,0,1,4.66-5.858,49.977,49.977,0,0,1,21.78-.02,6,6,0,0,1,4.751,5.879V75.366a2.308,2.308,0,0,0-1.473,2.149v11.6a2.307,2.307,0,0,0,1.275,2.061,5.956,5.956,0,0,1-4.267,4.27,43.224,43.224,0,0,1-22.26,0,6.006,6.006,0,0,1-4.466-5.811ZM58.71,99.3a45.48,45.48,0,0,0,8.039-.719l2.8,7.73H47.873l2.8-7.73A45.48,45.48,0,0,0,58.71,99.3Zm-15,7.011,2.645-8.735q.3.1.615.187.664.175,1.33.33l-2.975,8.218H43.712Zm28.383,0L69.12,98.091q.665-.155,1.33-.33.313-.082.615-.187l2.645,8.735Zm10.831,0V95.481h1.507v10.828Z" transform="translate(0 -26.892)"/>
      <path id="Trazado_1036569" data-name="Trazado 1036569" d="M179.39,201.689h3.991a1.2,1.2,0,0,0,0-2.395H179.39a.017.017,0,0,1-.017-.017v-30.26a.017.017,0,0,1,.017-.017h20.485a.017.017,0,0,1,.017.017v30.26a.017.017,0,0,1-.017.017H188.01a1.2,1.2,0,0,0,0,2.395h11.864a2.414,2.414,0,0,0,2.412-2.412v-30.26a2.414,2.414,0,0,0-2.412-2.412H179.39a2.414,2.414,0,0,0-2.412,2.412v30.26A2.414,2.414,0,0,0,179.39,201.689Z" transform="translate(-130.922 -140.009)"/>
      <path id="Trazado_1036570" data-name="Trazado 1036570" d="M246.2,138.174h1.2a1.2,1.2,0,0,0,0-2.395h-1.2a1.2,1.2,0,1,0,0,2.395Z" transform="translate(-188.087 -114.104)"/>
    </g>
  </g>
</svg>
