<svg xmlns="http://www.w3.org/2000/svg" width="82.058" height="82" viewBox="0 0 82.058 82">
  <g id="Grupo_1202347" data-name="Grupo 1202347" transform="translate(-768.835 -6837)">
    <rect id="Rectángulo_409950" data-name="Rectángulo 409950" width="82" height="82" transform="translate(768.835 6837)" fill="none"/>
    <g id="Grupo_1202290" data-name="Grupo 1202290" transform="translate(769.86 6851.35)">
      <path id="Trazado_1036494_-_Contorno" data-name="Trazado 1036494 - Contorno" d="M1420.42,969a.331.331,0,0,1,.236.1l11.247,11.412a.331.331,0,0,1-.236.563h-21.336a.331.331,0,0,1-.248-.55l10.089-11.412a.331.331,0,0,1,.239-.112Zm10.457,11.412-10.443-10.6-9.368,10.6Z" transform="translate(-1402.712 -965.242)"/>
      <path id="Trazado_1036494_-_Contorno_-_Contorno" data-name="Trazado 1036494 - Contorno - Contorno" d="M1420.435,968.4a.951.951,0,0,1,.674.282l11.247,11.412a.946.946,0,0,1-.674,1.61h-21.336a.946.946,0,0,1-.709-1.572l10.089-11.412a.949.949,0,0,1,.683-.319Zm8.987,11.412-8.949-9.081-8.028,9.081Z" transform="translate(-1402.727 -965.257)"/>
      <path id="Rectángulo_409951_-_Contorno" data-name="Rectángulo 409951 - Contorno" d="M-1.669-2H3.458a.331.331,0,0,1,.331.331V30.054a1.852,1.852,0,0,1-1.852,1.852H-.148a1.84,1.84,0,0,1-1.309-.542A1.84,1.84,0,0,1-2,30.054V-1.669A.331.331,0,0,1-1.669-2Zm4.8.662H-1.338V30.054a1.192,1.192,0,0,0,1.19,1.19H1.937a1.192,1.192,0,0,0,1.19-1.19Z" transform="translate(6.724 20.064)"/>
      <path id="Rectángulo_409951_-_Contorno_-_Contorno" data-name="Rectángulo 409951 - Contorno - Contorno" d="M-1.654-2.6H3.473a.947.947,0,0,1,.946.946V30.069a2.467,2.467,0,0,1-2.467,2.467H-.133a2.451,2.451,0,0,1-1.744-.723A2.451,2.451,0,0,1-2.6,30.069V-1.654A.947.947,0,0,1-1.654-2.6ZM2.527-.708H-.708V30.069a.576.576,0,0,0,.575.575H1.952a.576.576,0,0,0,.575-.575Z" transform="translate(6.709 20.049)"/>
      <path id="Rectángulo_409952_-_Contorno" data-name="Rectángulo 409952 - Contorno" d="M-1.669-2H3.458a.331.331,0,0,1,.331.331V30.054a1.852,1.852,0,0,1-1.852,1.852H-.148a1.84,1.84,0,0,1-1.309-.542A1.84,1.84,0,0,1-2,30.054V-1.669A.331.331,0,0,1-1.669-2Zm4.8.662H-1.338V30.054a1.192,1.192,0,0,0,1.19,1.19H1.937a1.192,1.192,0,0,0,1.19-1.19Z" transform="translate(35.336 20.147)"/>
      <path id="Rectángulo_409952_-_Contorno_-_Contorno" data-name="Rectángulo 409952 - Contorno - Contorno" d="M-1.654-2.6H3.473a.947.947,0,0,1,.946.946V30.069a2.467,2.467,0,0,1-2.467,2.467H-.133a2.451,2.451,0,0,1-1.744-.723A2.451,2.451,0,0,1-2.6,30.069V-1.654A.947.947,0,0,1-1.654-2.6ZM2.527-.708H-.708V30.069a.576.576,0,0,0,.575.575H1.952a.576.576,0,0,0,.575-.575Z" transform="translate(35.319 20.132)"/>
      <path id="Rectángulo_409953_-_Contorno" data-name="Rectángulo 409953 - Contorno" d="M-1.669-2H3.458a.331.331,0,0,1,.331.331V30.054a1.852,1.852,0,0,1-1.852,1.852H-.148a1.84,1.84,0,0,1-1.309-.542A1.84,1.84,0,0,1-2,30.054V-1.669A.331.331,0,0,1-1.669-2Zm4.8.662H-1.338V30.054a1.192,1.192,0,0,0,1.19,1.19H1.937a1.192,1.192,0,0,0,1.19-1.19Z" transform="translate(71.542 20.147)"/>
      <path id="Rectángulo_409953_-_Contorno_-_Contorno" data-name="Rectángulo 409953 - Contorno - Contorno" d="M-1.654-2.6H3.473a.947.947,0,0,1,.946.946V30.069a2.467,2.467,0,0,1-2.467,2.467H-.133a2.451,2.451,0,0,1-1.744-.723A2.451,2.451,0,0,1-2.6,30.069V-1.654A.947.947,0,0,1-1.654-2.6ZM2.527-.708H-.708V30.069a.576.576,0,0,0,.575.575H1.952a.576.576,0,0,0,.575-.575Z" transform="translate(71.527 20.132)"/>
      <path id="Trazado_1036495" data-name="Trazado 1036495" d="M1473.517,972.013,1454,952h47.551l15.656,16.3a.935.935,0,0,1-.955,1.539h0a5.894,5.894,0,0,0-5.181.811h0a2.7,2.7,0,0,1-3.146-.02h0a2.089,2.089,0,0,0-3.3-.364l-.176.184a2.754,2.754,0,0,1-3.615.151h0a2.135,2.135,0,0,0-3.254.234l-.163.223a2.425,2.425,0,0,1-3.009.034h0a2.238,2.238,0,0,0-3.559-.235l-.228.263a2.039,2.039,0,0,1-2.917-.034h0a2.815,2.815,0,0,0-4.068,0l-.4.414a1.985,1.985,0,0,1-2.8.063h0a2.824,2.824,0,0,0-4.136.255h0a1.886,1.886,0,0,1-2.452.409Z" transform="translate(-1437.385 -951.054)" fill="#fff"/>
      <path id="Trazado_1036495_-_Contorno" data-name="Trazado 1036495 - Contorno" d="M1474.854,973.13a2.5,2.5,0,0,1-1.315-.375l-.331-.205a.617.617,0,0,1-.117-.094l-19.517-20.013a.615.615,0,0,1,.44-1.044h47.551a.615.615,0,0,1,.443.189l15.656,16.3a1.522,1.522,0,0,1,.312,1.674,1.544,1.544,0,0,1-1.415.953,1.6,1.6,0,0,1-.481-.076,5.279,5.279,0,0,0-4.641.726,3.313,3.313,0,0,1-3.863-.024.615.615,0,0,1-.165-.179,1.474,1.474,0,0,0-2.327-.257l-.176.184-.021.021a3.369,3.369,0,0,1-4.422.185.605.605,0,0,1-.056-.051,1.52,1.52,0,0,0-2.317.166l-.163.224a.616.616,0,0,1-.11.115,3.041,3.041,0,0,1-3.772.043.615.615,0,0,1-.138-.148,1.62,1.62,0,0,0-1.357-.73,1.6,1.6,0,0,0-1.224.56l-.228.263-.03.032a2.654,2.654,0,0,1-3.8-.044,2.2,2.2,0,0,0-3.179,0l-.4.414a2.6,2.6,0,0,1-3.673.082,2.209,2.209,0,0,0-3.235.2A2.493,2.493,0,0,1,1474.854,973.13Zm-.935-1.586.267.165a1.27,1.27,0,0,0,1.652-.276,3.439,3.439,0,0,1,5.036-.31,1.37,1.37,0,0,0,1.936-.043l.4-.414a3.43,3.43,0,0,1,4.957.005,1.424,1.424,0,0,0,2.023.038l.213-.245a2.852,2.852,0,0,1,4.471.2,1.794,1.794,0,0,0,1.035.325,1.817,1.817,0,0,0,1.08-.358l.112-.153a2.76,2.76,0,0,1,2.224-1.13,2.726,2.726,0,0,1,1.937.8,2.139,2.139,0,0,0,2.772-.128l.165-.172a2.7,2.7,0,0,1,4.192.354,2.084,2.084,0,0,0,2.34-.046,6.509,6.509,0,0,1,5.722-.9.371.371,0,0,0,.111.018.32.32,0,0,0,.283-.2.3.3,0,0,0-.067-.34L1501.3,952.63h-45.83Z" transform="translate(-1437.4 -951.069)"/>
      <path id="Trazado_1036495_-_Contorno-2" data-name="Trazado 1036495 - Contorno" d="M1473.17,971.162a2.214,2.214,0,0,1-1.166-.332l-.331-.205a.33.33,0,0,1-.063-.05l-19.517-20.013a.331.331,0,0,1,.237-.562h47.551a.331.331,0,0,1,.239.1l15.656,16.3a1.268,1.268,0,0,1-.9,2.145,1.312,1.312,0,0,1-.4-.062,5.563,5.563,0,0,0-4.891.765,3.029,3.029,0,0,1-3.532-.022.332.332,0,0,1-.089-.1,1.758,1.758,0,0,0-2.775-.307l-.176.184-.011.011a3.083,3.083,0,0,1-4.049.169.319.319,0,0,1-.03-.027,1.788,1.788,0,0,0-1.29-.544,1.822,1.822,0,0,0-.8.187,1.782,1.782,0,0,0-.656.555l-.163.223a.326.326,0,0,1-.059.062,2.755,2.755,0,0,1-3.42.039.328.328,0,0,1-.074-.08,1.88,1.88,0,0,0-.707-.641,1.925,1.925,0,0,0-.887-.216,1.891,1.891,0,0,0-1.439.657l-.228.263-.016.017a2.368,2.368,0,0,1-3.39-.039,2.481,2.481,0,0,0-3.59,0l-.4.414a2.316,2.316,0,0,1-3.272.073,2.493,2.493,0,0,0-3.651.225A2.209,2.209,0,0,1,1473.17,971.162Zm-1.114-1.078.3.184a1.555,1.555,0,0,0,2.022-.337,3.155,3.155,0,0,1,4.62-.284,1.655,1.655,0,0,0,2.337-.052l.4-.414a3.143,3.143,0,0,1,4.546,0,1.708,1.708,0,0,0,2.436.036l.22-.254a2.553,2.553,0,0,1,1.939-.886,2.558,2.558,0,0,1,2.113,1.107,2.076,2.076,0,0,0,1.24.406,2.1,2.1,0,0,0,1.285-.441l.136-.187a2.438,2.438,0,0,1,.9-.758,2.488,2.488,0,0,1,1.1-.256,2.444,2.444,0,0,1,1.748.728,2.424,2.424,0,0,0,3.16-.14l.17-.178a2.4,2.4,0,0,1,1.745-.747,2.439,2.439,0,0,1,1.166.3,2.415,2.415,0,0,1,.87.811,2.367,2.367,0,0,0,2.71-.019,6.223,6.223,0,0,1,5.472-.856.656.656,0,0,0,.2.032.6.6,0,0,0,.544-.378.577.577,0,0,0-.124-.648l-15.558-16.195h-46.625Z" transform="translate(-1435.715 -949.385)"/>
      <path id="Trazado_1036495_-_Contorno_-_Contorno" data-name="Trazado 1036495 - Contorno - Contorno" d="M1473.185,971.792a2.828,2.828,0,0,1-1.489-.424l-.331-.205a.95.95,0,0,1-.179-.143l-19.517-20.013a.946.946,0,0,1,.677-1.606H1499.9a.951.951,0,0,1,.682.29l15.656,16.3a1.883,1.883,0,0,1-1.341,3.186,1.926,1.926,0,0,1-.581-.091,4.948,4.948,0,0,0-4.35.681,3.644,3.644,0,0,1-4.249-.027.939.939,0,0,1-.253-.276,1.144,1.144,0,0,0-1.8-.2l-.176.184-.032.032a3.7,3.7,0,0,1-4.857.2.91.91,0,0,1-.088-.08,1.178,1.178,0,0,0-.848-.357,1.2,1.2,0,0,0-.531.123,1.174,1.174,0,0,0-.431.366l-.163.224a.938.938,0,0,1-.17.179,3.37,3.37,0,0,1-4.181.046.936.936,0,0,1-.212-.229,1.272,1.272,0,0,0-.478-.434,1.307,1.307,0,0,0-.6-.147,1.277,1.277,0,0,0-.974.445l-.228.263c-.016.018-.031.034-.046.05a2.983,2.983,0,0,1-4.27-.05,1.866,1.866,0,0,0-2.7,0l-.4.414a2.931,2.931,0,0,1-4.14.092,1.878,1.878,0,0,0-2.751.169A2.822,2.822,0,0,1,1473.185,971.792Zm-.727-2.177.233.144a.94.94,0,0,0,1.222-.2,3.77,3.77,0,0,1,5.521-.34,1.04,1.04,0,0,0,1.469-.033l.4-.414a3.758,3.758,0,0,1,5.435.005,1.093,1.093,0,0,0,1.544.038l.2-.234a3.168,3.168,0,0,1,2.4-1.1,3.172,3.172,0,0,1,2.551,1.276,1.467,1.467,0,0,0,.8.236,1.488,1.488,0,0,0,.844-.264l.081-.11a3.046,3.046,0,0,1,1.122-.947,3.106,3.106,0,0,1,1.37-.319,3.056,3.056,0,0,1,2.155.88,1.809,1.809,0,0,0,2.322-.114l.159-.166a3.005,3.005,0,0,1,2.19-.936,3.026,3.026,0,0,1,2.475,1.274,1.753,1.753,0,0,0,1.916-.072,6.839,6.839,0,0,1,5.971-.954l-15.346-15.974h-44.9Z" transform="translate(-1435.73 -949.4)"/>
      <path id="Trazado_1036496_-_Contorno" data-name="Trazado 1036496 - Contorno" d="M1383.693,950.5a.331.331,0,0,1,.237.1l3.086,3.167a.331.331,0,0,1,.01.451l-12.679,14.2a.33.33,0,0,1-.247.111H1371a1.341,1.341,0,0,1-1.018-2.214l13.456-15.7a.331.331,0,0,1,.241-.115Zm2.634,3.507-2.618-2.686-13.22,15.424a.68.68,0,0,0,.516,1.122h2.948Z" transform="translate(-1369.044 -949.802)"/>
      <path id="Trazado_1036496_-_Contorno_-_Contorno" data-name="Trazado 1036496 - Contorno - Contorno" d="M1383.708,949.9a.951.951,0,0,1,.677.285l3.086,3.167a.949.949,0,0,1,.028,1.29l-12.679,14.2a.947.947,0,0,1-.705.316h-3.1a1.956,1.956,0,0,1-1.485-3.229l13.456-15.7a.948.948,0,0,1,.688-.33Zm1.793,4.14-1.748-1.794L1370.97,967.16a.065.065,0,0,0,.049.107h2.672Z" transform="translate(-1369.059 -949.817)"/>
      <path id="Trazado_1036497_-_Contorno" data-name="Trazado 1036497 - Contorno" d="M1419.624,1041.973h-26.794a.331.331,0,0,1-.23-.568l2.894-2.812a.331.331,0,0,1,.231-.093h21.336a.331.331,0,0,1,.245.108l2.564,2.812a.331.331,0,0,1-.245.554Zm-25.979-.662h25.229l-1.96-2.15h-21.056Z" transform="translate(-1388.106 -1023.248)"/>
      <path id="Trazado_1036497_-_Contorno_-_Contorno" data-name="Trazado 1036497 - Contorno - Contorno" d="M1419.639,1042.6h-26.794a.946.946,0,0,1-.659-1.624l2.894-2.812a.942.942,0,0,1,.659-.267h21.336a.948.948,0,0,1,.7.308l2.564,2.812a.946.946,0,0,1-.7,1.583Zm-24.463-1.891H1417.5l-.839-.92h-20.535Z" transform="translate(-1388.121 -1023.263)"/>
      <path id="Trazado_1036498_-_Contorno" data-name="Trazado 1036498 - Contorno" d="M1462.8,981.074h-4.466a.331.331,0,0,1-.331-.331v-8.931a.33.33,0,0,1,.082-.218l2.176-2.481a.331.331,0,0,1,.492-.006l2.289,2.481a.331.331,0,0,1,.088.224v8.931A.331.331,0,0,1,1462.8,981.074Zm-4.135-.662h3.8v-8.471l-1.953-2.116-1.852,2.111Z" transform="translate(-1442.35 -965.243)"/>
      <path id="Trazado_1036498_-_Contorno_-_Contorno" data-name="Trazado 1036498 - Contorno - Contorno" d="M1462.811,981.7h-4.466a.947.947,0,0,1-.946-.946v-8.931a.945.945,0,0,1,.235-.624l2.176-2.48a.945.945,0,0,1,.7-.322h.011a.949.949,0,0,1,.7.3l2.29,2.481a.943.943,0,0,1,.251.642v8.931A.947.947,0,0,1,1462.811,981.7Zm-3.52-1.892h2.574V972.2l-1.326-1.437-1.248,1.423Z" transform="translate(-1442.375 -965.258)"/>
      <path id="Línea_751" data-name="Línea 751" d="M15.784,17.686A.247.247,0,0,1,15.6,17.6L-1.435-1.085a.248.248,0,0,1,.016-.35.248.248,0,0,1,.35.016l17.036,18.69a.248.248,0,0,1-.183.415Z" transform="translate(24.413 2.28)"/>
      <path id="Línea_751_-_Contorno" data-name="Línea 751 - Contorno" d="M15.8,18.316a.865.865,0,0,1-.638-.282L-1.875-.655A.857.857,0,0,1-2.1-1.277a.857.857,0,0,1,.281-.6A.861.861,0,0,1-1.237-2.1.865.865,0,0,1-.6-1.818l17.036,18.69a.863.863,0,0,1-.638,1.445Z" transform="translate(24.392 2.265)"/>
      <path id="Línea_752" data-name="Línea 752" d="M15.288,17.19a.247.247,0,0,1-.184-.081L-1.435-1.085a.248.248,0,0,1,.017-.35.248.248,0,0,1,.35.017L15.471,16.775a.248.248,0,0,1-.184.415Z" transform="translate(31.413 2.28)"/>
      <path id="Línea_752_-_Contorno" data-name="Línea 752 - Contorno" d="M15.3,17.82a.865.865,0,0,1-.639-.282L-1.876-.656a.864.864,0,0,1,.058-1.219A.861.861,0,0,1-1.237-2.1.865.865,0,0,1-.6-1.818L15.941,16.376A.863.863,0,0,1,15.3,17.82Z" transform="translate(31.397 2.265)"/>
      <path id="Línea_753" data-name="Línea 753" d="M16.115,17.024a.247.247,0,0,1-.179-.076L-1.431-1.08a.248.248,0,0,1,.007-.351.248.248,0,0,1,.351.007L16.293,16.6a.248.248,0,0,1-.179.42Z" transform="translate(37.922 2.28)"/>
      <path id="Línea_753_-_Contorno" data-name="Línea 753 - Contorno" d="M16.13,17.654a.867.867,0,0,1-.622-.264L-1.859-.638a.864.864,0,0,1,.023-1.22.859.859,0,0,1,.6-.242.867.867,0,0,1,.622.264L16.751,16.192a.863.863,0,0,1-.622,1.462Z" transform="translate(37.91 2.265)"/>
      <path id="Línea_754" data-name="Línea 754" d="M15.949,16.859a.247.247,0,0,1-.179-.076L-1.431-1.08a.248.248,0,0,1,.007-.351.248.248,0,0,1,.351.007l17.2,17.863a.248.248,0,0,1-.179.42Z" transform="translate(44.926 2.28)"/>
      <path id="Línea_754_-_Contorno" data-name="Línea 754 - Contorno" d="M15.964,17.489a.867.867,0,0,1-.622-.264L-1.859-.638A.857.857,0,0,1-2.1-1.253a.857.857,0,0,1,.264-.605.859.859,0,0,1,.6-.241.867.867,0,0,1,.622.264l17.2,17.863a.863.863,0,0,1-.622,1.462Z" transform="translate(44.919 2.265)"/>
      <path id="Línea_755" data-name="Línea 755" d="M16.28,16.528a.247.247,0,0,1-.175-.073L-1.427-1.076a.248.248,0,0,1,0-.351.248.248,0,0,1,.351,0L16.455,16.1a.248.248,0,0,1-.175.424Z" transform="translate(51.943 2.28)"/>
      <path id="Línea_755_-_Contorno" data-name="Línea 755 - Contorno" d="M16.295,17.158a.857.857,0,0,1-.61-.253L-1.847-.627a.864.864,0,0,1,0-1.221.857.857,0,0,1,.61-.253.857.857,0,0,1,.61.253L16.905,15.685a.863.863,0,0,1-.61,1.473Z" transform="translate(52.337 2.265)"/>
      <path id="Línea_756" data-name="Línea 756" d="M17.272,16.528a.247.247,0,0,1-.17-.068L-1.422-1.072a.248.248,0,0,1-.01-.351.248.248,0,0,1,.351-.01L17.443,16.1a.248.248,0,0,1-.171.428Z" transform="translate(58.637 2.28)"/>
      <path id="Línea_756_-_Contorno" data-name="Línea 756 - Contorno" d="M17.287,17.158a.86.86,0,0,1-.593-.236L-1.83-.61a.864.864,0,0,1-.034-1.22.867.867,0,0,1,.627-.27.86.86,0,0,1,.593.236L17.881,15.668a.863.863,0,0,1,.034,1.22A.867.867,0,0,1,17.287,17.158Z" transform="translate(58.622 2.265)"/>
    </g>
  </g>
</svg>
