<svg xmlns="http://www.w3.org/2000/svg" width="100" height="100" viewBox="0 0 100 100">
  <g id="Grupo_1202274" data-name="Grupo 1202274" transform="translate(-1219.051 -11435)">
    <rect id="Rectángulo_409794" data-name="Rectángulo 409794" width="100" height="100" transform="translate(1219.051 11435)" fill="none"/>
    <g id="Grupo_1202273" data-name="Grupo 1202273" transform="translate(1194.061 11409.734)">
      <path id="Trazado_1036571" data-name="Trazado 1036571" d="M224.081,89.909a1.41,1.41,0,0,0,2,0L227.2,88.79l1.119,1.119a1.411,1.411,0,0,0,2-2L229.19,86.8l1.119-1.119a1.411,1.411,0,0,0-2-2L227.2,84.8l-1.119-1.119a1.411,1.411,0,0,0-2,2L225.2,86.8l-1.119,1.119A1.411,1.411,0,0,0,224.081,89.909Z" transform="translate(-122.116 -31.068)"/>
      <path id="Trazado_1036572" data-name="Trazado 1036572" d="M233.076,58.065a1.509,1.509,0,1,0-1.508-1.509A1.509,1.509,0,0,0,233.076,58.065Z" transform="translate(-127.229 -12.804)"/>
      <path id="Trazado_1036573" data-name="Trazado 1036573" d="M57.076,235.048a1.509,1.509,0,1,0,1.508,1.508A1.509,1.509,0,0,0,57.076,235.048Z" transform="translate(-13.318 -129.303)"/>
      <path id="Trazado_1036574" data-name="Trazado 1036574" d="M169.833,120.676a1.388,1.388,0,0,0-1.436,1.386l-.007.422-5.021-.385a1.418,1.418,0,0,0-1.359.754l-3.3,6.325-2.676.84c-.011-.165-.022-.33-.041-.493a2.4,2.4,0,0,0,1.543-1.267h0c1.024-1.964.4-7.187-2.777-8.848s-7.822.815-8.85,2.778a2.415,2.415,0,0,0-.171,1.99c-.141.076-.277.163-.415.247l-.839-2.674,3.3-6.325a1.413,1.413,0,0,0-.158-1.546l-3.185-3.9.342-.247a1.411,1.411,0,1,0-1.654-2.287l-1.554,1.124a1.412,1.412,0,0,0-.266,2.036l3.543,4.34-3.143,6.018a1.418,1.418,0,0,0-.1,1.076l1.379,4.4a10,10,0,0,0-.651.866l-2.8-2.255a1.4,1.4,0,0,0-.94-.312l-6.426.244-4.531-3.258a1.411,1.411,0,0,0-1.651,0l-1.554,1.124a1.411,1.411,0,1,0,1.654,2.287l.73-.528,4.1,2.946a1.433,1.433,0,0,0,.878.265l6.382-.242.045.036a15.977,15.977,0,0,0-8.039,3.328c-5.716,4.292-12.18,12.177-9.447,15.819a4.866,4.866,0,0,0,4.1,1.721,11.728,11.728,0,0,0,2.848-.389,20.651,20.651,0,0,0,3.624-1.327c.286,3.736,2.111,7.273,4.656,8.6a7.283,7.283,0,0,0,3.361.73,12.955,12.955,0,0,0,6.089-1.65,20.544,20.544,0,0,0,.891,3.369c1.175,3.114,2.974,4.869,5.066,4.945l.11,0c4.486,0,7.221-9.709,7.473-16.794a16.133,16.133,0,0,0-1.805-8.4l.362.106,3.448,5.376a1.407,1.407,0,0,0,.718.568l4.761,1.681-.017.9a1.412,1.412,0,0,0,1.386,1.437h.025a1.412,1.412,0,0,0,1.411-1.386l.035-1.918a1.41,1.41,0,0,0-.941-1.356l-5.264-1.858-3.471-5.414a1.414,1.414,0,0,0-.792-.593l-3.45-1.006a10.106,10.106,0,0,0,.337-1.028l4.4-1.381a1.414,1.414,0,0,0,.828-.693l3.142-6.018,5.585.428a1.433,1.433,0,0,0,1.057-.363,1.41,1.41,0,0,0,.462-1.018l.035-1.918a1.413,1.413,0,0,0-1.387-1.438Zm-24.21,16.218a4.1,4.1,0,0,1-2.046-2.9,6.687,6.687,0,0,1,.7-4.441,6.576,6.576,0,0,1,3.376-3.126,26.856,26.856,0,0,0,5.4,2.819,6.6,6.6,0,0,1-.638,4.561C150.917,136.682,147.869,138.067,145.624,136.894Zm7.827-14.985c1.59.831,1.922,3.972,1.629,4.917-.32.007-1.193-.132-3.5-1.336s-2.932-1.86-3.1-2.109c.609-.78,3.379-2.3,4.968-1.472ZM127.007,145.35c-1.961.495-3.5.385-4-.29-.832-1.109,2.425-7.018,8.885-11.868,3.811-2.863,7.208-3.079,9.063-2.69a9.1,9.1,0,0,0-.134,4.075c.039.185.115.345.165.522A25.794,25.794,0,0,1,135,141.25a23.692,23.692,0,0,1-8,4.1Zm10.279,7.511c-1.7-.889-3.344-4.176-3.169-7.607.868-.53,1.733-1.111,2.581-1.747a29.925,29.925,0,0,0,5.768-5.62,6.439,6.439,0,0,0,1.852,1.509,6.356,6.356,0,0,0,1.894.625,30.1,30.1,0,0,0-1.276,7.789,32.119,32.119,0,0,0,.088,3.54c-2.7,1.927-6.106,2.365-7.739,1.511Zm14.217,7.075h-.018c-.842-.03-1.809-1.225-2.525-3.12a23.692,23.692,0,0,1-1.2-8.9,26.249,26.249,0,0,1,1.512-8.069,8.887,8.887,0,0,0,4.208-2.648c1.457,1.554,2.823,4.479,2.674,8.669C155.862,153.9,152.9,159.936,151.5,159.936Z" transform="translate(-55.084 -46.541)"/>
      <path id="Trazado_1036575" data-name="Trazado 1036575" d="M66.731,63.072a3.835,3.835,0,0,0,3.6-1.693c1.794-3.171-4.072-7.847-7.194-9.615a9.433,9.433,0,0,0-7.272-1.183c-.054-.064-.105-.129-.161-.191l2.385-3.828a1.411,1.411,0,0,0-.041-1.554l-2.178-3.116,1.622-2.61a1.411,1.411,0,0,0-2.4-1.49l-2.112,3.4a1.412,1.412,0,0,0,.042,1.553L55.2,45.862l-1.6,2.564a2.161,2.161,0,0,0-.325-.725,4.937,4.937,0,0,0-2.638-1.585,4.419,4.419,0,0,0-3.719.459c-2.161,1.511-2.021,5.076-1.126,6.357a2.317,2.317,0,0,0,.427.462l-2.565.537-2.178-3.114a1.41,1.41,0,0,0-1.444-.573l-3.919.816a1.411,1.411,0,0,0,.574,2.763L39.7,53.2l2.179,3.116a1.412,1.412,0,0,0,1.156.6,1.371,1.371,0,0,0,.289-.03l4.106-.86c.044.088.1.172.147.258a9.272,9.272,0,0,0-1.557,7.447,22.633,22.633,0,0,0,2.194,6.662c1.468,2.757,2.905,3.431,3.96,3.431a2.436,2.436,0,0,0,.406-.034c.867-.143,2.427-.831,3.132-3.816a12.506,12.506,0,0,0,.26-1.709,8.626,8.626,0,0,0,2.659.45,5.538,5.538,0,0,0,3.161-.865,6.753,6.753,0,0,0,2.4-5.118A10.732,10.732,0,0,0,66.731,63.072ZM61.743,54.22c3.664,2.074,6.141,5.052,6.129,5.769-.252.448-3,.6-6.85-1.577A15.826,15.826,0,0,1,57.369,55.6c.022-.14.063-.271.075-.415a6.01,6.01,0,0,0-.2-2.024A7.207,7.207,0,0,1,61.743,54.22Zm-10.8-1.885a14.786,14.786,0,0,0,1.293-1,3.747,3.747,0,0,1,2.392,3.63,1.982,1.982,0,0,1-.784,1.518c-1.007.7-2.662.153-3.612-1.206a3.651,3.651,0,0,1-.674-2.068A14.3,14.3,0,0,0,50.946,52.335Zm-2.41-3.447a1.1,1.1,0,0,1,.627-.158,3.518,3.518,0,0,1,1.38.34,10.811,10.811,0,0,1-1.213.951,10.926,10.926,0,0,1-1.311.814C47.959,50.178,48.077,49.209,48.535,48.888Zm4.428,20.433A3.808,3.808,0,0,1,52.229,71c-.792-.236-2.738-3.585-3.427-7.738a6.957,6.957,0,0,1,.671-4.795,6.045,6.045,0,0,0,2.031.966,15.519,15.519,0,0,1,1.483,4.591A14.2,14.2,0,0,1,52.963,69.321Zm7.208-3.788c-.682.476-2.557.537-4.2-.313-.046-.544-.112-1.1-.2-1.653a19.369,19.369,0,0,0-1.224-4.292,4.416,4.416,0,0,0,.919-.478,4.521,4.521,0,0,0,.589-.522,19.452,19.452,0,0,0,3.579,2.593c.56.317,1.137.606,1.718.866A4.676,4.676,0,0,1,60.171,65.533Z" transform="translate(0 -1.204)"/>
      <path id="Trazado_1036576" data-name="Trazado 1036576" d="M153.227,40.131a1.415,1.415,0,0,0,.631.631L156.336,42a6.987,6.987,0,0,0-.39,1.936,10.283,10.283,0,0,0-2.578,3.9c-1.462,3.746-.871,7.234,1.378,8.113a2.847,2.847,0,0,0,1.039.194c2.016,0,4.226-2.041,5.471-5.227.019-.049.029-.1.048-.147.081,0,.161.018.242.018s.161-.015.241-.019c.019.05.029.1.048.148,1.244,3.186,3.455,5.227,5.471,5.227a2.854,2.854,0,0,0,1.04-.194c2.248-.878,2.839-4.366,1.377-8.113a10.273,10.273,0,0,0-2.578-3.9,6.855,6.855,0,0,0-.66-2.509l1.336-.668a1.415,1.415,0,0,0,.631-.631l1.411-2.822a1.411,1.411,0,0,0-2.525-1.262l-1.2,2.4-1.445.722a5.184,5.184,0,0,0-3.148-1.082,5.25,5.25,0,0,0-3.643,1.54l-2.362-1.18-1.2-2.4a1.411,1.411,0,1,0-2.524,1.262Zm5.4,9.76c-.992,2.543-2.518,3.573-2.854,3.43-.328-.127-.769-1.912.225-4.457.938-2.4,2.359-3.441,2.789-3.441a.173.173,0,0,1,.065.011c.328.128.769,1.912-.225,4.457Zm8.693,3.43c-.329.139-1.86-.881-2.855-3.43s-.552-4.329-.226-4.457,1.859.881,2.855,3.43S167.646,53.193,167.319,53.321Zm-5.774-12.41a2.769,2.769,0,0,1,2.415,1.73,2.8,2.8,0,0,0-.749.164,3.127,3.127,0,0,0-1.666,1.688,3.128,3.128,0,0,0-1.667-1.688,2.825,2.825,0,0,0-.747-.164A2.769,2.769,0,0,1,161.545,40.911Z" transform="translate(-75.516)"/>
      <path id="Trazado_1036577" data-name="Trazado 1036577" d="M59.141,171.894a6.857,6.857,0,0,0-.656-2.466l1.336-.668a1.415,1.415,0,0,0,.631-.631l1.411-2.822a1.411,1.411,0,1,0-2.524-1.262l-1.2,2.4-1.446.723a5.184,5.184,0,0,0-3.148-1.082,5.25,5.25,0,0,0-3.642,1.54l-2.362-1.18-1.2-2.4a1.411,1.411,0,1,0-2.524,1.262l1.411,2.822a1.415,1.415,0,0,0,.631.631L48.337,170a7,7,0,0,0-.387,1.894,11.439,11.439,0,0,0-3.353,8.6,3.767,3.767,0,0,0,2.15,3.452,2.91,2.91,0,0,0,1.066.2,4.349,4.349,0,0,0,2.854-1.282,10.572,10.572,0,0,0,2.589-3.951c.019-.048.03-.1.049-.146.081,0,.161.017.241.017s.161-.013.242-.017c.018.048.03.1.049.146a10.568,10.568,0,0,0,2.589,3.951,4.35,4.35,0,0,0,2.854,1.282,2.916,2.916,0,0,0,1.066-.2A3.767,3.767,0,0,0,62.5,180.5a11.434,11.434,0,0,0-3.354-8.6Zm-5.6-2.985a2.766,2.766,0,0,1,2.411,1.721,2.911,2.911,0,0,0-.744.173,3.131,3.131,0,0,0-1.668,1.681,3.129,3.129,0,0,0-1.668-1.681,2.891,2.891,0,0,0-.744-.173A2.768,2.768,0,0,1,53.545,168.91Zm-2.919,8.98a7.822,7.822,0,0,1-1.853,2.884c-.546.492-.93.578-1,.546-.046-.018-.292-.277-.366-1.08a8.675,8.675,0,0,1,2.444-6.26,1.831,1.831,0,0,1,.966-.551.089.089,0,0,1,.035,0c.046.018.292.277.366,1.08A7.828,7.828,0,0,1,50.626,177.89Zm9.058,2.35c-.074.8-.32,1.062-.366,1.08-.068.031-.455-.054-1-.546a8.675,8.675,0,0,1-2.444-6.26c.074-.8.32-1.062.366-1.08a.087.087,0,0,1,.035,0,1.829,1.829,0,0,1,.966.551,8.675,8.675,0,0,1,2.444,6.261Z" transform="translate(-5.616 -82.843)"/>
    </g>
  </g>
</svg>
