<svg xmlns="http://www.w3.org/2000/svg" width="100" height="100" viewBox="0 0 100 100">
  <g id="Grupo_1202276" data-name="Grupo 1202276" transform="translate(-278.051 -11778)">
    <rect id="Rectángulo_409789" data-name="Rectángulo 409789" width="100" height="100" transform="translate(278.051 11778)" fill="none"/>
    <g id="Grupo_1202275" data-name="Grupo 1202275" transform="translate(284.051 11745.317)">
      <path id="Trazado_1036578" data-name="Trazado 1036578" d="M86.522,276.318H78.9a13.106,13.106,0,0,0-1.265-5.547,9.481,9.481,0,0,0,2.1-3.167,1.286,1.286,0,0,0-2.387-.959,6.87,6.87,0,0,1-1.1,1.841,13.31,13.31,0,0,0-2.381-2.418,3.067,3.067,0,0,1-1.109-1.905,17.823,17.823,0,0,0-2.718-6.847,6.919,6.919,0,0,1,.959-.067,6.825,6.825,0,0,1,6.649,5.219,1.286,1.286,0,1,0,2.5-.609,9.427,9.427,0,0,0-11.867-6.784A17.994,17.994,0,0,0,62.5,250.9a1.286,1.286,0,0,0-1.066,2.341A15.329,15.329,0,0,1,70.215,264.6a5.632,5.632,0,0,0,2.054,3.492,10.529,10.529,0,0,1,4.054,8.228h-64.8a9.263,9.263,0,0,1,4.855-6.779,5.534,5.534,0,0,0,2.405-2.423,12.122,12.122,0,0,1,13.109-6.522,5.754,5.754,0,0,0,3.813-.59,10.941,10.941,0,0,1,4.421-1.311,5.7,5.7,0,0,0,3.736-1.858,15.2,15.2,0,0,1,13.145-4.845,1.286,1.286,0,0,0,.317-2.553,18.083,18.083,0,0,0-2.216-.14,17.563,17.563,0,0,0-4.123.493,9.345,9.345,0,0,0-5.818-3.159,9.42,9.42,0,0,0-18.283,2.26,9.426,9.426,0,0,0-4.354,10.745,14.577,14.577,0,0,0-2.436,1.691,7.955,7.955,0,0,0-6.909-1.263,1.286,1.286,0,0,0,.7,2.475,5.383,5.383,0,0,1,4.387.654,14.947,14.947,0,0,0-1.789,2.772,2.979,2.979,0,0,1-1.3,1.3,11.86,11.86,0,0,0-4.166,3.644A5.382,5.382,0,0,1,10.709,265a1.286,1.286,0,1,0-2.219-1.3A7.954,7.954,0,0,0,9.7,273.315a11.791,11.791,0,0,0-.773,3H1.286a1.286,1.286,0,1,0,0,2.572H86.522a1.287,1.287,0,0,0,0-2.573ZM41.973,255.089a3.137,3.137,0,0,1-2.044,1.04,13.511,13.511,0,0,0-2.87.534,6.963,6.963,0,0,1-.035-.7,6.857,6.857,0,0,1,11.219-5.269A18.124,18.124,0,0,0,41.973,255.089Zm-5.708-12.216a6.81,6.81,0,0,1,6.129,3.787,9.406,9.406,0,0,0-5.29,2.757,9.432,9.432,0,0,0-7.421-1.592A6.831,6.831,0,0,1,36.265,242.872ZM24.74,257.049a6.846,6.846,0,0,1,10.842-5.559,9.361,9.361,0,0,0-1.131,4.472,9.49,9.49,0,0,0,.155,1.712l-.132.071a3.172,3.172,0,0,1-2.1.322,14.782,14.782,0,0,0-7.458.519A6.889,6.889,0,0,1,24.74,257.049Z" transform="translate(0 -160.412)"/>
      <path id="Trazado_1036579" data-name="Trazado 1036579" d="M410.712,52.75a3.414,3.414,0,0,0,1.68,2.361l0,0a1.286,1.286,0,1,0,1.853,1.785l0,0a3.415,3.415,0,0,0,2.422,1.591l1.988.295a3.429,3.429,0,0,0,3.926-3.192l.021-.356a3.43,3.43,0,0,0-3.34-3.628,1.287,1.287,0,0,0-1.769-1.7,3.429,3.429,0,0,0-3.751-3.2l-.354.034a3.429,3.429,0,0,0-3.044,4.042Zm9.321,2.333-.021.356a.857.857,0,0,1-.981.8l-1.988-.295a.857.857,0,0,1,.1-1.7l2.009-.061A.857.857,0,0,1,420.033,55.083Zm-6.4-5.79c.376-.036.383-.038.44-.038a.857.857,0,0,1,.853.851l.014,2.009a.857.857,0,0,1-1.7.163l-.369-1.976A.856.856,0,0,1,413.633,49.293Z" transform="translate(-339.922 0)"/>
      <path id="Trazado_1036580" data-name="Trazado 1036580" d="M398.591,138.821a1.286,1.286,0,1,0,1.135,2.309,9.3,9.3,0,0,0,5.068-6.563,12.323,12.323,0,0,0-2.8-10.309c-3.414-4.083-.135-8.263.012-8.447a1.286,1.286,0,0,0-1.995-1.625,9.176,9.176,0,0,0,.009,11.722,9.739,9.739,0,0,1,2.254,8.126A6.78,6.78,0,0,1,398.591,138.821Z" transform="translate(-329.636 -55.536)"/>
      <path id="Trazado_1036581" data-name="Trazado 1036581" d="M6.33,99.612h.05l2.009-.029A3.415,3.415,0,0,0,11,98.326l0,0A1.286,1.286,0,0,0,13.075,96.8l0,0a3.415,3.415,0,0,0,1.977-2.118l.627-1.909a3.429,3.429,0,0,0-2.482-4.41l-.347-.081a3.429,3.429,0,0,0-4.141,2.679,1.287,1.287,0,0,0-1.979,1.455,3.429,3.429,0,0,0-3.791,3.154l-.026.356a3.429,3.429,0,0,0,3.42,3.684ZM10.944,93.5l.28-1.99a.856.856,0,0,1,1.042-.715l.347.081a.856.856,0,0,1,.62,1.1l-.627,1.909a.857.857,0,0,1-1.662-.386ZM5.476,96.119l.026-.356a.858.858,0,0,1,.85-.794c.108,0,.017-.009,2.126.338a.857.857,0,0,1-.127,1.7l-2.009.029a.856.856,0,0,1-.867-.92Z" transform="translate(-2.404 -34.394)"/>
      <path id="Trazado_1036582" data-name="Trazado 1036582" d="M33.956,169.119a9.176,9.176,0,0,0,1.56-11.617,1.286,1.286,0,0,0-2.192,1.346c.117.193,2.822,4.776-1.1,8.375a12.324,12.324,0,0,0-4.136,9.848,9.305,9.305,0,0,0,4.155,7.176,1.286,1.286,0,0,0,1.431-2.138,6.781,6.781,0,0,1-3.021-5.233,9.738,9.738,0,0,1,3.309-7.757Z" transform="translate(-23.241 -91.309)"/>
      <path id="Trazado_1036583" data-name="Trazado 1036583" d="M305.58,352.244a1.286,1.286,0,1,0,2.573,0,2.467,2.467,0,0,1,4.933,0,1.286,1.286,0,1,0,2.573,0,5.039,5.039,0,0,0-10.078,0Z" transform="translate(-253.173 -248.983)"/>
      <path id="Trazado_1036584" data-name="Trazado 1036584" d="M188.679,392.184a5.045,5.045,0,0,0-5.039,5.039,1.286,1.286,0,0,0,2.573,0,2.467,2.467,0,0,1,4.933,0,1.286,1.286,0,1,0,2.573,0A5.045,5.045,0,0,0,188.679,392.184Z" transform="translate(-152.146 -286.248)"/>
      <path id="Trazado_1036585" data-name="Trazado 1036585" d="M307.23,187.742a1.286,1.286,0,0,0,2,1.622,5.229,5.229,0,0,0-.009-6.68,4.223,4.223,0,0,1-.991-3.517,2.732,2.732,0,0,1,1.5-1.95,1.286,1.286,0,0,0-1.135-2.309,5.284,5.284,0,0,0-2.88,3.726,6.809,6.809,0,0,0,1.534,5.7A2.687,2.687,0,0,1,307.23,187.742Z" transform="translate(-253.174 -106.125)"/>
      <path id="Trazado_1036586" data-name="Trazado 1036586" d="M202.344,149.687a1.286,1.286,0,0,0,2,1.622,5.229,5.229,0,0,0-.009-6.68,4.224,4.224,0,0,1-.991-3.517,2.732,2.732,0,0,1,1.5-1.95,1.286,1.286,0,0,0-1.135-2.309,5.284,5.284,0,0,0-2.879,3.725,6.809,6.809,0,0,0,1.534,5.7A2.687,2.687,0,0,1,202.344,149.687Z" transform="translate(-166.276 -74.596)"/>
      <path id="Trazado_1036587" data-name="Trazado 1036587" d="M115.884,206.775a1.286,1.286,0,0,0,2,1.621,5.229,5.229,0,0,0-.009-6.68,4.223,4.223,0,0,1-.991-3.517,2.732,2.732,0,0,1,1.5-1.95,1.286,1.286,0,1,0-1.135-2.309,5.283,5.283,0,0,0-2.88,3.726,6.809,6.809,0,0,0,1.534,5.7A2.687,2.687,0,0,1,115.884,206.775Z" transform="translate(-94.644 -121.893)"/>
    </g>
  </g>
</svg>
