<svg xmlns="http://www.w3.org/2000/svg" width="100" height="100" viewBox="0 0 100 100">
  <g id="Grupo_1202278" data-name="Grupo 1202278" transform="translate(-593.051 -11765)">
    <rect id="Rectángulo_409790" data-name="Rectángulo 409790" width="100" height="100" transform="translate(593.051 11765)" fill="none"/>
    <g id="Grupo_1202277" data-name="Grupo 1202277" transform="translate(606.051 11778)">
      <path id="Trazado_1036588" data-name="Trazado 1036588" d="M72.844,0H26.594a1.155,1.155,0,0,0-1.156,1.156V23.124l-6.937,0V21.865a9.245,9.245,0,0,0,4.625-7.987V9.827a9.781,9.781,0,0,0-2.566-6.6,1.124,1.124,0,0,0-.087-.095,9.814,9.814,0,0,0-17,6.692V10.4a1.339,1.339,0,0,0,.028.139,1.091,1.091,0,0,0,.045.223,1.168,1.168,0,0,0,.092.2.965.965,0,0,0,.284.331,1.009,1.009,0,0,0,.177.119,1.142,1.142,0,0,0,.22.082,1.215,1.215,0,0,0,.128.047c.064.01.118.013.182.022v2.314A9.245,9.245,0,0,0,9.25,21.865v1.263H5.793l-.012,0A5.788,5.788,0,0,0,0,28.906v6.937a1.156,1.156,0,0,0,2.313,0V28.906a3.471,3.471,0,0,1,3.461-3.468H9.936l.809.809c.012.013.028.016.04.027a1.141,1.141,0,0,0,.291.193.92.92,0,0,0,.1.043,1.168,1.168,0,0,0,.384.075h.009a1.138,1.138,0,0,0,.469-.112c.014-.006.027,0,.04-.009l1.8-.9,1.8.9c.014.007.027,0,.04.009a1.142,1.142,0,0,0,.469.112h.009a1.168,1.168,0,0,0,.384-.075.92.92,0,0,0,.1-.043,1.141,1.141,0,0,0,.293-.194c.012-.01.028-.015.039-.025l.817-.817,8.768,0s0,0,0,0H27.75a4.63,4.63,0,0,0,4.625-4.625,1.156,1.156,0,0,1,2.313,0A6.944,6.944,0,0,1,27.75,27.75H21.969a1.155,1.155,0,0,0-1.156,1.156v6.937a1.156,1.156,0,0,0,2.313,0V30.062h2.313v5.781A1.155,1.155,0,0,0,26.594,37h46.25A1.155,1.155,0,0,0,74,35.844V1.156A1.155,1.155,0,0,0,72.844,0ZM19.852,6.161a7.481,7.481,0,0,1,.819,2.223,4.749,4.749,0,0,0-1.517-.8ZM13.3,2.313a7.479,7.479,0,0,1,4.95,1.873l-1.714,3.49c-.458.134-.932.313-1.436.512A16.982,16.982,0,0,1,5.8,9.379,7.517,7.517,0,0,1,13.3,2.312ZM6.937,13.869V11.816a18.782,18.782,0,0,0,9.009-1.478c2.181-.864,2.829-1.111,4.866,1.474v2.057a6.938,6.938,0,0,1-13.875,0Zm6.937,9.247a9.2,9.2,0,0,0,2.313-.305V23.8l-.228.228-1.567-.784c-.025-.013-.053-.01-.079-.022a1.249,1.249,0,0,0-.225-.061,1.127,1.127,0,0,0-.213-.027,1.216,1.216,0,0,0-.213.027,1.161,1.161,0,0,0-.225.061c-.025.012-.053.009-.079.022l-1.567.784-.23-.228v-.986a9.15,9.15,0,0,0,2.313.305ZM71.688,34.688H27.75V30.063A9.261,9.261,0,0,0,37,20.813a3.469,3.469,0,0,0-6.937,0,2.315,2.315,0,0,1-2.312,2.313V2.313H71.688Z"/>
      <path id="Trazado_1036589" data-name="Trazado 1036589" d="M6.313,31.938V26.156a1.156,1.156,0,0,0-2.312,0v5.781a1.156,1.156,0,0,0,2.313,0Z" transform="translate(0.625 3.906)"/>
      <path id="Trazado_1036590" data-name="Trazado 1036590" d="M62.5,59.277c-.013,0-.022.007-.034.007H60.188V56.865a9.244,9.244,0,0,0,4.62-7.906c0-.007,0-.014,0-.022s0-.039,0-.06V43.105s0-.008,0-.012a4.622,4.622,0,0,0-3.471-4.462V36.156A1.155,1.155,0,0,0,60.187,35H54.406a8.1,8.1,0,0,0-8.094,8.088h0v5.788c0,.021,0,.039,0,.06s0,.015,0,.022a9.244,9.244,0,0,0,4.62,7.906v2.419H48.659c-.013,0-.022-.007-.034-.007A4.629,4.629,0,0,0,44,63.9v3.473a1.155,1.155,0,0,0,1.156,1.156H65.969a1.155,1.155,0,0,0,1.156-1.156V63.9A4.629,4.629,0,0,0,62.5,59.277ZM54.406,37.313h4.625v2.313a1.155,1.155,0,0,0,1.156,1.156,2.316,2.316,0,0,1,2.314,2.3s0,0,0,.006v5.479a8.263,8.263,0,0,1-13.875,0V43.094A5.788,5.788,0,0,1,54.406,37.313Zm-4.246,15.9a10.81,10.81,0,0,0,10.8,0,6.923,6.923,0,0,1-10.8,0Zm5.4,4.906a9.2,9.2,0,0,0,2.313-.305v1.465H53.25V57.811A9.15,9.15,0,0,0,55.563,58.116ZM48.6,61.591c.008,0,.015,0,.023,0h3.469c.014,0,.024-.008.039-.008h6.859c.015,0,.025.008.039.008H62.5c.008,0,.015,0,.023,0A2.312,2.312,0,0,1,64.813,63.9v2.318h-18.5V63.9A2.313,2.313,0,0,1,48.6,61.591Z" transform="translate(6.875 5.469)"/>
      <path id="Trazado_1036591" data-name="Trazado 1036591" d="M1.156,68.531H21.969a1.155,1.155,0,0,0,1.156-1.156V63.9A4.629,4.629,0,0,0,18.5,59.277c-.013,0-.022.007-.034.007H16.188V56.865a9.244,9.244,0,0,0,4.62-7.906c0-.007,0-.014,0-.022s0-.039,0-.06V44.244a9.25,9.25,0,0,0-18.5,0v4.632c0,.021,0,.039,0,.06s0,.015,0,.022a9.243,9.243,0,0,0,4.62,7.905v2.419H4.659c-.013,0-.022-.007-.034-.007A4.629,4.629,0,0,0,0,63.9v3.475a1.155,1.155,0,0,0,1.156,1.156ZM11.563,37.313A6.942,6.942,0,0,1,18.5,44.245v4.323a8.046,8.046,0,0,1-6.937,3.775,8.008,8.008,0,0,1-6.937-3.773V44.245A6.942,6.942,0,0,1,11.563,37.313Zm-5.4,15.9a10.343,10.343,0,0,0,5.4,1.446,10.343,10.343,0,0,0,5.4-1.446,6.923,6.923,0,0,1-10.8,0Zm5.4,4.906a9.2,9.2,0,0,0,2.313-.305v1.465H9.25V57.811A9.15,9.15,0,0,0,11.563,58.116ZM4.6,61.591c.008,0,.015,0,.023,0H8.094c.014,0,.024-.008.039-.008h6.859c.015,0,.025.008.039.008H18.5c.008,0,.015,0,.023,0A2.312,2.312,0,0,1,20.813,63.9v2.318H2.313V63.9A2.313,2.313,0,0,1,4.6,61.591Z" transform="translate(0 5.469)"/>
      <path id="Trazado_1036592" data-name="Trazado 1036592" d="M28.938,59.433H26.659c-.013,0-.022-.007-.034-.007A4.629,4.629,0,0,0,22,64.05v3.475a1.155,1.155,0,0,0,1.156,1.156H43.969a1.155,1.155,0,0,0,1.156-1.156V64.05A4.629,4.629,0,0,0,40.5,59.426c-.013,0-.022.007-.034.007H38.188v-.791a1.114,1.114,0,0,0-.074-.368h5.855a1.155,1.155,0,0,0,1.156-1.156V45.6A11.562,11.562,0,1,0,22,45.6V57.118a1.155,1.155,0,0,0,1.156,1.156h5.855a1.119,1.119,0,0,0-.074.368ZM42.813,64.05v2.318h-18.5V64.05A2.313,2.313,0,0,1,26.6,61.741c.008,0,.015,0,.023,0h3.306L33.2,62.834H33.2a1.133,1.133,0,0,0,.721,0h.006l3.265-1.088H40.5c.008,0,.015,0,.023,0A2.313,2.313,0,0,1,42.813,64.05Zm-9.25-27.7a9.261,9.261,0,0,1,9.25,9.25V55.962h-18.5V45.6A9.261,9.261,0,0,1,33.563,36.354Zm2.386,21.92a1.119,1.119,0,0,0-.074.368v1.105l-2.312.771-2.312-.771V58.642a1.114,1.114,0,0,0-.074-.368Z" transform="translate(3.437 5.319)"/>
      <path id="Trazado_1036593" data-name="Trazado 1036593" d="M37.467,24.811a3.469,3.469,0,0,0,0,6.938H44.4a3.461,3.461,0,0,0,3.255-2.311h9.469a1.155,1.155,0,0,0,1.156-1.156V21.345h4.625a1.155,1.155,0,0,0,1.156-1.156V15.563a1.155,1.155,0,0,0-1.156-1.156H51.344a1.155,1.155,0,0,0-1.156,1.156V16.72H47.035l-4.944-2.967V10.938H44.4A3.469,3.469,0,0,0,44.4,4H37.467a3.469,3.469,0,0,0,0,6.938h2.311v2.815l-5.219,3.132a1.156,1.156,0,0,0,0,1.982L39.778,22v2.812Zm0-18.5H44.4a1.156,1.156,0,0,1,0,2.313H37.467a1.156,1.156,0,0,1,0-2.312Zm0,20.811H44.4a1.156,1.156,0,0,1,0,2.313H37.467a1.156,1.156,0,0,1,0-2.312ZM52.5,16.719h9.25v2.314H52.5Zm-11.566-.963,3.534,2.121L40.934,20,37.4,17.876ZM42.091,22l4.944-2.967h3.153v1.156a1.155,1.155,0,0,0,1.156,1.156h4.625v5.78H47.658A3.464,3.464,0,0,0,44.4,24.811H42.091Z" transform="translate(5.312 0.625)"/>
    </g>
  </g>
</svg>
