<svg xmlns="http://www.w3.org/2000/svg" width="100" height="100" viewBox="0 0 100 100">
  <g id="Grupo_1202280" data-name="Grupo 1202280" transform="translate(-908.051 -11767)">
    <rect id="Rectángulo_409792" data-name="Rectángulo 409792" width="100" height="100" transform="translate(908.051 11767)" fill="none"/>
    <g id="Grupo_1202279" data-name="Grupo 1202279" transform="translate(917.061 11775.992)">
      <path id="Trazado_1036594" data-name="Trazado 1036594" d="M390.831,47V33.371a1.363,1.363,0,0,0-1.363-1.363h-5.452v2.726H388.1V47Zm0,0" transform="translate(-318.598 -26.548)"/>
      <path id="Trazado_1036595" data-name="Trazado 1036595" d="M56.016,240.008v34.074a1.363,1.363,0,0,0,1.363,1.363H111.9a1.363,1.363,0,0,0,1.363-1.363v-9.541h-2.726v8.178H58.742V240.008Zm0,0" transform="translate(-46.481 -199.111)"/>
      <path id="Trazado_1036596" data-name="Trazado 1036596" d="M100.2.144c-.043-.019-.083-.03-.127-.045a1.355,1.355,0,0,0-.353-.071.52.52,0,0,0-.085-.021H57.379a1.363,1.363,0,0,0-1.363,1.363V4.1h2.726V2.734H98.268v10.9A1.363,1.363,0,0,0,99.631,15h10.9v6.815h2.726V13.638c0-.029-.015-.055-.017-.085a1.328,1.328,0,0,0-.071-.353c-.015-.044-.026-.085-.045-.127a1.354,1.354,0,0,0-.272-.4L100.589.407A1.365,1.365,0,0,0,100.2.144Zm8.412,12.13h-7.614V4.661Zm0,0" transform="translate(-46.481 0)"/>
      <path id="Trazado_1036597" data-name="Trazado 1036597" d="M184.016,329.371v10.9a1.363,1.363,0,0,0,1.363,1.363H203.1v-2.726H186.742v-8.178h6.815v-2.726h-8.178A1.363,1.363,0,0,0,184.016,329.371Zm0,0" transform="translate(-152.673 -272.118)"/>
      <path id="Trazado_1036598" data-name="Trazado 1036598" d="M216.016,360.008h8.178v2.726h-8.178Zm0,0" transform="translate(-179.221 -298.666)"/>
      <path id="Trazado_1036599" data-name="Trazado 1036599" d="M151.9,136.008a9.553,9.553,0,0,0-9.541,9.541v.136l-6.951,7.338-4.352-4.352a1.363,1.363,0,0,0-1.927,0L116.86,160.938a1.364,1.364,0,0,0,0,1.927l19.082,19.082a1.364,1.364,0,0,0,1.927,0l4.089-4.089,7.214-7.212V191.89H96.016v2.726h54.519a1.363,1.363,0,0,0,1.363-1.363V160.541h-2.726v6.251l-4.751-4.751,7.341-6.951h.136a9.541,9.541,0,0,0,0-19.082ZM136.9,179.059,119.751,161.9l2.162-2.162L139.067,176.9Zm10.339-10.339-6.251,6.251L123.84,157.815l6.251-6.251,3.44,3.44-3.067,3.236a1.363,1.363,0,0,0,.026,1.908l6.815,6.815a1.363,1.363,0,0,0,1.9.026l3.237-3.067Zm4.653-16.356h-.682a1.365,1.365,0,0,0-.938.373l-11.985,11.348-4.933-4.933,11.354-11.985a1.363,1.363,0,0,0,.368-.938v-.681a6.815,6.815,0,1,1,6.815,6.815Zm0,0" transform="translate(-79.666 -112.829)"/>
      <path id="Trazado_1036600" data-name="Trazado 1036600" d="M152.016,232.008h13.63v2.726h-13.63Zm0,0" transform="translate(-126.125 -192.474)"/>
      <path id="Trazado_1036601" data-name="Trazado 1036601" d="M104.016,264.008h16.356v2.726H104.016Zm0,0" transform="translate(-86.303 -219.022)"/>
      <path id="Trazado_1036602" data-name="Trazado 1036602" d="M176.016,200.008h16.356v2.726H176.016Zm0,0" transform="translate(-146.036 -165.926)"/>
      <path id="Trazado_1036603" data-name="Trazado 1036603" d="M104.016,296.008h8.178v2.726h-8.178Zm0,0" transform="translate(-86.303 -245.57)"/>
      <path id="Trazado_1036604" data-name="Trazado 1036604" d="M104.016,328.008h10.9v2.726h-10.9Zm0,0" transform="translate(-86.303 -272.118)"/>
      <path id="Trazado_1036605" data-name="Trazado 1036605" d="M104.016,360.008h10.9v2.726h-10.9Zm0,0" transform="translate(-86.303 -298.666)"/>
      <path id="Trazado_1036606" data-name="Trazado 1036606" d="M104.016,392.008h10.9v2.726h-10.9Zm0,0" transform="translate(-86.303 -325.214)"/>
      <path id="Trazado_1036607" data-name="Trazado 1036607" d="M104.016,232.008h5.452v2.726h-5.452Zm0,0" transform="translate(-86.303 -192.474)"/>
      <path id="Trazado_1036608" data-name="Trazado 1036608" d="M168.016,296.008h5.452v2.726h-5.452Zm0,0" transform="translate(-139.399 -245.57)"/>
      <path id="Trazado_1036609" data-name="Trazado 1036609" d="M200.016,160.008h13.63v2.726h-13.63Zm0,0" transform="translate(-165.947 -132.74)"/>
      <path id="Trazado_1036610" data-name="Trazado 1036610" d="M16.35,64.708A16.356,16.356,0,0,0,32.677,48.924a3.6,3.6,0,0,0,2.643.826,3.7,3.7,0,0,0,5.676,0,3.7,3.7,0,0,0,4.012-4.012,3.7,3.7,0,0,0,0-5.676A3.7,3.7,0,0,0,41,36.05a3.7,3.7,0,0,0-5.676,0,3.7,3.7,0,0,0-4.012,4.012,3.539,3.539,0,0,0-.545.562A16.356,16.356,0,1,0,16.35,64.708ZM33.341,42a1.362,1.362,0,0,0,.775-1.868.954.954,0,0,1,1.274-1.274,1.362,1.362,0,0,0,1.868-.775.954.954,0,0,1,1.8,0,1.363,1.363,0,0,0,1.869.775A.954.954,0,0,1,42.2,40.132,1.362,1.362,0,0,0,42.975,42a.954.954,0,0,1,0,1.8,1.363,1.363,0,0,0-.775,1.869.917.917,0,0,1-.188,1.09.928.928,0,0,1-1.091.188,1.362,1.362,0,0,0-1.868.774.954.954,0,0,1-1.8,0,1.36,1.36,0,0,0-.763-.8,1.39,1.39,0,0,0-.522-.1,1.335,1.335,0,0,0-.584.136.954.954,0,0,1-1.274-1.274,1.363,1.363,0,0,0-.775-1.869.954.954,0,0,1,0-1.8ZM16.35,34.722A13.63,13.63,0,1,1,2.72,48.352,13.63,13.63,0,0,1,16.35,34.722Zm0,0" transform="translate(0 -26.537)"/>
      <path id="Trazado_1036611" data-name="Trazado 1036611" d="M38.448,97.909a1.364,1.364,0,0,0,1.927,0l13.63-13.63-1.927-1.927L39.412,95.018l-3.125-3.125L34.359,93.82Zm0,0" transform="translate(-28.514 -68.315)"/>
    </g>
  </g>
</svg>
