<svg xmlns="http://www.w3.org/2000/svg" width="82" height="82" viewBox="0 0 82 82">
  <g id="Grupo_1202217" data-name="Grupo 1202217" transform="translate(-444.835 -2023)">
    <rect id="Rectángulo_409885" data-name="Rectángulo 409885" width="82" height="82" transform="translate(444.835 2023)" fill="none"/>
    <path id="Trazado_1036397" data-name="Trazado 1036397" d="M59,4H25.43a1,1,0,0,0,0,2h8.014l-4.079,4.079s-8.934,8.936-8.936,8.936c-1.562-1.568-4.736-4.732-6.3-6.3l7-7A1.01,1.01,0,0,0,20.43,4H5A1,1,0,0,0,4,5V59a1,1,0,0,0,1,1H59a1,1,0,0,0,1-1V35.22a1,1,0,0,0-2,0v7.937l-6.714,6.714-6.3-6.3L59.707,28.85A1.106,1.106,0,0,0,60,28.14S60,5,60,5a1,1,0,0,0-1-1ZM33.929,51.8c-1.567-1.574-4.733-4.727-6.3-6.3C32.087,41.042,41.046,32.089,45.5,27.629l6.3,6.3-8.936,8.936L33.929,51.8ZM15.128,58c1.351-1.349,9.546-9.547,11.086-11.086,1.568,1.572,4.732,4.729,6.3,6.3L27.729,58ZM6,48.872v-12.6l4.786-4.786c1.508,1.525,4.817,4.806,6.3,6.3C15.5,39.373,7.4,47.472,6,48.872ZM6,20.843l6.714-6.714c1.568,1.573,4.732,4.729,6.3,6.3l-8.936,8.936L6,33.443v-12.6ZM36.271,6h12.6c-1.355,1.353-9.541,9.543-11.084,11.084-1.559-1.554-4.737-4.734-6.3-6.3L36.271,6ZM12.2,30.071,30.07,12.2l4.191,4.185L36.374,18.5l-5.4,5.4a1,1,0,1,0,1.414,1.414l6.11-6.11s8.932-8.932,8.933-8.933l6.3,6.3C49.261,21.025,40.3,30.01,35.857,34.443c.07.1-6.808-6.829-7-7a1.778,1.778,0,0,0-.358-.232,1.069,1.069,0,0,0-1.065.223L18.5,36.372c-1.553-1.575-4.75-4.735-6.3-6.3ZM19.2,38.5c.01-.017,8.946-8.923,8.954-8.941l6.293,6.293C29.987,40.31,21.026,49.276,16.571,53.729l-6.3-6.3ZM58,27.729l-4.786,4.786-6.3-6.3.551-.551L58,15.128v12.6ZM58,12.3l-2.857,2.857-6.3-6.3L51.7,6H58v6.3ZM18.015,6c-3,2.994-9.02,9.021-12.015,12.015C6,18.015,6,6,6,6H18.015ZM6,51.7l2.857-2.857,6.3,6.3L12.3,58H6ZM45.986,58c3-2.994,9.02-9.021,12.014-12.014C58,45.986,58,58,58,58Zm-2.828,0h-12.6l4.079-4.079,8.936-8.936,6.3,6.3L43.157,58Z" transform="translate(453.835 2032)"/>
  </g>
</svg>
