<svg xmlns="http://www.w3.org/2000/svg" width="100" height="100" viewBox="0 0 100 100">
  <g id="Grupo_1202287" data-name="Grupo 1202287" transform="translate(-268.051 -13804)">
    <rect id="Rectángulo_409800" data-name="Rectángulo 409800" width="100" height="100" transform="translate(268.051 13804)" fill="none"/>
    <g id="Grupo_1202290" data-name="Grupo 1202290" transform="translate(274.051 13811)">
      <g id="Grupo_1202290-2" data-name="Grupo 1202290" transform="translate(0 0)">
        <path id="Trazado_1036651" data-name="Trazado 1036651" d="M85.313,186.779a1.268,1.268,0,0,0-1.268,1.268v24.57a2.15,2.15,0,0,1-2.148,2.148H44.217v-.782a4.69,4.69,0,0,0-4.685-4.685H28.843V178.012H39.667a4.011,4.011,0,0,0,1.092,1.68l-5.125,11.5H34.066a2.3,2.3,0,0,0-2.293,2.293v1.025a6.742,6.742,0,0,0,6.735,6.735h9.908a6.742,6.742,0,0,0,6.735-6.735v-1.025a2.3,2.3,0,0,0-2.293-2.293H51.289l-5.125-11.5a4,4,0,1,0-6.5-4.217H34.309v-1.806a3.664,3.664,0,0,0-3.66-3.66H28.843v-2.148a1.268,1.268,0,1,0-2.537,0v2.148H24.5a3.644,3.644,0,0,0-1.123.177V158.592a1.268,1.268,0,0,0-2.537,0v16.883H15.482a4,4,0,1,0-6.5,4.217l-5.125,11.5H2.293A2.3,2.3,0,0,0,0,193.484v1.025a6.742,6.742,0,0,0,6.735,6.735h9.908a6.7,6.7,0,0,0,4.2-1.474V209.3H15.617a4.69,4.69,0,0,0-4.685,4.685v.782H7.589a1.268,1.268,0,0,0,0,2.537H81.9a4.69,4.69,0,0,0,4.684-4.684v-24.57A1.268,1.268,0,0,0,85.313,186.779Zm-32.7,7.731a4.2,4.2,0,0,1-4.2,4.2H38.508a4.2,4.2,0,0,1-4.2-4.2v-.782h18.3v.782Zm-4.1-3.318h-10.1l4.664-10.465c.127.012.256.019.386.019s.259-.007.386-.019Zm-5.05-15.912A1.465,1.465,0,1,1,42,176.744,1.467,1.467,0,0,1,43.461,175.279ZM24.5,172.546h6.15a1.124,1.124,0,0,1,1.123,1.123v1.806h-8.4v-1.808A1.125,1.125,0,0,1,24.5,172.546Zm-12.812,2.733a1.465,1.465,0,1,1-1.465,1.465A1.467,1.467,0,0,1,11.688,175.279Zm-.386,5.447c.127.012.256.019.386.019s.259-.007.386-.019l4.664,10.465H6.638Zm9.538,13.783a4.2,4.2,0,0,1-4.2,4.2H6.735a4.2,4.2,0,0,1-4.2-4.2v-.782h18.3Zm-1.324-3.318-5.125-11.5a4.011,4.011,0,0,0,1.092-1.68H20.84v13.18Zm3.861-13.179h2.93V209.3h-2.93Zm-9.908,35.971a2.151,2.151,0,0,1,2.148-2.148H39.532a2.151,2.151,0,0,1,2.148,2.148v.782H13.469Z" transform="translate(0 -130.72)"/>
        <path id="Trazado_1036652" data-name="Trazado 1036652" d="M184.3,0H127.924a4.689,4.689,0,0,0-4.684,4.684V21.937a1.268,1.268,0,0,0,2.537,0V4.684a2.15,2.15,0,0,1,2.148-2.148H184.3a2.15,2.15,0,0,1,2.148,2.148V51.391a1.268,1.268,0,1,0,2.537,0V4.684A4.69,4.69,0,0,0,184.3,0Z" transform="translate(-102.4 0)"/>
        <path id="Trazado_1036653" data-name="Trazado 1036653" d="M365.993,99.56a2.638,2.638,0,0,0-2.635-2.635H345.08a2.638,2.638,0,0,0-2.635,2.635v2.733a2.638,2.638,0,0,0,2.635,2.635h18.278a2.638,2.638,0,0,0,2.635-2.635Zm-2.537,2.733a.1.1,0,0,1-.1.1H345.08a.1.1,0,0,1-.1-.1V99.56a.1.1,0,0,1,.1-.1h18.278a.1.1,0,0,1,.1.1Z" transform="translate(-284.536 -80.535)"/>
        <path id="Trazado_1036654" data-name="Trazado 1036654" d="M193.555,34.867h15.823a1.268,1.268,0,1,0,0-2.537H193.555a2.638,2.638,0,0,0-2.635,2.635V37.7a2.638,2.638,0,0,0,2.635,2.635h37.582a2.638,2.638,0,0,0,2.635-2.635V34.965a2.638,2.638,0,0,0-2.635-2.635H215.313a1.268,1.268,0,1,0,0,2.537h15.823a.1.1,0,0,1,.1.1V37.7a.1.1,0,0,1-.1.1H193.555a.1.1,0,0,1-.1-.1V34.965A.1.1,0,0,1,193.555,34.867Z" transform="translate(-158.635 -26.863)"/>
        <path id="Trazado_1036655" data-name="Trazado 1036655" d="M310.12,98.193v22.9a1.268,1.268,0,0,0,2.537,0v-22.9a1.268,1.268,0,0,0-2.537,0Z" transform="translate(-257.678 -80.535)"/>
        <path id="Trazado_1036656" data-name="Trazado 1036656" d="M155.565,99.56v2.733a2.638,2.638,0,0,0,2.635,2.635h17.936a2.638,2.638,0,0,0,2.635-2.635V99.56a2.638,2.638,0,0,0-2.635-2.635H158.2a2.638,2.638,0,0,0-2.635,2.635Zm20.67,0v2.733a.1.1,0,0,1-.1.1H158.2a.1.1,0,0,1-.1-.1V99.56a.1.1,0,0,1,.1-.1h17.936a.1.1,0,0,1,.1.1Z" transform="translate(-129.258 -80.535)"/>
        <path id="Trazado_1036657" data-name="Trazado 1036657" d="M204.362,161.576h-15.2a1.268,1.268,0,0,0,0,2.537h15.2a1.268,1.268,0,0,0,0-2.537Z" transform="translate(-156.117 -134.253)"/>
        <path id="Trazado_1036658" data-name="Trazado 1036658" d="M204.362,193.9h-15.2a1.268,1.268,0,0,0,0,2.537h15.2a1.268,1.268,0,0,0,0-2.537Z" transform="translate(-156.117 -161.112)"/>
        <path id="Trazado_1036659" data-name="Trazado 1036659" d="M343.713,164.113h15.2a1.268,1.268,0,0,0,0-2.537h-15.2a1.268,1.268,0,0,0,0,2.537Z" transform="translate(-284.536 -134.253)"/>
        <path id="Trazado_1036660" data-name="Trazado 1036660" d="M343.713,196.438h15.2a1.268,1.268,0,0,0,0-2.537h-15.2a1.268,1.268,0,0,0,0,2.537Z" transform="translate(-284.536 -161.112)"/>
        <path id="Trazado_1036661" data-name="Trazado 1036661" d="M343.713,402.561h11.23a1.268,1.268,0,0,0,0-2.537h-11.23a1.268,1.268,0,0,0,0,2.537Z" transform="translate(-284.536 -332.378)"/>
        <path id="Trazado_1036662" data-name="Trazado 1036662" d="M343.713,464.675a1.268,1.268,0,0,0,0,2.537h11.23a1.268,1.268,0,0,0,0-2.537Z" transform="translate(-284.536 -386.097)"/>
        <path id="Trazado_1036663" data-name="Trazado 1036663" d="M365.993,433.618a1.268,1.268,0,0,0-1.268-1.268H343.713a1.268,1.268,0,0,0,0,2.537h21.011A1.268,1.268,0,0,0,365.993,433.618Z" transform="translate(-284.536 -359.238)"/>
      </g>
    </g>
  </g>
</svg>
