<svg xmlns="http://www.w3.org/2000/svg" width="82" height="82" viewBox="0 0 82 82">
  <g id="Grupo_1202556" data-name="Grupo 1202556" transform="translate(-1231.924 -1701)">
    <rect id="Rectángulo_409884" data-name="Rectángulo 409884" width="82" height="82" transform="translate(1231.924 1701)" fill="none"/>
    <g id="Grupo_1202555" data-name="Grupo 1202555" transform="translate(1240.796 1710.008)">
      <path id="Trazado_1036874" data-name="Trazado 1036874" d="M58.1,23.414a8.7,8.7,0,0,0,1.673-6.556,1.009,1.009,0,0,0-1.713-.5c-.021.023-2.231,2.316-9.452,6.291-5.829,3.209-12.066,2.886-19.066-.99-2.772-1.535-4.391-4.933-5.26-7.513-.072-.215-.174-.412-.265-.616.794-1.539,2.244-4.951.415-6.447a3.3,3.3,0,0,0-3.872-.007,5.233,5.233,0,0,0-3-2.967c-1.944-.619-3.174,1.442-3.535,3.077a10.5,10.5,0,0,0-2.927-.6C7,6.549,9.143,11.2,10.42,13.261a7.4,7.4,0,0,0-.75,2.5c-1.6.361-4.946,1.521-5.527,4.987A1.007,1.007,0,0,0,5.265,21.9l4.455-.6a6.336,6.336,0,0,0,.639,1.9c-.342,1.318-1.19,5.477,1.046,7.7a2.467,2.467,0,0,0,3.536.18c-.111,7.815,4.9,12.38,8.429,14.616v8.084l-3.417,1.62A1,1,0,0,0,20.81,57.2l3.474-1.647,2.338,1.573a1,1,0,1,0,1.117-1.659l-2.369-1.594V46.82c.323.16.6.29.823.385a7.183,7.183,0,0,0,6.491,5.358v3.913L29.267,58.1a1,1,0,0,0,.857,1.808L33.6,58.257l2.338,1.573a1,1,0,1,0,1.117-1.659l-2.369-1.594V52.568a8.212,8.212,0,0,0,7-4.7C53.13,44.994,54.144,36.041,54.131,32.86h3.394c2.012-.219.678-3.695-.008-4.376H58.87a1,1,0,0,0,1-1.06,5.485,5.485,0,0,0-1.765-4.01ZM20.773,9.39c.016-.015,1.587-1.426,2.4-.763.332.272.108,1.534-.446,2.918a7.457,7.457,0,0,0-2.8-1.9,1,1,0,0,0,.847-.251Zm-5.04-.443c.1-1,.526-2.565,1.046-2.911,1.32-.024,2.182,2.251,2.335,2.864a.99.99,0,0,0,.4.571A7.67,7.67,0,0,0,17.162,9.1c-.612-.117-1.741.443-1.429-.158ZM10.7,8.581a1.174,1.174,0,0,1,.238,0c2.227.184,2.86.707,2.949.791a.979.979,0,0,0,.344.323A7.569,7.569,0,0,0,11.7,11.449a6.83,6.83,0,0,1-1-2.869ZM9.62,17.841c0,.348,0,1.1,0,1.451l-2.925.4A5.515,5.515,0,0,1,9.62,17.841ZM13.314,29.72c-.057.01-.209.044-.5-.244-.954-.948-1-2.737-.819-4.2a10.51,10.51,0,0,0,3.3,1.965c-.509,1.079-1.357,2.356-1.976,2.484Zm42.242-5.911a1.018,1.018,0,0,0,.671.756,2.636,2.636,0,0,1,1.478,1.918H54.714a1,1,0,0,0-.422,1.907,4.187,4.187,0,0,1,2.2,2.47H53.082a1.008,1.008,0,0,0-.991,1.132c.06.454,1.311,11.154-11.378,14.057a1.01,1.01,0,0,0-.734.685c-.049.159-1.263,3.882-6.295,3.882-4.919,0-5.6-4.1-5.627-4.273a1,1,0,0,0-.655-.8c-.545-.2-13.326-4.938-9.881-18.716a1,1,0,0,0-.734-1.214c-.052-.013-5.179-1.3-5.167-5.443,0-.884,0-2.679,0-3.566a5.548,5.548,0,0,1,10.771-1.821c.981,2.916,2.852,6.779,6.186,8.625,7.651,4.236,14.519,4.56,21,.992a65.379,65.379,0,0,0,8.219-5.2,5.89,5.89,0,0,1-1.925,3.657,1,1,0,0,0-.313.951Z"/>
      <path id="Trazado_1036875" data-name="Trazado 1036875" d="M48.006,28.645H32.233a1,1,0,0,0,0,2H46.9a4.8,4.8,0,0,1-4.694,3.763H37.038a1,1,0,0,0,0,2h2.988a5.236,5.236,0,0,1-5.164,5.834H31.146a5.149,5.149,0,0,1-5.164-5.123V35.35a1.262,1.262,0,0,1,1.261-1.26,1,1,0,0,0,0-2,3.264,3.264,0,0,0-3.261,3.26v1.769a7.152,7.152,0,0,0,7.164,7.123h3.717a7.152,7.152,0,0,0,7.164-7.123v-.711a6.8,6.8,0,0,0,6.979-6.763,1,1,0,0,0-1-1Z"/>
      <path id="Trazado_1036876" data-name="Trazado 1036876" d="M14.587,13.924a1.178,1.178,0,0,0,0,2.356,1.178,1.178,0,0,0,0-2.356Z"/>
    </g>
  </g>
</svg>
