<svg xmlns="http://www.w3.org/2000/svg" width="70" height="70" viewBox="0 0 70 70">
  <g id="Grupo_1202561" data-name="Grupo 1202561" transform="translate(-621.924 -2753)">
    <circle id="Elipse_12371" data-name="Elipse 12371" cx="35" cy="35" r="35" transform="translate(621.924 2753)" fill="#26c790"/>
    <path id="Trazado_1036882" data-name="Trazado 1036882" d="M9.718,18.86A4.35,4.35,0,0,1,12.828,17l9.32-1a4.39,4.39,0,0,1,4.89,4.17l.28,6.07h8.57a7,7,0,0,0,3.86-5.41l.46-3.89h-.9a3.43,3.43,0,0,1-1.35-6.59,3.43,3.43,0,0,1,4.46-4.48,3.44,3.44,0,0,1,6.62,1.36V9H50.8a2.57,2.57,0,0,1,1.87,4.33l-.82.86,2,1.43a3,3,0,0,1,1.24,1.94,2.93,2.93,0,0,1-.5,2.23,3,3,0,0,1-1.9,1.21h-.15a29.84,29.84,0,0,1,1,14.44,14.09,14.09,0,0,1-11.42,11.45l-.5,1.94a3.18,3.18,0,0,1-1.54,2l.27,2.88,3,4.13a3.89,3.89,0,0,1,1.87-.47,4,4,0,0,1,2.82,1.12,1,1,0,0,1-1.4,1.43,2,2,0,0,0-1.38-.57,2.07,2.07,0,0,0-1.39.57,1,1,0,0,1-1.4,0,2.07,2.07,0,0,0-1.43-.57,2,2,0,0,0-1.37.57,1,1,0,1,1-1.41-1.43,4.12,4.12,0,0,1,2.31-1.11l-2-2.73a1.13,1.13,0,0,1-.19-.5l-.27-3a3.18,3.18,0,0,1-2.34-1.44l-1.73-2.61-3,2.9a3.12,3.12,0,0,1-2.24.95h-.29l-1.44,2.95,2.74,3.9a3.85,3.85,0,0,1,1.86-.46,4.08,4.08,0,0,1,2.78,1.14,1.008,1.008,0,1,1-1.41,1.44,2,2,0,0,0-1.38-.57,2.07,2.07,0,0,0-1.39.57,1,1,0,0,1-1.4,0,2.07,2.07,0,0,0-1.39-.57,2,2,0,0,0-1.38.57,1,1,0,0,1-1.4-1.43,4.07,4.07,0,0,1,2.36-1.11l-2-2.8a1,1,0,0,1-.08-1l1.66-3.38a3.15,3.15,0,0,1-1.07-2.38V46.39a20.4,20.4,0,0,1-14.41-14.94l-2.13-9a4.39,4.39,0,0,1,.69-3.59ZM47.038,7.23a1.44,1.44,0,0,0-2.88,0v.39a1,1,0,0,1-1.72.69l-.26-.26a1.44,1.44,0,1,0-2,2l.28.28a1.006,1.006,0,0,1-.71,1.71h-.39a1.44,1.44,0,1,0,0,2.87h1.08l.11-.89A5.77,5.77,0,0,1,46.268,9h.77Zm6,11.38a.994.994,0,0,0-.25-1.38l-2.18-1.53,1.2,3.3a.91.91,0,0,0,.54.07,1,1,0,0,0,.69-.46ZM37.448,48.67a1.23,1.23,0,0,0,2.23-.35l.36-1.23h-3.6ZM10.968,22l2.13,9a18.39,18.39,0,0,0,13.77,13.63,1,1,0,0,1,.78,1V47.8a1.16,1.16,0,0,0,.73,1.09h.06a1.15,1.15,0,0,0,1.22-.28l3.2-3.23a1,1,0,0,1,.71-.3H39.7a12.1,12.1,0,0,0,11.91-10,28,28,0,0,0-1.42-14.8l-1.76-4.61a1,1,0,0,1,.2-1l2.58-2.72a.57.57,0,0,0-.41-1h-4.53a3.78,3.78,0,0,0-3.74,3.32l-.8,6.78a8.9,8.9,0,0,1-2.48,5.17h.13a4.84,4.84,0,0,1,4,2.11,4.77,4.77,0,0,1,.51,4.45,15.47,15.47,0,0,1-3.78,5.6,1,1,0,1,1-1.37-1.46,13.31,13.31,0,0,0,3.3-4.84,2.83,2.83,0,0,0-2.65-3.84H19.858a2.81,2.81,0,0,0-2.35,1.24,2.77,2.77,0,0,0-.3,2.6,13.34,13.34,0,0,0,17,7.64,1,1,0,1,1,.7,1.88,15.37,15.37,0,0,1-5.34.95,15.21,15.21,0,0,1-14.22-9.75,4.77,4.77,0,0,1,.51-4.45,4.86,4.86,0,0,1,4-2.11H25.3l-.28-6A2.4,2.4,0,0,0,22.368,18l-9.33,1a2.41,2.41,0,0,0-2.07,3Zm33.31-8.5a1.3,1.3,0,1,0,1.3-1.3,1.3,1.3,0,0,0-1.3,1.3Z" transform="translate(625.021 2756.258)"/>
  </g>
</svg>
