<svg xmlns="http://www.w3.org/2000/svg" width="82" height="82" viewBox="0 0 82 82">
  <g id="Grupo_1202218" data-name="Grupo 1202218" transform="translate(-759.835 -2023)">
    <rect id="Rectángulo_409886" data-name="Rectángulo 409886" width="82" height="82" transform="translate(759.835 2023)" fill="none"/>
    <path id="Trazado_1036398" data-name="Trazado 1036398" d="M73.2,11.6a.8.8,0,0,0,0-1.6H10.8a.8.8,0,0,0,0,1.6h2.893v5.412H10.8a.8.8,0,0,0-.8.8V71.6a.8.8,0,0,0,.216.547,6.323,6.323,0,0,0,8.355.475,6.417,6.417,0,0,0,3.859,1.371,6.779,6.779,0,0,0,3.94-1.372,6.417,6.417,0,0,0,3.86,1.372,6.779,6.779,0,0,0,3.94-1.372,6.417,6.417,0,0,0,3.86,1.372,6.779,6.779,0,0,0,3.94-1.372,6.417,6.417,0,0,0,3.86,1.372,6.779,6.779,0,0,0,3.94-1.372,6.417,6.417,0,0,0,3.86,1.372,6.779,6.779,0,0,0,3.94-1.372,6.417,6.417,0,0,0,3.86,1.372,6.779,6.779,0,0,0,3.94-1.372,6.417,6.417,0,0,0,3.86,1.372,7.062,7.062,0,0,0,4.472-1.77A.8.8,0,0,0,74,71.6V17.812a.8.8,0,0,0-.8-.8H70.1V11.6ZM54.5,17.012V11.6h6.2v5.412Zm-7.8,0V11.6h6.2v5.412Zm-7.8,0V11.6h6.2v5.412Zm-7.593,0V11.6H37.3v5.412Zm-8.007,0V11.6h6.407v5.412ZM15.293,11.6H21.7v5.412H15.293ZM11.6,71.253V18.612h6.2V71.207C14.7,73.486,12.314,71.861,11.6,71.253Zm7.8,0V18.612h6.2V71.207C22.5,73.486,20.114,71.861,19.4,71.253Zm7.8,0V18.612h6.2V71.207C30.305,73.486,27.914,71.861,27.2,71.253Zm7.8,0V18.612h6.2V71.207C38.1,73.486,35.714,71.861,35,71.253Zm7.8,0V18.612H49V71.207C45.905,73.486,43.514,71.861,42.8,71.253Zm7.8,0V18.612h6.2V71.207C53.7,73.486,51.314,71.861,50.6,71.253Zm7.8,0V18.612h6.2V71.207C61.5,73.486,59.114,71.861,58.4,71.253Zm14-.046c-3.1,2.279-5.486.654-6.2.046V18.612h6.2ZM68.5,17.012H62.3V11.6h6.2Z" transform="translate(758.835 2022)"/>
  </g>
</svg>
