<svg xmlns="http://www.w3.org/2000/svg" width="80" height="80" viewBox="0 0 80 80">
  <g id="Grupo_1202640" data-name="Grupo 1202640" transform="translate(-10371 10585)">
    <rect id="Rectángulo_409950" data-name="Rectángulo 409950" width="80" height="80" transform="translate(10371 -10585)" fill="none"/>
    <g id="Grupo_1202639" data-name="Grupo 1202639" transform="translate(10379 -10569)">
      <path id="Trazado_1037186" data-name="Trazado 1037186" d="M63.216,14.347H40.1a.94.94,0,0,0,0,1.88H62.277v1.88H1.88v-1.88h34.2a.94.94,0,1,0,0-1.88H34.9V11.459a6.077,6.077,0,1,0-5.639,0v2.889H.94a.939.939,0,0,0-.94.94v3.759a.939.939,0,0,0,.94.94H13.094v6.2H9.679a4.61,4.61,0,0,0-4.6,4.6V34.96H4.762a2.819,2.819,0,0,0-.313,5.621v3.611a3.93,3.93,0,0,0,3.925,3.925h1.1a.94.94,0,1,0,0-1.88h-1.1a2.048,2.048,0,0,1-2.046-2.046V40.6H25.75v3.593A2.048,2.048,0,0,1,23.7,46.238H13.551a.94.94,0,0,0,0,1.88H23.7a3.93,3.93,0,0,0,3.925-3.925V40.581a2.819,2.819,0,0,0-.313-5.621H27V30.793a4.61,4.61,0,0,0-4.6-4.6H18.984v-6.2H45.173v6.2H41.757a4.61,4.61,0,0,0-4.6,4.6V34.96H36.84a2.819,2.819,0,0,0-.313,5.621v3.611a3.93,3.93,0,0,0,3.925,3.925H51.144a.94.94,0,0,0,0-1.88H40.452a2.048,2.048,0,0,1-2.046-2.046V40.6H57.828v3.593a2.048,2.048,0,0,1-2.046,2.046h-.629a.94.94,0,0,0,0,1.88h.629a3.93,3.93,0,0,0,3.925-3.925V40.581a2.819,2.819,0,0,0-.313-5.621h-.313V30.793a4.61,4.61,0,0,0-4.6-4.6H51.062v-6.2H63.216a.939.939,0,0,0,.94-.94V15.287A.939.939,0,0,0,63.216,14.347ZM27.88,6.077a4.2,4.2,0,1,1,4.2,4.2A4.2,4.2,0,0,1,27.88,6.077Zm3.258,6a6.092,6.092,0,0,0,1.88,0v2.266h-1.88Zm-12.7,18.387V34.96h-4.8V30.469a2.4,2.4,0,0,1,4.8,0Zm-11.485.324a2.728,2.728,0,0,1,2.724-2.724H12.5a4.258,4.258,0,0,0-.738,2.4V34.96h-4.8Zm21.3,6.987a.941.941,0,0,1-.94.94H4.762a.94.94,0,0,1,0-1.88H27.317A.941.941,0,0,1,28.256,37.78Zm-3.133-6.987V34.96h-4.8V30.469a4.258,4.258,0,0,0-.738-2.4H22.4A2.728,2.728,0,0,1,25.124,30.793Zm-8.02-4.6h-2.13v-6.2H17.1Zm33.413,4.28V34.96h-4.8V30.469a2.4,2.4,0,1,1,4.8,0Zm-11.485.324a2.728,2.728,0,0,1,2.724-2.724h2.818a4.258,4.258,0,0,0-.738,2.4V34.96h-4.8Zm21.3,6.987a.941.941,0,0,1-.94.94H36.84a.94.94,0,0,1,0-1.88H59.395A.941.941,0,0,1,60.334,37.78ZM57.2,30.793V34.96H52.4V30.469a4.258,4.258,0,0,0-.738-2.4h2.818A2.728,2.728,0,0,1,57.2,30.793Zm-8.02-4.6h-2.13v-6.2h2.13Zm0,0"/>
      <path id="Trazado_1037187" data-name="Trazado 1037187" d="M250.938,30.676a.94.94,0,0,0,.665-1.6l-1.223-1.222V26.276a.94.94,0,0,0-1.88,0v1.963a.941.941,0,0,0,.275.665l1.5,1.5A.937.937,0,0,0,250.938,30.676Zm0,0" transform="translate(-217.362 -22.161)"/>
    </g>
  </g>
</svg>
