<svg xmlns="http://www.w3.org/2000/svg" width="85.616" height="96.823" viewBox="0 0 85.616 96.823">
  <g id="Grupo_1202607" data-name="Grupo 1202607" transform="translate(-206.924 -6310)">
    <g id="Grupo_1202524" data-name="Grupo 1202524" transform="translate(206.924 6310)">
      <g id="Grupo_1188468" data-name="Grupo 1188468" transform="translate(0 10.505)">
        <path id="Rectángulo_402603" data-name="Rectángulo 402603" d="M0,0H0A85.616,85.616,0,0,1,85.616,85.616v.7a0,0,0,0,1,0,0H0a0,0,0,0,1,0,0V0A0,0,0,0,1,0,0Z" fill="#fdbab3"/>
      </g>
      <path id="Trazado_874774" data-name="Trazado 874774" d="M9.119,18.631c.06,0,.122,0,.183-.006a3.067,3.067,0,0,0,1.829-.774,2.668,2.668,0,0,0,.938-1.993,12.677,12.677,0,0,0,.079-1.8V12.212h3.767A2.373,2.373,0,0,0,18,11.146a3.3,3.3,0,0,0,.528-1.813,3.113,3.113,0,0,0-.55-1.807,2.361,2.361,0,0,0-2.06-1H12.147v-2a15.044,15.044,0,0,0-.078-1.939A2.424,2.424,0,0,0,11.051.6,3.07,3.07,0,0,0,7.409.6a2.44,2.44,0,0,0-1.02,2.089V6.531H2.929a2.856,2.856,0,0,0-2.3.907,2.6,2.6,0,0,0-.61,2.03,3.337,3.337,0,0,0,.807,1.805,2.683,2.683,0,0,0,2.1.94h3.46v3.536a2.657,2.657,0,0,0,1.02,2.319A2.9,2.9,0,0,0,9.119,18.631ZM16.065,9.9a.55.55,0,0,1-.15.016H9.846v4.147a9.983,9.983,0,0,1-.054,1.465l-.022.112v.114a.393.393,0,0,1-.136.356.781.781,0,0,1-.476.225H9.119a.6.6,0,0,1-.36-.126,1.039,1.039,0,0,1-.069-.456V9.911H2.929a.393.393,0,0,1-.356-.136A1.05,1.05,0,0,1,2.3,9.2a.308.308,0,0,1,.081-.275,1.067,1.067,0,0,1,.543-.092H8.69V2.687c0-.176.036-.2.056-.216a.774.774,0,0,1,.968,0c.02.014.056.04.056.216v.1l.016.094a12.371,12.371,0,0,1,.061,1.655v4.3h6.068a.63.63,0,0,1,.179.019.84.84,0,0,1,.131.482A1.007,1.007,0,0,1,16.065,9.9Z" transform="translate(25.614 26.26) rotate(-137)" fill="#1944b6"/>
    </g>
    <g id="Grupo_1202606" data-name="Grupo 1202606" transform="translate(216.924 6321)">
      <path id="Trazado_1037021" data-name="Trazado 1037021" d="M56.984,34.3A9.455,9.455,0,0,1,66.3,41.632,11.611,11.611,0,0,1,61.577,53.7c-4.948,3.651-10.135,5.984-14.724,6.161a10.008,10.008,0,0,1-10.328-7.047,13.921,13.921,0,0,1-5.573-2.74A8.832,8.832,0,0,1,27.8,45.835a3.084,3.084,0,0,1,.229-2.355,3.187,3.187,0,0,1,2.136-1.417l9.567-2.1a1.067,1.067,0,0,1,.339-.025,1.132,1.132,0,0,1,.147,2.239l-9.563,2.1c-.8.176-.792.468-.661.957a7.268,7.268,0,0,0,2.385,3.079C35,50.45,39.094,51.866,42.531,49.866a1.133,1.133,0,1,1,1.14,1.953,9.3,9.3,0,0,1-4.593,1.265c1.547,3.432,4.172,4.651,7.688,4.516,3.869-.151,8.76-2.256,13.463-5.729a9.241,9.241,0,0,0,3.865-9.7,7.027,7.027,0,0,0-7.109-5.609,1.133,1.133,0,1,1,0-2.264Z" transform="translate(-16.644 -7.58)" fill-rule="evenodd"/>
      <path id="Trazado_1037022" data-name="Trazado 1037022" d="M52.861,65.81c-2.135.833-4.5,1.459-6.733,2.5a4.428,4.428,0,0,0,2.219,1.7,2.636,2.636,0,0,0,2.76-.968,9.26,9.26,0,0,0,1.754-3.24Zm18.3-39.782a4.444,4.444,0,0,0-1.146,4.365c.291.807.749,1.124,1.5.979A1.624,1.624,0,0,0,72.6,30.2a3.654,3.654,0,0,0-.719-3.427,3.823,3.823,0,0,0-.718-.745Zm.9-4.755a2.236,2.236,0,0,0-.667,1.052,1.276,1.276,0,0,0,.2.973,9.453,9.453,0,0,1,3.12.656,4.424,4.424,0,0,0-.495-1.171A5.6,5.6,0,0,0,72.064,21.273ZM65.4,16.023a10.59,10.59,0,0,0-6.615,3.261c-4.141,4.921-6.745,8.509-9.271,11.145A16.627,16.627,0,0,1,40.7,35.617c-7.328,1.667-14.525.723-17.927-2.543s-4.251-3.692-4.765-3.8-.641,0-.771.145c-.261.307-.391,1.583.791,2.76a1.133,1.133,0,0,1-1.093,1.9c-1.249-.353-1.573-.02-1.563.511a7.4,7.4,0,0,0,2.251,4.1,1.136,1.136,0,0,1-1.376,1.781,1.316,1.316,0,0,0-.984-.24.747.747,0,0,0-.484.376,1.718,1.718,0,0,0,.489,2.047c2.9,2.989,3.917,5.651,5.1,8.265a25.191,25.191,0,0,0,6.328,8.88,86.992,86.992,0,0,1,8.756,9.12c1.229,1.427,3.359,2.021,5.448.109,4.156-3.8,9.375-4.416,12.416-5.885,6.964-3.359,11.5-6.708,14.26-10.145a16.02,16.02,0,0,0,3.683-10.985A19.832,19.832,0,0,0,68.6,32.455a6.891,6.891,0,0,1-.812-4.891,7.324,7.324,0,0,1,1.645-3.427,3.825,3.825,0,0,1-.281-2.1,4.393,4.393,0,0,1,1.371-2.672,4.433,4.433,0,0,0-4.251-3.333,6.149,6.149,0,0,0-.87,0Zm1.192-5.37a2.186,2.186,0,0,1-.713.792,1.78,1.78,0,0,1-1.183.228,2.5,2.5,0,0,1-1.281-.719c-.593-.473-.848-.744-1.541-.561a2.163,2.163,0,0,0-1.411,1.943c-.037.828.26,1.609,1.719,2.072a10.661,10.661,0,0,1,3.093-.651,8.569,8.569,0,0,1,1.167.011,6.989,6.989,0,0,1,6.2,4.781,2.44,2.44,0,0,0,1.62-2.021,4.288,4.288,0,0,0-1.088-3.875c-.516-.484-.839-.339-1.355-.183-.287.084-.5.308-.948.48a1.337,1.337,0,0,1-1.151-.016,1.452,1.452,0,0,1-.76-1.115c-.125-.943-.385-1.469-.907-1.729s-1.259.225-1.458.563Zm1.4-3.073c1.683,0,2.375,1.323,2.812,2.865.021-.011.016-.011.037-.021a3.667,3.667,0,0,1,1.739-.4,3.417,3.417,0,0,1,2.157.989,6.428,6.428,0,0,1,1.728,6.021,5.223,5.223,0,0,1-1.885,2.959,8.558,8.558,0,0,1,1.412,1.369,6.7,6.7,0,0,1,1.631,4.109,1.133,1.133,0,0,1-1.491,1.073c-.708-.235-1.432-.5-2.156-.719a5.877,5.877,0,0,1,.776,5.1,3.967,3.967,0,0,1-2.62,2.62,2.952,2.952,0,0,1-.432.088,22.446,22.446,0,0,1,1.823,8.313,18.567,18.567,0,0,1-4.176,12.463c-2.86,3.573-7.3,6.86-13.7,10.093a23.2,23.2,0,0,1-.828,2.573,9.944,9.944,0,0,1-2.135,3.6,5.823,5.823,0,0,1-2.876,1.579v6.281c0,.88.537,1.541,2.043,1.541h3.307a1.134,1.134,0,1,1,0,2.265H51.852a4.057,4.057,0,0,1-4.313-3.807V72.129A6.81,6.81,0,0,1,44.123,69.4a12.855,12.855,0,0,0-1.7,1.3,6.53,6.53,0,0,1-2.6,1.479V78.4c0,.881.588,1.677,2.047,1.677h3.3a1.134,1.134,0,1,1,0,2.265h-3.3a4.02,4.02,0,0,1-3.484-2.088l-1.86,1.776a1.133,1.133,0,1,1-1.567-1.636l2.6-2.484V72.38a5.9,5.9,0,0,1-3.823-1.989,83.433,83.433,0,0,0-8.595-8.953A27.942,27.942,0,0,1,18.3,51.854c-1.219-2.7-2.036-4.921-4.661-7.625a3.9,3.9,0,0,1-.817-4.765,3.06,3.06,0,0,1,2.036-1.416c-.713-1.152-1.733-2.281-1.755-3.412a2.876,2.876,0,0,1,1.224-2.525,1.487,1.487,0,0,1,1.145-.079c-.687-1.459-.9-2.973.037-4.079a3.061,3.061,0,0,1,2.952-.9c1.136.233,2.3.943,5.5,4.015s9.385,3.891,16.233,2.333a13.879,13.879,0,0,0,7.677-4.541c2.365-2.464,4.923-6.14,9.229-11.1a12.37,12.37,0,0,1,2.667-2.151A4.269,4.269,0,0,1,61.277,8.2a4.443,4.443,0,0,1,3.7,1.115A3.688,3.688,0,0,1,67.991,7.58Z" transform="translate(-12.328 -7.58)"/>
      <path id="Trazado_1037023" data-name="Trazado 1037023" d="M24.872,18.153a2.115,2.115,0,1,0,2.109,2.115A2.116,2.116,0,0,0,24.872,18.153Z" transform="translate(27.884 -7.58)" fill-rule="evenodd"/>
    </g>
  </g>
</svg>
