<svg xmlns="http://www.w3.org/2000/svg" width="82" height="82" viewBox="0 0 82 82">
  <g id="Grupo_1202611" data-name="Grupo 1202611" transform="translate(-768.924 -8213)">
    <rect id="Rectángulo_409950" data-name="Rectángulo 409950" width="82" height="82" transform="translate(768.924 8213)" fill="none"/>
    <g id="Grupo_1202610" data-name="Grupo 1202610" transform="translate(777.924 8222)">
      <path id="Trazado_1037027" data-name="Trazado 1037027" d="M.936,19.856h1.94a.936.936,0,1,0,0-1.873H.936a.936.936,0,1,0,0,1.873ZM62.049,39.617v-12.3a9.349,9.349,0,0,0-9.338-9.338H44.476a4.69,4.69,0,0,0-4.588-3.745H37.01V11.223a2.814,2.814,0,0,0,2.626-2.236h6.188a5.81,5.81,0,1,0,0-6.354H39.636A2.814,2.814,0,0,0,36.885.394h-6.1a2.814,2.814,0,0,0-2.751,2.239H21.844a5.81,5.81,0,1,0,0,6.353h6.188a2.814,2.814,0,0,0,2.626,2.236v3.014H27.779a4.689,4.689,0,0,0-4.588,3.746H16.069a2.808,2.808,0,0,0-5.3,0H6.454a.936.936,0,0,0,0,1.873h4.158v8.989H.936a.936.936,0,1,0,0,1.873h9.837a2.809,2.809,0,0,0,5.3,0h7.119a10.736,10.736,0,0,0,16.427,7.675.936.936,0,0,0-1.01-1.577,8.866,8.866,0,0,1-13.635-7.472V18.919a2.812,2.812,0,0,1,2.809-2.809h12.11A2.812,2.812,0,0,1,42.7,18.919V29.344a8.8,8.8,0,0,1-1.68,5.194.936.936,0,1,0,1.517,1.1,10.641,10.641,0,0,0,1.948-4.919h4.429a.4.4,0,0,1,.4.4v8.5a2.809,2.809,0,0,0,.936,5.457H61.113a2.809,2.809,0,0,0,.936-5.457ZM39.694,4.506H46.36a.936.936,0,0,0,.831-.5,3.937,3.937,0,1,1,0,3.618.936.936,0,0,0-.831-.505H39.694V4.506ZM27.973,7.114H21.308a.936.936,0,0,0-.831.505,3.937,3.937,0,1,1,0-3.618.936.936,0,0,0,.831.5h6.666V7.114ZM14.357,29.781a.936.936,0,0,1-1.873,0V18.919a.936.936,0,0,1,1.873,0Zm8.739-.936H16.23V19.856H23.1Zm12.04-14.608H32.53V11.226h2.607v3.011ZM30.783,9.353a.937.937,0,0,1-.936-.936V3.2a.937.937,0,0,1,.936-.936h6.1a.937.937,0,0,1,.936.936V8.417a.937.937,0,0,1-.936.936ZM48.911,28.844H44.571V19.855h8.14a7.474,7.474,0,0,1,7.465,7.465V39.456H51.187V31.12A2.279,2.279,0,0,0,48.911,28.844ZM61.113,43.2H50.251a.936.936,0,1,1,0-1.873H61.113a.936.936,0,1,1,0,1.873Zm-4.787,4.449a.936.936,0,0,0-1.288,0c-.63.6-6.157,5.935-6.157,9.473a6.8,6.8,0,0,0,13.6,0C62.483,53.585,56.956,48.248,56.326,47.651Zm-.644,14.4a4.932,4.932,0,0,1-4.928-4.926c0-1.866,2.8-5.327,4.928-7.481,2.129,2.155,4.928,5.615,4.928,7.481A4.932,4.932,0,0,1,55.682,62.049Z"/>
    </g>
  </g>
</svg>
