<svg id="Grupo_1202352" data-name="Grupo 1202352" xmlns="http://www.w3.org/2000/svg" xmlns:xlink="http://www.w3.org/1999/xlink" width="90" height="90" viewBox="0 0 90 90">
  <defs>
    <clipPath id="clip-path">
      <rect id="Rectángulo_409696" data-name="Rectángulo 409696" width="69.669" height="55.539" fill="none"/>
    </clipPath>
  </defs>
  <path id="Trazado_1036578" data-name="Trazado 1036578" d="M0,0H90V90H0Z" fill="none"/>
  <g id="Grupo_1202353" data-name="Grupo 1202353" transform="translate(10 17)">
    <g id="Grupo_1202091" data-name="Grupo 1202091" clip-path="url(#clip-path)">
      <path id="Trazado_1036197" data-name="Trazado 1036197" d="M69.67,40.618v.952a5.551,5.551,0,0,1-2.72,2.042c.627,1.086,2.184,4.661.277,5.1a18.658,18.658,0,0,1-7.677-.488,17.5,17.5,0,0,1-6.88-4c-.4-.37-1.325-1.653-1.7-1.7a34.575,34.575,0,0,0-3.708.776c-1.464.254-2.933.5-4.419.612l-4.988,8.61c2.1.074,2.452,2.671.2,2.923a37.475,37.475,0,0,1-6.2-.061,1.387,1.387,0,0,1,.108-2.762c.673-.113,2.45.138,2.822-.17l4.556-8.293-6.056-.424L31.05,47.758c1.692.053,2.39,1.811.855,2.759l-7.255-.033a1.318,1.318,0,0,1-.6-1.973c.765-1.224,2.669-.464,3.841-.715L30.5,43.133c-1.4-.58-2.871-.964-4.261-1.582-1.208-.537-6.061-3.219-6.418-4.324A1.384,1.384,0,0,1,21.507,35.4a20.749,20.749,0,0,1,2.454,1.766c6.907,4.48,14.942,4.9,22.889,3.407a11.676,11.676,0,0,0,2.116-.471c.137-.062.221.031.158-.22l-1.993-3.21a28.852,28.852,0,0,0-4.317-.137c-5.166-.288-11.968-1.355-16.376-4.158-6.966-4.428-10.213-14.048-3.757-20.461.374-.372,2.589-1.967,2.637-2.13a4.392,4.392,0,0,0-.588-1.948C21.231.678,9.536.992,8.377,9.582a8.731,8.731,0,0,1-.129,1.467,8.285,8.285,0,0,1,4.563,6.263c.292,2.921.236,4.036,1.238,6.921.366,1.055,1.883,3.346.353,4.019-1.8.792-2.47-1.791-2.937-3.067a20.036,20.036,0,0,1-.95-3.335,21.161,21.161,0,0,1-6.593.679A13.188,13.188,0,0,1,.86,22.056C-.367,21.506.02,19.778.221,18.7a11.546,11.546,0,0,1,5.2-7.178C5.442,3.584,11.845-1.569,19.628.432a12.051,12.051,0,0,1,8.565,8.841A55.43,55.43,0,0,1,59.31,30.512c.556.8,1.379,2.532,1.926,3.106a14.837,14.837,0,0,0,1.706,1.013,26.7,26.7,0,0,1,6.729,5.986m-32.116-25A45.047,45.047,0,0,0,27.3,11.942c-6.409,3.415-6.923,10.3-2.306,15.623.59.68,2.671,2.6,3.47,2.8.641.16,2.336-1.189,2.857-1.642a19.754,19.754,0,0,0,6.231-13.1M10.085,18.974a5.148,5.148,0,0,0-2.9-5.283c-2.088,1.35-4.127,3.342-4.282,5.985,2.4.148,4.932.287,7.185-.7M57.838,33.409A47.829,47.829,0,0,0,42.461,18.4c-.591-.367-1.354-.881-1.96-1.171-.126-.06-.1-.229-.275,0l-.741,3.4a4.109,4.109,0,0,1,.953.342A53.221,53.221,0,0,1,54.1,32.049c.234.253.984,1.325,1.155,1.429a7.01,7.01,0,0,0,2.583-.069m-5.983.41a46.835,46.835,0,0,0-7.145-6.794A25.823,25.823,0,0,0,38.473,23.2l-1.44,2.862c3.86,2.4,7.576,5.039,11.219,7.754Zm-8.567-.137-7.821-5.437a19.084,19.084,0,0,1-3.6,3.6,38.616,38.616,0,0,0,11.422,1.834M66.27,41.024c.06-.234-.1-.271-.2-.407-.77-1-5.106-4.347-6.253-4.49a17.257,17.257,0,0,0-2.383.141c1.957,2.627,5.215,6.189,8.839,4.756m-3.875,5.033c.844.081,1.794-.059,2.651,0l-.992-1.863c-4.374-.679-7.428-4.2-9.876-7.6-.374-.4-.842-.061-1.3-.052-.885.018-1.774-.027-2.657,0,2.58,4.449,6.7,8.992,12.171,9.518" transform="translate(-0.001 0)" fill="#1a1818"/>
      <path id="Trazado_1036198" data-name="Trazado 1036198" d="M70.116,60.17a1.381,1.381,0,1,1-1.381-1.381,1.381,1.381,0,0,1,1.381,1.381" transform="translate(-55.117 -48.109)" fill="#1a1818"/>
      <path id="Trazado_1036199" data-name="Trazado 1036199" d="M88.089,171.625a1.373,1.373,0,1,1-1.373-1.373,1.373,1.373,0,0,1,1.373,1.373" transform="translate(-69.838 -139.322)" fill="#1a1818"/>
    </g>
  </g>
</svg>
