<svg xmlns="http://www.w3.org/2000/svg" width="63" height="63" viewBox="0 0 63 63">
  <g id="Grupo_1202344" data-name="Grupo 1202344" transform="translate(-306.268 -1943)">
    <circle id="Elipse_12371" data-name="Elipse 12371" cx="31.5" cy="31.5" r="31.5" transform="translate(306.268 1943)" fill="#26c790"/>
    <g id="Grupo_1202292" data-name="Grupo 1202292" transform="translate(300.643 1946.997)">
      <path id="Trazado_1036668" data-name="Trazado 1036668" d="M59.209,45.624A46.231,46.231,0,0,1,49.4,23.878,7.032,7.032,0,0,0,42.566,18h-.128a7.062,7.062,0,0,0-5.39,2.5,6.974,6.974,0,0,0-1.578,5.649A60.257,60.257,0,0,0,48.3,54.566a6.965,6.965,0,0,0,5.413,2.554,7.059,7.059,0,0,0,5.5-11.5Zm-1.242,8.041a5.579,5.579,0,0,1-4.259,1.969,5.482,5.482,0,0,1-4.262-2.011A58.769,58.769,0,0,1,36.939,25.906a5.49,5.49,0,0,1,1.244-4.447,5.574,5.574,0,0,1,4.248-1.971h.114a5.543,5.543,0,0,1,5.382,4.631A47.722,47.722,0,0,0,58.056,46.566a5.541,5.541,0,0,1-.089,7.1Z" transform="translate(-11.355 -10.344)"/>
      <path id="Trazado_1036669" data-name="Trazado 1036669" d="M56.078,41.623l-3.383-.26a10.436,10.436,0,0,0-.334-4.733l3.12-1.749a.744.744,0,1,0-.728-1.3L51.814,35.23a10.389,10.389,0,0,0-1.326-2.1c-.753-.921-1.461-1.876-2.132-2.853L51.878,29.2a.744.744,0,1,0-.432-1.424l-3.946,1.2a42.867,42.867,0,0,1-2.812-5.185l3.277-2.059a.744.744,0,0,0-.792-1.26l-3.087,1.939a42.8,42.8,0,0,1-2.225-7.059l3.469-.725a.744.744,0,1,0-.305-1.457l-3.461.725c-.057-.3-.115-.607-.165-.912a10.366,10.366,0,0,0-2.943-5.7l2.587-2.739a.744.744,0,1,0-1.083-1.021L37.326,6.317a10.43,10.43,0,0,0-4.12-1.845l.983-2.9a.744.744,0,0,0-1.41-.478L31.7,4.282c-.14-.008-.278-.024-.418-.026A10.515,10.515,0,0,0,28.06,4.7L26.529.492a.744.744,0,1,0-1.4.51L26.67,5.234a10.46,10.46,0,0,0-2.73,1.838L19.779,3.479a.744.744,0,1,0-.973,1.126l4.122,3.561a10.378,10.378,0,0,0-2.12,4.577l-4.317-.718a.744.744,0,0,0-.244,1.468l4.388.729a10.389,10.389,0,0,0,.124,2.126c.17,1.044.375,2.08.6,3.112l-3.669,2.208a.744.744,0,1,0,.765,1.276L21.7,20.988a63.636,63.636,0,0,0,2.044,6.788l-3.037.292a.745.745,0,0,0,.071,1.485.511.511,0,0,0,.072,0l3.439-.331q.95,2.435,2.093,4.787l-3.286,2.505a.744.744,0,1,0,.9,1.184l3.073-2.339A63.591,63.591,0,0,0,31.2,42.229l-3.263,1.076a.745.745,0,0,0,.468,1.414L32.1,43.5q1.065,1.467,2.211,2.875.193.235.4.458l-2.274,3.425a.744.744,0,1,0,1.24.823l2.136-3.216a10.371,10.371,0,0,0,6.445,2.313h.1l.088,0,.563,3.622a.744.744,0,0,0,.734.632.757.757,0,0,0,.115-.009.744.744,0,0,0,.621-.85l-.546-3.512a10.437,10.437,0,0,0,5.123-2.3l4.06,3.912A.744.744,0,1,0,54.145,50.6l-4.02-3.873c.071-.079.144-.156.213-.237a10.445,10.445,0,0,0,2.01-3.657l3.614.278.058,0a.744.744,0,0,0,.056-1.486Zm-6.871,3.9a8.979,8.979,0,0,1-6.938,3.165,8.88,8.88,0,0,1-6.81-3.258A62.177,62.177,0,0,1,22.227,16.109a8.879,8.879,0,0,1,2.061-7.261,8.972,8.972,0,0,1,6.8-3.106h.17a8.944,8.944,0,0,1,8.674,7.484c.092.561.2,1.118.311,1.675a.1.1,0,0,0,0,.034c0,.011.006.012.008.02a44.293,44.293,0,0,0,2.776,8.763.743.743,0,0,0,.082.191,44.322,44.322,0,0,0,3.438,6.345.614.614,0,0,0,.034.053,44.1,44.1,0,0,0,2.752,3.763A8.944,8.944,0,0,1,49.206,45.524Z" transform="translate(0 0)"/>
      <path id="Trazado_1036670" data-name="Trazado 1036670" d="M50.4,32.346a3.1,3.1,0,1,0-3.1,3.1A3.1,3.1,0,0,0,50.4,32.346Zm-4.722,0a1.616,1.616,0,1,1,1.616,1.616A1.616,1.616,0,0,1,45.679,32.346Z" transform="translate(-16.421 -16.806)"/>
      <path id="Trazado_1036671" data-name="Trazado 1036671" d="M68.6,76.3a3.1,3.1,0,1,0-3.1,3.1A3.1,3.1,0,0,0,68.6,76.3Zm-3.1,1.616A1.616,1.616,0,1,1,67.108,76.3a1.616,1.616,0,0,1-1.616,1.616Z" transform="translate(-26.879 -42.072)"/>
      <path id="Trazado_1036672" data-name="Trazado 1036672" d="M52.547,52.131a.744.744,0,0,0-.461-.946l-2.78-.957a.744.744,0,0,0-.484,1.407l2.78.957a.743.743,0,0,0,.946-.462Z" transform="translate(-18.793 -28.846)"/>
      <path id="Trazado_1036673" data-name="Trazado 1036673" d="M60.853,58.237a.745.745,0,0,0-1,.332L58,62.268a.744.744,0,1,0,1.331.667l1.854-3.7A.745.745,0,0,0,60.853,58.237Z" transform="translate(-24.312 -33.427)"/>
      <path id="Trazado_1036674" data-name="Trazado 1036674" d="M77.3,89.985a.745.745,0,0,0-1.021.252L74.61,93a.745.745,0,0,0,1.276.77l1.672-2.764a.744.744,0,0,0-.255-1.022Z" transform="translate(-33.842 -51.658)"/>
    </g>
  </g>
</svg>
