<svg xmlns="http://www.w3.org/2000/svg" width="82" height="82" viewBox="0 0 82 82">
  <g id="Grupo_1202618" data-name="Grupo 1202618" transform="translate(3036 3474)">
    <rect id="Rectángulo_410121" data-name="Rectángulo 410121" width="82" height="82" transform="translate(-3036 -3474)" fill="none"/>
    <path id="Trazado_1037053" data-name="Trazado 1037053" d="M78.349,60.09H73.555V57.418a1,1,0,0,0-1-1H70.715V35.542a1,1,0,0,0-1-1h-9.51V32.7a1,1,0,0,0-1-1H55.929a12.423,12.423,0,0,0-7.919-7.919V20.5a1,1,0,0,0-1-1H45.17V10a1,1,0,0,0-1.994,0v9.51H41.332a1,1,0,0,0-1,1v3.281A12.423,12.423,0,0,0,32.416,31.7H29.135a1,1,0,0,0-1,1v1.844h-9.51a1,1,0,0,0-1,1v20.88H15.787a1,1,0,0,0-1,1V60.09H10a1,1,0,0,0-1,1V78.349a1,1,0,0,0,1,1H27.259a1,1,0,0,0,1-1V61.086a1,1,0,0,0-1-1H22.466V57.418a1,1,0,0,0-1-1H19.625V36.538h8.513v1.844a1,1,0,0,0,1,1h3.281A12.424,12.424,0,0,0,40.335,47.3V50.58a1,1,0,0,0,1,1h1.844v4.845H41.332a1,1,0,0,0-1,1V60.09H35.542a1,1,0,0,0-1,1V78.349a1,1,0,0,0,1,1H52.8a1,1,0,0,0,1-1V61.086a1,1,0,0,0-1-1H48.011V57.418a1,1,0,0,0-1-1H45.17V51.576h1.844a1,1,0,0,0,1-1V47.3a12.424,12.424,0,0,0,7.919-7.919h3.281a1,1,0,0,0,1-1V36.538h8.513V56.421H66.877a1,1,0,0,0-1,1v2.671H61.086a1,1,0,0,0-1,1V78.349a1,1,0,0,0,1,1H78.349a1,1,0,0,0,1-1V61.086a1,1,0,0,0-1-1ZM26.263,77.352H10.994V62.083H26.263ZM20.472,60.09H16.784V58.415h3.688ZM51.807,77.352H36.538V62.083H51.807ZM46.017,60.09H42.329V58.415h3.688ZM42.329,21.5h3.688v1.812a12.427,12.427,0,0,0-3.688,0Zm-12.2,15.885V33.7h1.812a12.428,12.428,0,0,0,0,3.688Zm15.885,12.2H42.329V47.771a12.428,12.428,0,0,0,3.688,0v1.812Zm-1.844-3.668A10.373,10.373,0,1,1,54.546,35.542,10.385,10.385,0,0,1,44.173,45.915Zm14.041-8.529H56.4a12.428,12.428,0,0,0,0-3.688h1.812Zm9.66,21.03h3.688V60.09H67.874Zm9.478,18.937H62.083V62.083H77.352Zm-7.635-1.926a5.709,5.709,0,1,0-5.709-5.709A5.715,5.715,0,0,0,69.718,75.427Zm-1-9.287v.085a1,1,0,0,0,1.994,0v-.085a3.714,3.714,0,0,1,0,7.157v-.085a1,1,0,0,0-1.994,0V73.3a3.714,3.714,0,0,1,0-7.157Zm2.057,3.578a1,1,0,1,1,1,1A1,1,0,0,1,70.778,69.718Zm-3.117,1a1,1,0,1,1,1-1A1,1,0,0,1,67.661,70.714ZM44.173,75.427a5.709,5.709,0,1,0-5.709-5.709A5.715,5.715,0,0,0,44.173,75.427Zm-1-9.287v.085a1,1,0,1,0,1.994,0v-.085a3.714,3.714,0,0,1,0,7.157v-.085a1,1,0,0,0-1.994,0V73.3a3.714,3.714,0,0,1,0-7.157Zm2.057,3.578a1,1,0,1,1,1,1A1,1,0,0,1,45.233,69.718Zm-3.117,1a1,1,0,1,1,1-1A1,1,0,0,1,42.116,70.714ZM18.628,75.427a5.709,5.709,0,1,0-5.709-5.709A5.715,5.715,0,0,0,18.628,75.427Zm-1-9.287v.085a1,1,0,1,0,1.994,0v-.085a3.714,3.714,0,0,1,0,7.157v-.085a1,1,0,1,0-1.994,0V73.3a3.714,3.714,0,0,1,0-7.157Zm2.057,3.578a1,1,0,1,1,1,1A1,1,0,0,1,19.688,69.718Zm-3.117,1a1,1,0,1,1,1-1A1,1,0,0,1,16.571,70.714Zm27.6-42.082a6.909,6.909,0,1,0,6.909,6.909,6.917,6.917,0,0,0-6.909-6.909Zm0,11.825a4.916,4.916,0,1,1,4.916-4.916,4.921,4.921,0,0,1-4.916,4.916Z" transform="translate(-3039 -3477)"/>
  </g>
</svg>
